<svg width="259" height="99" viewBox="0 0 259 99" fill="none" xmlns="http://www.w3.org/2000/svg">
<path d="M7.65991 92.2195V97.8979H251.34V92.2195" stroke="#848484" stroke-miterlimit="10" stroke-linecap="round" stroke-linejoin="round"/>
<path d="M17.6589 0.5V6.17859H241.218V0.5H17.6589Z" stroke="#848484" stroke-miterlimit="10" stroke-linecap="round" stroke-linejoin="round"/>
<path d="M0.5 6.17871V92.2198H258.5V6.17871H0.5Z" stroke="#232323" stroke-miterlimit="10" stroke-linecap="round" stroke-linejoin="round"/>
<path d="M253.192 11.363H5.56128V87.0349H253.192V11.363Z" stroke="#232323" stroke-miterlimit="10" stroke-linecap="round" stroke-linejoin="round"/>
<path d="M127.895 14.6963V83.7021" stroke="#232323" stroke-miterlimit="10" stroke-linecap="round" stroke-linejoin="round"/>
<path d="M115.427 64.321V36.1755C115.427 35.3114 116.168 34.4473 117.156 34.4473H119.748C120.612 34.4473 121.476 35.188 121.476 36.1755V64.321C121.476 65.1852 120.735 66.0493 119.748 66.0493H117.156C116.168 66.0493 115.427 65.3086 115.427 64.321Z" stroke="#848484" stroke-miterlimit="10" stroke-linecap="round" stroke-linejoin="round"/>
<path d="M133.203 64.321V36.1755C133.203 35.3114 133.944 34.4473 134.932 34.4473H137.524C138.388 34.4473 139.252 35.188 139.252 36.1755V64.321C139.252 65.1852 138.512 66.0493 137.524 66.0493H134.932C133.944 66.0493 133.203 65.3086 133.203 64.321Z" stroke="#848484" stroke-miterlimit="10" stroke-linecap="round" stroke-linejoin="round"/>
</svg>
