<svg width="272" height="104" viewBox="0 0 272 104" fill="none" xmlns="http://www.w3.org/2000/svg">
<path d="M8.24292 96.8035V102.75H263.257V96.8035" fill="#F29D07" fill-opacity="0.4"/>
<path d="M8.24292 96.8035V102.75H263.257V96.8035" stroke="#232323" stroke-width="1.5" stroke-miterlimit="10" stroke-linecap="round" stroke-linejoin="round"/>
<path d="M18.707 0.75V6.69692H252.664V0.75H18.707Z" fill="#F29D07" fill-opacity="0.4" stroke="#232323" stroke-width="1.5" stroke-miterlimit="10" stroke-linecap="round" stroke-linejoin="round"/>
<path d="M0.75 6.69702V96.8038H270.75V6.69702H0.75Z" fill="#F29D07" fill-opacity="0.4" stroke="#232323" stroke-width="1.5" stroke-miterlimit="10" stroke-linecap="round" stroke-linejoin="round"/>
<path d="M265.195 12.1262H6.04663V91.3738H265.195V12.1262Z" stroke="#232323" stroke-width="1.5" stroke-miterlimit="10" stroke-linecap="round" stroke-linejoin="round"/>
<path d="M134.071 15.6169V87.8834" stroke="#232323" stroke-width="1.5" stroke-miterlimit="10" stroke-linecap="round" stroke-linejoin="round"/>
<path d="M121.023 67.5869V38.1114C121.023 37.2065 121.798 36.3015 122.831 36.3015H125.544C126.449 36.3015 127.353 37.0772 127.353 38.1114V67.5869C127.353 68.4919 126.578 69.3968 125.544 69.3968H122.831C121.798 69.3968 121.023 68.6211 121.023 67.5869Z" stroke="#232323" stroke-miterlimit="10" stroke-linecap="round" stroke-linejoin="round"/>
<path d="M139.625 67.5869V38.1114C139.625 37.2065 140.401 36.3015 141.434 36.3015H144.147C145.051 36.3015 145.956 37.0772 145.956 38.1114V67.5869C145.956 68.4919 145.181 69.3968 144.147 69.3968H141.434C140.401 69.3968 139.625 68.6211 139.625 67.5869Z" stroke="#232323" stroke-miterlimit="10" stroke-linecap="round" stroke-linejoin="round"/>
</svg>
