<svg width="1121" height="388" viewBox="0 0 1121 388" fill="none" xmlns="http://www.w3.org/2000/svg">
<g clip-path="url(#clip0_2205_2789)">
<g opacity="0.5">
<path d="M220.2 282.5H37.5996V338.2H220.2V282.5Z" fill="#D7D7D7"/>
</g>
<path d="M224.4 223.1H34.5996V227.3H224.4V223.1Z" stroke="#5C5C5C" stroke-width="0.5814" stroke-miterlimit="10" stroke-linecap="round" stroke-linejoin="round"/>
<path d="M41.9004 223.1V87.9004H49.3004V223.1" stroke="#5C5C5C" stroke-width="0.6485" stroke-miterlimit="10" stroke-linecap="round" stroke-linejoin="round"/>
<path d="M217.2 223.1V87.9004H209.8V223.1" stroke="#5C5C5C" stroke-width="0.6485" stroke-miterlimit="10" stroke-linecap="round" stroke-linejoin="round"/>
<path d="M209.8 162.6L49.2998 162.7" stroke="#5C5C5C" stroke-width="0.6485" stroke-miterlimit="10" stroke-linecap="round" stroke-linejoin="round"/>
<path d="M49.2998 160.1H209.8" stroke="#5C5C5C" stroke-width="0.6485" stroke-miterlimit="10" stroke-linecap="round" stroke-linejoin="round"/>
<path d="M49.2998 99.6992V97.1992" stroke="#5C5C5C" stroke-width="0.6485" stroke-miterlimit="10" stroke-linecap="round" stroke-linejoin="round"/>
<path d="M209.8 99.6992H49.2998" stroke="#5C5C5C" stroke-width="0.6485" stroke-miterlimit="10" stroke-linecap="round" stroke-linejoin="round"/>
<path d="M49.2998 97.1992H209.8" stroke="#5C5C5C" stroke-width="0.6485" stroke-miterlimit="10" stroke-linecap="round" stroke-linejoin="round"/>
<path d="M209.8 99.6992H50.7002" stroke="#5C5C5C" stroke-width="0.6485" stroke-miterlimit="10" stroke-linecap="round" stroke-linejoin="round"/>
<path d="M209.8 166.9H49.2998" stroke="#5C5C5C" stroke-width="0.6485" stroke-miterlimit="10" stroke-linecap="round" stroke-linejoin="round"/>
<path d="M49.2998 103.301H209.8" stroke="#5C5C5C" stroke-width="0.6485" stroke-miterlimit="10" stroke-linecap="round" stroke-linejoin="round"/>
<circle cx="209.8" cy="166.9" r="0.32425" fill="#5C5C5C"/>
<circle cx="216.8" cy="200.6" r="0.32425" fill="#5C5C5C"/>
<path d="M49.2998 99.6992H78.4998" stroke="#5C5C5C" stroke-width="0.6485" stroke-miterlimit="10" stroke-linecap="round" stroke-linejoin="round"/>
<circle cx="49.2998" cy="99.6992" r="0.32425" fill="#5C5C5C"/>
<circle cx="78.5" cy="99.6992" r="0.32425" fill="#5C5C5C"/>
<path opacity="0.5" d="M219.9 231.6L133.8 231.5V227.1H219.9V231.6Z" fill="#D7D7D7"/>
<path d="M133.7 227.301V231.501" stroke="#C0C0BF" stroke-width="0.4324" stroke-miterlimit="10" stroke-linecap="round" stroke-linejoin="round"/>
<path d="M219.4 227.5V231.7" stroke="#C0C0BF" stroke-width="0.4324" stroke-miterlimit="10" stroke-linecap="round" stroke-linejoin="round"/>
<path opacity="0.5" d="M124.1 232L38.0996 231.9V227.5H124.1V232Z" fill="#D7D7D7"/>
<path d="M37.9004 227.6V231.4" stroke="#C0C0BF" stroke-width="0.4324" stroke-miterlimit="10" stroke-linecap="round" stroke-linejoin="round"/>
<path d="M124.1 227.199V231.999" stroke="#C0C0BF" stroke-width="0.4324" stroke-miterlimit="10" stroke-linecap="round" stroke-linejoin="round"/>
<path d="M38.7002 236.1V269.9H220.2V236.1H38.7002Z" stroke="#575756" stroke-width="0.6498" stroke-miterlimit="10" stroke-linecap="round" stroke-linejoin="round"/>
<path d="M224.2 274.1V231.9H34.5V274.1H224.2Z" stroke="#5C5C5C" stroke-width="0.6485" stroke-miterlimit="10" stroke-linecap="round" stroke-linejoin="round"/>
<path opacity="0.5" d="M218.1 278.001L132.1 278.601V274.301H218.1V278.001Z" fill="#D7D7D7"/>
<path opacity="0.5" d="M123.6 274.4H38.2002V278.7H123.6V274.4Z" fill="#D7D7D7"/>
<path d="M123.6 274.1V278.3" stroke="#C0C0BF" stroke-width="0.4324" stroke-miterlimit="10" stroke-linecap="round" stroke-linejoin="round"/>
<path d="M132.1 274.1V278.3" stroke="#C0C0BF" stroke-width="0.4324" stroke-miterlimit="10" stroke-linecap="round" stroke-linejoin="round"/>
<path d="M38 278.6V274.4" stroke="#C0C0BF" stroke-width="0.4324" stroke-miterlimit="10" stroke-linecap="round" stroke-linejoin="round"/>
<path d="M218.1 274V278.2" stroke="#C0C0BF" stroke-width="0.4324" stroke-miterlimit="10" stroke-linecap="round" stroke-linejoin="round"/>
<path opacity="0.5" d="M219 342.1H39.2998V344.6H219V342.1Z" fill="#D7D7D7"/>
<path d="M218.8 342.4H39.0996V344.5H218.8V342.4Z" stroke="#C0C0BF" stroke-width="0.3057" stroke-miterlimit="10" stroke-linecap="round" stroke-linejoin="round"/>
<path d="M224 386.8V344.5H33.7998V386.8H41.1998" stroke="#5C5C5C" stroke-width="0.6485" stroke-miterlimit="10" stroke-linecap="round" stroke-linejoin="round"/>
<path d="M41.2002 386.8V351.9H216.6V386.8H224" stroke="#5C5C5C" stroke-width="0.6485" stroke-miterlimit="10" stroke-linecap="round" stroke-linejoin="round"/>
<path d="M41.2002 351.9V344.6" stroke="#5C5C5C" stroke-width="0.6485" stroke-miterlimit="10" stroke-linecap="round" stroke-linejoin="round"/>
<path d="M216.6 351.9V344.6" stroke="#5C5C5C" stroke-width="0.6485" stroke-miterlimit="10" stroke-linecap="round" stroke-linejoin="round"/>
<path d="M220.2 282.5H37.5996V338.2H220.2V282.5Z" stroke="#5C5C5C" stroke-width="0.6485" stroke-miterlimit="10" stroke-linecap="round" stroke-linejoin="round"/>
<path d="M33.7998 341.999V278.699H224V341.999H33.7998Z" stroke="#5C5C5C" stroke-width="0.6485" stroke-miterlimit="10" stroke-linecap="round" stroke-linejoin="round"/>
<g opacity="0.5">
<path d="M497 193.801H410.8V227.401H497V193.801Z" fill="#D7D7D7"/>
</g>
<g opacity="0.5">
<path d="M401.2 194.1H315V227.7H401.2V194.1Z" fill="#D7D7D7"/>
</g>
<g opacity="0.5">
<path d="M496.5 240.1H313.9V295.8H496.5V240.1Z" fill="#D7D7D7"/>
</g>
<g opacity="0.5">
<path d="M401.2 194H315.1V227.3H401.2V194Z" fill="#D7D7D7"/>
</g>
<g opacity="0.5">
<path d="M496.3 194.301H410.2V227.601H496.3V194.301Z" fill="#D7D7D7"/>
</g>
<path opacity="0.5" d="M495.8 232.301H411.9V236.001H495.8V232.301Z" fill="#D7D7D7"/>
<path opacity="0.5" d="M495.9 232H411.9V235.7H495.9V232Z" stroke="#D7D7D7" stroke-width="0.0647386" stroke-miterlimit="10"/>
<path d="M411.8 232.299V235.999H495.9V232.199" stroke="#C0C0BF" stroke-width="0.4324" stroke-miterlimit="10" stroke-linecap="round" stroke-linejoin="round"/>
<path opacity="0.5" d="M402.9 232.199H315.6V236.099H402.9V232.199Z" fill="#D7D7D7"/>
<path d="M402.9 232.199V236.099" stroke="#C0C0BF" stroke-width="0.4324" stroke-miterlimit="10" stroke-linecap="round" stroke-linejoin="round"/>
<path d="M315.6 232.199V236.099" stroke="#C0C0BF" stroke-width="0.4324" stroke-miterlimit="10" stroke-linecap="round" stroke-linejoin="round"/>
<path opacity="0.5" d="M495.5 299.699H316V302.599H495.5V299.699Z" fill="#D7D7D7"/>
<path d="M495.5 299.699V302.599H316V299.699" stroke="#C0C0BF" stroke-width="0.4324" stroke-miterlimit="10" stroke-linecap="round" stroke-linejoin="round"/>
<path d="M310.8 386.7V302.6H500.5V386.8H493.1V386.7V310H318.1V386.7H310.8Z" stroke="#5C5C5C" stroke-width="0.6485" stroke-miterlimit="10" stroke-linecap="round" stroke-linejoin="round"/>
<path d="M318.1 344.699H493.1" stroke="#5C5C5C" stroke-width="0.6485" stroke-miterlimit="10" stroke-linecap="round" stroke-linejoin="round"/>
<path d="M318.1 352H493.1" stroke="#5C5C5C" stroke-width="0.6485" stroke-miterlimit="10" stroke-linecap="round" stroke-linejoin="round"/>
<circle cx="500.5" cy="302.6" r="0.32425" fill="#5C5C5C"/>
<path d="M318.1 310V302.6" stroke="#5C5C5C" stroke-width="0.6485" stroke-miterlimit="10" stroke-linecap="round" stroke-linejoin="round"/>
<path d="M493.1 310V302.6" stroke="#5C5C5C" stroke-width="0.6485" stroke-miterlimit="10" stroke-linecap="round" stroke-linejoin="round"/>
<path d="M497 240.199H314.4V295.899H497V240.199Z" stroke="#575756" stroke-width="0.6485" stroke-miterlimit="10" stroke-linecap="round" stroke-linejoin="round"/>
<path d="M310.6 299.7V236.4H500.8V299.7H310.6Z" stroke="#5C5C5C" stroke-width="0.6485" stroke-miterlimit="10" stroke-linecap="round" stroke-linejoin="round"/>
<path opacity="0.5" d="M495.6 185.801H411.7V189.501H495.6V185.801Z" fill="#D7D7D7"/>
<path opacity="0.5" d="M495.7 185.5H411.7V189.2H495.7V185.5Z" stroke="#D7D7D7" stroke-width="0.0647386" stroke-miterlimit="10"/>
<path d="M411.6 185.301V189.501H495.7V185.301" stroke="#C0C0BF" stroke-width="0.4324" stroke-miterlimit="10" stroke-linecap="round" stroke-linejoin="round"/>
<path d="M496.7 193.9H410.5V227.5H496.7V193.9Z" stroke="#3C3C3B" stroke-width="0.6485" stroke-miterlimit="10"/>
<path d="M401.2 193.801H315V227.401H401.2V193.801Z" stroke="#5C5C5C" stroke-width="0.6485" stroke-miterlimit="10" stroke-linecap="round" stroke-linejoin="round"/>
<path d="M405.9 189.6V231.6H500.5V189.6H405.9Z" stroke="#5C5C5C" stroke-width="0.6485" stroke-miterlimit="10" stroke-linecap="round" stroke-linejoin="round"/>
<path d="M496.7 193.801H410.5V227.401H496.7V193.801Z" stroke="#5C5C5C" stroke-width="0.6485" stroke-miterlimit="10" stroke-linecap="round" stroke-linejoin="round"/>
<path opacity="0.5" d="M402.7 185.699H315.4V189.599H402.7V185.699Z" fill="#D7D7D7"/>
<path d="M402.7 185.301V189.601" stroke="#C0C0BF" stroke-width="0.4324" stroke-miterlimit="10" stroke-linecap="round" stroke-linejoin="round"/>
<path d="M315.4 186.199V189.599" stroke="#5C5C5C" stroke-width="0.6485" stroke-miterlimit="10" stroke-linecap="round" stroke-linejoin="round"/>
<path d="M310.8 189.6V231.6H405.4V189.6H310.8Z" stroke="#5C5C5C" stroke-width="0.6485" stroke-miterlimit="10" stroke-linecap="round" stroke-linejoin="round"/>
<path d="M316.7 185.3H310.6V181.1H499.8V185.3H494.6H318.7H316.7Z" stroke="#5C5C5C" stroke-width="0.6485" stroke-miterlimit="10" stroke-linecap="round" stroke-linejoin="round"/>
<g opacity="0.5">
<path d="M773.3 283H590.7V338.7H773.3V283Z" fill="#D7D7D7"/>
</g>
<path opacity="0.5" d="M772 275.1H688.1V278.8H772V275.1Z" fill="#D7D7D7"/>
<path opacity="0.5" d="M772.1 274.801H688.1V278.501H772.1V274.801Z" stroke="#D7D7D7" stroke-width="0.0647386" stroke-miterlimit="10"/>
<path d="M688.1 274.6V278.8H772.2V274.6" stroke="#C0C0BF" stroke-width="0.4324" stroke-miterlimit="10" stroke-linecap="round" stroke-linejoin="round"/>
<path opacity="0.5" d="M679.2 275H591.9V278.9H679.2V275Z" fill="#D7D7D7"/>
<path d="M679.2 274.6V278.9" stroke="#C0C0BF" stroke-width="0.4324" stroke-miterlimit="10" stroke-linecap="round" stroke-linejoin="round"/>
<path d="M591.9 274.801V279.101" stroke="#C0C0BF" stroke-width="0.4324" stroke-miterlimit="10" stroke-linecap="round" stroke-linejoin="round"/>
<path d="M603.201 270.801H595.801" stroke="#5C5C5C" stroke-width="0.6485" stroke-miterlimit="10" stroke-linecap="round" stroke-linejoin="round"/>
<path d="M595.801 270.801V0.300781H603.201V270.801" stroke="#5C5C5C" stroke-width="0.6485" stroke-miterlimit="10" stroke-linecap="round" stroke-linejoin="round"/>
<path d="M771.201 270.801V0.300781H763.801V270.801" stroke="#5C5C5C" stroke-width="0.6485" stroke-miterlimit="10" stroke-linecap="round" stroke-linejoin="round"/>
<path d="M603.2 205.5H763.8V208H603.2V205.5Z" stroke="#5C5C5C" stroke-width="0.6485" stroke-miterlimit="10" stroke-linecap="round" stroke-linejoin="round"/>
<path d="M586.9 270.801H777.1V274.601H586.9V270.801Z" stroke="#5C5C5C" stroke-width="0.6485" stroke-miterlimit="10" stroke-linecap="round" stroke-linejoin="round"/>
<path d="M603.2 140.201H763.8V142.701H603.2V140.201Z" stroke="#5C5C5C" stroke-width="0.6485" stroke-miterlimit="10" stroke-linecap="round" stroke-linejoin="round"/>
<path d="M763.8 142.701H603.2" stroke="#5C5C5C" stroke-width="0.6485" stroke-miterlimit="10" stroke-linecap="round" stroke-linejoin="round"/>
<path d="M763.8 212.201H603.2" stroke="#5C5C5C" stroke-width="0.6485" stroke-miterlimit="10" stroke-linecap="round" stroke-linejoin="round"/>
<path d="M763.8 146.9H603.2" stroke="#5C5C5C" stroke-width="0.6485" stroke-miterlimit="10" stroke-linecap="round" stroke-linejoin="round"/>
<path d="M603.2 74.9004H763.8V77.4004H603.2V74.9004Z" stroke="#5C5C5C" stroke-width="0.6485" stroke-miterlimit="10" stroke-linecap="round" stroke-linejoin="round"/>
<path d="M763.8 77.4004H603.2" stroke="#5C5C5C" stroke-width="0.6485" stroke-miterlimit="10" stroke-linecap="round" stroke-linejoin="round"/>
<path d="M763.8 81.7012H603.2" stroke="#5C5C5C" stroke-width="0.6485" stroke-miterlimit="10" stroke-linecap="round" stroke-linejoin="round"/>
<path d="M603.2 9.60156H763.8V12.2016H603.2V9.60156Z" stroke="#5C5C5C" stroke-width="0.6485" stroke-miterlimit="10" stroke-linecap="round" stroke-linejoin="round"/>
<path d="M763.8 16.4004H603.2" stroke="#5C5C5C" stroke-width="0.6485" stroke-miterlimit="10" stroke-linecap="round" stroke-linejoin="round"/>
<path opacity="0.5" d="M772.1 342.5H592.4V345H772.1V342.5Z" fill="#D7D7D7"/>
<path d="M772 342.9H592.3V345H772V342.9Z" stroke="#C0C0BF" stroke-width="0.3057" stroke-miterlimit="10" stroke-linecap="round" stroke-linejoin="round"/>
<path d="M777.1 387.3V345H586.9V387.3H594.3" stroke="#5C5C5C" stroke-width="0.6485" stroke-miterlimit="10" stroke-linecap="round" stroke-linejoin="round"/>
<path d="M594.3 387.3V352.4H769.7V387.3H777.1" stroke="#5C5C5C" stroke-width="0.6485" stroke-miterlimit="10" stroke-linecap="round" stroke-linejoin="round"/>
<path d="M594.3 352.4V345" stroke="#5C5C5C" stroke-width="0.6485" stroke-miterlimit="10" stroke-linecap="round" stroke-linejoin="round"/>
<path d="M769.7 352.4V345" stroke="#5C5C5C" stroke-width="0.6485" stroke-miterlimit="10" stroke-linecap="round" stroke-linejoin="round"/>
<path d="M773.3 283H590.7V338.7H773.3V283Z" stroke="#5C5C5C" stroke-width="0.6485" stroke-miterlimit="10" stroke-linecap="round" stroke-linejoin="round"/>
<path d="M586.9 342.499V279.199H777.1V342.499H586.9Z" stroke="#5C5C5C" stroke-width="0.6485" stroke-miterlimit="10" stroke-linecap="round" stroke-linejoin="round"/>
<g opacity="0.5">
<path d="M1061.6 241H879V296.7H1061.6V241Z" fill="#D7D7D7"/>
</g>
<path d="M967.3 187.5V190.9" stroke="#C0C0BF" stroke-width="0.4316" stroke-miterlimit="10" stroke-linecap="round" stroke-linejoin="round"/>
<path opacity="0.5" d="M1059.9 191.1H976.2V187.4L1059.9 187.5V191.1Z" fill="#D7D7D7"/>
<path d="M976.1 187.5V190.8H1060.1V187.5" stroke="#C0C0BF" stroke-width="0.4316" stroke-miterlimit="10" stroke-linecap="round" stroke-linejoin="round"/>
<path opacity="0.5" d="M967.3 187.5H880.1V190.8H967.3V187.5Z" fill="#D7D7D7"/>
<path d="M967.1 232.9V236.3" stroke="#C0C0BF" stroke-width="0.4316" stroke-miterlimit="10" stroke-linecap="round" stroke-linejoin="round"/>
<path opacity="0.5" d="M1059.7 236.501H976V232.801L1059.7 232.901V236.501Z" fill="#D7D7D7"/>
<path d="M976 232.9V236.2H1059.9V232.9" stroke="#C0C0BF" stroke-width="0.4316" stroke-miterlimit="10" stroke-linecap="round" stroke-linejoin="round"/>
<path d="M879.9 232.9V236.5" stroke="#C0C0BF" stroke-width="0.4316" stroke-miterlimit="10" stroke-linecap="round" stroke-linejoin="round"/>
<path opacity="0.5" d="M1060.3 299.9H881.1V302.8H1060.3V299.9Z" fill="#D7D7D7"/>
<path d="M1060.3 299.9V302.7H881.1V299.9" stroke="#C0C0BF" stroke-width="0.4316" stroke-miterlimit="10" stroke-linecap="round" stroke-linejoin="round"/>
<path d="M875.8 386.699V302.699H1065.3V386.799H1057.9V386.699V310.099H883.2V386.699H875.8Z" stroke="#5C5C5C" stroke-width="0.6474" stroke-miterlimit="10" stroke-linecap="round" stroke-linejoin="round"/>
<path d="M883.2 344.699H1057.9" stroke="#5C5C5C" stroke-width="0.6474" stroke-miterlimit="10" stroke-linecap="round" stroke-linejoin="round"/>
<path d="M883.2 352.1H1057.9" stroke="#5C5C5C" stroke-width="0.6474" stroke-miterlimit="10" stroke-linecap="round" stroke-linejoin="round"/>
<circle cx="1065.3" cy="302.701" r="0.3237" fill="#5C5C5C"/>
<path d="M883.2 310.099V302.699" stroke="#5C5C5C" stroke-width="0.6474" stroke-miterlimit="10" stroke-linecap="round" stroke-linejoin="round"/>
<path d="M1057.9 310.099V302.699" stroke="#5C5C5C" stroke-width="0.6474" stroke-miterlimit="10" stroke-linecap="round" stroke-linejoin="round"/>
<path d="M880.6 187.4H875.4V183.1H1064.8V187.4H880.6Z" stroke="#5C5C5C" stroke-width="0.5804" stroke-miterlimit="10" stroke-linecap="round" stroke-linejoin="round"/>
<path d="M1061.7 240.5H879.5V296.1H1061.7V240.5Z" stroke="#575756" stroke-width="0.6474" stroke-miterlimit="10" stroke-linecap="round" stroke-linejoin="round"/>
<path d="M875.7 299.899V236.699H1065.5V299.899H875.7Z" stroke="#5C5C5C" stroke-width="0.6474" stroke-miterlimit="10" stroke-linecap="round" stroke-linejoin="round"/>
<path opacity="0.5" d="M967.1 232.9H879.9V236.2H967.1V232.9Z" fill="#D7D7D7"/>
<path d="M875.8 191.1V232.9H970.1V191.1H875.8Z" stroke="#5C5C5C" stroke-width="0.6474" stroke-miterlimit="10" stroke-linecap="round" stroke-linejoin="round"/>
<path d="M965.9 195.199H880V228.699H965.9V195.199Z" stroke="#5C5C5C" stroke-width="0.6474" stroke-miterlimit="10" stroke-linecap="round" stroke-linejoin="round"/>
<path d="M929.6 202.8H914.5C914.1 202.8 913.8 202.5 913.8 202.1V200.3C913.8 199.9 914.1 199.6 914.5 199.6H929.6C930 199.6 930.3 199.9 930.3 200.3V202.1C930.3 202.5 930 202.8 929.6 202.8Z" fill="#C0C0BF" stroke="#5C5C5C" stroke-width="0.6474" stroke-miterlimit="10" stroke-linecap="round" stroke-linejoin="round"/>
<path d="M1025.4 201.2H1010.3C1009.9 201.2 1009.6 200.9 1009.6 200.5V198.7C1009.6 198.3 1009.9 198 1010.3 198H1025.4C1025.8 198 1026.1 198.3 1026.1 198.7V200.5C1026.1 200.9 1025.8 201.2 1025.4 201.2Z" fill="#C0C0BF" stroke="#5C5C5C" stroke-width="0.6474" stroke-miterlimit="10" stroke-linecap="round" stroke-linejoin="round"/>
<path d="M1060.9 194.6H975V228.1H1060.9V194.6Z" stroke="#5C5C5C" stroke-width="0.6474" stroke-miterlimit="10"/>
<path d="M970.8 191.1V232.9H1065.1V191.1H970.8Z" stroke="#5C5C5C" stroke-width="0.6474" stroke-miterlimit="10" stroke-linecap="round" stroke-linejoin="round"/>
</g>
<defs>
<clipPath id="clip0_2205_2789">
<rect width="1120.2" height="387.6" fill="white"/>
</clipPath>
</defs>
</svg>

