<svg width="136" height="700" viewBox="0 0 136 700" fill="none" xmlns="http://www.w3.org/2000/svg">
<g clip-path="url(#clip0_2078_515)">
<path d="M11.8242 327.126V337.023L12.2648 337.463L12.7055 337.023V327.126L12.2648 326.686L11.8242 327.126ZM434.924 327.126V336.584H30.2582L29.8175 337.023L30.2582 337.463H435.365L435.659 337.317L435.806 337.023V327.126L435.365 326.686L434.924 327.126ZM18.2871 318.255V0.879764H34.8116V318.182L35.2522 318.622L35.6929 318.182V0.439883L35.546 0.146627L35.2522 0H17.8464L17.5527 0.146627L17.4058 0.439883V318.182L17.8464 318.622L18.2871 318.255ZM431.032 318.255V0.439883L430.885 0.146627L430.591 0H413.185L412.892 0.146627L412.745 0.439883V318.182L413.185 318.622L413.626 318.182V0.879764H430.15V318.182L430.591 318.622L431.032 318.255ZM2.05637 176.246V170.308L1.61572 169.868L1.17507 170.308V176.246L1.61572 176.686L2.05637 176.246ZM412.745 175.806H35.2522L34.8116 176.246L35.2522 176.686H412.745L413.185 176.246L412.745 175.806ZM430.591 170.674H448.805V175.733H430.591L430.15 176.173L430.591 176.613H449.245L449.539 176.466L449.686 176.173V170.235L449.539 169.941L449.245 169.795H430.591L430.15 170.235L430.591 170.674ZM35.2522 170.674H413.259L413.699 170.235L413.259 169.795H35.2522L34.8116 170.235L35.2522 170.674ZM0.440646 318.255V318.695H447.556V326.759H0.881303V318.255H0.440646H0V327.199L0.146882 327.493L0.440646 327.639H448.07L448.364 327.493L448.511 327.199V318.255L448.364 317.962L448.07 317.815H0.440646L0.146882 317.962L0 318.255H0.440646ZM17.8464 21.8475H0.440646L0.146882 21.9941L0 22.2874V28.2258L0.146882 28.5191L0.440646 28.6657H17.8464L18.2871 28.2258L17.8464 27.7859H0.881303V22.7273H17.8464L18.2871 22.2874L17.8464 21.8475ZM413.185 27.8592H35.2522L34.8116 28.2991L35.2522 28.739H413.259L413.699 28.2991L413.185 27.8592ZM430.591 22.7273H447.556V27.7859H430.591L430.15 28.2258L430.591 28.6657H447.997L448.291 28.5191L448.438 28.2258V22.2874L448.291 21.9941L447.997 21.8475H430.591L430.15 22.2874L430.591 22.7273ZM35.2522 22.7273H413.259L413.699 22.2874L413.259 21.8475H35.2522L34.8116 22.2874L35.2522 22.7273ZM413.185 27.8592H38.704L38.2633 28.2991L38.704 28.739H413.185L413.626 28.2991L413.185 27.8592ZM413.185 185.704H35.1788L34.8116 186.144L35.2522 186.584H413.259L413.699 186.144L413.185 185.704ZM35.2522 37.1701H413.259L413.699 36.7302L413.259 36.2903H35.2522L34.8116 36.7302L35.2522 37.1701ZM413.185 186.584L413.479 186.437L413.626 186.144L413.479 185.85L413.185 185.704L412.892 185.85L412.745 186.144L412.892 186.437L413.185 186.584ZM413.185 265.762L413.479 265.616L413.626 265.323L413.479 265.029L413.185 264.883L412.892 265.029L412.745 265.323L412.892 265.616L413.185 265.762ZM1.61572 176.686H17.1855L17.6261 176.246L17.1855 175.806H1.61572L1.17507 176.246L1.61572 176.686ZM1.61572 170.674H17.1855L17.6261 170.235L17.1855 169.795H1.61572L1.17507 170.235L1.61572 170.674ZM297.661 364.076V363.636H148.941V357.405H297.22V364.076H297.661H298.102V356.965L297.955 356.672L297.661 356.525H148.5L148.206 356.672L148.059 356.965V364.076L148.206 364.369L148.5 364.516H297.661L297.955 364.369L298.102 364.076H297.661ZM10.0616 347.067V426.466L10.2085 426.76L10.5022 426.906H436.834L437.127 426.76L437.274 426.466V346.921L437.127 346.628L436.834 346.481H10.5022L10.0616 346.921L10.5022 347.361H436.393V426.026H10.9429V347.067L10.5022 346.628L10.0616 347.067ZM447.997 436.364H448.438V337.097L448.291 336.803L447.997 336.657H0.587528L0.293764 336.803L0.146882 337.097V436.364L0.293764 436.657L0.587528 436.804H447.997L448.291 436.657L448.438 436.364H447.997V435.924H1.02819V337.537H447.556V436.364H447.997ZM12.9258 595.308V600.293L13.0727 600.586L13.3665 600.733H436.54L436.834 600.586L436.981 600.293V595.308L436.54 594.868L436.099 595.308V599.853H13.8071V595.308L13.3665 594.868L12.9258 595.308ZM11.8242 436.437V446.334L11.9711 446.628L12.2648 446.774H435.438L435.732 446.628L435.879 446.334V436.437L435.438 435.997L434.998 436.437V445.894H12.7055V436.437L12.2648 435.997L11.8242 436.437ZM291.418 485.85V485.411H147.251C146.076 485.411 145.122 484.457 145.122 483.284V481.305C145.122 480.132 146.076 479.179 147.251 479.179H291.345C292.52 479.179 293.475 480.132 293.475 481.305V483.284C293.475 484.457 292.52 485.411 291.345 485.411V485.85V486.29C292.961 486.29 294.356 484.971 294.356 483.284V481.305C294.356 479.692 293.034 478.299 291.345 478.299H147.251C145.636 478.299 144.24 479.619 144.24 481.305V483.284C144.24 484.897 145.562 486.29 147.251 486.29H291.345V485.85H291.418ZM9.91469 586.364H10.3553V455.718H439.625V585.924H9.91469V586.364V586.804H440.065L440.359 586.657L440.506 586.364V455.279L440.359 454.985L440.065 454.839H9.91469L9.62091 454.985L9.47403 455.279V586.364L9.62091 586.657L9.91469 586.804V586.364ZM0.954739 595.308H1.3954V446.774H448.511V594.868H0.954739V595.308V595.748H448.952L449.245 595.601L449.392 595.308V446.334L449.245 446.041L448.952 445.894H0.954739L0.660975 446.041L0.514093 446.334V595.308L0.660975 595.601L0.954739 595.748V595.308ZM18.8746 618.915V601.54L18.434 601.1L17.9933 601.54V618.915L18.434 619.355L18.8746 618.915ZM1.46884 699.56V600.733H448.217V699.12H431.252L430.811 699.56L431.252 700H448.658L448.952 699.853L449.099 699.56V600.293L448.952 600L448.658 599.853H1.02819L0.734421 600L0.587528 600.293V699.56L1.02819 700L1.46884 699.56ZM431.693 699.56V617.669L431.546 617.375L431.252 617.229H18.434L18.1402 617.375L17.9933 617.669V699.12H1.02819L0.587528 699.56L1.02819 700H18.434L18.7277 699.853L18.8746 699.56V618.109H430.811V699.56L431.252 700L431.693 699.56ZM35.2522 28.739H103.994L104.435 28.2991L103.994 27.8592H35.2522L34.8116 28.2991L35.2522 28.739ZM35.2522 186.584L35.546 186.437L35.6929 186.144L35.546 185.85L35.2522 185.704L34.9584 185.85L34.8116 186.144L34.9584 186.437L35.2522 186.584ZM38.704 176.686L38.9978 176.54L39.1446 176.246L38.9978 175.953L38.704 175.806L38.4102 175.953L38.2633 176.246L38.4102 176.54L38.704 176.686ZM35.2522 318.695L35.546 318.548L35.6929 318.255L35.546 317.962L35.2522 317.815L34.9584 317.962L34.8116 318.255L34.9584 318.548L35.2522 318.695ZM107.446 318.695L107.74 318.548L107.886 318.255L107.74 317.962L107.446 317.815L107.152 317.962L107.005 318.255L107.152 318.548L107.446 318.695ZM35.2522 170.674L35.546 170.528L35.6929 170.235L35.546 169.941L35.2522 169.795L34.9584 169.941L34.8116 170.235L34.9584 170.528L35.2522 170.674ZM35.2522 28.739L35.546 28.5924L35.6929 28.2991L35.546 28.0059L35.2522 27.8592L34.9584 28.0059L34.8116 28.2991L34.9584 28.5924L35.2522 28.739ZM103.994 28.739L104.288 28.5924L104.435 28.2991L104.288 28.0059L103.994 27.8592L103.7 28.0059L103.553 28.2991L103.7 28.5924L103.994 28.739ZM17.8464 0.879764L18.1402 0.733138L18.2871 0.439883L18.1402 0.146627L17.8464 0L17.5527 0.146627L17.4058 0.439883L17.5527 0.733138L17.8464 0.879764ZM17.8464 318.695L18.1402 318.548L18.2871 318.255L18.1402 317.962L17.8464 317.815L17.5527 317.962L17.4058 318.255L17.5527 318.548L17.8464 318.695ZM0.440646 318.695L0.734421 318.548L0.881303 318.255L0.734421 317.962L0.440646 317.815L0.146882 317.962L0 318.255L0.146882 318.548L0.440646 318.695ZM35.6929 28.2991V22.3607L35.2522 21.9208L34.8116 22.3607V28.2991L35.2522 28.739L35.6929 28.2991Z" fill="#111111"/>
</g>
<defs>
<clipPath id="clip0_2078_515">
<rect width="136" height="700" fill="white"/>
</clipPath>
</defs>
</svg>
