<svg width="411" height="1056" viewBox="0 0 411 1056" fill="none" xmlns="http://www.w3.org/2000/svg">
<path d="M17.8012 493.493V508.424L18.4646 509.088L19.128 508.424V493.493L18.4646 492.829L17.8012 493.493ZM654.776 493.493V507.76H45.5535L44.8901 508.424L45.5535 509.088H655.44L655.882 508.866L656.103 508.424V493.493L655.44 492.829L654.776 493.493ZM27.5311 480.111V1.32719H52.4086V480L53.072 480.664L53.7354 480V0.663595L53.5143 0.221197L53.072 0H26.8677L26.4254 0.221197L26.2043 0.663595V480L26.8677 480.664L27.5311 480.111ZM648.916 480.111V0.663595L648.695 0.221197L648.253 0H622.048L621.606 0.221197L621.385 0.663595V480L622.048 480.664L622.712 480V1.32719H647.589V480L648.253 480.664L648.916 480.111ZM3.09585 265.88V256.922L2.43246 256.258L1.76906 256.922V265.88L2.43246 266.544L3.09585 265.88ZM621.385 265.217H53.072L52.4086 265.88L53.072 266.544H621.385L622.048 265.88L621.385 265.217ZM648.253 257.475H675.673V265.106H648.253L647.589 265.77L648.253 266.433H676.337L676.779 266.212L677 265.77V256.811L676.779 256.369L676.337 256.147H648.253L647.589 256.811L648.253 257.475ZM53.072 257.475H622.159L622.822 256.811L622.159 256.147H53.072L52.4086 256.811L53.072 257.475ZM0.66339 480.111V480.774H673.794V492.94H1.3268V480.111H0.66339H0V493.604L0.22113 494.046L0.66339 494.267H674.568L675.01 494.046L675.231 493.604V480.111L675.01 479.668L674.568 479.447H0.66339L0.22113 479.668L0 480.111H0.66339ZM26.8677 32.9585H0.66339L0.22113 33.1797L0 33.6221V42.5806L0.22113 43.023L0.66339 43.2442H26.8677L27.5311 42.5806L26.8677 41.9171H1.3268V34.2857H26.8677L27.5311 33.6221L26.8677 32.9585ZM622.048 42.0276H53.072L52.4086 42.6912L53.072 43.3548H622.159L622.822 42.6912L622.048 42.0276ZM648.253 34.2857H673.794V41.9171H648.253L647.589 42.5806L648.253 43.2442H674.457L674.899 43.023L675.12 42.5806V33.6221L674.899 33.1797L674.457 32.9585H648.253L647.589 33.6221L648.253 34.2857ZM53.072 34.2857H622.159L622.822 33.6221L622.159 32.9585H53.072L52.4086 33.6221L53.072 34.2857ZM622.048 42.0276H58.2687L57.6052 42.6912L58.2687 43.3548H622.048L622.712 42.6912L622.048 42.0276ZM622.048 280.147H52.9614L52.4086 280.811L53.072 281.475H622.159L622.822 280.811L622.048 280.147ZM53.072 56.0737H622.159L622.822 55.4101L622.159 54.7465H53.072L52.4086 55.4101L53.072 56.0737ZM622.048 281.475L622.491 281.253L622.712 280.811L622.491 280.369L622.048 280.147L621.606 280.369L621.385 280.811L621.606 281.253L622.048 281.475ZM622.048 400.922L622.491 400.7L622.712 400.258L622.491 399.816L622.048 399.594L621.606 399.816L621.385 400.258L621.606 400.7L622.048 400.922ZM2.43246 266.544H25.8726L26.536 265.88L25.8726 265.217H2.43246L1.76906 265.88L2.43246 266.544ZM2.43246 257.475H25.8726L26.536 256.811L25.8726 256.147H2.43246L1.76906 256.811L2.43246 257.475ZM448.127 549.235V548.571H224.229V539.17H447.463V549.235H448.127H448.79V538.507L448.569 538.064L448.127 537.843H223.566L223.124 538.064L222.902 538.507V549.235L223.124 549.677L223.566 549.899H448.127L448.569 549.677L448.79 549.235H448.127ZM15.1476 523.576V643.355L15.3688 643.797L15.811 644.018H657.651L658.093 643.797L658.314 643.355V523.355L658.093 522.912L657.651 522.691H15.811L15.1476 523.355L15.811 524.018H656.987V642.691H16.4744V523.576L15.811 522.912L15.1476 523.576ZM674.457 658.286H675.12V508.535L674.899 508.092L674.457 507.871H0.88452L0.44226 508.092L0.22113 508.535V658.286L0.44226 658.728L0.88452 658.949H674.457L674.899 658.728L675.12 658.286H674.457V657.622H1.54793V509.198H673.794V658.286H674.457ZM19.4597 898.065V905.585L19.6809 906.028L20.1231 906.249H657.209L657.651 906.028L657.872 905.585V898.065L657.209 897.401L656.545 898.065V904.922H20.7865V898.065L20.1231 897.401L19.4597 898.065ZM17.8012 658.396V673.327L18.0224 673.77L18.4646 673.991H655.55L655.992 673.77L656.213 673.327V658.396L655.55 657.733L654.887 658.396V672.664H19.128V658.396L18.4646 657.733L17.8012 658.396ZM438.729 732.94V732.277H221.686C219.917 732.277 218.48 730.839 218.48 729.069V726.083C218.48 724.313 219.917 722.876 221.686 722.876H438.618C440.387 722.876 441.825 724.313 441.825 726.083V729.069C441.825 730.839 440.387 732.277 438.618 732.277V732.94V733.604C441.051 733.604 443.151 731.613 443.151 729.069V726.083C443.151 723.65 441.161 721.548 438.618 721.548H221.686C219.254 721.548 217.153 723.539 217.153 726.083V729.069C217.153 731.502 219.143 733.604 221.686 733.604H438.618V732.94H438.729ZM14.9265 884.571H15.5899V687.484H661.852V883.908H14.9265V884.571V885.235H662.516L662.958 885.014L663.179 884.571V686.82L662.958 686.378L662.516 686.157H14.9265L14.4842 686.378L14.2631 686.82V884.571L14.4842 885.014L14.9265 885.235V884.571ZM1.43735 898.065H2.10076V673.991H675.231V897.401H1.43735V898.065V898.728H675.894L676.337 898.507L676.558 898.065V673.327L676.337 672.885L675.894 672.664H1.43735L0.995094 672.885L0.773964 673.327V898.065L0.995094 898.507L1.43735 898.728V898.065ZM28.4156 933.677V907.465L27.7522 906.802L27.0888 907.465V933.677L27.7522 934.341L28.4156 933.677ZM2.21133 1055.34V906.249H674.789V1054.67H649.248L648.584 1055.34L649.248 1056H675.452L675.894 1055.78L676.115 1055.34V905.585L675.894 905.143L675.452 904.922H1.54793L1.10567 905.143L0.88452 905.585V1055.34L1.54793 1056L2.21133 1055.34ZM649.911 1055.34V931.797L649.69 931.355L649.248 931.134H27.7522L27.31 931.355L27.0888 931.797V1054.67H1.54793L0.88452 1055.34L1.54793 1056H27.7522L28.1945 1055.78L28.4156 1055.34V932.461H648.584V1055.34L649.248 1056L649.911 1055.34ZM53.072 43.3548H156.562L157.226 42.6912L156.562 42.0276H53.072L52.4086 42.6912L53.072 43.3548ZM53.072 281.475L53.5143 281.253L53.7354 280.811L53.5143 280.369L53.072 280.147L52.6297 280.369L52.4086 280.811L52.6297 281.253L53.072 281.475ZM58.2687 266.544L58.7109 266.323L58.932 265.88L58.7109 265.438L58.2687 265.217L57.8264 265.438L57.6052 265.88L57.8264 266.323L58.2687 266.544ZM53.072 480.774L53.5143 480.553L53.7354 480.111L53.5143 479.668L53.072 479.447L52.6297 479.668L52.4086 480.111L52.6297 480.553L53.072 480.774ZM161.759 480.774L162.201 480.553L162.422 480.111L162.201 479.668L161.759 479.447L161.317 479.668L161.096 480.111L161.317 480.553L161.759 480.774ZM53.072 257.475L53.5143 257.253L53.7354 256.811L53.5143 256.369L53.072 256.147L52.6297 256.369L52.4086 256.811L52.6297 257.253L53.072 257.475ZM53.072 43.3548L53.5143 43.1336L53.7354 42.6912L53.5143 42.2489L53.072 42.0276L52.6297 42.2489L52.4086 42.6912L52.6297 43.1336L53.072 43.3548ZM156.562 43.3548L157.005 43.1336L157.226 42.6912L157.005 42.2489L156.562 42.0276L156.12 42.2489L155.899 42.6912L156.12 43.1336L156.562 43.3548ZM26.8677 1.32719L27.31 1.10599L27.5311 0.663595L27.31 0.221197L26.8677 0L26.4254 0.221197L26.2043 0.663595L26.4254 1.10599L26.8677 1.32719ZM26.8677 480.774L27.31 480.553L27.5311 480.111L27.31 479.668L26.8677 479.447L26.4254 479.668L26.2043 480.111L26.4254 480.553L26.8677 480.774ZM0.66339 480.774L1.10567 480.553L1.3268 480.111L1.10567 479.668L0.66339 479.447L0.22113 479.668L0 480.111L0.22113 480.553L0.66339 480.774ZM53.7354 42.6912V33.7327L53.072 33.0691L52.4086 33.7327V42.6912L53.072 43.3548L53.7354 42.6912Z" fill="#111111"/>
</svg>
