<svg width="120" height="33" viewBox="0 0 120 33" fill="none" xmlns="http://www.w3.org/2000/svg">
<path d="M64.2657 8.81317C64.2657 6.02694 66.299 4.03114 68.6113 4.03114C70.2657 4.03114 71.4817 4.95988 71.9202 5.67125H71.9402V0H73.5349V13.4174H71.9402V11.9551H71.9202C71.4817 12.6665 70.2857 13.5952 68.6113 13.5952C66.299 13.5952 64.2657 11.5994 64.2657 8.81317ZM71.9402 8.81317C71.9402 6.8964 70.5448 5.51317 68.8903 5.51317C67.2558 5.51317 65.8604 6.8964 65.8604 8.81317C65.8604 10.7299 67.2558 12.1132 68.8903 12.1132C70.5448 12.1132 71.9402 10.7299 71.9402 8.81317Z" fill="#111111"/>
<path d="M75.9072 8.81328C75.9072 6.08634 78.0202 4.03125 80.5517 4.03125C83.0634 4.03125 84.9969 5.94801 84.9969 8.63544C84.9969 8.97137 84.9571 9.24801 84.9371 9.4061H77.5418C77.7411 10.9079 79.0368 12.133 80.7112 12.133C82.0069 12.133 82.884 11.4612 83.4421 10.8684L84.4986 11.8366C83.8607 12.6666 82.565 13.6151 80.6315 13.6151C78.0401 13.5953 75.9072 11.5007 75.9072 8.81328ZM83.3823 8.08215C83.1232 6.50131 82.1066 5.454 80.5517 5.454C78.9371 5.454 77.8009 6.60011 77.5418 8.08215H83.3823Z" fill="#111111"/>
<path d="M86.4917 11.9357L87.5282 10.9279C87.9867 11.4614 88.9435 12.1728 90.0399 12.1728C91.2757 12.1728 91.9336 11.5405 91.9336 10.7698C91.9336 8.9716 86.8704 9.84106 86.8704 6.63986C86.8704 5.25663 88.1262 4.01172 90.1395 4.01172C91.6944 4.01172 92.7508 4.74286 93.289 5.29615L92.2525 6.30394C91.8538 5.92849 91.1163 5.43448 90.1395 5.43448C89.0432 5.43448 88.4651 6.00753 88.4651 6.6201C88.4651 8.35903 93.5282 7.50933 93.5282 10.75C93.5282 12.2914 92.1927 13.5956 90.0399 13.5956C88.3455 13.5956 87.0498 12.6668 86.4917 11.9357Z" fill="#111111"/>
<path d="M95.7009 1.32396C95.7009 0.750908 96.1793 0.335938 96.6976 0.335938C97.1959 0.335938 97.6744 0.750908 97.6744 1.32396C97.6744 1.89702 97.1959 2.31199 96.6976 2.31199C96.1793 2.33175 95.7009 1.91678 95.7009 1.32396ZM95.9202 13.4174V4.20899H97.5149V13.4174H95.9202Z" fill="#111111"/>
<path d="M100.246 15.5316L101.362 14.5238C101.781 15.1364 102.937 15.9663 104.233 15.9663C106.047 15.9663 107.223 14.6424 107.223 12.7256V11.6586H107.203C106.645 12.528 105.449 13.2592 104.073 13.2592C101.801 13.2592 99.8671 11.3424 99.8671 8.65497C99.8671 5.96755 101.801 4.05078 104.073 4.05078C105.628 4.05078 106.784 4.95976 107.203 5.63162H107.223V4.20886H108.817V12.7059C108.817 15.4328 106.924 17.4484 104.233 17.4484C102.379 17.4484 100.804 16.3418 100.246 15.5316ZM107.223 8.61545C107.223 6.79748 105.947 5.51306 104.312 5.51306C102.738 5.51306 101.442 6.79748 101.442 8.61545C101.442 10.4334 102.738 11.7178 104.312 11.7178C105.947 11.7178 107.223 10.4334 107.223 8.61545Z" fill="#111111"/>
<path d="M111.728 13.4175V4.20909H113.322V5.61209H113.342C113.761 4.92047 114.857 4.03125 116.312 4.03125C118.445 4.03125 120 5.59232 120 8.02286V13.4372H118.425V8.02286C118.425 6.52107 117.429 5.53305 116.033 5.53305C114.478 5.53305 113.302 6.71868 113.302 8.39832V13.4372H111.728V13.4175Z" fill="#111111"/>
<path d="M65.8804 30.2139L65.8604 31.6762H64.2657V18.2588H65.8604V23.93H65.8804C66.299 23.2187 67.5149 22.2899 69.1694 22.2899C71.4817 22.2899 73.5149 24.3055 73.5149 27.072C73.5149 29.8582 71.4817 31.8738 69.1694 31.8738C67.5149 31.8738 66.299 30.9252 65.8804 30.2139ZM71.9402 27.072C71.9402 25.1552 70.5448 23.772 68.9103 23.772C67.2358 23.772 65.8604 25.1552 65.8604 27.072C65.8604 28.9887 67.2358 30.372 68.9103 30.372C70.5448 30.372 71.9402 28.9887 71.9402 27.072Z" fill="#111111"/>
<path d="M75.7275 27.8821V22.4678H77.3222V27.8821C77.3222 29.3839 78.299 30.372 79.6943 30.372C81.2491 30.372 82.4451 29.1863 82.4451 27.5067V22.4678H84.0199V31.6762H82.4451V30.2732H82.4252C82.0066 30.9648 80.8903 31.8738 79.4551 31.8738C77.3023 31.8738 75.7275 30.2929 75.7275 27.8821Z" fill="#111111"/>
<path d="M86.8906 31.6765V22.4681H88.4853V23.8118H88.5052C88.9238 23.1597 90.0003 22.2705 91.4355 22.2705H91.874V23.8909L91.2361 23.8316C89.7212 23.8316 88.4654 25.0765 88.4654 26.7956V31.6765H86.8906Z" fill="#111111"/>
<path d="M19.495 22.2305C19.495 27.4868 15.2691 31.676 9.74751 31.676C4.24585 31.676 0 27.4868 0 22.2305C0 19.6221 1.31562 17.1916 2.11296 15.9269L11.0033 1.85742H13.3355L5.92027 13.6149C6.55814 13.2395 8.03322 12.785 9.72758 12.785C15.2492 12.785 19.495 16.9742 19.495 22.2305ZM17.3621 22.2305C17.3621 18.0413 14.1927 14.8796 9.74751 14.8796C5.30232 14.8796 2.13289 18.0215 2.13289 22.2305C2.13289 26.4395 5.30232 29.5814 9.74751 29.5814C14.1927 29.5616 17.3621 26.4197 17.3621 22.2305Z" fill="#111111"/>
<path d="M26.691 33V0H28.5847V33H26.691Z" fill="#111111"/>
<path d="M36.2192 27.2692L37.6943 25.8069C38.7907 27.447 41.5814 29.5811 45.3089 29.5811C49.9734 29.5811 53.1428 26.4392 53.1428 22.2302C53.1428 18.041 49.9734 14.8793 45.7275 14.8793C42.1794 14.8793 39.7475 16.8949 38.9501 18.456H37.2757L38.3322 1.87695H53.3621V3.97156H40.2259L39.588 15.0967C40.6046 14.0889 42.9767 12.7847 45.7275 12.7847C51.0299 12.7847 55.2558 16.974 55.2558 22.2302C55.2558 27.4865 51.0299 31.6758 45.3089 31.6758C40.8239 31.6758 37.495 29.1464 36.2192 27.2692Z" fill="#111111"/>
<path d="M97.5946 30.4704C96.6777 30.4704 95.9003 30.1344 95.2425 29.4428C94.5847 28.771 94.2657 27.941 94.2657 26.9728C94.2657 25.9847 94.5847 25.1746 95.2425 24.5027C95.9003 23.8308 96.6777 23.4949 97.5946 23.4949C98.5116 23.4949 99.289 23.8308 99.9468 24.5027C100.605 25.1746 100.924 26.0045 100.924 26.9925C100.924 27.9805 100.605 28.8105 99.9468 29.4823C99.289 30.1344 98.5116 30.4704 97.5946 30.4704ZM97.5946 31.6955C98.8903 31.6955 99.9867 31.241 100.904 30.332C101.801 29.4231 102.259 28.2967 102.259 26.9728C102.259 25.6488 101.801 24.5225 100.904 23.6135C100.007 22.7045 98.8903 22.25 97.5946 22.25C96.2989 22.25 95.2026 22.7045 94.2857 23.6135C93.3687 24.5225 92.9302 25.6488 92.9302 26.9728C92.9302 28.2967 93.3886 29.4231 94.2857 30.332C95.2026 31.241 96.2989 31.6955 97.5946 31.6955Z" fill="#111111"/>
</svg>
