<svg width="823" height="167" viewBox="0 0 823 167" fill="none" xmlns="http://www.w3.org/2000/svg">
<path opacity="0.5" d="M80.0881 6.36133H5.28809V10.0613H80.0881V6.36133Z" fill="#D7D7D7"/>
<path opacity="0.5" d="M79.9875 66.4609H5.1875V70.1609H79.9875V66.4609Z" fill="#D7D7D7"/>
<path opacity="0.5" d="M79.9875 126.361H5.1875V128.161H79.9875V126.361Z" fill="#D7D7D7"/>
<path d="M5.1875 66.3613V70.1613H80.1875V66.3613" stroke="#C0C0BF" stroke-width="0.6246" stroke-miterlimit="10" stroke-linecap="round" stroke-linejoin="round"/>
<path d="M5.1875 126.461V128.061H80.1875V126.461" stroke="#C0C0BF" stroke-width="0.3844" stroke-miterlimit="10" stroke-linecap="round" stroke-linejoin="round"/>
<path d="M80.3883 126.361V127.961C69.1883 127.961 57.9883 127.961 46.7883 127.961C44.0883 127.961 41.3883 127.961 38.6883 127.961C27.4883 127.961 16.2883 127.961 4.98828 127.961C4.98828 127.461 4.98828 126.861 4.98828 126.361" stroke="#C0C0BF" stroke-width="0.3844" stroke-miterlimit="10" stroke-linecap="round" stroke-linejoin="round"/>
<path d="M84.9877 165.76V128.16H0.387695V165.76H6.9877V134.76H78.3877V165.76H84.9877Z" stroke="#5C5C5C" stroke-width="0.5766" stroke-miterlimit="10" stroke-linecap="round" stroke-linejoin="round"/>
<path d="M6.98828 134.76V128.16" stroke="#5C5C5C" stroke-width="0.5766" stroke-miterlimit="10" stroke-linecap="round" stroke-linejoin="round"/>
<path d="M78.3877 134.76V128.16" stroke="#5C5C5C" stroke-width="0.5766" stroke-miterlimit="10" stroke-linecap="round" stroke-linejoin="round"/>
<circle cx="6.98752" cy="134.761" r="0.2883" fill="#5C5C5C"/>
<circle cx="78.3879" cy="134.761" r="0.2883" fill="#5C5C5C"/>
<path d="M80.0879 6.36133V10.0613" stroke="#C0C0BF" stroke-width="0.3844" stroke-miterlimit="10" stroke-linecap="round" stroke-linejoin="round"/>
<path d="M85.0879 6.36133H4.08789" stroke="#5C5C5C" stroke-width="0.5766" stroke-miterlimit="10" stroke-linecap="round" stroke-linejoin="round"/>
<path d="M4.08809 6.36055H0.288086V2.56055H85.0881V6.36055" stroke="#5C5C5C" stroke-width="0.5766" stroke-miterlimit="10" stroke-linecap="round" stroke-linejoin="round"/>
<path d="M5.28809 10.0613V6.36133" stroke="#C0C0BF" stroke-width="0.3844" stroke-miterlimit="10" stroke-linecap="round" stroke-linejoin="round"/>
<circle cx="85.0881" cy="2.56174" r="0.2883" fill="#5C5C5C"/>
<circle cx="85.0881" cy="6.36057" r="0.2883" fill="#5C5C5C"/>
<circle cx="4.0881" cy="6.36057" r="0.2883" fill="#5C5C5C"/>
<path d="M0.488281 126.46V70.1602H84.8883V126.46H0.488281Z" stroke="#5C5C5C" stroke-width="0.5766" stroke-miterlimit="10" stroke-linecap="round" stroke-linejoin="round"/>
<path d="M81.4881 73.5605H3.78809V123.161H81.4881V73.5605Z" stroke="#5C5C5C" stroke-width="0.5766" stroke-miterlimit="10" stroke-linecap="round" stroke-linejoin="round"/>
<g opacity="0.5">
<path d="M81.4881 13.2617H3.78809V62.8617H81.4881V13.2617Z" fill="#D7D7D7"/>
</g>
<g opacity="0.5">
<path d="M268.488 35.0605H190.788V84.6605H268.488V35.0605Z" fill="#D7D7D7"/>
</g>
<g opacity="0.5">
<path d="M458.188 72.0605H379.588V121.661H458.188V72.0605Z" fill="#D7D7D7"/>
</g>
<g opacity="0.5">
<path d="M543.188 72.0605H465.488V121.661H543.188V72.0605Z" fill="#D7D7D7"/>
</g>
<path d="M0.488281 66.3605V10.0605H84.8883V66.3605H0.488281Z" stroke="#5C5C5C" stroke-width="0.5766" stroke-miterlimit="10" stroke-linecap="round" stroke-linejoin="round"/>
<path d="M81.4881 13.4609H3.78809V63.0609H81.4881V13.4609Z" stroke="#5C5C5C" stroke-width="0.5766" stroke-miterlimit="10" stroke-linecap="round" stroke-linejoin="round"/>
<path d="M72.2881 105.061V91.5609C72.2881 91.2609 72.5881 90.9609 72.8881 90.9609H74.4881C74.7881 90.9609 75.0881 91.2609 75.0881 91.5609V105.061C75.0881 105.361 74.7881 105.661 74.4881 105.661H72.8881C72.4881 105.661 72.2881 105.361 72.2881 105.061Z" fill="#C0C0BF" stroke="#5C5C5C" stroke-width="0.5766" stroke-miterlimit="10" stroke-linecap="round" stroke-linejoin="round"/>
<path opacity="0.5" d="M268.588 27.4609H190.788V31.2609H268.588V27.4609Z" fill="#D7D7D7" stroke="#3D3F3F" stroke-width="0.0584172" stroke-miterlimit="10"/>
<path d="M190.788 31.2609V27.4609" stroke="#C0C0BF" stroke-width="0.3884" stroke-miterlimit="10" stroke-linecap="round" stroke-linejoin="round"/>
<path d="M268.488 27.4609V31.2609" stroke="#C0C0BF" stroke-width="0.3884" stroke-miterlimit="10" stroke-linecap="round" stroke-linejoin="round"/>
<circle cx="272.288" cy="23.6601" r="0.0292086" fill="#C0C0BF"/>
<circle cx="272.288" cy="27.4608" r="0.0292086" fill="#C0C0BF"/>
<circle cx="190.788" cy="27.4608" r="0.0292086" fill="#C0C0BF"/>
<path d="M272.288 27.4609H190.788" stroke="#5C5C5C" stroke-width="0.5826" stroke-miterlimit="10" stroke-linecap="round" stroke-linejoin="round"/>
<path d="M190.788 27.4602H186.988V23.6602H272.288V27.4602" stroke="#5C5C5C" stroke-width="0.5826" stroke-miterlimit="10" stroke-linecap="round" stroke-linejoin="round"/>
<g opacity="0.5">
<path d="M268.688 88.0605H191.388V89.9605H268.688V88.0605Z" fill="#D7D7D7"/>
</g>
<circle cx="200.187" cy="116.66" r="0.0292086" fill="#C0C0BF"/>
<circle cx="200.187" cy="116.66" r="0.0292086" fill="#C0C0BF"/>
<circle cx="206.788" cy="116.762" r="0.0292086" fill="#C0C0BF"/>
<circle cx="200.187" cy="116.762" r="0.0292086" fill="#C0C0BF"/>
<circle cx="187.187" cy="122.06" r="0.0878" fill="#848484"/>
<circle cx="191.988" cy="129.66" r="0.0878" fill="#848484"/>
<circle cx="187.187" cy="125.861" r="0.0878" fill="#848484"/>
<circle cx="187.187" cy="129.66" r="0.0878" fill="#848484"/>
<path d="M187.188 127.762V165.762H193.887V134.462H266.087V165.762H272.788" stroke="#5C5C5C" stroke-width="0.5826" stroke-miterlimit="10" stroke-linecap="round" stroke-linejoin="round"/>
<path d="M266.088 127.762H193.888" stroke="#5C5C5C" stroke-width="0.5826" stroke-miterlimit="10" stroke-linecap="round" stroke-linejoin="round"/>
<path d="M272.787 165.762V127.762" stroke="#5C5C5C" stroke-width="0.5826" stroke-miterlimit="10" stroke-linecap="round" stroke-linejoin="round"/>
<path d="M193.888 96.5613V89.8613" stroke="#5C5C5C" stroke-width="0.5826" stroke-miterlimit="10" stroke-linecap="round" stroke-linejoin="round"/>
<path d="M266.088 96.5613V89.8613" stroke="#5C5C5C" stroke-width="0.5826" stroke-miterlimit="10" stroke-linecap="round" stroke-linejoin="round"/>
<circle cx="193.888" cy="134.461" r="0.0878" fill="#C0C0BF"/>
<circle cx="266.088" cy="134.461" r="0.0878" fill="#C0C0BF"/>
<path d="M191.188 89.8617V88.2617" stroke="#C0C0BF" stroke-width="0.3884" stroke-miterlimit="10" stroke-linecap="round" stroke-linejoin="round"/>
<path d="M268.588 89.8617V88.2617" stroke="#C0C0BF" stroke-width="0.3884" stroke-miterlimit="10" stroke-linecap="round" stroke-linejoin="round"/>
<path d="M193.888 134.461V96.5605H266.088V134.461" stroke="#5C5C5C" stroke-width="0.5826" stroke-miterlimit="10" stroke-linecap="round" stroke-linejoin="round"/>
<path d="M272.788 127.961V89.8613H187.188V127.961" stroke="#5C5C5C" stroke-width="0.5826" stroke-miterlimit="10" stroke-linecap="round" stroke-linejoin="round"/>
<path d="M187.188 31.5605V88.2606H272.087V31.5605H187.188Z" stroke="#5C5C5C" stroke-width="0.7146" stroke-miterlimit="10" stroke-linecap="round" stroke-linejoin="round"/>
<path d="M268.288 34.9609H190.988V84.4609H268.288V34.9609Z" stroke="#5C5C5C" stroke-width="0.7461" stroke-miterlimit="10" stroke-linecap="round" stroke-linejoin="round"/>
<path d="M380.388 125.262V127.662H542.388V125.262" stroke="#C0C0BF" stroke-width="0.3901" stroke-miterlimit="10" stroke-linecap="round" stroke-linejoin="round"/>
<path opacity="0.5" d="M543.088 125.461H380.388V127.661H543.088V125.461Z" fill="#D7D7D7"/>
<path opacity="0.5" d="M543.388 64.3613H465.688V68.4613H543.388V64.3613Z" fill="#D7D7D7"/>
<path opacity="0.5" d="M457.488 64.3613H379.788V68.4613H457.488V64.3613Z" fill="#D7D7D7"/>
<path d="M465.688 64.3613V68.4613H543.388V64.6613" stroke="#C0C0BF" stroke-width="0.395" stroke-miterlimit="10" stroke-linecap="round" stroke-linejoin="round"/>
<path d="M379.788 64.6613V68.4613H457.488V64.3613" stroke="#C0C0BF" stroke-width="0.3971" stroke-miterlimit="10" stroke-linecap="round" stroke-linejoin="round"/>
<path d="M380.288 64.3613H542.088" stroke="#5C5C5C" stroke-width="0.5247" stroke-miterlimit="10" stroke-linecap="round" stroke-linejoin="round"/>
<path d="M380.288 64.3605H375.588V60.5605H546.788V64.3605H542.088" stroke="#5C5C5C" stroke-width="0.5247" stroke-miterlimit="10" stroke-linecap="round" stroke-linejoin="round"/>
<circle cx="380.288" cy="64.36" r="0.26235" fill="#5C5C5C"/>
<path d="M382.588 165.76V134.26H540.788V165.76C544.588 165.76 547.488 165.76 547.488 165.76V127.66H375.888V165.76C377.688 165.36 382.588 165.76 382.588 165.76Z" stroke="#5C5C5C" stroke-width="0.5852" stroke-miterlimit="10" stroke-linecap="round" stroke-linejoin="round"/>
<path d="M382.588 134.36V127.66" stroke="#5C5C5C" stroke-width="0.5852" stroke-miterlimit="10" stroke-linecap="round" stroke-linejoin="round"/>
<path d="M540.788 134.36V127.66" stroke="#5C5C5C" stroke-width="0.5852" stroke-miterlimit="10" stroke-linecap="round" stroke-linejoin="round"/>
<path d="M458.188 72.0605H379.388V121.761H458.188V72.0605Z" stroke="#5C5C5C" stroke-width="0.5653" stroke-miterlimit="10" stroke-linecap="round" stroke-linejoin="round"/>
<path d="M543.788 72.1602H465.588V121.86H543.788V72.1602Z" stroke="#5C5C5C" stroke-width="0.5653" stroke-miterlimit="10" stroke-linecap="round" stroke-linejoin="round"/>
<path d="M461.588 125.16V68.6602H547.088V125.16H461.588Z" stroke="#5C5C5C" stroke-width="0.5852" stroke-miterlimit="10" stroke-linecap="round" stroke-linejoin="round"/>
<path d="M375.688 125.16V68.6602H461.187V125.16H375.688Z" stroke="#5C5C5C" stroke-width="0.5852" stroke-miterlimit="10" stroke-linecap="round" stroke-linejoin="round"/>
<path opacity="0.5" d="M818.388 64.3613H740.688V68.5613H818.388V64.3613Z" fill="#D7D7D7"/>
<path opacity="0.5" d="M731.588 64.3613H653.888V68.5613H731.588V64.3613Z" fill="#D7D7D7"/>
<path d="M653.888 64.6613V68.5613H731.588V64.3613" stroke="#C0C0BF" stroke-width="0.3996" stroke-miterlimit="10" stroke-linecap="round" stroke-linejoin="round"/>
<path opacity="0.5" d="M816.888 4.06055H739.188V8.16055H816.888V4.06055Z" fill="#D7D7D7"/>
<path opacity="0.5" d="M730.988 3.96094H653.288V8.06094H730.988V3.96094Z" fill="#D7D7D7"/>
<path d="M739.088 4.06055V8.16055H816.888V4.36055" stroke="#C0C0BF" stroke-width="0.395" stroke-miterlimit="10" stroke-linecap="round" stroke-linejoin="round"/>
<path d="M653.288 4.26055V8.16055H730.988V4.06055" stroke="#C0C0BF" stroke-width="0.3971" stroke-miterlimit="10" stroke-linecap="round" stroke-linejoin="round"/>
<path d="M653.788 4.06055H817.288" stroke="#5C5C5C" stroke-width="0.5247" stroke-miterlimit="10" stroke-linecap="round" stroke-linejoin="round"/>
<path d="M655.488 4.06172H649.988V0.261719H822.288V4.06172H817.288" stroke="#5C5C5C" stroke-width="0.5247" stroke-miterlimit="10" stroke-linecap="round" stroke-linejoin="round"/>
<circle cx="653.788" cy="4.06118" r="0.26235" fill="#5C5C5C"/>
<path opacity="0.5" d="M817.488 125.461H655.288V127.661H817.488V125.461Z" fill="#D7D7D7"/>
<path d="M817.288 125.762H655.088V127.662H817.288V125.762Z" stroke="#C0C0BF" stroke-width="0.2759" stroke-miterlimit="10" stroke-linecap="round" stroke-linejoin="round"/>
<path d="M815.188 165.76V134.36H656.988V165.76H650.288V127.66H821.888V165.76H815.188Z" stroke="#5C5C5C" stroke-width="0.5852" stroke-miterlimit="10" stroke-linecap="round" stroke-linejoin="round"/>
<path d="M656.988 134.36V127.66" stroke="#5C5C5C" stroke-width="0.5852" stroke-miterlimit="10" stroke-linecap="round" stroke-linejoin="round"/>
<path d="M815.188 134.36V127.66" stroke="#5C5C5C" stroke-width="0.5852" stroke-miterlimit="10" stroke-linecap="round" stroke-linejoin="round"/>
<path d="M818.488 64.6602V68.4602" stroke="#C0C0BF" stroke-width="0.3901" stroke-miterlimit="10" stroke-linecap="round" stroke-linejoin="round"/>
<path d="M822.188 64.6602H740.688" stroke="#5C5C5C" stroke-width="0.5852" stroke-miterlimit="10" stroke-linecap="round" stroke-linejoin="round"/>
<circle cx="822.188" cy="64.6619" r="0.0291054" fill="#C0C0BF"/>
<circle cx="740.688" cy="64.6619" r="0.0291054" fill="#C0C0BF"/>
<circle cx="740.488" cy="68.9607" r="0.0291054" fill="#C0C0BF"/>
<circle cx="740.488" cy="68.9607" r="0.0291054" fill="#C0C0BF"/>
<circle cx="655.088" cy="129.561" r="0.3171" fill="#C0C0BF"/>
<path d="M650.388 64.5602V8.16016H735.988V64.5602H650.388Z" stroke="#5C5C5C" stroke-width="0.5852" stroke-miterlimit="10" stroke-linecap="round" stroke-linejoin="round"/>
<path d="M732.588 11.4609H653.788V61.1609H732.588V11.4609Z" stroke="#5C5C5C" stroke-width="0.5653" stroke-miterlimit="10" stroke-linecap="round" stroke-linejoin="round"/>
<path d="M818.088 11.5605H739.888V61.2605H818.088V11.5605Z" stroke="#5C5C5C" stroke-width="0.5653" stroke-miterlimit="10" stroke-linecap="round" stroke-linejoin="round"/>
<path d="M736.788 64.6602V8.16016H822.288V64.6602H736.788Z" stroke="#5C5C5C" stroke-width="0.5852" stroke-miterlimit="10" stroke-linecap="round" stroke-linejoin="round"/>
<path d="M818.588 71.9609H653.788V122.261H818.588V71.9609Z" stroke="#5C5C5C" stroke-width="0.5854" stroke-miterlimit="10" stroke-linecap="round" stroke-linejoin="round"/>
<path d="M650.288 125.761V68.5605H821.988V125.761H650.288Z" stroke="#5C5C5C" stroke-width="0.5854" stroke-miterlimit="10" stroke-linecap="round" stroke-linejoin="round"/>
<path d="M765.088 80.2606H707.988V77.5605H736.588H765.088V80.2606Z" fill="#C0C0BF" stroke="#5C5C5C" stroke-width="0.5854" stroke-miterlimit="10" stroke-linecap="round" stroke-linejoin="round"/>
</svg>
