<svg width="911" height="203" viewBox="0 0 911 203" fill="none" xmlns="http://www.w3.org/2000/svg">
<path opacity="0.5" d="M166.293 16.1562H90.4932V19.8562H166.293V16.1562Z" fill="#D7D7D7"/>
<path opacity="0.5" d="M80.3932 15.8574H4.49316V19.5574H80.3932V15.8574Z" fill="#D7D7D7"/>
<path d="M90.3936 16.1562V19.8562H166.294V16.4562" stroke="#C0C0BF" stroke-width="0.3712" stroke-miterlimit="10" stroke-linecap="round" stroke-linejoin="round"/>
<path d="M4.49316 16.0574V19.5574H80.2932V15.8574" stroke="#C0C0BF" stroke-width="0.373" stroke-miterlimit="10" stroke-linecap="round" stroke-linejoin="round"/>
<path opacity="0.5" d="M166.893 58.457H91.0928V62.157H166.893V58.457Z" fill="#D7D7D7"/>
<path opacity="0.5" d="M80.9928 58.0566H5.09277V61.7566H80.9928V58.0566Z" fill="#D7D7D7"/>
<path d="M91.0928 58.457V62.157H166.893V58.657" stroke="#C0C0BF" stroke-width="0.3712" stroke-miterlimit="10" stroke-linecap="round" stroke-linejoin="round"/>
<path d="M5.09277 58.3563V61.8563H80.9928V58.1562" stroke="#C0C0BF" stroke-width="0.373" stroke-miterlimit="10" stroke-linecap="round" stroke-linejoin="round"/>
<path opacity="0.5" d="M166.993 100.758H91.1934V104.458H166.993V100.758Z" fill="#D7D7D7"/>
<path opacity="0.5" d="M81.0934 100.357H5.19336V104.057H81.0934V100.357Z" fill="#D7D7D7"/>
<path d="M91.1934 100.758V104.458H166.993V100.958" stroke="#C0C0BF" stroke-width="0.3712" stroke-miterlimit="10" stroke-linecap="round" stroke-linejoin="round"/>
<path d="M5.19336 100.657V104.157H81.0934V100.457" stroke="#C0C0BF" stroke-width="0.373" stroke-miterlimit="10" stroke-linecap="round" stroke-linejoin="round"/>
<path d="M0.292969 62.2578V100.158H85.693V62.2578H0.292969Z" stroke="#5C5C5C" stroke-width="0.5852" stroke-miterlimit="10" stroke-linecap="round" stroke-linejoin="round"/>
<path d="M82.2932 23.957H4.49316V54.257H82.2932V23.957Z" stroke="#5C5C5C" stroke-width="0.5852" stroke-miterlimit="10" stroke-linecap="round" stroke-linejoin="round"/>
<path d="M167.293 23.957H89.4932V54.257H167.293V23.957Z" stroke="#5C5C5C" stroke-width="0.5852" stroke-miterlimit="10" stroke-linecap="round" stroke-linejoin="round"/>
<path d="M82.2932 66.0566H4.49316V96.3566H82.2932V66.0566Z" stroke="#5C5C5C" stroke-width="0.5852" stroke-miterlimit="10" stroke-linecap="round" stroke-linejoin="round"/>
<path d="M85.3936 62.2578V100.158H170.694V62.2578H85.3936Z" stroke="#5C5C5C" stroke-width="0.5852" stroke-miterlimit="10" stroke-linecap="round" stroke-linejoin="round"/>
<path d="M0.393555 20.1562V58.1562H85.6936V20.1562H0.393555Z" stroke="#5C5C5C" stroke-width="0.5852" stroke-miterlimit="10" stroke-linecap="round" stroke-linejoin="round"/>
<path d="M85.3936 20.1562V58.1562H170.694V20.1562H85.3936Z" stroke="#5C5C5C" stroke-width="0.5852" stroke-miterlimit="10" stroke-linecap="round" stroke-linejoin="round"/>
<path d="M167.293 66.0566H89.4932V96.3566H167.293V66.0566Z" stroke="#5C5C5C" stroke-width="0.5852" stroke-miterlimit="10" stroke-linecap="round" stroke-linejoin="round"/>
<path d="M5.19355 15.9563H0.393555V12.1562H171.694V15.9563H5.19355Z" stroke="#5C5C5C" stroke-width="0.5247" stroke-miterlimit="10" stroke-linecap="round" stroke-linejoin="round"/>
<path opacity="0.5" d="M167.793 161.758H5.59277V163.958H167.793V161.758Z" fill="#D7D7D7"/>
<path d="M167.693 162.057H5.49316V163.957H167.693V162.057Z" stroke="#C0C0BF" stroke-width="0.2759" stroke-miterlimit="10" stroke-linecap="round" stroke-linejoin="round"/>
<path d="M172.293 202.157V164.057H0.693359V202.157H7.39336" stroke="#5C5C5C" stroke-width="0.5852" stroke-miterlimit="10" stroke-linecap="round" stroke-linejoin="round"/>
<path d="M7.39355 202.156V170.656H165.594V202.156H172.294" stroke="#5C5C5C" stroke-width="0.5852" stroke-miterlimit="10" stroke-linecap="round" stroke-linejoin="round"/>
<path d="M7.39355 170.657V164.057" stroke="#5C5C5C" stroke-width="0.5852" stroke-miterlimit="10" stroke-linecap="round" stroke-linejoin="round"/>
<path d="M165.593 170.657V164.057" stroke="#5C5C5C" stroke-width="0.5852" stroke-miterlimit="10" stroke-linecap="round" stroke-linejoin="round"/>
<path d="M168.493 108.057H3.79297V158.357H168.493V108.057Z" stroke="#575756" stroke-width="0.5852" stroke-miterlimit="10" stroke-linecap="round" stroke-linejoin="round"/>
<path d="M0.292969 161.756V104.656H171.893V161.756H0.292969Z" stroke="#5C5C5C" stroke-width="0.5852" stroke-miterlimit="10" stroke-linecap="round" stroke-linejoin="round"/>
<path d="M113.893 114.657H56.793V111.857H113.893V114.657Z" fill="#C0C0BF" stroke="#5C5C5C" stroke-width="0.5852" stroke-miterlimit="10" stroke-linecap="round" stroke-linejoin="round"/>
<path opacity="0.5" d="M419.494 124.957H259.894V127.457H419.494V124.957Z" fill="#D7D7D7"/>
<path d="M419.494 124.957V127.557H259.894V124.957" stroke="#C0C0BF" stroke-width="0.3844" stroke-miterlimit="10" stroke-linecap="round" stroke-linejoin="round"/>
<path d="M255.193 202.357V127.557H423.893V202.357H417.393V134.057H261.793V202.357H255.193Z" stroke="#5C5C5C" stroke-width="0.5766" stroke-miterlimit="10" stroke-linecap="round" stroke-linejoin="round"/>
<path d="M261.793 164.957H417.393" stroke="#5C5C5C" stroke-width="0.5766" stroke-miterlimit="10" stroke-linecap="round" stroke-linejoin="round"/>
<path d="M261.793 171.457H417.393" stroke="#5C5C5C" stroke-width="0.5766" stroke-miterlimit="10" stroke-linecap="round" stroke-linejoin="round"/>
<circle cx="423.893" cy="127.558" r="0.2883" fill="#5C5C5C"/>
<path d="M261.793 134.057V127.557" stroke="#5C5C5C" stroke-width="0.5766" stroke-miterlimit="10" stroke-linecap="round" stroke-linejoin="round"/>
<path d="M417.394 134.057V127.557" stroke="#5C5C5C" stroke-width="0.5766" stroke-miterlimit="10" stroke-linecap="round" stroke-linejoin="round"/>
<path d="M420.793 11.6562H258.493V61.1562H420.793V11.6562Z" stroke="#575756" stroke-width="0.5766" stroke-miterlimit="10" stroke-linecap="round" stroke-linejoin="round"/>
<path opacity="0.5" d="M420.293 4.15625H258.693V8.25625H420.293V4.15625Z" fill="#D7D7D7"/>
<path d="M258.693 4.35742V8.25742H420.293V4.45742" stroke="#C0C0BF" stroke-width="0.572" stroke-miterlimit="10" stroke-linecap="round" stroke-linejoin="round"/>
<path d="M259.693 3.95781H254.993V0.257812H423.693V3.95781H259.693Z" stroke="#5C5C5C" stroke-width="0.517" stroke-miterlimit="10" stroke-linecap="round" stroke-linejoin="round"/>
<path opacity="0.5" d="M420.893 64.5566H259.293V68.6566H420.893V64.5566Z" fill="#D7D7D7"/>
<path d="M259.293 64.8574V68.6574H420.893V64.8574" stroke="#C0C0BF" stroke-width="0.572" stroke-miterlimit="10" stroke-linecap="round" stroke-linejoin="round"/>
<path d="M255.093 64.5578V8.25781H424.193V64.5578H255.093Z" stroke="#5C5C5C" stroke-width="0.5766" stroke-miterlimit="10" stroke-linecap="round" stroke-linejoin="round"/>
<path d="M420.893 72.0566H258.593V121.557H420.893V72.0566Z" stroke="#575756" stroke-width="0.5766" stroke-miterlimit="10" stroke-linecap="round" stroke-linejoin="round"/>
<path d="M255.193 124.956V68.6562H424.293V124.956H255.193Z" stroke="#5C5C5C" stroke-width="0.5766" stroke-miterlimit="10" stroke-linecap="round" stroke-linejoin="round"/>
<path d="M367.493 78.5574H311.193V75.8574H339.393H367.493V78.5574Z" fill="#C0C0BF" stroke="#5C5C5C" stroke-width="0.5766" stroke-miterlimit="10" stroke-linecap="round" stroke-linejoin="round"/>
<path d="M646.393 60.657H651.093V56.957H482.293V60.657H646.393Z" stroke="#5C5C5C" stroke-width="0.517" stroke-miterlimit="10" stroke-linecap="round" stroke-linejoin="round"/>
<circle cx="638.493" cy="36.9563" r="0.2883" fill="#5C5C5C"/>
<path opacity="0.5" d="M646.093 105.757L569.493 106.357V102.457H646.093V105.757Z" fill="#D7D7D7"/>
<path opacity="0.5" d="M561.993 102.557H486.093V106.457H561.993V102.557Z" fill="#D7D7D7"/>
<path d="M561.993 102.357V106.057" stroke="#C0C0BF" stroke-width="0.3844" stroke-miterlimit="10" stroke-linecap="round" stroke-linejoin="round"/>
<path d="M569.493 102.357V106.057" stroke="#C0C0BF" stroke-width="0.3844" stroke-miterlimit="10" stroke-linecap="round" stroke-linejoin="round"/>
<path d="M485.894 106.356V102.656" stroke="#C0C0BF" stroke-width="0.3844" stroke-miterlimit="10" stroke-linecap="round" stroke-linejoin="round"/>
<path d="M646.093 102.258V105.958" stroke="#C0C0BF" stroke-width="0.3844" stroke-miterlimit="10" stroke-linecap="round" stroke-linejoin="round"/>
<path opacity="0.5" d="M646.793 162.758H486.993V164.958H646.793V162.758Z" fill="#D7D7D7"/>
<path d="M646.694 163.057H486.894V164.957H646.694V163.057Z" stroke="#C0C0BF" stroke-width="0.2718" stroke-miterlimit="10" stroke-linecap="round" stroke-linejoin="round"/>
<path d="M651.193 202.557V164.957H482.193V202.557H488.693" stroke="#5C5C5C" stroke-width="0.5766" stroke-miterlimit="10" stroke-linecap="round" stroke-linejoin="round"/>
<path d="M488.693 202.557V171.557H644.593V202.557H651.193" stroke="#5C5C5C" stroke-width="0.5766" stroke-miterlimit="10" stroke-linecap="round" stroke-linejoin="round"/>
<path d="M488.693 171.557V164.957" stroke="#5C5C5C" stroke-width="0.5766" stroke-miterlimit="10" stroke-linecap="round" stroke-linejoin="round"/>
<path d="M644.593 171.557V164.957" stroke="#5C5C5C" stroke-width="0.5766" stroke-miterlimit="10" stroke-linecap="round" stroke-linejoin="round"/>
<path d="M647.793 109.758H485.493V159.258H647.793V109.758Z" stroke="#5C5C5C" stroke-width="0.5766" stroke-miterlimit="10" stroke-linecap="round" stroke-linejoin="round"/>
<path d="M651.293 106.457H482.193V162.757H651.293V106.457Z" stroke="#5C5C5C" stroke-width="0.5766" stroke-miterlimit="10" stroke-linecap="round" stroke-linejoin="round"/>
<path d="M595.193 117.957H538.993V115.357H567.093H595.193V117.957Z" fill="#C0C0BF" stroke="#5C5C5C" stroke-width="0.5766" stroke-miterlimit="10" stroke-linecap="round" stroke-linejoin="round"/>
<path opacity="0.5" d="M562.494 64.857L485.894 64.757V60.957H562.494V64.857Z" fill="#D7D7D7"/>
<path opacity="0.5" d="M647.193 64.957L570.693 64.757V60.957H647.193V64.957Z" fill="#D7D7D7"/>
<path d="M485.793 61.0566V64.4566" stroke="#C0C0BF" stroke-width="0.3844" stroke-miterlimit="10" stroke-linecap="round" stroke-linejoin="round"/>
<path d="M562.493 60.6562V64.8563" stroke="#C0C0BF" stroke-width="0.3844" stroke-miterlimit="10" stroke-linecap="round" stroke-linejoin="round"/>
<path d="M647.193 60.8574V64.5574" stroke="#C0C0BF" stroke-width="0.3844" stroke-miterlimit="10" stroke-linecap="round" stroke-linejoin="round"/>
<path d="M566.593 65.1562V102.556H650.693V65.1562H566.593Z" stroke="#5C5C5C" stroke-width="0.5766" stroke-miterlimit="10" stroke-linecap="round" stroke-linejoin="round"/>
<path d="M647.293 68.957H570.693V98.857H647.293V68.957Z" stroke="#5C5C5C" stroke-width="0.5766" stroke-miterlimit="10" stroke-linecap="round" stroke-linejoin="round"/>
<path d="M566.393 65.1562H482.293V102.556H566.393V65.1562Z" stroke="#5C5C5C" stroke-width="0.5766" stroke-miterlimit="10" stroke-linecap="round" stroke-linejoin="round"/>
<path d="M562.693 68.8574H486.093V98.7574H562.693V68.8574Z" stroke="#5C5C5C" stroke-width="0.5766" stroke-miterlimit="10" stroke-linecap="round" stroke-linejoin="round"/>
<path d="M615.394 75.6574H601.994C601.694 75.6574 601.394 75.3574 601.394 75.0574V73.4574C601.394 73.1574 601.694 72.8574 601.994 72.8574H608.694H615.394C615.694 72.8574 615.994 73.1574 615.994 73.4574V75.0574C615.994 75.3574 615.694 75.6574 615.394 75.6574Z" fill="#C0C0BF" stroke="#5C5C5C" stroke-width="0.5766" stroke-miterlimit="10" stroke-linecap="round" stroke-linejoin="round"/>
<path d="M530.793 75.6574H517.393C517.093 75.6574 516.793 75.3574 516.793 75.0574V73.4574C516.793 73.1574 517.093 72.8574 517.393 72.8574H524.093H530.793C531.093 72.8574 531.393 73.1574 531.393 73.4574V75.0574C531.393 75.3574 531.093 75.6574 530.793 75.6574Z" fill="#C0C0BF" stroke="#5C5C5C" stroke-width="0.5766" stroke-miterlimit="10" stroke-linecap="round" stroke-linejoin="round"/>
<path d="M570.993 60.6562V64.4562" stroke="#C0C0BF" stroke-width="0.3844" stroke-miterlimit="10" stroke-linecap="round" stroke-linejoin="round"/>
<path opacity="0.5" d="M906.193 65.1562H831.593V68.4563H906.193V65.1562Z" fill="#D7D7D7"/>
<path opacity="0.5" d="M906.293 64.957H831.593V68.257H906.293V64.957Z" stroke="#D7D7D7" stroke-width="0.0575586" stroke-miterlimit="10"/>
<path d="M831.493 65.1562V68.4563H906.293V65.1562" stroke="#C0C0BF" stroke-width="0.3844" stroke-miterlimit="10" stroke-linecap="round" stroke-linejoin="round"/>
<path opacity="0.5" d="M823.593 65.1562H745.993V68.5563H823.593V65.1562Z" fill="#D7D7D7"/>
<path d="M823.593 65.1562V68.5563" stroke="#C0C0BF" stroke-width="0.3844" stroke-miterlimit="10" stroke-linecap="round" stroke-linejoin="round"/>
<path d="M745.993 65.1562V68.5563" stroke="#C0C0BF" stroke-width="0.3844" stroke-miterlimit="10" stroke-linecap="round" stroke-linejoin="round"/>
<path opacity="0.5" d="M905.893 125.156H746.293V127.656H905.893V125.156Z" fill="#D7D7D7"/>
<path d="M905.893 125.156V127.656H746.293V125.156" stroke="#C0C0BF" stroke-width="0.3844" stroke-miterlimit="10" stroke-linecap="round" stroke-linejoin="round"/>
<path d="M741.693 202.456V127.656H910.393V202.556H903.793V202.456V134.256H748.193V202.456H741.693Z" stroke="#5C5C5C" stroke-width="0.5766" stroke-miterlimit="10" stroke-linecap="round" stroke-linejoin="round"/>
<path d="M748.193 165.057H903.793" stroke="#5C5C5C" stroke-width="0.5766" stroke-miterlimit="10" stroke-linecap="round" stroke-linejoin="round"/>
<path d="M748.193 171.656H903.793" stroke="#5C5C5C" stroke-width="0.5766" stroke-miterlimit="10" stroke-linecap="round" stroke-linejoin="round"/>
<circle cx="910.393" cy="127.657" r="0.2883" fill="#5C5C5C"/>
<path d="M748.193 134.256V127.656" stroke="#5C5C5C" stroke-width="0.5766" stroke-miterlimit="10" stroke-linecap="round" stroke-linejoin="round"/>
<path d="M903.793 134.256V127.656" stroke="#5C5C5C" stroke-width="0.5766" stroke-miterlimit="10" stroke-linecap="round" stroke-linejoin="round"/>
<path d="M907.194 72.1562H744.894V121.656H907.194V72.1562Z" stroke="#575756" stroke-width="0.5766" stroke-miterlimit="10" stroke-linecap="round" stroke-linejoin="round"/>
<path d="M741.493 125.157V68.8574H910.593V125.157H741.493Z" stroke="#5C5C5C" stroke-width="0.5766" stroke-miterlimit="10" stroke-linecap="round" stroke-linejoin="round"/>
<path opacity="0.5" d="M905.994 23.8574H831.394V27.1574H905.994V23.8574Z" fill="#D7D7D7"/>
<path opacity="0.5" d="M906.094 23.5566H831.394V26.8566H906.094V23.5566Z" stroke="#D7D7D7" stroke-width="0.0575586" stroke-miterlimit="10"/>
<path d="M831.293 23.3574V27.1574H905.993V23.3574" stroke="#C0C0BF" stroke-width="0.3844" stroke-miterlimit="10" stroke-linecap="round" stroke-linejoin="round"/>
<path d="M906.994 31.0566H830.394V60.9566H906.994V31.0566Z" stroke="#3C3C3B" stroke-width="0.5766" stroke-miterlimit="10"/>
<path d="M821.994 30.957H745.394V60.857H821.994V30.957Z" fill="white" stroke="#3C3C3B" stroke-width="0.5766" stroke-miterlimit="10"/>
<path d="M826.293 27.1562V64.5562H910.393V27.1562H826.293Z" stroke="#5C5C5C" stroke-width="0.5766" stroke-miterlimit="10" stroke-linecap="round" stroke-linejoin="round"/>
<path d="M906.994 30.957H830.394V60.857H906.994V30.957Z" stroke="#5C5C5C" stroke-width="0.5766" stroke-miterlimit="10" stroke-linecap="round" stroke-linejoin="round"/>
<path opacity="0.5" d="M823.393 23.7578H745.793V27.1578H823.393V23.7578Z" fill="#D7D7D7"/>
<path d="M823.394 23.3574V27.1574" stroke="#C0C0BF" stroke-width="0.3844" stroke-miterlimit="10" stroke-linecap="round" stroke-linejoin="round"/>
<path d="M745.793 24.1562V27.1562" stroke="#5C5C5C" stroke-width="0.5766" stroke-miterlimit="10" stroke-linecap="round" stroke-linejoin="round"/>
<path d="M741.693 27.1562V64.5562H825.793V27.1562H741.693Z" stroke="#5C5C5C" stroke-width="0.5766" stroke-miterlimit="10" stroke-linecap="round" stroke-linejoin="round"/>
<g opacity="0.5">
<path d="M821.994 30.957H745.394V60.857H821.994V30.957Z" fill="#D7D7D7"/>
</g>
<g opacity="0.5">
<path d="M907.193 30.957H830.593V60.857H907.193V30.957Z" fill="#D7D7D7"/>
</g>
<path d="M746.893 23.3562H741.493V19.6562H909.693V23.3562H905.093H748.693H746.893Z" stroke="#5C5C5C" stroke-width="0.5766" stroke-miterlimit="10" stroke-linecap="round" stroke-linejoin="round"/>
<path d="M854.393 80.3578H798.093V77.7578H826.293H854.393V80.3578Z" fill="#C0C0BF" stroke="#5C5C5C" stroke-width="0.5766" stroke-miterlimit="10" stroke-linecap="round" stroke-linejoin="round"/>
</svg>

