<svg width="1119" height="309" viewBox="0 0 1119 309" fill="none" xmlns="http://www.w3.org/2000/svg">
<path opacity="0.5" d="M209.065 257.801H6.56543V260.201H209.065V257.801Z" fill="#D7D7D7"/>
<path d="M208.865 257.801H6.36523V260.201H208.865V257.801Z" stroke="#C0C0BF" stroke-width="0.3445" stroke-miterlimit="10" stroke-linecap="round" stroke-linejoin="round"/>
<path d="M214.665 307.899V260.199H0.365234V307.899H8.76524V268.599H206.365V307.899H214.665Z" stroke="#5C5C5C" stroke-width="0.7308" stroke-miterlimit="10" stroke-linecap="round" stroke-linejoin="round"/>
<path d="M8.76562 268.601V260.301" stroke="#5C5C5C" stroke-width="0.7308" stroke-miterlimit="10" stroke-linecap="round" stroke-linejoin="round"/>
<path d="M206.365 268.601V260.301" stroke="#5C5C5C" stroke-width="0.7308" stroke-miterlimit="10" stroke-linecap="round" stroke-linejoin="round"/>
<path d="M307.466 207.301V210.301H509.766V207.301" stroke="#C0C0BF" stroke-width="0.4872" stroke-miterlimit="10" stroke-linecap="round" stroke-linejoin="round"/>
<path opacity="0.5" d="M509.765 206.898H307.365V210.098H509.765V206.898Z" fill="#D7D7D7"/>
<path d="M516.165 307.901V210.301H301.865V307.901H310.165V268.601H507.765V307.901H516.165Z" stroke="#5C5C5C" stroke-width="0.7308" stroke-miterlimit="10" stroke-linecap="round" stroke-linejoin="round"/>
<path d="M310.165 268.599V260.199H507.765V268.599" stroke="#5C5C5C" stroke-width="0.7343" stroke-miterlimit="10" stroke-linecap="round" stroke-linejoin="round"/>
<path d="M507.766 210.699H309.966V219.099H507.766V210.699Z" stroke="#5C5C5C" stroke-width="0.7308" stroke-miterlimit="10" stroke-linecap="round" stroke-linejoin="round"/>
<path d="M309.966 219.801V260.801" stroke="#5C5C5C" stroke-width="0.7308" stroke-miterlimit="10" stroke-linecap="round" stroke-linejoin="round"/>
<path d="M507.766 260.202V219.102" stroke="#5C5C5C" stroke-width="0.7308" stroke-miterlimit="10" stroke-linecap="round" stroke-linejoin="round"/>
<path opacity="0.5" d="M4.96582 110.2V105.5H210.666V110.2" fill="#D7D7D7"/>
<path d="M4.96582 105.5V110.2" stroke="#C0C0BF" stroke-width="0.3445" stroke-miterlimit="10" stroke-linecap="round" stroke-linejoin="round"/>
<path d="M210.665 105.5V110.2" stroke="#C0C0BF" stroke-width="0.3445" stroke-miterlimit="10" stroke-linecap="round" stroke-linejoin="round"/>
<path d="M210.666 114.5H4.96582V253.5H210.666V114.5Z" stroke="#5C5C5C" stroke-width="0.7308" stroke-miterlimit="10" stroke-linecap="round" stroke-linejoin="round"/>
<path d="M95.9652 126.398H16.8652V241.698H95.9652" stroke="#5C5C5C" stroke-width="0.7308" stroke-miterlimit="10" stroke-linecap="round" stroke-linejoin="round"/>
<path d="M119.766 241.698H198.766V126.398H119.766" stroke="#5C5C5C" stroke-width="0.7308" stroke-miterlimit="10" stroke-linecap="round" stroke-linejoin="round"/>
<path d="M0.765625 257.799H214.966V110.199H0.765625V257.799Z" stroke="#5C5C5C" stroke-width="0.7308" stroke-miterlimit="10" stroke-linecap="round" stroke-linejoin="round"/>
<path d="M107.865 114.5V253.6" stroke="#5C5C5C" stroke-width="0.7308" stroke-miterlimit="10" stroke-linecap="round" stroke-linejoin="round"/>
<path d="M119.766 114.5V253.6" stroke="#5C5C5C" stroke-width="0.7308" stroke-miterlimit="10" stroke-linecap="round" stroke-linejoin="round"/>
<path d="M95.9658 114.5V253.6" stroke="#5C5C5C" stroke-width="0.7308" stroke-miterlimit="10" stroke-linecap="round" stroke-linejoin="round"/>
<path d="M16.8652 126.4V114.5" stroke="#5C5C5C" stroke-width="0.7308" stroke-miterlimit="10" stroke-linecap="round" stroke-linejoin="round"/>
<path d="M16.8652 241.699V253.599" stroke="#5C5C5C" stroke-width="0.7308" stroke-miterlimit="10" stroke-linecap="round" stroke-linejoin="round"/>
<path d="M198.766 241.699V253.599" stroke="#5C5C5C" stroke-width="0.7308" stroke-miterlimit="10" stroke-linecap="round" stroke-linejoin="round"/>
<path d="M198.766 126.4V114.5" stroke="#5C5C5C" stroke-width="0.7308" stroke-miterlimit="10" stroke-linecap="round" stroke-linejoin="round"/>
<circle cx="198.766" cy="126.401" r="0.3654" fill="#5C5C5C"/>
<circle cx="0.765791" cy="110.201" r="0.3654" fill="#5C5C5C"/>
<circle cx="119.766" cy="126.401" r="0.3654" fill="#5C5C5C"/>
<circle cx="107.865" cy="126.401" r="0.3654" fill="#5C5C5C"/>
<circle cx="95.965" cy="114.498" r="0.3654" fill="#5C5C5C"/>
<circle cx="56.465" cy="126.401" r="0.3654" fill="#5C5C5C"/>
<circle cx="56.465" cy="114.498" r="0.3654" fill="#5C5C5C"/>
<circle cx="49.5656" cy="114.498" r="0.3654" fill="#5C5C5C"/>
<path d="M6.26524 105.499H0.365234V100.699H214.265V105.499H6.26524Z" stroke="#5C5C5C" stroke-width="0.6552" stroke-miterlimit="10" stroke-linecap="round" stroke-linejoin="round"/>
<path d="M111.966 192.599V175.499C111.966 175.099 112.266 174.699 112.766 174.699H114.866C115.266 174.699 115.666 174.999 115.666 175.499V192.599C115.666 192.999 115.366 193.399 114.866 193.399H112.766C112.366 193.299 111.966 192.999 111.966 192.599Z" fill="#C0C0BF" stroke="#5C5C5C" stroke-width="0.7308" stroke-miterlimit="10" stroke-linecap="round" stroke-linejoin="round"/>
<path d="M114.765 193.299H112.965C112.465 193.299 112.065 192.899 112.065 192.399V175.599C112.065 175.099 112.465 174.699 112.965 174.699H114.765C115.265 174.699 115.665 175.099 115.665 175.599V192.399C115.565 192.899 115.165 193.299 114.765 193.299Z" fill="#C0C0BF" stroke="#5C5C5C" stroke-width="0.7308" stroke-miterlimit="10" stroke-linecap="round" stroke-linejoin="round"/>
<path d="M100.065 192.599V175.499C100.065 175.099 100.365 174.699 100.865 174.699H102.965C103.365 174.699 103.765 174.999 103.765 175.499V192.599C103.765 192.999 103.465 193.399 102.965 193.399H100.865C100.465 193.299 100.065 192.999 100.065 192.599Z" fill="#C0C0BF" stroke="#5C5C5C" stroke-width="0.7308" stroke-miterlimit="10" stroke-linecap="round" stroke-linejoin="round"/>
<path d="M102.765 193.299H100.965C100.465 193.299 100.065 192.899 100.065 192.399V175.599C100.065 175.099 100.465 174.699 100.965 174.699H102.765C103.265 174.699 103.665 175.099 103.665 175.599V192.399C103.665 192.899 103.265 193.299 102.765 193.299Z" fill="#C0C0BF" stroke="#5C5C5C" stroke-width="0.7308" stroke-miterlimit="10" stroke-linecap="round" stroke-linejoin="round"/>
<path opacity="0.5" d="M305.966 59.6984V54.8984H511.566V59.6984" fill="#D7D7D7"/>
<path d="M305.966 54.8984V59.6984" stroke="#C0C0BF" stroke-width="0.3445" stroke-miterlimit="10" stroke-linecap="round" stroke-linejoin="round"/>
<path d="M511.565 54.8984V59.6984" stroke="#C0C0BF" stroke-width="0.3445" stroke-miterlimit="10" stroke-linecap="round" stroke-linejoin="round"/>
<path d="M511.666 64H305.966V203H511.666V64Z" stroke="#5C5C5C" stroke-width="0.7308" stroke-miterlimit="10" stroke-linecap="round" stroke-linejoin="round"/>
<path d="M396.865 75.8984H317.865V191.098H396.865" stroke="#5C5C5C" stroke-width="0.7308" stroke-miterlimit="10" stroke-linecap="round" stroke-linejoin="round"/>
<path d="M420.665 191.098H499.665V75.8984H420.665" stroke="#5C5C5C" stroke-width="0.7308" stroke-miterlimit="10" stroke-linecap="round" stroke-linejoin="round"/>
<path d="M301.665 207.299H515.865V59.6992H301.665V207.299Z" stroke="#5C5C5C" stroke-width="0.7308" stroke-miterlimit="10" stroke-linecap="round" stroke-linejoin="round"/>
<path d="M408.766 64V203" stroke="#5C5C5C" stroke-width="0.7308" stroke-miterlimit="10" stroke-linecap="round" stroke-linejoin="round"/>
<path d="M420.665 64V203" stroke="#5C5C5C" stroke-width="0.7308" stroke-miterlimit="10" stroke-linecap="round" stroke-linejoin="round"/>
<path d="M396.865 64V203" stroke="#5C5C5C" stroke-width="0.7308" stroke-miterlimit="10" stroke-linecap="round" stroke-linejoin="round"/>
<path d="M317.865 75.9V64" stroke="#5C5C5C" stroke-width="0.7308" stroke-miterlimit="10" stroke-linecap="round" stroke-linejoin="round"/>
<path d="M317.865 191.102V203.002" stroke="#5C5C5C" stroke-width="0.7308" stroke-miterlimit="10" stroke-linecap="round" stroke-linejoin="round"/>
<path d="M499.665 191.102V203.002" stroke="#5C5C5C" stroke-width="0.7308" stroke-miterlimit="10" stroke-linecap="round" stroke-linejoin="round"/>
<path d="M499.665 75.9V64" stroke="#5C5C5C" stroke-width="0.7308" stroke-miterlimit="10" stroke-linecap="round" stroke-linejoin="round"/>
<circle cx="499.665" cy="75.9006" r="0.3654" fill="#5C5C5C"/>
<circle cx="301.665" cy="59.7013" r="0.3654" fill="#5C5C5C"/>
<circle cx="420.665" cy="75.9006" r="0.3654" fill="#5C5C5C"/>
<circle cx="408.766" cy="75.9006" r="0.3654" fill="#5C5C5C"/>
<circle cx="396.865" cy="63.9982" r="0.3654" fill="#5C5C5C"/>
<circle cx="357.365" cy="75.9006" r="0.3654" fill="#5C5C5C"/>
<circle cx="357.365" cy="63.9982" r="0.3654" fill="#5C5C5C"/>
<circle cx="350.566" cy="63.9982" r="0.3654" fill="#5C5C5C"/>
<path d="M307.266 54.8992H301.266V50.1992H515.166V54.8992H307.266Z" stroke="#5C5C5C" stroke-width="0.6552" stroke-miterlimit="10" stroke-linecap="round" stroke-linejoin="round"/>
<path d="M412.966 141.999V124.999C412.966 124.599 413.266 124.199 413.766 124.199H415.866C416.266 124.199 416.666 124.499 416.666 124.999V141.999C416.666 142.399 416.366 142.799 415.866 142.799H413.766C413.266 142.799 412.966 142.399 412.966 141.999Z" fill="#C0C0BF" stroke="#5C5C5C" stroke-width="0.7308" stroke-miterlimit="10" stroke-linecap="round" stroke-linejoin="round"/>
<path d="M415.666 142.799H413.866C413.366 142.799 412.966 142.399 412.966 141.899V125.099C412.966 124.599 413.366 124.199 413.866 124.199H415.666C416.166 124.199 416.566 124.599 416.566 125.099V141.899C416.566 142.399 416.166 142.799 415.666 142.799Z" fill="#C0C0BF" stroke="#5C5C5C" stroke-width="0.7308" stroke-miterlimit="10" stroke-linecap="round" stroke-linejoin="round"/>
<path d="M401.065 141.999V124.999C401.065 124.599 401.365 124.199 401.865 124.199H403.965C404.365 124.199 404.765 124.499 404.765 124.999V141.999C404.765 142.399 404.465 142.799 403.965 142.799H401.865C401.365 142.799 401.065 142.399 401.065 141.999Z" fill="#C0C0BF" stroke="#5C5C5C" stroke-width="0.7308" stroke-miterlimit="10" stroke-linecap="round" stroke-linejoin="round"/>
<path d="M403.765 142.799H401.965C401.465 142.799 401.065 142.399 401.065 141.899V125.099C401.065 124.599 401.465 124.199 401.965 124.199H403.765C404.265 124.199 404.665 124.599 404.665 125.099V141.899C404.565 142.399 404.265 142.799 403.765 142.799Z" fill="#C0C0BF" stroke="#5C5C5C" stroke-width="0.7308" stroke-miterlimit="10" stroke-linecap="round" stroke-linejoin="round"/>
<path opacity="0.5" d="M813.665 157.699H719.065V162.299H813.665V157.699Z" fill="#D7D7D7"/>
<path opacity="0.5" d="M706.365 157.301H611.665V162.001H706.365V157.301Z" fill="#D7D7D7"/>
<path d="M718.966 157.699V162.299H813.566V157.999" stroke="#C0C0BF" stroke-width="0.4631" stroke-miterlimit="10" stroke-linecap="round" stroke-linejoin="round"/>
<path d="M611.665 157.601V161.901H706.365V157.301" stroke="#C0C0BF" stroke-width="0.4654" stroke-miterlimit="10" stroke-linecap="round" stroke-linejoin="round"/>
<path opacity="0.5" d="M814.265 209.801H612.165V213.001H814.265V209.801Z" fill="#D7D7D7"/>
<path d="M814.265 209.801V213.101H612.165V209.801" stroke="#C0C0BF" stroke-width="0.4868" stroke-miterlimit="10" stroke-linecap="round" stroke-linejoin="round"/>
<path d="M605.865 307.802V213.102H819.465V307.902H811.165V307.802V221.402H614.165V307.802H605.865Z" stroke="#5C5C5C" stroke-width="0.7302" stroke-miterlimit="10" stroke-linecap="round" stroke-linejoin="round"/>
<path d="M614.165 260.398H811.165" stroke="#5C5C5C" stroke-width="0.7302" stroke-miterlimit="10" stroke-linecap="round" stroke-linejoin="round"/>
<path d="M614.165 268.699H811.165" stroke="#5C5C5C" stroke-width="0.7302" stroke-miterlimit="10" stroke-linecap="round" stroke-linejoin="round"/>
<path d="M610.565 166.801V204.801H814.165V166.801H610.565Z" stroke="#575756" stroke-width="0.7302" stroke-miterlimit="10" stroke-linecap="round" stroke-linejoin="round"/>
<path d="M819.465 209.602V162.102H605.865V209.602H819.465Z" stroke="#5C5C5C" stroke-width="0.7302" stroke-miterlimit="10" stroke-linecap="round" stroke-linejoin="round"/>
<path opacity="0.5" d="M609.766 9.80156V5.10156H815.266V9.80156" fill="#D7D7D7"/>
<path d="M609.766 5.10156V9.80156" stroke="#C0C0BF" stroke-width="0.3442" stroke-miterlimit="10" stroke-linecap="round" stroke-linejoin="round"/>
<path d="M815.266 5.10156V9.80156" stroke="#C0C0BF" stroke-width="0.3442" stroke-miterlimit="10" stroke-linecap="round" stroke-linejoin="round"/>
<path d="M815.266 14.1016H609.766V153.002H815.266V14.1016Z" stroke="#5C5C5C" stroke-width="0.7302" stroke-miterlimit="10" stroke-linecap="round" stroke-linejoin="round"/>
<path d="M700.665 26H621.665V141.1H700.665" stroke="#5C5C5C" stroke-width="0.7302" stroke-miterlimit="10" stroke-linecap="round" stroke-linejoin="round"/>
<path d="M724.466 141.1H803.366V26H724.466" stroke="#5C5C5C" stroke-width="0.7302" stroke-miterlimit="10" stroke-linecap="round" stroke-linejoin="round"/>
<path d="M605.466 157.301H819.566V9.80078H605.466V157.301Z" stroke="#5C5C5C" stroke-width="0.7302" stroke-miterlimit="10" stroke-linecap="round" stroke-linejoin="round"/>
<path d="M712.565 14.1016V153.002" stroke="#5C5C5C" stroke-width="0.7302" stroke-miterlimit="10" stroke-linecap="round" stroke-linejoin="round"/>
<path d="M724.466 14.1016V153.002" stroke="#5C5C5C" stroke-width="0.7302" stroke-miterlimit="10" stroke-linecap="round" stroke-linejoin="round"/>
<path d="M700.665 14.1016V153.002" stroke="#5C5C5C" stroke-width="0.7302" stroke-miterlimit="10" stroke-linecap="round" stroke-linejoin="round"/>
<path d="M621.665 26.0016V14.1016" stroke="#5C5C5C" stroke-width="0.7302" stroke-miterlimit="10" stroke-linecap="round" stroke-linejoin="round"/>
<path d="M621.665 141.102V153.002" stroke="#5C5C5C" stroke-width="0.7302" stroke-miterlimit="10" stroke-linecap="round" stroke-linejoin="round"/>
<path d="M803.365 141.102V153.002" stroke="#5C5C5C" stroke-width="0.7302" stroke-miterlimit="10" stroke-linecap="round" stroke-linejoin="round"/>
<path d="M803.365 26.0016V14.1016" stroke="#5C5C5C" stroke-width="0.7302" stroke-miterlimit="10" stroke-linecap="round" stroke-linejoin="round"/>
<circle cx="621.666" cy="153.002" r="0.3651" fill="#5C5C5C"/>
<circle cx="700.666" cy="153.002" r="0.3651" fill="#5C5C5C"/>
<circle cx="724.466" cy="153.002" r="0.3651" fill="#5C5C5C"/>
<circle cx="803.365" cy="153.002" r="0.3651" fill="#5C5C5C"/>
<circle cx="803.365" cy="26.0018" r="0.3651" fill="#5C5C5C"/>
<circle cx="605.466" cy="9.79869" r="0.3651" fill="#5C5C5C"/>
<circle cx="724.466" cy="26.0018" r="0.3651" fill="#5C5C5C"/>
<circle cx="712.565" cy="26.0018" r="0.3651" fill="#5C5C5C"/>
<circle cx="700.666" cy="14.0995" r="0.3651" fill="#5C5C5C"/>
<circle cx="700.666" cy="153.002" r="0.3651" fill="#5C5C5C"/>
<circle cx="689.865" cy="153.002" r="0.3651" fill="#5C5C5C"/>
<circle cx="661.166" cy="26.0018" r="0.3651" fill="#5C5C5C"/>
<circle cx="661.166" cy="14.0995" r="0.3651" fill="#5C5C5C"/>
<circle cx="654.365" cy="14.0995" r="0.3651" fill="#5C5C5C"/>
<path d="M611.065 5.10078H605.165V0.300781H818.865V5.10078H611.065Z" stroke="#5C5C5C" stroke-width="0.6546" stroke-miterlimit="10" stroke-linecap="round" stroke-linejoin="round"/>
<path d="M716.165 92.1008V75.1008C716.165 74.7008 716.465 74.3008 716.965 74.3008H719.065C719.465 74.3008 719.865 74.6008 719.865 75.1008V92.1008C719.865 92.5008 719.565 92.9008 719.065 92.9008H716.965C716.465 92.8008 716.165 92.5008 716.165 92.1008Z" fill="#C0C0BF" stroke="#5C5C5C" stroke-width="0.7302" stroke-miterlimit="10" stroke-linecap="round" stroke-linejoin="round"/>
<path d="M718.865 92.8008H717.065C716.565 92.8008 716.165 92.4008 716.165 91.9008V75.2008C716.165 74.7008 716.565 74.3008 717.065 74.3008H718.865C719.365 74.3008 719.765 74.7008 719.765 75.2008V92.0008C719.765 92.5008 719.365 92.8008 718.865 92.8008Z" fill="#C0C0BF" stroke="#5C5C5C" stroke-width="0.7302" stroke-miterlimit="10" stroke-linecap="round" stroke-linejoin="round"/>
<path d="M704.266 92.1008V75.1008C704.266 74.7008 704.566 74.3008 705.066 74.3008H707.166C707.566 74.3008 707.966 74.6008 707.966 75.1008V92.1008C707.966 92.5008 707.666 92.9008 707.166 92.9008H705.066C704.566 92.8008 704.266 92.5008 704.266 92.1008Z" fill="#C0C0BF" stroke="#5C5C5C" stroke-width="0.7302" stroke-miterlimit="10" stroke-linecap="round" stroke-linejoin="round"/>
<path d="M706.966 92.8008H705.166C704.666 92.8008 704.266 92.4008 704.266 91.9008V75.2008C704.266 74.7008 704.666 74.3008 705.166 74.3008H706.966C707.466 74.3008 707.866 74.7008 707.866 75.2008V92.0008C707.866 92.5008 707.466 92.8008 706.966 92.8008Z" fill="#C0C0BF" stroke="#5C5C5C" stroke-width="0.7302" stroke-miterlimit="10" stroke-linecap="round" stroke-linejoin="round"/>
<path opacity="0.5" d="M1112.07 205.301H1017.67V209.501H1112.07V205.301Z" fill="#D7D7D7"/>
<path opacity="0.5" d="M1112.27 205.301H1017.67V209.501H1112.27V205.301Z" stroke="#D7D7D7" stroke-width="0.0728843" stroke-miterlimit="10"/>
<path d="M1017.57 205.102V209.802H1112.27V205.102" stroke="#C0C0BF" stroke-width="0.4868" stroke-miterlimit="10" stroke-linecap="round" stroke-linejoin="round"/>
<path opacity="0.5" d="M1007.57 205.199H909.266V209.499H1007.57V205.199Z" fill="#D7D7D7"/>
<path d="M1007.57 205.102V209.902" stroke="#C0C0BF" stroke-width="0.4868" stroke-miterlimit="10" stroke-linecap="round" stroke-linejoin="round"/>
<path opacity="0.5" d="M908.565 57.6008V52.8008H1114.07V57.6008" fill="#D7D7D7"/>
<path d="M908.565 52.8008V57.6008" stroke="#C0C0BF" stroke-width="0.3442" stroke-miterlimit="10" stroke-linecap="round" stroke-linejoin="round"/>
<path d="M1114.07 61.8984H908.565V200.798H1114.07V61.8984Z" stroke="#5C5C5C" stroke-width="0.7302" stroke-miterlimit="10" stroke-linecap="round" stroke-linejoin="round"/>
<path d="M999.466 73.8008H920.466V188.901H999.466" stroke="#5C5C5C" stroke-width="0.7302" stroke-miterlimit="10" stroke-linecap="round" stroke-linejoin="round"/>
<path d="M1023.27 188.901H1102.17V73.8008H1023.27" stroke="#5C5C5C" stroke-width="0.7302" stroke-miterlimit="10" stroke-linecap="round" stroke-linejoin="round"/>
<path d="M904.365 205.102H1118.37V57.6016H904.365V205.102Z" stroke="#5C5C5C" stroke-width="0.7302" stroke-miterlimit="10" stroke-linecap="round" stroke-linejoin="round"/>
<path d="M1011.37 61.8984V200.798" stroke="#5C5C5C" stroke-width="0.7302" stroke-miterlimit="10" stroke-linecap="round" stroke-linejoin="round"/>
<path d="M1023.27 61.8984V200.798" stroke="#5C5C5C" stroke-width="0.7302" stroke-miterlimit="10" stroke-linecap="round" stroke-linejoin="round"/>
<path d="M999.466 61.8984V200.798" stroke="#5C5C5C" stroke-width="0.7302" stroke-miterlimit="10" stroke-linecap="round" stroke-linejoin="round"/>
<path d="M920.466 73.7984V61.8984" stroke="#5C5C5C" stroke-width="0.7302" stroke-miterlimit="10" stroke-linecap="round" stroke-linejoin="round"/>
<path d="M920.466 188.898V200.798" stroke="#5C5C5C" stroke-width="0.7302" stroke-miterlimit="10" stroke-linecap="round" stroke-linejoin="round"/>
<path d="M1102.17 188.898V200.798" stroke="#5C5C5C" stroke-width="0.7302" stroke-miterlimit="10" stroke-linecap="round" stroke-linejoin="round"/>
<path d="M1102.17 73.7984V61.8984" stroke="#5C5C5C" stroke-width="0.7302" stroke-miterlimit="10" stroke-linecap="round" stroke-linejoin="round"/>
<path d="M909.866 52.8016H903.966V48.1016H1117.67V52.8016H909.866Z" stroke="#5C5C5C" stroke-width="0.6546" stroke-miterlimit="10" stroke-linecap="round" stroke-linejoin="round"/>
<path opacity="0.5" d="M1112.47 257.5H910.165V260.3H1112.47V257.5Z" fill="#D7D7D7"/>
<path d="M1112.37 257.898H910.065V260.298H1112.37V257.898Z" stroke="#C0C0BF" stroke-width="0.3442" stroke-miterlimit="10" stroke-linecap="round" stroke-linejoin="round"/>
<path d="M1118.17 307.901V260.301H904.065V307.901H912.365" stroke="#5C5C5C" stroke-width="0.7302" stroke-miterlimit="10" stroke-linecap="round" stroke-linejoin="round"/>
<path d="M912.365 307.902V268.602H1109.77V307.902H1118.17" stroke="#5C5C5C" stroke-width="0.7302" stroke-miterlimit="10" stroke-linecap="round" stroke-linejoin="round"/>
<path d="M912.365 268.601V260.301" stroke="#5C5C5C" stroke-width="0.7302" stroke-miterlimit="10" stroke-linecap="round" stroke-linejoin="round"/>
<path d="M1109.77 268.601V260.301" stroke="#5C5C5C" stroke-width="0.7302" stroke-miterlimit="10" stroke-linecap="round" stroke-linejoin="round"/>
<path d="M908.665 214.799V252.699H1112.27V214.699H908.665" stroke="#575756" stroke-width="0.7302" stroke-miterlimit="10" stroke-linecap="round" stroke-linejoin="round"/>
<path d="M1117.57 257.5V210H903.966V257.5H1117.57Z" stroke="#5C5C5C" stroke-width="0.7302" stroke-miterlimit="10" stroke-linecap="round" stroke-linejoin="round"/>
<path d="M1046.97 222.902H975.766V219.602H1011.37H1046.97V222.902Z" fill="#C0C0BF" stroke="#5C5C5C" stroke-width="0.7302" stroke-miterlimit="10" stroke-linecap="round" stroke-linejoin="round"/>
</svg>
