<!-- <svg width="1520" height="232" viewBox="0 0 1520 232" fill="none" xmlns="http://www.w3.org/2000/svg">
<rect width="1520" height="232" fill="white"/>
<g opacity="0.5">
<path d="M266.71 114.471H204.23V118.261H266.71V114.471Z" fill="#D7D7D7"/>
</g>
<g opacity="0.5">
<path d="M273.331 156.13H197.601V158.02H273.331V156.13Z" fill="#D7D7D7"/>
</g>
<path d="M498.62 114.36V118.15" stroke="#C0C0BF" stroke-width="0.39" stroke-linecap="round" stroke-linejoin="round"/>
<path opacity="0.5" d="M797.001 155.58H634.831V157.79H797.001V155.58Z" fill="#D7D7D7"/>
<path d="M796.881 155.891H634.711V157.791H796.881V155.891Z" stroke="#C0C0BF" stroke-width="0.28" stroke-linecap="round" stroke-linejoin="round"/>
<path opacity="0.5" d="M796.801 113.811H720.991V117.901H796.801V113.811Z" fill="#D7D7D7"/>
<path opacity="0.5" d="M710.881 113.791H635.011V117.881H710.881V113.791Z" fill="#D7D7D7"/>
<path d="M720.921 113.811V117.891H796.791V114.091" stroke="#C0C0BF" stroke-width="0.39" stroke-linecap="round" stroke-linejoin="round"/>
<path d="M797.75 121.891H719.98V152.241H797.75V121.891Z" fill="white"/>
<path d="M715.811 117.961V155.891H801.161V117.961H715.811Z" stroke="#5C5C5C" stroke-width="0.59" stroke-linecap="round" stroke-linejoin="round"/>
<path d="M893.9 77.7803V115.71H979.25V77.7803H893.9Z" stroke="#5C5C5C" stroke-width="0.59" stroke-linecap="round" stroke-linejoin="round"/>
<path d="M797.75 121.751H719.98V152.101H797.75V121.751Z" stroke="#5C5C5C" stroke-width="0.59" stroke-linecap="round" stroke-linejoin="round"/>
<path d="M975.84 81.5703H898.07V111.92H975.84V81.5703Z" stroke="#5C5C5C" stroke-width="0.59" stroke-linecap="round" stroke-linejoin="round"/>
<path d="M635.011 114.071V117.861H710.881V113.811" stroke="#C0C0BF" stroke-width="0.39" stroke-linecap="round" stroke-linejoin="round"/>
<path d="M711.841 121.87H634.071V152.22H711.841V121.87Z" fill="white"/>
<path d="M629.9 117.931V155.871H715.25V117.931H629.9Z" stroke="#5C5C5C" stroke-width="0.59" stroke-linecap="round" stroke-linejoin="round"/>
<path d="M711.841 121.73H634.071V152.081H711.841V121.73Z" stroke="#5C5C5C" stroke-width="0.59" stroke-linecap="round" stroke-linejoin="round"/>
<path d="M273.331 156.13V158.08H197.601V156.13" stroke="#C0C0BF" stroke-width="0.39" stroke-linecap="round" stroke-linejoin="round"/>
<path d="M266.71 114.471H204.23V118.261H266.71V114.471Z" stroke="#C0C0BF" stroke-width="0.39" stroke-linecap="round" stroke-linejoin="round"/>
<path d="M192.87 118.26V156.13H278.07V118.26H192.87Z" stroke="#5C5C5C" stroke-width="0.59" stroke-linecap="round" stroke-linejoin="round"/>
<path d="M274.28 122.05H196.65V152.34H274.28V122.05Z" stroke="#5C5C5C" stroke-width="0.59" stroke-linecap="round" stroke-linejoin="round"/>
<path d="M241.49 126H227.86C227.523 126 227.25 126.273 227.25 126.61V128.26C227.25 128.597 227.523 128.87 227.86 128.87H241.49C241.827 128.87 242.1 128.597 242.1 128.26V126.61C242.1 126.273 241.827 126 241.49 126Z" fill="#C0C0BF"/>
<path d="M277.94 195.83V158.08H192.99V195.83H199.6V164.68H271.33V195.83H277.94Z" stroke="#5C5C5C" stroke-width="0.59" stroke-linecap="round" stroke-linejoin="round"/>
<path d="M199.601 164.68V158.08" stroke="#5C5C5C" stroke-width="0.59" stroke-linecap="round" stroke-linejoin="round"/>
<path d="M271.33 164.68V158.08" stroke="#5C5C5C" stroke-width="0.59" stroke-linecap="round" stroke-linejoin="round"/>
<circle cx="199.6" cy="164.68" r="0.03" fill="#C0C0BF"/>
<circle cx="271.331" cy="164.68" r="0.03" fill="#C0C0BF"/>
<path d="M278.07 72.8203H196.65" stroke="#5C5C5C" stroke-width="0.59" stroke-linecap="round" stroke-linejoin="round"/>
<path d="M196.65 72.8203H192.87V69.0303H278.07V72.8203" stroke="#5C5C5C" stroke-width="0.59" stroke-linecap="round" stroke-linejoin="round"/>
<path d="M196.65 76.6103V72.8203" stroke="#5C5C5C" stroke-width="0.59" stroke-linecap="round" stroke-linejoin="round"/>
<circle cx="278.07" cy="69.03" r="0.03" fill="#C0C0BF"/>
<circle cx="278.07" cy="72.82" r="0.03" fill="#C0C0BF"/>
<circle cx="196.65" cy="72.82" r="0.03" fill="#C0C0BF"/>
<path d="M274.28 72.8203V76.6103" stroke="#5C5C5C" stroke-width="0.59" stroke-linecap="round" stroke-linejoin="round"/>
<path d="M274.28 80.3906H196.65V110.681H274.28V80.3906Z" fill="white" stroke="#5C5C5C" stroke-width="0.59" stroke-miterlimit="10"/>
<path d="M497.671 156.061V157.961H421.841V156.061" stroke="#C0C0BF" stroke-width="0.06" stroke-linecap="round" stroke-linejoin="round"/>
<path d="M421.851 156.15V157.96H497.671V156.15" stroke="#C0C0BF" stroke-width="0.39" stroke-linecap="round" stroke-linejoin="round"/>
<path d="M502.29 195.81V158.01H417.23V195.81H423.85V164.63H495.67V195.81H502.29Z" stroke="#5C5C5C" stroke-width="0.59" stroke-linecap="round" stroke-linejoin="round"/>
<path d="M423.851 164.63V158.01" stroke="#5C5C5C" stroke-width="0.59" stroke-linecap="round" stroke-linejoin="round"/>
<path d="M495.67 164.63V158.01" stroke="#5C5C5C" stroke-width="0.59" stroke-linecap="round" stroke-linejoin="round"/>
<circle cx="423.85" cy="164.631" r="0.03" fill="#C0C0BF"/>
<circle cx="495.671" cy="164.631" r="0.03" fill="#C0C0BF"/>
<path d="M502.41 114.36H420.9" stroke="#5C5C5C" stroke-width="0.59" stroke-linecap="round" stroke-linejoin="round"/>
<path d="M420.9 118.15V114.36" stroke="#C0C0BF" stroke-width="0.39" stroke-linecap="round" stroke-linejoin="round"/>
<path d="M420.9 114.36H417.11V110.57H502.41V114.36" stroke="#5C5C5C" stroke-width="0.59" stroke-linecap="round" stroke-linejoin="round"/>
<circle cx="502.411" cy="110.57" r="0.03" fill="#C0C0BF"/>
<circle cx="502.411" cy="114.36" r="0.03" fill="#C0C0BF"/>
<circle cx="420.9" cy="114.36" r="0.03" fill="#C0C0BF"/>
<circle cx="420.9" cy="117.77" r="0.03" fill="#C0C0BF"/>
<circle cx="420.9" cy="117.77" r="0.03" fill="#C0C0BF"/>
<path d="M417.11 118.15V156.06H502.41V118.15H417.11Z" stroke="#5C5C5C" stroke-width="0.59" stroke-linecap="round" stroke-linejoin="round"/>
<path d="M498.62 121.94H420.9V152.27H498.62V121.94Z" fill="white" stroke="#3C3C3B" stroke-width="0.59" stroke-miterlimit="10"/>
<path d="M192.87 76.6104V114.47H278.07V76.6104H192.87Z" stroke="#5C5C5C" stroke-width="0.59" stroke-linecap="round" stroke-linejoin="round"/>
<path d="M801.47 195.941V157.811H629.9V195.941H636.57" stroke="#5C5C5C" stroke-width="0.59" stroke-linecap="round" stroke-linejoin="round"/>
<path d="M636.571 195.94V164.49H794.801V195.94H801.471" stroke="#5C5C5C" stroke-width="0.59" stroke-linecap="round" stroke-linejoin="round"/>
<path d="M634.66 113.811H796.41" stroke="#5C5C5C" stroke-width="0.52" stroke-linecap="round" stroke-linejoin="round"/>
<path d="M634.66 113.81H629.9V110.01H801.16V113.81H796.41" stroke="#5C5C5C" stroke-width="0.52" stroke-linecap="round" stroke-linejoin="round"/>
<circle cx="634.66" cy="113.81" r="0.26" fill="#5C5C5C"/>
<path opacity="0.5" d="M789.79 104.74H641.28C640.06 104.74 639.07 105.73 639.07 106.95V107.3C639.07 108.521 640.06 109.51 641.28 109.51H789.79C791.011 109.51 792 108.521 792 107.3V106.95C792 105.73 791.011 104.74 789.79 104.74Z" stroke="#5C5C5C" stroke-width="0.52" stroke-linecap="round" stroke-linejoin="round"/>
<path d="M636.571 164.49V157.83" stroke="#5C5C5C" stroke-width="0.59" stroke-linecap="round" stroke-linejoin="round"/>
<path d="M794.801 164.49V157.83" stroke="#5C5C5C" stroke-width="0.59" stroke-linecap="round" stroke-linejoin="round"/>
<path opacity="0.5" d="M496.071 105.53H423.391C422.535 105.53 421.841 106.224 421.841 107.08V108.73C421.841 109.586 422.535 110.28 423.391 110.28H496.071C496.927 110.28 497.621 109.586 497.621 108.73V107.08C497.621 106.224 496.927 105.53 496.071 105.53Z" fill="#D7D7D7" stroke="#3D3F3F" stroke-width="0.58" stroke-miterlimit="10"/>
<path d="M241.49 126H227.86C227.523 126 227.25 126.273 227.25 126.61V128.26C227.25 128.597 227.523 128.87 227.86 128.87H241.49C241.827 128.87 242.1 128.597 242.1 128.26V126.61C242.1 126.273 241.827 126 241.49 126Z" fill="#C0C0BF" stroke="#5C5C5C" stroke-width="0.59" stroke-linecap="round" stroke-linejoin="round"/>
<path opacity="0.5" d="M1062.09 115.83H984.37V119.24H1062.09V115.83Z" fill="#D7D7D7"/>
<path d="M1030.06 127.511H1016.41C1016.07 127.511 1015.8 127.784 1015.8 128.121V129.771C1015.8 130.108 1016.07 130.381 1016.41 130.381H1030.06C1030.4 130.381 1030.67 130.108 1030.67 129.771V128.121C1030.67 127.784 1030.4 127.511 1030.06 127.511Z" fill="#C0C0BF"/>
<path d="M898.69 157.271V159.701H1060.75V157.271" stroke="#C0C0BF" stroke-width="0.39" stroke-linecap="round" stroke-linejoin="round"/>
<path opacity="0.5" d="M1061.34 157.44H899.17V159.65H1061.34V157.44Z" fill="#D7D7D7"/>
<path d="M1061.22 157.761H899.051V159.661H1061.22V157.761Z" stroke="#C0C0BF" stroke-width="0.28" stroke-linecap="round" stroke-linejoin="round"/>
<path opacity="0.5" d="M975.23 115.601H899.36V119.691H975.23V115.601Z" fill="#D7D7D7"/>
<path d="M899.36 115.88V119.67H975.23V115.62" stroke="#C0C0BF" stroke-width="0.39" stroke-linecap="round" stroke-linejoin="round"/>
<path d="M894.25 119.74V157.67H979.6V119.74H894.25Z" stroke="#5C5C5C" stroke-width="0.59" stroke-linecap="round" stroke-linejoin="round"/>
<path d="M976.18 123.53H898.41V153.88H976.18V123.53Z" stroke="#5C5C5C" stroke-width="0.59" stroke-linecap="round" stroke-linejoin="round"/>
<path d="M1065.82 197.811V159.681H894.25V197.811" stroke="#5C5C5C" stroke-width="0.59" stroke-linecap="round" stroke-linejoin="round"/>
<path d="M900.92 197.811V166.351H1059.15V197.811" stroke="#5C5C5C" stroke-width="0.59" stroke-linecap="round" stroke-linejoin="round"/>
<circle cx="899" cy="115.62" r="0.26" fill="#5C5C5C"/>
<path d="M900.92 166.35V159.7" stroke="#5C5C5C" stroke-width="0.59" stroke-linecap="round" stroke-linejoin="round"/>
<path d="M1059.15 166.35V159.7" stroke="#5C5C5C" stroke-width="0.59" stroke-linecap="round" stroke-linejoin="round"/>
<path d="M976.11 123.561H898.48V153.851H976.11V123.561Z" stroke="#5C5C5C" stroke-width="0.59" stroke-linecap="round" stroke-linejoin="round"/>
<path d="M943.74 127.511H930.11C929.773 127.511 929.5 127.784 929.5 128.121V129.771C929.5 130.108 929.773 130.381 930.11 130.381H943.74C944.077 130.381 944.35 130.108 944.35 129.771V128.121C944.35 127.784 944.077 127.511 943.74 127.511Z" fill="#C0C0BF"/>
<path d="M1030.05 127.511H1016.42C1016.08 127.511 1015.81 127.784 1015.81 128.121V129.771C1015.81 130.108 1016.08 130.381 1016.42 130.381H1030.05C1030.39 130.381 1030.66 130.108 1030.66 129.771V128.121C1030.66 127.784 1030.39 127.511 1030.05 127.511Z" fill="#C0C0BF"/>
<path d="M1062.1 115.83V119.62" stroke="#C0C0BF" stroke-width="0.39" stroke-linecap="round" stroke-linejoin="round"/>
<path d="M1065.89 115.83H984.37" stroke="#5C5C5C" stroke-width="0.59" stroke-linecap="round" stroke-linejoin="round"/>
<path d="M984.37 119.62V115.83" stroke="#C0C0BF" stroke-width="0.39" stroke-linecap="round" stroke-linejoin="round"/>
<path d="M984.37 115.83H980.58V112.04H1065.89V115.83" stroke="#5C5C5C" stroke-width="0.59" stroke-linecap="round" stroke-linejoin="round"/>
<circle cx="1065.89" cy="112.041" r="0.03" fill="#C0C0BF"/>
<circle cx="1065.89" cy="115.83" r="0.03" fill="#C0C0BF"/>
<circle cx="984.371" cy="115.83" r="0.03" fill="#C0C0BF"/>
<circle cx="984.371" cy="119.24" r="0.03" fill="#C0C0BF"/>
<circle cx="984.371" cy="119.24" r="0.03" fill="#C0C0BF"/>
<path d="M980.58 119.62V157.54H1065.89V119.62H980.58Z" stroke="#5C5C5C" stroke-width="0.59" stroke-linecap="round" stroke-linejoin="round"/>
<path d="M1062.09 123.42H984.37V153.75H1062.09V123.42Z" stroke="#3C3C3B" stroke-width="0.59" stroke-miterlimit="10"/>
<path opacity="0.5" d="M1059.55 107H986.87C986.014 107 985.32 107.694 985.32 108.55V110.2C985.32 111.056 986.014 111.75 986.87 111.75H1059.55C1060.41 111.75 1061.1 111.056 1061.1 110.2V108.55C1061.1 107.694 1060.41 107 1059.55 107Z" fill="#D7D7D7" stroke="#3D3F3F" stroke-width="0.58" stroke-miterlimit="10"/>
<path d="M943.75 127.511H930.1C929.763 127.511 929.49 127.784 929.49 128.121V129.771C929.49 130.108 929.763 130.381 930.1 130.381H943.75C944.087 130.381 944.36 130.108 944.36 129.771V128.121C944.36 127.784 944.087 127.511 943.75 127.511Z" fill="#C0C0BF" stroke="#5C5C5C" stroke-width="0.59" stroke-linecap="round" stroke-linejoin="round"/>
<path d="M1030.06 127.511H1016.41C1016.07 127.511 1015.8 127.784 1015.8 128.121V129.771C1015.8 130.108 1016.07 130.381 1016.41 130.381H1030.06C1030.4 130.381 1030.67 130.108 1030.67 129.771V128.121C1030.67 127.784 1030.4 127.511 1030.06 127.511Z" fill="#C0C0BF" stroke="#5C5C5C" stroke-width="0.59" stroke-linecap="round" stroke-linejoin="round"/>
<path d="M979.31 73.8301H897.79" stroke="#5C5C5C" stroke-width="0.59" stroke-linecap="round" stroke-linejoin="round"/>
<path d="M897.79 77.6201V73.8301" stroke="#C0C0BF" stroke-width="0.39" stroke-linecap="round" stroke-linejoin="round"/>
<path d="M897.79 73.83H894V70.04H979.31V73.83" stroke="#5C5C5C" stroke-width="0.59" stroke-linecap="round" stroke-linejoin="round"/>
<path opacity="0.5" d="M975.51 73.8301H897.79V77.2401H975.51V73.8301Z" fill="#D7D7D7"/>
<path d="M141 197.5H1355" stroke="#5C5C5C" stroke-width="0.7" stroke-linecap="round"/>
</svg> -->
<svg width="874" height="130" viewBox="0 0 874 130" fill="none" xmlns="http://www.w3.org/2000/svg">
<g opacity="0.5">
<path d="M74.1353 45.7354H11.6553V49.5254H74.1353V45.7354Z" fill="#D7D7D7"/>
</g>
<g opacity="0.5">
<path d="M80.7554 87.3945H5.02539V89.2845H80.7554V87.3945Z" fill="#D7D7D7"/>
</g>
<path d="M306.045 45.625V49.415" stroke="#C0C0BF" stroke-width="0.39" stroke-linecap="round" stroke-linejoin="round"/>
<path opacity="0.5" d="M604.426 86.8447H442.256V89.0547H604.426V86.8447Z" fill="#D7D7D7"/>
<path d="M604.306 87.1553H442.136V89.0552H604.306V87.1553Z" stroke="#C0C0BF" stroke-width="0.28" stroke-linecap="round" stroke-linejoin="round"/>
<path opacity="0.5" d="M604.226 45.0752H528.416V49.1652H604.226V45.0752Z" fill="#D7D7D7"/>
<path opacity="0.5" d="M518.306 45.0557H442.436V49.1457H518.306V45.0557Z" fill="#D7D7D7"/>
<path d="M528.346 45.0752V49.1552H604.216V45.3552" stroke="#C0C0BF" stroke-width="0.39" stroke-linecap="round" stroke-linejoin="round"/>
<path d="M523.235 49.2256V87.1556H608.585V49.2256H523.235Z" stroke="#5C5C5C" stroke-width="0.59" stroke-linecap="round" stroke-linejoin="round"/>
<path d="M701.325 9.04492V46.9749H786.675V9.04492H701.325Z" stroke="#5C5C5C" stroke-width="0.59" stroke-linecap="round" stroke-linejoin="round"/>
<path d="M605.175 53.0156H527.405V83.3656H605.175V53.0156Z" stroke="#5C5C5C" stroke-width="0.59" stroke-linecap="round" stroke-linejoin="round"/>
<path d="M783.265 12.835H705.495V43.1849H783.265V12.835Z" stroke="#5C5C5C" stroke-width="0.59" stroke-linecap="round" stroke-linejoin="round"/>
<path d="M442.436 45.3352V49.1252H518.306V45.0752" stroke="#C0C0BF" stroke-width="0.39" stroke-linecap="round" stroke-linejoin="round"/>
<path d="M437.325 49.1953V87.1353H522.675V49.1953H437.325Z" stroke="#5C5C5C" stroke-width="0.59" stroke-linecap="round" stroke-linejoin="round"/>
<path d="M519.266 52.9951H441.496V83.3452H519.266V52.9951Z" stroke="#5C5C5C" stroke-width="0.59" stroke-linecap="round" stroke-linejoin="round"/>
<path d="M519.266 52.9951H441.496V83.3452H519.266V52.9951Z" stroke="#5C5C5C" stroke-width="0.59" stroke-linecap="round" stroke-linejoin="round"/>
<path d="M80.7554 87.3945V89.3445H5.02539V87.3945" stroke="#C0C0BF" stroke-width="0.39" stroke-linecap="round" stroke-linejoin="round"/>
<path d="M74.1353 45.7354H11.6553V49.5254H74.1353V45.7354Z" stroke="#C0C0BF" stroke-width="0.39" stroke-linecap="round" stroke-linejoin="round"/>
<path d="M0.294922 49.5244V87.3944H85.4949V49.5244H0.294922Z" stroke="#5C5C5C" stroke-width="0.59" stroke-linecap="round" stroke-linejoin="round"/>
<path d="M81.7052 53.3145H4.0752V83.6045H81.7052V53.3145Z" stroke="#5C5C5C" stroke-width="0.59" stroke-linecap="round" stroke-linejoin="round"/>
<path d="M48.9148 57.2646H35.2848C34.9479 57.2646 34.6748 57.5378 34.6748 57.8746V59.5247C34.6748 59.8615 34.9479 60.1347 35.2848 60.1347H48.9148C49.2517 60.1347 49.5248 59.8615 49.5248 59.5247V57.8746C49.5248 57.5378 49.2517 57.2646 48.9148 57.2646Z" fill="#C0C0BF"/>
<path d="M85.365 127.095V89.3447H0.415039V127.095H7.02504V95.9447H78.755V127.095H85.365Z" stroke="#5C5C5C" stroke-width="0.59" stroke-linecap="round" stroke-linejoin="round"/>
<path d="M7.02539 95.9447V89.3447" stroke="#5C5C5C" stroke-width="0.59" stroke-linecap="round" stroke-linejoin="round"/>
<path d="M78.7549 95.9447V89.3447" stroke="#5C5C5C" stroke-width="0.59" stroke-linecap="round" stroke-linejoin="round"/>
<circle cx="7.02512" cy="95.945" r="0.03" fill="#C0C0BF"/>
<circle cx="78.7556" cy="95.945" r="0.03" fill="#C0C0BF"/>
<path d="M85.4952 4.08496H4.0752" stroke="#5C5C5C" stroke-width="0.59" stroke-linecap="round" stroke-linejoin="round"/>
<path d="M4.07492 4.08492H0.294922V0.294922H85.4949V4.08492" stroke="#5C5C5C" stroke-width="0.59" stroke-linecap="round" stroke-linejoin="round"/>
<path d="M4.0752 7.87496V4.08496" stroke="#5C5C5C" stroke-width="0.59" stroke-linecap="round" stroke-linejoin="round"/>
<circle cx="85.4948" cy="0.294648" r="0.03" fill="#C0C0BF"/>
<circle cx="85.4948" cy="4.08469" r="0.03" fill="#C0C0BF"/>
<circle cx="4.07492" cy="4.08469" r="0.03" fill="#C0C0BF"/>
<path d="M81.7051 4.08496V7.87496" stroke="#5C5C5C" stroke-width="0.59" stroke-linecap="round" stroke-linejoin="round"/>
<path d="M305.096 87.3252V89.2252H229.266V87.3252" stroke="#C0C0BF" stroke-width="0.06" stroke-linecap="round" stroke-linejoin="round"/>
<path d="M229.275 87.415V89.225H305.095V87.415" stroke="#C0C0BF" stroke-width="0.39" stroke-linecap="round" stroke-linejoin="round"/>
<path d="M309.715 127.074V89.2744H224.655V127.074H231.275V95.8944H303.095V127.074H309.715Z" stroke="#5C5C5C" stroke-width="0.59" stroke-linecap="round" stroke-linejoin="round"/>
<path d="M231.275 95.8944V89.2744" stroke="#5C5C5C" stroke-width="0.59" stroke-linecap="round" stroke-linejoin="round"/>
<path d="M303.095 95.8944V89.2744" stroke="#5C5C5C" stroke-width="0.59" stroke-linecap="round" stroke-linejoin="round"/>
<circle cx="231.275" cy="95.8952" r="0.03" fill="#C0C0BF"/>
<circle cx="303.095" cy="95.8952" r="0.03" fill="#C0C0BF"/>
<path d="M309.835 45.625H228.325" stroke="#5C5C5C" stroke-width="0.59" stroke-linecap="round" stroke-linejoin="round"/>
<path d="M228.325 49.415V45.625" stroke="#C0C0BF" stroke-width="0.39" stroke-linecap="round" stroke-linejoin="round"/>
<path d="M228.325 45.625H224.535V41.835H309.835V45.625" stroke="#5C5C5C" stroke-width="0.59" stroke-linecap="round" stroke-linejoin="round"/>
<circle cx="309.836" cy="41.8347" r="0.03" fill="#C0C0BF"/>
<circle cx="309.836" cy="45.6247" r="0.03" fill="#C0C0BF"/>
<circle cx="228.325" cy="45.6247" r="0.03" fill="#C0C0BF"/>
<circle cx="228.325" cy="49.0349" r="0.03" fill="#C0C0BF"/>
<circle cx="228.325" cy="49.0349" r="0.03" fill="#C0C0BF"/>
<path d="M224.535 49.415V87.325H309.835V49.415H224.535Z" stroke="#5C5C5C" stroke-width="0.59" stroke-linecap="round" stroke-linejoin="round"/>
<path d="M0.294922 7.875V45.735H85.4949V7.875H0.294922Z" stroke="#5C5C5C" stroke-width="0.59" stroke-linecap="round" stroke-linejoin="round"/>
<path d="M608.895 127.205V89.0752H437.325V127.205H443.995" stroke="#5C5C5C" stroke-width="0.59" stroke-linecap="round" stroke-linejoin="round"/>
<path d="M443.996 127.205V95.7549H602.226V127.205H608.896" stroke="#5C5C5C" stroke-width="0.59" stroke-linecap="round" stroke-linejoin="round"/>
<path d="M442.085 45.0752H603.835" stroke="#5C5C5C" stroke-width="0.52" stroke-linecap="round" stroke-linejoin="round"/>
<path d="M442.085 45.0744H437.325V41.2744H608.585V45.0744H603.835" stroke="#5C5C5C" stroke-width="0.52" stroke-linecap="round" stroke-linejoin="round"/>
<circle cx="442.085" cy="45.0745" r="0.26" fill="#5C5C5C"/>
<path opacity="0.5" d="M597.215 36.0049H448.705C447.485 36.0049 446.495 36.9944 446.495 38.2149V38.5649C446.495 39.7854 447.485 40.7749 448.705 40.7749H597.215C598.436 40.7749 599.425 39.7854 599.425 38.5649V38.2149C599.425 36.9944 598.436 36.0049 597.215 36.0049Z" stroke="#5C5C5C" stroke-width="0.52" stroke-linecap="round" stroke-linejoin="round"/>
<path d="M443.996 95.7547V89.0947" stroke="#5C5C5C" stroke-width="0.59" stroke-linecap="round" stroke-linejoin="round"/>
<path d="M602.226 95.7547V89.0947" stroke="#5C5C5C" stroke-width="0.59" stroke-linecap="round" stroke-linejoin="round"/>
<path opacity="0.5" d="M303.496 36.7949H230.816C229.96 36.7949 229.266 37.4889 229.266 38.3449V39.9949C229.266 40.851 229.96 41.5449 230.816 41.5449H303.496C304.352 41.5449 305.046 40.851 305.046 39.9949V38.3449C305.046 37.4889 304.352 36.7949 303.496 36.7949Z" fill="#D7D7D7" stroke="#3D3F3F" stroke-width="0.58" stroke-miterlimit="10"/>
<path d="M48.9148 57.2646H35.2848C34.9479 57.2646 34.6748 57.5378 34.6748 57.8746V59.5247C34.6748 59.8615 34.9479 60.1347 35.2848 60.1347H48.9148C49.2517 60.1347 49.5248 59.8615 49.5248 59.5247V57.8746C49.5248 57.5378 49.2517 57.2646 48.9148 57.2646Z" fill="#C0C0BF" stroke="#5C5C5C" stroke-width="0.59" stroke-linecap="round" stroke-linejoin="round"/>
<path opacity="0.5" d="M869.515 47.0947H791.795V50.5047H869.515V47.0947Z" fill="#D7D7D7"/>
<path d="M837.486 58.7754H823.836C823.499 58.7754 823.226 59.0485 823.226 59.3854V61.0354C823.226 61.3723 823.499 61.6454 823.836 61.6454H837.486C837.822 61.6454 838.096 61.3723 838.096 61.0354V59.3854C838.096 59.0485 837.822 58.7754 837.486 58.7754Z" fill="#C0C0BF"/>
<path d="M706.115 88.5352V90.9652H868.175V88.5352" stroke="#C0C0BF" stroke-width="0.39" stroke-linecap="round" stroke-linejoin="round"/>
<path opacity="0.5" d="M868.765 88.7051H706.595V90.9151H868.765V88.7051Z" fill="#D7D7D7"/>
<path d="M868.646 89.0254H706.476V90.9254H868.646V89.0254Z" stroke="#C0C0BF" stroke-width="0.28" stroke-linecap="round" stroke-linejoin="round"/>
<path opacity="0.5" d="M782.655 46.8652H706.785V50.9552H782.655V46.8652Z" fill="#D7D7D7"/>
<path d="M706.785 47.1448V50.9348H782.655V46.8848" stroke="#C0C0BF" stroke-width="0.39" stroke-linecap="round" stroke-linejoin="round"/>
<path d="M701.675 51.0049V88.9349H787.025V51.0049H701.675Z" stroke="#5C5C5C" stroke-width="0.59" stroke-linecap="round" stroke-linejoin="round"/>
<path d="M783.605 54.7949H705.835V85.1449H783.605V54.7949Z" stroke="#5C5C5C" stroke-width="0.59" stroke-linecap="round" stroke-linejoin="round"/>
<path d="M873.245 129.075V90.9453H701.675V129.075" stroke="#5C5C5C" stroke-width="0.59" stroke-linecap="round" stroke-linejoin="round"/>
<path d="M708.345 129.075V97.6152H866.575V129.075" stroke="#5C5C5C" stroke-width="0.59" stroke-linecap="round" stroke-linejoin="round"/>
<circle cx="706.425" cy="46.885" r="0.26" fill="#5C5C5C"/>
<path d="M708.345 97.6148V90.9648" stroke="#5C5C5C" stroke-width="0.59" stroke-linecap="round" stroke-linejoin="round"/>
<path d="M866.575 97.6148V90.9648" stroke="#5C5C5C" stroke-width="0.59" stroke-linecap="round" stroke-linejoin="round"/>
<path d="M783.535 54.8252H705.905V85.1152H783.535V54.8252Z" stroke="#5C5C5C" stroke-width="0.59" stroke-linecap="round" stroke-linejoin="round"/>
<path d="M751.165 58.7754H737.535C737.198 58.7754 736.925 59.0485 736.925 59.3854V61.0354C736.925 61.3723 737.198 61.6454 737.535 61.6454H751.165C751.502 61.6454 751.775 61.3723 751.775 61.0354V59.3854C751.775 59.0485 751.502 58.7754 751.165 58.7754Z" fill="#C0C0BF"/>
<path d="M837.475 58.7754H823.845C823.508 58.7754 823.235 59.0485 823.235 59.3854V61.0354C823.235 61.3723 823.508 61.6454 823.845 61.6454H837.475C837.812 61.6454 838.085 61.3723 838.085 61.0354V59.3854C838.085 59.0485 837.812 58.7754 837.475 58.7754Z" fill="#C0C0BF"/>
<path d="M869.525 47.0947V50.8847" stroke="#C0C0BF" stroke-width="0.39" stroke-linecap="round" stroke-linejoin="round"/>
<path d="M873.315 47.0947H791.795" stroke="#5C5C5C" stroke-width="0.59" stroke-linecap="round" stroke-linejoin="round"/>
<path d="M791.795 50.8847V47.0947" stroke="#C0C0BF" stroke-width="0.39" stroke-linecap="round" stroke-linejoin="round"/>
<path d="M791.795 47.0947H788.005V43.3047H873.315V47.0947" stroke="#5C5C5C" stroke-width="0.59" stroke-linecap="round" stroke-linejoin="round"/>
<circle cx="873.315" cy="43.3054" r="0.03" fill="#C0C0BF"/>
<circle cx="873.315" cy="47.0945" r="0.03" fill="#C0C0BF"/>
<circle cx="791.796" cy="47.0945" r="0.03" fill="#C0C0BF"/>
<circle cx="791.796" cy="50.5046" r="0.03" fill="#C0C0BF"/>
<circle cx="791.796" cy="50.5046" r="0.03" fill="#C0C0BF"/>
<path d="M788.005 50.8848V88.8048H873.315V50.8848H788.005Z" stroke="#5C5C5C" stroke-width="0.59" stroke-linecap="round" stroke-linejoin="round"/>
<path d="M869.515 54.6846H791.795V85.0146H869.515V54.6846Z" stroke="#3C3C3B" stroke-width="0.59" stroke-miterlimit="10"/>
<path opacity="0.5" d="M866.975 38.2646H794.295C793.439 38.2646 792.745 38.9586 792.745 39.8146V41.4646C792.745 42.3207 793.439 43.0146 794.295 43.0146H866.975C867.831 43.0146 868.525 42.3207 868.525 41.4646V39.8146C868.525 38.9586 867.831 38.2646 866.975 38.2646Z" fill="#D7D7D7" stroke="#3D3F3F" stroke-width="0.58" stroke-miterlimit="10"/>
<path d="M751.175 58.7754H737.525C737.188 58.7754 736.915 59.0485 736.915 59.3854V61.0354C736.915 61.3723 737.188 61.6454 737.525 61.6454H751.175C751.512 61.6454 751.785 61.3723 751.785 61.0354V59.3854C751.785 59.0485 751.512 58.7754 751.175 58.7754Z" fill="#C0C0BF" stroke="#5C5C5C" stroke-width="0.59" stroke-linecap="round" stroke-linejoin="round"/>
<path d="M837.486 58.7754H823.836C823.499 58.7754 823.226 59.0485 823.226 59.3854V61.0354C823.226 61.3723 823.499 61.6454 823.836 61.6454H837.486C837.822 61.6454 838.096 61.3723 838.096 61.0354V59.3854C838.096 59.0485 837.822 58.7754 837.486 58.7754Z" fill="#C0C0BF" stroke="#5C5C5C" stroke-width="0.59" stroke-linecap="round" stroke-linejoin="round"/>
<path d="M786.735 5.09473H705.215" stroke="#5C5C5C" stroke-width="0.59" stroke-linecap="round" stroke-linejoin="round"/>
<path d="M705.215 8.88473V5.09473" stroke="#C0C0BF" stroke-width="0.39" stroke-linecap="round" stroke-linejoin="round"/>
<path d="M705.215 5.09469H701.425V1.30469H786.735V5.09469" stroke="#5C5C5C" stroke-width="0.59" stroke-linecap="round" stroke-linejoin="round"/>
<path opacity="0.5" d="M782.935 5.09473H705.215V8.50473H782.935V5.09473Z" fill="#D7D7D7"/>
<path d="M306.425 52.2646H227.425V82.6147H306.425V52.2646Z" stroke="#5C5C5C" stroke-width="0.59" stroke-linecap="round" stroke-linejoin="round"/>
<path d="M82.4248 11.2646H3.4248V41.6147H82.4248V11.2646Z" stroke="#5C5C5C" stroke-width="0.59" stroke-linecap="round" stroke-linejoin="round"/>
</svg>
