<svg width="1099" height="411" viewBox="0 0 1099 411" fill="none" xmlns="http://www.w3.org/2000/svg">
<path d="M196.523 367.5V365.4" stroke="#C0C0BF" stroke-width="0.4324" stroke-miterlimit="10" stroke-linecap="round" stroke-linejoin="round"/>
<circle cx="191.224" cy="369.699" r="0.09775" fill="#848484"/>
<path opacity="0.5" d="M185.823 365.199H4.52344V367.699H185.823V365.199Z" fill="#D7D7D7"/>
<path d="M4.52344 365V367.7H185.723V365" stroke="#C0C0BF" stroke-width="0.4342" stroke-miterlimit="10" stroke-linecap="round" stroke-linejoin="round"/>
<path d="M190.424 409.999V367.699H0.324219V409.999H7.72422V375.099H183.124V409.999H190.424Z" stroke="#5C5C5C" stroke-width="0.6485" stroke-miterlimit="10" stroke-linecap="round" stroke-linejoin="round"/>
<path d="M7.72363 375.099V367.699" stroke="#5C5C5C" stroke-width="0.6485" stroke-miterlimit="10" stroke-linecap="round" stroke-linejoin="round"/>
<path d="M183.124 375.099V367.699" stroke="#5C5C5C" stroke-width="0.6485" stroke-miterlimit="10" stroke-linecap="round" stroke-linejoin="round"/>
<path d="M16.6246 361.201H9.22461" stroke="#5C5C5C" stroke-width="0.6485" stroke-miterlimit="10" stroke-linecap="round" stroke-linejoin="round"/>
<path d="M9.22461 361.201V90.8008H16.6246V361.201" stroke="#5C5C5C" stroke-width="0.6485" stroke-miterlimit="10" stroke-linecap="round" stroke-linejoin="round"/>
<path d="M184.524 361.201V90.8008H177.124V361.201" stroke="#5C5C5C" stroke-width="0.6485" stroke-miterlimit="10" stroke-linecap="round" stroke-linejoin="round"/>
<path d="M16.624 295.9H177.124V298.4H16.624V295.9Z" stroke="#5C5C5C" stroke-width="0.6485" stroke-miterlimit="10" stroke-linecap="round" stroke-linejoin="round"/>
<path d="M0.324219 361.201H190.424V365.001H0.324219V361.201Z" stroke="#5C5C5C" stroke-width="0.6485" stroke-miterlimit="10" stroke-linecap="round" stroke-linejoin="round"/>
<path d="M16.624 230.602H177.124V233.202H16.624V230.602Z" stroke="#5C5C5C" stroke-width="0.6485" stroke-miterlimit="10" stroke-linecap="round" stroke-linejoin="round"/>
<path d="M177.124 233.201H16.624" stroke="#5C5C5C" stroke-width="0.6485" stroke-miterlimit="10" stroke-linecap="round" stroke-linejoin="round"/>
<path d="M177.124 302.701H16.624" stroke="#5C5C5C" stroke-width="0.6485" stroke-miterlimit="10" stroke-linecap="round" stroke-linejoin="round"/>
<path d="M177.124 237.4H16.624" stroke="#5C5C5C" stroke-width="0.6485" stroke-miterlimit="10" stroke-linecap="round" stroke-linejoin="round"/>
<path d="M16.624 165.301H177.124V167.901H16.624V165.301Z" stroke="#5C5C5C" stroke-width="0.6485" stroke-miterlimit="10" stroke-linecap="round" stroke-linejoin="round"/>
<path d="M177.124 167.9H16.624" stroke="#5C5C5C" stroke-width="0.6485" stroke-miterlimit="10" stroke-linecap="round" stroke-linejoin="round"/>
<path d="M177.124 172.102H16.624" stroke="#5C5C5C" stroke-width="0.6485" stroke-miterlimit="10" stroke-linecap="round" stroke-linejoin="round"/>
<path d="M16.624 100.102H177.124V102.602H16.624V100.102Z" stroke="#5C5C5C" stroke-width="0.6485" stroke-miterlimit="10" stroke-linecap="round" stroke-linejoin="round"/>
<path d="M177.124 106.801H16.624" stroke="#5C5C5C" stroke-width="0.6485" stroke-miterlimit="10" stroke-linecap="round" stroke-linejoin="round"/>
<path opacity="0.5" d="M505.624 317.699H421.724V321.399H505.624V317.699Z" fill="#D7D7D7"/>
<path opacity="0.5" d="M505.724 317.5H421.724V321.2H505.724V317.5Z" stroke="#D7D7D7" stroke-width="0.0647386" stroke-miterlimit="10"/>
<path d="M421.624 317.199V321.399H505.724V317.199" stroke="#C0C0BF" stroke-width="0.4324" stroke-miterlimit="10" stroke-linecap="round" stroke-linejoin="round"/>
<path opacity="0.5" d="M412.724 317.6H325.424V321.5H412.724V317.6Z" fill="#D7D7D7"/>
<path d="M412.724 317.199V321.499" stroke="#C0C0BF" stroke-width="0.4324" stroke-miterlimit="10" stroke-linecap="round" stroke-linejoin="round"/>
<path d="M325.424 317.4V321.7" stroke="#C0C0BF" stroke-width="0.4324" stroke-miterlimit="10" stroke-linecap="round" stroke-linejoin="round"/>
<path opacity="0.5" d="M506.524 364.199H325.224V366.699H506.524V364.199Z" fill="#D7D7D7"/>
<path d="M325.224 364V366.7H506.424V364" stroke="#C0C0BF" stroke-width="0.4342" stroke-miterlimit="10" stroke-linecap="round" stroke-linejoin="round"/>
<path d="M511.123 409.001V366.801H321.023V409.001H328.423V374.201H503.723V409.001H511.123Z" stroke="#5C5C5C" stroke-width="0.6485" stroke-miterlimit="10" stroke-linecap="round" stroke-linejoin="round"/>
<path d="M328.424 374.201V366.801" stroke="#5C5C5C" stroke-width="0.6485" stroke-miterlimit="10" stroke-linecap="round" stroke-linejoin="round"/>
<path d="M503.724 374.201V366.801" stroke="#5C5C5C" stroke-width="0.6485" stroke-miterlimit="10" stroke-linecap="round" stroke-linejoin="round"/>
<path d="M447.224 333.1H383.824V330.1H447.224V333.1Z" stroke="#5C5C5C" stroke-width="0.6485" stroke-miterlimit="10" stroke-linecap="round" stroke-linejoin="round"/>
<path d="M325.224 325.9V359.7H326.324" stroke="#5C5C5C" stroke-width="0.6485" stroke-miterlimit="10" stroke-linecap="round" stroke-linejoin="round"/>
<path d="M321.023 321.6H511.123V363.9" stroke="#5C5C5C" stroke-width="0.6485" stroke-miterlimit="10" stroke-linecap="round" stroke-linejoin="round"/>
<path d="M325.224 325.801H506.424V359.701" stroke="#5C5C5C" stroke-width="0.6485" stroke-miterlimit="10" stroke-linecap="round" stroke-linejoin="round"/>
<path d="M326.324 363.9H511.124" stroke="#5C5C5C" stroke-width="0.6485" stroke-miterlimit="10" stroke-linecap="round" stroke-linejoin="round"/>
<path d="M326.324 359.699H505.824" stroke="#5C5C5C" stroke-width="0.6485" stroke-miterlimit="10" stroke-linecap="round" stroke-linejoin="round"/>
<path d="M321.023 321.6V363.9H326.323" stroke="#5C5C5C" stroke-width="0.6485" stroke-miterlimit="10" stroke-linecap="round" stroke-linejoin="round"/>
<path d="M336.723 313.4H329.323" stroke="#5C5C5C" stroke-width="0.6485" stroke-miterlimit="10" stroke-linecap="round" stroke-linejoin="round"/>
<path d="M329.323 313.4V42.9004H336.723V313.4" stroke="#5C5C5C" stroke-width="0.6485" stroke-miterlimit="10" stroke-linecap="round" stroke-linejoin="round"/>
<path d="M504.723 313.4V42.9004H497.323V313.4" stroke="#5C5C5C" stroke-width="0.6485" stroke-miterlimit="10" stroke-linecap="round" stroke-linejoin="round"/>
<path d="M336.724 248.1H497.324V250.6H336.724V248.1Z" stroke="#5C5C5C" stroke-width="0.6485" stroke-miterlimit="10" stroke-linecap="round" stroke-linejoin="round"/>
<path d="M320.523 313.4H510.623V317.2H320.523V313.4Z" stroke="#5C5C5C" stroke-width="0.6485" stroke-miterlimit="10" stroke-linecap="round" stroke-linejoin="round"/>
<path d="M336.724 182.801H497.324V185.301H336.724V182.801Z" stroke="#5C5C5C" stroke-width="0.6485" stroke-miterlimit="10" stroke-linecap="round" stroke-linejoin="round"/>
<path d="M497.324 185.301H336.724" stroke="#5C5C5C" stroke-width="0.6485" stroke-miterlimit="10" stroke-linecap="round" stroke-linejoin="round"/>
<path d="M497.324 254.801H336.724" stroke="#5C5C5C" stroke-width="0.6485" stroke-miterlimit="10" stroke-linecap="round" stroke-linejoin="round"/>
<path d="M497.324 189.6H336.724" stroke="#5C5C5C" stroke-width="0.6485" stroke-miterlimit="10" stroke-linecap="round" stroke-linejoin="round"/>
<path d="M336.724 117.5H497.324V120.1H336.724V117.5Z" stroke="#5C5C5C" stroke-width="0.6485" stroke-miterlimit="10" stroke-linecap="round" stroke-linejoin="round"/>
<path d="M497.324 120.1H336.724" stroke="#5C5C5C" stroke-width="0.6485" stroke-miterlimit="10" stroke-linecap="round" stroke-linejoin="round"/>
<path d="M497.324 124.301H336.724" stroke="#5C5C5C" stroke-width="0.6485" stroke-miterlimit="10" stroke-linecap="round" stroke-linejoin="round"/>
<path d="M336.724 52.2012H497.324V54.8012H336.724V52.2012Z" stroke="#5C5C5C" stroke-width="0.6485" stroke-miterlimit="10" stroke-linecap="round" stroke-linejoin="round"/>
<path d="M497.324 59H336.724" stroke="#5C5C5C" stroke-width="0.6485" stroke-miterlimit="10" stroke-linecap="round" stroke-linejoin="round"/>
<path opacity="0.5" d="M802.624 297.801H718.724V301.501H802.624V297.801Z" fill="#D7D7D7"/>
<path opacity="0.5" d="M802.724 297.6H718.724V301.3H802.724V297.6Z" stroke="#D7D7D7" stroke-width="0.0647386" stroke-miterlimit="10"/>
<path d="M718.724 297.301V301.501H802.724V297.301" stroke="#C0C0BF" stroke-width="0.4324" stroke-miterlimit="10" stroke-linecap="round" stroke-linejoin="round"/>
<path opacity="0.5" d="M709.823 297.801H622.523V301.701H709.823V297.801Z" fill="#D7D7D7"/>
<path d="M709.824 297.301V301.601" stroke="#C0C0BF" stroke-width="0.4324" stroke-miterlimit="10" stroke-linecap="round" stroke-linejoin="round"/>
<path d="M622.523 297.5V301.8" stroke="#C0C0BF" stroke-width="0.4324" stroke-miterlimit="10" stroke-linecap="round" stroke-linejoin="round"/>
<path d="M633.824 293.5H626.424" stroke="#5C5C5C" stroke-width="0.6485" stroke-miterlimit="10" stroke-linecap="round" stroke-linejoin="round"/>
<path d="M626.424 293.5V23H633.824V293.5" stroke="#5C5C5C" stroke-width="0.6485" stroke-miterlimit="10" stroke-linecap="round" stroke-linejoin="round"/>
<path d="M801.824 293.5V23H794.424V293.5" stroke="#5C5C5C" stroke-width="0.6485" stroke-miterlimit="10" stroke-linecap="round" stroke-linejoin="round"/>
<path d="M633.823 228.199H794.423V230.699H633.823V228.199Z" stroke="#5C5C5C" stroke-width="0.6485" stroke-miterlimit="10" stroke-linecap="round" stroke-linejoin="round"/>
<path d="M617.523 293.5H807.723V297.3H617.523V293.5Z" stroke="#5C5C5C" stroke-width="0.6485" stroke-miterlimit="10" stroke-linecap="round" stroke-linejoin="round"/>
<path d="M633.823 162.9H794.423V165.4H633.823V162.9Z" stroke="#5C5C5C" stroke-width="0.6485" stroke-miterlimit="10" stroke-linecap="round" stroke-linejoin="round"/>
<path d="M794.423 165.4H633.823" stroke="#5C5C5C" stroke-width="0.6485" stroke-miterlimit="10" stroke-linecap="round" stroke-linejoin="round"/>
<path d="M794.423 235H633.823" stroke="#5C5C5C" stroke-width="0.6485" stroke-miterlimit="10" stroke-linecap="round" stroke-linejoin="round"/>
<path d="M794.423 169.699H633.823" stroke="#5C5C5C" stroke-width="0.6485" stroke-miterlimit="10" stroke-linecap="round" stroke-linejoin="round"/>
<path d="M633.823 97.5996H794.423V100.2H633.823V97.5996Z" stroke="#5C5C5C" stroke-width="0.6485" stroke-miterlimit="10" stroke-linecap="round" stroke-linejoin="round"/>
<path d="M794.423 100.199H633.823" stroke="#5C5C5C" stroke-width="0.6485" stroke-miterlimit="10" stroke-linecap="round" stroke-linejoin="round"/>
<path d="M794.423 104.4H633.823" stroke="#5C5C5C" stroke-width="0.6485" stroke-miterlimit="10" stroke-linecap="round" stroke-linejoin="round"/>
<path d="M633.823 32.3008H794.423V34.9008H633.823V32.3008Z" stroke="#5C5C5C" stroke-width="0.6485" stroke-miterlimit="10" stroke-linecap="round" stroke-linejoin="round"/>
<path d="M794.423 39.0996H633.823" stroke="#5C5C5C" stroke-width="0.6485" stroke-miterlimit="10" stroke-linecap="round" stroke-linejoin="round"/>
<path opacity="0.5" d="M802.723 365.199H623.023V367.699H802.723V365.199Z" fill="#D7D7D7"/>
<path d="M802.624 365.6H622.924V367.7H802.624V365.6Z" stroke="#C0C0BF" stroke-width="0.3057" stroke-miterlimit="10" stroke-linecap="round" stroke-linejoin="round"/>
<path d="M807.723 409.999V367.699H617.523V409.999H624.923" stroke="#5C5C5C" stroke-width="0.6485" stroke-miterlimit="10" stroke-linecap="round" stroke-linejoin="round"/>
<path d="M624.924 410V375.1H800.324V410H807.724" stroke="#5C5C5C" stroke-width="0.6485" stroke-miterlimit="10" stroke-linecap="round" stroke-linejoin="round"/>
<path d="M624.924 375.099V367.699" stroke="#5C5C5C" stroke-width="0.6485" stroke-miterlimit="10" stroke-linecap="round" stroke-linejoin="round"/>
<path d="M800.324 375.099V367.699" stroke="#5C5C5C" stroke-width="0.6485" stroke-miterlimit="10" stroke-linecap="round" stroke-linejoin="round"/>
<path d="M709.324 325.301V341.801H706.224V325.301H709.324Z" fill="#C0C0BF" stroke="#5C5C5C" stroke-width="0.6485" stroke-miterlimit="10" stroke-linecap="round" stroke-linejoin="round"/>
<path d="M720.224 325.301V341.801H717.224V325.301H720.224Z" fill="#C0C0BF" stroke="#5C5C5C" stroke-width="0.6485" stroke-miterlimit="10" stroke-linecap="round" stroke-linejoin="round"/>
<path d="M713.124 305.699V361.399" stroke="#5C5C5C" stroke-width="0.6485" stroke-miterlimit="10" stroke-linecap="round" stroke-linejoin="round"/>
<path d="M803.924 305.699H621.324V361.399H803.924V305.699Z" stroke="#5C5C5C" stroke-width="0.6485" stroke-miterlimit="10" stroke-linecap="round" stroke-linejoin="round"/>
<path d="M617.523 365.2V301.9H807.723V365.2H617.523Z" stroke="#5C5C5C" stroke-width="0.6485" stroke-miterlimit="10" stroke-linecap="round" stroke-linejoin="round"/>
<path opacity="0.5" d="M1093.02 278.1H1009.12V274.4L1093.02 274.6V278.1Z" fill="#D7D7D7"/>
<path opacity="0.5" d="M1000.12 274.6H912.824V277.9H1000.12V274.6Z" fill="#D7D7D7"/>
<path d="M1093.12 277.8V274.6" stroke="#C0C0BF" stroke-width="0.4324" stroke-miterlimit="10" stroke-linecap="round" stroke-linejoin="round"/>
<path d="M1009.02 274.6V277.8" stroke="#C0C0BF" stroke-width="0.4324" stroke-miterlimit="10" stroke-linecap="round" stroke-linejoin="round"/>
<path d="M1000.12 274.6V277.9" stroke="#C0C0BF" stroke-width="0.4324" stroke-miterlimit="10" stroke-linecap="round" stroke-linejoin="round"/>
<path d="M912.824 274.6V278.1" stroke="#C0C0BF" stroke-width="0.4324" stroke-miterlimit="10" stroke-linecap="round" stroke-linejoin="round"/>
<path d="M912.924 320.699V323.399H1092.52V320.699" stroke="#C0C0BF" stroke-width="0.4324" stroke-miterlimit="10" stroke-linecap="round" stroke-linejoin="round"/>
<path opacity="0.5" d="M1092.52 320.301H912.924V323.101H1092.52V320.301Z" fill="#D7D7D7"/>
<path d="M1098.12 410V323.4H908.023V410H915.323V375.1H1090.72V410H1098.12Z" stroke="#5C5C5C" stroke-width="0.6485" stroke-miterlimit="10" stroke-linecap="round" stroke-linejoin="round"/>
<path d="M915.324 375.099V367.699H1090.72V375.099" stroke="#5C5C5C" stroke-width="0.6517" stroke-miterlimit="10" stroke-linecap="round" stroke-linejoin="round"/>
<path d="M1090.72 323.801H915.224V331.201H1090.72V323.801Z" stroke="#5C5C5C" stroke-width="0.6485" stroke-miterlimit="10" stroke-linecap="round" stroke-linejoin="round"/>
<path d="M915.224 331.801V368.201" stroke="#5C5C5C" stroke-width="0.6485" stroke-miterlimit="10" stroke-linecap="round" stroke-linejoin="round"/>
<path d="M1090.72 367.699V331.199" stroke="#5C5C5C" stroke-width="0.6485" stroke-miterlimit="10" stroke-linecap="round" stroke-linejoin="round"/>
<path d="M912.224 282.301V316.101H913.324" stroke="#5C5C5C" stroke-width="0.6485" stroke-miterlimit="10" stroke-linecap="round" stroke-linejoin="round"/>
<path d="M908.023 278.1H1098.12V320.3" stroke="#5C5C5C" stroke-width="0.6485" stroke-miterlimit="10" stroke-linecap="round" stroke-linejoin="round"/>
<path d="M912.224 282.301H1093.42V316.201" stroke="#5C5C5C" stroke-width="0.6485" stroke-miterlimit="10" stroke-linecap="round" stroke-linejoin="round"/>
<path d="M913.324 320.301H1098.12" stroke="#5C5C5C" stroke-width="0.6485" stroke-miterlimit="10" stroke-linecap="round" stroke-linejoin="round"/>
<path d="M913.324 316.1H1092.82" stroke="#5C5C5C" stroke-width="0.6485" stroke-miterlimit="10" stroke-linecap="round" stroke-linejoin="round"/>
<path d="M908.023 278.1V320.3H913.323" stroke="#5C5C5C" stroke-width="0.6485" stroke-miterlimit="10" stroke-linecap="round" stroke-linejoin="round"/>
<path d="M924.223 270.801H916.823" stroke="#5C5C5C" stroke-width="0.6485" stroke-miterlimit="10" stroke-linecap="round" stroke-linejoin="round"/>
<path d="M916.823 270.801V0.300781H924.223V270.801" stroke="#5C5C5C" stroke-width="0.6485" stroke-miterlimit="10" stroke-linecap="round" stroke-linejoin="round"/>
<path d="M1092.22 270.801V0.300781H1084.82V270.801" stroke="#5C5C5C" stroke-width="0.6485" stroke-miterlimit="10" stroke-linecap="round" stroke-linejoin="round"/>
<path d="M924.224 205.5H1084.82V208H924.224V205.5Z" stroke="#5C5C5C" stroke-width="0.6485" stroke-miterlimit="10" stroke-linecap="round" stroke-linejoin="round"/>
<path d="M908.023 270.801H1098.12V274.601H908.023V270.801Z" stroke="#5C5C5C" stroke-width="0.6485" stroke-miterlimit="10" stroke-linecap="round" stroke-linejoin="round"/>
<path d="M924.224 140.201H1084.82V142.701H924.224V140.201Z" stroke="#5C5C5C" stroke-width="0.6485" stroke-miterlimit="10" stroke-linecap="round" stroke-linejoin="round"/>
<path d="M1084.82 142.701H924.224" stroke="#5C5C5C" stroke-width="0.6485" stroke-miterlimit="10" stroke-linecap="round" stroke-linejoin="round"/>
<path d="M1084.82 212.201H924.224" stroke="#5C5C5C" stroke-width="0.6485" stroke-miterlimit="10" stroke-linecap="round" stroke-linejoin="round"/>
<path d="M1084.82 146.9H924.224" stroke="#5C5C5C" stroke-width="0.6485" stroke-miterlimit="10" stroke-linecap="round" stroke-linejoin="round"/>
<path d="M924.224 74.9004H1084.82V77.4004H924.224V74.9004Z" stroke="#5C5C5C" stroke-width="0.6485" stroke-miterlimit="10" stroke-linecap="round" stroke-linejoin="round"/>
<path d="M1084.82 77.4004H924.224" stroke="#5C5C5C" stroke-width="0.6485" stroke-miterlimit="10" stroke-linecap="round" stroke-linejoin="round"/>
<path d="M1084.82 81.7012H924.224" stroke="#5C5C5C" stroke-width="0.6485" stroke-miterlimit="10" stroke-linecap="round" stroke-linejoin="round"/>
<path d="M924.224 9.60156H1084.82V12.2016H924.224V9.60156Z" stroke="#5C5C5C" stroke-width="0.6485" stroke-miterlimit="10" stroke-linecap="round" stroke-linejoin="round"/>
<path d="M1084.82 16.4004H924.224" stroke="#5C5C5C" stroke-width="0.6485" stroke-miterlimit="10" stroke-linecap="round" stroke-linejoin="round"/>
</svg>
