<svg width="919" height="224" viewBox="0 0 919 224" fill="none" xmlns="http://www.w3.org/2000/svg">
<path opacity="0.5" d="M913.093 146.088H753.493V148.588H913.093V146.088Z" fill="#D7D7D7"/>
<path d="M913.093 146.088V148.588H753.493V146.088" stroke="#C0C0BF" stroke-width="0.3844" stroke-miterlimit="10" stroke-linecap="round" stroke-linejoin="round"/>
<path d="M748.793 223.388V148.588H917.493V223.488H910.993V223.388V155.188H755.393V223.388H748.793Z" stroke="#5C5C5C" stroke-width="0.5766" stroke-miterlimit="10" stroke-linecap="round" stroke-linejoin="round"/>
<path d="M755.393 185.988H910.993" stroke="#5C5C5C" stroke-width="0.5766" stroke-miterlimit="10" stroke-linecap="round" stroke-linejoin="round"/>
<path d="M755.393 192.588H910.993" stroke="#5C5C5C" stroke-width="0.5766" stroke-miterlimit="10" stroke-linecap="round" stroke-linejoin="round"/>
<circle cx="917.493" cy="148.589" r="0.2883" fill="#5C5C5C"/>
<path d="M755.393 155.188V148.588" stroke="#5C5C5C" stroke-width="0.5766" stroke-miterlimit="10" stroke-linecap="round" stroke-linejoin="round"/>
<path d="M910.993 155.188V148.588" stroke="#5C5C5C" stroke-width="0.5766" stroke-miterlimit="10" stroke-linecap="round" stroke-linejoin="round"/>
<path d="M914.393 32.6875H752.093V82.1875H914.393V32.6875Z" stroke="#575756" stroke-width="0.5766" stroke-miterlimit="10" stroke-linecap="round" stroke-linejoin="round"/>
<path opacity="0.5" d="M913.893 25.1875H752.293V29.2875H913.893V25.1875Z" fill="#D7D7D7"/>
<path d="M752.293 25.4883V29.2883H913.893V25.4883" stroke="#C0C0BF" stroke-width="0.572" stroke-miterlimit="10" stroke-linecap="round" stroke-linejoin="round"/>
<path d="M753.193 25.0891H748.593V21.2891H917.293V25.0891H753.193Z" stroke="#5C5C5C" stroke-width="0.517" stroke-miterlimit="10" stroke-linecap="round" stroke-linejoin="round"/>
<path opacity="0.5" d="M914.393 85.6875H752.793V89.7875H914.393V85.6875Z" fill="#D7D7D7"/>
<path d="M752.793 85.8887V89.7887H914.393V85.9887" stroke="#C0C0BF" stroke-width="0.572" stroke-miterlimit="10" stroke-linecap="round" stroke-linejoin="round"/>
<path d="M748.693 85.5891V29.2891H917.793V85.5891H748.693Z" stroke="#5C5C5C" stroke-width="0.5766" stroke-miterlimit="10" stroke-linecap="round" stroke-linejoin="round"/>
<path d="M914.493 93.1875H752.193V142.688H914.493V93.1875Z" stroke="#575756" stroke-width="0.5766" stroke-miterlimit="10" stroke-linecap="round" stroke-linejoin="round"/>
<path d="M748.793 146.089V89.7891H917.893V146.089H748.793Z" stroke="#5C5C5C" stroke-width="0.5766" stroke-miterlimit="10" stroke-linecap="round" stroke-linejoin="round"/>
<path d="M860.993 99.6883H804.793V96.9883H832.893H860.993V99.6883Z" fill="#C0C0BF" stroke="#5C5C5C" stroke-width="0.5766" stroke-miterlimit="10" stroke-linecap="round" stroke-linejoin="round"/>
<path opacity="0.5" d="M574.593 124.389H496.993V127.389H574.593V124.389Z" fill="#D7D7D7"/>
<path opacity="0.5" d="M657.093 127.488H582.593V124.188L657.093 124.388V127.488Z" fill="#D7D7D7"/>
<path d="M582.493 124.389V127.289H657.193V124.389" stroke="#C0C0BF" stroke-width="0.3844" stroke-miterlimit="10" stroke-linecap="round" stroke-linejoin="round"/>
<path d="M574.593 124.389V127.389" stroke="#C0C0BF" stroke-width="0.3844" stroke-miterlimit="10" stroke-linecap="round" stroke-linejoin="round"/>
<path d="M496.993 124.389V127.489" stroke="#C0C0BF" stroke-width="0.3844" stroke-miterlimit="10" stroke-linecap="round" stroke-linejoin="round"/>
<path opacity="0.5" d="M657.393 183.889H497.593V186.089H657.393V183.889Z" fill="#D7D7D7"/>
<path d="M657.293 184.188H497.493V186.088H657.293V184.188Z" stroke="#C0C0BF" stroke-width="0.2718" stroke-miterlimit="10" stroke-linecap="round" stroke-linejoin="round"/>
<path d="M661.793 223.588V186.088H492.693V223.588H499.293" stroke="#5C5C5C" stroke-width="0.5766" stroke-miterlimit="10" stroke-linecap="round" stroke-linejoin="round"/>
<path d="M499.293 223.588V192.588H655.193V223.588H661.793" stroke="#5C5C5C" stroke-width="0.5766" stroke-miterlimit="10" stroke-linecap="round" stroke-linejoin="round"/>
<path d="M499.293 192.588V186.088" stroke="#5C5C5C" stroke-width="0.5766" stroke-miterlimit="10" stroke-linecap="round" stroke-linejoin="round"/>
<path d="M655.193 192.588V186.088" stroke="#5C5C5C" stroke-width="0.5766" stroke-miterlimit="10" stroke-linecap="round" stroke-linejoin="round"/>
<path d="M658.393 130.889H496.093V180.389H658.393V130.889Z" stroke="#575756" stroke-width="0.5766" stroke-miterlimit="10" stroke-linecap="round" stroke-linejoin="round"/>
<path d="M492.693 183.788V127.488H661.793V183.788H492.693Z" stroke="#5C5C5C" stroke-width="0.5766" stroke-miterlimit="10" stroke-linecap="round" stroke-linejoin="round"/>
<path d="M661.493 120.488H492.693V124.288H661.493V120.488Z" stroke="#5C5C5C" stroke-width="0.517" stroke-miterlimit="10" stroke-linecap="round" stroke-linejoin="round"/>
<path d="M499.093 120.489V0.289062H505.693V120.489" stroke="#5C5C5C" stroke-width="0.5766" stroke-miterlimit="10" stroke-linecap="round" stroke-linejoin="round"/>
<path d="M655.093 120.489V0.289062H648.493V120.489" stroke="#5C5C5C" stroke-width="0.5766" stroke-miterlimit="10" stroke-linecap="round" stroke-linejoin="round"/>
<path d="M648.493 66.7891H505.693" stroke="#5C5C5C" stroke-width="0.5766" stroke-miterlimit="10" stroke-linecap="round" stroke-linejoin="round"/>
<path d="M505.693 64.4883H648.493" stroke="#5C5C5C" stroke-width="0.5766" stroke-miterlimit="10" stroke-linecap="round" stroke-linejoin="round"/>
<path d="M505.693 10.7879V8.58789" stroke="#5C5C5C" stroke-width="0.5766" stroke-miterlimit="10" stroke-linecap="round" stroke-linejoin="round"/>
<path d="M648.493 10.7871H505.693" stroke="#5C5C5C" stroke-width="0.5766" stroke-miterlimit="10" stroke-linecap="round" stroke-linejoin="round"/>
<path d="M505.693 8.58789H648.493" stroke="#5C5C5C" stroke-width="0.5766" stroke-miterlimit="10" stroke-linecap="round" stroke-linejoin="round"/>
<path d="M648.493 10.7891H506.993" stroke="#5C5C5C" stroke-width="0.5766" stroke-miterlimit="10" stroke-linecap="round" stroke-linejoin="round"/>
<path d="M648.493 70.4883H505.693" stroke="#5C5C5C" stroke-width="0.5766" stroke-miterlimit="10" stroke-linecap="round" stroke-linejoin="round"/>
<path d="M505.693 13.9883H648.493" stroke="#5C5C5C" stroke-width="0.5766" stroke-miterlimit="10" stroke-linecap="round" stroke-linejoin="round"/>
<circle cx="648.493" cy="70.4875" r="0.2883" fill="#5C5C5C"/>
<circle cx="654.593" cy="100.488" r="0.2883" fill="#5C5C5C"/>
<path d="M505.693 10.7891H531.693" stroke="#5C5C5C" stroke-width="0.5766" stroke-miterlimit="10" stroke-linecap="round" stroke-linejoin="round"/>
<circle cx="505.693" cy="10.7883" r="0.2883" fill="#5C5C5C"/>
<circle cx="531.693" cy="10.7883" r="0.2883" fill="#5C5C5C"/>
<path opacity="0.5" d="M409.792 123.289H333.192V127.289H409.792V123.289Z" fill="#D7D7D7"/>
<path opacity="0.5" d="M325.193 123.289H248.593V127.389H325.193V123.289Z" fill="#D7D7D7"/>
<path d="M333.192 123.289V127.289H409.792V123.589" stroke="#C0C0BF" stroke-width="0.3892" stroke-miterlimit="10" stroke-linecap="round" stroke-linejoin="round"/>
<path d="M248.593 123.489V127.289H325.093V123.289" stroke="#C0C0BF" stroke-width="0.3913" stroke-miterlimit="10" stroke-linecap="round" stroke-linejoin="round"/>
<path opacity="0.5" d="M410.092 81.7871H333.492V85.7871H410.092V81.7871Z" fill="#D7D7D7"/>
<path opacity="0.5" d="M325.493 81.6875H248.893V85.7875H325.493V81.6875Z" fill="#D7D7D7"/>
<path d="M333.492 81.7871V85.7871H410.092V81.9871" stroke="#C0C0BF" stroke-width="0.3892" stroke-miterlimit="10" stroke-linecap="round" stroke-linejoin="round"/>
<path d="M248.893 81.9875V85.7875H325.393V81.6875" stroke="#C0C0BF" stroke-width="0.3913" stroke-miterlimit="10" stroke-linecap="round" stroke-linejoin="round"/>
<path opacity="0.5" d="M409.393 183.889H249.593V186.089H409.393V183.889Z" fill="#D7D7D7"/>
<path d="M409.293 184.188H249.493V186.088H409.293V184.188Z" stroke="#C0C0BF" stroke-width="0.2718" stroke-miterlimit="10" stroke-linecap="round" stroke-linejoin="round"/>
<path d="M413.793 223.588V186.088H244.693V223.588H251.293" stroke="#5C5C5C" stroke-width="0.5766" stroke-miterlimit="10" stroke-linecap="round" stroke-linejoin="round"/>
<path d="M251.293 223.588V192.588H407.193V223.588H413.793" stroke="#5C5C5C" stroke-width="0.5766" stroke-miterlimit="10" stroke-linecap="round" stroke-linejoin="round"/>
<path d="M251.293 192.588V186.088" stroke="#5C5C5C" stroke-width="0.5766" stroke-miterlimit="10" stroke-linecap="round" stroke-linejoin="round"/>
<path d="M407.193 192.588V186.088" stroke="#5C5C5C" stroke-width="0.5766" stroke-miterlimit="10" stroke-linecap="round" stroke-linejoin="round"/>
<path d="M410.493 130.889H248.193V180.389H410.493V130.889Z" fill="white" stroke="#575756" stroke-width="0.5766" stroke-miterlimit="10" stroke-linecap="round" stroke-linejoin="round"/>
<path d="M244.793 183.788V127.488H413.893V183.788H244.793Z" stroke="#5C5C5C" stroke-width="0.5766" stroke-miterlimit="10" stroke-linecap="round" stroke-linejoin="round"/>
<path d="M413.593 77.9883H244.793V81.7883H413.593V77.9883Z" stroke="#5C5C5C" stroke-width="0.517" stroke-miterlimit="10" stroke-linecap="round" stroke-linejoin="round"/>
<path d="M248.693 89.5883V119.488H409.393V89.4883H248.693" stroke="#575756" stroke-width="0.5766" stroke-miterlimit="10" stroke-linecap="round" stroke-linejoin="round"/>
<path d="M413.593 123.289V85.7891H244.893V123.289H413.593Z" stroke="#5C5C5C" stroke-width="0.5766" stroke-miterlimit="10" stroke-linecap="round" stroke-linejoin="round"/>
<path opacity="0.5" d="M167.393 183.289H5.19336V185.489H167.393V183.289Z" fill="#D7D7D7"/>
<path d="M167.293 183.588H5.09277V185.488H167.293V183.588Z" stroke="#C0C0BF" stroke-width="0.2759" stroke-miterlimit="10" stroke-linecap="round" stroke-linejoin="round"/>
<path d="M171.893 223.588V185.488H0.292969V223.588H6.99297" stroke="#5C5C5C" stroke-width="0.5852" stroke-miterlimit="10" stroke-linecap="round" stroke-linejoin="round"/>
<path d="M6.99316 223.588V192.188H165.193V223.588H171.893" stroke="#5C5C5C" stroke-width="0.5852" stroke-miterlimit="10" stroke-linecap="round" stroke-linejoin="round"/>
<path d="M6.99316 192.188V185.488" stroke="#5C5C5C" stroke-width="0.5852" stroke-miterlimit="10" stroke-linecap="round" stroke-linejoin="round"/>
<path d="M165.193 192.188V185.488" stroke="#5C5C5C" stroke-width="0.5852" stroke-miterlimit="10" stroke-linecap="round" stroke-linejoin="round"/>
<path opacity="0.5" d="M168.093 121.889H4.09277V126.089H168.093V121.889Z" fill="#D7D7D7"/>
<path d="M4.09277 122.188V126.088H168.093V122.288" stroke="#C0C0BF" stroke-width="0.5805" stroke-miterlimit="10" stroke-linecap="round" stroke-linejoin="round"/>
<path d="M168.393 129.488H3.69336V179.788H168.393V129.488Z" fill="white" stroke="#575756" stroke-width="0.5852" stroke-miterlimit="10" stroke-linecap="round" stroke-linejoin="round"/>
<path d="M0.292969 183.288V126.088H171.893V183.288H0.292969Z" stroke="#5C5C5C" stroke-width="0.5852" stroke-miterlimit="10" stroke-linecap="round" stroke-linejoin="round"/>
<path opacity="0.5" d="M168.093 60.5879H4.09277V64.7879H168.093V60.5879Z" fill="#D7D7D7"/>
<path d="M4.09277 60.8887V64.7887H168.093V60.8887" stroke="#C0C0BF" stroke-width="0.5805" stroke-miterlimit="10" stroke-linecap="round" stroke-linejoin="round"/>
<path d="M168.393 68.1875H3.69336V118.488H168.393V68.1875Z" fill="white" stroke="#575756" stroke-width="0.5852" stroke-miterlimit="10" stroke-linecap="round" stroke-linejoin="round"/>
<path d="M0.292969 121.889V64.7891H171.893V121.889H0.292969Z" stroke="#5C5C5C" stroke-width="0.5852" stroke-miterlimit="10" stroke-linecap="round" stroke-linejoin="round"/>
<path d="M4.99297 60.3879H0.292969V56.5879H171.593V60.3879H4.99297Z" stroke="#5C5C5C" stroke-width="0.5247" stroke-miterlimit="10" stroke-linecap="round" stroke-linejoin="round"/>
</svg>

