<svg width="841" height="268" viewBox="0 0 841 268" fill="none" xmlns="http://www.w3.org/2000/svg">
<path d="M81.6928 166.66H4.09277V170.46H81.6928V166.66Z" fill="#D7D7D7"/>
<path d="M80.7928 227.361V229.261C69.4928 229.261 58.2928 229.261 46.9928 229.261C44.2928 229.261 41.5928 229.261 38.8928 229.261C27.5928 229.261 16.3928 229.261 5.09277 229.261C5.09277 228.661 5.09277 227.961 5.09277 227.361" stroke="#C0C0BF" stroke-width="0.3901" stroke-miterlimit="10" stroke-linecap="round" stroke-linejoin="round"/>
<g opacity="0.5">
<path d="M80.7928 227.361H5.09277V229.261H80.7928V227.361Z" fill="#D7D7D7"/>
</g>
<path d="M81.793 166.66V170.36" stroke="#C0C0BF" stroke-width="0.3901" stroke-miterlimit="10" stroke-linecap="round" stroke-linejoin="round"/>
<path d="M80.8924 227.361V229.261C69.5924 229.261 58.2924 229.261 47.0924 229.261C44.3924 229.261 41.6924 229.261 38.9924 229.261C27.6924 229.261 16.3924 229.261 5.19238 229.261C5.19238 228.661 5.19238 227.961 5.19238 227.361" stroke="#C0C0BF" stroke-width="0.0582107" stroke-miterlimit="10" stroke-linecap="round" stroke-linejoin="round"/>
<path d="M5.09277 227.461V229.261H80.8928V227.461" stroke="#C0C0BF" stroke-width="0.3901" stroke-miterlimit="10" stroke-linecap="round" stroke-linejoin="round"/>
<path d="M85.4926 267.161V229.361H0.392578V267.161H7.09258V235.961H78.8926V267.161H85.4926Z" stroke="#5C5C5C" stroke-width="0.5852" stroke-miterlimit="10" stroke-linecap="round" stroke-linejoin="round"/>
<path d="M7.09277 235.961V229.361" stroke="#5C5C5C" stroke-width="0.5852" stroke-miterlimit="10" stroke-linecap="round" stroke-linejoin="round"/>
<path d="M78.8926 235.961V229.361" stroke="#5C5C5C" stroke-width="0.5852" stroke-miterlimit="10" stroke-linecap="round" stroke-linejoin="round"/>
<circle cx="7.09258" cy="235.961" r="0.0291054" fill="#C0C0BF"/>
<circle cx="78.8924" cy="235.961" r="0.0291054" fill="#C0C0BF"/>
<path d="M85.5928 166.66H4.09277" stroke="#5C5C5C" stroke-width="0.5852" stroke-miterlimit="10" stroke-linecap="round" stroke-linejoin="round"/>
<path d="M4.09277 170.362V166.662" stroke="#C0C0BF" stroke-width="0.3901" stroke-miterlimit="10" stroke-linecap="round" stroke-linejoin="round"/>
<path d="M4.09297 166.661H0.292969V162.861H85.593V166.661" stroke="#5C5C5C" stroke-width="0.5852" stroke-miterlimit="10" stroke-linecap="round" stroke-linejoin="round"/>
<circle cx="85.5926" cy="162.861" r="0.0291054" fill="#C0C0BF"/>
<circle cx="85.5926" cy="166.662" r="0.0291054" fill="#C0C0BF"/>
<path opacity="0.5" d="M79.2932 162.562H6.59316C5.69316 162.562 4.99316 161.862 4.99316 160.962V159.362C4.99316 158.462 5.69316 157.762 6.59316 157.762H79.2932C80.1932 157.762 80.8932 158.462 80.8932 159.362V160.962C80.7932 161.862 80.0932 162.562 79.2932 162.562Z" fill="#D7D7D7" stroke="#3D3F3F" stroke-width="0.5817" stroke-miterlimit="10"/>
<path d="M0.392578 170.262V227.162H85.5926V170.262H0.392578Z" stroke="#5C5C5C" stroke-width="0.7178" stroke-miterlimit="10" stroke-linecap="round" stroke-linejoin="round"/>
<path d="M81.7924 173.66H4.19238V223.36H81.7924V173.66Z" stroke="#5C5C5C" stroke-width="0.7494" stroke-miterlimit="10" stroke-linecap="round" stroke-linejoin="round"/>
<path d="M48.993 180.46H35.393C35.093 180.46 34.793 180.16 34.793 179.86V178.26C34.793 177.96 35.093 177.66 35.393 177.66H48.993C49.293 177.66 49.593 177.96 49.593 178.26V179.86C49.593 180.26 49.293 180.46 48.993 180.46Z" fill="#C0C0BF" stroke="#5C5C5C" stroke-width="0.5852" stroke-miterlimit="10" stroke-linecap="round" stroke-linejoin="round"/>
<path d="M35.3928 177.66H49.0928C49.3928 177.66 49.6928 177.96 49.6928 178.26V179.96C49.6928 180.26 49.3928 180.56 49.0928 180.56H35.3928C35.0928 180.56 34.7928 180.26 34.7928 179.96V178.26C34.6928 177.86 34.9928 177.66 35.3928 177.66Z" fill="#C0C0BF" stroke="#5C5C5C" stroke-width="0.5852" stroke-miterlimit="10" stroke-linecap="round" stroke-linejoin="round"/>
<path d="M256.393 204.761V191.061C256.393 190.761 256.693 190.461 256.993 190.461H258.693C258.993 190.461 259.293 190.761 259.293 191.061V204.761C259.293 205.061 258.993 205.361 258.693 205.361H257.093C256.693 205.461 256.393 205.161 256.393 204.761Z" fill="#C0C0BF"/>
<path d="M171.393 226.561V228.961H333.393V226.561" stroke="#C0C0BF" stroke-width="0.3901" stroke-miterlimit="10" stroke-linecap="round" stroke-linejoin="round"/>
<path opacity="0.5" d="M334.093 226.762H171.893V228.962H334.093V226.762Z" fill="#D7D7D7"/>
<path d="M333.993 227.061H171.793V228.961H333.993V227.061Z" stroke="#C0C0BF" stroke-width="0.2759" stroke-miterlimit="10" stroke-linecap="round" stroke-linejoin="round"/>
<path opacity="0.5" d="M332.893 104.16H257.093V108.26H332.893V104.16Z" fill="#D7D7D7"/>
<path opacity="0.5" d="M247.092 104.061H171.192V108.161H247.092V104.061Z" fill="#D7D7D7"/>
<path d="M257.093 104.16V108.16H332.893V104.36" stroke="#C0C0BF" stroke-width="0.3901" stroke-miterlimit="10" stroke-linecap="round" stroke-linejoin="round"/>
<path d="M171.192 104.36V108.16H246.992V104.16" stroke="#C0C0BF" stroke-width="0.3901" stroke-miterlimit="10" stroke-linecap="round" stroke-linejoin="round"/>
<path opacity="0.5" d="M334.193 165.16H258.393V169.26H334.193V165.16Z" fill="#D7D7D7"/>
<path opacity="0.5" d="M248.293 165.16H172.393V169.26H248.293V165.16Z" fill="#D7D7D7"/>
<path d="M258.393 165.16V169.26H334.193V165.46" stroke="#C0C0BF" stroke-width="0.3901" stroke-miterlimit="10" stroke-linecap="round" stroke-linejoin="round"/>
<path d="M172.393 165.46V169.26H248.293V165.16" stroke="#C0C0BF" stroke-width="0.3901" stroke-miterlimit="10" stroke-linecap="round" stroke-linejoin="round"/>
<path d="M338.493 267.161V228.961H166.893V267.161H173.593V235.661H331.793V267.161H338.493Z" stroke="#5C5C5C" stroke-width="0.5852" stroke-miterlimit="10" stroke-linecap="round" stroke-linejoin="round"/>
<path d="M170.793 104.061H332.593" stroke="#5C5C5C" stroke-width="0.5247" stroke-miterlimit="10" stroke-linecap="round" stroke-linejoin="round"/>
<path d="M170.793 104.062H165.993V100.262H337.293V104.062H332.593" stroke="#5C5C5C" stroke-width="0.5247" stroke-miterlimit="10" stroke-linecap="round" stroke-linejoin="round"/>
<circle cx="170.793" cy="104.161" r="0.26235" fill="#5C5C5C"/>
<path d="M173.593 235.661V228.961" stroke="#5C5C5C" stroke-width="0.5852" stroke-miterlimit="10" stroke-linecap="round" stroke-linejoin="round"/>
<path d="M331.793 235.661V228.961" stroke="#5C5C5C" stroke-width="0.5852" stroke-miterlimit="10" stroke-linecap="round" stroke-linejoin="round"/>
<path d="M252.793 172.861V222.161" stroke="#5C5C5C" stroke-width="0.5852" stroke-miterlimit="10" stroke-linecap="round" stroke-linejoin="round"/>
<path d="M334.793 172.861H170.093V223.161H334.793V172.861Z" stroke="#5C5C5C" stroke-width="0.5852" stroke-miterlimit="10" stroke-linecap="round" stroke-linejoin="round"/>
<path d="M166.593 226.561V169.461H338.193V226.561H166.593Z" stroke="#5C5C5C" stroke-width="0.5852" stroke-miterlimit="10" stroke-linecap="round" stroke-linejoin="round"/>
<path d="M256.393 204.861V191.161C256.393 190.861 256.693 190.561 256.993 190.561H258.693C258.993 190.561 259.293 190.861 259.293 191.161V204.861C259.293 205.161 258.993 205.461 258.693 205.461H257.093C256.693 205.461 256.393 205.161 256.393 204.861Z" fill="#C0C0BF" stroke="#5C5C5C" stroke-width="0.5852" stroke-miterlimit="10" stroke-linecap="round" stroke-linejoin="round"/>
<path d="M246.593 204.761V191.061C246.593 190.761 246.893 190.461 247.193 190.461H248.893C249.193 190.461 249.493 190.761 249.493 191.061V204.761C249.493 205.061 249.193 205.361 248.893 205.361H247.193C246.893 205.361 246.593 205.161 246.593 204.761Z" fill="#C0C0BF"/>
<path d="M246.593 204.861V191.161C246.593 190.861 246.893 190.561 247.193 190.561H248.893C249.193 190.561 249.493 190.861 249.493 191.161V204.861C249.493 205.161 249.193 205.461 248.893 205.461H247.193C246.893 205.461 246.593 205.161 246.593 204.861Z" fill="#C0C0BF" stroke="#5C5C5C" stroke-width="0.5852" stroke-miterlimit="10" stroke-linecap="round" stroke-linejoin="round"/>
<path d="M166.493 108.262V165.162H251.693V108.262H166.493Z" stroke="#5C5C5C" stroke-width="0.7178" stroke-miterlimit="10" stroke-linecap="round" stroke-linejoin="round"/>
<path d="M247.893 111.66H170.293V161.36H247.893V111.66Z" stroke="#5C5C5C" stroke-width="0.7494" stroke-miterlimit="10" stroke-linecap="round" stroke-linejoin="round"/>
<path d="M215.093 118.46H201.493C201.193 118.46 200.893 118.16 200.893 117.86V116.26C200.893 115.96 201.193 115.66 201.493 115.66H215.093C215.393 115.66 215.693 115.96 215.693 116.26V117.86C215.693 118.26 215.493 118.46 215.093 118.46Z" fill="#C0C0BF" stroke="#5C5C5C" stroke-width="0.5852" stroke-miterlimit="10" stroke-linecap="round" stroke-linejoin="round"/>
<path d="M201.493 115.66H215.093C215.393 115.66 215.693 115.96 215.693 116.26V117.96C215.693 118.26 215.393 118.56 215.093 118.56H201.393C201.093 118.56 200.793 118.26 200.793 117.96V116.26C200.893 115.86 201.093 115.66 201.493 115.66Z" fill="#C0C0BF" stroke="#5C5C5C" stroke-width="0.5852" stroke-miterlimit="10" stroke-linecap="round" stroke-linejoin="round"/>
<path d="M252.393 108.262V165.162H337.593V108.262H252.393Z" stroke="#5C5C5C" stroke-width="0.7178" stroke-miterlimit="10" stroke-linecap="round" stroke-linejoin="round"/>
<path d="M333.792 111.66H256.192V161.36H333.792V111.66Z" stroke="#5C5C5C" stroke-width="0.7494" stroke-miterlimit="10" stroke-linecap="round" stroke-linejoin="round"/>
<path d="M301.093 118.46H287.493C287.193 118.46 286.893 118.16 286.893 117.86V116.26C286.893 115.96 287.193 115.66 287.493 115.66H301.093C301.393 115.66 301.693 115.96 301.693 116.26V117.86C301.693 118.26 301.393 118.46 301.093 118.46Z" fill="#C0C0BF" stroke="#5C5C5C" stroke-width="0.5852" stroke-miterlimit="10" stroke-linecap="round" stroke-linejoin="round"/>
<path d="M287.393 115.66H301.093C301.393 115.66 301.693 115.96 301.693 116.26V117.96C301.693 118.26 301.393 118.56 301.093 118.56H287.393C287.093 118.56 286.793 118.26 286.793 117.96V116.26C286.793 115.86 287.093 115.66 287.393 115.66Z" fill="#C0C0BF" stroke="#5C5C5C" stroke-width="0.5852" stroke-miterlimit="10" stroke-linecap="round" stroke-linejoin="round"/>
<circle cx="208.092" cy="161.26" r="0.26235" fill="#5C5C5C"/>
<path opacity="0.5" d="M588.793 4.36133H512.993V8.06133H588.793V4.36133Z" fill="#D7D7D7"/>
<path opacity="0.5" d="M502.893 4.06055H426.993V7.76055H502.893V4.06055Z" fill="#D7D7D7"/>
<path d="M512.893 4.36133V8.06133H588.793V4.66133" stroke="#C0C0BF" stroke-width="0.3712" stroke-miterlimit="10" stroke-linecap="round" stroke-linejoin="round"/>
<path d="M426.993 4.26055V7.76055H502.893V4.06055" stroke="#C0C0BF" stroke-width="0.373" stroke-miterlimit="10" stroke-linecap="round" stroke-linejoin="round"/>
<path opacity="0.5" d="M589.992 125.961H514.192V129.661H589.992V125.961Z" fill="#D7D7D7"/>
<path opacity="0.5" d="M504.092 125.561H428.192V129.261H504.092V125.561Z" fill="#D7D7D7"/>
<path d="M514.192 125.961V129.661H589.992V126.161" stroke="#C0C0BF" stroke-width="0.3712" stroke-miterlimit="10" stroke-linecap="round" stroke-linejoin="round"/>
<path d="M428.192 125.86V129.36H504.092V125.66" stroke="#C0C0BF" stroke-width="0.373" stroke-miterlimit="10" stroke-linecap="round" stroke-linejoin="round"/>
<path opacity="0.5" d="M836.293 127.861H760.493V131.961H836.293V127.861Z" fill="#D7D7D7"/>
<path d="M760.393 127.861V131.961H836.293V128.161" stroke="#C0C0BF" stroke-width="0.3901" stroke-miterlimit="10" stroke-linecap="round" stroke-linejoin="round"/>
<path opacity="0.5" d="M750.393 127.861H674.493V131.961H750.393V127.861Z" fill="#D7D7D7"/>
<path d="M674.493 128.161V131.961H750.393V127.861" stroke="#C0C0BF" stroke-width="0.3901" stroke-miterlimit="10" stroke-linecap="round" stroke-linejoin="round"/>
<path opacity="0.5" d="M835.492 85.3613H759.692V89.4613H835.492V85.3613Z" fill="#D7D7D7"/>
<path d="M759.692 85.3613V89.4613H835.492V85.6613" stroke="#C0C0BF" stroke-width="0.3901" stroke-miterlimit="10" stroke-linecap="round" stroke-linejoin="round"/>
<path opacity="0.5" d="M749.693 85.3613H673.793V89.4613H749.693V85.3613Z" fill="#D7D7D7"/>
<path d="M673.793 85.5613V89.3613H749.593V85.3613" stroke="#C0C0BF" stroke-width="0.3901" stroke-miterlimit="10" stroke-linecap="round" stroke-linejoin="round"/>
<path opacity="0.5" d="M835.693 189.461H674.293V191.361H835.693V189.461Z" fill="#D7D7D7"/>
<path d="M589.192 187.061V189.061V187.061ZM589.192 187.061H427.192V189.061V187.061" stroke="#C0C0BF" stroke-width="0.3901" stroke-miterlimit="10" stroke-linecap="round" stroke-linejoin="round"/>
<path d="M718.493 100.361H704.893C704.593 100.361 704.293 100.061 704.293 99.7606V98.1605C704.293 97.8605 704.593 97.5605 704.893 97.5605H718.493C718.793 97.5605 719.093 97.8605 719.093 98.1605V99.7606C719.093 100.061 718.793 100.361 718.493 100.361Z" fill="#C0C0BF"/>
<path d="M804.493 100.361H790.893C790.593 100.361 790.293 100.061 790.293 99.7606V98.1605C790.293 97.8605 790.593 97.5605 790.893 97.5605H804.493C804.793 97.5605 805.093 97.8605 805.093 98.1605V99.7606C805.093 100.061 804.793 100.361 804.493 100.361Z" fill="#C0C0BF"/>
<path d="M594.292 267.161V189.061H422.692V267.161H429.392V235.661H587.592V267.161H594.292Z" stroke="#5C5C5C" stroke-width="0.5852" stroke-miterlimit="10" stroke-linecap="round" stroke-linejoin="round"/>
<path d="M429.393 235.661V228.961H587.593V235.661" stroke="#5C5C5C" stroke-width="0.5881" stroke-miterlimit="10" stroke-linecap="round" stroke-linejoin="round"/>
<path d="M587.493 189.361H429.293V196.061H587.493V189.361Z" stroke="#5C5C5C" stroke-width="0.5852" stroke-miterlimit="10" stroke-linecap="round" stroke-linejoin="round"/>
<path d="M429.293 196.061V228.961" stroke="#5C5C5C" stroke-width="0.5852" stroke-miterlimit="10" stroke-linecap="round" stroke-linejoin="round"/>
<path d="M587.593 228.961V196.061" stroke="#5C5C5C" stroke-width="0.5852" stroke-miterlimit="10" stroke-linecap="round" stroke-linejoin="round"/>
<path d="M590.693 11.2617H425.993V122.562H590.693V11.2617Z" stroke="#5C5C5C" stroke-width="0.5852" stroke-miterlimit="10" stroke-linecap="round" stroke-linejoin="round"/>
<path d="M498.793 20.7617H435.493V113.062H498.793" stroke="#5C5C5C" stroke-width="0.5852" stroke-miterlimit="10" stroke-linecap="round" stroke-linejoin="round"/>
<path d="M517.893 113.062H581.193V20.7617H517.893" stroke="#5C5C5C" stroke-width="0.5852" stroke-miterlimit="10" stroke-linecap="round" stroke-linejoin="round"/>
<path d="M422.493 126.061H594.093V7.86133H422.493V126.061Z" stroke="#5C5C5C" stroke-width="0.5852" stroke-miterlimit="10" stroke-linecap="round" stroke-linejoin="round"/>
<path d="M508.293 11.2617V122.562" stroke="#5C5C5C" stroke-width="0.5852" stroke-miterlimit="10" stroke-linecap="round" stroke-linejoin="round"/>
<path d="M517.893 11.2617V122.562" stroke="#5C5C5C" stroke-width="0.5852" stroke-miterlimit="10" stroke-linecap="round" stroke-linejoin="round"/>
<path d="M498.793 11.2617V122.562" stroke="#5C5C5C" stroke-width="0.5852" stroke-miterlimit="10" stroke-linecap="round" stroke-linejoin="round"/>
<path d="M435.493 20.7617V11.2617" stroke="#5C5C5C" stroke-width="0.5852" stroke-miterlimit="10" stroke-linecap="round" stroke-linejoin="round"/>
<path d="M435.493 113.061V122.561" stroke="#5C5C5C" stroke-width="0.5852" stroke-miterlimit="10" stroke-linecap="round" stroke-linejoin="round"/>
<path d="M581.192 113.061V122.561" stroke="#5C5C5C" stroke-width="0.5852" stroke-miterlimit="10" stroke-linecap="round" stroke-linejoin="round"/>
<path d="M581.192 20.7617V11.2617" stroke="#5C5C5C" stroke-width="0.5852" stroke-miterlimit="10" stroke-linecap="round" stroke-linejoin="round"/>
<circle cx="435.493" cy="122.56" r="0.2926" fill="#5C5C5C"/>
<circle cx="498.793" cy="122.56" r="0.2926" fill="#5C5C5C"/>
<circle cx="517.893" cy="122.56" r="0.2926" fill="#5C5C5C"/>
<circle cx="581.193" cy="122.56" r="0.2926" fill="#5C5C5C"/>
<circle cx="581.193" cy="20.7614" r="0.2926" fill="#5C5C5C"/>
<circle cx="422.493" cy="7.86096" r="0.2926" fill="#5C5C5C"/>
<circle cx="422.493" cy="126.06" r="0.2926" fill="#5C5C5C"/>
<circle cx="517.893" cy="20.7614" r="0.2926" fill="#5C5C5C"/>
<circle cx="508.293" cy="20.7614" r="0.2926" fill="#5C5C5C"/>
<circle cx="498.793" cy="11.2613" r="0.2926" fill="#5C5C5C"/>
<circle cx="498.793" cy="122.56" r="0.2926" fill="#5C5C5C"/>
<circle cx="490.092" cy="122.56" r="0.2926" fill="#5C5C5C"/>
<circle cx="467.193" cy="20.7614" r="0.2926" fill="#5C5C5C"/>
<circle cx="467.193" cy="11.2613" r="0.2926" fill="#5C5C5C"/>
<circle cx="461.693" cy="11.2613" r="0.2926" fill="#5C5C5C"/>
<path d="M426.993 4.06172H422.293V0.261719H593.493V4.06172H426.993Z" stroke="#5C5C5C" stroke-width="0.5247" stroke-miterlimit="10" stroke-linecap="round" stroke-linejoin="round"/>
<path d="M668.993 89.6602V127.66H754.293V89.6602H668.993Z" stroke="#5C5C5C" stroke-width="0.5852" stroke-miterlimit="10" stroke-linecap="round" stroke-linejoin="round"/>
<path d="M750.493 93.4609H672.793V123.761H750.493V93.4609Z" stroke="#5C5C5C" stroke-width="0.5852" stroke-miterlimit="10" stroke-linecap="round" stroke-linejoin="round"/>
<path d="M718.492 100.361H704.792C704.492 100.361 704.192 100.061 704.192 99.7609V98.0609C704.192 97.7609 704.492 97.4609 704.792 97.4609H718.492C718.792 97.4609 719.092 97.7609 719.092 98.0609V99.7609C719.092 100.061 718.792 100.361 718.492 100.361Z" fill="#C0C0BF" stroke="#5C5C5C" stroke-width="0.5852" stroke-miterlimit="10" stroke-linecap="round" stroke-linejoin="round"/>
<path d="M754.993 89.6602V127.66H840.293V89.6602H754.993Z" stroke="#5C5C5C" stroke-width="0.5852" stroke-miterlimit="10" stroke-linecap="round" stroke-linejoin="round"/>
<path d="M836.493 93.4609H758.793V123.761H836.493V93.4609Z" stroke="#5C5C5C" stroke-width="0.5852" stroke-miterlimit="10" stroke-linecap="round" stroke-linejoin="round"/>
<path d="M804.492 100.361H790.792C790.492 100.361 790.192 100.061 790.192 99.7609V98.0609C790.192 97.7609 790.492 97.4609 790.792 97.4609H804.492C804.792 97.4609 805.092 97.7609 805.092 98.0609V99.7609C805.092 100.061 804.792 100.361 804.492 100.361Z" fill="#C0C0BF" stroke="#5C5C5C" stroke-width="0.5852" stroke-miterlimit="10" stroke-linecap="round" stroke-linejoin="round"/>
<path d="M835.693 189.16V191.36H674.293V189.16" stroke="#C0C0BF" stroke-width="0.3734" stroke-miterlimit="10" stroke-linecap="round" stroke-linejoin="round"/>
<path d="M669.692 267.061V191.361H840.292V267.161H833.692V267.061V198.061H676.292V267.061H669.692Z" stroke="#5C5C5C" stroke-width="0.5852" stroke-miterlimit="10" stroke-linecap="round" stroke-linejoin="round"/>
<path d="M676.293 229.262H833.693" stroke="#5C5C5C" stroke-width="0.5852" stroke-miterlimit="10" stroke-linecap="round" stroke-linejoin="round"/>
<path d="M676.293 235.861H833.693" stroke="#5C5C5C" stroke-width="0.5852" stroke-miterlimit="10" stroke-linecap="round" stroke-linejoin="round"/>
<path d="M668.993 85.3605V81.5605H839.593V85.3605H834.893" stroke="#5C5C5C" stroke-width="0.5852" stroke-miterlimit="10" stroke-linecap="round" stroke-linejoin="round"/>
<path d="M668.993 85.3613H834.893" stroke="#5C5C5C" stroke-width="0.5852" stroke-miterlimit="10" stroke-linecap="round" stroke-linejoin="round"/>
<path d="M669.393 132.16V189.16H754.593V132.16H669.393Z" stroke="#5C5C5C" stroke-width="0.7178" stroke-miterlimit="10" stroke-linecap="round" stroke-linejoin="round"/>
<path d="M750.792 135.66H673.192V185.36H750.792V135.66Z" stroke="#5C5C5C" stroke-width="0.7494" stroke-miterlimit="10" stroke-linecap="round" stroke-linejoin="round"/>
<path d="M718.093 142.46H704.493C704.193 142.46 703.893 142.16 703.893 141.86V140.26C703.893 139.96 704.193 139.66 704.493 139.66H718.093C718.393 139.66 718.693 139.96 718.693 140.26V141.86C718.693 142.26 718.393 142.46 718.093 142.46Z" fill="#C0C0BF" stroke="#5C5C5C" stroke-width="0.5852" stroke-miterlimit="10" stroke-linecap="round" stroke-linejoin="round"/>
<path d="M704.393 139.66H718.093C718.393 139.66 718.693 139.96 718.693 140.26V141.96C718.693 142.26 718.393 142.56 718.093 142.56H704.393C704.093 142.56 703.793 142.26 703.793 141.96V140.26C703.793 139.86 704.093 139.66 704.393 139.66Z" fill="#C0C0BF" stroke="#5C5C5C" stroke-width="0.5852" stroke-miterlimit="10" stroke-linecap="round" stroke-linejoin="round"/>
<path d="M755.393 132.16V189.16H840.593V132.16H755.393Z" stroke="#5C5C5C" stroke-width="0.7178" stroke-miterlimit="10" stroke-linecap="round" stroke-linejoin="round"/>
<path d="M836.792 135.66H759.192V185.36H836.792V135.66Z" stroke="#5C5C5C" stroke-width="0.7494" stroke-miterlimit="10" stroke-linecap="round" stroke-linejoin="round"/>
<path d="M803.993 142.46H790.393C790.093 142.46 789.793 142.16 789.793 141.86V140.26C789.793 139.96 790.093 139.66 790.393 139.66H803.993C804.293 139.66 804.593 139.96 804.593 140.26V141.86C804.593 142.26 804.293 142.46 803.993 142.46Z" fill="#C0C0BF" stroke="#5C5C5C" stroke-width="0.5852" stroke-miterlimit="10" stroke-linecap="round" stroke-linejoin="round"/>
<path d="M790.393 139.66H804.093C804.393 139.66 804.693 139.96 804.693 140.26V141.96C804.693 142.26 804.393 142.56 804.093 142.56H790.393C790.093 142.56 789.793 142.26 789.793 141.96V140.26C789.793 139.86 789.993 139.66 790.393 139.66Z" fill="#C0C0BF" stroke="#5C5C5C" stroke-width="0.5852" stroke-miterlimit="10" stroke-linecap="round" stroke-linejoin="round"/>
<path d="M423.192 129.66V186.66H508.392V129.66H423.192Z" stroke="#5C5C5C" stroke-width="0.7178" stroke-miterlimit="10" stroke-linecap="round" stroke-linejoin="round"/>
<path d="M504.593 133.16H426.993V182.86H504.593V133.16Z" stroke="#5C5C5C" stroke-width="0.7494" stroke-miterlimit="10" stroke-linecap="round" stroke-linejoin="round"/>
<path d="M471.793 139.96H458.193C457.893 139.96 457.593 139.66 457.593 139.36V137.76C457.593 137.46 457.893 137.16 458.193 137.16H471.793C472.093 137.16 472.393 137.46 472.393 137.76V139.36C472.393 139.66 472.093 139.96 471.793 139.96Z" fill="#C0C0BF" stroke="#5C5C5C" stroke-width="0.5852" stroke-miterlimit="10" stroke-linecap="round" stroke-linejoin="round"/>
<path d="M458.193 137.061H471.893C472.193 137.061 472.493 137.361 472.493 137.661V139.361C472.493 139.661 472.193 139.961 471.893 139.961H458.193C457.893 139.961 457.593 139.661 457.593 139.361V137.661C457.593 137.361 457.793 137.061 458.193 137.061Z" fill="#C0C0BF" stroke="#5C5C5C" stroke-width="0.5852" stroke-miterlimit="10" stroke-linecap="round" stroke-linejoin="round"/>
<path d="M509.093 129.66V186.66H594.293V129.66H509.093Z" stroke="#5C5C5C" stroke-width="0.7178" stroke-miterlimit="10" stroke-linecap="round" stroke-linejoin="round"/>
<path d="M590.493 133.16H512.893V182.86H590.493V133.16Z" stroke="#5C5C5C" stroke-width="0.7494" stroke-miterlimit="10" stroke-linecap="round" stroke-linejoin="round"/>
<path d="M557.693 139.96H544.093C543.793 139.96 543.493 139.66 543.493 139.36V137.76C543.493 137.46 543.793 137.16 544.093 137.16H557.693C557.993 137.16 558.293 137.46 558.293 137.76V139.36C558.393 139.66 558.093 139.96 557.693 139.96Z" fill="#C0C0BF" stroke="#5C5C5C" stroke-width="0.5852" stroke-miterlimit="10" stroke-linecap="round" stroke-linejoin="round"/>
<path d="M544.093 137.061H557.793C558.093 137.061 558.393 137.361 558.393 137.661V139.361C558.393 139.661 558.093 139.961 557.793 139.961H544.093C543.793 139.961 543.493 139.661 543.493 139.361V137.661C543.493 137.361 543.793 137.061 544.093 137.061Z" fill="#C0C0BF" stroke="#5C5C5C" stroke-width="0.5852" stroke-miterlimit="10" stroke-linecap="round" stroke-linejoin="round"/>
</svg>

