<svg width="748" height="148" viewBox="0 0 748 148" fill="none" xmlns="http://www.w3.org/2000/svg">
<path opacity="0.5" d="M166.66 65.1592H89.7598V69.1592H166.66V65.1592Z" fill="#D7D7D7"/>
<path opacity="0.5" d="M81.6594 65.1592H4.85938V69.2592H81.6594V65.1592Z" fill="#D7D7D7"/>
<path opacity="0.5" d="M165.159 23.7588H90.1592V27.4588H165.159V23.7588Z" fill="#D7D7D7"/>
<path opacity="0.5" d="M80.1592 23.459H5.15918V27.159H80.1592V23.459Z" fill="#D7D7D7"/>
<path d="M90.1592 23.7588V27.3588H165.159V23.9588" stroke="#C0C0BF" stroke-width="0.3671" stroke-miterlimit="10" stroke-linecap="round" stroke-linejoin="round"/>
<path d="M5.15918 23.6592V27.0592H80.1592V23.7592" stroke="#C0C0BF" stroke-width="0.3689" stroke-miterlimit="10" stroke-linecap="round" stroke-linejoin="round"/>
<path d="M4.25977 31.2592V61.3592H165.56V31.1592H4.25977" stroke="#575756" stroke-width="0.5788" stroke-miterlimit="10"/>
<path d="M169.86 65.159V27.459H0.459961V65.159H169.86Z" stroke="#5C5C5C" stroke-width="0.5788" stroke-miterlimit="10" stroke-linecap="round" stroke-linejoin="round"/>
<path opacity="0.5" d="M165.96 106.559H5.55957V108.759H165.96V106.559Z" fill="#D7D7D7"/>
<path d="M165.86 106.859H5.45996V108.759H165.86V106.859Z" stroke="#C0C0BF" stroke-width="0.2728" stroke-miterlimit="10" stroke-linecap="round" stroke-linejoin="round"/>
<path d="M170.359 146.459V108.759H0.65918V146.459H7.25918" stroke="#5C5C5C" stroke-width="0.5788" stroke-miterlimit="10" stroke-linecap="round" stroke-linejoin="round"/>
<path d="M7.25977 146.759V115.659H163.76V146.759H170.36" stroke="#5C5C5C" stroke-width="0.5788" stroke-miterlimit="10" stroke-linecap="round" stroke-linejoin="round"/>
<path d="M7.25977 115.659V109.059" stroke="#5C5C5C" stroke-width="0.5788" stroke-miterlimit="10" stroke-linecap="round" stroke-linejoin="round"/>
<path d="M163.76 115.659V109.059" stroke="#5C5C5C" stroke-width="0.5788" stroke-miterlimit="10" stroke-linecap="round" stroke-linejoin="round"/>
<path d="M4.95996 23.7588H164.96" stroke="#5C5C5C" stroke-width="0.5189" stroke-miterlimit="10" stroke-linecap="round" stroke-linejoin="round"/>
<path d="M4.95977 23.7586H0.259766V20.0586H169.66V23.7586H164.96" stroke="#5C5C5C" stroke-width="0.5189" stroke-miterlimit="10" stroke-linecap="round" stroke-linejoin="round"/>
<path d="M89.7598 65.659V69.259H166.66V65.459" stroke="#C0C0BF" stroke-width="0.3907" stroke-miterlimit="10" stroke-linecap="round" stroke-linejoin="round"/>
<path d="M85.5596 69.2588V106.759H170.06V69.2588H85.5596Z" stroke="#5C5C5C" stroke-width="0.5788" stroke-miterlimit="10" stroke-linecap="round" stroke-linejoin="round"/>
<path d="M166.66 73.0586H89.7598V103.059H166.66V73.0586Z" stroke="#5C5C5C" stroke-width="0.5788" stroke-miterlimit="10" stroke-linecap="round" stroke-linejoin="round"/>
<path d="M4.85938 65.6592V69.2592H81.6594V65.6592" stroke="#C0C0BF" stroke-width="0.3927" stroke-miterlimit="10" stroke-linecap="round" stroke-linejoin="round"/>
<path d="M0.65918 69.2588V106.759H85.0592V69.2588H0.65918Z" stroke="#5C5C5C" stroke-width="0.5788" stroke-miterlimit="10" stroke-linecap="round" stroke-linejoin="round"/>
<path d="M81.6598 73.0586H4.75977V103.059H81.6598V73.0586Z" stroke="#5C5C5C" stroke-width="0.5788" stroke-miterlimit="10" stroke-linecap="round" stroke-linejoin="round"/>
<path d="M81.6594 73.0586H4.85938V103.059H81.6594V73.0586Z" stroke="#5C5C5C" stroke-width="0.5788" stroke-miterlimit="10" stroke-linecap="round" stroke-linejoin="round"/>
<path d="M134.959 79.759H121.459C121.159 79.759 120.859 79.459 120.859 79.159V77.559C120.859 77.259 121.159 76.959 121.459 76.959H128.159H134.859C135.159 76.959 135.459 77.259 135.459 77.559V79.159C135.559 79.459 135.259 79.759 134.959 79.759Z" fill="#C0C0BF" stroke="#5C5C5C" stroke-width="0.5788" stroke-miterlimit="10" stroke-linecap="round" stroke-linejoin="round"/>
<path d="M49.56 79.759H36.06C35.76 79.759 35.46 79.459 35.46 79.159V77.559C35.46 77.259 35.76 76.959 36.06 76.959H42.76H49.46C49.76 76.959 50.06 77.259 50.06 77.559V79.159C50.16 79.459 49.96 79.759 49.56 79.759Z" fill="#C0C0BF" stroke="#5C5C5C" stroke-width="0.5788" stroke-miterlimit="10" stroke-linecap="round" stroke-linejoin="round"/>
<path d="M426.859 3.95879H262.859V0.258789H431.559V3.95879H426.859Z" stroke="#5C5C5C" stroke-width="0.517" stroke-miterlimit="10" stroke-linecap="round" stroke-linejoin="round"/>
<path opacity="0.5" d="M426.56 49.0588L349.96 49.6588V45.7588H426.56V49.0588Z" fill="#D7D7D7"/>
<path opacity="0.5" d="M342.46 45.8594H266.56V49.7594H342.46V45.8594Z" fill="#D7D7D7"/>
<path d="M342.46 45.6592V49.3592" stroke="#C0C0BF" stroke-width="0.3844" stroke-miterlimit="10" stroke-linecap="round" stroke-linejoin="round"/>
<path d="M349.96 45.6592V49.3592" stroke="#C0C0BF" stroke-width="0.3844" stroke-miterlimit="10" stroke-linecap="round" stroke-linejoin="round"/>
<path d="M266.359 49.659V45.959" stroke="#C0C0BF" stroke-width="0.3844" stroke-miterlimit="10" stroke-linecap="round" stroke-linejoin="round"/>
<path d="M426.56 45.5586V49.2586" stroke="#C0C0BF" stroke-width="0.3844" stroke-miterlimit="10" stroke-linecap="round" stroke-linejoin="round"/>
<path opacity="0.5" d="M427.26 106.059H267.46V108.259H427.26V106.059Z" fill="#D7D7D7"/>
<path d="M427.159 106.359H267.359V108.259H427.159V106.359Z" stroke="#C0C0BF" stroke-width="0.2718" stroke-miterlimit="10" stroke-linecap="round" stroke-linejoin="round"/>
<path d="M431.659 145.859V108.259H262.659V145.859H269.259" stroke="#5C5C5C" stroke-width="0.5766" stroke-miterlimit="10" stroke-linecap="round" stroke-linejoin="round"/>
<path d="M269.26 145.859V114.859H425.16V145.859H431.66" stroke="#5C5C5C" stroke-width="0.5766" stroke-miterlimit="10" stroke-linecap="round" stroke-linejoin="round"/>
<path d="M269.26 114.859V108.259" stroke="#5C5C5C" stroke-width="0.5766" stroke-miterlimit="10" stroke-linecap="round" stroke-linejoin="round"/>
<path d="M425.159 114.859V108.259" stroke="#5C5C5C" stroke-width="0.5766" stroke-miterlimit="10" stroke-linecap="round" stroke-linejoin="round"/>
<path d="M428.36 53.0586H266.06V102.559H428.36V53.0586Z" stroke="#5C5C5C" stroke-width="0.5766" stroke-miterlimit="10" stroke-linecap="round" stroke-linejoin="round"/>
<path d="M262.659 105.959V49.6592H431.659V105.959H262.659Z" stroke="#5C5C5C" stroke-width="0.5766" stroke-miterlimit="10" stroke-linecap="round" stroke-linejoin="round"/>
<path d="M375.66 61.2586H319.46V58.5586H347.56H375.66V61.2586Z" fill="#C0C0BF" stroke="#5C5C5C" stroke-width="0.5766" stroke-miterlimit="10" stroke-linecap="round" stroke-linejoin="round"/>
<path opacity="0.5" d="M342.96 8.15918L266.46 8.05918V4.15918H342.96V8.15918Z" fill="#D7D7D7"/>
<path opacity="0.5" d="M427.659 8.25879L351.159 8.05879V4.25879H427.659V8.25879Z" fill="#D7D7D7"/>
<path d="M266.26 4.35938V7.65937" stroke="#C0C0BF" stroke-width="0.3844" stroke-miterlimit="10" stroke-linecap="round" stroke-linejoin="round"/>
<path d="M342.96 3.95898V8.15898" stroke="#C0C0BF" stroke-width="0.3844" stroke-miterlimit="10" stroke-linecap="round" stroke-linejoin="round"/>
<path d="M427.659 4.15918V7.85918" stroke="#C0C0BF" stroke-width="0.3844" stroke-miterlimit="10" stroke-linecap="round" stroke-linejoin="round"/>
<path d="M347.06 8.45898V45.859H431.16V8.45898H347.06Z" stroke="#5C5C5C" stroke-width="0.5766" stroke-miterlimit="10" stroke-linecap="round" stroke-linejoin="round"/>
<path d="M427.86 12.2588H351.26V42.1588H427.86V12.2588Z" stroke="#5C5C5C" stroke-width="0.5766" stroke-miterlimit="10" stroke-linecap="round" stroke-linejoin="round"/>
<path d="M262.859 8.45898V45.859H346.959V8.45898H262.859Z" stroke="#5C5C5C" stroke-width="0.5766" stroke-miterlimit="10" stroke-linecap="round" stroke-linejoin="round"/>
<path d="M343.16 12.1592H266.56V42.0592H343.16V12.1592Z" stroke="#5C5C5C" stroke-width="0.5766" stroke-miterlimit="10" stroke-linecap="round" stroke-linejoin="round"/>
<path d="M395.859 18.9592H382.459C382.159 18.9592 381.859 18.6592 381.859 18.3592V16.7592C381.859 16.4592 382.159 16.1592 382.459 16.1592H389.159H395.859C396.159 16.1592 396.459 16.4592 396.459 16.7592V18.3592C396.459 18.6592 396.159 18.9592 395.859 18.9592Z" fill="#C0C0BF" stroke="#5C5C5C" stroke-width="0.5766" stroke-miterlimit="10" stroke-linecap="round" stroke-linejoin="round"/>
<path d="M311.26 18.9592H297.86C297.56 18.9592 297.26 18.6592 297.26 18.3592V16.7592C297.26 16.4592 297.56 16.1592 297.86 16.1592H304.56H311.26C311.56 16.1592 311.86 16.4592 311.86 16.7592V18.3592C311.86 18.6592 311.56 18.9592 311.26 18.9592Z" fill="#C0C0BF" stroke="#5C5C5C" stroke-width="0.5766" stroke-miterlimit="10" stroke-linecap="round" stroke-linejoin="round"/>
<path d="M351.46 3.95898V7.75898" stroke="#C0C0BF" stroke-width="0.3844" stroke-miterlimit="10" stroke-linecap="round" stroke-linejoin="round"/>
<path d="M584.76 64.7588V68.5588" stroke="#C0C0BF" stroke-width="0.3901" stroke-miterlimit="10" stroke-linecap="round" stroke-linejoin="round"/>
<path d="M584.759 72.3594H507.159V102.659H584.759V72.3594Z" stroke="#5C5C5C" stroke-width="0.5852" stroke-miterlimit="10" stroke-linecap="round" stroke-linejoin="round"/>
<path d="M583.859 106.459V108.359C572.559 108.359 561.259 108.359 550.059 108.359C547.359 108.359 544.659 108.359 541.959 108.359C530.659 108.359 519.359 108.359 508.159 108.359C508.159 107.759 508.159 107.059 508.159 106.459" stroke="#C0C0BF" stroke-width="0.0582107" stroke-miterlimit="10" stroke-linecap="round" stroke-linejoin="round"/>
<path d="M508.06 106.559V108.359H583.86V106.559" stroke="#C0C0BF" stroke-width="0.3901" stroke-miterlimit="10" stroke-linecap="round" stroke-linejoin="round"/>
<path d="M588.459 146.259V108.459H503.359V146.259H510.059V115.059H581.859V146.259H588.459Z" stroke="#5C5C5C" stroke-width="0.5852" stroke-miterlimit="10" stroke-linecap="round" stroke-linejoin="round"/>
<path d="M510.06 115.059V108.459" stroke="#5C5C5C" stroke-width="0.5852" stroke-miterlimit="10" stroke-linecap="round" stroke-linejoin="round"/>
<path d="M581.859 115.059V108.459" stroke="#5C5C5C" stroke-width="0.5852" stroke-miterlimit="10" stroke-linecap="round" stroke-linejoin="round"/>
<circle cx="510.059" cy="115.059" r="0.0291054" fill="#C0C0BF"/>
<circle cx="581.859" cy="115.059" r="0.0291054" fill="#C0C0BF"/>
<path d="M588.56 64.7588H507.06" stroke="#5C5C5C" stroke-width="0.5852" stroke-miterlimit="10" stroke-linecap="round" stroke-linejoin="round"/>
<path d="M507.06 68.5588V64.7588" stroke="#C0C0BF" stroke-width="0.3901" stroke-miterlimit="10" stroke-linecap="round" stroke-linejoin="round"/>
<path d="M507.06 64.759H503.26V60.959H588.56V64.759" stroke="#5C5C5C" stroke-width="0.5852" stroke-miterlimit="10" stroke-linecap="round" stroke-linejoin="round"/>
<circle cx="588.559" cy="60.9588" r="0.0291054" fill="#C0C0BF"/>
<circle cx="588.559" cy="64.7586" r="0.0291054" fill="#C0C0BF"/>
<circle cx="507.059" cy="64.7586" r="0.0291054" fill="#C0C0BF"/>
<circle cx="507.059" cy="68.2586" r="0.0291054" fill="#C0C0BF"/>
<circle cx="507.059" cy="68.2586" r="0.0291054" fill="#C0C0BF"/>
<path d="M503.26 68.5586V106.459H588.56V68.5586H503.26Z" stroke="#5C5C5C" stroke-width="0.5852" stroke-miterlimit="10" stroke-linecap="round" stroke-linejoin="round"/>
<path opacity="0.5" d="M582.26 60.759H509.56C508.66 60.759 507.96 60.059 507.96 59.159V57.559C507.96 56.659 508.66 55.959 509.56 55.959H582.26C583.16 55.959 583.86 56.659 583.86 57.559V59.159C583.76 60.059 583.06 60.759 582.26 60.759Z" fill="#D7D7D7" stroke="#3D3F3F" stroke-width="0.5817" stroke-miterlimit="10"/>
<path d="M552.76 79.3586H539.06C538.76 79.3586 538.46 79.0586 538.46 78.7586V77.1586C538.46 76.8586 538.76 76.5586 539.06 76.5586H545.86H552.66C552.96 76.5586 553.26 76.8586 553.26 77.1586V78.7586C553.36 79.0586 553.06 79.3586 552.76 79.3586Z" fill="#C0C0BF" stroke="#5C5C5C" stroke-width="0.5852" stroke-miterlimit="10" stroke-linecap="round" stroke-linejoin="round"/>
<g opacity="0.5">
<path d="M735.76 65.459H673.26V69.259H735.76V65.459Z" fill="#D7D7D7"/>
</g>
<g opacity="0.5">
<path d="M742.359 107.159H666.659V109.059H742.359V107.159Z" fill="#D7D7D7"/>
</g>
<path d="M742.359 107.159V109.059C731.059 109.059 719.859 109.059 708.559 109.059C705.859 109.059 703.159 109.059 700.459 109.059C689.159 109.059 677.959 109.059 666.659 109.059C666.659 108.459 666.659 107.759 666.659 107.159" stroke="#C0C0BF" stroke-width="0.3901" stroke-miterlimit="10" stroke-linecap="round" stroke-linejoin="round"/>
<path d="M735.76 65.459H673.26V69.259H735.76V65.459Z" stroke="#C0C0BF" stroke-width="0.3901" stroke-miterlimit="10" stroke-linecap="round" stroke-linejoin="round"/>
<path d="M661.859 69.2588V107.159H747.059V69.2588H661.859Z" stroke="#5C5C5C" stroke-width="0.5852" stroke-miterlimit="10" stroke-linecap="round" stroke-linejoin="round"/>
<path d="M743.259 73.0586H665.659V103.359H743.259V73.0586Z" stroke="#5C5C5C" stroke-width="0.5852" stroke-miterlimit="10" stroke-linecap="round" stroke-linejoin="round"/>
<path d="M710.559 79.8586H696.959C696.659 79.8586 696.359 79.5586 696.359 79.2586V77.6586C696.359 77.3586 696.659 77.0586 696.959 77.0586H710.559C710.859 77.0586 711.159 77.3586 711.159 77.6586V79.2586C711.159 79.5586 710.859 79.8586 710.559 79.8586Z" fill="#C0C0BF" stroke="#5C5C5C" stroke-width="0.5852" stroke-miterlimit="10" stroke-linecap="round" stroke-linejoin="round"/>
<path d="M746.96 146.859V109.059H662.06V146.859H668.66V115.659H740.36V146.859H746.96Z" stroke="#5C5C5C" stroke-width="0.5852" stroke-miterlimit="10" stroke-linecap="round" stroke-linejoin="round"/>
<path d="M668.659 115.659V109.059" stroke="#5C5C5C" stroke-width="0.5852" stroke-miterlimit="10" stroke-linecap="round" stroke-linejoin="round"/>
<path d="M740.359 115.659V109.059" stroke="#5C5C5C" stroke-width="0.5852" stroke-miterlimit="10" stroke-linecap="round" stroke-linejoin="round"/>
<circle cx="668.66" cy="115.659" r="0.0290692" fill="#C0C0BF"/>
<circle cx="740.359" cy="115.659" r="0.0290692" fill="#C0C0BF"/>
<path d="M747.059 23.8594H665.659" stroke="#5C5C5C" stroke-width="0.5852" stroke-miterlimit="10" stroke-linecap="round" stroke-linejoin="round"/>
<path d="M665.659 23.8586H661.859V20.0586H747.059V23.8586" stroke="#5C5C5C" stroke-width="0.5852" stroke-miterlimit="10" stroke-linecap="round" stroke-linejoin="round"/>
<path d="M665.659 27.5584V23.8584" stroke="#5C5C5C" stroke-width="0.5852" stroke-miterlimit="10" stroke-linecap="round" stroke-linejoin="round"/>
<circle cx="747.059" cy="20.0593" r="0.0290692" fill="#C0C0BF"/>
<circle cx="747.059" cy="23.8591" r="0.0290692" fill="#C0C0BF"/>
<circle cx="665.66" cy="23.8591" r="0.0290692" fill="#C0C0BF"/>
<path d="M743.359 23.8594V27.5594" stroke="#5C5C5C" stroke-width="0.5852" stroke-miterlimit="10" stroke-linecap="round" stroke-linejoin="round"/>
<path d="M743.259 31.3594H665.659V61.6594H743.259V31.3594Z" stroke="#5C5C5C" stroke-width="0.5852" stroke-miterlimit="10"/>
<path d="M661.859 27.5586V65.4586H747.059V27.5586H661.859Z" stroke="#5C5C5C" stroke-width="0.5852" stroke-miterlimit="10" stroke-linecap="round" stroke-linejoin="round"/>
</svg>
