<svg width="1069" height="311" viewBox="0 0 1069 311" fill="none" xmlns="http://www.w3.org/2000/svg">
<g clip-path="url(#clip0_0_1)">
<path opacity="0.5" d="M166.9 186.899H91.0996V190.599H166.9V186.899Z" fill="#D7D7D7"/>
<path opacity="0.5" d="M80.9996 186.6H5.09961V190.3H80.9996V186.6Z" fill="#D7D7D7"/>
<path d="M91.0996 186.899V190.599H166.9V187.199" stroke="#C0C0BF" stroke-width="0.3712" stroke-miterlimit="10" stroke-linecap="round" stroke-linejoin="round"/>
<path d="M5.09961 186.8V190.3H80.9996V186.6" stroke="#C0C0BF" stroke-width="0.373" stroke-miterlimit="10" stroke-linecap="round" stroke-linejoin="round"/>
<path opacity="0.5" d="M167.2 228.5H5.2002V231.1H167.2V228.5Z" fill="#D7D7D7"/>
<path opacity="0.5" d="M167.1 145.3H91.4004V148.6H167.1V145.3Z" fill="#D7D7D7"/>
<path opacity="0.5" d="M167.2 145.1H91.4004V148.5H167.2V145.1Z" stroke="#D7D7D7" stroke-width="0.0584157" stroke-miterlimit="10"/>
<path d="M91.4004 144.8V148.6H167.3V144.8" stroke="#C0C0BF" stroke-width="0.3901" stroke-miterlimit="10" stroke-linecap="round" stroke-linejoin="round"/>
<path d="M168.2 152.6H90.4004V182.9H168.2V152.6Z" fill="white" stroke="#3C3C3B" stroke-width="0.5852" stroke-miterlimit="10"/>
<path d="M82.0002 152.5H4.2002V182.8H82.0002V152.5Z" fill="white" stroke="#3C3C3B" stroke-width="0.5852" stroke-miterlimit="10"/>
<path d="M86.2998 148.7V186.6H171.6V148.7H86.2998Z" stroke="#5C5C5C" stroke-width="0.5852" stroke-miterlimit="10" stroke-linecap="round" stroke-linejoin="round"/>
<path d="M168.2 152.5H90.4004V182.8H168.2V152.5Z" stroke="#5C5C5C" stroke-width="0.5852" stroke-miterlimit="10" stroke-linecap="round" stroke-linejoin="round"/>
<path opacity="0.5" d="M83.3996 145.2H4.59961V148.7H83.3996V145.2Z" fill="#D7D7D7"/>
<path d="M83.4004 144.8V148.7" stroke="#C0C0BF" stroke-width="0.3901" stroke-miterlimit="10" stroke-linecap="round" stroke-linejoin="round"/>
<path d="M4.59961 145.6V148.7" stroke="#5C5C5C" stroke-width="0.5852" stroke-miterlimit="10" stroke-linecap="round" stroke-linejoin="round"/>
<path d="M0.400391 148.7V186.6H85.8004V148.7H0.400391Z" stroke="#5C5C5C" stroke-width="0.5852" stroke-miterlimit="10" stroke-linecap="round" stroke-linejoin="round"/>
<g opacity="0.5">
<path d="M82.0002 152.5H4.2002V182.8H82.0002V152.5Z" fill="#D7D7D7"/>
</g>
<path d="M5.6998 144.8H0.299805V141H171V144.8H166.3H7.5998H5.6998Z" stroke="#5C5C5C" stroke-width="0.5852" stroke-miterlimit="10" stroke-linecap="round" stroke-linejoin="round"/>
<path d="M4.2002 194.2V224.7H167.3V194.2H4.2002Z" stroke="#5C5C5C" stroke-width="0.5852" stroke-miterlimit="10" stroke-linecap="round" stroke-linejoin="round"/>
<path d="M167.1 228.5V231.1H5.2002V228.5" stroke="#C0C0BF" stroke-width="0.3901" stroke-miterlimit="10" stroke-linecap="round" stroke-linejoin="round"/>
<path d="M0.400391 307V231.1H171.6V307H165V237.7H7.10039V307H0.400391Z" stroke="#5C5C5C" stroke-width="0.5852" stroke-miterlimit="10" stroke-linecap="round" stroke-linejoin="round"/>
<path d="M7.09961 269H165" stroke="#5C5C5C" stroke-width="0.5852" stroke-miterlimit="10" stroke-linecap="round" stroke-linejoin="round"/>
<path d="M7.09961 275.7H165" stroke="#5C5C5C" stroke-width="0.5852" stroke-miterlimit="10" stroke-linecap="round" stroke-linejoin="round"/>
<circle cx="171.6" cy="231.1" r="0.2926" fill="#5C5C5C"/>
<path d="M171.6 228.5V190.4H0.400391V228.5H171.6Z" stroke="#5C5C5C" stroke-width="0.5852" stroke-miterlimit="10" stroke-linecap="round" stroke-linejoin="round"/>
<path d="M7.09961 237.7V231.1" stroke="#5C5C5C" stroke-width="0.5852" stroke-miterlimit="10" stroke-linecap="round" stroke-linejoin="round"/>
<path d="M165 237.7V231.1" stroke="#5C5C5C" stroke-width="0.5852" stroke-miterlimit="10" stroke-linecap="round" stroke-linejoin="round"/>
<path opacity="0.5" d="M268.1 161.4V157.4H470.5V161.4" fill="#D7D7D7"/>
<path d="M470.5 161.4V157.4H268.1V161.4" stroke="#C0C0BF" stroke-width="0.4663" stroke-miterlimit="10" stroke-linecap="round" stroke-linejoin="round"/>
<path d="M267.8 209.4V212.5H470.2V209.4" stroke="#C0C0BF" stroke-width="0.4872" stroke-miterlimit="10" stroke-linecap="round" stroke-linejoin="round"/>
<path opacity="0.5" d="M470.2 209H267.8V212.2H470.2V209Z" fill="#D7D7D7"/>
<path d="M468.2 310V270.7H270.6V310H262.2V212.5H476.5V310H468.2Z" stroke="#5C5C5C" stroke-width="0.7308" stroke-miterlimit="10" stroke-linecap="round" stroke-linejoin="round"/>
<path d="M270.6 270.7V262.3H468.2V270.7" stroke="#5C5C5C" stroke-width="0.7343" stroke-miterlimit="10" stroke-linecap="round" stroke-linejoin="round"/>
<path d="M468.2 212.8H270.4V221.2H468.2V212.8Z" stroke="#5C5C5C" stroke-width="0.7308" stroke-miterlimit="10" stroke-linecap="round" stroke-linejoin="round"/>
<path d="M270.4 221.2V262.3" stroke="#5C5C5C" stroke-width="0.7308" stroke-miterlimit="10" stroke-linecap="round" stroke-linejoin="round"/>
<path d="M468.2 262.3V221.2" stroke="#5C5C5C" stroke-width="0.7308" stroke-miterlimit="10" stroke-linecap="round" stroke-linejoin="round"/>
<circle cx="374.9" cy="160.9" r="0.0363449" fill="#C0C0BF"/>
<circle cx="374.9" cy="160.9" r="0.0363449" fill="#C0C0BF"/>
<path d="M267.2 166.1V204.2H471.3" stroke="#5C5C5C" stroke-width="0.7308" stroke-miterlimit="10" stroke-linecap="round" stroke-linejoin="round"/>
<path d="M262.4 161.4H476.6V209" stroke="#5C5C5C" stroke-width="0.7308" stroke-miterlimit="10" stroke-linecap="round" stroke-linejoin="round"/>
<path d="M267.2 166.1H471.3V204.3" stroke="#5C5C5C" stroke-width="0.7308" stroke-miterlimit="10" stroke-linecap="round" stroke-linejoin="round"/>
<path d="M262.4 161.4V209H476.6" stroke="#5C5C5C" stroke-width="0.7308" stroke-miterlimit="10" stroke-linecap="round" stroke-linejoin="round"/>
<path d="M470.5 157.4V161.4" stroke="#C0C0BF" stroke-width="0.4663" stroke-miterlimit="10" stroke-linecap="round" stroke-linejoin="round"/>
<path opacity="0.5" d="M267 9.79961V5.09961H472.7V9.79961" fill="#D7D7D7"/>
<path d="M267 5.09961V9.79961" stroke="#C0C0BF" stroke-width="0.3445" stroke-miterlimit="10" stroke-linecap="round" stroke-linejoin="round"/>
<path d="M472.7 5.09961V9.79961" stroke="#C0C0BF" stroke-width="0.3445" stroke-miterlimit="10" stroke-linecap="round" stroke-linejoin="round"/>
<path d="M472.7 14.0996H267V153.1H472.7V14.0996Z" stroke="#5C5C5C" stroke-width="0.7308" stroke-miterlimit="10" stroke-linecap="round" stroke-linejoin="round"/>
<path d="M357.9 26H278.9V141.2H357.9" stroke="#5C5C5C" stroke-width="0.7308" stroke-miterlimit="10" stroke-linecap="round" stroke-linejoin="round"/>
<path d="M381.7 141.2H460.8V26H381.7" stroke="#5C5C5C" stroke-width="0.7308" stroke-miterlimit="10" stroke-linecap="round" stroke-linejoin="round"/>
<path d="M262.7 157.4H476.9V9.7998H262.7V157.4Z" stroke="#5C5C5C" stroke-width="0.7308" stroke-miterlimit="10" stroke-linecap="round" stroke-linejoin="round"/>
<path d="M369.8 14.0996V153.2" stroke="#5C5C5C" stroke-width="0.7308" stroke-miterlimit="10" stroke-linecap="round" stroke-linejoin="round"/>
<path d="M381.7 14.0996V153.2" stroke="#5C5C5C" stroke-width="0.7308" stroke-miterlimit="10" stroke-linecap="round" stroke-linejoin="round"/>
<path d="M357.9 14.0996V153.2" stroke="#5C5C5C" stroke-width="0.7308" stroke-miterlimit="10" stroke-linecap="round" stroke-linejoin="round"/>
<path d="M278.9 25.9996V14.0996" stroke="#5C5C5C" stroke-width="0.7308" stroke-miterlimit="10" stroke-linecap="round" stroke-linejoin="round"/>
<path d="M278.9 141.2V153.2" stroke="#5C5C5C" stroke-width="0.7308" stroke-miterlimit="10" stroke-linecap="round" stroke-linejoin="round"/>
<path d="M460.8 141.2V153.2" stroke="#5C5C5C" stroke-width="0.7308" stroke-miterlimit="10" stroke-linecap="round" stroke-linejoin="round"/>
<path d="M460.8 25.9996V14.0996" stroke="#5C5C5C" stroke-width="0.7308" stroke-miterlimit="10" stroke-linecap="round" stroke-linejoin="round"/>
<circle cx="460.8" cy="26.0002" r="0.3654" fill="#5C5C5C"/>
<circle cx="262.7" cy="9.79997" r="0.3654" fill="#5C5C5C"/>
<circle cx="381.7" cy="26.0002" r="0.3654" fill="#5C5C5C"/>
<circle cx="369.8" cy="26.0002" r="0.3654" fill="#5C5C5C"/>
<circle cx="357.9" cy="14.0998" r="0.3654" fill="#5C5C5C"/>
<circle cx="318.4" cy="26.0002" r="0.3654" fill="#5C5C5C"/>
<circle cx="318.4" cy="14.0998" r="0.3654" fill="#5C5C5C"/>
<circle cx="311.6" cy="14.0998" r="0.3654" fill="#5C5C5C"/>
<path d="M268.3 5.0998H262.3V0.299805H476.2V5.0998H268.3Z" stroke="#5C5C5C" stroke-width="0.6552" stroke-miterlimit="10" stroke-linecap="round" stroke-linejoin="round"/>
<path d="M374 92.1998V75.0998C374 74.6998 374.3 74.2998 374.8 74.2998H376.9C377.3 74.2998 377.7 74.5998 377.7 75.0998V92.1998C377.7 92.5998 377.4 92.9998 376.9 92.9998H374.8C374.3 92.8998 374 92.5998 374 92.1998Z" fill="#C0C0BF" stroke="#5C5C5C" stroke-width="0.7308" stroke-miterlimit="10" stroke-linecap="round" stroke-linejoin="round"/>
<path d="M376.7 92.8998H374.9C374.4 92.8998 374 92.4998 374 91.9998V75.1998C374 74.6998 374.4 74.2998 374.9 74.2998H376.7C377.2 74.2998 377.6 74.6998 377.6 75.1998V91.9998C377.6 92.4998 377.2 92.8998 376.7 92.8998Z" fill="#C0C0BF" stroke="#5C5C5C" stroke-width="0.7308" stroke-miterlimit="10" stroke-linecap="round" stroke-linejoin="round"/>
<path d="M362.1 92.1998V75.0998C362.1 74.6998 362.4 74.2998 362.9 74.2998H365C365.4 74.2998 365.8 74.5998 365.8 75.0998V92.1998C365.8 92.5998 365.5 92.9998 365 92.9998H362.9C362.4 92.8998 362.1 92.5998 362.1 92.1998Z" fill="#C0C0BF" stroke="#5C5C5C" stroke-width="0.7308" stroke-miterlimit="10" stroke-linecap="round" stroke-linejoin="round"/>
<path d="M364.8 92.8998H363C362.5 92.8998 362.1 92.4998 362.1 91.9998V75.1998C362.1 74.6998 362.5 74.2998 363 74.2998H364.8C365.3 74.2998 365.7 74.6998 365.7 75.1998V91.9998C365.7 92.4998 365.3 92.8998 364.8 92.8998Z" fill="#C0C0BF" stroke="#5C5C5C" stroke-width="0.7308" stroke-miterlimit="10" stroke-linecap="round" stroke-linejoin="round"/>
<path opacity="0.5" d="M777.924 218.424H694.024V222.124H777.924V218.424Z" fill="#D7D7D7"/>
<path opacity="0.5" d="M778.024 218.124H694.024V221.824H778.024V218.124Z" stroke="#D7D7D7" stroke-width="0.0647386" stroke-miterlimit="10"/>
<path d="M693.925 217.924V222.124H778.025V217.924" stroke="#C0C0BF" stroke-width="0.4324" stroke-miterlimit="10" stroke-linecap="round" stroke-linejoin="round"/>
<path opacity="0.5" d="M685.025 218.324H597.725V222.224H685.025V218.324Z" fill="#D7D7D7"/>
<path d="M685.024 217.924V222.224" stroke="#C0C0BF" stroke-width="0.4324" stroke-miterlimit="10" stroke-linecap="round" stroke-linejoin="round"/>
<path d="M597.725 218.124V222.424" stroke="#C0C0BF" stroke-width="0.4324" stroke-miterlimit="10" stroke-linecap="round" stroke-linejoin="round"/>
<path opacity="0.5" d="M778.824 264.924H597.524V267.424H778.824V264.924Z" fill="#D7D7D7"/>
<path d="M597.524 264.724V267.424H778.724V264.724" stroke="#C0C0BF" stroke-width="0.4342" stroke-miterlimit="10" stroke-linecap="round" stroke-linejoin="round"/>
<path d="M783.424 309.724V267.424H593.324V309.724H600.724V274.824H776.024V309.724H783.424Z" stroke="#5C5C5C" stroke-width="0.6485" stroke-miterlimit="10" stroke-linecap="round" stroke-linejoin="round"/>
<path d="M600.725 274.824V267.424" stroke="#5C5C5C" stroke-width="0.6485" stroke-miterlimit="10" stroke-linecap="round" stroke-linejoin="round"/>
<path d="M776.024 274.824V267.424" stroke="#5C5C5C" stroke-width="0.6485" stroke-miterlimit="10" stroke-linecap="round" stroke-linejoin="round"/>
<path d="M597.524 226.524V260.324H598.624" stroke="#5C5C5C" stroke-width="0.6485" stroke-miterlimit="10" stroke-linecap="round" stroke-linejoin="round"/>
<path d="M593.324 222.324H783.424V264.524" stroke="#5C5C5C" stroke-width="0.6485" stroke-miterlimit="10" stroke-linecap="round" stroke-linejoin="round"/>
<path d="M597.524 226.524H778.724V260.424" stroke="#5C5C5C" stroke-width="0.6485" stroke-miterlimit="10" stroke-linecap="round" stroke-linejoin="round"/>
<path d="M598.624 264.524H783.424" stroke="#5C5C5C" stroke-width="0.6485" stroke-miterlimit="10" stroke-linecap="round" stroke-linejoin="round"/>
<path d="M598.624 260.324H778.124" stroke="#5C5C5C" stroke-width="0.6485" stroke-miterlimit="10" stroke-linecap="round" stroke-linejoin="round"/>
<circle cx="668.324" cy="218.124" r="0.32425" fill="#5C5C5C"/>
<path d="M593.324 222.324V264.524H598.624" stroke="#5C5C5C" stroke-width="0.6485" stroke-miterlimit="10" stroke-linecap="round" stroke-linejoin="round"/>
<circle cx="602.824" cy="218.124" r="0.32425" fill="#5C5C5C"/>
<path d="M593.324 214.324H783.424V218.124H593.324V214.324Z" stroke="#5C5C5C" stroke-width="0.6485" stroke-miterlimit="10" stroke-linecap="round" stroke-linejoin="round"/>
<circle cx="776.024" cy="214.324" r="0.32425" fill="#5C5C5C"/>
<circle cx="608.124" cy="214.324" r="0.32425" fill="#5C5C5C"/>
<circle cx="638.824" cy="214.324" r="0.32425" fill="#5C5C5C"/>
<circle cx="600.725" cy="214.324" r="0.32425" fill="#5C5C5C"/>
<circle cx="593.324" cy="214.324" r="0.32425" fill="#5C5C5C"/>
</g>
<path opacity="0.5" d="M1063.4 147.7H987.9V151H1063.4V147.7Z" fill="#D7D7D7"/>
<path opacity="0.5" d="M1063.5 147.5H987.9V150.8H1063.5V147.5Z" stroke="#D7D7D7" stroke-width="0.0582647" stroke-miterlimit="10"/>
<path d="M987.801 147.301V151.101H1063.5V147.301" stroke="#C0C0BF" stroke-width="0.3891" stroke-miterlimit="10" stroke-linecap="round" stroke-linejoin="round"/>
<path opacity="0.5" d="M979.8 147.7H901.2V151.2H979.8V147.7Z" fill="#D7D7D7"/>
<path d="M979.801 147.301V151.101" stroke="#C0C0BF" stroke-width="0.3891" stroke-miterlimit="10" stroke-linecap="round" stroke-linejoin="round"/>
<path d="M901.2 147.5V151.3" stroke="#C0C0BF" stroke-width="0.3891" stroke-miterlimit="10" stroke-linecap="round" stroke-linejoin="round"/>
<path opacity="0.5" d="M1064 188.9H988.5V193H1064V188.9Z" fill="#D7D7D7"/>
<path opacity="0.5" d="M1064.1 189.7H988.5V193H1064.1V189.7Z" stroke="#D7D7D7" stroke-width="0.0582647" stroke-miterlimit="10"/>
<path d="M988.4 189.4V193.2H1064.1V189.4" stroke="#C0C0BF" stroke-width="0.3891" stroke-miterlimit="10" stroke-linecap="round" stroke-linejoin="round"/>
<path opacity="0.5" d="M980.401 189.601H901.801V193.101H980.401V189.601Z" fill="#D7D7D7"/>
<path d="M980.4 189.2V193" stroke="#C0C0BF" stroke-width="0.3891" stroke-miterlimit="10" stroke-linecap="round" stroke-linejoin="round"/>
<path d="M901.801 189.4V193.2" stroke="#C0C0BF" stroke-width="0.3891" stroke-miterlimit="10" stroke-linecap="round" stroke-linejoin="round"/>
<path d="M897.301 144H1068.4V147.5H897.301V144Z" stroke="#5C5C5C" stroke-width="0.5837" stroke-miterlimit="10" stroke-linecap="round" stroke-linejoin="round"/>
<path opacity="0.5" d="M1064 231.601H902V234.201H1064V231.601Z" fill="#D7D7D7"/>
<path d="M1063.9 231.601V234.201H902V231.601" stroke="#C0C0BF" stroke-width="0.3901" stroke-miterlimit="10" stroke-linecap="round" stroke-linejoin="round"/>
<path d="M897.301 310.1V234.2H1068.5V310.1H1061.8V240.8H903.901V310.1H897.301Z" stroke="#5C5C5C" stroke-width="0.5852" stroke-miterlimit="10" stroke-linecap="round" stroke-linejoin="round"/>
<path d="M903.9 272.101H1061.8" stroke="#5C5C5C" stroke-width="0.5852" stroke-miterlimit="10" stroke-linecap="round" stroke-linejoin="round"/>
<path d="M903.9 278.801H1061.8" stroke="#5C5C5C" stroke-width="0.5852" stroke-miterlimit="10" stroke-linecap="round" stroke-linejoin="round"/>
<circle cx="1068.5" cy="234.201" r="0.2926" fill="#5C5C5C"/>
<circle cx="1068.5" cy="310.1" r="0.2926" fill="#5C5C5C"/>
<circle cx="1061.8" cy="310.201" r="0.2926" fill="#5C5C5C"/>
<path d="M903.9 240.8V234.2" stroke="#5C5C5C" stroke-width="0.5852" stroke-miterlimit="10" stroke-linecap="round" stroke-linejoin="round"/>
<path d="M1061.8 240.8V234.2" stroke="#5C5C5C" stroke-width="0.5852" stroke-miterlimit="10" stroke-linecap="round" stroke-linejoin="round"/>
<path d="M901.101 197V227.5H902.001" stroke="#5C5C5C" stroke-width="0.5837" stroke-miterlimit="10" stroke-linecap="round" stroke-linejoin="round"/>
<path d="M897.301 193.2H1068.4V231.3" stroke="#5C5C5C" stroke-width="0.5837" stroke-miterlimit="10" stroke-linecap="round" stroke-linejoin="round"/>
<path d="M901.101 197H1064.1V227.5" stroke="#5C5C5C" stroke-width="0.5837" stroke-miterlimit="10" stroke-linecap="round" stroke-linejoin="round"/>
<path d="M902 231.301H1068.4" stroke="#5C5C5C" stroke-width="0.5837" stroke-miterlimit="10" stroke-linecap="round" stroke-linejoin="round"/>
<path d="M902 227.5H1063.6" stroke="#5C5C5C" stroke-width="0.5837" stroke-miterlimit="10" stroke-linecap="round" stroke-linejoin="round"/>
<path d="M897.301 193.2V231.3H902.001" stroke="#5C5C5C" stroke-width="0.5837" stroke-miterlimit="10" stroke-linecap="round" stroke-linejoin="round"/>
<path d="M900.801 155.101V185.601H901.801" stroke="#5C5C5C" stroke-width="0.5837" stroke-miterlimit="10" stroke-linecap="round" stroke-linejoin="round"/>
<path d="M897 151.301H1068.2V189.401" stroke="#5C5C5C" stroke-width="0.5837" stroke-miterlimit="10" stroke-linecap="round" stroke-linejoin="round"/>
<path d="M900.801 155.101H1063.9V185.601" stroke="#5C5C5C" stroke-width="0.5837" stroke-miterlimit="10" stroke-linecap="round" stroke-linejoin="round"/>
<path d="M901.801 188.9H1068.2" stroke="#5C5C5C" stroke-width="0.5837" stroke-miterlimit="10" stroke-linecap="round" stroke-linejoin="round"/>
<path d="M901.801 185.601H1063.4" stroke="#5C5C5C" stroke-width="0.5837" stroke-miterlimit="10" stroke-linecap="round" stroke-linejoin="round"/>
<path d="M897 151.301V188.901H901.8" stroke="#5C5C5C" stroke-width="0.5837" stroke-miterlimit="10" stroke-linecap="round" stroke-linejoin="round"/>
<defs>
<clipPath id="clip0_0_1">
<rect width="1019.9" height="310.3" fill="white"/>
</clipPath>
</defs>
</svg>
