<svg width="950" height="247" viewBox="0 0 950 247" fill="none" xmlns="http://www.w3.org/2000/svg">
<path opacity="0.5" d="M944.893 128.189H869.893V124.789L944.893 124.989V128.189Z" fill="#D7D7D7"/>
<path opacity="0.5" d="M861.893 124.988H783.893V127.988H861.893V124.988Z" fill="#D7D7D7"/>
<path d="M944.992 127.888V124.988" stroke="#C0C0BF" stroke-width="0.3863" stroke-miterlimit="10" stroke-linecap="round" stroke-linejoin="round"/>
<path d="M869.893 124.988V127.888" stroke="#C0C0BF" stroke-width="0.3863" stroke-miterlimit="10" stroke-linecap="round" stroke-linejoin="round"/>
<path d="M861.893 124.988V127.988" stroke="#C0C0BF" stroke-width="0.3863" stroke-miterlimit="10" stroke-linecap="round" stroke-linejoin="round"/>
<path d="M783.893 124.988V128.188" stroke="#C0C0BF" stroke-width="0.3863" stroke-miterlimit="10" stroke-linecap="round" stroke-linejoin="round"/>
<path d="M949.292 121.088H779.692V124.888H949.292V121.088Z" stroke="#5C5C5C" stroke-width="0.5195" stroke-miterlimit="10" stroke-linecap="round" stroke-linejoin="round"/>
<path d="M786.093 121.089V0.289062H792.793V121.089" stroke="#5C5C5C" stroke-width="0.5795" stroke-miterlimit="10" stroke-linecap="round" stroke-linejoin="round"/>
<path d="M942.792 121.089V0.289062H936.192V121.089" stroke="#5C5C5C" stroke-width="0.5795" stroke-miterlimit="10" stroke-linecap="round" stroke-linejoin="round"/>
<path d="M936.193 67.0879H792.793" stroke="#5C5C5C" stroke-width="0.5795" stroke-miterlimit="10" stroke-linecap="round" stroke-linejoin="round"/>
<path d="M792.793 64.8887H936.193" stroke="#5C5C5C" stroke-width="0.5795" stroke-miterlimit="10" stroke-linecap="round" stroke-linejoin="round"/>
<path d="M792.793 10.8879V8.58789" stroke="#5C5C5C" stroke-width="0.5795" stroke-miterlimit="10" stroke-linecap="round" stroke-linejoin="round"/>
<path d="M936.193 10.8887H792.793" stroke="#5C5C5C" stroke-width="0.5795" stroke-miterlimit="10" stroke-linecap="round" stroke-linejoin="round"/>
<path d="M792.793 8.58789H936.193" stroke="#5C5C5C" stroke-width="0.5795" stroke-miterlimit="10" stroke-linecap="round" stroke-linejoin="round"/>
<path d="M936.193 10.8887H794.093" stroke="#5C5C5C" stroke-width="0.5795" stroke-miterlimit="10" stroke-linecap="round" stroke-linejoin="round"/>
<path d="M936.193 70.8887H792.793" stroke="#5C5C5C" stroke-width="0.5795" stroke-miterlimit="10" stroke-linecap="round" stroke-linejoin="round"/>
<path d="M792.793 14.0879H936.193" stroke="#5C5C5C" stroke-width="0.5795" stroke-miterlimit="10" stroke-linecap="round" stroke-linejoin="round"/>
<circle cx="936.192" cy="70.8874" r="0.28975" fill="#5C5C5C"/>
<circle cx="792.793" cy="10.8874" r="0.28975" fill="#5C5C5C"/>
<circle cx="818.793" cy="10.8874" r="0.28975" fill="#5C5C5C"/>
<path d="M783.893 166.289V168.689H944.393V166.289" stroke="#C0C0BF" stroke-width="0.3863" stroke-miterlimit="10" stroke-linecap="round" stroke-linejoin="round"/>
<path opacity="0.5" d="M944.393 165.889H783.893V168.389H944.393V165.889Z" fill="#D7D7D7"/>
<path d="M949.392 245.988V168.688H779.492V245.988H786.192V214.887H942.792V245.988H949.392Z" stroke="#5C5C5C" stroke-width="0.5795" stroke-miterlimit="10" stroke-linecap="round" stroke-linejoin="round"/>
<path d="M786.192 214.887V208.188H942.792V214.887" stroke="#5C5C5C" stroke-width="0.5823" stroke-miterlimit="10" stroke-linecap="round" stroke-linejoin="round"/>
<path d="M942.792 168.988H785.992V175.688H942.792V168.988Z" stroke="#5C5C5C" stroke-width="0.5795" stroke-miterlimit="10" stroke-linecap="round" stroke-linejoin="round"/>
<path d="M785.992 176.188V208.688" stroke="#5C5C5C" stroke-width="0.5795" stroke-miterlimit="10" stroke-linecap="round" stroke-linejoin="round"/>
<path d="M942.793 208.188V175.688" stroke="#5C5C5C" stroke-width="0.5795" stroke-miterlimit="10" stroke-linecap="round" stroke-linejoin="round"/>
<path d="M783.293 131.988V162.188H784.293" stroke="#5C5C5C" stroke-width="0.5795" stroke-miterlimit="10" stroke-linecap="round" stroke-linejoin="round"/>
<path d="M779.593 128.188H949.493V165.887" stroke="#5C5C5C" stroke-width="0.5795" stroke-miterlimit="10" stroke-linecap="round" stroke-linejoin="round"/>
<path d="M783.293 131.889H945.193V162.189" stroke="#5C5C5C" stroke-width="0.5795" stroke-miterlimit="10" stroke-linecap="round" stroke-linejoin="round"/>
<path d="M784.293 165.889H949.493" stroke="#5C5C5C" stroke-width="0.5795" stroke-miterlimit="10" stroke-linecap="round" stroke-linejoin="round"/>
<path d="M784.293 162.188H944.693" stroke="#5C5C5C" stroke-width="0.5795" stroke-miterlimit="10" stroke-linecap="round" stroke-linejoin="round"/>
<path d="M779.593 128.188V165.887H784.293" stroke="#5C5C5C" stroke-width="0.5795" stroke-miterlimit="10" stroke-linecap="round" stroke-linejoin="round"/>
<path opacity="0.5" d="M687.093 126.889H612.093V130.589H687.093V126.889Z" fill="#D7D7D7"/>
<path opacity="0.5" d="M601.992 126.588H526.992V130.288H601.992V126.588Z" fill="#D7D7D7"/>
<path d="M611.992 126.889V130.489H687.092V127.089" stroke="#C0C0BF" stroke-width="0.3671" stroke-miterlimit="10" stroke-linecap="round" stroke-linejoin="round"/>
<path d="M526.992 126.788V130.188H602.092V126.588" stroke="#C0C0BF" stroke-width="0.3689" stroke-miterlimit="10" stroke-linecap="round" stroke-linejoin="round"/>
<path opacity="0.5" d="M687.593 168.188H527.393V170.688H687.593V168.188Z" fill="#D7D7D7"/>
<path d="M687.593 168.188V170.788H527.393V168.188" stroke="#C0C0BF" stroke-width="0.3859" stroke-miterlimit="10" stroke-linecap="round" stroke-linejoin="round"/>
<path d="M522.393 245.889V170.789H691.693V245.889H685.093V177.289H528.993V245.889H522.393Z" stroke="#5C5C5C" stroke-width="0.5788" stroke-miterlimit="10" stroke-linecap="round" stroke-linejoin="round"/>
<path d="M528.992 208.289H685.092" stroke="#5C5C5C" stroke-width="0.5788" stroke-miterlimit="10" stroke-linecap="round" stroke-linejoin="round"/>
<path d="M528.992 214.889H685.092" stroke="#5C5C5C" stroke-width="0.5788" stroke-miterlimit="10" stroke-linecap="round" stroke-linejoin="round"/>
<path d="M526.093 134.088V164.188H687.493V134.088H526.093Z" stroke="#575756" stroke-width="0.5788" stroke-miterlimit="10" stroke-linecap="round" stroke-linejoin="round"/>
<path d="M691.693 167.989V130.289H522.393V167.989H691.693Z" stroke="#5C5C5C" stroke-width="0.5788" stroke-miterlimit="10" stroke-linecap="round" stroke-linejoin="round"/>
<path opacity="0.5" d="M525.492 9.68867V5.88867H688.392V9.68867" fill="#D7D7D7"/>
<path d="M525.492 5.88867V9.68867" stroke="#C0C0BF" stroke-width="0.2728" stroke-miterlimit="10" stroke-linecap="round" stroke-linejoin="round"/>
<path d="M688.393 5.88867V9.68867" stroke="#C0C0BF" stroke-width="0.2728" stroke-miterlimit="10" stroke-linecap="round" stroke-linejoin="round"/>
<path d="M688.392 12.9883H525.492V123.088H688.392V12.9883Z" stroke="#5C5C5C" stroke-width="0.5788" stroke-miterlimit="10" stroke-linecap="round" stroke-linejoin="round"/>
<path d="M597.493 22.4883H534.893V113.688H597.493" stroke="#5C5C5C" stroke-width="0.5788" stroke-miterlimit="10" stroke-linecap="round" stroke-linejoin="round"/>
<path d="M616.393 113.688H678.993V22.4883H616.393" stroke="#5C5C5C" stroke-width="0.5788" stroke-miterlimit="10" stroke-linecap="round" stroke-linejoin="round"/>
<path d="M522.093 126.588H691.793V9.6875H522.093V126.588Z" stroke="#5C5C5C" stroke-width="0.5788" stroke-miterlimit="10" stroke-linecap="round" stroke-linejoin="round"/>
<path d="M606.992 12.9883V123.188" stroke="#5C5C5C" stroke-width="0.5788" stroke-miterlimit="10" stroke-linecap="round" stroke-linejoin="round"/>
<path d="M616.393 12.9883V123.188" stroke="#5C5C5C" stroke-width="0.5788" stroke-miterlimit="10" stroke-linecap="round" stroke-linejoin="round"/>
<path d="M597.492 12.9883V123.188" stroke="#5C5C5C" stroke-width="0.5788" stroke-miterlimit="10" stroke-linecap="round" stroke-linejoin="round"/>
<path d="M534.893 22.4883V12.9883" stroke="#5C5C5C" stroke-width="0.5788" stroke-miterlimit="10" stroke-linecap="round" stroke-linejoin="round"/>
<path d="M534.893 113.688V123.188" stroke="#5C5C5C" stroke-width="0.5788" stroke-miterlimit="10" stroke-linecap="round" stroke-linejoin="round"/>
<path d="M678.992 113.688V123.188" stroke="#5C5C5C" stroke-width="0.5788" stroke-miterlimit="10" stroke-linecap="round" stroke-linejoin="round"/>
<path d="M678.992 22.4883V12.9883" stroke="#5C5C5C" stroke-width="0.5788" stroke-miterlimit="10" stroke-linecap="round" stroke-linejoin="round"/>
<circle cx="534.893" cy="123.188" r="0.2894" fill="#5C5C5C"/>
<circle cx="597.493" cy="123.188" r="0.2894" fill="#5C5C5C"/>
<circle cx="616.393" cy="123.188" r="0.2894" fill="#5C5C5C"/>
<circle cx="678.993" cy="123.188" r="0.2894" fill="#5C5C5C"/>
<circle cx="678.993" cy="22.4886" r="0.2894" fill="#5C5C5C"/>
<circle cx="522.092" cy="9.68784" r="0.2894" fill="#5C5C5C"/>
<circle cx="616.393" cy="22.4886" r="0.2894" fill="#5C5C5C"/>
<circle cx="606.993" cy="22.4886" r="0.2894" fill="#5C5C5C"/>
<circle cx="597.493" cy="12.9886" r="0.2894" fill="#5C5C5C"/>
<circle cx="597.493" cy="123.188" r="0.2894" fill="#5C5C5C"/>
<circle cx="588.893" cy="123.188" r="0.2894" fill="#5C5C5C"/>
<circle cx="566.193" cy="22.4886" r="0.2894" fill="#5C5C5C"/>
<circle cx="566.193" cy="12.9886" r="0.2894" fill="#5C5C5C"/>
<circle cx="560.792" cy="12.9886" r="0.2894" fill="#5C5C5C"/>
<path d="M526.493 5.88789H521.793V2.08789H691.193V5.88789H526.493Z" stroke="#5C5C5C" stroke-width="0.5189" stroke-miterlimit="10" stroke-linecap="round" stroke-linejoin="round"/>
<path d="M609.793 74.8875V61.2875C609.793 60.9875 610.093 60.6875 610.393 60.6875H611.993C612.293 60.6875 612.593 60.9875 612.593 61.2875V74.7875C612.593 75.0875 612.293 75.3875 611.993 75.3875H610.393C610.093 75.4875 609.793 75.1875 609.793 74.8875Z" fill="#C0C0BF" stroke="#5C5C5C" stroke-width="0.5788" stroke-miterlimit="10" stroke-linecap="round" stroke-linejoin="round"/>
<path d="M611.993 75.4875H610.493C610.093 75.4875 609.793 75.1875 609.793 74.7875V61.3875C609.793 60.9875 610.093 60.6875 610.493 60.6875H611.993C612.393 60.6875 612.693 60.9875 612.693 61.3875V74.6875C612.693 75.0875 612.293 75.4875 611.993 75.4875Z" fill="#C0C0BF" stroke="#5C5C5C" stroke-width="0.5788" stroke-miterlimit="10" stroke-linecap="round" stroke-linejoin="round"/>
<path d="M600.393 74.8875V61.2875C600.393 60.9875 600.693 60.6875 600.993 60.6875H602.593C602.893 60.6875 603.193 60.9875 603.193 61.2875V74.7875C603.193 75.0875 602.893 75.3875 602.593 75.3875H600.993C600.693 75.4875 600.393 75.1875 600.393 74.8875Z" fill="#C0C0BF" stroke="#5C5C5C" stroke-width="0.5788" stroke-miterlimit="10" stroke-linecap="round" stroke-linejoin="round"/>
<path d="M602.493 75.4875H600.993C600.593 75.4875 600.293 75.1875 600.293 74.7875V61.3875C600.293 60.9875 600.593 60.6875 600.993 60.6875H602.493C602.893 60.6875 603.193 60.9875 603.193 61.3875V74.6875C603.193 75.0875 602.893 75.4875 602.493 75.4875Z" fill="#C0C0BF" stroke="#5C5C5C" stroke-width="0.5788" stroke-miterlimit="10" stroke-linecap="round" stroke-linejoin="round"/>
<path opacity="0.5" d="M429.992 126.088H354.192V129.788H429.992V126.088Z" fill="#D7D7D7"/>
<path opacity="0.5" d="M344.092 125.688H268.192V129.387H344.092V125.688Z" fill="#D7D7D7"/>
<path d="M354.192 126.088V129.688H429.992V126.288" stroke="#C0C0BF" stroke-width="0.3712" stroke-miterlimit="10" stroke-linecap="round" stroke-linejoin="round"/>
<path d="M268.192 125.988V129.387H344.092V125.688" stroke="#C0C0BF" stroke-width="0.373" stroke-miterlimit="10" stroke-linecap="round" stroke-linejoin="round"/>
<path opacity="0.5" d="M430.293 167.588H268.293V170.188H430.293V167.588Z" fill="#D7D7D7"/>
<path opacity="0.5" d="M430.192 84.3887H354.492V87.6887H430.192V84.3887Z" fill="#D7D7D7"/>
<path opacity="0.5" d="M430.292 84.1875H354.492V87.5875H430.292V84.1875Z" stroke="#D7D7D7" stroke-width="0.0584157" stroke-miterlimit="10"/>
<path d="M354.492 83.9883V87.7883H430.292V83.9883" stroke="#C0C0BF" stroke-width="0.3901" stroke-miterlimit="10" stroke-linecap="round" stroke-linejoin="round"/>
<path d="M431.292 91.7891H353.492V122.089H431.292V91.7891Z" fill="white" stroke="#3C3C3B" stroke-width="0.5852" stroke-miterlimit="10"/>
<path d="M345.093 91.5879H267.293V121.888H345.093V91.5879Z" fill="white" stroke="#3C3C3B" stroke-width="0.5852" stroke-miterlimit="10"/>
<path d="M349.393 87.7891V125.789H434.693V87.7891H349.393Z" stroke="#5C5C5C" stroke-width="0.5852" stroke-miterlimit="10" stroke-linecap="round" stroke-linejoin="round"/>
<path d="M431.292 91.5879H353.492V121.888H431.292V91.5879Z" stroke="#5C5C5C" stroke-width="0.5852" stroke-miterlimit="10" stroke-linecap="round" stroke-linejoin="round"/>
<path opacity="0.5" d="M346.492 84.3887H267.692V87.8887H346.492V84.3887Z" fill="#D7D7D7"/>
<path d="M346.393 83.9883V87.8883" stroke="#C0C0BF" stroke-width="0.3901" stroke-miterlimit="10" stroke-linecap="round" stroke-linejoin="round"/>
<path d="M267.692 84.7891V87.8891" stroke="#5C5C5C" stroke-width="0.5852" stroke-miterlimit="10" stroke-linecap="round" stroke-linejoin="round"/>
<path d="M263.492 87.7891V125.789H348.892V87.7891H263.492Z" stroke="#5C5C5C" stroke-width="0.5852" stroke-miterlimit="10" stroke-linecap="round" stroke-linejoin="round"/>
<g opacity="0.5">
<path d="M345.093 91.5879H267.293V121.888H345.093V91.5879Z" fill="#D7D7D7"/>
</g>
<path d="M268.793 83.9875H263.393V80.1875H434.093V83.9875H429.293H270.693H268.793Z" stroke="#5C5C5C" stroke-width="0.5852" stroke-miterlimit="10" stroke-linecap="round" stroke-linejoin="round"/>
<path d="M377.193 139.887H320.093V137.188H377.193V139.887Z" fill="#C0C0BF" stroke="#5C5C5C" stroke-width="0.5852" stroke-miterlimit="10" stroke-linecap="round" stroke-linejoin="round"/>
<path d="M267.293 133.389V163.789H430.393V133.289H267.293" stroke="#5C5C5C" stroke-width="0.5852" stroke-miterlimit="10" stroke-linecap="round" stroke-linejoin="round"/>
<path d="M430.193 167.588V170.188H268.293V167.588" stroke="#C0C0BF" stroke-width="0.3901" stroke-miterlimit="10" stroke-linecap="round" stroke-linejoin="round"/>
<path d="M263.492 246.088V170.188H434.692V246.188H428.092V246.088V176.887H270.192V246.088H263.492Z" stroke="#5C5C5C" stroke-width="0.5852" stroke-miterlimit="10" stroke-linecap="round" stroke-linejoin="round"/>
<path d="M270.192 208.188H428.092" stroke="#5C5C5C" stroke-width="0.5852" stroke-miterlimit="10" stroke-linecap="round" stroke-linejoin="round"/>
<path d="M270.192 214.789H428.092" stroke="#5C5C5C" stroke-width="0.5852" stroke-miterlimit="10" stroke-linecap="round" stroke-linejoin="round"/>
<circle cx="434.693" cy="170.189" r="0.2926" fill="#5C5C5C"/>
<path d="M434.692 167.588V129.588H263.492V167.588H434.692Z" stroke="#5C5C5C" stroke-width="0.5852" stroke-miterlimit="10" stroke-linecap="round" stroke-linejoin="round"/>
<path d="M270.192 176.887V170.188" stroke="#5C5C5C" stroke-width="0.5852" stroke-miterlimit="10" stroke-linecap="round" stroke-linejoin="round"/>
<path d="M428.093 176.887V170.188" stroke="#5C5C5C" stroke-width="0.5852" stroke-miterlimit="10" stroke-linecap="round" stroke-linejoin="round"/>
<path d="M7.39258 208.188H164.893" stroke="#5C5C5C" stroke-width="0.5855" stroke-miterlimit="10" stroke-linecap="round" stroke-linejoin="round"/>
<path d="M7.39258 214.889H164.893" stroke="#5C5C5C" stroke-width="0.5855" stroke-miterlimit="10" stroke-linecap="round" stroke-linejoin="round"/>
<path opacity="0.5" d="M166.492 125.188H4.49219V128.988H166.492V125.188Z" fill="#D7D7D7"/>
<path d="M166.792 125.188H4.49219V128.988H166.792V125.188Z" stroke="#C0C0BF" stroke-width="0.3903" stroke-miterlimit="10" stroke-linecap="round" stroke-linejoin="round"/>
<path d="M166.492 125.188V128.988H4.49219V125.188" stroke="#C0C0BF" stroke-width="0.0584449" stroke-miterlimit="10" stroke-linecap="round" stroke-linejoin="round"/>
<path opacity="0.5" d="M167.293 167.289H5.29297V169.889H167.293V167.289Z" fill="#D7D7D7"/>
<path d="M167.393 167.289V169.889H5.29297V167.289" stroke="#C0C0BF" stroke-width="0.3903" stroke-miterlimit="10" stroke-linecap="round" stroke-linejoin="round"/>
<path d="M0.292969 245.889V169.889H171.593V245.889H164.893V176.489H6.89297V245.889H0.292969Z" stroke="#5C5C5C" stroke-width="0.5855" stroke-miterlimit="10" stroke-linecap="round" stroke-linejoin="round"/>
<path d="M4.09277 132.789V163.289H167.293V132.789H4.09277Z" stroke="#575756" stroke-width="0.5855" stroke-miterlimit="10" stroke-linecap="round" stroke-linejoin="round"/>
<path d="M171.593 167.088V128.988H0.292969V167.088H171.593Z" stroke="#5C5C5C" stroke-width="0.5855" stroke-miterlimit="10" stroke-linecap="round" stroke-linejoin="round"/>
<path d="M166.893 125.089H0.292969V121.289H171.593V125.089H166.893Z" stroke="#5C5C5C" stroke-width="0.5249" stroke-miterlimit="10" stroke-linecap="round" stroke-linejoin="round"/>
</svg>
