<svg width="252" height="190" viewBox="0 0 252 190" fill="none" xmlns="http://www.w3.org/2000/svg">
<path d="M20.75 98.75H230.75V104.75H20.75V98.75Z" fill="#F29D07" fill-opacity="0.4" stroke="#232323" stroke-miterlimit="10" stroke-linecap="round" stroke-linejoin="round"/>
<path d="M17.75 183.75H233.75V188.75H17.75V183.75Z" fill="#F29D07" fill-opacity="0.4"/>
<path d="M20.75 16.75H231.75V20.75H20.75V16.75Z" fill="#F29D07" fill-opacity="0.4"/>
<path d="M20.2476 20.9355H231.372" stroke="#232323" stroke-width="1.5" stroke-miterlimit="10" stroke-linecap="round" stroke-linejoin="round"/>
<path d="M231.372 104.425H20.2476" stroke="#232323" stroke-width="1.5" stroke-miterlimit="10" stroke-linecap="round" stroke-linejoin="round"/>
<path d="M234.123 183.255V188.75H17.4961" stroke="#232323" stroke-width="1.5" stroke-miterlimit="10" stroke-linecap="round" stroke-linejoin="round"/>
<path d="M10.5586 178.239V0.75H20.2476V178.239H10.5586Z" fill="#F29D07" fill-opacity="0.4" stroke="#232323" stroke-width="1.5" stroke-miterlimit="10" stroke-linecap="round" stroke-linejoin="round"/>
<path d="M241.061 178.239V0.75H231.372V178.239" fill="#F29D07" fill-opacity="0.4"/>
<path d="M241.061 178.239V0.75H231.372V178.239" stroke="#232323" stroke-width="1.5" stroke-miterlimit="10" stroke-linecap="round" stroke-linejoin="round"/>
<path d="M20.2476 95.5859H231.372V98.9303H20.2476V95.5859Z" fill="#F29D07" fill-opacity="0.4" stroke="#232323" stroke-width="1.5" stroke-miterlimit="10" stroke-linecap="round" stroke-linejoin="round"/>
<path d="M0.75 178.239H250.75V183.256H0.75V178.239Z" fill="#F29D07" fill-opacity="0.4" stroke="#232323" stroke-width="1.5" stroke-miterlimit="10" stroke-linecap="round" stroke-linejoin="round"/>
<path d="M20.2476 12.9336H231.372V16.2779H20.2476V12.9336Z" fill="#F29D07" fill-opacity="0.4" stroke="#232323" stroke-width="1.5" stroke-miterlimit="10" stroke-linecap="round" stroke-linejoin="round"/>
<path d="M17.4961 183.255V188.75" stroke="#232323" stroke-width="1.5" stroke-miterlimit="10" stroke-linecap="round" stroke-linejoin="round"/>
</svg>
