<svg width="995" height="211" viewBox="0 0 995 211" fill="none" xmlns="http://www.w3.org/2000/svg">
<path opacity="0.5" d="M988.26 126.1H912.45V130.19H988.26V126.1Z" fill="#D7D7D7"/>
<path opacity="0.5" d="M902.349 126.08H826.479V130.17H902.349V126.08Z" fill="#D7D7D7"/>
<path d="M912.39 126.1V130.17H988.25V126.38" stroke="#C0C0BF" stroke-width="0.39" stroke-linecap="round" stroke-linejoin="round"/>
<path d="M826.479 126.35V130.15H902.339V126.1" stroke="#C0C0BF" stroke-width="0.39" stroke-linecap="round" stroke-linejoin="round"/>
<path opacity="0.5" d="M986.66 4.08984H910.85V8.17984H986.66V4.08984Z" fill="#D7D7D7"/>
<path opacity="0.5" d="M900.75 4.06934H824.88V8.15933H900.75V4.06934Z" fill="#D7D7D7"/>
<path d="M910.79 4.08984V8.15984H986.66V4.36984" stroke="#C0C0BF" stroke-width="0.39" stroke-linecap="round" stroke-linejoin="round"/>
<path d="M824.88 4.34984V8.13984H900.75V4.08984" stroke="#C0C0BF" stroke-width="0.39" stroke-linecap="round" stroke-linejoin="round"/>
<path opacity="0.5" d="M373.06 89.4404H210.89V91.6505H373.06V89.4404Z" fill="#D7D7D7"/>
<path opacity="0.5" d="M373.16 87.54H210.99V89.75H373.16V87.54Z" fill="#D7D7D7"/>
<path d="M373.04 87.8506H210.87V91.6506H373.04V87.8506Z" stroke="#C0C0BF" stroke-width="0.39" stroke-linecap="round" stroke-linejoin="round"/>
<path opacity="0.5" d="M372.82 129.7H210.87V132.28H372.82V129.7Z" fill="#D7D7D7"/>
<path opacity="0.5" d="M372.819 46.5205H297.149V49.8705H372.819V46.5205Z" fill="#D7D7D7"/>
<path d="M372.82 87.8506V91.6606H210.87V87.8506" stroke="#C0C0BF" stroke-width="0.06" stroke-linecap="round" stroke-linejoin="round"/>
<path opacity="0.5" d="M372.959 46.2803H297.149V49.6302H372.959V46.2803Z" stroke="#D7D7D7" stroke-width="0.06" stroke-miterlimit="10"/>
<path d="M297.09 46.0498V49.8497H372.96V46.0498" stroke="#C0C0BF" stroke-width="0.39" stroke-linecap="round" stroke-linejoin="round"/>
<path d="M373.91 53.8506H296.14V84.2006H373.91V53.8506Z" stroke="#3C3C3B" stroke-width="0.59" stroke-miterlimit="10"/>
<path d="M287.7 53.71H209.93V84.0599H287.7V53.71Z" stroke="#3C3C3B" stroke-width="0.59" stroke-miterlimit="10"/>
<path d="M291.97 49.9199V87.8499H377.33V49.9199H291.97Z" stroke="#5C5C5C" stroke-width="0.59" stroke-linecap="round" stroke-linejoin="round"/>
<path d="M373.91 53.71H296.14V84.0599H373.91V53.71Z" stroke="#5C5C5C" stroke-width="0.59" stroke-linecap="round" stroke-linejoin="round"/>
<path opacity="0.5" d="M289.07 46.4502H210.29V49.9303H289.07V46.4502Z" fill="#D7D7D7"/>
<path d="M289.06 46.0498V49.9298" stroke="#C0C0BF" stroke-width="0.39" stroke-linecap="round" stroke-linejoin="round"/>
<path d="M206.14 49.9199V87.8499H291.49V49.9199H206.14Z" stroke="#5C5C5C" stroke-width="0.59" stroke-linecap="round" stroke-linejoin="round"/>
<g opacity="0.5">
<path d="M288.56 53.71H210.79V84.0599H288.56V53.71Z" fill="#D7D7D7"/>
</g>
<g opacity="0.5">
<path d="M990.49 133.14H912.72V163.49H990.49V133.14Z" fill="#D7D7D7"/>
</g>
<g opacity="0.5">
<path d="M904.49 133.14H826.72V163.49H904.49V133.14Z" fill="#D7D7D7"/>
</g>
<path d="M211.43 46.0498H206V42.2598H376.7V46.0498H371.96H213.31H211.43Z" stroke="#5C5C5C" stroke-width="0.59" stroke-linecap="round" stroke-linejoin="round"/>
<path d="M319.78 101.98H262.71V99.2705H319.78V101.98Z" stroke="#5C5C5C" stroke-width="0.59" stroke-linecap="round" stroke-linejoin="round"/>
<path d="M209.92 95.4598V125.9H373.05V95.4199H209.92" stroke="#5C5C5C" stroke-width="0.59" stroke-linecap="round" stroke-linejoin="round"/>
<path d="M372.82 129.7V132.28H210.87V129.7" stroke="#C0C0BF" stroke-width="0.39" stroke-linecap="round" stroke-linejoin="round"/>
<path d="M206.13 208.22V132.28H377.35V208.25H370.69V208.22V138.93H212.79V208.22H206.13Z" stroke="#5C5C5C" stroke-width="0.59" stroke-linecap="round" stroke-linejoin="round"/>
<path d="M212.79 170.25H370.69" stroke="#5C5C5C" stroke-width="0.59" stroke-linecap="round" stroke-linejoin="round"/>
<path d="M212.79 176.89H370.69" stroke="#5C5C5C" stroke-width="0.59" stroke-linecap="round" stroke-linejoin="round"/>
<circle cx="377.35" cy="132.28" r="0.295" fill="#5C5C5C"/>
<circle cx="377.35" cy="208.22" r="0.295" fill="#5C5C5C"/>
<circle cx="370.69" cy="208.38" r="0.295" fill="#5C5C5C"/>
<path d="M377.329 129.7V91.6602H206.109V129.7H377.329Z" stroke="#5C5C5C" stroke-width="0.59" stroke-linecap="round" stroke-linejoin="round"/>
<path d="M370.689 138.93V132.28" stroke="#5C5C5C" stroke-width="0.59" stroke-linecap="round" stroke-linejoin="round"/>
<path opacity="0.5" d="M989.109 167.779H826.939V169.989H989.109V167.779Z" fill="#D7D7D7"/>
<path d="M988.989 168.09H826.819V169.99H988.989V168.09Z" stroke="#C0C0BF" stroke-width="0.28" stroke-linecap="round" stroke-linejoin="round"/>
<path d="M907.92 130.149V168.089H993.28V130.149H907.92Z" stroke="#5C5C5C" stroke-width="0.59" stroke-linecap="round" stroke-linejoin="round"/>
<path d="M989.86 133.949H912.09V164.299H989.86V133.949Z" stroke="#5C5C5C" stroke-width="0.59" stroke-linecap="round" stroke-linejoin="round"/>
<path d="M822.01 130.13V168.07H907.37V130.13H822.01Z" stroke="#5C5C5C" stroke-width="0.59" stroke-linecap="round" stroke-linejoin="round"/>
<path d="M903.95 133.92H826.18V164.27H903.95V133.92Z" stroke="#5C5C5C" stroke-width="0.59" stroke-linecap="round" stroke-linejoin="round"/>
<path d="M993.59 208.14V170.01H822.01V208.14H828.68" stroke="#5C5C5C" stroke-width="0.59" stroke-linecap="round" stroke-linejoin="round"/>
<path d="M828.68 208.14V176.68H986.91V208.14H993.59" stroke="#5C5C5C" stroke-width="0.59" stroke-linecap="round" stroke-linejoin="round"/>
<path d="M828.68 176.679V170.029" stroke="#5C5C5C" stroke-width="0.59" stroke-linecap="round" stroke-linejoin="round"/>
<path d="M986.91 176.679V170.029" stroke="#5C5C5C" stroke-width="0.59" stroke-linecap="round" stroke-linejoin="round"/>
<path d="M990.42 11.3096H825.71V122.64H990.42V11.3096Z" stroke="#5C5C5C" stroke-width="0.59" stroke-linecap="round" stroke-linejoin="round"/>
<path d="M898.529 20.8496H835.239V113.11H898.529" stroke="#5C5C5C" stroke-width="0.59" stroke-linecap="round" stroke-linejoin="round"/>
<path d="M917.59 113.11H980.89V20.8496H917.59" stroke="#5C5C5C" stroke-width="0.59" stroke-linecap="round" stroke-linejoin="round"/>
<path d="M822.279 126.08H993.849V7.87988H822.279V126.08Z" stroke="#5C5C5C" stroke-width="0.59" stroke-linecap="round" stroke-linejoin="round"/>
<path d="M908.06 11.3096V122.65" stroke="#5C5C5C" stroke-width="0.59" stroke-linecap="round" stroke-linejoin="round"/>
<path d="M917.59 11.3096V122.65" stroke="#5C5C5C" stroke-width="0.59" stroke-linecap="round" stroke-linejoin="round"/>
<path d="M898.529 11.3096V122.65" stroke="#5C5C5C" stroke-width="0.59" stroke-linecap="round" stroke-linejoin="round"/>
<path d="M835.239 20.8496V11.3096" stroke="#5C5C5C" stroke-width="0.59" stroke-linecap="round" stroke-linejoin="round"/>
<path d="M980.89 20.8496V11.3096" stroke="#5C5C5C" stroke-width="0.59" stroke-linecap="round" stroke-linejoin="round"/>
<circle cx="980.89" cy="20.8497" r="0.295" fill="#5C5C5C"/>
<circle cx="917.59" cy="20.8497" r="0.295" fill="#5C5C5C"/>
<circle cx="908.06" cy="20.8497" r="0.295" fill="#5C5C5C"/>
<circle cx="866.88" cy="20.8497" r="0.295" fill="#5C5C5C"/>
<path d="M826.75 4.06977H822V0.259766H993.26V4.06977H826.75Z" stroke="#5C5C5C" stroke-width="0.52" stroke-linecap="round" stroke-linejoin="round"/>
<path opacity="0.5" d="M701.36 70.79H626.8V74.09H701.36V70.79Z" fill="#D7D7D7"/>
<path opacity="0.5" d="M701.5 70.5498H626.8V73.8498H701.5V70.5498Z" stroke="#D7D7D7" stroke-width="0.06" stroke-miterlimit="10"/>
<path d="M626.74 70.7895V74.0795H701.49V70.7295" stroke="#C0C0BF" stroke-width="0.38" stroke-linecap="round" stroke-linejoin="round"/>
<path opacity="0.5" d="M618.83 70.7295H541.21V74.1595H618.83V70.7295Z" fill="#D7D7D7"/>
<path d="M618.83 70.7295V74.1595" stroke="#C0C0BF" stroke-width="0.38" stroke-linecap="round" stroke-linejoin="round"/>
<path d="M541.19 70.7295V74.1595" stroke="#C0C0BF" stroke-width="0.38" stroke-linecap="round" stroke-linejoin="round"/>
<path opacity="0.5" d="M701.13 130.739H541.56V133.279H701.13V130.739Z" fill="#D7D7D7"/>
<path d="M701.13 130.739V133.269H541.56V130.739" stroke="#C0C0BF" stroke-width="0.38" stroke-linecap="round" stroke-linejoin="round"/>
<path d="M536.89 208.09V133.27H705.59V208.13H699.03V208.09V139.82H543.449V208.09H536.89Z" stroke="#5C5C5C" stroke-width="0.58" stroke-linecap="round" stroke-linejoin="round"/>
<path d="M543.45 170.68H699.03" stroke="#5C5C5C" stroke-width="0.58" stroke-linecap="round" stroke-linejoin="round"/>
<path d="M543.45 177.229H699.03" stroke="#5C5C5C" stroke-width="0.58" stroke-linecap="round" stroke-linejoin="round"/>
<circle cx="705.59" cy="133.269" r="0.29" fill="#5C5C5C"/>
<path d="M543.45 139.82V133.27" stroke="#5C5C5C" stroke-width="0.58" stroke-linecap="round" stroke-linejoin="round"/>
<path d="M699.03 139.82V133.27" stroke="#5C5C5C" stroke-width="0.58" stroke-linecap="round" stroke-linejoin="round"/>
<path d="M702.44 77.8096H540.13V127.36H702.44V77.8096Z" stroke="#575756" stroke-width="0.58" stroke-linecap="round" stroke-linejoin="round"/>
<path d="M536.75 130.74V74.4297H705.82V130.74H536.75Z" stroke="#5C5C5C" stroke-width="0.58" stroke-linecap="round" stroke-linejoin="round"/>
<path opacity="0.5" d="M701.15 29.4502H626.59V32.7502H701.15V29.4502Z" fill="#D7D7D7"/>
<path opacity="0.5" d="M701.29 29.21H626.59V32.51H701.29V29.21Z" stroke="#D7D7D7" stroke-width="0.06" stroke-miterlimit="10"/>
<path d="M626.53 29V32.73H701.28V29" stroke="#C0C0BF" stroke-width="0.38" stroke-linecap="round" stroke-linejoin="round"/>
<path d="M702.21 36.6797H625.59V66.5797H702.21V36.6797Z" stroke="#3C3C3B" stroke-width="0.58" stroke-miterlimit="10"/>
<path d="M617.27 36.54H540.65V66.44H617.27V36.54Z" fill="white" stroke="#3C3C3B" stroke-width="0.58" stroke-miterlimit="10"/>
<path d="M621.49 32.7998V70.1798H705.59V32.7998H621.49Z" stroke="#5C5C5C" stroke-width="0.58" stroke-linecap="round" stroke-linejoin="round"/>
<path d="M702.21 36.54H625.59V66.44H702.21V36.54Z" stroke="#5C5C5C" stroke-width="0.58" stroke-linecap="round" stroke-linejoin="round"/>
<path opacity="0.5" d="M618.62 29.3799H541V32.8099H618.62V29.3799Z" fill="#D7D7D7"/>
<path d="M618.62 29V32.82" stroke="#C0C0BF" stroke-width="0.38" stroke-linecap="round" stroke-linejoin="round"/>
<path d="M541.01 29.7598V32.8198" stroke="#5C5C5C" stroke-width="0.58" stroke-linecap="round" stroke-linejoin="round"/>
<path d="M536.91 32.7998V70.1798H621.01V32.7998H536.91Z" stroke="#5C5C5C" stroke-width="0.58" stroke-linecap="round" stroke-linejoin="round"/>
<g opacity="0.5">
<path d="M617.27 36.54H540.65V66.44H617.27V36.54Z" fill="#D7D7D7"/>
</g>
<g opacity="0.5">
<path d="M702.42 36.54H625.8V66.44H702.42V36.54Z" fill="#D7D7D7"/>
</g>
<path d="M542.131 28.9998H536.771V25.2598H704.97V28.9998H700.301H543.98H542.131Z" stroke="#5C5C5C" stroke-width="0.58" stroke-linecap="round" stroke-linejoin="round"/>
<path d="M649.61 86.0101H593.37V83.3301H621.49H649.61V86.0101Z" fill="#C0C0BF" stroke="#5C5C5C" stroke-width="0.58" stroke-linecap="round" stroke-linejoin="round"/>
<g clip-path="url(#clip0_0_1)">
<g opacity="0.5">
<path d="M81.7101 136.569H4.08008V166.859H81.7101V136.569Z" fill="#D7D7D7"/>
</g>
<g opacity="0.5">
<path d="M81.7101 94.9102H4.08008V125.2H81.7101V94.9102Z" fill="#D7D7D7"/>
</g>
<g opacity="0.5">
<path d="M74.1304 128.99H11.6504V132.78H74.1304V128.99Z" fill="#D7D7D7"/>
</g>
<g opacity="0.5">
<path d="M80.7603 170.649H5.03027V172.539H80.7603V170.649Z" fill="#D7D7D7"/>
</g>
<path d="M80.7603 170.649V172.599H5.03027V170.649" stroke="#C0C0BF" stroke-width="0.39" stroke-linecap="round" stroke-linejoin="round"/>
<path d="M74.1304 128.99H11.6504V132.78H74.1304V128.99Z" stroke="#C0C0BF" stroke-width="0.39" stroke-linecap="round" stroke-linejoin="round"/>
<path d="M0.290039 132.779V170.649H85.49V132.779H0.290039Z" stroke="#5C5C5C" stroke-width="0.59" stroke-linecap="round" stroke-linejoin="round"/>
<path d="M81.7101 136.569H4.08008V166.859H81.7101V136.569Z" stroke="#5C5C5C" stroke-width="0.59" stroke-linecap="round" stroke-linejoin="round"/>
<path d="M85.3699 210.35V172.6H0.419922V210.35H7.02992V179.2H78.7599V210.35H85.3699Z" stroke="#5C5C5C" stroke-width="0.59" stroke-linecap="round" stroke-linejoin="round"/>
<path d="M7.03027 179.2V172.6" stroke="#5C5C5C" stroke-width="0.59" stroke-linecap="round" stroke-linejoin="round"/>
<path d="M78.7598 179.2V172.6" stroke="#5C5C5C" stroke-width="0.59" stroke-linecap="round" stroke-linejoin="round"/>
<circle cx="7.03" cy="179.2" r="0.03" fill="#C0C0BF"/>
<circle cx="78.7605" cy="179.2" r="0.03" fill="#C0C0BF"/>
<path d="M85.4901 87.3398H4.08008" stroke="#5C5C5C" stroke-width="0.59" stroke-linecap="round" stroke-linejoin="round"/>
<path d="M4.08004 87.3398H0.290039V83.5498H85.49V87.3398" stroke="#5C5C5C" stroke-width="0.59" stroke-linecap="round" stroke-linejoin="round"/>
<path d="M4.08008 91.1298V87.3398" stroke="#5C5C5C" stroke-width="0.59" stroke-linecap="round" stroke-linejoin="round"/>
<circle cx="85.49" cy="83.5495" r="0.03" fill="#C0C0BF"/>
<circle cx="85.49" cy="87.3396" r="0.03" fill="#C0C0BF"/>
<circle cx="4.0798" cy="87.3396" r="0.03" fill="#C0C0BF"/>
<path d="M81.71 87.3398V91.1298" stroke="#5C5C5C" stroke-width="0.59" stroke-linecap="round" stroke-linejoin="round"/>
<path d="M81.7101 94.9102H4.08008V125.2H81.7101V94.9102Z" stroke="#5C5C5C" stroke-width="0.59" stroke-miterlimit="10"/>
<path d="M0.290039 91.1299V128.99H85.49V91.1299H0.290039Z" stroke="#5C5C5C" stroke-width="0.59" stroke-linecap="round" stroke-linejoin="round"/>
</g>
<defs>
<clipPath id="clip0_0_1">
<rect width="85.79" height="127.38" fill="white" transform="translate(0 83.2598)"/>
</clipPath>
</defs>
</svg>
