<svg width="899" height="166" viewBox="0 0 899 166" fill="none" xmlns="http://www.w3.org/2000/svg">
<path opacity="0.5" d="M167.392 124.658H5.19238V126.858H167.392V124.658Z" fill="#D7D7D7"/>
<path d="M167.293 124.959H5.09277V126.859H167.293V124.959Z" stroke="#C0C0BF" stroke-width="0.2759" stroke-miterlimit="10" stroke-linecap="round" stroke-linejoin="round"/>
<path opacity="0.5" d="M167.193 82.8594H91.3926V86.9594H167.193V82.8594Z" fill="#D7D7D7"/>
<path opacity="0.5" d="M81.2926 82.8594H5.39258V86.9594H81.2926V82.8594Z" fill="#D7D7D7"/>
<path d="M91.293 82.8594V86.9594H167.193V83.1594" stroke="#C0C0BF" stroke-width="0.3901" stroke-miterlimit="10" stroke-linecap="round" stroke-linejoin="round"/>
<path d="M168.193 90.959H90.3926V121.259H168.193V90.959Z" fill="white"/>
<path d="M86.1924 86.959V124.959H171.492V86.959H86.1924Z" stroke="#5C5C5C" stroke-width="0.5852" stroke-miterlimit="10" stroke-linecap="round" stroke-linejoin="round"/>
<path d="M168.193 90.7578H90.3926V121.058H168.193V90.7578Z" stroke="#5C5C5C" stroke-width="0.5852" stroke-miterlimit="10" stroke-linecap="round" stroke-linejoin="round"/>
<path d="M5.39258 83.1594V86.9594H81.2926V82.8594" stroke="#C0C0BF" stroke-width="0.3901" stroke-miterlimit="10" stroke-linecap="round" stroke-linejoin="round"/>
<path d="M82.1926 90.959H4.39258V121.259H82.1926V90.959Z" fill="white"/>
<path d="M0.292969 86.959V124.959H85.593V86.959H0.292969Z" stroke="#5C5C5C" stroke-width="0.5852" stroke-miterlimit="10" stroke-linecap="round" stroke-linejoin="round"/>
<path d="M82.1926 90.7578H4.39258V121.058H82.1926V90.7578Z" stroke="#5C5C5C" stroke-width="0.5852" stroke-miterlimit="10" stroke-linecap="round" stroke-linejoin="round"/>
<path d="M171.893 164.959V126.859H0.292969V164.959H6.99297" stroke="#5C5C5C" stroke-width="0.5852" stroke-miterlimit="10" stroke-linecap="round" stroke-linejoin="round"/>
<path d="M6.99316 164.959V133.559H165.193V164.959H171.893" stroke="#5C5C5C" stroke-width="0.5852" stroke-miterlimit="10" stroke-linecap="round" stroke-linejoin="round"/>
<path d="M4.99316 82.8594H166.793" stroke="#5C5C5C" stroke-width="0.5247" stroke-miterlimit="10" stroke-linecap="round" stroke-linejoin="round"/>
<path d="M4.99297 82.8586H0.292969V79.0586H171.493V82.8586H166.793" stroke="#5C5C5C" stroke-width="0.5247" stroke-miterlimit="10" stroke-linecap="round" stroke-linejoin="round"/>
<circle cx="4.99282" cy="82.86" r="0.26235" fill="#5C5C5C"/>
<path opacity="0.5" d="M160.193 78.5594H11.6932C10.4932 78.5594 9.49316 77.5594 9.49316 76.3594V76.0594C9.49316 74.8594 10.4932 73.8594 11.6932 73.8594H160.193C161.393 73.8594 162.393 74.8594 162.393 76.0594V76.3594C162.393 77.5594 161.393 78.5594 160.193 78.5594Z" stroke="#5C5C5C" stroke-width="0.5247" stroke-miterlimit="10" stroke-linecap="round" stroke-linejoin="round"/>
<path d="M6.99316 133.559V126.859" stroke="#5C5C5C" stroke-width="0.5852" stroke-miterlimit="10" stroke-linecap="round" stroke-linejoin="round"/>
<path d="M165.192 133.559V126.859" stroke="#5C5C5C" stroke-width="0.5852" stroke-miterlimit="10" stroke-linecap="round" stroke-linejoin="round"/>
<path opacity="0.5" d="M412.593 125.059H252.793V127.259H412.593V125.059Z" fill="#D7D7D7"/>
<path d="M412.492 125.359H252.692V127.259H412.492V125.359Z" stroke="#C0C0BF" stroke-width="0.2718" stroke-miterlimit="10" stroke-linecap="round" stroke-linejoin="round"/>
<path d="M416.993 164.858V127.258H247.893V164.858H254.493" stroke="#5C5C5C" stroke-width="0.5766" stroke-miterlimit="10" stroke-linecap="round" stroke-linejoin="round"/>
<path d="M254.493 164.859V133.859H410.393V164.859H416.993" stroke="#5C5C5C" stroke-width="0.5766" stroke-miterlimit="10" stroke-linecap="round" stroke-linejoin="round"/>
<path d="M254.493 133.858V127.258" stroke="#5C5C5C" stroke-width="0.5766" stroke-miterlimit="10" stroke-linecap="round" stroke-linejoin="round"/>
<path d="M410.393 133.858V127.258" stroke="#5C5C5C" stroke-width="0.5766" stroke-miterlimit="10" stroke-linecap="round" stroke-linejoin="round"/>
<path opacity="0.5" d="M413.393 64.5586H251.793V68.6586H413.393V64.5586Z" fill="#D7D7D7"/>
<path d="M251.793 64.8594V68.6594H413.393V64.9594" stroke="#C0C0BF" stroke-width="0.572" stroke-miterlimit="10" stroke-linecap="round" stroke-linejoin="round"/>
<path opacity="0.5" d="M413.393 4.1582H251.793V8.2582H413.393V4.1582Z" fill="#D7D7D7"/>
<path d="M251.793 4.45898V8.25898H413.393V4.45898" stroke="#C0C0BF" stroke-width="0.572" stroke-miterlimit="10" stroke-linecap="round" stroke-linejoin="round"/>
<path d="M413.793 11.6582H251.493V61.1582H413.793V11.6582Z" stroke="#575756" stroke-width="0.5766" stroke-miterlimit="10" stroke-linecap="round" stroke-linejoin="round"/>
<path d="M248.093 64.5578V8.25781H417.093V64.5578H248.093Z" stroke="#5C5C5C" stroke-width="0.5766" stroke-miterlimit="10" stroke-linecap="round" stroke-linejoin="round"/>
<path d="M252.793 4.05782H248.093V0.257812H416.793V4.05782H252.793Z" stroke="#5C5C5C" stroke-width="0.517" stroke-miterlimit="10" stroke-linecap="round" stroke-linejoin="round"/>
<path d="M329.493 89.459V104.259H326.793V89.459H329.493Z" fill="#C0C0BF" stroke="#5C5C5C" stroke-width="0.5766" stroke-miterlimit="10" stroke-linecap="round" stroke-linejoin="round"/>
<path d="M339.193 89.459V104.259H336.493V89.459H339.193Z" fill="#C0C0BF" stroke="#5C5C5C" stroke-width="0.5766" stroke-miterlimit="10" stroke-linecap="round" stroke-linejoin="round"/>
<path d="M332.893 72.0586V121.659" stroke="#5C5C5C" stroke-width="0.5766" stroke-miterlimit="10" stroke-linecap="round" stroke-linejoin="round"/>
<path d="M413.593 72.0586H251.293V121.559H413.593V72.0586Z" stroke="#5C5C5C" stroke-width="0.5766" stroke-miterlimit="10" stroke-linecap="round" stroke-linejoin="round"/>
<path d="M247.893 125.058V68.7578H416.993V125.058H247.893Z" stroke="#5C5C5C" stroke-width="0.5766" stroke-miterlimit="10" stroke-linecap="round" stroke-linejoin="round"/>
<path opacity="0.5" d="M638.693 124.758H478.293V126.958H638.693V124.758Z" fill="#D7D7D7"/>
<path d="M638.493 125.059H478.093V126.959H638.493V125.059Z" stroke="#C0C0BF" stroke-width="0.2728" stroke-miterlimit="10" stroke-linecap="round" stroke-linejoin="round"/>
<path opacity="0.5" d="M638.493 83.7578H563.493V87.4578H638.493V83.7578Z" fill="#D7D7D7"/>
<path opacity="0.5" d="M553.393 83.459H478.393V87.159H553.393V83.459Z" fill="#D7D7D7"/>
<path d="M563.393 83.7578V87.3578H638.493V83.9578" stroke="#C0C0BF" stroke-width="0.3671" stroke-miterlimit="10" stroke-linecap="round" stroke-linejoin="round"/>
<path d="M478.393 83.659V87.059H553.493V83.459" stroke="#C0C0BF" stroke-width="0.3689" stroke-miterlimit="10" stroke-linecap="round" stroke-linejoin="round"/>
<path d="M477.093 90.8594V120.959H638.493V90.8594H477.093Z" stroke="#575756" stroke-width="0.5788" stroke-miterlimit="10"/>
<path d="M642.693 124.758V87.1582H473.393V124.758H642.693Z" stroke="#5C5C5C" stroke-width="0.5788" stroke-miterlimit="10" stroke-linecap="round" stroke-linejoin="round"/>
<path d="M643.093 164.659V126.959H473.393V164.659H479.993" stroke="#5C5C5C" stroke-width="0.5788" stroke-miterlimit="10" stroke-linecap="round" stroke-linejoin="round"/>
<path d="M636.493 133.859V164.959H643.093" stroke="#5C5C5C" stroke-width="0.5788" stroke-miterlimit="10" stroke-linecap="round" stroke-linejoin="round"/>
<path d="M479.993 164.659V133.859" stroke="#5C5C5C" stroke-width="0.5788" stroke-miterlimit="10" stroke-linecap="round" stroke-linejoin="round"/>
<path d="M478.093 83.459H638.093" stroke="#5C5C5C" stroke-width="0.5189" stroke-miterlimit="10" stroke-linecap="round" stroke-linejoin="round"/>
<path d="M478.093 83.4582H473.393V79.6582H642.793V83.4582H638.093" stroke="#5C5C5C" stroke-width="0.5189" stroke-miterlimit="10" stroke-linecap="round" stroke-linejoin="round"/>
<circle cx="630.493" cy="63.6579" r="0.25945" fill="#5C5C5C"/>
<path opacity="0.5" d="M631.493 79.4578H484.693C483.493 79.4578 482.493 78.4578 482.493 77.2578V76.9578C482.493 75.7578 483.493 74.7578 484.693 74.7578H631.593C632.793 74.7578 633.793 75.7578 633.793 76.9578V77.2578C633.693 78.5578 632.793 79.4578 631.493 79.4578Z" stroke="#5C5C5C" stroke-width="0.5189" stroke-miterlimit="10" stroke-linecap="round" stroke-linejoin="round"/>
<path d="M479.993 133.858V127.258" stroke="#5C5C5C" stroke-width="0.5788" stroke-miterlimit="10" stroke-linecap="round" stroke-linejoin="round"/>
<path d="M636.493 133.858V127.258" stroke="#5C5C5C" stroke-width="0.5788" stroke-miterlimit="10" stroke-linecap="round" stroke-linejoin="round"/>
<path d="M733.792 127.156H891.292" stroke="#5C5C5C" stroke-width="0.5855" stroke-miterlimit="10" stroke-linecap="round" stroke-linejoin="round"/>
<path d="M733.792 133.857H891.292" stroke="#5C5C5C" stroke-width="0.5855" stroke-miterlimit="10" stroke-linecap="round" stroke-linejoin="round"/>
<path opacity="0.5" d="M892.892 44.1562H730.892V47.9563H892.892V44.1562Z" fill="#D7D7D7"/>
<path d="M893.192 44.1562H730.892V47.9563H893.192V44.1562Z" stroke="#C0C0BF" stroke-width="0.3903" stroke-miterlimit="10" stroke-linecap="round" stroke-linejoin="round"/>
<path d="M892.892 44.1562V47.9563H730.892V44.1562" stroke="#C0C0BF" stroke-width="0.0584449" stroke-miterlimit="10" stroke-linecap="round" stroke-linejoin="round"/>
<path opacity="0.5" d="M893.692 86.2578H731.692V88.8578H893.692V86.2578Z" fill="#D7D7D7"/>
<path d="M893.792 86.2578V88.8578H731.692V86.2578" stroke="#C0C0BF" stroke-width="0.3903" stroke-miterlimit="10" stroke-linecap="round" stroke-linejoin="round"/>
<path d="M726.692 164.857V88.8574H897.992V164.857H891.292V95.4574H733.292V164.857H726.692Z" stroke="#5C5C5C" stroke-width="0.5855" stroke-miterlimit="10" stroke-linecap="round" stroke-linejoin="round"/>
<path d="M730.492 51.7578V82.2578H893.692V51.7578H730.492Z" stroke="#575756" stroke-width="0.5855" stroke-miterlimit="10" stroke-linecap="round" stroke-linejoin="round"/>
<path d="M897.992 86.057V47.957H726.692V86.057H897.992Z" stroke="#5C5C5C" stroke-width="0.5855" stroke-miterlimit="10" stroke-linecap="round" stroke-linejoin="round"/>
<path d="M893.292 44.0578H726.692V40.2578H897.992V44.0578H893.292Z" stroke="#5C5C5C" stroke-width="0.5249" stroke-miterlimit="10" stroke-linecap="round" stroke-linejoin="round"/>
</svg>
 