<svg width="1123" height="464" viewBox="0 0 1123 464" fill="none" xmlns="http://www.w3.org/2000/svg">
<path opacity="0.5" d="M210.091 412.398H7.59082V414.798H210.091V412.398Z" fill="#D7D7D7"/>
<path d="M209.892 412.398H7.3916V414.798H209.892V412.398Z" stroke="#C0C0BF" stroke-width="0.3445" stroke-miterlimit="10" stroke-linecap="round" stroke-linejoin="round"/>
<path d="M207.292 462.401V423.101H9.6916V462.401H1.3916V414.801H215.692V462.401H207.292Z" stroke="#5C5C5C" stroke-width="0.7308" stroke-miterlimit="10" stroke-linecap="round" stroke-linejoin="round"/>
<path d="M9.69141 423.101V414.801" stroke="#5C5C5C" stroke-width="0.7308" stroke-miterlimit="10" stroke-linecap="round" stroke-linejoin="round"/>
<path d="M207.291 423.101V414.801" stroke="#5C5C5C" stroke-width="0.7308" stroke-miterlimit="10" stroke-linecap="round" stroke-linejoin="round"/>
<circle cx="113.991" cy="364.298" r="0.0363449" fill="#C0C0BF"/>
<circle cx="113.991" cy="364.298" r="0.0363449" fill="#C0C0BF"/>
<path d="M6.19141 369.5V407.6H7.39141" stroke="#5C5C5C" stroke-width="0.7308" stroke-miterlimit="10" stroke-linecap="round" stroke-linejoin="round"/>
<path d="M1.3916 364.801H215.692V412.401" stroke="#5C5C5C" stroke-width="0.7308" stroke-miterlimit="10" stroke-linecap="round" stroke-linejoin="round"/>
<path d="M6.19141 369.5H210.291V407.7" stroke="#5C5C5C" stroke-width="0.7308" stroke-miterlimit="10" stroke-linecap="round" stroke-linejoin="round"/>
<path d="M7.3916 407.602H209.692" stroke="#5C5C5C" stroke-width="0.7308" stroke-miterlimit="10" stroke-linecap="round" stroke-linejoin="round"/>
<path d="M1.3916 364.801V412.401H215.692" stroke="#5C5C5C" stroke-width="0.7308" stroke-miterlimit="10" stroke-linecap="round" stroke-linejoin="round"/>
<path d="M209.491 360.801V364.801" stroke="#C0C0BF" stroke-width="0.4663" stroke-miterlimit="10" stroke-linecap="round" stroke-linejoin="round"/>
<path opacity="0.5" d="M7.09082 364.801V360.801H209.491V364.801" fill="#D7D7D7"/>
<path d="M209.491 364.801V360.801H7.09082V364.801" stroke="#C0C0BF" stroke-width="0.4663" stroke-miterlimit="10" stroke-linecap="round" stroke-linejoin="round"/>
<path opacity="0.5" d="M5.3916 60.9016V56.1016H211.092V60.9016" fill="#D7D7D7"/>
<path d="M5.3916 126.898V131.698" stroke="#C0C0BF" stroke-width="0.3445" stroke-miterlimit="10" stroke-linecap="round" stroke-linejoin="round"/>
<path d="M211.091 56.1016V60.9016" stroke="#C0C0BF" stroke-width="0.3445" stroke-miterlimit="10" stroke-linecap="round" stroke-linejoin="round"/>
<circle cx="1.09099" cy="131.701" r="0.3654" fill="#5C5C5C"/>
<circle cx="96.2912" cy="65.2013" r="0.3654" fill="#5C5C5C"/>
<path d="M6.69102 56.0984H0.791016V51.3984H214.591V56.0984H6.69102Z" stroke="#5C5C5C" stroke-width="0.6552" stroke-miterlimit="10" stroke-linecap="round" stroke-linejoin="round"/>
<path opacity="0.5" d="M520.691 412.398H318.191V414.798H520.691V412.398Z" fill="#D7D7D7"/>
<path d="M520.591 412.398H318.091V414.798H520.591V412.398Z" stroke="#C0C0BF" stroke-width="0.3445" stroke-miterlimit="10" stroke-linecap="round" stroke-linejoin="round"/>
<path d="M517.991 462.401V423.101H320.391V462.401H312.091V414.801H526.291V462.401H517.991Z" stroke="#5C5C5C" stroke-width="0.7308" stroke-miterlimit="10" stroke-linecap="round" stroke-linejoin="round"/>
<path d="M320.392 423.101V414.801" stroke="#5C5C5C" stroke-width="0.7308" stroke-miterlimit="10" stroke-linecap="round" stroke-linejoin="round"/>
<path d="M517.991 423.101V414.801" stroke="#5C5C5C" stroke-width="0.7308" stroke-miterlimit="10" stroke-linecap="round" stroke-linejoin="round"/>
<path opacity="0.5" d="M316.491 112.399V107.699H522.191V112.399" fill="#D7D7D7"/>
<path d="M316.491 107.699V112.399" stroke="#C0C0BF" stroke-width="0.3445" stroke-miterlimit="10" stroke-linecap="round" stroke-linejoin="round"/>
<path d="M522.191 107.699V112.399" stroke="#C0C0BF" stroke-width="0.3445" stroke-miterlimit="10" stroke-linecap="round" stroke-linejoin="round"/>
<path d="M317.892 107.698H311.892V102.898H525.792V107.698H317.892Z" stroke="#5C5C5C" stroke-width="0.6552" stroke-miterlimit="10" stroke-linecap="round" stroke-linejoin="round"/>
<path d="M142.891 377.701H72.8914C72.4914 377.701 72.1914 377.401 72.1914 377.001V375.001C72.1914 374.601 72.4914 374.301 72.8914 374.301H142.891C143.291 374.301 143.591 374.601 143.591 375.001V376.901C143.691 377.401 143.291 377.701 142.891 377.701Z" fill="#C0C0BF"/>
<path d="M142.891 377.8H72.8914C72.4914 377.8 72.1914 377.5 72.1914 377.1V375.2C72.1914 374.8 72.4914 374.5 72.8914 374.5H142.891C143.291 374.5 143.591 374.8 143.591 375.2V377.1C143.691 377.5 143.291 377.8 142.891 377.8Z" fill="#C0C0BF" stroke="#5C5C5C" stroke-width="0.7308" stroke-miterlimit="10" stroke-linecap="round" stroke-linejoin="round"/>
<path d="M210.291 65.1992H4.59082V356.599H210.291V65.1992Z" stroke="#5C5C5C" stroke-width="0.7841" stroke-miterlimit="10" stroke-linecap="round" stroke-linejoin="round"/>
<path d="M95.5912 77.1016H16.4912V344.702H95.5912" stroke="#5C5C5C" stroke-width="0.7841" stroke-miterlimit="10" stroke-linecap="round" stroke-linejoin="round"/>
<path d="M119.392 344.702H198.392V77.1016H119.392" stroke="#5C5C5C" stroke-width="0.7841" stroke-miterlimit="10" stroke-linecap="round" stroke-linejoin="round"/>
<path d="M115.891 200.398H110.991V231.298H115.891V200.398Z" fill="#C0C0BF" stroke="#5C5C5C" stroke-width="0.7308" stroke-miterlimit="10" stroke-linecap="round" stroke-linejoin="round"/>
<path d="M103.991 200.398H99.0908V231.298H103.991V200.398Z" fill="#C0C0BF" stroke="#5C5C5C" stroke-width="0.7308" stroke-miterlimit="10" stroke-linecap="round" stroke-linejoin="round"/>
<path d="M0.391602 360.798H214.592V60.8984H0.391602V360.798Z" stroke="#5C5C5C" stroke-width="0.7841" stroke-miterlimit="10" stroke-linecap="round" stroke-linejoin="round"/>
<path d="M107.491 65.1992V356.599" stroke="#5C5C5C" stroke-width="0.7841" stroke-miterlimit="10" stroke-linecap="round" stroke-linejoin="round"/>
<path d="M95.5908 77.1016V356.602" stroke="#5C5C5C" stroke-width="0.7841" stroke-miterlimit="10" stroke-linecap="round" stroke-linejoin="round"/>
<path d="M119.392 77.1016V356.602" stroke="#5C5C5C" stroke-width="0.7841" stroke-miterlimit="10" stroke-linecap="round" stroke-linejoin="round"/>
<path d="M16.4912 77.0992V65.1992" stroke="#5C5C5C" stroke-width="0.7841" stroke-miterlimit="10" stroke-linecap="round" stroke-linejoin="round"/>
<path d="M198.392 77.0992V65.1992" stroke="#5C5C5C" stroke-width="0.7841" stroke-miterlimit="10" stroke-linecap="round" stroke-linejoin="round"/>
<path d="M95.5908 77.0992V65.1992" stroke="#5C5C5C" stroke-width="0.7841" stroke-miterlimit="10" stroke-linecap="round" stroke-linejoin="round"/>
<path d="M119.392 77.0992V65.1992" stroke="#5C5C5C" stroke-width="0.7841" stroke-miterlimit="10" stroke-linecap="round" stroke-linejoin="round"/>
<path d="M16.4912 344.699V356.599" stroke="#5C5C5C" stroke-width="0.7841" stroke-miterlimit="10" stroke-linecap="round" stroke-linejoin="round"/>
<path d="M198.392 344.699V356.599" stroke="#5C5C5C" stroke-width="0.7841" stroke-miterlimit="10" stroke-linecap="round" stroke-linejoin="round"/>
<path d="M16.4912 344.699H93.5912" stroke="#5C5C5C" stroke-width="0.7841" stroke-miterlimit="10" stroke-linecap="round" stroke-linejoin="round"/>
<circle cx="198.391" cy="344.701" r="0.39205" fill="#5C5C5C"/>
<circle cx="16.4917" cy="344.701" r="0.39205" fill="#5C5C5C"/>
<circle cx="107.492" cy="231.298" r="0.39205" fill="#5C5C5C"/>
<circle cx="119.391" cy="231.298" r="0.39205" fill="#5C5C5C"/>
<circle cx="118.791" cy="191.201" r="0.39205" fill="#5C5C5C"/>
<circle cx="198.391" cy="77.0991" r="0.39205" fill="#5C5C5C"/>
<circle cx="119.391" cy="77.0991" r="0.39205" fill="#5C5C5C"/>
<circle cx="119.391" cy="119.501" r="0.39205" fill="#5C5C5C"/>
<path d="M522.092 116.699H316.392V408.099H522.092V116.699Z" stroke="#5C5C5C" stroke-width="0.7841" stroke-miterlimit="10" stroke-linecap="round" stroke-linejoin="round"/>
<path d="M407.291 128.602H328.291V396.202H407.291" stroke="#5C5C5C" stroke-width="0.7841" stroke-miterlimit="10" stroke-linecap="round" stroke-linejoin="round"/>
<path d="M431.091 396.202H510.091V128.602H431.091" stroke="#5C5C5C" stroke-width="0.7841" stroke-miterlimit="10" stroke-linecap="round" stroke-linejoin="round"/>
<path d="M427.591 251.898H422.691V282.798H427.591V251.898Z" fill="#C0C0BF" stroke="#5C5C5C" stroke-width="0.7308" stroke-miterlimit="10" stroke-linecap="round" stroke-linejoin="round"/>
<path d="M415.691 251.898H410.791V282.798H415.691V251.898Z" fill="#C0C0BF" stroke="#5C5C5C" stroke-width="0.7308" stroke-miterlimit="10" stroke-linecap="round" stroke-linejoin="round"/>
<path d="M312.091 412.398H526.291V112.398H312.091V412.398Z" stroke="#5C5C5C" stroke-width="0.7841" stroke-miterlimit="10" stroke-linecap="round" stroke-linejoin="round"/>
<path d="M419.191 116.699V408.099" stroke="#5C5C5C" stroke-width="0.7841" stroke-miterlimit="10" stroke-linecap="round" stroke-linejoin="round"/>
<path d="M407.291 128.602V408.102" stroke="#5C5C5C" stroke-width="0.7841" stroke-miterlimit="10" stroke-linecap="round" stroke-linejoin="round"/>
<path d="M431.091 128.602V408.102" stroke="#5C5C5C" stroke-width="0.7841" stroke-miterlimit="10" stroke-linecap="round" stroke-linejoin="round"/>
<path d="M328.291 128.599V116.699" stroke="#5C5C5C" stroke-width="0.7841" stroke-miterlimit="10" stroke-linecap="round" stroke-linejoin="round"/>
<path d="M510.091 128.599V116.699" stroke="#5C5C5C" stroke-width="0.7841" stroke-miterlimit="10" stroke-linecap="round" stroke-linejoin="round"/>
<path d="M407.291 128.599V116.699" stroke="#5C5C5C" stroke-width="0.7841" stroke-miterlimit="10" stroke-linecap="round" stroke-linejoin="round"/>
<path d="M431.091 128.599V116.699" stroke="#5C5C5C" stroke-width="0.7841" stroke-miterlimit="10" stroke-linecap="round" stroke-linejoin="round"/>
<path d="M328.291 396.199V408.099" stroke="#5C5C5C" stroke-width="0.7841" stroke-miterlimit="10" stroke-linecap="round" stroke-linejoin="round"/>
<path d="M510.091 396.199V408.099" stroke="#5C5C5C" stroke-width="0.7841" stroke-miterlimit="10" stroke-linecap="round" stroke-linejoin="round"/>
<path d="M328.291 396.199H405.391" stroke="#5C5C5C" stroke-width="0.7841" stroke-miterlimit="10" stroke-linecap="round" stroke-linejoin="round"/>
<circle cx="510.091" cy="396.201" r="0.39205" fill="#5C5C5C"/>
<circle cx="328.291" cy="396.201" r="0.39205" fill="#5C5C5C"/>
<circle cx="419.191" cy="282.9" r="0.39205" fill="#5C5C5C"/>
<circle cx="431.091" cy="282.9" r="0.39205" fill="#5C5C5C"/>
<circle cx="430.492" cy="242.798" r="0.39205" fill="#5C5C5C"/>
<circle cx="510.091" cy="128.599" r="0.39205" fill="#5C5C5C"/>
<circle cx="431.091" cy="128.599" r="0.39205" fill="#5C5C5C"/>
<circle cx="431.091" cy="171.099" r="0.39205" fill="#5C5C5C"/>
<path opacity="0.5" d="M627.55 315.27L724.65 315.27L724.65 310.07L627.55 310.07L627.55 315.27Z" fill="#D7D7D7"/>
<path opacity="0.5" d="M736.171 315.27L833.171 315.27L833.171 310.07L736.171 310.07L736.171 315.27Z" fill="#D7D7D7"/>
<path d="M833.191 310.398V315.198H736.091V310.698" stroke="#C0C0BF" stroke-width="0.4989" stroke-miterlimit="10" stroke-linecap="round" stroke-linejoin="round"/>
<path d="M627.691 310.398V315.098" stroke="#C0C0BF" stroke-width="0.4872" stroke-miterlimit="10" stroke-linecap="round" stroke-linejoin="round"/>
<path opacity="0.5" d="M628.091 9.80156V5.10156H833.791V9.80156" fill="#D7D7D7"/>
<path d="M833.791 5.10156V9.80156" stroke="#C0C0BF" stroke-width="0.3445" stroke-miterlimit="10" stroke-linecap="round" stroke-linejoin="round"/>
<path d="M628.091 5.10156V9.80156" stroke="#C0C0BF" stroke-width="0.3445" stroke-miterlimit="10" stroke-linecap="round" stroke-linejoin="round"/>
<path d="M837.491 462.301V364.801H623.291V462.301H631.591V423.101H829.191V462.301H837.491Z" stroke="#5C5C5C" stroke-width="0.7308" stroke-miterlimit="10" stroke-linecap="round" stroke-linejoin="round"/>
<path d="M631.591 423.099V414.699H829.191V423.099" stroke="#5C5C5C" stroke-width="0.7343" stroke-miterlimit="10" stroke-linecap="round" stroke-linejoin="round"/>
<path d="M828.992 365.199H631.392V373.599H828.992V365.199Z" stroke="#5C5C5C" stroke-width="0.7308" stroke-miterlimit="10" stroke-linecap="round" stroke-linejoin="round"/>
<path d="M631.392 373.602V414.702" stroke="#5C5C5C" stroke-width="0.7308" stroke-miterlimit="10" stroke-linecap="round" stroke-linejoin="round"/>
<path d="M829.191 414.702V373.602" stroke="#5C5C5C" stroke-width="0.7308" stroke-miterlimit="10" stroke-linecap="round" stroke-linejoin="round"/>
<path d="M833.291 14.1016H627.591V305.502H833.291V14.1016Z" stroke="#5C5C5C" stroke-width="0.7841" stroke-miterlimit="10" stroke-linecap="round" stroke-linejoin="round"/>
<path d="M718.491 26H639.491V293.6H718.491" stroke="#5C5C5C" stroke-width="0.7841" stroke-miterlimit="10" stroke-linecap="round" stroke-linejoin="round"/>
<path d="M742.291 293.6H821.291V26H742.291" stroke="#5C5C5C" stroke-width="0.7841" stroke-miterlimit="10" stroke-linecap="round" stroke-linejoin="round"/>
<path d="M738.792 149.301H733.892V180.201H738.792V149.301Z" fill="#C0C0BF" stroke="#5C5C5C" stroke-width="0.7308" stroke-miterlimit="10" stroke-linecap="round" stroke-linejoin="round"/>
<path d="M726.891 149.301H721.991V180.201H726.891V149.301Z" fill="#C0C0BF" stroke="#5C5C5C" stroke-width="0.7308" stroke-miterlimit="10" stroke-linecap="round" stroke-linejoin="round"/>
<path d="M629.191 363.102V364.802H831.591V363.102" stroke="#5C5C5C" stroke-width="0.477" stroke-miterlimit="10" stroke-linecap="round" stroke-linejoin="round"/>
<path d="M623.291 309.801H837.491V9.80078H623.291V309.801Z" stroke="#5C5C5C" stroke-width="0.7841" stroke-miterlimit="10" stroke-linecap="round" stroke-linejoin="round"/>
<path d="M730.392 14.1016V305.502" stroke="#5C5C5C" stroke-width="0.7841" stroke-miterlimit="10" stroke-linecap="round" stroke-linejoin="round"/>
<path d="M718.491 26V305.5" stroke="#5C5C5C" stroke-width="0.7841" stroke-miterlimit="10" stroke-linecap="round" stroke-linejoin="round"/>
<path d="M742.291 26V305.5" stroke="#5C5C5C" stroke-width="0.7841" stroke-miterlimit="10" stroke-linecap="round" stroke-linejoin="round"/>
<path d="M639.491 26.0016V14.1016" stroke="#5C5C5C" stroke-width="0.7841" stroke-miterlimit="10" stroke-linecap="round" stroke-linejoin="round"/>
<path d="M821.291 26.0016V14.1016" stroke="#5C5C5C" stroke-width="0.7841" stroke-miterlimit="10" stroke-linecap="round" stroke-linejoin="round"/>
<path d="M718.491 26.0016V14.1016" stroke="#5C5C5C" stroke-width="0.7841" stroke-miterlimit="10" stroke-linecap="round" stroke-linejoin="round"/>
<path d="M742.291 26.0016V14.1016" stroke="#5C5C5C" stroke-width="0.7841" stroke-miterlimit="10" stroke-linecap="round" stroke-linejoin="round"/>
<path d="M639.491 293.602V305.502" stroke="#5C5C5C" stroke-width="0.7841" stroke-miterlimit="10" stroke-linecap="round" stroke-linejoin="round"/>
<path d="M821.291 293.602V305.502" stroke="#5C5C5C" stroke-width="0.7841" stroke-miterlimit="10" stroke-linecap="round" stroke-linejoin="round"/>
<path d="M639.491 293.602H716.591" stroke="#5C5C5C" stroke-width="0.7841" stroke-miterlimit="10" stroke-linecap="round" stroke-linejoin="round"/>
<circle cx="627.591" cy="14.0991" r="0.39205" fill="#5C5C5C"/>
<circle cx="821.291" cy="293.599" r="0.39205" fill="#5C5C5C"/>
<circle cx="639.492" cy="293.599" r="0.39205" fill="#5C5C5C"/>
<circle cx="639.492" cy="14.0991" r="0.39205" fill="#5C5C5C"/>
<circle cx="716.591" cy="14.0991" r="0.39205" fill="#5C5C5C"/>
<circle cx="730.391" cy="180.298" r="0.39205" fill="#5C5C5C"/>
<circle cx="742.291" cy="180.298" r="0.39205" fill="#5C5C5C"/>
<circle cx="742.291" cy="221.798" r="0.39205" fill="#5C5C5C"/>
<circle cx="718.492" cy="14.0991" r="0.39205" fill="#5C5C5C"/>
<circle cx="706.492" cy="14.0991" r="0.39205" fill="#5C5C5C"/>
<circle cx="821.291" cy="26.0014" r="0.39205" fill="#5C5C5C"/>
<circle cx="742.291" cy="26.0014" r="0.39205" fill="#5C5C5C"/>
<circle cx="742.291" cy="68.5014" r="0.39205" fill="#5C5C5C"/>
<path d="M629.391 5.10078H623.491V0.300781H837.291V5.10078H629.391Z" stroke="#5C5C5C" stroke-width="0.6552" stroke-miterlimit="10" stroke-linecap="round" stroke-linejoin="round"/>
<path d="M627.892 320.199V358.299H831.992" stroke="#5C5C5C" stroke-width="0.7308" stroke-miterlimit="10" stroke-linecap="round" stroke-linejoin="round"/>
<path d="M623.091 315.5H837.291V363.1" stroke="#5C5C5C" stroke-width="0.7308" stroke-miterlimit="10" stroke-linecap="round" stroke-linejoin="round"/>
<path d="M627.892 320.199H831.992V358.399" stroke="#5C5C5C" stroke-width="0.7308" stroke-miterlimit="10" stroke-linecap="round" stroke-linejoin="round"/>
<path d="M623.091 315.5V363.1H837.291" stroke="#5C5C5C" stroke-width="0.7308" stroke-miterlimit="10" stroke-linecap="round" stroke-linejoin="round"/>
<path d="M764.592 328.402H694.592C694.192 328.402 693.892 328.102 693.892 327.702V325.802C693.892 325.402 694.192 325.102 694.592 325.102H764.592C764.992 325.102 765.292 325.402 765.292 325.802V327.702C765.292 328.102 764.992 328.402 764.592 328.402Z" fill="#C0C0BF"/>
<path d="M764.592 328.499H694.592C694.192 328.499 693.892 328.199 693.892 327.799V325.899C693.892 325.499 694.192 325.199 694.592 325.199H764.592C764.992 325.199 765.292 325.499 765.292 325.899V327.799C765.292 328.199 764.992 328.499 764.592 328.499Z" fill="#C0C0BF" stroke="#5C5C5C" stroke-width="0.7308" stroke-miterlimit="10" stroke-linecap="round" stroke-linejoin="round"/>
<path opacity="0.5" d="M1115.59 412.301H913.091V414.701H1115.59V412.301Z" fill="#D7D7D7"/>
<path d="M1115.39 412.301H912.892V414.701H1115.39V412.301Z" stroke="#C0C0BF" stroke-width="0.3445" stroke-miterlimit="10" stroke-linecap="round" stroke-linejoin="round"/>
<path d="M1121.19 462.299V414.699H906.892V462.299H915.292V423.099H1112.79V462.299H1121.19Z" stroke="#5C5C5C" stroke-width="0.7308" stroke-miterlimit="10" stroke-linecap="round" stroke-linejoin="round"/>
<path d="M915.291 423.099V414.699" stroke="#5C5C5C" stroke-width="0.7308" stroke-miterlimit="10" stroke-linecap="round" stroke-linejoin="round"/>
<path d="M1112.79 423.099V414.699" stroke="#5C5C5C" stroke-width="0.7308" stroke-miterlimit="10" stroke-linecap="round" stroke-linejoin="round"/>
<circle cx="1019.49" cy="364.2" r="0.0363449" fill="#C0C0BF"/>
<circle cx="1019.49" cy="364.2" r="0.0363449" fill="#C0C0BF"/>
<path d="M911.691 369.5V407.6H912.891" stroke="#5C5C5C" stroke-width="0.7308" stroke-miterlimit="10" stroke-linecap="round" stroke-linejoin="round"/>
<path d="M906.892 364.699H1121.19V412.299" stroke="#5C5C5C" stroke-width="0.7308" stroke-miterlimit="10" stroke-linecap="round" stroke-linejoin="round"/>
<path d="M911.691 369.398H1115.79V407.598" stroke="#5C5C5C" stroke-width="0.7308" stroke-miterlimit="10" stroke-linecap="round" stroke-linejoin="round"/>
<path d="M912.892 407.602H1115.19" stroke="#5C5C5C" stroke-width="0.7308" stroke-miterlimit="10" stroke-linecap="round" stroke-linejoin="round"/>
<path d="M906.892 364.699V412.299H1121.19" stroke="#5C5C5C" stroke-width="0.7308" stroke-miterlimit="10" stroke-linecap="round" stroke-linejoin="round"/>
<path d="M1114.99 360.801V364.701" stroke="#C0C0BF" stroke-width="0.4663" stroke-miterlimit="10" stroke-linecap="round" stroke-linejoin="round"/>
<path opacity="0.5" d="M912.591 364.701V360.801H1114.99V364.701" fill="#D7D7D7"/>
<path d="M1114.99 364.701V360.801H912.591V364.701" stroke="#C0C0BF" stroke-width="0.4663" stroke-miterlimit="10" stroke-linecap="round" stroke-linejoin="round"/>
<path opacity="0.5" d="M910.892 60.8016V56.1016H1116.59V60.8016" fill="#D7D7D7"/>
<path d="M910.892 126.898V131.598" stroke="#C0C0BF" stroke-width="0.3445" stroke-miterlimit="10" stroke-linecap="round" stroke-linejoin="round"/>
<path d="M1116.59 56.1016V60.8016" stroke="#C0C0BF" stroke-width="0.3445" stroke-miterlimit="10" stroke-linecap="round" stroke-linejoin="round"/>
<circle cx="906.591" cy="131.6" r="0.3654" fill="#5C5C5C"/>
<circle cx="1001.89" cy="65.0998" r="0.3654" fill="#5C5C5C"/>
<path d="M912.191 56.1008H906.291V51.3008H1120.19V56.1008H912.191Z" stroke="#5C5C5C" stroke-width="0.6552" stroke-miterlimit="10" stroke-linecap="round" stroke-linejoin="round"/>
<path d="M1048.39 377.601H978.391C977.991 377.601 977.691 377.301 977.691 376.901V375.001C977.691 374.601 977.991 374.301 978.391 374.301H1048.39C1048.79 374.301 1049.09 374.601 1049.09 375.001V376.901C1049.19 377.301 1048.79 377.601 1048.39 377.601Z" fill="#C0C0BF"/>
<path d="M1048.39 377.8H978.391C977.991 377.8 977.691 377.5 977.691 377.1V375.2C977.691 374.8 977.991 374.5 978.391 374.5H1048.39C1048.79 374.5 1049.09 374.8 1049.09 375.2V377.1C1049.19 377.5 1048.79 377.8 1048.39 377.8Z" fill="#C0C0BF" stroke="#5C5C5C" stroke-width="0.7308" stroke-miterlimit="10" stroke-linecap="round" stroke-linejoin="round"/>
<path d="M1115.89 65.1016H910.191V356.502H1115.89V65.1016Z" stroke="#5C5C5C" stroke-width="0.7841" stroke-miterlimit="10" stroke-linecap="round" stroke-linejoin="round"/>
<path d="M1001.09 77H922.091V344.6H1001.09" stroke="#5C5C5C" stroke-width="0.7841" stroke-miterlimit="10" stroke-linecap="round" stroke-linejoin="round"/>
<path d="M1024.89 344.6H1103.89V77H1024.89" stroke="#5C5C5C" stroke-width="0.7841" stroke-miterlimit="10" stroke-linecap="round" stroke-linejoin="round"/>
<path d="M1021.39 200.301H1016.49V231.201H1021.39V200.301Z" fill="#C0C0BF" stroke="#5C5C5C" stroke-width="0.7308" stroke-miterlimit="10" stroke-linecap="round" stroke-linejoin="round"/>
<path d="M1009.49 200.301H1004.59V231.201H1009.49V200.301Z" fill="#C0C0BF" stroke="#5C5C5C" stroke-width="0.7308" stroke-miterlimit="10" stroke-linecap="round" stroke-linejoin="round"/>
<path d="M905.892 360.801H1120.09V60.8008H905.892V360.801Z" stroke="#5C5C5C" stroke-width="0.7841" stroke-miterlimit="10" stroke-linecap="round" stroke-linejoin="round"/>
<path d="M1012.99 65.1016V356.502" stroke="#5C5C5C" stroke-width="0.7841" stroke-miterlimit="10" stroke-linecap="round" stroke-linejoin="round"/>
<path d="M1001.09 77V356.5" stroke="#5C5C5C" stroke-width="0.7841" stroke-miterlimit="10" stroke-linecap="round" stroke-linejoin="round"/>
<path d="M1024.89 77V356.5" stroke="#5C5C5C" stroke-width="0.7841" stroke-miterlimit="10" stroke-linecap="round" stroke-linejoin="round"/>
<path d="M922.091 77.0016V65.1016" stroke="#5C5C5C" stroke-width="0.7841" stroke-miterlimit="10" stroke-linecap="round" stroke-linejoin="round"/>
<path d="M1103.89 77.0016V65.1016" stroke="#5C5C5C" stroke-width="0.7841" stroke-miterlimit="10" stroke-linecap="round" stroke-linejoin="round"/>
<path d="M1001.09 77.0016V65.1016" stroke="#5C5C5C" stroke-width="0.7841" stroke-miterlimit="10" stroke-linecap="round" stroke-linejoin="round"/>
<path d="M1024.89 77.0016V65.1016" stroke="#5C5C5C" stroke-width="0.7841" stroke-miterlimit="10" stroke-linecap="round" stroke-linejoin="round"/>
<path d="M922.091 344.602V356.502" stroke="#5C5C5C" stroke-width="0.7841" stroke-miterlimit="10" stroke-linecap="round" stroke-linejoin="round"/>
<path d="M1103.89 344.602V356.502" stroke="#5C5C5C" stroke-width="0.7841" stroke-miterlimit="10" stroke-linecap="round" stroke-linejoin="round"/>
<path d="M922.091 344.602H999.191" stroke="#5C5C5C" stroke-width="0.7841" stroke-miterlimit="10" stroke-linecap="round" stroke-linejoin="round"/>
<circle cx="1103.89" cy="344.599" r="0.39205" fill="#5C5C5C"/>
<circle cx="922.091" cy="344.599" r="0.39205" fill="#5C5C5C"/>
<circle cx="1012.99" cy="231.298" r="0.39205" fill="#5C5C5C"/>
<circle cx="1024.89" cy="231.298" r="0.39205" fill="#5C5C5C"/>
<circle cx="1024.29" cy="191.201" r="0.39205" fill="#5C5C5C"/>
<circle cx="1103.89" cy="77.0014" r="0.39205" fill="#5C5C5C"/>
<circle cx="1024.89" cy="77.0014" r="0.39205" fill="#5C5C5C"/>
<circle cx="1024.89" cy="119.501" r="0.39205" fill="#5C5C5C"/>
<path opacity="0.5" d="M210.591 412.898H8.09082V415.298H210.591V412.898Z" fill="#D7D7D7"/>
<path d="M210.392 412.898H7.8916V415.298H210.392V412.898Z" stroke="#C0C0BF" stroke-width="0.3445" stroke-miterlimit="10" stroke-linecap="round" stroke-linejoin="round"/>
<path d="M207.792 462.901V423.601H10.1916V462.901H1.8916V415.301H216.192V462.901H207.792Z" stroke="#5C5C5C" stroke-width="0.7308" stroke-miterlimit="10" stroke-linecap="round" stroke-linejoin="round"/>
<path d="M10.1914 423.601V415.301" stroke="#5C5C5C" stroke-width="0.7308" stroke-miterlimit="10" stroke-linecap="round" stroke-linejoin="round"/>
<path d="M207.791 423.601V415.301" stroke="#5C5C5C" stroke-width="0.7308" stroke-miterlimit="10" stroke-linecap="round" stroke-linejoin="round"/>
<circle cx="114.491" cy="364.798" r="0.0363449" fill="#C0C0BF"/>
<circle cx="114.491" cy="364.798" r="0.0363449" fill="#C0C0BF"/>
<path d="M6.69141 370V408.1H7.89141" stroke="#5C5C5C" stroke-width="0.7308" stroke-miterlimit="10" stroke-linecap="round" stroke-linejoin="round"/>
<path d="M1.8916 365.301H216.192V412.901" stroke="#5C5C5C" stroke-width="0.7308" stroke-miterlimit="10" stroke-linecap="round" stroke-linejoin="round"/>
<path d="M6.69141 370H210.791V408.2" stroke="#5C5C5C" stroke-width="0.7308" stroke-miterlimit="10" stroke-linecap="round" stroke-linejoin="round"/>
<path d="M7.8916 408.102H210.192" stroke="#5C5C5C" stroke-width="0.7308" stroke-miterlimit="10" stroke-linecap="round" stroke-linejoin="round"/>
<path d="M1.8916 365.301V412.901H216.192" stroke="#5C5C5C" stroke-width="0.7308" stroke-miterlimit="10" stroke-linecap="round" stroke-linejoin="round"/>
<path d="M209.991 361.301V365.301" stroke="#C0C0BF" stroke-width="0.4663" stroke-miterlimit="10" stroke-linecap="round" stroke-linejoin="round"/>
<path opacity="0.5" d="M7.59082 365.301V361.301H209.991V365.301" fill="#D7D7D7"/>
<path d="M209.991 365.301V361.301H7.59082V365.301" stroke="#C0C0BF" stroke-width="0.4663" stroke-miterlimit="10" stroke-linecap="round" stroke-linejoin="round"/>
<path opacity="0.5" d="M5.8916 61.4016V56.6016H211.592V61.4016" fill="#D7D7D7"/>
<path d="M5.8916 127.398V132.198" stroke="#C0C0BF" stroke-width="0.3445" stroke-miterlimit="10" stroke-linecap="round" stroke-linejoin="round"/>
<path d="M211.591 56.6016V61.4016" stroke="#C0C0BF" stroke-width="0.3445" stroke-miterlimit="10" stroke-linecap="round" stroke-linejoin="round"/>
<circle cx="1.59099" cy="132.201" r="0.3654" fill="#5C5C5C"/>
<circle cx="96.7912" cy="65.7013" r="0.3654" fill="#5C5C5C"/>
<path d="M7.19102 56.5984H1.29102V51.8984H215.091V56.5984H7.19102Z" stroke="#5C5C5C" stroke-width="0.6552" stroke-miterlimit="10" stroke-linecap="round" stroke-linejoin="round"/>
<path opacity="0.5" d="M521.191 412.898H318.691V415.298H521.191V412.898Z" fill="#D7D7D7"/>
<path d="M521.091 412.898H318.591V415.298H521.091V412.898Z" stroke="#C0C0BF" stroke-width="0.3445" stroke-miterlimit="10" stroke-linecap="round" stroke-linejoin="round"/>
<path d="M518.491 462.901V423.601H320.891V462.901H312.591V415.301H526.791V462.901H518.491Z" stroke="#5C5C5C" stroke-width="0.7308" stroke-miterlimit="10" stroke-linecap="round" stroke-linejoin="round"/>
<path d="M320.892 423.601V415.301" stroke="#5C5C5C" stroke-width="0.7308" stroke-miterlimit="10" stroke-linecap="round" stroke-linejoin="round"/>
<path d="M518.491 423.601V415.301" stroke="#5C5C5C" stroke-width="0.7308" stroke-miterlimit="10" stroke-linecap="round" stroke-linejoin="round"/>
<path opacity="0.5" d="M316.991 112.899V108.199H522.691V112.899" fill="#D7D7D7"/>
<path d="M316.991 108.199V112.899" stroke="#C0C0BF" stroke-width="0.3445" stroke-miterlimit="10" stroke-linecap="round" stroke-linejoin="round"/>
<path d="M522.691 108.199V112.899" stroke="#C0C0BF" stroke-width="0.3445" stroke-miterlimit="10" stroke-linecap="round" stroke-linejoin="round"/>
<path d="M318.392 108.198H312.392V103.398H526.292V108.198H318.392Z" stroke="#5C5C5C" stroke-width="0.6552" stroke-miterlimit="10" stroke-linecap="round" stroke-linejoin="round"/>
<path d="M143.391 378.201H73.3914C72.9914 378.201 72.6914 377.901 72.6914 377.501V375.501C72.6914 375.101 72.9914 374.801 73.3914 374.801H143.391C143.791 374.801 144.091 375.101 144.091 375.501V377.401C144.191 377.901 143.791 378.201 143.391 378.201Z" fill="#C0C0BF"/>
<path d="M143.391 378.3H73.3914C72.9914 378.3 72.6914 378 72.6914 377.6V375.7C72.6914 375.3 72.9914 375 73.3914 375H143.391C143.791 375 144.091 375.3 144.091 375.7V377.6C144.191 378 143.791 378.3 143.391 378.3Z" fill="#C0C0BF" stroke="#5C5C5C" stroke-width="0.7308" stroke-miterlimit="10" stroke-linecap="round" stroke-linejoin="round"/>
<path d="M210.791 65.6992H5.09082V357.099H210.791V65.6992Z" stroke="#5C5C5C" stroke-width="0.7841" stroke-miterlimit="10" stroke-linecap="round" stroke-linejoin="round"/>
<path d="M96.0912 77.6016H16.9912V345.202H96.0912" stroke="#5C5C5C" stroke-width="0.7841" stroke-miterlimit="10" stroke-linecap="round" stroke-linejoin="round"/>
<path d="M119.892 345.202H198.892V77.6016H119.892" stroke="#5C5C5C" stroke-width="0.7841" stroke-miterlimit="10" stroke-linecap="round" stroke-linejoin="round"/>
<path d="M116.391 200.898H111.491V231.798H116.391V200.898Z" fill="#C0C0BF" stroke="#5C5C5C" stroke-width="0.7308" stroke-miterlimit="10" stroke-linecap="round" stroke-linejoin="round"/>
<path d="M104.491 200.898H99.5908V231.798H104.491V200.898Z" fill="#C0C0BF" stroke="#5C5C5C" stroke-width="0.7308" stroke-miterlimit="10" stroke-linecap="round" stroke-linejoin="round"/>
<path d="M0.891602 361.298H215.092V61.3984H0.891602V361.298Z" stroke="#5C5C5C" stroke-width="0.7841" stroke-miterlimit="10" stroke-linecap="round" stroke-linejoin="round"/>
<path d="M107.991 65.6992V357.099" stroke="#5C5C5C" stroke-width="0.7841" stroke-miterlimit="10" stroke-linecap="round" stroke-linejoin="round"/>
<path d="M96.0908 77.6016V357.102" stroke="#5C5C5C" stroke-width="0.7841" stroke-miterlimit="10" stroke-linecap="round" stroke-linejoin="round"/>
<path d="M119.892 77.6016V357.102" stroke="#5C5C5C" stroke-width="0.7841" stroke-miterlimit="10" stroke-linecap="round" stroke-linejoin="round"/>
<path d="M16.9912 77.5992V65.6992" stroke="#5C5C5C" stroke-width="0.7841" stroke-miterlimit="10" stroke-linecap="round" stroke-linejoin="round"/>
<path d="M198.892 77.5992V65.6992" stroke="#5C5C5C" stroke-width="0.7841" stroke-miterlimit="10" stroke-linecap="round" stroke-linejoin="round"/>
<path d="M96.0908 77.5992V65.6992" stroke="#5C5C5C" stroke-width="0.7841" stroke-miterlimit="10" stroke-linecap="round" stroke-linejoin="round"/>
<path d="M119.892 77.5992V65.6992" stroke="#5C5C5C" stroke-width="0.7841" stroke-miterlimit="10" stroke-linecap="round" stroke-linejoin="round"/>
<path d="M16.9912 345.199V357.099" stroke="#5C5C5C" stroke-width="0.7841" stroke-miterlimit="10" stroke-linecap="round" stroke-linejoin="round"/>
<path d="M198.892 345.199V357.099" stroke="#5C5C5C" stroke-width="0.7841" stroke-miterlimit="10" stroke-linecap="round" stroke-linejoin="round"/>
<path d="M16.9912 345.199H94.0912" stroke="#5C5C5C" stroke-width="0.7841" stroke-miterlimit="10" stroke-linecap="round" stroke-linejoin="round"/>
<circle cx="198.891" cy="345.201" r="0.39205" fill="#5C5C5C"/>
<circle cx="16.9917" cy="345.201" r="0.39205" fill="#5C5C5C"/>
<circle cx="107.992" cy="231.798" r="0.39205" fill="#5C5C5C"/>
<circle cx="119.891" cy="231.798" r="0.39205" fill="#5C5C5C"/>
<circle cx="119.291" cy="191.701" r="0.39205" fill="#5C5C5C"/>
<circle cx="198.891" cy="77.5991" r="0.39205" fill="#5C5C5C"/>
<circle cx="119.891" cy="77.5991" r="0.39205" fill="#5C5C5C"/>
<circle cx="119.891" cy="120.001" r="0.39205" fill="#5C5C5C"/>
<path d="M522.592 117.199H316.892V408.599H522.592V117.199Z" stroke="#5C5C5C" stroke-width="0.7841" stroke-miterlimit="10" stroke-linecap="round" stroke-linejoin="round"/>
<path d="M407.791 129.102H328.791V396.702H407.791" stroke="#5C5C5C" stroke-width="0.7841" stroke-miterlimit="10" stroke-linecap="round" stroke-linejoin="round"/>
<path d="M431.591 396.702H510.591V129.102H431.591" stroke="#5C5C5C" stroke-width="0.7841" stroke-miterlimit="10" stroke-linecap="round" stroke-linejoin="round"/>
<path d="M428.091 252.398H423.191V283.298H428.091V252.398Z" fill="#C0C0BF" stroke="#5C5C5C" stroke-width="0.7308" stroke-miterlimit="10" stroke-linecap="round" stroke-linejoin="round"/>
<path d="M416.191 252.398H411.291V283.298H416.191V252.398Z" fill="#C0C0BF" stroke="#5C5C5C" stroke-width="0.7308" stroke-miterlimit="10" stroke-linecap="round" stroke-linejoin="round"/>
<path d="M312.591 412.898H526.791V112.898H312.591V412.898Z" stroke="#5C5C5C" stroke-width="0.7841" stroke-miterlimit="10" stroke-linecap="round" stroke-linejoin="round"/>
<path d="M419.691 117.199V408.599" stroke="#5C5C5C" stroke-width="0.7841" stroke-miterlimit="10" stroke-linecap="round" stroke-linejoin="round"/>
<path d="M407.791 129.102V408.602" stroke="#5C5C5C" stroke-width="0.7841" stroke-miterlimit="10" stroke-linecap="round" stroke-linejoin="round"/>
<path d="M431.591 129.102V408.602" stroke="#5C5C5C" stroke-width="0.7841" stroke-miterlimit="10" stroke-linecap="round" stroke-linejoin="round"/>
<path d="M328.791 129.099V117.199" stroke="#5C5C5C" stroke-width="0.7841" stroke-miterlimit="10" stroke-linecap="round" stroke-linejoin="round"/>
<path d="M510.591 129.099V117.199" stroke="#5C5C5C" stroke-width="0.7841" stroke-miterlimit="10" stroke-linecap="round" stroke-linejoin="round"/>
<path d="M407.791 129.099V117.199" stroke="#5C5C5C" stroke-width="0.7841" stroke-miterlimit="10" stroke-linecap="round" stroke-linejoin="round"/>
<path d="M431.591 129.099V117.199" stroke="#5C5C5C" stroke-width="0.7841" stroke-miterlimit="10" stroke-linecap="round" stroke-linejoin="round"/>
<path d="M328.791 396.699V408.599" stroke="#5C5C5C" stroke-width="0.7841" stroke-miterlimit="10" stroke-linecap="round" stroke-linejoin="round"/>
<path d="M510.591 396.699V408.599" stroke="#5C5C5C" stroke-width="0.7841" stroke-miterlimit="10" stroke-linecap="round" stroke-linejoin="round"/>
<path d="M328.791 396.699H405.891" stroke="#5C5C5C" stroke-width="0.7841" stroke-miterlimit="10" stroke-linecap="round" stroke-linejoin="round"/>
<circle cx="510.591" cy="396.701" r="0.39205" fill="#5C5C5C"/>
<circle cx="328.791" cy="396.701" r="0.39205" fill="#5C5C5C"/>
<circle cx="419.691" cy="283.4" r="0.39205" fill="#5C5C5C"/>
<circle cx="431.591" cy="283.4" r="0.39205" fill="#5C5C5C"/>
<circle cx="430.992" cy="243.298" r="0.39205" fill="#5C5C5C"/>
<circle cx="510.591" cy="129.099" r="0.39205" fill="#5C5C5C"/>
<circle cx="431.591" cy="129.099" r="0.39205" fill="#5C5C5C"/>
<circle cx="431.591" cy="171.599" r="0.39205" fill="#5C5C5C"/>
<path opacity="0.5" d="M628.05 315.77L725.15 315.77L725.15 310.57L628.05 310.57L628.05 315.77Z" fill="#D7D7D7"/>
<path opacity="0.5" d="M736.671 315.77L833.671 315.77L833.671 310.57L736.671 310.57L736.671 315.77Z" fill="#D7D7D7"/>
<path d="M833.691 310.898V315.698H736.591V311.198" stroke="#C0C0BF" stroke-width="0.4989" stroke-miterlimit="10" stroke-linecap="round" stroke-linejoin="round"/>
<path d="M628.191 310.898V315.598" stroke="#C0C0BF" stroke-width="0.4872" stroke-miterlimit="10" stroke-linecap="round" stroke-linejoin="round"/>
<path opacity="0.5" d="M628.591 10.3016V5.60156H834.291V10.3016" fill="#D7D7D7"/>
<path d="M834.291 5.60156V10.3016" stroke="#C0C0BF" stroke-width="0.3445" stroke-miterlimit="10" stroke-linecap="round" stroke-linejoin="round"/>
<path d="M628.591 5.60156V10.3016" stroke="#C0C0BF" stroke-width="0.3445" stroke-miterlimit="10" stroke-linecap="round" stroke-linejoin="round"/>
<path d="M837.991 462.801V365.301H623.791V462.801H632.091V423.601H829.691V462.801H837.991Z" stroke="#5C5C5C" stroke-width="0.7308" stroke-miterlimit="10" stroke-linecap="round" stroke-linejoin="round"/>
<path d="M632.091 423.599V415.199H829.691V423.599" stroke="#5C5C5C" stroke-width="0.7343" stroke-miterlimit="10" stroke-linecap="round" stroke-linejoin="round"/>
<path d="M829.492 365.699H631.892V374.099H829.492V365.699Z" stroke="#5C5C5C" stroke-width="0.7308" stroke-miterlimit="10" stroke-linecap="round" stroke-linejoin="round"/>
<path d="M631.892 374.102V415.202" stroke="#5C5C5C" stroke-width="0.7308" stroke-miterlimit="10" stroke-linecap="round" stroke-linejoin="round"/>
<path d="M829.691 415.202V374.102" stroke="#5C5C5C" stroke-width="0.7308" stroke-miterlimit="10" stroke-linecap="round" stroke-linejoin="round"/>
<path d="M833.791 14.6016H628.091V306.002H833.791V14.6016Z" stroke="#5C5C5C" stroke-width="0.7841" stroke-miterlimit="10" stroke-linecap="round" stroke-linejoin="round"/>
<path d="M718.991 26.5H639.991V294.1H718.991" stroke="#5C5C5C" stroke-width="0.7841" stroke-miterlimit="10" stroke-linecap="round" stroke-linejoin="round"/>
<path d="M742.791 294.1H821.791V26.5H742.791" stroke="#5C5C5C" stroke-width="0.7841" stroke-miterlimit="10" stroke-linecap="round" stroke-linejoin="round"/>
<path d="M739.292 149.801H734.392V180.701H739.292V149.801Z" fill="#C0C0BF" stroke="#5C5C5C" stroke-width="0.7308" stroke-miterlimit="10" stroke-linecap="round" stroke-linejoin="round"/>
<path d="M727.391 149.801H722.491V180.701H727.391V149.801Z" fill="#C0C0BF" stroke="#5C5C5C" stroke-width="0.7308" stroke-miterlimit="10" stroke-linecap="round" stroke-linejoin="round"/>
<path d="M629.691 363.602V365.302H832.091V363.602" stroke="#5C5C5C" stroke-width="0.477" stroke-miterlimit="10" stroke-linecap="round" stroke-linejoin="round"/>
<path d="M623.791 310.301H837.991V10.3008H623.791V310.301Z" stroke="#5C5C5C" stroke-width="0.7841" stroke-miterlimit="10" stroke-linecap="round" stroke-linejoin="round"/>
<path d="M730.892 14.6016V306.002" stroke="#5C5C5C" stroke-width="0.7841" stroke-miterlimit="10" stroke-linecap="round" stroke-linejoin="round"/>
<path d="M718.991 26.5V306" stroke="#5C5C5C" stroke-width="0.7841" stroke-miterlimit="10" stroke-linecap="round" stroke-linejoin="round"/>
<path d="M742.791 26.5V306" stroke="#5C5C5C" stroke-width="0.7841" stroke-miterlimit="10" stroke-linecap="round" stroke-linejoin="round"/>
<path d="M639.991 26.5016V14.6016" stroke="#5C5C5C" stroke-width="0.7841" stroke-miterlimit="10" stroke-linecap="round" stroke-linejoin="round"/>
<path d="M821.791 26.5016V14.6016" stroke="#5C5C5C" stroke-width="0.7841" stroke-miterlimit="10" stroke-linecap="round" stroke-linejoin="round"/>
<path d="M718.991 26.5016V14.6016" stroke="#5C5C5C" stroke-width="0.7841" stroke-miterlimit="10" stroke-linecap="round" stroke-linejoin="round"/>
<path d="M742.791 26.5016V14.6016" stroke="#5C5C5C" stroke-width="0.7841" stroke-miterlimit="10" stroke-linecap="round" stroke-linejoin="round"/>
<path d="M639.991 294.102V306.002" stroke="#5C5C5C" stroke-width="0.7841" stroke-miterlimit="10" stroke-linecap="round" stroke-linejoin="round"/>
<path d="M821.791 294.102V306.002" stroke="#5C5C5C" stroke-width="0.7841" stroke-miterlimit="10" stroke-linecap="round" stroke-linejoin="round"/>
<path d="M639.991 294.102H717.091" stroke="#5C5C5C" stroke-width="0.7841" stroke-miterlimit="10" stroke-linecap="round" stroke-linejoin="round"/>
<circle cx="628.091" cy="14.5991" r="0.39205" fill="#5C5C5C"/>
<circle cx="821.791" cy="294.099" r="0.39205" fill="#5C5C5C"/>
<circle cx="639.992" cy="294.099" r="0.39205" fill="#5C5C5C"/>
<circle cx="639.992" cy="14.5991" r="0.39205" fill="#5C5C5C"/>
<circle cx="717.091" cy="14.5991" r="0.39205" fill="#5C5C5C"/>
<circle cx="730.891" cy="180.798" r="0.39205" fill="#5C5C5C"/>
<circle cx="742.791" cy="180.798" r="0.39205" fill="#5C5C5C"/>
<circle cx="742.791" cy="222.298" r="0.39205" fill="#5C5C5C"/>
<circle cx="718.992" cy="14.5991" r="0.39205" fill="#5C5C5C"/>
<circle cx="706.992" cy="14.5991" r="0.39205" fill="#5C5C5C"/>
<circle cx="821.791" cy="26.5014" r="0.39205" fill="#5C5C5C"/>
<circle cx="742.791" cy="26.5014" r="0.39205" fill="#5C5C5C"/>
<circle cx="742.791" cy="69.0014" r="0.39205" fill="#5C5C5C"/>
<path d="M629.891 5.60078H623.991V0.800781H837.791V5.60078H629.891Z" stroke="#5C5C5C" stroke-width="0.6552" stroke-miterlimit="10" stroke-linecap="round" stroke-linejoin="round"/>
<path d="M628.392 320.699V358.799H832.492" stroke="#5C5C5C" stroke-width="0.7308" stroke-miterlimit="10" stroke-linecap="round" stroke-linejoin="round"/>
<path d="M623.591 316H837.791V363.6" stroke="#5C5C5C" stroke-width="0.7308" stroke-miterlimit="10" stroke-linecap="round" stroke-linejoin="round"/>
<path d="M628.392 320.699H832.492V358.899" stroke="#5C5C5C" stroke-width="0.7308" stroke-miterlimit="10" stroke-linecap="round" stroke-linejoin="round"/>
<path d="M623.591 316V363.6H837.791" stroke="#5C5C5C" stroke-width="0.7308" stroke-miterlimit="10" stroke-linecap="round" stroke-linejoin="round"/>
<path d="M765.092 328.902H695.092C694.692 328.902 694.392 328.602 694.392 328.202V326.302C694.392 325.902 694.692 325.602 695.092 325.602H765.092C765.492 325.602 765.792 325.902 765.792 326.302V328.202C765.792 328.602 765.492 328.902 765.092 328.902Z" fill="#C0C0BF"/>
<path d="M765.092 328.999H695.092C694.692 328.999 694.392 328.699 694.392 328.299V326.399C694.392 325.999 694.692 325.699 695.092 325.699H765.092C765.492 325.699 765.792 325.999 765.792 326.399V328.299C765.792 328.699 765.492 328.999 765.092 328.999Z" fill="#C0C0BF" stroke="#5C5C5C" stroke-width="0.7308" stroke-miterlimit="10" stroke-linecap="round" stroke-linejoin="round"/>
<path opacity="0.5" d="M1116.09 412.801H913.591V415.201H1116.09V412.801Z" fill="#D7D7D7"/>
<path d="M1115.89 412.801H913.392V415.201H1115.89V412.801Z" stroke="#C0C0BF" stroke-width="0.3445" stroke-miterlimit="10" stroke-linecap="round" stroke-linejoin="round"/>
<path d="M1121.69 462.799V415.199H907.392V462.799H915.792V423.599H1113.29V462.799H1121.69Z" stroke="#5C5C5C" stroke-width="0.7308" stroke-miterlimit="10" stroke-linecap="round" stroke-linejoin="round"/>
<path d="M915.791 423.599V415.199" stroke="#5C5C5C" stroke-width="0.7308" stroke-miterlimit="10" stroke-linecap="round" stroke-linejoin="round"/>
<path d="M1113.29 423.599V415.199" stroke="#5C5C5C" stroke-width="0.7308" stroke-miterlimit="10" stroke-linecap="round" stroke-linejoin="round"/>
<circle cx="1019.99" cy="364.7" r="0.0363449" fill="#C0C0BF"/>
<circle cx="1019.99" cy="364.7" r="0.0363449" fill="#C0C0BF"/>
<path d="M912.191 370V408.1H913.391" stroke="#5C5C5C" stroke-width="0.7308" stroke-miterlimit="10" stroke-linecap="round" stroke-linejoin="round"/>
<path d="M907.392 365.199H1121.69V412.799" stroke="#5C5C5C" stroke-width="0.7308" stroke-miterlimit="10" stroke-linecap="round" stroke-linejoin="round"/>
<path d="M912.191 369.898H1116.29V408.098" stroke="#5C5C5C" stroke-width="0.7308" stroke-miterlimit="10" stroke-linecap="round" stroke-linejoin="round"/>
<path d="M913.392 408.102H1115.69" stroke="#5C5C5C" stroke-width="0.7308" stroke-miterlimit="10" stroke-linecap="round" stroke-linejoin="round"/>
<path d="M907.392 365.199V412.799H1121.69" stroke="#5C5C5C" stroke-width="0.7308" stroke-miterlimit="10" stroke-linecap="round" stroke-linejoin="round"/>
<path d="M1115.49 361.301V365.201" stroke="#C0C0BF" stroke-width="0.4663" stroke-miterlimit="10" stroke-linecap="round" stroke-linejoin="round"/>
<path opacity="0.5" d="M913.091 365.201V361.301H1115.49V365.201" fill="#D7D7D7"/>
<path d="M1115.49 365.201V361.301H913.091V365.201" stroke="#C0C0BF" stroke-width="0.4663" stroke-miterlimit="10" stroke-linecap="round" stroke-linejoin="round"/>
<path opacity="0.5" d="M911.392 61.3016V56.6016H1117.09V61.3016" fill="#D7D7D7"/>
<path d="M911.392 127.398V132.098" stroke="#C0C0BF" stroke-width="0.3445" stroke-miterlimit="10" stroke-linecap="round" stroke-linejoin="round"/>
<path d="M1117.09 56.6016V61.3016" stroke="#C0C0BF" stroke-width="0.3445" stroke-miterlimit="10" stroke-linecap="round" stroke-linejoin="round"/>
<circle cx="907.091" cy="132.1" r="0.3654" fill="#5C5C5C"/>
<circle cx="1002.39" cy="65.5998" r="0.3654" fill="#5C5C5C"/>
<path d="M912.691 56.6008H906.791V51.8008H1120.69V56.6008H912.691Z" stroke="#5C5C5C" stroke-width="0.6552" stroke-miterlimit="10" stroke-linecap="round" stroke-linejoin="round"/>
<path d="M1048.89 378.101H978.891C978.491 378.101 978.191 377.801 978.191 377.401V375.501C978.191 375.101 978.491 374.801 978.891 374.801H1048.89C1049.29 374.801 1049.59 375.101 1049.59 375.501V377.401C1049.69 377.801 1049.29 378.101 1048.89 378.101Z" fill="#C0C0BF"/>
<path d="M1048.89 378.3H978.891C978.491 378.3 978.191 378 978.191 377.6V375.7C978.191 375.3 978.491 375 978.891 375H1048.89C1049.29 375 1049.59 375.3 1049.59 375.7V377.6C1049.69 378 1049.29 378.3 1048.89 378.3Z" fill="#C0C0BF" stroke="#5C5C5C" stroke-width="0.7308" stroke-miterlimit="10" stroke-linecap="round" stroke-linejoin="round"/>
<path d="M1116.39 65.6016H910.691V357.002H1116.39V65.6016Z" stroke="#5C5C5C" stroke-width="0.7841" stroke-miterlimit="10" stroke-linecap="round" stroke-linejoin="round"/>
<path d="M1001.59 77.5H922.591V345.1H1001.59" stroke="#5C5C5C" stroke-width="0.7841" stroke-miterlimit="10" stroke-linecap="round" stroke-linejoin="round"/>
<path d="M1025.39 345.1H1104.39V77.5H1025.39" stroke="#5C5C5C" stroke-width="0.7841" stroke-miterlimit="10" stroke-linecap="round" stroke-linejoin="round"/>
<path d="M1021.89 200.801H1016.99V231.701H1021.89V200.801Z" fill="#C0C0BF" stroke="#5C5C5C" stroke-width="0.7308" stroke-miterlimit="10" stroke-linecap="round" stroke-linejoin="round"/>
<path d="M1009.99 200.801H1005.09V231.701H1009.99V200.801Z" fill="#C0C0BF" stroke="#5C5C5C" stroke-width="0.7308" stroke-miterlimit="10" stroke-linecap="round" stroke-linejoin="round"/>
<path d="M906.392 361.301H1120.59V61.3008H906.392V361.301Z" stroke="#5C5C5C" stroke-width="0.7841" stroke-miterlimit="10" stroke-linecap="round" stroke-linejoin="round"/>
<path d="M1013.49 65.6016V357.002" stroke="#5C5C5C" stroke-width="0.7841" stroke-miterlimit="10" stroke-linecap="round" stroke-linejoin="round"/>
<path d="M1001.59 77.5V357" stroke="#5C5C5C" stroke-width="0.7841" stroke-miterlimit="10" stroke-linecap="round" stroke-linejoin="round"/>
<path d="M1025.39 77.5V357" stroke="#5C5C5C" stroke-width="0.7841" stroke-miterlimit="10" stroke-linecap="round" stroke-linejoin="round"/>
<path d="M922.591 77.5016V65.6016" stroke="#5C5C5C" stroke-width="0.7841" stroke-miterlimit="10" stroke-linecap="round" stroke-linejoin="round"/>
<path d="M1104.39 77.5016V65.6016" stroke="#5C5C5C" stroke-width="0.7841" stroke-miterlimit="10" stroke-linecap="round" stroke-linejoin="round"/>
<path d="M1001.59 77.5016V65.6016" stroke="#5C5C5C" stroke-width="0.7841" stroke-miterlimit="10" stroke-linecap="round" stroke-linejoin="round"/>
<path d="M1025.39 77.5016V65.6016" stroke="#5C5C5C" stroke-width="0.7841" stroke-miterlimit="10" stroke-linecap="round" stroke-linejoin="round"/>
<path d="M922.591 345.102V357.002" stroke="#5C5C5C" stroke-width="0.7841" stroke-miterlimit="10" stroke-linecap="round" stroke-linejoin="round"/>
<path d="M1104.39 345.102V357.002" stroke="#5C5C5C" stroke-width="0.7841" stroke-miterlimit="10" stroke-linecap="round" stroke-linejoin="round"/>
<path d="M922.591 345.102H999.691" stroke="#5C5C5C" stroke-width="0.7841" stroke-miterlimit="10" stroke-linecap="round" stroke-linejoin="round"/>
<circle cx="1104.39" cy="345.099" r="0.39205" fill="#5C5C5C"/>
<circle cx="922.591" cy="345.099" r="0.39205" fill="#5C5C5C"/>
<circle cx="1013.49" cy="231.798" r="0.39205" fill="#5C5C5C"/>
<circle cx="1025.39" cy="231.798" r="0.39205" fill="#5C5C5C"/>
<circle cx="1024.79" cy="191.701" r="0.39205" fill="#5C5C5C"/>
<circle cx="1104.39" cy="77.5014" r="0.39205" fill="#5C5C5C"/>
<circle cx="1025.39" cy="77.5014" r="0.39205" fill="#5C5C5C"/>
<circle cx="1025.39" cy="120.001" r="0.39205" fill="#5C5C5C"/>
</svg>
