<svg width="56" height="33" viewBox="0 0 56 33" fill="none" xmlns="http://www.w3.org/2000/svg">
<path d="M19.495 22.2305C19.495 27.4868 15.2691 31.676 9.74751 31.676C4.24585 31.676 0 27.4868 0 22.2305C0 19.6221 1.31562 17.1916 2.11296 15.9269L11.0033 1.85742H13.3355L5.92027 13.6149C6.55814 13.2395 8.03322 12.785 9.72758 12.785C15.2492 12.785 19.495 16.9742 19.495 22.2305ZM17.3621 22.2305C17.3621 18.0413 14.1927 14.8796 9.74751 14.8796C5.30232 14.8796 2.13289 18.0215 2.13289 22.2305C2.13289 26.4395 5.30232 29.5814 9.74751 29.5814C14.1927 29.5616 17.3621 26.4197 17.3621 22.2305Z" fill="#111111"/>
<path d="M26.691 33V0H28.5847V33H26.691Z" fill="#111111"/>
<path d="M36.2192 27.2692L37.6943 25.8069C38.7907 27.447 41.5814 29.5811 45.3089 29.5811C49.9734 29.5811 53.1428 26.4392 53.1428 22.2302C53.1428 18.041 49.9734 14.8793 45.7275 14.8793C42.1794 14.8793 39.7475 16.8949 38.9501 18.456H37.2757L38.3322 1.87695H53.3621V3.97156H40.2259L39.588 15.0967C40.6046 14.0889 42.9767 12.7847 45.7275 12.7847C51.0299 12.7847 55.2558 16.974 55.2558 22.2302C55.2558 27.4865 51.0299 31.6758 45.3089 31.6758C40.8239 31.6758 37.495 29.1464 36.2192 27.2692Z" fill="#111111"/>
</svg>
