<svg width="828" height="204" viewBox="0 0 828 204" fill="none" xmlns="http://www.w3.org/2000/svg">
<path opacity="0.4" d="M279.559 102.557H201.959V106.357H279.559V102.557Z" fill="#D7D7D7"/>
<path d="M81.7592 60.957H4.15918V64.757H81.7592V60.957Z" fill="#D7D7D7"/>
<path d="M278.659 163.258V165.158C267.359 165.158 256.159 165.158 244.859 165.158C242.159 165.158 239.459 165.158 236.759 165.158C225.459 165.158 214.259 165.158 202.959 165.158C202.959 164.558 202.959 163.858 202.959 163.258" stroke="#C0C0BF" stroke-width="0.3901" stroke-miterlimit="10" stroke-linecap="round" stroke-linejoin="round"/>
<g opacity="0.5">
<path d="M278.659 163.258H202.959V165.158H278.659V163.258Z" fill="#D7D7D7"/>
</g>
<g opacity="0.5">
<path d="M81.7592 102.656H4.15918V106.456H81.7592V102.656Z" fill="#D7D7D7"/>
</g>
<g opacity="0.5">
<path d="M80.8592 163.357H5.15918V165.257H80.8592V163.357Z" fill="#D7D7D7"/>
</g>
<path d="M279.659 102.557V106.357" stroke="#C0C0BF" stroke-width="0.3901" stroke-miterlimit="10" stroke-linecap="round" stroke-linejoin="round"/>
<path d="M80.8592 163.357V165.257C69.5592 165.257 58.3592 165.257 47.0592 165.257C44.3592 165.257 41.6592 165.257 38.9592 165.257C27.6592 165.257 16.4592 165.257 5.15918 165.257C5.15918 164.657 5.15918 163.957 5.15918 163.357" stroke="#C0C0BF" stroke-width="0.3901" stroke-miterlimit="10" stroke-linecap="round" stroke-linejoin="round"/>
<path d="M81.7592 102.656H4.15918V106.456H81.7592V102.656Z" stroke="#C0C0BF" stroke-width="0.4349" stroke-miterlimit="10" stroke-linecap="round" stroke-linejoin="round"/>
<path d="M0.359375 106.357V163.357H85.5594V106.357H0.359375Z" stroke="#5C5C5C" stroke-width="0.7178" stroke-miterlimit="10" stroke-linecap="round" stroke-linejoin="round"/>
<path d="M81.7592 109.857H4.15918V159.557H81.7592V109.857Z" stroke="#5C5C5C" stroke-width="0.7494" stroke-miterlimit="10" stroke-linecap="round" stroke-linejoin="round"/>
<path d="M85.4596 203.057V165.357H0.55957V203.057H7.15957V171.957H78.8596V203.057H85.4596Z" stroke="#5C5C5C" stroke-width="0.5852" stroke-miterlimit="10" stroke-linecap="round" stroke-linejoin="round"/>
<path d="M7.15918 171.957V165.357" stroke="#5C5C5C" stroke-width="0.5852" stroke-miterlimit="10" stroke-linecap="round" stroke-linejoin="round"/>
<path d="M78.8594 171.957V165.357" stroke="#5C5C5C" stroke-width="0.5852" stroke-miterlimit="10" stroke-linecap="round" stroke-linejoin="round"/>
<circle cx="7.15895" cy="171.957" r="0.0290692" fill="#C0C0BF"/>
<circle cx="78.8591" cy="171.957" r="0.0290692" fill="#C0C0BF"/>
<path d="M4.15938 60.9562H0.359375V57.1562H85.5594V60.9562" stroke="#5C5C5C" stroke-width="0.5852" stroke-miterlimit="10" stroke-linecap="round" stroke-linejoin="round"/>
<path d="M4.15918 64.757V60.957" stroke="#5C5C5C" stroke-width="0.5852" stroke-miterlimit="10" stroke-linecap="round" stroke-linejoin="round"/>
<path d="M81.8594 60.957V64.757" stroke="#5C5C5C" stroke-width="0.5852" stroke-miterlimit="10" stroke-linecap="round" stroke-linejoin="round"/>
<path d="M81.7592 68.5566H4.15918V98.8566H81.7592V68.5566Z" stroke="#5C5C5C" stroke-width="0.5852" stroke-miterlimit="10"/>
<path d="M278.659 163.258V165.158C267.359 165.158 256.059 165.158 244.859 165.158C242.159 165.158 239.459 165.158 236.759 165.158C225.459 165.158 214.159 165.158 202.959 165.158C202.959 164.558 202.959 163.858 202.959 163.258" stroke="#C0C0BF" stroke-width="0.0582107" stroke-miterlimit="10" stroke-linecap="round" stroke-linejoin="round"/>
<path d="M202.859 163.357V165.157H278.659V163.357" stroke="#C0C0BF" stroke-width="0.3901" stroke-miterlimit="10" stroke-linecap="round" stroke-linejoin="round"/>
<path d="M283.259 203.058V165.258H198.259V203.058H204.859V171.858H276.659V203.058H283.259Z" stroke="#5C5C5C" stroke-width="0.5852" stroke-miterlimit="10" stroke-linecap="round" stroke-linejoin="round"/>
<path d="M204.859 171.858V165.258" stroke="#5C5C5C" stroke-width="0.5852" stroke-miterlimit="10" stroke-linecap="round" stroke-linejoin="round"/>
<path d="M276.659 171.858V165.258" stroke="#5C5C5C" stroke-width="0.5852" stroke-miterlimit="10" stroke-linecap="round" stroke-linejoin="round"/>
<circle cx="204.859" cy="171.857" r="0.0291054" fill="#C0C0BF"/>
<circle cx="276.659" cy="171.857" r="0.0291054" fill="#C0C0BF"/>
<path d="M283.459 102.557H201.959" stroke="#5C5C5C" stroke-width="0.5852" stroke-miterlimit="10" stroke-linecap="round" stroke-linejoin="round"/>
<path d="M201.959 106.359V102.559" stroke="#C0C0BF" stroke-width="0.3901" stroke-miterlimit="10" stroke-linecap="round" stroke-linejoin="round"/>
<path d="M201.959 102.558H198.159V98.7578H283.459V102.558" stroke="#5C5C5C" stroke-width="0.5852" stroke-miterlimit="10" stroke-linecap="round" stroke-linejoin="round"/>
<circle cx="283.459" cy="98.7576" r="0.0291054" fill="#C0C0BF"/>
<circle cx="283.459" cy="102.556" r="0.0291054" fill="#C0C0BF"/>
<circle cx="201.959" cy="102.556" r="0.0291054" fill="#C0C0BF"/>
<circle cx="201.959" cy="105.957" r="0.0291054" fill="#C0C0BF"/>
<circle cx="201.959" cy="105.957" r="0.0291054" fill="#C0C0BF"/>
<path d="M0.359375 64.7578V102.658H85.5594V64.7578H0.359375Z" stroke="#5C5C5C" stroke-width="0.5852" stroke-miterlimit="10" stroke-linecap="round" stroke-linejoin="round"/>
<path opacity="0.5" d="M277.059 98.4563H204.359C203.459 98.4563 202.759 97.7563 202.759 96.8563V95.2563C202.759 94.3563 203.459 93.6562 204.359 93.6562H277.059C277.959 93.6562 278.659 94.3563 278.659 95.2563V96.9563C278.659 97.7563 277.959 98.4563 277.059 98.4563Z" fill="#D7D7D7" stroke="#3D3F3F" stroke-width="0.5817" stroke-miterlimit="10"/>
<path d="M35.3592 72.5566H42.1592H48.9592C49.2592 72.5566 49.5592 72.8566 49.5592 73.1566V74.8566C49.5592 75.1566 49.2592 75.4566 48.9592 75.4566H35.2592C34.9592 75.4566 34.6592 75.1566 34.6592 74.8566V73.1566C34.7592 72.8566 35.0592 72.5566 35.3592 72.5566Z" fill="#C0C0BF" stroke="#5C5C5C" stroke-width="0.5852" stroke-miterlimit="10" stroke-linecap="round" stroke-linejoin="round"/>
<path d="M198.159 106.156V163.156H283.359V106.156H198.159Z" stroke="#5C5C5C" stroke-width="0.7178" stroke-miterlimit="10" stroke-linecap="round" stroke-linejoin="round"/>
<path d="M279.559 109.656H201.959V159.356H279.559V109.656Z" stroke="#5C5C5C" stroke-width="0.7494" stroke-miterlimit="10" stroke-linecap="round" stroke-linejoin="round"/>
<path d="M13.6588 141.757V128.057C13.6588 127.757 13.3588 127.457 13.0588 127.457H11.3588C11.0588 127.457 10.7588 127.757 10.7588 128.057V134.957V141.857C10.7588 142.157 11.0588 142.457 11.3588 142.457H13.0588C13.3588 142.357 13.6588 142.057 13.6588 141.757Z" fill="#C0C0BF" stroke="#5C5C5C" stroke-width="0.5852" stroke-miterlimit="10" stroke-linecap="round" stroke-linejoin="round"/>
<path d="M270.459 141.757V128.057C270.459 127.757 270.759 127.457 271.059 127.457H272.759C273.059 127.457 273.359 127.757 273.359 128.057V141.757C273.359 142.057 273.059 142.357 272.759 142.357H271.059C270.759 142.357 270.459 142.057 270.459 141.757Z" fill="#C0C0BF" stroke="#5C5C5C" stroke-width="0.5852" stroke-miterlimit="10" stroke-linecap="round" stroke-linejoin="round"/>
<path opacity="0.5" d="M562.759 63.1562H486.959V67.2563H562.759V63.1562Z" fill="#D7D7D7"/>
<path d="M486.959 63.1562V67.2563H562.759V63.4562" stroke="#C0C0BF" stroke-width="0.3901" stroke-miterlimit="10" stroke-linecap="round" stroke-linejoin="round"/>
<path opacity="0.5" d="M476.96 63.1562H401.06V67.2563H476.96V63.1562Z" fill="#D7D7D7"/>
<path d="M401.06 63.3563V67.1562H476.86V63.1562" stroke="#C0C0BF" stroke-width="0.3901" stroke-miterlimit="10" stroke-linecap="round" stroke-linejoin="round"/>
<path opacity="0.5" d="M562.059 20.6562H486.259V24.7562H562.059V20.6562Z" fill="#D7D7D7"/>
<path d="M486.159 20.6562V24.6562H562.059V20.9562" stroke="#C0C0BF" stroke-width="0.3901" stroke-miterlimit="10" stroke-linecap="round" stroke-linejoin="round"/>
<path opacity="0.5" d="M476.159 20.6562H400.259V24.7562H476.159V20.6562Z" fill="#D7D7D7"/>
<path d="M400.259 20.8562V24.6562H476.159V20.6562" stroke="#C0C0BF" stroke-width="0.3901" stroke-miterlimit="10" stroke-linecap="round" stroke-linejoin="round"/>
<path opacity="0.5" d="M562.259 124.758H400.859V126.658H562.259V124.758Z" fill="#D7D7D7"/>
<path d="M395.459 24.957V62.857H480.859V24.957H395.459Z" stroke="#5C5C5C" stroke-width="0.5852" stroke-miterlimit="10" stroke-linecap="round" stroke-linejoin="round"/>
<path d="M476.959 28.7578H399.259V59.0578H476.959V28.7578Z" stroke="#5C5C5C" stroke-width="0.5852" stroke-miterlimit="10" stroke-linecap="round" stroke-linejoin="round"/>
<path d="M444.959 35.5562H431.259C430.959 35.5562 430.659 35.2562 430.659 34.9562V33.2562C430.659 32.9562 430.959 32.6562 431.259 32.6562H444.959C445.259 32.6562 445.559 32.9562 445.559 33.2562V34.9562C445.559 35.3562 445.359 35.5562 444.959 35.5562Z" fill="#C0C0BF" stroke="#5C5C5C" stroke-width="0.5852" stroke-miterlimit="10" stroke-linecap="round" stroke-linejoin="round"/>
<path d="M481.459 24.957V62.857H566.859V24.957H481.459Z" stroke="#5C5C5C" stroke-width="0.5852" stroke-miterlimit="10" stroke-linecap="round" stroke-linejoin="round"/>
<path d="M562.959 28.7578H485.259V59.0578H562.959V28.7578Z" stroke="#5C5C5C" stroke-width="0.5852" stroke-miterlimit="10" stroke-linecap="round" stroke-linejoin="round"/>
<path d="M530.959 35.5562H517.259C516.959 35.5562 516.659 35.2562 516.659 34.9562V33.2562C516.659 32.9562 516.959 32.6562 517.259 32.6562H530.959C531.259 32.6562 531.559 32.9562 531.559 33.2562V34.9562C531.559 35.3562 531.359 35.5562 530.959 35.5562Z" fill="#C0C0BF" stroke="#5C5C5C" stroke-width="0.5852" stroke-miterlimit="10" stroke-linecap="round" stroke-linejoin="round"/>
<path d="M562.259 124.457V126.557H400.859V124.457" stroke="#C0C0BF" stroke-width="0.3734" stroke-miterlimit="10" stroke-linecap="round" stroke-linejoin="round"/>
<path d="M396.259 202.356V126.656H566.859V202.356H560.259V133.256H402.859V202.356H396.259Z" stroke="#5C5C5C" stroke-width="0.5852" stroke-miterlimit="10" stroke-linecap="round" stroke-linejoin="round"/>
<path d="M402.859 171.156H560.259" stroke="#5C5C5C" stroke-width="0.5852" stroke-miterlimit="10" stroke-linecap="round" stroke-linejoin="round"/>
<path d="M403.359 163.357H560.659" stroke="#5C5C5C" stroke-width="0.5852" stroke-miterlimit="10" stroke-linecap="round" stroke-linejoin="round"/>
<path d="M395.459 20.6574V16.8574H566.159V20.6574H561.359" stroke="#5C5C5C" stroke-width="0.5852" stroke-miterlimit="10" stroke-linecap="round" stroke-linejoin="round"/>
<path d="M395.459 20.6562H561.359" stroke="#5C5C5C" stroke-width="0.5852" stroke-miterlimit="10" stroke-linecap="round" stroke-linejoin="round"/>
<path d="M395.959 67.457V124.457H481.159V67.457H395.959Z" stroke="#5C5C5C" stroke-width="0.7178" stroke-miterlimit="10" stroke-linecap="round" stroke-linejoin="round"/>
<path d="M477.359 70.957H399.759V120.657H477.359V70.957Z" stroke="#5C5C5C" stroke-width="0.7494" stroke-miterlimit="10" stroke-linecap="round" stroke-linejoin="round"/>
<path d="M481.859 67.457V124.457H567.059V67.457H481.859Z" stroke="#5C5C5C" stroke-width="0.7178" stroke-miterlimit="10" stroke-linecap="round" stroke-linejoin="round"/>
<path d="M563.259 70.957H485.659V120.657H563.259V70.957Z" stroke="#5C5C5C" stroke-width="0.7494" stroke-miterlimit="10" stroke-linecap="round" stroke-linejoin="round"/>
<path d="M467.459 102.857V89.057C467.459 88.757 467.759 88.457 468.059 88.457H469.759C470.059 88.457 470.359 88.757 470.359 89.057V95.957V102.857C470.359 103.157 470.059 103.457 469.759 103.457H468.059C467.759 103.457 467.459 103.157 467.459 102.857Z" fill="#C0C0BF" stroke="#5C5C5C" stroke-width="0.5852" stroke-miterlimit="10" stroke-linecap="round" stroke-linejoin="round"/>
<path d="M495.159 102.857V89.057C495.159 88.757 494.859 88.457 494.559 88.457H492.859C492.559 88.457 492.259 88.757 492.259 89.057V95.957V102.857C492.259 103.157 492.559 103.457 492.859 103.457H494.559C494.859 103.457 495.159 103.157 495.159 102.857Z" fill="#C0C0BF" stroke="#5C5C5C" stroke-width="0.5852" stroke-miterlimit="10" stroke-linecap="round" stroke-linejoin="round"/>
<path opacity="0.5" d="M823.458 64.5566H746.858V68.5566H823.458V64.5566Z" fill="#D7D7D7"/>
<path opacity="0.5" d="M738.859 64.5566H662.259V68.6566H738.859V64.5566Z" fill="#D7D7D7"/>
<path d="M746.858 64.5566V68.5566H823.458V64.8566" stroke="#C0C0BF" stroke-width="0.3892" stroke-miterlimit="10" stroke-linecap="round" stroke-linejoin="round"/>
<path d="M662.259 64.8566V68.5566H738.759V64.5566" stroke="#C0C0BF" stroke-width="0.3913" stroke-miterlimit="10" stroke-linecap="round" stroke-linejoin="round"/>
<path opacity="0.5" d="M823.458 4.05664H746.858V8.05664H823.458V4.05664Z" fill="#D7D7D7"/>
<path opacity="0.5" d="M738.859 3.95703H662.259V8.05703H738.859V3.95703Z" fill="#D7D7D7"/>
<path d="M746.858 4.05664V8.05664H823.458V4.25664" stroke="#C0C0BF" stroke-width="0.3892" stroke-miterlimit="10" stroke-linecap="round" stroke-linejoin="round"/>
<path d="M662.259 4.25703V8.05703H738.759V3.95703" stroke="#C0C0BF" stroke-width="0.3913" stroke-miterlimit="10" stroke-linecap="round" stroke-linejoin="round"/>
<path opacity="0.5" d="M822.66 124.957H663.06V127.457H822.66V124.957Z" fill="#D7D7D7"/>
<path d="M822.66 124.957V127.557H663.06V124.957" stroke="#C0C0BF" stroke-width="0.3844" stroke-miterlimit="10" stroke-linecap="round" stroke-linejoin="round"/>
<path d="M658.459 202.357V127.557H827.159V202.357H820.559V134.057H664.959V202.357H658.459Z" stroke="#5C5C5C" stroke-width="0.5766" stroke-miterlimit="10" stroke-linecap="round" stroke-linejoin="round"/>
<path d="M664.959 164.957H820.559" stroke="#5C5C5C" stroke-width="0.5766" stroke-miterlimit="10" stroke-linecap="round" stroke-linejoin="round"/>
<path d="M664.959 171.457H820.559" stroke="#5C5C5C" stroke-width="0.5766" stroke-miterlimit="10" stroke-linecap="round" stroke-linejoin="round"/>
<circle cx="827.159" cy="127.558" r="0.2883" fill="#5C5C5C"/>
<path d="M664.959 134.057V127.557" stroke="#5C5C5C" stroke-width="0.5766" stroke-miterlimit="10" stroke-linecap="round" stroke-linejoin="round"/>
<path d="M820.56 134.057V127.557" stroke="#5C5C5C" stroke-width="0.5766" stroke-miterlimit="10" stroke-linecap="round" stroke-linejoin="round"/>
<path d="M823.959 11.6562H661.659V61.1562H823.959V11.6562Z" fill="white" stroke="#575756" stroke-width="0.5766" stroke-miterlimit="10" stroke-linecap="round" stroke-linejoin="round"/>
<path d="M662.859 3.95781H658.159V0.257812H826.959V3.95781H662.859Z" stroke="#5C5C5C" stroke-width="0.517" stroke-miterlimit="10" stroke-linecap="round" stroke-linejoin="round"/>
<path d="M658.359 64.5578V8.25781H827.359V64.5578H658.359Z" stroke="#5C5C5C" stroke-width="0.5766" stroke-miterlimit="10" stroke-linecap="round" stroke-linejoin="round"/>
<path d="M824.059 72.0566H661.759V121.557H824.059V72.0566Z" stroke="#575756" stroke-width="0.5766" stroke-miterlimit="10" stroke-linecap="round" stroke-linejoin="round"/>
<path d="M658.459 124.956V68.6562H827.459V124.956H658.459Z" stroke="#5C5C5C" stroke-width="0.5766" stroke-miterlimit="10" stroke-linecap="round" stroke-linejoin="round"/>
<path d="M742.959 72.1562V121.656" stroke="#575756" stroke-width="0.5766" stroke-miterlimit="10" stroke-linecap="round" stroke-linejoin="round"/>
<path d="M739.459 89.457V104.257H736.759V89.457H739.459Z" fill="#C0C0BF" stroke="#5C5C5C" stroke-width="0.5766" stroke-miterlimit="10" stroke-linecap="round" stroke-linejoin="round"/>
<path d="M749.159 89.457V104.257H746.459V89.457H749.159Z" fill="#C0C0BF" stroke="#5C5C5C" stroke-width="0.5766" stroke-miterlimit="10" stroke-linecap="round" stroke-linejoin="round"/>
</svg>
