<svg width="1006" height="71" viewBox="0 0 1006 71" fill="none" xmlns="http://www.w3.org/2000/svg">
<path d="M27.8906 47.8047L16.2012 33.0977V58H4.80469V15.9883H15L27.8906 32.5117L40.8105 15.9883H51.0059V58H39.6094V33.0977L27.8906 47.8047ZM69.873 36.9941C69.873 40.4512 70.9863 43.293 73.2422 45.5781C75.4688 47.8633 78.252 49.0059 81.5918 49.0059C84.9023 49.0059 87.6855 47.8633 89.9121 45.5781C92.1387 43.293 93.252 40.4512 93.252 36.9941C93.252 33.5664 92.1387 30.7246 89.9121 28.4395C87.6855 26.1543 84.9023 25.0117 81.5918 25.0117C78.252 25.0117 75.4688 26.1543 73.2422 28.4395C70.9863 30.7246 69.873 33.5664 69.873 36.9941ZM104.971 36.9941C104.971 43.0879 102.686 48.3027 98.1445 52.668C93.6035 57.0332 88.0664 59.2012 81.5625 59.2012C75.0586 59.2012 69.5215 57.0332 64.9805 52.668C60.4395 48.3027 58.1836 43.0879 58.1836 36.9941C58.1836 30.9297 60.4395 25.7148 64.9805 21.3496C69.5215 16.9844 75.0586 14.7871 81.5625 14.7871C88.0664 14.7871 93.6035 16.9844 98.1445 21.3496C102.686 25.7148 104.971 30.9297 104.971 36.9941ZM112.207 15.9883H128.408C134.795 15.9883 140.098 18.0098 144.316 22.0527C148.506 26.0957 150.615 31.0762 150.615 36.9941C150.615 42.9121 148.506 47.8926 144.287 51.9355C140.068 55.9785 134.795 58 128.408 58H112.207V15.9883ZM128.408 26.2129H123.604V47.8047H128.408C131.338 47.8047 133.857 46.7793 135.996 44.7285C138.105 42.6777 139.189 40.0996 139.189 36.9941C139.189 33.8301 138.164 31.252 136.172 29.2305C134.15 27.2383 131.572 26.2129 128.408 26.2129ZM176.689 49.0059C178.799 49.0059 180.645 48.2148 182.168 46.5742C183.691 44.9629 184.482 42.9707 184.482 40.5977V15.9883H195.879V40.5977C195.879 45.8711 194.062 50.2949 190.43 53.8691C186.797 57.4434 182.197 59.2012 176.689 59.2012C171.152 59.2012 166.582 57.4434 162.949 53.8691C159.316 50.2949 157.5 45.8711 157.5 40.5977V15.9883H168.896V40.5977C168.896 42.9707 169.658 44.9629 171.182 46.5742C172.705 48.2148 174.551 49.0059 176.689 49.0059ZM235.195 58H205.195V15.9883H216.592V47.8047H235.195V58ZM262.471 40.0117L258.574 27.707L254.678 40.0117H262.471ZM265.459 49.0059H251.66L248.672 58H236.367L252.275 15.9883H264.873L280.781 58H268.477L265.459 49.0059ZM285.586 58V16.0176H305.391C309.814 16.0176 313.477 17.3945 316.348 20.1484C319.219 22.9023 320.684 26.3301 320.684 30.4023C320.684 32.1016 320.42 33.6543 319.922 35.1191C319.424 36.584 318.838 37.7559 318.135 38.6641C317.432 39.5723 316.729 40.334 316.025 40.9785C315.322 41.623 314.736 42.0332 314.268 42.2676L313.477 42.707L322.178 58H310.195L302.988 44.7871H296.982V58H285.586ZM309.287 30.4023C309.287 29.2012 308.848 28.2051 308.027 27.4141C307.178 26.623 306.094 26.2422 304.775 26.2422H296.982V34.6211H304.775C306.094 34.6211 307.178 34.2109 308.027 33.4199C308.848 32.5996 309.287 31.6035 309.287 30.4023Z" fill="#111111"/>
<path d="M607.799 36.9941C607.799 40.4512 608.912 43.293 611.197 45.5781C613.482 47.8633 616.354 49.0059 619.781 49.0059C621.92 49.0059 623.941 48.5664 625.816 47.6582C627.721 46.7793 629.098 45.8711 629.918 44.9336L631.178 43.5859L637.77 50.793C637.623 51.0273 637.389 51.3496 637.096 51.7305C636.803 52.1113 636.1 52.7852 634.986 53.752C633.873 54.7188 632.701 55.5684 631.412 56.3008C630.123 57.0625 628.453 57.7363 626.344 58.3223C624.234 58.9082 622.066 59.2012 619.781 59.2012C613.277 59.2012 607.74 57.0332 603.199 52.668C598.658 48.3027 596.373 43.0879 596.373 36.9941C596.373 30.9297 598.658 25.7148 603.199 21.3496C607.74 16.9844 613.277 14.7871 619.781 14.7871C622.037 14.7871 624.176 15.0801 626.197 15.666C628.248 16.252 629.918 16.9551 631.236 17.7754C632.555 18.5957 633.697 19.416 634.693 20.2363C635.689 21.0566 636.393 21.7598 636.803 22.3457L637.477 23.1953L630.562 30.4023C630.445 30.2559 630.299 30.0508 630.094 29.8164C629.918 29.582 629.449 29.1426 628.746 28.5273C628.043 27.9121 627.311 27.3555 626.549 26.8867C625.787 26.418 624.791 25.9785 623.561 25.5977C622.33 25.2168 621.07 25.0117 619.811 25.0117C616.354 25.0117 613.512 26.1543 611.227 28.4395C608.941 30.7246 607.799 33.5664 607.799 36.9941ZM651.861 36.9941C651.861 40.4512 652.975 43.293 655.23 45.5781C657.457 47.8633 660.24 49.0059 663.58 49.0059C666.891 49.0059 669.674 47.8633 671.9 45.5781C674.127 43.293 675.24 40.4512 675.24 36.9941C675.24 33.5664 674.127 30.7246 671.9 28.4395C669.674 26.1543 666.891 25.0117 663.58 25.0117C660.24 25.0117 657.457 26.1543 655.23 28.4395C652.975 30.7246 651.861 33.5664 651.861 36.9941ZM686.959 36.9941C686.959 43.0879 684.674 48.3027 680.133 52.668C675.592 57.0332 670.055 59.2012 663.551 59.2012C657.047 59.2012 651.51 57.0332 646.969 52.668C642.428 48.3027 640.172 43.0879 640.172 36.9941C640.172 30.9297 642.428 25.7148 646.969 21.3496C651.51 16.9844 657.047 14.7871 663.551 14.7871C670.055 14.7871 675.592 16.9844 680.133 21.3496C684.674 25.7148 686.959 30.9297 686.959 36.9941ZM724.195 58H694.195V15.9883H705.592V47.8047H724.195V58ZM760.172 58H730.172V15.9883H741.568V47.8047H760.172V58ZM777.545 48.3906H799.137V58H766.148V15.9883H798.551V25.5977H777.545V32.1895H793.746V41.2129H777.545V48.3906ZM815.338 36.9941C815.338 40.4512 816.451 43.293 818.736 45.5781C821.021 47.8633 823.893 49.0059 827.32 49.0059C829.459 49.0059 831.48 48.5664 833.355 47.6582C835.26 46.7793 836.637 45.8711 837.457 44.9336L838.717 43.5859L845.309 50.793C845.162 51.0273 844.928 51.3496 844.635 51.7305C844.342 52.1113 843.639 52.7852 842.525 53.752C841.412 54.7188 840.24 55.5684 838.951 56.3008C837.662 57.0625 835.992 57.7363 833.883 58.3223C831.773 58.9082 829.605 59.2012 827.32 59.2012C820.816 59.2012 815.279 57.0332 810.738 52.668C806.197 48.3027 803.912 43.0879 803.912 36.9941C803.912 30.9297 806.197 25.7148 810.738 21.3496C815.279 16.9844 820.816 14.7871 827.32 14.7871C829.576 14.7871 831.715 15.0801 833.736 15.666C835.787 16.252 837.457 16.9551 838.775 17.7754C840.094 18.5957 841.236 19.416 842.232 20.2363C843.229 21.0566 843.932 21.7598 844.342 22.3457L845.016 23.1953L838.102 30.4023C837.984 30.2559 837.838 30.0508 837.633 29.8164C837.457 29.582 836.988 29.1426 836.285 28.5273C835.582 27.9121 834.85 27.3555 834.088 26.8867C833.326 26.418 832.33 25.9785 831.1 25.5977C829.869 25.2168 828.609 25.0117 827.35 25.0117C823.893 25.0117 821.051 26.1543 818.766 28.4395C816.48 30.7246 815.338 33.5664 815.338 36.9941ZM847.74 15.9883H882.545V26.2129H870.826V58H859.43V26.2129H847.74V15.9883ZM888.551 58V15.9883H899.947V58H888.551ZM918.814 36.9941C918.814 40.4512 919.928 43.293 922.184 45.5781C924.41 47.8633 927.193 49.0059 930.533 49.0059C933.844 49.0059 936.627 47.8633 938.854 45.5781C941.08 43.293 942.193 40.4512 942.193 36.9941C942.193 33.5664 941.08 30.7246 938.854 28.4395C936.627 26.1543 933.844 25.0117 930.533 25.0117C927.193 25.0117 924.41 26.1543 922.184 28.4395C919.928 30.7246 918.814 33.5664 918.814 36.9941ZM953.912 36.9941C953.912 43.0879 951.627 48.3027 947.086 52.668C942.545 57.0332 937.008 59.2012 930.504 59.2012C924 59.2012 918.463 57.0332 913.922 52.668C909.381 48.3027 907.125 43.0879 907.125 36.9941C907.125 30.9297 909.381 25.7148 913.922 21.3496C918.463 16.9844 924 14.7871 930.504 14.7871C937.008 14.7871 942.545 16.9844 947.086 21.3496C951.627 25.7148 953.912 30.9297 953.912 36.9941ZM989.039 15.9883H1000.44V58H990.592L972.545 34.5918V58H961.148V15.9883H971.051L989.039 39.3965V15.9883Z" fill="#111111"/>
</svg>
