<svg width="1081" height="247" viewBox="0 0 1081 247" fill="none" xmlns="http://www.w3.org/2000/svg">
<g clip-path="url(#clip0_2206_3850)">
<path opacity="0.5" d="M1001.1 164.5H926.2V167.8H1001.1V164.5Z" fill="#D7D7D7"/>
<path opacity="0.5" d="M1001.2 164.199H926.2V167.499H1001.2V164.199Z" stroke="#D7D7D7" stroke-width="0.0577982" stroke-miterlimit="10"/>
<path d="M926.1 164V167.8H1001.2V164" stroke="#C0C0BF" stroke-width="0.386" stroke-miterlimit="10" stroke-linecap="round" stroke-linejoin="round"/>
<path opacity="0.5" d="M918.1 164.4H840.2V167.8H918.1V164.4Z" fill="#D7D7D7"/>
<path d="M918.2 164V167.9" stroke="#C0C0BF" stroke-width="0.386" stroke-miterlimit="10" stroke-linecap="round" stroke-linejoin="round"/>
<path d="M840.2 164.199V167.999" stroke="#C0C0BF" stroke-width="0.386" stroke-miterlimit="10" stroke-linecap="round" stroke-linejoin="round"/>
<path opacity="0.5" d="M642.1 147.1H564.5V150.1H642.1V147.1Z" fill="#D7D7D7"/>
<path opacity="0.5" d="M724.7 150.2H650.1V146.9L724.7 147.1V150.2Z" fill="#D7D7D7"/>
<path d="M650.1 147.1V150H724.8V147.1" stroke="#C0C0BF" stroke-width="0.3844" stroke-miterlimit="10" stroke-linecap="round" stroke-linejoin="round"/>
<path d="M642.2 147.1V150.1" stroke="#C0C0BF" stroke-width="0.3844" stroke-miterlimit="10" stroke-linecap="round" stroke-linejoin="round"/>
<path d="M564.5 147.1V150.3" stroke="#C0C0BF" stroke-width="0.3844" stroke-miterlimit="10" stroke-linecap="round" stroke-linejoin="round"/>
<path opacity="0.5" d="M725 206.6H565.2V208.8H725V206.6Z" fill="#D7D7D7"/>
<path d="M724.8 206.9H565V208.8H724.8V206.9Z" stroke="#C0C0BF" stroke-width="0.2718" stroke-miterlimit="10" stroke-linecap="round" stroke-linejoin="round"/>
<path d="M729.3 246.301V208.801H560.3V246.301H566.9" stroke="#5C5C5C" stroke-width="0.5766" stroke-miterlimit="10" stroke-linecap="round" stroke-linejoin="round"/>
<path d="M566.9 246.3V215.4H722.8V246.3H729.3" stroke="#5C5C5C" stroke-width="0.5766" stroke-miterlimit="10" stroke-linecap="round" stroke-linejoin="round"/>
<path d="M566.9 215.401V208.801" stroke="#5C5C5C" stroke-width="0.5766" stroke-miterlimit="10" stroke-linecap="round" stroke-linejoin="round"/>
<path d="M722.8 215.401V208.801" stroke="#5C5C5C" stroke-width="0.5766" stroke-miterlimit="10" stroke-linecap="round" stroke-linejoin="round"/>
<path d="M726 153.6H563.7V203.1H726V153.6Z" stroke="#575756" stroke-width="0.5766" stroke-miterlimit="10" stroke-linecap="round" stroke-linejoin="round"/>
<path d="M560.3 206.601V150.301H729.4V206.601H560.3Z" stroke="#5C5C5C" stroke-width="0.5766" stroke-miterlimit="10" stroke-linecap="round" stroke-linejoin="round"/>
<path d="M729 143.199H560.3V146.899H729V143.199Z" stroke="#5C5C5C" stroke-width="0.5169" stroke-miterlimit="10" stroke-linecap="round" stroke-linejoin="round"/>
<path d="M566.7 143.2V23H573.3V143.2" stroke="#5C5C5C" stroke-width="0.5766" stroke-miterlimit="10" stroke-linecap="round" stroke-linejoin="round"/>
<path d="M722.6 143.2V23H716V143.2" stroke="#5C5C5C" stroke-width="0.5766" stroke-miterlimit="10" stroke-linecap="round" stroke-linejoin="round"/>
<path d="M716 89.5H573.3" stroke="#5C5C5C" stroke-width="0.5766" stroke-miterlimit="10" stroke-linecap="round" stroke-linejoin="round"/>
<path d="M573.3 87.1992H716" stroke="#5C5C5C" stroke-width="0.5766" stroke-miterlimit="10" stroke-linecap="round" stroke-linejoin="round"/>
<path d="M573.3 33.5008V31.3008" stroke="#5C5C5C" stroke-width="0.5766" stroke-miterlimit="10" stroke-linecap="round" stroke-linejoin="round"/>
<path d="M716 33.5H573.3" stroke="#5C5C5C" stroke-width="0.5766" stroke-miterlimit="10" stroke-linecap="round" stroke-linejoin="round"/>
<path d="M573.3 31.3008H716" stroke="#5C5C5C" stroke-width="0.5766" stroke-miterlimit="10" stroke-linecap="round" stroke-linejoin="round"/>
<path d="M716 33.5H574.6" stroke="#5C5C5C" stroke-width="0.5766" stroke-miterlimit="10" stroke-linecap="round" stroke-linejoin="round"/>
<path d="M716 93.3008H573.3" stroke="#5C5C5C" stroke-width="0.5766" stroke-miterlimit="10" stroke-linecap="round" stroke-linejoin="round"/>
<path d="M573.3 36.6992H716" stroke="#5C5C5C" stroke-width="0.5766" stroke-miterlimit="10" stroke-linecap="round" stroke-linejoin="round"/>
<circle cx="716" cy="93.3" r="0.2883" fill="#5C5C5C"/>
<circle cx="722.2" cy="123.2" r="0.2883" fill="#5C5C5C"/>
<path d="M573.3 33.5H599.3" stroke="#5C5C5C" stroke-width="0.5766" stroke-miterlimit="10" stroke-linecap="round" stroke-linejoin="round"/>
<circle cx="573.3" cy="33.4992" r="0.2883" fill="#5C5C5C"/>
<circle cx="599.3" cy="33.4992" r="0.2883" fill="#5C5C5C"/>
<path opacity="0.5" d="M1002 206H840.1V208.2H1002V206Z" fill="#D7D7D7"/>
<path d="M840.1 205.801V208.201H1001.8V205.801" stroke="#C0C0BF" stroke-width="0.3877" stroke-miterlimit="10" stroke-linecap="round" stroke-linejoin="round"/>
<path d="M1006.1 246.001V208.301H836.3V246.001H842.9V214.901H999.5V246.001H1006.1Z" stroke="#5C5C5C" stroke-width="0.579" stroke-miterlimit="10" stroke-linecap="round" stroke-linejoin="round"/>
<path d="M842.9 214.901V208.301" stroke="#5C5C5C" stroke-width="0.579" stroke-miterlimit="10" stroke-linecap="round" stroke-linejoin="round"/>
<path d="M999.5 214.901V208.301" stroke="#5C5C5C" stroke-width="0.579" stroke-miterlimit="10" stroke-linecap="round" stroke-linejoin="round"/>
<path d="M949 178.2H892.4V175.5H949V178.2Z" stroke="#5C5C5C" stroke-width="0.579" stroke-miterlimit="10" stroke-linecap="round" stroke-linejoin="round"/>
<path d="M840.1 171.699V201.899H841" stroke="#5C5C5C" stroke-width="0.579" stroke-miterlimit="10" stroke-linecap="round" stroke-linejoin="round"/>
<path d="M836.3 168H1006.1V205.7" stroke="#5C5C5C" stroke-width="0.579" stroke-miterlimit="10" stroke-linecap="round" stroke-linejoin="round"/>
<path d="M840.1 171.699H1001.8V201.999" stroke="#5C5C5C" stroke-width="0.579" stroke-miterlimit="10" stroke-linecap="round" stroke-linejoin="round"/>
<path d="M841 205.699H1006.1" stroke="#5C5C5C" stroke-width="0.579" stroke-miterlimit="10" stroke-linecap="round" stroke-linejoin="round"/>
<path d="M841 201.9H1001.3" stroke="#5C5C5C" stroke-width="0.579" stroke-miterlimit="10" stroke-linecap="round" stroke-linejoin="round"/>
<circle cx="903.3" cy="164.2" r="0.2895" fill="#5C5C5C"/>
<path d="M836.3 168V205.7H841" stroke="#5C5C5C" stroke-width="0.579" stroke-miterlimit="10" stroke-linecap="round" stroke-linejoin="round"/>
<circle cx="844.8" cy="164.2" r="0.2895" fill="#5C5C5C"/>
<path d="M842.9 160.8V40.0996H849.5V160.8" stroke="#5C5C5C" stroke-width="0.579" stroke-miterlimit="10" stroke-linecap="round" stroke-linejoin="round"/>
<path d="M999.5 160.8V40.0996H992.8V160.8" stroke="#5C5C5C" stroke-width="0.579" stroke-miterlimit="10" stroke-linecap="round" stroke-linejoin="round"/>
<path d="M849.5 104.6H992.8V106.8H849.5V104.6Z" stroke="#5C5C5C" stroke-width="0.579" stroke-miterlimit="10" stroke-linecap="round" stroke-linejoin="round"/>
<path d="M836.3 160.801H1006.1V164.201H836.3V160.801Z" stroke="#5C5C5C" stroke-width="0.579" stroke-miterlimit="10" stroke-linecap="round" stroke-linejoin="round"/>
<path d="M849.5 48.4004H992.8V50.6004H849.5V48.4004Z" stroke="#5C5C5C" stroke-width="0.579" stroke-miterlimit="10" stroke-linecap="round" stroke-linejoin="round"/>
<path d="M992.8 50.5996H850.8" stroke="#5C5C5C" stroke-width="0.579" stroke-miterlimit="10" stroke-linecap="round" stroke-linejoin="round"/>
<path d="M992.8 110.6H849.5" stroke="#5C5C5C" stroke-width="0.579" stroke-miterlimit="10" stroke-linecap="round" stroke-linejoin="round"/>
<path d="M849.5 53.8008H992.8" stroke="#5C5C5C" stroke-width="0.579" stroke-miterlimit="10" stroke-linecap="round" stroke-linejoin="round"/>
<circle cx="992.8" cy="110.6" r="0.2895" fill="#5C5C5C"/>
<circle cx="992.8" cy="140.7" r="0.2895" fill="#5C5C5C"/>
<circle cx="999.5" cy="160.799" r="0.2895" fill="#5C5C5C"/>
<circle cx="999.5" cy="40.1" r="0.2895" fill="#5C5C5C"/>
<path d="M849.5 50.5996H875.6" stroke="#5C5C5C" stroke-width="0.579" stroke-miterlimit="10" stroke-linecap="round" stroke-linejoin="round"/>
<circle cx="849.5" cy="160.799" r="0.2895" fill="#5C5C5C"/>
<circle cx="876.9" cy="160.799" r="0.2895" fill="#5C5C5C"/>
<circle cx="849.5" cy="50.6" r="0.2895" fill="#5C5C5C"/>
<circle cx="875.6" cy="50.6" r="0.2895" fill="#5C5C5C"/>
<circle cx="842.9" cy="40.1" r="0.2895" fill="#5C5C5C"/>
<circle cx="842.9" cy="160.799" r="0.2895" fill="#5C5C5C"/>
<circle cx="836.3" cy="160.799" r="0.2895" fill="#5C5C5C"/>
<path d="M849.5 50.6004V48.4004" stroke="#5C5C5C" stroke-width="0.579" stroke-miterlimit="10" stroke-linecap="round" stroke-linejoin="round"/>
<path opacity="0.5" d="M168.5 124.5H93.9004V127.8H168.5V124.5Z" fill="#D7D7D7"/>
<path opacity="0.5" d="M168.6 124.301H93.9004V127.601H168.6V124.301Z" stroke="#D7D7D7" stroke-width="0.0575586" stroke-miterlimit="10"/>
<path d="M93.7998 124.1V127.8H168.6V124.1" stroke="#C0C0BF" stroke-width="0.3844" stroke-miterlimit="10" stroke-linecap="round" stroke-linejoin="round"/>
<path opacity="0.5" d="M168.9 165.9H94.2998V169.2H168.9V165.9Z" fill="#D7D7D7"/>
<path opacity="0.5" d="M169 165.6H94.2998V168.9H169V165.6Z" stroke="#D7D7D7" stroke-width="0.0575586" stroke-miterlimit="10"/>
<path d="M94.2002 165.4V169.1H169V165.4" stroke="#C0C0BF" stroke-width="0.3844" stroke-miterlimit="10" stroke-linecap="round" stroke-linejoin="round"/>
<path opacity="0.5" d="M86.3002 165.801H8.7002V169.201H86.3002V165.801Z" fill="#D7D7D7"/>
<path d="M86.2998 165.4V169.2" stroke="#C0C0BF" stroke-width="0.3844" stroke-miterlimit="10" stroke-linecap="round" stroke-linejoin="round"/>
<path opacity="0.5" d="M85.8998 124.5H8.2998V127.9H85.8998V124.5Z" fill="#D7D7D7"/>
<path d="M85.9004 124.1V127.9" stroke="#C0C0BF" stroke-width="0.3844" stroke-miterlimit="10" stroke-linecap="round" stroke-linejoin="round"/>
<path opacity="0.5" d="M168.8 206.6H9V208.8H168.8V206.6Z" fill="#D7D7D7"/>
<path d="M168.6 206.9H8.7998V208.8H168.6V206.9Z" stroke="#C0C0BF" stroke-width="0.2718" stroke-miterlimit="10" stroke-linecap="round" stroke-linejoin="round"/>
<path d="M7.7998 172.801V202.801H168.6V172.801H7.7998Z" stroke="#5C5C5C" stroke-width="0.5766" stroke-miterlimit="10" stroke-linecap="round" stroke-linejoin="round"/>
<path d="M172.8 206.6V169.1H4.09961V206.6H172.8Z" stroke="#5C5C5C" stroke-width="0.5766" stroke-miterlimit="10" stroke-linecap="round" stroke-linejoin="round"/>
<path d="M7.7998 131.7V161.7H168.6V131.6H7.7998" stroke="#575756" stroke-width="0.5766" stroke-miterlimit="10" stroke-linecap="round" stroke-linejoin="round"/>
<path d="M172.8 165.4V127.9H4.09961V165.4H172.8Z" stroke="#5C5C5C" stroke-width="0.5766" stroke-miterlimit="10" stroke-linecap="round" stroke-linejoin="round"/>
<path d="M173.2 246.301V208.801H4.09961V246.301H10.6996" stroke="#5C5C5C" stroke-width="0.5766" stroke-miterlimit="10" stroke-linecap="round" stroke-linejoin="round"/>
<path d="M10.7002 246.301V215.301H166.6V246.301H173.2" stroke="#5C5C5C" stroke-width="0.5766" stroke-miterlimit="10" stroke-linecap="round" stroke-linejoin="round"/>
<path d="M10.7002 215.301V208.801" stroke="#5C5C5C" stroke-width="0.5766" stroke-miterlimit="10" stroke-linecap="round" stroke-linejoin="round"/>
<path d="M166.6 215.301V208.801" stroke="#5C5C5C" stroke-width="0.5766" stroke-miterlimit="10" stroke-linecap="round" stroke-linejoin="round"/>
<path d="M8.7998 124.301H168.2" stroke="#5C5C5C" stroke-width="0.517" stroke-miterlimit="10" stroke-linecap="round" stroke-linejoin="round"/>
<path d="M8.79961 124.3H4.09961V120.5H172.8V124.3H168.2" stroke="#5C5C5C" stroke-width="0.517" stroke-miterlimit="10" stroke-linecap="round" stroke-linejoin="round"/>
<path d="M10.9004 120.501V0.300781H17.5004V120.501" stroke="#5C5C5C" stroke-width="0.5766" stroke-miterlimit="10" stroke-linecap="round" stroke-linejoin="round"/>
<path d="M166.8 120.501V0.300781H160.2V120.501" stroke="#5C5C5C" stroke-width="0.5766" stroke-miterlimit="10" stroke-linecap="round" stroke-linejoin="round"/>
<path d="M160.2 66.8008H17.5" stroke="#5C5C5C" stroke-width="0.5766" stroke-miterlimit="10" stroke-linecap="round" stroke-linejoin="round"/>
<path d="M17.5 64.5H160.2" stroke="#5C5C5C" stroke-width="0.5766" stroke-miterlimit="10" stroke-linecap="round" stroke-linejoin="round"/>
<path d="M17.5 10.7996V8.59961" stroke="#5C5C5C" stroke-width="0.5766" stroke-miterlimit="10" stroke-linecap="round" stroke-linejoin="round"/>
<path d="M160.2 10.7988H17.5" stroke="#5C5C5C" stroke-width="0.5766" stroke-miterlimit="10" stroke-linecap="round" stroke-linejoin="round"/>
<path d="M17.5 8.59961H160.2" stroke="#5C5C5C" stroke-width="0.5766" stroke-miterlimit="10" stroke-linecap="round" stroke-linejoin="round"/>
<path d="M160.2 10.8008H18.7998" stroke="#5C5C5C" stroke-width="0.5766" stroke-miterlimit="10" stroke-linecap="round" stroke-linejoin="round"/>
<path d="M160.2 70.5H17.5" stroke="#5C5C5C" stroke-width="0.5766" stroke-miterlimit="10" stroke-linecap="round" stroke-linejoin="round"/>
<path d="M17.5 14H160.2" stroke="#5C5C5C" stroke-width="0.5766" stroke-miterlimit="10" stroke-linecap="round" stroke-linejoin="round"/>
<circle cx="160.2" cy="70.4992" r="0.2883" fill="#5C5C5C"/>
<circle cx="160.2" cy="100.499" r="0.2883" fill="#5C5C5C"/>
<circle cx="166.8" cy="0.300019" r="0.2883" fill="#5C5C5C"/>
<path d="M17.5 10.8008H43.4" stroke="#5C5C5C" stroke-width="0.5766" stroke-miterlimit="10" stroke-linecap="round" stroke-linejoin="round"/>
<circle cx="17.5002" cy="10.8" r="0.2883" fill="#5C5C5C"/>
<circle cx="43.3996" cy="10.8" r="0.2883" fill="#5C5C5C"/>
<circle cx="10.8996" cy="0.300019" r="0.2883" fill="#5C5C5C"/>
<path d="M116.7 138.1H60.5V135.4H88.6H116.7V138.1Z" fill="#C0C0BF" stroke="#5C5C5C" stroke-width="0.5766" stroke-miterlimit="10" stroke-linecap="round" stroke-linejoin="round"/>
<path opacity="0.5" d="M444.6 206.6H284.8V208.8H444.6V206.6Z" fill="#D7D7D7"/>
<path d="M444.4 206.9H284.6V208.8H444.4V206.9Z" stroke="#C0C0BF" stroke-width="0.2718" stroke-miterlimit="10" stroke-linecap="round" stroke-linejoin="round"/>
<path d="M449 246.301V208.801H279.9V246.301H286.5" stroke="#5C5C5C" stroke-width="0.5766" stroke-miterlimit="10" stroke-linecap="round" stroke-linejoin="round"/>
<path d="M286.5 246.3V215.4H442.4V246.3H449" stroke="#5C5C5C" stroke-width="0.5766" stroke-miterlimit="10" stroke-linecap="round" stroke-linejoin="round"/>
<path d="M286.5 215.401V208.801" stroke="#5C5C5C" stroke-width="0.5766" stroke-miterlimit="10" stroke-linecap="round" stroke-linejoin="round"/>
<path d="M442.4 215.401V208.801" stroke="#5C5C5C" stroke-width="0.5766" stroke-miterlimit="10" stroke-linecap="round" stroke-linejoin="round"/>
<path d="M284.6 206.9H444" stroke="#5C5C5C" stroke-width="0.5169" stroke-miterlimit="10" stroke-linecap="round" stroke-linejoin="round"/>
<path d="M284.6 206.9H279.9V203.1H448.6V206.9H444" stroke="#5C5C5C" stroke-width="0.5169" stroke-miterlimit="10" stroke-linecap="round" stroke-linejoin="round"/>
<path d="M286.7 203.1V82.9004H293.3V203.1" stroke="#5C5C5C" stroke-width="0.5766" stroke-miterlimit="10" stroke-linecap="round" stroke-linejoin="round"/>
<path d="M442.6 203.1V82.9004H436V203.1" stroke="#5C5C5C" stroke-width="0.5766" stroke-miterlimit="10" stroke-linecap="round" stroke-linejoin="round"/>
<path d="M436 149.398H293.3" stroke="#5C5C5C" stroke-width="0.5766" stroke-miterlimit="10" stroke-linecap="round" stroke-linejoin="round"/>
<path d="M293.3 147.199H436" stroke="#5C5C5C" stroke-width="0.5766" stroke-miterlimit="10" stroke-linecap="round" stroke-linejoin="round"/>
<path d="M293.3 93.3992V91.1992" stroke="#5C5C5C" stroke-width="0.5766" stroke-miterlimit="10" stroke-linecap="round" stroke-linejoin="round"/>
<path d="M436 93.3984H293.3" stroke="#5C5C5C" stroke-width="0.5766" stroke-miterlimit="10" stroke-linecap="round" stroke-linejoin="round"/>
<path d="M293.3 91.1992H436" stroke="#5C5C5C" stroke-width="0.5766" stroke-miterlimit="10" stroke-linecap="round" stroke-linejoin="round"/>
<path d="M436 93.4004H294.6" stroke="#5C5C5C" stroke-width="0.5766" stroke-miterlimit="10" stroke-linecap="round" stroke-linejoin="round"/>
<path d="M436 153.199H293.3" stroke="#5C5C5C" stroke-width="0.5766" stroke-miterlimit="10" stroke-linecap="round" stroke-linejoin="round"/>
<path d="M293.3 96.5996H436" stroke="#5C5C5C" stroke-width="0.5766" stroke-miterlimit="10" stroke-linecap="round" stroke-linejoin="round"/>
<circle cx="436" cy="153.2" r="0.2883" fill="#5C5C5C"/>
<circle cx="436" cy="183.101" r="0.2883" fill="#5C5C5C"/>
<circle cx="442.6" cy="82.8996" r="0.2883" fill="#5C5C5C"/>
<path d="M293.3 93.4004H319.2" stroke="#5C5C5C" stroke-width="0.5766" stroke-miterlimit="10" stroke-linecap="round" stroke-linejoin="round"/>
<circle cx="293.3" cy="93.3996" r="0.2883" fill="#5C5C5C"/>
<circle cx="319.2" cy="93.3996" r="0.2883" fill="#5C5C5C"/>
<circle cx="286.7" cy="82.8996" r="0.2883" fill="#5C5C5C"/>
</g>
<defs>
<clipPath id="clip0_2206_3850">
<rect width="1080.7" height="246.6" fill="white"/>
</clipPath>
</defs>
</svg>
