<svg width="280" height="172" viewBox="0 0 280 172" fill="none" xmlns="http://www.w3.org/2000/svg">
<path d="M149.954 20.5641C149.954 14.0629 154.698 9.40598 160.093 9.40598C163.954 9.40598 166.791 11.573 167.814 13.2329H167.861V0H171.582V31.3072H167.861V27.8952H167.814C166.791 29.5551 164 31.7221 160.093 31.7221C154.698 31.7221 149.954 27.0653 149.954 20.5641ZM167.861 20.5641C167.861 16.0916 164.605 12.8641 160.744 12.8641C156.93 12.8641 153.675 16.0916 153.675 20.5641C153.675 25.0365 156.93 28.2641 160.744 28.2641C164.605 28.2641 167.861 25.0365 167.861 20.5641Z" fill="#111111"/>
<path d="M177.116 20.5643C177.116 14.2015 182.047 9.40625 187.954 9.40625C193.814 9.40625 198.326 13.8787 198.326 20.1494C198.326 20.9332 198.233 21.5787 198.186 21.9476H180.93C181.396 25.4518 184.419 28.3104 188.326 28.3104C191.349 28.3104 193.396 26.7428 194.698 25.3595L197.163 27.6188C195.675 29.5554 192.651 31.7685 188.14 31.7685C182.093 31.7224 177.116 26.835 177.116 20.5643ZM194.558 18.8583C193.954 15.1697 191.582 12.726 187.954 12.726C184.186 12.726 181.535 15.4003 180.93 18.8583H194.558Z" fill="#111111"/>
<path d="M201.814 27.8496L204.233 25.4981C205.302 26.743 207.535 28.4029 210.093 28.4029C212.977 28.4029 214.512 26.9274 214.512 25.1292C214.512 20.9334 202.698 22.9621 202.698 15.4927C202.698 12.2651 205.628 9.36035 210.326 9.36035C213.953 9.36035 216.419 11.0663 217.674 12.3574L215.256 14.7089C214.326 13.8328 212.605 12.6801 210.326 12.6801C207.767 12.6801 206.419 14.0172 206.419 15.4466C206.419 19.5041 218.233 17.5214 218.233 25.0831C218.233 28.6795 215.116 31.7226 210.093 31.7226C206.14 31.7226 203.116 29.5556 201.814 27.8496Z" fill="#111111"/>
<path d="M223.302 3.08957C223.302 1.75244 224.419 0.78418 225.628 0.78418C226.791 0.78418 227.907 1.75244 227.907 3.08957C227.907 4.42669 226.791 5.39496 225.628 5.39496C224.419 5.44107 223.302 4.4728 223.302 3.08957ZM223.814 31.3075V9.82131H227.535V31.3075H223.814Z" fill="#111111"/>
<path d="M233.907 36.2408L236.512 33.8893C237.489 35.3186 240.186 37.2551 243.209 37.2551C247.442 37.2551 250.186 34.1659 250.186 29.6935V27.2036H250.14C248.837 29.2324 246.047 30.9384 242.837 30.9384C237.535 30.9384 233.023 26.4659 233.023 20.1953C233.023 13.9246 237.535 9.45215 242.837 9.45215C246.465 9.45215 249.163 11.5731 250.14 13.1408H250.186V9.82101H253.907V29.6474C253.907 36.0102 249.489 40.7132 243.209 40.7132C238.884 40.7132 235.209 38.1312 233.907 36.2408ZM250.186 20.103C250.186 15.8611 247.209 12.8641 243.396 12.8641C239.721 12.8641 236.698 15.8611 236.698 20.103C236.698 24.345 239.721 27.342 243.396 27.342C247.209 27.342 250.186 24.345 250.186 20.103Z" fill="#111111"/>
<path d="M260.698 31.3074V9.82122H264.419V13.0949H264.465C265.442 11.4811 268 9.40625 271.395 9.40625C276.372 9.40625 280 13.0488 280 18.72V31.3536H276.326V18.72C276.326 15.2158 274 12.9104 270.744 12.9104C267.116 12.9104 264.372 15.6769 264.372 19.5961V31.3536H260.698V31.3074Z" fill="#111111"/>
<path d="M153.721 70.4992L153.675 73.9112H149.954V42.604H153.675V55.8369H153.721C154.698 54.177 157.535 52.01 161.395 52.01C166.791 52.01 171.535 56.713 171.535 63.1681C171.535 69.6693 166.791 74.3723 161.395 74.3723C157.535 74.3723 154.698 72.1591 153.721 70.4992ZM167.861 63.1681C167.861 58.6956 164.605 55.4681 160.791 55.4681C156.884 55.4681 153.675 58.6956 153.675 63.1681C153.675 67.6405 156.884 70.8681 160.791 70.8681C164.605 70.8681 167.861 67.6405 167.861 63.1681Z" fill="#111111"/>
<path d="M176.698 65.0583V52.4248H180.419V65.0583C180.419 68.5625 182.698 70.8679 185.954 70.8679C189.581 70.8679 192.372 68.1014 192.372 64.1823V52.4248H196.047V73.911H192.372V70.6374H192.326C191.349 72.2512 188.744 74.3721 185.395 74.3721C180.372 74.3721 176.698 70.6835 176.698 65.0583Z" fill="#111111"/>
<path d="M202.744 73.9107V52.4245H206.465V55.5598H206.512C207.489 54.0382 210 51.9634 213.349 51.9634H214.372V55.7442L212.884 55.6059C209.349 55.6059 206.419 58.5107 206.419 62.522V73.9107H202.744Z" fill="#111111"/>
<path d="M45.4884 51.8711C45.4884 64.1358 35.6279 73.9106 22.7442 73.9106C9.90698 73.9106 0 64.1358 0 51.8711C0 45.7849 3.06977 40.1136 4.93024 37.1627L25.6744 4.33398H31.1163L13.814 31.7681C15.3023 30.8921 18.7442 29.8316 22.6977 29.8316C35.5814 29.8316 45.4884 39.6064 45.4884 51.8711ZM40.5117 51.8711C40.5117 42.0963 33.1163 34.719 22.7442 34.719C12.3721 34.719 4.97675 42.0502 4.97675 51.8711C4.97675 61.6921 12.3721 69.0232 22.7442 69.0232C33.1163 68.9771 40.5117 61.646 40.5117 51.8711Z" fill="#111111"/>
<path d="M62.2791 77V0H66.6977V77H62.2791Z" fill="#111111"/>
<path d="M84.5115 63.6284L87.9533 60.2164C90.5115 64.0433 97.0231 69.023 105.721 69.023C116.604 69.023 124 61.6919 124 51.8709C124 42.096 116.604 34.7188 106.698 34.7188C98.4184 34.7188 92.744 39.4218 90.8836 43.0643H86.9766L89.4417 4.37988H124.511V9.2673H93.8603L92.3719 35.226C94.744 32.8745 100.279 29.8314 106.698 29.8314C119.07 29.8314 128.93 39.6062 128.93 51.8709C128.93 64.1356 119.07 73.9104 105.721 73.9104C95.2557 73.9104 87.4882 68.0086 84.5115 63.6284Z" fill="#111111"/>
<path d="M227.721 71.0978C225.581 71.0978 223.767 70.314 222.232 68.7002C220.698 67.1326 219.953 65.196 219.953 62.9368C219.953 60.6314 220.698 58.741 222.232 57.1733C223.767 55.6056 225.581 54.8218 227.721 54.8218C229.86 54.8218 231.674 55.6056 233.209 57.1733C234.744 58.741 235.488 60.6775 235.488 62.9829C235.488 65.2882 234.744 67.2248 233.209 68.7925C231.674 70.314 229.86 71.0978 227.721 71.0978ZM227.721 73.9565C230.744 73.9565 233.302 72.896 235.442 70.7751C237.535 68.6541 238.605 66.026 238.605 62.9368C238.605 59.8475 237.535 57.2194 235.442 55.0984C233.349 52.9775 230.744 51.917 227.721 51.917C224.698 51.917 222.139 52.9775 220 55.0984C217.86 57.2194 216.837 59.8475 216.837 62.9368C216.837 66.026 217.907 68.6541 220 70.7751C222.139 72.896 224.698 73.9565 227.721 73.9565Z" fill="#111111"/>
<path d="M6.09082 96.4473V97.3633H0.628906V96.4473H6.09082ZM15.832 97.6367C15.832 98.6074 15.4971 99.4346 14.834 100.118C14.1709 100.802 13.3848 101.144 12.4756 101.144C12.1475 101.144 11.8262 101.089 11.5117 100.993C11.1973 100.897 10.9375 100.781 10.7188 100.645C10.5 100.508 10.3154 100.378 10.1514 100.241C9.9873 100.104 9.86426 99.9883 9.78223 99.8857L9.67285 99.749L10.3701 99.1201C10.3838 99.1475 10.418 99.1816 10.459 99.2363C10.5 99.2842 10.5889 99.373 10.7256 99.5029C10.8623 99.6396 11.0059 99.7559 11.1562 99.8516C11.3066 99.9473 11.498 100.036 11.7373 100.111C11.9697 100.193 12.2158 100.228 12.4756 100.228C13.0635 100.228 13.583 100.009 14.0479 99.5645C14.5059 99.127 14.7725 98.6006 14.8545 97.9922H11.4912V97.083H14.7793C14.7041 96.543 14.4443 96.0713 14.0068 95.6611C13.5625 95.2578 13.0498 95.0527 12.4756 95.0527C12.2227 95.0527 11.9834 95.0938 11.751 95.1621C11.5186 95.2373 11.3271 95.333 11.1699 95.4424C11.0195 95.5586 10.8828 95.6748 10.7666 95.7842C10.6504 95.8936 10.5615 95.9893 10.5068 96.0576L10.4385 96.167L9.73438 95.4697C9.76172 95.4355 9.80273 95.3877 9.85742 95.3262C9.91211 95.2646 10.0215 95.1621 10.1924 95.0117C10.3701 94.8613 10.5547 94.7314 10.7461 94.6084C10.9443 94.4922 11.1973 94.3828 11.5117 94.2871C11.8262 94.1914 12.1475 94.1367 12.4756 94.1367C13.3916 94.1367 14.1777 94.4785 14.8408 95.1621C15.4971 95.8457 15.832 96.666 15.832 97.6367ZM16.7412 95.1895V94.2803H22.4766V95.1895H20.0977V101H19.1201V95.1895H16.7412ZM29.2715 97.6436C29.2715 96.9189 29.0254 96.3037 28.5469 95.8047C28.0684 95.3057 27.4873 95.0527 26.8174 95.0527C26.1475 95.0527 25.5664 95.3057 25.0879 95.8047C24.6094 96.3037 24.3701 96.9121 24.3701 97.6367C24.3701 98.3613 24.6094 98.9697 25.0879 99.4756C25.5664 99.9814 26.1475 100.228 26.8174 100.228C27.4873 100.228 28.0684 99.9814 28.5469 99.4824C29.0254 98.9834 29.2715 98.3682 29.2715 97.6436ZM23.3926 97.6436C23.3926 96.6592 23.7207 95.832 24.3906 95.1553C25.0605 94.4785 25.8672 94.1367 26.8242 94.1367C27.7744 94.1367 28.5811 94.4785 29.2441 95.1553C29.9141 95.832 30.2422 96.6592 30.2422 97.6436C30.2422 98.6279 29.9141 99.4551 29.2441 100.132C28.5811 100.802 27.7744 101.144 26.8242 101.144C25.8672 101.144 25.0605 100.802 24.3906 100.132C23.7207 99.4551 23.3926 98.6279 23.3926 97.6436ZM34.1797 97.6367C34.1797 96.666 34.5078 95.8457 35.1709 95.1621C35.834 94.4785 36.6201 94.1367 37.5293 94.1367C38.0557 94.1367 38.5479 94.2529 38.999 94.4785C39.4502 94.7041 39.7783 94.9297 39.9697 95.1484L40.2637 95.4697L39.5596 96.167C39.5459 96.1396 39.5186 96.1055 39.4775 96.0508C39.4434 96.0029 39.3613 95.9141 39.2383 95.7773C39.1152 95.6475 38.9785 95.5312 38.835 95.4355C38.6846 95.3398 38.5 95.251 38.2676 95.1689C38.0352 95.0938 37.7891 95.0527 37.5361 95.0527C36.8936 95.0527 36.333 95.3057 35.8613 95.8047C35.3896 96.3037 35.1572 96.9189 35.1572 97.6436C35.1572 98.3682 35.3896 98.9834 35.8613 99.4824C36.333 99.9814 36.8936 100.228 37.5361 100.228C37.9258 100.228 38.2949 100.139 38.6504 99.9473C38.999 99.7627 39.252 99.5781 39.4092 99.3867L39.6348 99.1133L40.332 99.7422C40.3047 99.7832 40.2637 99.8311 40.209 99.8994C40.1543 99.9678 40.0312 100.077 39.8467 100.234C39.6689 100.392 39.4775 100.528 39.2725 100.651C39.0742 100.774 38.8145 100.884 38.5 100.986C38.1855 101.089 37.8643 101.137 37.5361 101.137C36.6201 101.137 35.8271 100.802 35.1709 100.118C34.5078 99.4346 34.1797 98.6074 34.1797 97.6367ZM41.0361 95.1895V94.2803H46.7715V95.1895H44.3926V101H43.415V95.1895H41.0361ZM49.6494 101.978L49.998 101L47.2637 94.2803H48.3164L50.4902 99.7422L52.6572 94.2803H53.71L50.627 101.978C50.3467 102.688 50.0459 103.194 49.7314 103.495C49.4102 103.796 49.0068 103.939 48.5215 103.939C48.3711 103.939 48.2275 103.933 48.0908 103.905C47.9541 103.885 47.8447 103.857 47.7764 103.83L47.6807 103.803V102.887C47.9131 102.982 48.1455 103.03 48.3779 103.03C48.9727 103.03 49.3965 102.682 49.6494 101.978ZM61.2705 100.091V102.682H60.293V101H54.8994V102.682H53.9219V100.091H54.4072C54.4346 100.063 54.4756 100.022 54.5303 99.9541C54.585 99.8857 54.6875 99.7354 54.8242 99.5029C54.9609 99.2705 55.0771 99.0244 55.1865 98.751C55.2959 98.4775 55.3916 98.1152 55.4736 97.6641C55.5557 97.2129 55.6035 96.7344 55.6035 96.2422V94.2803H60.2178V100.091H61.2705ZM56.5811 95.1895L56.5742 96.2422C56.5742 97.0078 56.4854 97.7119 56.2939 98.3477C56.1094 98.9902 55.9248 99.4414 55.7402 99.7012L55.46 100.091H59.2402V95.1895H56.5811ZM67.8467 94.2803H68.6875V101H67.7031V95.9619L63.6426 101H62.8086V94.2803H63.7861V99.3184L67.8467 94.2803ZM70.5059 96.5225C70.5059 95.8799 70.7314 95.3467 71.1826 94.9229C71.6338 94.499 72.2285 94.2803 72.96 94.2803H75.8242V101H74.8467V98.7578H72.8848L71.4902 101H70.3691L71.9072 98.5527C71.8662 98.5459 71.8184 98.5322 71.75 98.5049C71.6816 98.4775 71.5723 98.416 71.415 98.3203C71.251 98.2246 71.1143 98.1016 70.9912 97.9648C70.8682 97.8281 70.7588 97.6299 70.6562 97.3838C70.5537 97.1309 70.5059 96.8438 70.5059 96.5225ZM74.8467 95.1895L72.96 95.1963C72.5088 95.1963 72.1533 95.3193 71.8867 95.5654C71.6201 95.8115 71.4902 96.1328 71.4902 96.5225C71.4902 96.9189 71.6201 97.2334 71.8867 97.4795C72.1465 97.7256 72.5088 97.8486 72.96 97.8486H74.8467V95.1895ZM85.5586 101V95.2031H81.71V101H80.7324V94.2803H86.543V101H85.5586ZM89.7627 97.6436C89.7627 98.334 90.002 98.9355 90.4941 99.4551C90.9863 99.9746 91.5332 100.228 92.1416 100.228C92.7158 100.228 93.2354 99.9814 93.6934 99.4756C94.1514 98.9697 94.3838 98.3613 94.3838 97.6436C94.3838 96.9258 94.1514 96.3174 93.6934 95.8115C93.2354 95.3057 92.7158 95.0527 92.1416 95.0527C91.5332 95.0527 90.9863 95.3125 90.4941 95.832C90.002 96.3516 89.7627 96.9531 89.7627 97.6436ZM89.7627 99.9473V103.946H88.7852V94.2871H89.7627V95.3398C89.7764 95.3125 89.8105 95.2646 89.8584 95.21C89.9062 95.1553 90.002 95.0596 90.1523 94.9229C90.3027 94.7861 90.46 94.6631 90.6377 94.5537C90.8086 94.4443 91.0273 94.3486 91.3008 94.2666C91.5742 94.1846 91.8545 94.1436 92.1416 94.1436C92.9961 94.1436 93.748 94.4854 94.3906 95.1758C95.0332 95.8594 95.3613 96.6865 95.3613 97.6436C95.3613 98.6006 95.04 99.4277 94.3975 100.111C93.7549 100.795 93.0029 101.137 92.1416 101.137C91.8545 101.137 91.5742 101.096 91.3076 101.014C91.041 100.932 90.8154 100.836 90.6377 100.72C90.4531 100.61 90.2959 100.494 90.1592 100.378C90.0225 100.262 89.9268 100.159 89.8584 100.077L89.7627 99.9473ZM103.059 98.0059L97.5967 97.9922C97.6309 98.6006 97.877 99.127 98.3418 99.5645C98.8066 100.009 99.3467 100.228 99.9756 100.228C100.393 100.228 100.782 100.139 101.145 99.9473C101.5 99.7627 101.76 99.5781 101.91 99.3867L102.149 99.1133L102.778 99.7422C102.751 99.7832 102.71 99.8311 102.655 99.8994C102.601 99.9678 102.491 100.077 102.313 100.234C102.136 100.392 101.951 100.528 101.746 100.651C101.541 100.774 101.281 100.884 100.96 100.986C100.639 101.089 100.311 101.137 99.9756 101.137C99.0596 101.137 98.2666 100.802 97.6104 100.118C96.9473 99.4346 96.6191 98.6074 96.6191 97.6367C96.6191 96.666 96.9404 95.8457 97.5967 95.1621C98.2529 94.4785 99.0186 94.1367 99.9072 94.1367C100.823 94.1367 101.589 94.458 102.204 95.0938C102.819 95.7295 103.127 96.5293 103.127 97.5L103.059 98.0059ZM99.9072 95.0527C99.3193 95.0527 98.8066 95.2646 98.3691 95.6748C97.9316 96.0918 97.6719 96.584 97.5967 97.1514H102.149C102.074 96.5498 101.828 96.0439 101.411 95.6475C100.994 95.251 100.495 95.0527 99.9072 95.0527ZM111.104 100.091V102.682H110.127V101H104.733V102.682H103.756V100.091H104.241C104.269 100.063 104.31 100.022 104.364 99.9541C104.419 99.8857 104.521 99.7354 104.658 99.5029C104.795 99.2705 104.911 99.0244 105.021 98.751C105.13 98.4775 105.226 98.1152 105.308 97.6641C105.39 97.2129 105.438 96.7344 105.438 96.2422V94.2803H110.052V100.091H111.104ZM106.415 95.1895L106.408 96.2422C106.408 97.0078 106.319 97.7119 106.128 98.3477C105.943 98.9902 105.759 99.4414 105.574 99.7012L105.294 100.091H109.074V95.1895H106.415ZM118.521 96.0303L116.067 99.1133L113.62 96.0303V101H112.643V94.2803H113.408L116.067 97.6367L118.727 94.2803H119.499V101H118.521V96.0303ZM127.695 98.0059L122.233 97.9922C122.268 98.6006 122.514 99.127 122.979 99.5645C123.443 100.009 123.983 100.228 124.612 100.228C125.029 100.228 125.419 100.139 125.781 99.9473C126.137 99.7627 126.396 99.5781 126.547 99.3867L126.786 99.1133L127.415 99.7422C127.388 99.7832 127.347 99.8311 127.292 99.8994C127.237 99.9678 127.128 100.077 126.95 100.234C126.772 100.392 126.588 100.528 126.383 100.651C126.178 100.774 125.918 100.884 125.597 100.986C125.275 101.089 124.947 101.137 124.612 101.137C123.696 101.137 122.903 100.802 122.247 100.118C121.584 99.4346 121.256 98.6074 121.256 97.6367C121.256 96.666 121.577 95.8457 122.233 95.1621C122.89 94.4785 123.655 94.1367 124.544 94.1367C125.46 94.1367 126.226 94.458 126.841 95.0938C127.456 95.7295 127.764 96.5293 127.764 97.5L127.695 98.0059ZM124.544 95.0527C123.956 95.0527 123.443 95.2646 123.006 95.6748C122.568 96.0918 122.309 96.584 122.233 97.1514H126.786C126.711 96.5498 126.465 96.0439 126.048 95.6475C125.631 95.251 125.132 95.0527 124.544 95.0527ZM128.673 95.1895V94.2803H134.408V95.1895H132.029V101H131.052V95.1895H128.673ZM140.643 101V98.0605H136.794V101H135.816V94.2803H136.794V97.1514H140.643V94.2803H141.627V101H140.643ZM149.256 97.6436C149.256 96.9189 149.01 96.3037 148.531 95.8047C148.053 95.3057 147.472 95.0527 146.802 95.0527C146.132 95.0527 145.551 95.3057 145.072 95.8047C144.594 96.3037 144.354 96.9121 144.354 97.6367C144.354 98.3613 144.594 98.9697 145.072 99.4756C145.551 99.9814 146.132 100.228 146.802 100.228C147.472 100.228 148.053 99.9814 148.531 99.4824C149.01 98.9834 149.256 98.3682 149.256 97.6436ZM143.377 97.6436C143.377 96.6592 143.705 95.832 144.375 95.1553C145.045 94.4785 145.852 94.1367 146.809 94.1367C147.759 94.1367 148.565 94.4785 149.229 95.1553C149.898 95.832 150.227 96.6592 150.227 97.6436C150.227 98.6279 149.898 99.4551 149.229 100.132C148.565 100.802 147.759 101.144 146.809 101.144C145.852 101.144 145.045 100.802 144.375 100.132C143.705 99.4551 143.377 98.6279 143.377 97.6436ZM156.468 94.2803V95.1895H152.968V101H151.99V94.2803H156.468ZM163.119 97.6436C163.119 96.9189 162.873 96.3037 162.395 95.8047C161.916 95.3057 161.335 95.0527 160.665 95.0527C159.995 95.0527 159.414 95.3057 158.936 95.8047C158.457 96.3037 158.218 96.9121 158.218 97.6367C158.218 98.3613 158.457 98.9697 158.936 99.4756C159.414 99.9814 159.995 100.228 160.665 100.228C161.335 100.228 161.916 99.9814 162.395 99.4824C162.873 98.9834 163.119 98.3682 163.119 97.6436ZM157.24 97.6436C157.24 96.6592 157.568 95.832 158.238 95.1553C158.908 94.4785 159.715 94.1367 160.672 94.1367C161.622 94.1367 162.429 94.4785 163.092 95.1553C163.762 95.832 164.09 96.6592 164.09 97.6436C164.09 98.6279 163.762 99.4551 163.092 100.132C162.429 100.802 161.622 101.144 160.672 101.144C159.715 101.144 158.908 100.802 158.238 100.132C157.568 99.4551 157.24 98.6279 157.24 97.6436ZM6.09082 111.28H6.93164V118H5.94727V112.962L1.88672 118H1.05273V111.28H2.03027V116.318L6.09082 111.28ZM16.666 118V112.203H12.8174V118H11.8398V111.28H17.6504V118H16.666ZM20.8701 114.644C20.8701 115.334 21.1094 115.936 21.6016 116.455C22.0938 116.975 22.6406 117.228 23.249 117.228C23.8232 117.228 24.3428 116.981 24.8008 116.476C25.2588 115.97 25.4912 115.361 25.4912 114.644C25.4912 113.926 25.2588 113.317 24.8008 112.812C24.3428 112.306 23.8232 112.053 23.249 112.053C22.6406 112.053 22.0938 112.312 21.6016 112.832C21.1094 113.352 20.8701 113.953 20.8701 114.644ZM20.8701 116.947V120.946H19.8926V111.287H20.8701V112.34C20.8838 112.312 20.918 112.265 20.9658 112.21C21.0137 112.155 21.1094 112.06 21.2598 111.923C21.4102 111.786 21.5674 111.663 21.7451 111.554C21.916 111.444 22.1348 111.349 22.4082 111.267C22.6816 111.185 22.9619 111.144 23.249 111.144C24.1035 111.144 24.8555 111.485 25.498 112.176C26.1406 112.859 26.4688 113.687 26.4688 114.644C26.4688 115.601 26.1475 116.428 25.5049 117.111C24.8623 117.795 24.1104 118.137 23.249 118.137C22.9619 118.137 22.6816 118.096 22.415 118.014C22.1484 117.932 21.9229 117.836 21.7451 117.72C21.5605 117.61 21.4033 117.494 21.2666 117.378C21.1299 117.262 21.0342 117.159 20.9658 117.077L20.8701 116.947ZM33.6055 114.644C33.6055 113.919 33.3594 113.304 32.8809 112.805C32.4023 112.306 31.8213 112.053 31.1514 112.053C30.4814 112.053 29.9004 112.306 29.4219 112.805C28.9434 113.304 28.7041 113.912 28.7041 114.637C28.7041 115.361 28.9434 115.97 29.4219 116.476C29.9004 116.981 30.4814 117.228 31.1514 117.228C31.8213 117.228 32.4023 116.981 32.8809 116.482C33.3594 115.983 33.6055 115.368 33.6055 114.644ZM27.7266 114.644C27.7266 113.659 28.0547 112.832 28.7246 112.155C29.3945 111.479 30.2012 111.137 31.1582 111.137C32.1084 111.137 32.915 111.479 33.5781 112.155C34.248 112.832 34.5762 113.659 34.5762 114.644C34.5762 115.628 34.248 116.455 33.5781 117.132C32.915 117.802 32.1084 118.144 31.1582 118.144C30.2012 118.144 29.3945 117.802 28.7246 117.132C28.0547 116.455 27.7266 115.628 27.7266 114.644ZM35.8477 114.637C35.8477 113.666 36.1758 112.846 36.8389 112.162C37.502 111.479 38.2881 111.137 39.1973 111.137C39.7236 111.137 40.2158 111.253 40.667 111.479C41.1182 111.704 41.4463 111.93 41.6377 112.148L41.9316 112.47L41.2275 113.167C41.2139 113.14 41.1865 113.105 41.1455 113.051C41.1113 113.003 41.0293 112.914 40.9062 112.777C40.7832 112.647 40.6465 112.531 40.5029 112.436C40.3525 112.34 40.168 112.251 39.9355 112.169C39.7031 112.094 39.457 112.053 39.2041 112.053C38.5615 112.053 38.001 112.306 37.5293 112.805C37.0576 113.304 36.8252 113.919 36.8252 114.644C36.8252 115.368 37.0576 115.983 37.5293 116.482C38.001 116.981 38.5615 117.228 39.2041 117.228C39.5938 117.228 39.9629 117.139 40.3184 116.947C40.667 116.763 40.9199 116.578 41.0771 116.387L41.3027 116.113L42 116.742C41.9727 116.783 41.9316 116.831 41.877 116.899C41.8223 116.968 41.6992 117.077 41.5146 117.234C41.3369 117.392 41.1455 117.528 40.9404 117.651C40.7422 117.774 40.4824 117.884 40.168 117.986C39.8535 118.089 39.5322 118.137 39.2041 118.137C38.2881 118.137 37.4951 117.802 36.8389 117.118C36.1758 116.435 35.8477 115.607 35.8477 114.637ZM42.7041 112.189V111.28H48.4395V112.189H46.0605V118H45.083V112.189H42.7041ZM50.8252 114.644C50.8252 115.334 51.0645 115.936 51.5566 116.455C52.0488 116.975 52.5957 117.228 53.2041 117.228C53.7783 117.228 54.2979 116.981 54.7559 116.476C55.2139 115.97 55.4463 115.361 55.4463 114.644C55.4463 113.926 55.2139 113.317 54.7559 112.812C54.2979 112.306 53.7783 112.053 53.2041 112.053C52.5957 112.053 52.0488 112.312 51.5566 112.832C51.0645 113.352 50.8252 113.953 50.8252 114.644ZM50.8252 116.947V120.946H49.8477V111.287H50.8252V112.34C50.8389 112.312 50.873 112.265 50.9209 112.21C50.9688 112.155 51.0645 112.06 51.2148 111.923C51.3652 111.786 51.5225 111.663 51.7002 111.554C51.8711 111.444 52.0898 111.349 52.3633 111.267C52.6367 111.185 52.917 111.144 53.2041 111.144C54.0586 111.144 54.8105 111.485 55.4531 112.176C56.0957 112.859 56.4238 113.687 56.4238 114.644C56.4238 115.601 56.1025 116.428 55.46 117.111C54.8174 117.795 54.0654 118.137 53.2041 118.137C52.917 118.137 52.6367 118.096 52.3701 118.014C52.1035 117.932 51.8779 117.836 51.7002 117.72C51.5156 117.61 51.3584 117.494 51.2217 117.378C51.085 117.262 50.9893 117.159 50.9209 117.077L50.8252 116.947ZM59.6436 114.151L62.2344 113.728C62.2344 113.235 62.0771 112.832 61.7627 112.518C61.4482 112.21 61.0449 112.053 60.5527 112.053C60.1973 112.053 59.8623 112.135 59.5479 112.299C59.2334 112.463 59.0078 112.627 58.8711 112.791L58.6592 113.03L58.0303 112.401C58.0576 112.367 58.0918 112.319 58.1396 112.265C58.1875 112.21 58.29 112.107 58.4541 111.964C58.6182 111.82 58.7891 111.69 58.9668 111.574C59.1445 111.465 59.377 111.362 59.6641 111.273C59.9512 111.185 60.252 111.137 60.5527 111.137C61.3184 111.137 61.9473 111.39 62.4531 111.882C62.959 112.381 63.2119 112.996 63.2119 113.728V118H62.2344V117.091C62.2139 117.118 62.1865 117.159 62.1455 117.207C62.1045 117.255 62.0225 117.337 61.8857 117.46C61.749 117.583 61.6055 117.686 61.4551 117.781C61.2979 117.877 61.0928 117.959 60.8398 118.027C60.5869 118.103 60.3271 118.137 60.0605 118.137C59.3906 118.137 58.8232 117.938 58.3652 117.542C57.9072 117.146 57.6816 116.694 57.6816 116.182C57.6816 115.621 57.8457 115.17 58.1875 114.828C58.5225 114.486 59.0078 114.261 59.6436 114.151ZM60.0605 117.228C60.6895 117.228 61.209 117.022 61.6191 116.605C62.0293 116.195 62.2344 115.655 62.2344 114.992V114.568L59.9238 114.992C59.083 115.156 58.6592 115.553 58.6592 116.182C58.6592 116.482 58.7822 116.735 59.0283 116.934C59.2744 117.132 59.623 117.228 60.0605 117.228ZM70.2734 118V115.061H66.4248V118H65.4473V111.28H66.4248V114.151H70.2734V111.28H71.2578V118H70.2734ZM73.0078 114.637C73.0078 113.666 73.3359 112.846 73.999 112.162C74.6621 111.479 75.4482 111.137 76.3574 111.137C76.8838 111.137 77.376 111.253 77.8271 111.479C78.2783 111.704 78.6064 111.93 78.7979 112.148L79.0918 112.47L78.3877 113.167C78.374 113.14 78.3467 113.105 78.3057 113.051C78.2715 113.003 78.1895 112.914 78.0664 112.777C77.9434 112.647 77.8066 112.531 77.6631 112.436C77.5127 112.34 77.3281 112.251 77.0957 112.169C76.8633 112.094 76.6172 112.053 76.3643 112.053C75.7217 112.053 75.1611 112.306 74.6895 112.805C74.2178 113.304 73.9854 113.919 73.9854 114.644C73.9854 115.368 74.2178 115.983 74.6895 116.482C75.1611 116.981 75.7217 117.228 76.3643 117.228C76.7539 117.228 77.123 117.139 77.4785 116.947C77.8271 116.763 78.0801 116.578 78.2373 116.387L78.4629 116.113L79.1602 116.742C79.1328 116.783 79.0918 116.831 79.0371 116.899C78.9824 116.968 78.8594 117.077 78.6748 117.234C78.4971 117.392 78.3057 117.528 78.1006 117.651C77.9023 117.774 77.6426 117.884 77.3281 117.986C77.0137 118.089 76.6924 118.137 76.3643 118.137C75.4482 118.137 74.6553 117.802 73.999 117.118C73.3359 116.435 73.0078 115.607 73.0078 114.637ZM79.8643 112.189V111.28H85.5996V112.189H83.2207V118H82.2432V112.189H79.8643ZM87.0078 111.28H90.084C90.6992 111.28 91.1914 111.451 91.5605 111.779C91.9297 112.107 92.1143 112.524 92.1143 113.03C92.1143 113.317 92.0391 113.584 91.9023 113.816C91.7656 114.049 91.6221 114.213 91.4854 114.302L91.2734 114.432C91.3008 114.445 91.335 114.459 91.3896 114.473C91.4443 114.493 91.5332 114.541 91.6631 114.623C91.793 114.705 91.9092 114.794 92.0049 114.903C92.1006 115.013 92.1895 115.163 92.2715 115.361C92.3535 115.566 92.3945 115.792 92.3945 116.038C92.3945 116.646 92.2031 117.125 91.8271 117.474C91.4443 117.829 90.9111 118 90.2275 118H87.0078V111.28ZM90.2275 114.849H87.9854V117.091H90.2275C90.6104 117.091 90.9043 116.995 91.1094 116.797C91.3145 116.605 91.417 116.325 91.417 115.97C91.417 115.614 91.3145 115.341 91.1094 115.143C90.9043 114.951 90.6104 114.849 90.2275 114.849ZM91.1367 113.099C91.1367 112.497 90.7812 112.189 90.084 112.189H87.9854V114.008H90.084C90.7812 114.008 91.1367 113.707 91.1367 113.099ZM100.229 115.006L94.7666 114.992C94.8008 115.601 95.0469 116.127 95.5117 116.564C95.9766 117.009 96.5166 117.228 97.1455 117.228C97.5625 117.228 97.9521 117.139 98.3145 116.947C98.6699 116.763 98.9297 116.578 99.0801 116.387L99.3193 116.113L99.9482 116.742C99.9209 116.783 99.8799 116.831 99.8252 116.899C99.7705 116.968 99.6611 117.077 99.4834 117.234C99.3057 117.392 99.1211 117.528 98.916 117.651C98.7109 117.774 98.4512 117.884 98.1299 117.986C97.8086 118.089 97.4805 118.137 97.1455 118.137C96.2295 118.137 95.4365 117.802 94.7803 117.118C94.1172 116.435 93.7891 115.607 93.7891 114.637C93.7891 113.666 94.1104 112.846 94.7666 112.162C95.4229 111.479 96.1885 111.137 97.0771 111.137C97.9932 111.137 98.7588 111.458 99.374 112.094C99.9893 112.729 100.297 113.529 100.297 114.5L100.229 115.006ZM97.0771 112.053C96.4893 112.053 95.9766 112.265 95.5391 112.675C95.1016 113.092 94.8418 113.584 94.7666 114.151H99.3193C99.2441 113.55 98.998 113.044 98.5811 112.647C98.1641 112.251 97.665 112.053 97.0771 112.053ZM106.873 118V115.061H103.024V118H102.047V111.28H103.024V114.151H106.873V111.28H107.857V118H106.873ZM114.926 118V115.061H111.077V118H110.1V111.28H111.077V114.151H114.926V111.28H115.91V118H114.926ZM123.539 114.644C123.539 113.919 123.293 113.304 122.814 112.805C122.336 112.306 121.755 112.053 121.085 112.053C120.415 112.053 119.834 112.306 119.355 112.805C118.877 113.304 118.638 113.912 118.638 114.637C118.638 115.361 118.877 115.97 119.355 116.476C119.834 116.981 120.415 117.228 121.085 117.228C121.755 117.228 122.336 116.981 122.814 116.482C123.293 115.983 123.539 115.368 123.539 114.644ZM117.66 114.644C117.66 113.659 117.988 112.832 118.658 112.155C119.328 111.479 120.135 111.137 121.092 111.137C122.042 111.137 122.849 111.479 123.512 112.155C124.182 112.832 124.51 113.659 124.51 114.644C124.51 115.628 124.182 116.455 123.512 117.132C122.849 117.802 122.042 118.144 121.092 118.144C120.135 118.144 119.328 117.802 118.658 117.132C117.988 116.455 117.66 115.628 117.66 114.644ZM130.751 111.28V112.189H127.251V118H126.273V111.28H130.751ZM137.402 114.644C137.402 113.919 137.156 113.304 136.678 112.805C136.199 112.306 135.618 112.053 134.948 112.053C134.278 112.053 133.697 112.306 133.219 112.805C132.74 113.304 132.501 113.912 132.501 114.637C132.501 115.361 132.74 115.97 133.219 116.476C133.697 116.981 134.278 117.228 134.948 117.228C135.618 117.228 136.199 116.981 136.678 116.482C137.156 115.983 137.402 115.368 137.402 114.644ZM131.523 114.644C131.523 113.659 131.852 112.832 132.521 112.155C133.191 111.479 133.998 111.137 134.955 111.137C135.905 111.137 136.712 111.479 137.375 112.155C138.045 112.832 138.373 113.659 138.373 114.644C138.373 115.628 138.045 116.455 137.375 117.132C136.712 117.802 135.905 118.144 134.955 118.144C133.998 118.144 133.191 117.802 132.521 117.132C131.852 116.455 131.523 115.628 131.523 114.644ZM149.03 117.091V119.682H148.053V118H142.659V119.682H141.682V117.091H142.167C142.194 117.063 142.235 117.022 142.29 116.954C142.345 116.886 142.447 116.735 142.584 116.503C142.721 116.271 142.837 116.024 142.946 115.751C143.056 115.478 143.151 115.115 143.233 114.664C143.315 114.213 143.363 113.734 143.363 113.242V111.28H147.978V117.091H149.03ZM144.341 112.189L144.334 113.242C144.334 114.008 144.245 114.712 144.054 115.348C143.869 115.99 143.685 116.441 143.5 116.701L143.22 117.091H147V112.189H144.341ZM155.606 111.28H156.447V118H155.463V112.962L151.402 118H150.568V111.28H151.546V116.318L155.606 111.28ZM162.75 113.03C162.75 113.256 162.709 113.461 162.641 113.646C162.572 113.823 162.483 113.967 162.381 114.069C162.278 114.172 162.176 114.261 162.066 114.329C161.957 114.397 161.875 114.452 161.807 114.479L161.697 114.507C161.731 114.514 161.779 114.527 161.841 114.541C161.902 114.555 162.005 114.596 162.155 114.671C162.306 114.746 162.436 114.835 162.552 114.944C162.668 115.054 162.777 115.211 162.873 115.416C162.969 115.621 163.023 115.854 163.023 116.12C163.023 116.688 162.798 117.166 162.354 117.556C161.902 117.945 161.267 118.144 160.439 118.144C160.118 118.144 159.817 118.103 159.53 118.021C159.243 117.938 159.011 117.836 158.819 117.727C158.628 117.61 158.457 117.494 158.32 117.378C158.184 117.262 158.081 117.166 158.013 117.084L157.917 116.954L158.546 116.325C158.601 116.387 158.676 116.469 158.771 116.571C158.867 116.681 159.086 116.817 159.414 116.981C159.742 117.146 160.084 117.228 160.439 117.228C160.973 117.228 161.369 117.125 161.643 116.92C161.909 116.715 162.046 116.448 162.046 116.113C162.046 115.778 161.909 115.505 161.636 115.3C161.362 115.095 160.966 114.992 160.439 114.992H159.667V114.083H160.439C160.836 114.083 161.157 113.98 161.403 113.775C161.643 113.57 161.766 113.317 161.766 113.03C161.766 112.743 161.649 112.504 161.431 112.326C161.205 112.148 160.877 112.06 160.439 112.06C160.125 112.06 159.831 112.121 159.551 112.244C159.271 112.367 159.072 112.497 158.956 112.627L158.758 112.818L158.054 112.121C158.115 112.053 158.211 111.957 158.334 111.848C158.457 111.738 158.724 111.595 159.134 111.41C159.544 111.232 159.975 111.137 160.439 111.137C161.123 111.137 161.677 111.328 162.107 111.697C162.531 112.073 162.75 112.518 162.75 113.03ZM166.325 114.151L168.916 113.728C168.916 113.235 168.759 112.832 168.444 112.518C168.13 112.21 167.727 112.053 167.234 112.053C166.879 112.053 166.544 112.135 166.229 112.299C165.915 112.463 165.689 112.627 165.553 112.791L165.341 113.03L164.712 112.401C164.739 112.367 164.773 112.319 164.821 112.265C164.869 112.21 164.972 112.107 165.136 111.964C165.3 111.82 165.471 111.69 165.648 111.574C165.826 111.465 166.059 111.362 166.346 111.273C166.633 111.185 166.934 111.137 167.234 111.137C168 111.137 168.629 111.39 169.135 111.882C169.641 112.381 169.894 112.996 169.894 113.728V118H168.916V117.091C168.896 117.118 168.868 117.159 168.827 117.207C168.786 117.255 168.704 117.337 168.567 117.46C168.431 117.583 168.287 117.686 168.137 117.781C167.979 117.877 167.774 117.959 167.521 118.027C167.269 118.103 167.009 118.137 166.742 118.137C166.072 118.137 165.505 117.938 165.047 117.542C164.589 117.146 164.363 116.694 164.363 116.182C164.363 115.621 164.527 115.17 164.869 114.828C165.204 114.486 165.689 114.261 166.325 114.151ZM166.742 117.228C167.371 117.228 167.891 117.022 168.301 116.605C168.711 116.195 168.916 115.655 168.916 114.992V114.568L166.605 114.992C165.765 115.156 165.341 115.553 165.341 116.182C165.341 116.482 165.464 116.735 165.71 116.934C165.956 117.132 166.305 117.228 166.742 117.228ZM175.068 109.387C175.424 109.387 175.697 109.284 175.896 109.079C176.087 108.874 176.189 108.58 176.189 108.197H176.955C176.955 108.758 176.777 109.216 176.429 109.564C176.08 109.92 175.629 110.091 175.068 110.091C174.508 110.091 174.05 109.92 173.701 109.564C173.346 109.216 173.175 108.758 173.175 108.197H173.947C173.947 108.58 174.043 108.874 174.241 109.079C174.433 109.284 174.713 109.387 175.068 109.387ZM177.167 111.28H178.008V118H177.023V112.962L172.963 118H172.129V111.28H173.106V116.318L177.167 111.28ZM185.076 118V115.061H181.228V118H180.25V111.28H181.228V114.151H185.076V111.28H186.061V118H185.076ZM189.772 114.151L192.363 113.728C192.363 113.235 192.206 112.832 191.892 112.518C191.577 112.21 191.174 112.053 190.682 112.053C190.326 112.053 189.991 112.135 189.677 112.299C189.362 112.463 189.137 112.627 189 112.791L188.788 113.03L188.159 112.401C188.187 112.367 188.221 112.319 188.269 112.265C188.316 112.21 188.419 112.107 188.583 111.964C188.747 111.82 188.918 111.69 189.096 111.574C189.273 111.465 189.506 111.362 189.793 111.273C190.08 111.185 190.381 111.137 190.682 111.137C191.447 111.137 192.076 111.39 192.582 111.882C193.088 112.381 193.341 112.996 193.341 113.728V118H192.363V117.091C192.343 117.118 192.315 117.159 192.274 117.207C192.233 117.255 192.151 117.337 192.015 117.46C191.878 117.583 191.734 117.686 191.584 117.781C191.427 117.877 191.222 117.959 190.969 118.027C190.716 118.103 190.456 118.137 190.189 118.137C189.52 118.137 188.952 117.938 188.494 117.542C188.036 117.146 187.811 116.694 187.811 116.182C187.811 115.621 187.975 115.17 188.316 114.828C188.651 114.486 189.137 114.261 189.772 114.151ZM190.189 117.228C190.818 117.228 191.338 117.022 191.748 116.605C192.158 116.195 192.363 115.655 192.363 114.992V114.568L190.053 114.992C189.212 115.156 188.788 115.553 188.788 116.182C188.788 116.482 188.911 116.735 189.157 116.934C189.403 117.132 189.752 117.228 190.189 117.228ZM0.560547 131.637C0.560547 130.666 0.888672 129.846 1.55176 129.162C2.21484 128.479 3.00098 128.137 3.91016 128.137C4.43652 128.137 4.92871 128.253 5.37988 128.479C5.83105 128.704 6.15918 128.93 6.35059 129.148L6.64453 129.47L5.94043 130.167C5.92676 130.14 5.89941 130.105 5.8584 130.051C5.82422 130.003 5.74219 129.914 5.61914 129.777C5.49609 129.647 5.35938 129.531 5.21582 129.436C5.06543 129.34 4.88086 129.251 4.64844 129.169C4.41602 129.094 4.16992 129.053 3.91699 129.053C3.27441 129.053 2.71387 129.306 2.24219 129.805C1.77051 130.304 1.53809 130.919 1.53809 131.644C1.53809 132.368 1.77051 132.983 2.24219 133.482C2.71387 133.981 3.27441 134.228 3.91699 134.228C4.30664 134.228 4.67578 134.139 5.03125 133.947C5.37988 133.763 5.63281 133.578 5.79004 133.387L6.01562 133.113L6.71289 133.742C6.68555 133.783 6.64453 133.831 6.58984 133.899C6.53516 133.968 6.41211 134.077 6.22754 134.234C6.0498 134.392 5.8584 134.528 5.65332 134.651C5.45508 134.774 5.19531 134.884 4.88086 134.986C4.56641 135.089 4.24512 135.137 3.91699 135.137C3.00098 135.137 2.20801 134.802 1.55176 134.118C0.888672 133.435 0.560547 132.607 0.560547 131.637ZM10.4316 131.637C10.4316 130.666 10.7598 129.846 11.4229 129.162C12.0859 128.479 12.8721 128.137 13.7812 128.137C14.3076 128.137 14.7998 128.253 15.251 128.479C15.7021 128.704 16.0303 128.93 16.2217 129.148L16.5156 129.47L15.8115 130.167C15.7979 130.14 15.7705 130.105 15.7295 130.051C15.6953 130.003 15.6133 129.914 15.4902 129.777C15.3672 129.647 15.2305 129.531 15.0869 129.436C14.9365 129.34 14.752 129.251 14.5195 129.169C14.2871 129.094 14.041 129.053 13.7881 129.053C13.1455 129.053 12.585 129.306 12.1133 129.805C11.6416 130.304 11.4092 130.919 11.4092 131.644C11.4092 132.368 11.6416 132.983 12.1133 133.482C12.585 133.981 13.1455 134.228 13.7881 134.228C14.1777 134.228 14.5469 134.139 14.9023 133.947C15.251 133.763 15.5039 133.578 15.6611 133.387L15.8867 133.113L16.584 133.742C16.5566 133.783 16.5156 133.831 16.4609 133.899C16.4062 133.968 16.2832 134.077 16.0986 134.234C15.9209 134.392 15.7295 134.528 15.5244 134.651C15.3262 134.774 15.0664 134.884 14.752 134.986C14.4375 135.089 14.1162 135.137 13.7881 135.137C12.8721 135.137 12.0791 134.802 11.4229 134.118C10.7598 133.435 10.4316 132.607 10.4316 131.637ZM23.5156 131.644C23.5156 130.919 23.2695 130.304 22.791 129.805C22.3125 129.306 21.7314 129.053 21.0615 129.053C20.3916 129.053 19.8105 129.306 19.332 129.805C18.8535 130.304 18.6143 130.912 18.6143 131.637C18.6143 132.361 18.8535 132.97 19.332 133.476C19.8105 133.981 20.3916 134.228 21.0615 134.228C21.7314 134.228 22.3125 133.981 22.791 133.482C23.2695 132.983 23.5156 132.368 23.5156 131.644ZM17.6367 131.644C17.6367 130.659 17.9648 129.832 18.6348 129.155C19.3047 128.479 20.1113 128.137 21.0684 128.137C22.0186 128.137 22.8252 128.479 23.4883 129.155C24.1582 129.832 24.4863 130.659 24.4863 131.644C24.4863 132.628 24.1582 133.455 23.4883 134.132C22.8252 134.802 22.0186 135.144 21.0684 135.144C20.1113 135.144 19.3047 134.802 18.6348 134.132C17.9648 133.455 17.6367 132.628 17.6367 131.644ZM32.6143 131.78C32.6143 132.724 32.293 133.523 31.6572 134.166C31.0146 134.815 30.2422 135.137 29.3262 135.137C28.335 135.137 27.5283 134.761 26.9062 134.009C26.2773 133.257 25.9697 132.184 25.9697 130.803C25.9697 127.713 27.1113 125.963 29.3945 125.553C29.8867 125.471 30.3311 125.368 30.7207 125.231C31.1035 125.102 31.3633 124.992 31.5 124.903L31.7051 124.78L32.1973 125.553C31.8213 125.881 30.9326 126.188 29.5381 126.462C28.7998 126.612 28.1982 126.968 27.7471 127.515C27.2959 128.062 27.0498 128.807 27.0156 129.75C27.0293 129.716 27.0635 129.668 27.1045 129.606C27.1455 129.545 27.2412 129.442 27.3848 129.292C27.5283 129.142 27.6855 129.012 27.8633 128.889C28.0342 128.772 28.2598 128.663 28.5332 128.567C28.8066 128.472 29.0938 128.417 29.3945 128.417C30.2832 128.417 31.042 128.745 31.6709 129.401C32.2998 130.058 32.6143 130.851 32.6143 131.78ZM27.0156 131.78C27.0156 132.478 27.2412 133.059 27.6924 133.523C28.1436 133.995 28.6904 134.228 29.3262 134.228C29.9551 134.228 30.502 133.995 30.9531 133.523C31.4043 133.059 31.6367 132.478 31.6367 131.78C31.6367 131.09 31.4043 130.509 30.9531 130.037C30.502 129.572 29.9551 129.333 29.3262 129.333C28.6904 129.333 28.1436 129.572 27.6924 130.037C27.2412 130.509 27.0156 131.09 27.0156 131.78ZM33.9473 131.637C33.9473 130.666 34.2754 129.846 34.9385 129.162C35.6016 128.479 36.3877 128.137 37.2969 128.137C37.8232 128.137 38.3154 128.253 38.7666 128.479C39.2178 128.704 39.5459 128.93 39.7373 129.148L40.0312 129.47L39.3271 130.167C39.3135 130.14 39.2861 130.105 39.2451 130.051C39.2109 130.003 39.1289 129.914 39.0059 129.777C38.8828 129.647 38.7461 129.531 38.6025 129.436C38.4521 129.34 38.2676 129.251 38.0352 129.169C37.8027 129.094 37.5566 129.053 37.3037 129.053C36.6611 129.053 36.1006 129.306 35.6289 129.805C35.1572 130.304 34.9248 130.919 34.9248 131.644C34.9248 132.368 35.1572 132.983 35.6289 133.482C36.1006 133.981 36.6611 134.228 37.3037 134.228C37.6934 134.228 38.0625 134.139 38.418 133.947C38.7666 133.763 39.0195 133.578 39.1768 133.387L39.4023 133.113L40.0996 133.742C40.0723 133.783 40.0312 133.831 39.9766 133.899C39.9219 133.968 39.7988 134.077 39.6143 134.234C39.4365 134.392 39.2451 134.528 39.04 134.651C38.8418 134.774 38.582 134.884 38.2676 134.986C37.9531 135.089 37.6318 135.137 37.3037 135.137C36.3877 135.137 35.5947 134.802 34.9385 134.118C34.2754 133.435 33.9473 132.607 33.9473 131.637ZM40.8037 129.189V128.28H46.5391V129.189H44.1602V135H43.1826V129.189H40.8037ZM47.9473 128.28H51.0234C51.6387 128.28 52.1309 128.451 52.5 128.779C52.8691 129.107 53.0537 129.524 53.0537 130.03C53.0537 130.317 52.9785 130.584 52.8418 130.816C52.7051 131.049 52.5615 131.213 52.4248 131.302L52.2129 131.432C52.2402 131.445 52.2744 131.459 52.3291 131.473C52.3838 131.493 52.4727 131.541 52.6025 131.623C52.7324 131.705 52.8486 131.794 52.9443 131.903C53.04 132.013 53.1289 132.163 53.2109 132.361C53.293 132.566 53.334 132.792 53.334 133.038C53.334 133.646 53.1426 134.125 52.7666 134.474C52.3838 134.829 51.8506 135 51.167 135H47.9473V128.28ZM51.167 131.849H48.9248V134.091H51.167C51.5498 134.091 51.8438 133.995 52.0488 133.797C52.2539 133.605 52.3564 133.325 52.3564 132.97C52.3564 132.614 52.2539 132.341 52.0488 132.143C51.8438 131.951 51.5498 131.849 51.167 131.849ZM52.0762 130.099C52.0762 129.497 51.7207 129.189 51.0234 129.189H48.9248V131.008H51.0234C51.7207 131.008 52.0762 130.707 52.0762 130.099ZM61.168 132.006L55.7061 131.992C55.7402 132.601 55.9863 133.127 56.4512 133.564C56.916 134.009 57.4561 134.228 58.085 134.228C58.502 134.228 58.8916 134.139 59.2539 133.947C59.6094 133.763 59.8691 133.578 60.0195 133.387L60.2588 133.113L60.8877 133.742C60.8604 133.783 60.8193 133.831 60.7646 133.899C60.71 133.968 60.6006 134.077 60.4229 134.234C60.2451 134.392 60.0605 134.528 59.8555 134.651C59.6504 134.774 59.3906 134.884 59.0693 134.986C58.748 135.089 58.4199 135.137 58.085 135.137C57.1689 135.137 56.376 134.802 55.7197 134.118C55.0566 133.435 54.7285 132.607 54.7285 131.637C54.7285 130.666 55.0498 129.846 55.7061 129.162C56.3623 128.479 57.1279 128.137 58.0166 128.137C58.9326 128.137 59.6982 128.458 60.3135 129.094C60.9287 129.729 61.2363 130.529 61.2363 131.5L61.168 132.006ZM58.0166 129.053C57.4287 129.053 56.916 129.265 56.4785 129.675C56.041 130.092 55.7812 130.584 55.7061 131.151H60.2588C60.1836 130.55 59.9375 130.044 59.5205 129.647C59.1035 129.251 58.6045 129.053 58.0166 129.053ZM67.8125 135V132.061H63.9639V135H62.9863V128.28H63.9639V131.151H67.8125V128.28H68.7969V135H67.8125ZM75.8652 135V132.061H72.0166V135H71.0391V128.28H72.0166V131.151H75.8652V128.28H76.8496V135H75.8652ZM84.4785 131.644C84.4785 130.919 84.2324 130.304 83.7539 129.805C83.2754 129.306 82.6943 129.053 82.0244 129.053C81.3545 129.053 80.7734 129.306 80.2949 129.805C79.8164 130.304 79.5771 130.912 79.5771 131.637C79.5771 132.361 79.8164 132.97 80.2949 133.476C80.7734 133.981 81.3545 134.228 82.0244 134.228C82.6943 134.228 83.2754 133.981 83.7539 133.482C84.2324 132.983 84.4785 132.368 84.4785 131.644ZM78.5996 131.644C78.5996 130.659 78.9277 129.832 79.5977 129.155C80.2676 128.479 81.0742 128.137 82.0312 128.137C82.9814 128.137 83.7881 128.479 84.4512 129.155C85.1211 129.832 85.4492 130.659 85.4492 131.644C85.4492 132.628 85.1211 133.455 84.4512 134.132C83.7881 134.802 82.9814 135.144 82.0312 135.144C81.0742 135.144 80.2676 134.802 79.5977 134.132C78.9277 133.455 78.5996 132.628 78.5996 131.644ZM90.1523 126.387C90.5078 126.387 90.7812 126.284 90.9795 126.079C91.1709 125.874 91.2734 125.58 91.2734 125.197H92.0391C92.0391 125.758 91.8613 126.216 91.5127 126.564C91.1641 126.92 90.7129 127.091 90.1523 127.091C89.5918 127.091 89.1338 126.92 88.7852 126.564C88.4297 126.216 88.2588 125.758 88.2588 125.197H89.0312C89.0312 125.58 89.127 125.874 89.3252 126.079C89.5166 126.284 89.7969 126.387 90.1523 126.387ZM92.251 128.28H93.0918V135H92.1074V129.962L88.0469 135H87.2129V128.28H88.1904V133.318L92.251 128.28ZM103.879 130.03L101.425 133.113L98.9775 130.03V135H98V128.28H98.7656L101.425 131.637L104.084 128.28H104.856V135H103.879V130.03ZM108.575 131.151L111.166 130.728C111.166 130.235 111.009 129.832 110.694 129.518C110.38 129.21 109.977 129.053 109.484 129.053C109.129 129.053 108.794 129.135 108.479 129.299C108.165 129.463 107.939 129.627 107.803 129.791L107.591 130.03L106.962 129.401C106.989 129.367 107.023 129.319 107.071 129.265C107.119 129.21 107.222 129.107 107.386 128.964C107.55 128.82 107.721 128.69 107.898 128.574C108.076 128.465 108.309 128.362 108.596 128.273C108.883 128.185 109.184 128.137 109.484 128.137C110.25 128.137 110.879 128.39 111.385 128.882C111.891 129.381 112.144 129.996 112.144 130.728V135H111.166V134.091C111.146 134.118 111.118 134.159 111.077 134.207C111.036 134.255 110.954 134.337 110.817 134.46C110.681 134.583 110.537 134.686 110.387 134.781C110.229 134.877 110.024 134.959 109.771 135.027C109.519 135.103 109.259 135.137 108.992 135.137C108.322 135.137 107.755 134.938 107.297 134.542C106.839 134.146 106.613 133.694 106.613 133.182C106.613 132.621 106.777 132.17 107.119 131.828C107.454 131.486 107.939 131.261 108.575 131.151ZM108.992 134.228C109.621 134.228 110.141 134.022 110.551 133.605C110.961 133.195 111.166 132.655 111.166 131.992V131.568L108.855 131.992C108.015 132.156 107.591 132.553 107.591 133.182C107.591 133.482 107.714 133.735 107.96 133.934C108.206 134.132 108.555 134.228 108.992 134.228ZM113.887 131.637C113.887 130.666 114.215 129.846 114.878 129.162C115.541 128.479 116.327 128.137 117.236 128.137C117.763 128.137 118.255 128.253 118.706 128.479C119.157 128.704 119.485 128.93 119.677 129.148L119.971 129.47L119.267 130.167C119.253 130.14 119.226 130.105 119.185 130.051C119.15 130.003 119.068 129.914 118.945 129.777C118.822 129.647 118.686 129.531 118.542 129.436C118.392 129.34 118.207 129.251 117.975 129.169C117.742 129.094 117.496 129.053 117.243 129.053C116.601 129.053 116.04 129.306 115.568 129.805C115.097 130.304 114.864 130.919 114.864 131.644C114.864 132.368 115.097 132.983 115.568 133.482C116.04 133.981 116.601 134.228 117.243 134.228C117.633 134.228 118.002 134.139 118.357 133.947C118.706 133.763 118.959 133.578 119.116 133.387L119.342 133.113L120.039 133.742C120.012 133.783 119.971 133.831 119.916 133.899C119.861 133.968 119.738 134.077 119.554 134.234C119.376 134.392 119.185 134.528 118.979 134.651C118.781 134.774 118.521 134.884 118.207 134.986C117.893 135.089 117.571 135.137 117.243 135.137C116.327 135.137 115.534 134.802 114.878 134.118C114.215 133.435 113.887 132.607 113.887 131.637ZM120.743 129.189V128.28H126.479V129.189H124.1V135H123.122V129.189H120.743ZM133.834 132.006L128.372 131.992C128.406 132.601 128.652 133.127 129.117 133.564C129.582 134.009 130.122 134.228 130.751 134.228C131.168 134.228 131.558 134.139 131.92 133.947C132.275 133.763 132.535 133.578 132.686 133.387L132.925 133.113L133.554 133.742C133.526 133.783 133.485 133.831 133.431 133.899C133.376 133.968 133.267 134.077 133.089 134.234C132.911 134.392 132.727 134.528 132.521 134.651C132.316 134.774 132.057 134.884 131.735 134.986C131.414 135.089 131.086 135.137 130.751 135.137C129.835 135.137 129.042 134.802 128.386 134.118C127.723 133.435 127.395 132.607 127.395 131.637C127.395 130.666 127.716 129.846 128.372 129.162C129.028 128.479 129.794 128.137 130.683 128.137C131.599 128.137 132.364 128.458 132.979 129.094C133.595 129.729 133.902 130.529 133.902 131.5L133.834 132.006ZM130.683 129.053C130.095 129.053 129.582 129.265 129.145 129.675C128.707 130.092 128.447 130.584 128.372 131.151H132.925C132.85 130.55 132.604 130.044 132.187 129.647C131.77 129.251 131.271 129.053 130.683 129.053ZM136.63 131.644C136.63 132.334 136.869 132.936 137.361 133.455C137.854 133.975 138.4 134.228 139.009 134.228C139.583 134.228 140.103 133.981 140.561 133.476C141.019 132.97 141.251 132.361 141.251 131.644C141.251 130.926 141.019 130.317 140.561 129.812C140.103 129.306 139.583 129.053 139.009 129.053C138.4 129.053 137.854 129.312 137.361 129.832C136.869 130.352 136.63 130.953 136.63 131.644ZM136.63 133.947V137.946H135.652V128.287H136.63V129.34C136.644 129.312 136.678 129.265 136.726 129.21C136.773 129.155 136.869 129.06 137.02 128.923C137.17 128.786 137.327 128.663 137.505 128.554C137.676 128.444 137.895 128.349 138.168 128.267C138.441 128.185 138.722 128.144 139.009 128.144C139.863 128.144 140.615 128.485 141.258 129.176C141.9 129.859 142.229 130.687 142.229 131.644C142.229 132.601 141.907 133.428 141.265 134.111C140.622 134.795 139.87 135.137 139.009 135.137C138.722 135.137 138.441 135.096 138.175 135.014C137.908 134.932 137.683 134.836 137.505 134.72C137.32 134.61 137.163 134.494 137.026 134.378C136.89 134.262 136.794 134.159 136.726 134.077L136.63 133.947ZM143.486 131.637C143.486 130.666 143.814 129.846 144.478 129.162C145.141 128.479 145.927 128.137 146.836 128.137C147.362 128.137 147.854 128.253 148.306 128.479C148.757 128.704 149.085 128.93 149.276 129.148L149.57 129.47L148.866 130.167C148.853 130.14 148.825 130.105 148.784 130.051C148.75 130.003 148.668 129.914 148.545 129.777C148.422 129.647 148.285 129.531 148.142 129.436C147.991 129.34 147.807 129.251 147.574 129.169C147.342 129.094 147.096 129.053 146.843 129.053C146.2 129.053 145.64 129.306 145.168 129.805C144.696 130.304 144.464 130.919 144.464 131.644C144.464 132.368 144.696 132.983 145.168 133.482C145.64 133.981 146.2 134.228 146.843 134.228C147.232 134.228 147.602 134.139 147.957 133.947C148.306 133.763 148.559 133.578 148.716 133.387L148.941 133.113L149.639 133.742C149.611 133.783 149.57 133.831 149.516 133.899C149.461 133.968 149.338 134.077 149.153 134.234C148.976 134.392 148.784 134.528 148.579 134.651C148.381 134.774 148.121 134.884 147.807 134.986C147.492 135.089 147.171 135.137 146.843 135.137C145.927 135.137 145.134 134.802 144.478 134.118C143.814 133.435 143.486 132.607 143.486 131.637ZM152.161 133.113V135H151.184V128.28H152.161V131.849L155.518 128.28H156.714L154.123 131.008L156.994 135H155.873L153.494 131.712L152.161 133.113ZM163.352 131.644C163.352 130.919 163.105 130.304 162.627 129.805C162.148 129.306 161.567 129.053 160.897 129.053C160.228 129.053 159.646 129.306 159.168 129.805C158.689 130.304 158.45 130.912 158.45 131.637C158.45 132.361 158.689 132.97 159.168 133.476C159.646 133.981 160.228 134.228 160.897 134.228C161.567 134.228 162.148 133.981 162.627 133.482C163.105 132.983 163.352 132.368 163.352 131.644ZM157.473 131.644C157.473 130.659 157.801 129.832 158.471 129.155C159.141 128.479 159.947 128.137 160.904 128.137C161.854 128.137 162.661 128.479 163.324 129.155C163.994 129.832 164.322 130.659 164.322 131.644C164.322 132.628 163.994 133.455 163.324 134.132C162.661 134.802 161.854 135.144 160.904 135.144C159.947 135.144 159.141 134.802 158.471 134.132C157.801 133.455 157.473 132.628 157.473 131.644ZM169.025 126.387C169.381 126.387 169.654 126.284 169.853 126.079C170.044 125.874 170.146 125.58 170.146 125.197H170.912C170.912 125.758 170.734 126.216 170.386 126.564C170.037 126.92 169.586 127.091 169.025 127.091C168.465 127.091 168.007 126.92 167.658 126.564C167.303 126.216 167.132 125.758 167.132 125.197H167.904C167.904 125.58 168 125.874 168.198 126.079C168.39 126.284 168.67 126.387 169.025 126.387ZM171.124 128.28H171.965V135H170.98V129.962L166.92 135H166.086V128.28H167.063V133.318L171.124 128.28ZM174.412 133.742L175.396 134.303L173.783 136.818L173.154 136.47L174.412 133.742ZM2.52246 152.978L2.87109 152L0.136719 145.28H1.18945L3.36328 150.742L5.53027 145.28H6.58301L3.5 152.978C3.21973 153.688 2.91895 154.194 2.60449 154.495C2.2832 154.796 1.87988 154.939 1.39453 154.939C1.24414 154.939 1.10059 154.933 0.963867 154.905C0.827148 154.885 0.717773 154.857 0.649414 154.83L0.553711 154.803V153.887C0.786133 153.982 1.01855 154.03 1.25098 154.03C1.8457 154.03 2.26953 153.682 2.52246 152.978ZM12.3936 145.28V146.189H8.89355V152H7.91602V145.28H12.3936ZM14.3555 145.28L19.2568 145.287V152.007H18.2725V146.196H15.333V147.249C15.333 148.233 15.2783 149.061 15.1826 149.717C15.0869 150.373 14.9365 150.879 14.7451 151.221C14.5469 151.562 14.3281 151.802 14.0957 151.938C13.8564 152.075 13.5693 152.144 13.2344 152.144C13.1182 152.144 13.002 152.13 12.8857 152.109C12.7695 152.082 12.6875 152.062 12.6328 152.034L12.5371 152.007V151.029C12.7217 151.118 12.9062 151.166 13.0977 151.166C13.3848 151.166 13.6104 151.084 13.7744 150.92C13.9385 150.756 14.0752 150.373 14.1846 149.785C14.2939 149.19 14.3555 148.343 14.3555 147.242V145.28ZM22.9619 152.978L23.3105 152L20.5762 145.28H21.6289L23.8027 150.742L25.9697 145.28H27.0225L23.9395 152.978C23.6592 153.688 23.3584 154.194 23.0439 154.495C22.7227 154.796 22.3193 154.939 21.834 154.939C21.6836 154.939 21.54 154.933 21.4033 154.905C21.2666 154.885 21.1572 154.857 21.0889 154.83L20.9932 154.803V153.887C21.2256 153.982 21.458 154.03 21.6904 154.03C22.2852 154.03 22.709 153.682 22.9619 152.978ZM34.7197 148.78C34.7197 149.724 34.3984 150.523 33.7627 151.166C33.1201 151.815 32.3477 152.137 31.4316 152.137C30.4404 152.137 29.6338 151.761 29.0117 151.009C28.3828 150.257 28.0752 149.184 28.0752 147.803C28.0752 144.713 29.2168 142.963 31.5 142.553C31.9922 142.471 32.4365 142.368 32.8262 142.231C33.209 142.102 33.4688 141.992 33.6055 141.903L33.8105 141.78L34.3027 142.553C33.9268 142.881 33.0381 143.188 31.6436 143.462C30.9053 143.612 30.3037 143.968 29.8525 144.515C29.4014 145.062 29.1553 145.807 29.1211 146.75C29.1348 146.716 29.1689 146.668 29.21 146.606C29.251 146.545 29.3467 146.442 29.4902 146.292C29.6338 146.142 29.791 146.012 29.9688 145.889C30.1396 145.772 30.3652 145.663 30.6387 145.567C30.9121 145.472 31.1992 145.417 31.5 145.417C32.3887 145.417 33.1475 145.745 33.7764 146.401C34.4053 147.058 34.7197 147.851 34.7197 148.78ZM29.1211 148.78C29.1211 149.478 29.3467 150.059 29.7979 150.523C30.249 150.995 30.7959 151.228 31.4316 151.228C32.0605 151.228 32.6074 150.995 33.0586 150.523C33.5098 150.059 33.7422 149.478 33.7422 148.78C33.7422 148.09 33.5098 147.509 33.0586 147.037C32.6074 146.572 32.0605 146.333 31.4316 146.333C30.7959 146.333 30.249 146.572 29.7979 147.037C29.3467 147.509 29.1211 148.09 29.1211 148.78ZM37.2422 145.28L42.1436 145.287V152.007H41.1592V146.196H38.2197V147.249C38.2197 148.233 38.165 149.061 38.0693 149.717C37.9736 150.373 37.8232 150.879 37.6318 151.221C37.4336 151.562 37.2148 151.802 36.9824 151.938C36.7432 152.075 36.4561 152.144 36.1211 152.144C36.0049 152.144 35.8887 152.13 35.7725 152.109C35.6562 152.082 35.5742 152.062 35.5195 152.034L35.4238 152.007V151.029C35.6084 151.118 35.793 151.166 35.9844 151.166C36.2715 151.166 36.4971 151.084 36.6611 150.92C36.8252 150.756 36.9619 150.373 37.0713 149.785C37.1807 149.19 37.2422 148.343 37.2422 147.242V145.28ZM50.3262 149.006L44.8643 148.992C44.8984 149.601 45.1445 150.127 45.6094 150.564C46.0742 151.009 46.6143 151.228 47.2432 151.228C47.6602 151.228 48.0498 151.139 48.4121 150.947C48.7676 150.763 49.0273 150.578 49.1777 150.387L49.417 150.113L50.0459 150.742C50.0186 150.783 49.9775 150.831 49.9229 150.899C49.8682 150.968 49.7588 151.077 49.5811 151.234C49.4033 151.392 49.2188 151.528 49.0137 151.651C48.8086 151.774 48.5488 151.884 48.2275 151.986C47.9062 152.089 47.5781 152.137 47.2432 152.137C46.3271 152.137 45.5342 151.802 44.8779 151.118C44.2148 150.435 43.8867 149.607 43.8867 148.637C43.8867 147.666 44.208 146.846 44.8643 146.162C45.5205 145.479 46.2861 145.137 47.1748 145.137C48.0908 145.137 48.8564 145.458 49.4717 146.094C50.0869 146.729 50.3945 147.529 50.3945 148.5L50.3262 149.006ZM47.1748 146.053C46.5869 146.053 46.0742 146.265 45.6367 146.675C45.1992 147.092 44.9395 147.584 44.8643 148.151H49.417C49.3418 147.55 49.0957 147.044 48.6787 146.647C48.2617 146.251 47.7627 146.053 47.1748 146.053ZM56.9707 152V149.061H53.1221V152H52.1445V145.28H53.1221V148.151H56.9707V145.28H57.9551V152H56.9707ZM65.0234 152V149.061H61.1748V152H60.1973V145.28H61.1748V148.151H65.0234V145.28H66.0078V152H65.0234ZM73.6367 148.644C73.6367 147.919 73.3906 147.304 72.9121 146.805C72.4336 146.306 71.8525 146.053 71.1826 146.053C70.5127 146.053 69.9316 146.306 69.4531 146.805C68.9746 147.304 68.7354 147.912 68.7354 148.637C68.7354 149.361 68.9746 149.97 69.4531 150.476C69.9316 150.981 70.5127 151.228 71.1826 151.228C71.8525 151.228 72.4336 150.981 72.9121 150.482C73.3906 149.983 73.6367 149.368 73.6367 148.644ZM67.7578 148.644C67.7578 147.659 68.0859 146.832 68.7559 146.155C69.4258 145.479 70.2324 145.137 71.1895 145.137C72.1396 145.137 72.9463 145.479 73.6094 146.155C74.2793 146.832 74.6074 147.659 74.6074 148.644C74.6074 149.628 74.2793 150.455 73.6094 151.132C72.9463 151.802 72.1396 152.144 71.1895 152.144C70.2324 152.144 69.4258 151.802 68.7559 151.132C68.0859 150.455 67.7578 149.628 67.7578 148.644ZM79.3105 143.387C79.666 143.387 79.9395 143.284 80.1377 143.079C80.3291 142.874 80.4316 142.58 80.4316 142.197H81.1973C81.1973 142.758 81.0195 143.216 80.6709 143.564C80.3223 143.92 79.8711 144.091 79.3105 144.091C78.75 144.091 78.292 143.92 77.9434 143.564C77.5879 143.216 77.417 142.758 77.417 142.197H78.1895C78.1895 142.58 78.2852 142.874 78.4834 143.079C78.6748 143.284 78.9551 143.387 79.3105 143.387ZM81.4092 145.28H82.25V152H81.2656V146.962L77.2051 152H76.3711V145.28H77.3486V150.318L81.4092 145.28ZM87.1582 145.28H90.2344C90.8496 145.28 91.3418 145.451 91.7109 145.779C92.0801 146.107 92.2646 146.524 92.2646 147.03C92.2646 147.317 92.1895 147.584 92.0527 147.816C91.916 148.049 91.7725 148.213 91.6357 148.302L91.4238 148.432C91.4512 148.445 91.4854 148.459 91.54 148.473C91.5947 148.493 91.6836 148.541 91.8135 148.623C91.9434 148.705 92.0596 148.794 92.1553 148.903C92.251 149.013 92.3398 149.163 92.4219 149.361C92.5039 149.566 92.5449 149.792 92.5449 150.038C92.5449 150.646 92.3535 151.125 91.9775 151.474C91.5947 151.829 91.0615 152 90.3779 152H87.1582V145.28ZM90.3779 148.849H88.1357V151.091H90.3779C90.7607 151.091 91.0547 150.995 91.2598 150.797C91.4648 150.605 91.5674 150.325 91.5674 149.97C91.5674 149.614 91.4648 149.341 91.2598 149.143C91.0547 148.951 90.7607 148.849 90.3779 148.849ZM91.2871 147.099C91.2871 146.497 90.9316 146.189 90.2344 146.189H88.1357V148.008H90.2344C90.9316 148.008 91.2871 147.707 91.2871 147.099ZM96.6055 148.637C96.6055 147.666 96.9336 146.846 97.5967 146.162C98.2598 145.479 99.0459 145.137 99.9551 145.137C100.481 145.137 100.974 145.253 101.425 145.479C101.876 145.704 102.204 145.93 102.396 146.148L102.689 146.47L101.985 147.167C101.972 147.14 101.944 147.105 101.903 147.051C101.869 147.003 101.787 146.914 101.664 146.777C101.541 146.647 101.404 146.531 101.261 146.436C101.11 146.34 100.926 146.251 100.693 146.169C100.461 146.094 100.215 146.053 99.9619 146.053C99.3193 146.053 98.7588 146.306 98.2871 146.805C97.8154 147.304 97.583 147.919 97.583 148.644C97.583 149.368 97.8154 149.983 98.2871 150.482C98.7588 150.981 99.3193 151.228 99.9619 151.228C100.352 151.228 100.721 151.139 101.076 150.947C101.425 150.763 101.678 150.578 101.835 150.387L102.061 150.113L102.758 150.742C102.73 150.783 102.689 150.831 102.635 150.899C102.58 150.968 102.457 151.077 102.272 151.234C102.095 151.392 101.903 151.528 101.698 151.651C101.5 151.774 101.24 151.884 100.926 151.986C100.611 152.089 100.29 152.137 99.9619 152.137C99.0459 152.137 98.2529 151.802 97.5967 151.118C96.9336 150.435 96.6055 149.607 96.6055 148.637ZM103.462 146.189V145.28H109.197V146.189H106.818V152H105.841V146.189H103.462ZM115.992 148.644C115.992 147.919 115.746 147.304 115.268 146.805C114.789 146.306 114.208 146.053 113.538 146.053C112.868 146.053 112.287 146.306 111.809 146.805C111.33 147.304 111.091 147.912 111.091 148.637C111.091 149.361 111.33 149.97 111.809 150.476C112.287 150.981 112.868 151.228 113.538 151.228C114.208 151.228 114.789 150.981 115.268 150.482C115.746 149.983 115.992 149.368 115.992 148.644ZM110.113 148.644C110.113 147.659 110.441 146.832 111.111 146.155C111.781 145.479 112.588 145.137 113.545 145.137C114.495 145.137 115.302 145.479 115.965 146.155C116.635 146.832 116.963 147.659 116.963 148.644C116.963 149.628 116.635 150.455 115.965 151.132C115.302 151.802 114.495 152.144 113.545 152.144C112.588 152.144 111.781 151.802 111.111 151.132C110.441 150.455 110.113 149.628 110.113 148.644ZM119.424 145.28L124.325 145.287V152.007H123.341V146.196H120.401V147.249C120.401 148.233 120.347 149.061 120.251 149.717C120.155 150.373 120.005 150.879 119.813 151.221C119.615 151.562 119.396 151.802 119.164 151.938C118.925 152.075 118.638 152.144 118.303 152.144C118.187 152.144 118.07 152.13 117.954 152.109C117.838 152.082 117.756 152.062 117.701 152.034L117.605 152.007V151.029C117.79 151.118 117.975 151.166 118.166 151.166C118.453 151.166 118.679 151.084 118.843 150.92C119.007 150.756 119.144 150.373 119.253 149.785C119.362 149.19 119.424 148.343 119.424 147.242V145.28ZM126.137 147.522C126.137 146.88 126.362 146.347 126.813 145.923C127.265 145.499 127.859 145.28 128.591 145.28H131.455V152H130.478V149.758H128.516L127.121 152H126L127.538 149.553C127.497 149.546 127.449 149.532 127.381 149.505C127.312 149.478 127.203 149.416 127.046 149.32C126.882 149.225 126.745 149.102 126.622 148.965C126.499 148.828 126.39 148.63 126.287 148.384C126.185 148.131 126.137 147.844 126.137 147.522ZM130.478 146.189L128.591 146.196C128.14 146.196 127.784 146.319 127.518 146.565C127.251 146.812 127.121 147.133 127.121 147.522C127.121 147.919 127.251 148.233 127.518 148.479C127.777 148.726 128.14 148.849 128.591 148.849H130.478V146.189ZM134.675 148.644C134.675 149.334 134.914 149.936 135.406 150.455C135.898 150.975 136.445 151.228 137.054 151.228C137.628 151.228 138.147 150.981 138.605 150.476C139.063 149.97 139.296 149.361 139.296 148.644C139.296 147.926 139.063 147.317 138.605 146.812C138.147 146.306 137.628 146.053 137.054 146.053C136.445 146.053 135.898 146.312 135.406 146.832C134.914 147.352 134.675 147.953 134.675 148.644ZM134.675 150.947V154.946H133.697V145.287H134.675V146.34C134.688 146.312 134.723 146.265 134.771 146.21C134.818 146.155 134.914 146.06 135.064 145.923C135.215 145.786 135.372 145.663 135.55 145.554C135.721 145.444 135.939 145.349 136.213 145.267C136.486 145.185 136.767 145.144 137.054 145.144C137.908 145.144 138.66 145.485 139.303 146.176C139.945 146.859 140.273 147.687 140.273 148.644C140.273 149.601 139.952 150.428 139.31 151.111C138.667 151.795 137.915 152.137 137.054 152.137C136.767 152.137 136.486 152.096 136.22 152.014C135.953 151.932 135.728 151.836 135.55 151.72C135.365 151.61 135.208 151.494 135.071 151.378C134.935 151.262 134.839 151.159 134.771 151.077L134.675 150.947ZM146.85 152V149.061H143.001V152H142.023V145.28H143.001V148.151H146.85V145.28H147.834V152H146.85ZM155.463 148.644C155.463 147.919 155.217 147.304 154.738 146.805C154.26 146.306 153.679 146.053 153.009 146.053C152.339 146.053 151.758 146.306 151.279 146.805C150.801 147.304 150.562 147.912 150.562 148.637C150.562 149.361 150.801 149.97 151.279 150.476C151.758 150.981 152.339 151.228 153.009 151.228C153.679 151.228 154.26 150.981 154.738 150.482C155.217 149.983 155.463 149.368 155.463 148.644ZM149.584 148.644C149.584 147.659 149.912 146.832 150.582 146.155C151.252 145.479 152.059 145.137 153.016 145.137C153.966 145.137 154.772 145.479 155.436 146.155C156.105 146.832 156.434 147.659 156.434 148.644C156.434 149.628 156.105 150.455 155.436 151.132C154.772 151.802 153.966 152.144 153.016 152.144C152.059 152.144 151.252 151.802 150.582 151.132C149.912 150.455 149.584 149.628 149.584 148.644ZM164.145 149.006L158.683 148.992C158.717 149.601 158.963 150.127 159.428 150.564C159.893 151.009 160.433 151.228 161.062 151.228C161.479 151.228 161.868 151.139 162.23 150.947C162.586 150.763 162.846 150.578 162.996 150.387L163.235 150.113L163.864 150.742C163.837 150.783 163.796 150.831 163.741 150.899C163.687 150.968 163.577 151.077 163.399 151.234C163.222 151.392 163.037 151.528 162.832 151.651C162.627 151.774 162.367 151.884 162.046 151.986C161.725 152.089 161.396 152.137 161.062 152.137C160.146 152.137 159.353 151.802 158.696 151.118C158.033 150.435 157.705 149.607 157.705 148.637C157.705 147.666 158.026 146.846 158.683 146.162C159.339 145.479 160.104 145.137 160.993 145.137C161.909 145.137 162.675 145.458 163.29 146.094C163.905 146.729 164.213 147.529 164.213 148.5L164.145 149.006ZM160.993 146.053C160.405 146.053 159.893 146.265 159.455 146.675C159.018 147.092 158.758 147.584 158.683 148.151H163.235C163.16 147.55 162.914 147.044 162.497 146.647C162.08 146.251 161.581 146.053 160.993 146.053ZM2.03027 165.644C2.03027 166.334 2.26953 166.936 2.76172 167.455C3.25391 167.975 3.80078 168.228 4.40918 168.228C4.9834 168.228 5.50293 167.981 5.96094 167.476C6.41895 166.97 6.65137 166.361 6.65137 165.644C6.65137 164.926 6.41895 164.317 5.96094 163.812C5.50293 163.306 4.9834 163.053 4.40918 163.053C3.80078 163.053 3.25391 163.312 2.76172 163.832C2.26953 164.352 2.03027 164.953 2.03027 165.644ZM2.03027 167.947V171.946H1.05273V162.287H2.03027V163.34C2.04395 163.312 2.07812 163.265 2.12598 163.21C2.17383 163.155 2.26953 163.06 2.41992 162.923C2.57031 162.786 2.72754 162.663 2.90527 162.554C3.07617 162.444 3.29492 162.349 3.56836 162.267C3.8418 162.185 4.12207 162.144 4.40918 162.144C5.26367 162.144 6.01562 162.485 6.6582 163.176C7.30078 163.859 7.62891 164.687 7.62891 165.644C7.62891 166.601 7.30762 167.428 6.66504 168.111C6.02246 168.795 5.27051 169.137 4.40918 169.137C4.12207 169.137 3.8418 169.096 3.5752 169.014C3.30859 168.932 3.08301 168.836 2.90527 168.72C2.7207 168.61 2.56348 168.494 2.42676 168.378C2.29004 168.262 2.19434 168.159 2.12598 168.077L2.03027 167.947ZM15.3262 166.006L9.86426 165.992C9.89844 166.601 10.1445 167.127 10.6094 167.564C11.0742 168.009 11.6143 168.228 12.2432 168.228C12.6602 168.228 13.0498 168.139 13.4121 167.947C13.7676 167.763 14.0273 167.578 14.1777 167.387L14.417 167.113L15.0459 167.742C15.0186 167.783 14.9775 167.831 14.9229 167.899C14.8682 167.968 14.7588 168.077 14.5811 168.234C14.4033 168.392 14.2188 168.528 14.0137 168.651C13.8086 168.774 13.5488 168.884 13.2275 168.986C12.9062 169.089 12.5781 169.137 12.2432 169.137C11.3271 169.137 10.5342 168.802 9.87793 168.118C9.21484 167.435 8.88672 166.607 8.88672 165.637C8.88672 164.666 9.20801 163.846 9.86426 163.162C10.5205 162.479 11.2861 162.137 12.1748 162.137C13.0908 162.137 13.8564 162.458 14.4717 163.094C15.0869 163.729 15.3945 164.529 15.3945 165.5L15.3262 166.006ZM12.1748 163.053C11.5869 163.053 11.0742 163.265 10.6367 163.675C10.1992 164.092 9.93945 164.584 9.86426 165.151H14.417C14.3418 164.55 14.0957 164.044 13.6787 163.647C13.2617 163.251 12.7627 163.053 12.1748 163.053ZM23.0234 164.03L20.5693 167.113L18.1221 164.03V169H17.1445V162.28H17.9102L20.5693 165.637L23.2285 162.28H24.001V169H23.0234V164.03ZM32.1973 166.006L26.7354 165.992C26.7695 166.601 27.0156 167.127 27.4805 167.564C27.9453 168.009 28.4854 168.228 29.1143 168.228C29.5312 168.228 29.9209 168.139 30.2832 167.947C30.6387 167.763 30.8984 167.578 31.0488 167.387L31.2881 167.113L31.917 167.742C31.8896 167.783 31.8486 167.831 31.7939 167.899C31.7393 167.968 31.6299 168.077 31.4521 168.234C31.2744 168.392 31.0898 168.528 30.8848 168.651C30.6797 168.774 30.4199 168.884 30.0986 168.986C29.7773 169.089 29.4492 169.137 29.1143 169.137C28.1982 169.137 27.4053 168.802 26.749 168.118C26.0859 167.435 25.7578 166.607 25.7578 165.637C25.7578 164.666 26.0791 163.846 26.7354 163.162C27.3916 162.479 28.1572 162.137 29.0459 162.137C29.9619 162.137 30.7275 162.458 31.3428 163.094C31.958 163.729 32.2656 164.529 32.2656 165.5L32.1973 166.006ZM29.0459 163.053C28.458 163.053 27.9453 163.265 27.5078 163.675C27.0703 164.092 26.8105 164.584 26.7354 165.151H31.2881C31.2129 164.55 30.9668 164.044 30.5498 163.647C30.1328 163.251 29.6338 163.053 29.0459 163.053ZM33.5234 165.637C33.5234 164.666 33.8516 163.846 34.5146 163.162C35.1777 162.479 35.9639 162.137 36.873 162.137C37.3994 162.137 37.8916 162.253 38.3428 162.479C38.7939 162.704 39.1221 162.93 39.3135 163.148L39.6074 163.47L38.9033 164.167C38.8896 164.14 38.8623 164.105 38.8213 164.051C38.7871 164.003 38.7051 163.914 38.582 163.777C38.459 163.647 38.3223 163.531 38.1787 163.436C38.0283 163.34 37.8438 163.251 37.6113 163.169C37.3789 163.094 37.1328 163.053 36.8799 163.053C36.2373 163.053 35.6768 163.306 35.2051 163.805C34.7334 164.304 34.501 164.919 34.501 165.644C34.501 166.368 34.7334 166.983 35.2051 167.482C35.6768 167.981 36.2373 168.228 36.8799 168.228C37.2695 168.228 37.6387 168.139 37.9941 167.947C38.3428 167.763 38.5957 167.578 38.7529 167.387L38.9785 167.113L39.6758 167.742C39.6484 167.783 39.6074 167.831 39.5527 167.899C39.498 167.968 39.375 168.077 39.1904 168.234C39.0127 168.392 38.8213 168.528 38.6162 168.651C38.418 168.774 38.1582 168.884 37.8438 168.986C37.5293 169.089 37.208 169.137 36.8799 169.137C35.9639 169.137 35.1709 168.802 34.5146 168.118C33.8516 167.435 33.5234 166.607 33.5234 165.637ZM41.918 162.28L46.8193 162.287V169.007H45.835V163.196H42.8955V164.249C42.8955 165.233 42.8408 166.061 42.7451 166.717C42.6494 167.373 42.499 167.879 42.3076 168.221C42.1094 168.562 41.8906 168.802 41.6582 168.938C41.4189 169.075 41.1318 169.144 40.7969 169.144C40.6807 169.144 40.5645 169.13 40.4482 169.109C40.332 169.082 40.25 169.062 40.1953 169.034L40.0996 169.007V168.029C40.2842 168.118 40.4688 168.166 40.6602 168.166C40.9473 168.166 41.1729 168.084 41.3369 167.92C41.501 167.756 41.6377 167.373 41.7471 166.785C41.8564 166.19 41.918 165.343 41.918 164.242V162.28ZM54.4414 165.644C54.4414 164.919 54.1953 164.304 53.7168 163.805C53.2383 163.306 52.6572 163.053 51.9873 163.053C51.3174 163.053 50.7363 163.306 50.2578 163.805C49.7793 164.304 49.54 164.912 49.54 165.637C49.54 166.361 49.7793 166.97 50.2578 167.476C50.7363 167.981 51.3174 168.228 51.9873 168.228C52.6572 168.228 53.2383 167.981 53.7168 167.482C54.1953 166.983 54.4414 166.368 54.4414 165.644ZM48.5625 165.644C48.5625 164.659 48.8906 163.832 49.5605 163.155C50.2305 162.479 51.0371 162.137 51.9941 162.137C52.9443 162.137 53.751 162.479 54.4141 163.155C55.084 163.832 55.4121 164.659 55.4121 165.644C55.4121 166.628 55.084 167.455 54.4141 168.132C53.751 168.802 52.9443 169.144 51.9941 169.144C51.0371 169.144 50.2305 168.802 49.5605 168.132C48.8906 167.455 48.5625 166.628 48.5625 165.644Z" fill="#111111"/>
</svg>
