<svg width="263" height="121" viewBox="0 0 263 121" fill="none" xmlns="http://www.w3.org/2000/svg">
<path d="M0.90918 10.2197V0.416992H1.96191V4.75781H7.41699V0.416992H8.46973V10.2197H7.41699V5.74219H1.96191V10.2197H0.90918ZM12.4619 6.37109L15.0527 5.94727C15.0527 5.45508 14.8955 5.05176 14.5811 4.7373C14.2666 4.42969 13.8633 4.27246 13.3711 4.27246C13.0156 4.27246 12.6807 4.35449 12.3662 4.51855C12.0518 4.68262 11.8262 4.84668 11.6895 5.01074L11.4775 5.25L10.8486 4.62109C10.876 4.58691 10.9102 4.53906 10.958 4.48438C11.0059 4.42969 11.1084 4.32715 11.2725 4.18359C11.4365 4.04004 11.6074 3.91016 11.7852 3.79395C11.9629 3.68457 12.1953 3.58203 12.4824 3.49316C12.7695 3.4043 13.0703 3.35645 13.3711 3.35645C14.1367 3.35645 14.7656 3.60938 15.2715 4.10156C15.7773 4.60059 16.0303 5.21582 16.0303 5.94727V10.2197H15.0527V9.31055C15.0322 9.33789 15.0049 9.37891 14.9639 9.42676C14.9229 9.47461 14.8408 9.55664 14.7041 9.67969C14.5674 9.80273 14.4238 9.90527 14.2734 10.001C14.1162 10.0967 13.9111 10.1787 13.6582 10.2471C13.4053 10.3223 13.1455 10.3564 12.8789 10.3564C12.209 10.3564 11.6416 10.1582 11.1836 9.76172C10.7256 9.36523 10.5 8.91406 10.5 8.40137C10.5 7.84082 10.6641 7.38965 11.0059 7.04785C11.3408 6.70605 11.8262 6.48047 12.4619 6.37109ZM12.8789 9.44727C13.5078 9.44727 14.0273 9.24219 14.4375 8.8252C14.8477 8.41504 15.0527 7.875 15.0527 7.21191V6.78809L12.7422 7.21191C11.9014 7.37598 11.4775 7.77246 11.4775 8.40137C11.4775 8.70215 11.6006 8.95508 11.8467 9.15332C12.0928 9.35156 12.4414 9.44727 12.8789 9.44727ZM26.3184 6.85645C26.3184 7.82715 25.9834 8.6543 25.3203 9.33789C24.6572 10.0215 23.8711 10.3633 22.9619 10.3633C22.6338 10.3633 22.3125 10.3086 21.998 10.2129C21.6836 10.1172 21.4238 10.001 21.2051 9.86426C20.9863 9.72754 20.8018 9.59766 20.6377 9.46094C20.4736 9.32422 20.3506 9.20801 20.2686 9.10547L20.1592 8.96875L20.8564 8.33984C20.8701 8.36719 20.9043 8.40137 20.9453 8.45605C20.9863 8.50391 21.0752 8.59277 21.2119 8.72266C21.3486 8.85938 21.4922 8.97559 21.6426 9.07129C21.793 9.16699 21.9844 9.25586 22.2236 9.33105C22.4561 9.41309 22.7021 9.44727 22.9619 9.44727C23.5498 9.44727 24.0693 9.22852 24.5342 8.78418C24.9922 8.34668 25.2588 7.82031 25.3408 7.21191H21.9775V6.30273H25.2656C25.1904 5.7627 24.9307 5.29102 24.4932 4.88086C24.0488 4.47754 23.5361 4.27246 22.9619 4.27246C22.709 4.27246 22.4697 4.31348 22.2373 4.38184C22.0049 4.45703 21.8135 4.55273 21.6562 4.66211C21.5059 4.77832 21.3691 4.89453 21.2529 5.00391C21.1367 5.11328 21.0479 5.20898 20.9932 5.27734L20.9248 5.38672L20.2207 4.68945C20.248 4.65527 20.2891 4.60742 20.3438 4.5459C20.3984 4.48438 20.5078 4.38184 20.6787 4.23145C20.8564 4.08105 21.041 3.95117 21.2324 3.82812C21.4307 3.71191 21.6836 3.60254 21.998 3.50684C22.3125 3.41113 22.6338 3.35645 22.9619 3.35645C23.8779 3.35645 24.6641 3.69824 25.3271 4.38184C25.9834 5.06543 26.3184 5.88574 26.3184 6.85645ZM27.2275 4.40918V3.5H32.9629V4.40918H30.584V10.2197H29.6064V4.40918H27.2275ZM39.7578 6.86328C39.7578 6.13867 39.5117 5.52344 39.0332 5.02441C38.5547 4.52539 37.9736 4.27246 37.3037 4.27246C36.6338 4.27246 36.0527 4.52539 35.5742 5.02441C35.0957 5.52344 34.8564 6.13184 34.8564 6.85645C34.8564 7.58105 35.0957 8.18945 35.5742 8.69531C36.0527 9.20117 36.6338 9.44727 37.3037 9.44727C37.9736 9.44727 38.5547 9.20117 39.0332 8.70215C39.5117 8.20312 39.7578 7.58789 39.7578 6.86328ZM33.8789 6.86328C33.8789 5.87891 34.207 5.05176 34.877 4.375C35.5469 3.69824 36.3535 3.35645 37.3105 3.35645C38.2607 3.35645 39.0674 3.69824 39.7305 4.375C40.4004 5.05176 40.7285 5.87891 40.7285 6.86328C40.7285 7.84766 40.4004 8.6748 39.7305 9.35156C39.0674 10.0215 38.2607 10.3633 37.3105 10.3633C36.3535 10.3633 35.5469 10.0215 34.877 9.35156C34.207 8.6748 33.8789 7.84766 33.8789 6.86328ZM48.3711 5.25L45.917 8.33301L43.4697 5.25V10.2197H42.4922V3.5H43.2578L45.917 6.85645L48.5762 3.5H49.3486V10.2197H48.3711V5.25ZM53.7715 6.85645C53.7715 5.88574 54.0996 5.06543 54.7627 4.38184C55.4258 3.69824 56.2119 3.35645 57.1211 3.35645C57.6475 3.35645 58.1396 3.47266 58.5908 3.69824C59.042 3.92383 59.3701 4.14941 59.5615 4.36816L59.8555 4.68945L59.1514 5.38672C59.1377 5.35938 59.1104 5.3252 59.0693 5.27051C59.0352 5.22266 58.9531 5.13379 58.8301 4.99707C58.707 4.86719 58.5703 4.75098 58.4268 4.65527C58.2764 4.55957 58.0918 4.4707 57.8594 4.38867C57.627 4.31348 57.3809 4.27246 57.1279 4.27246C56.4854 4.27246 55.9248 4.52539 55.4531 5.02441C54.9814 5.52344 54.749 6.13867 54.749 6.86328C54.749 7.58789 54.9814 8.20312 55.4531 8.70215C55.9248 9.20117 56.4854 9.44727 57.1279 9.44727C57.5176 9.44727 57.8867 9.3584 58.2422 9.16699C58.5908 8.98242 58.8438 8.79785 59.001 8.60645L59.2266 8.33301L59.9238 8.96191C59.8965 9.00293 59.8555 9.05078 59.8008 9.11914C59.7461 9.1875 59.623 9.29688 59.4385 9.4541C59.2607 9.61133 59.0693 9.74805 58.8643 9.87109C58.666 9.99414 58.4062 10.1035 58.0918 10.2061C57.7773 10.3086 57.4561 10.3564 57.1279 10.3564C56.2119 10.3564 55.4189 10.0215 54.7627 9.33789C54.0996 8.6543 53.7715 7.82715 53.7715 6.85645ZM62.9385 6.37109L65.5293 5.94727C65.5293 5.45508 65.3721 5.05176 65.0576 4.7373C64.7432 4.42969 64.3398 4.27246 63.8477 4.27246C63.4922 4.27246 63.1572 4.35449 62.8428 4.51855C62.5283 4.68262 62.3027 4.84668 62.166 5.01074L61.9541 5.25L61.3252 4.62109C61.3525 4.58691 61.3867 4.53906 61.4346 4.48438C61.4824 4.42969 61.585 4.32715 61.749 4.18359C61.9131 4.04004 62.084 3.91016 62.2617 3.79395C62.4395 3.68457 62.6719 3.58203 62.959 3.49316C63.2461 3.4043 63.5469 3.35645 63.8477 3.35645C64.6133 3.35645 65.2422 3.60938 65.748 4.10156C66.2539 4.60059 66.5068 5.21582 66.5068 5.94727V10.2197H65.5293V9.31055C65.5088 9.33789 65.4814 9.37891 65.4404 9.42676C65.3994 9.47461 65.3174 9.55664 65.1807 9.67969C65.0439 9.80273 64.9004 9.90527 64.75 10.001C64.5928 10.0967 64.3877 10.1787 64.1348 10.2471C63.8818 10.3223 63.6221 10.3564 63.3555 10.3564C62.6855 10.3564 62.1182 10.1582 61.6602 9.76172C61.2021 9.36523 60.9766 8.91406 60.9766 8.40137C60.9766 7.84082 61.1406 7.38965 61.4824 7.04785C61.8174 6.70605 62.3027 6.48047 62.9385 6.37109ZM63.3555 9.44727C63.9844 9.44727 64.5039 9.24219 64.9141 8.8252C65.3242 8.41504 65.5293 7.875 65.5293 7.21191V6.78809L63.2188 7.21191C62.3779 7.37598 61.9541 7.77246 61.9541 8.40137C61.9541 8.70215 62.0771 8.95508 62.3232 9.15332C62.5693 9.35156 62.918 9.44727 63.3555 9.44727ZM71.6816 1.60645C72.0371 1.60645 72.3105 1.50391 72.5088 1.29883C72.7002 1.09375 72.8027 0.799805 72.8027 0.416992H73.5684C73.5684 0.977539 73.3906 1.43555 73.042 1.78418C72.6934 2.13965 72.2422 2.31055 71.6816 2.31055C71.1211 2.31055 70.6631 2.13965 70.3145 1.78418C69.959 1.43555 69.7881 0.977539 69.7881 0.416992H70.5605C70.5605 0.799805 70.6562 1.09375 70.8545 1.29883C71.0459 1.50391 71.3262 1.60645 71.6816 1.60645ZM73.7803 3.5H74.6211V10.2197H73.6367V5.18164L69.5762 10.2197H68.7422V3.5H69.7197V8.53809L73.7803 3.5ZM76.0225 4.40918V3.5H81.7578V4.40918H79.3789V10.2197H78.4014V4.40918H76.0225ZM89.1133 7.22559L83.6514 7.21191C83.6855 7.82031 83.9316 8.34668 84.3965 8.78418C84.8613 9.22852 85.4014 9.44727 86.0303 9.44727C86.4473 9.44727 86.8369 9.3584 87.1992 9.16699C87.5547 8.98242 87.8145 8.79785 87.9648 8.60645L88.2041 8.33301L88.833 8.96191C88.8057 9.00293 88.7646 9.05078 88.71 9.11914C88.6553 9.1875 88.5459 9.29688 88.3682 9.4541C88.1904 9.61133 88.0059 9.74805 87.8008 9.87109C87.5957 9.99414 87.3359 10.1035 87.0146 10.2061C86.6934 10.3086 86.3652 10.3564 86.0303 10.3564C85.1143 10.3564 84.3213 10.0215 83.665 9.33789C83.002 8.6543 82.6738 7.82715 82.6738 6.85645C82.6738 5.88574 82.9951 5.06543 83.6514 4.38184C84.3076 3.69824 85.0732 3.35645 85.9619 3.35645C86.8779 3.35645 87.6436 3.67773 88.2588 4.31348C88.874 4.94922 89.1816 5.74902 89.1816 6.71973L89.1133 7.22559ZM85.9619 4.27246C85.374 4.27246 84.8613 4.48438 84.4238 4.89453C83.9863 5.31152 83.7266 5.80371 83.6514 6.37109H88.2041C88.1289 5.76953 87.8828 5.26367 87.4658 4.86719C87.0488 4.4707 86.5498 4.27246 85.9619 4.27246ZM93.5977 3.5H96.6738C97.2891 3.5 97.7812 3.6709 98.1504 3.99902C98.5195 4.32715 98.7041 4.74414 98.7041 5.25C98.7041 5.53711 98.6289 5.80371 98.4922 6.03613C98.3555 6.26855 98.2119 6.43262 98.0752 6.52148L97.8633 6.65137C97.8906 6.66504 97.9248 6.67871 97.9795 6.69238C98.0342 6.71289 98.123 6.76074 98.2529 6.84277C98.3828 6.9248 98.499 7.01367 98.5947 7.12305C98.6904 7.23242 98.7793 7.38281 98.8613 7.58105C98.9434 7.78613 98.9844 8.01172 98.9844 8.25781C98.9844 8.86621 98.793 9.34473 98.417 9.69336C98.0342 10.0488 97.501 10.2197 96.8174 10.2197H93.5977V3.5ZM96.8174 7.06836H94.5752V9.31055H96.8174C97.2002 9.31055 97.4941 9.21484 97.6992 9.0166C97.9043 8.8252 98.0068 8.54492 98.0068 8.18945C98.0068 7.83398 97.9043 7.56055 97.6992 7.3623C97.4941 7.1709 97.2002 7.06836 96.8174 7.06836ZM97.7266 5.31836C97.7266 4.7168 97.3711 4.40918 96.6738 4.40918H94.5752V6.22754H96.6738C97.3711 6.22754 97.7266 5.92676 97.7266 5.31836ZM108.22 3.5V10.2197H107.235V3.5H108.22ZM101.849 9.31055H103.544C103.981 9.31055 104.33 9.1875 104.597 8.94141C104.863 8.69531 105 8.37402 105 7.97754C105 7.58789 104.863 7.2666 104.597 7.02051C104.33 6.77441 103.975 6.65137 103.53 6.65137H101.849V9.31055ZM105.978 7.98438C105.978 8.6543 105.759 9.19434 105.328 9.60449C104.891 10.0146 104.296 10.2197 103.544 10.2197H100.871V3.5H101.849V5.74219H103.53C104.282 5.74219 104.884 5.94727 105.321 6.35742C105.759 6.76758 105.978 7.31445 105.978 7.98438ZM119 5.25L116.546 8.33301L114.099 5.25V10.2197H113.121V3.5H113.887L116.546 6.85645L119.205 3.5H119.978V10.2197H119V5.25ZM127.613 6.86328C127.613 6.13867 127.367 5.52344 126.889 5.02441C126.41 4.52539 125.829 4.27246 125.159 4.27246C124.489 4.27246 123.908 4.52539 123.43 5.02441C122.951 5.52344 122.712 6.13184 122.712 6.85645C122.712 7.58105 122.951 8.18945 123.43 8.69531C123.908 9.20117 124.489 9.44727 125.159 9.44727C125.829 9.44727 126.41 9.20117 126.889 8.70215C127.367 8.20312 127.613 7.58789 127.613 6.86328ZM121.734 6.86328C121.734 5.87891 122.062 5.05176 122.732 4.375C123.402 3.69824 124.209 3.35645 125.166 3.35645C126.116 3.35645 126.923 3.69824 127.586 4.375C128.256 5.05176 128.584 5.87891 128.584 6.86328C128.584 7.84766 128.256 8.6748 127.586 9.35156C126.923 10.0215 126.116 10.3633 125.166 10.3633C124.209 10.3633 123.402 10.0215 122.732 9.35156C122.062 8.6748 121.734 7.84766 121.734 6.86328ZM133.561 7.97754L132.576 6.93164L130.197 10.2197H129.076L131.947 6.22754L129.356 3.5H130.546L133.561 6.71973V3.5H134.538V6.71973L137.546 3.5H138.735L136.145 6.22754L139.016 10.2197H137.895L135.516 6.93164L134.538 7.97754V10.2197H133.561V7.97754ZM146.234 7.22559L140.772 7.21191C140.807 7.82031 141.053 8.34668 141.518 8.78418C141.982 9.22852 142.522 9.44727 143.151 9.44727C143.568 9.44727 143.958 9.3584 144.32 9.16699C144.676 8.98242 144.936 8.79785 145.086 8.60645L145.325 8.33301L145.954 8.96191C145.927 9.00293 145.886 9.05078 145.831 9.11914C145.776 9.1875 145.667 9.29688 145.489 9.4541C145.312 9.61133 145.127 9.74805 144.922 9.87109C144.717 9.99414 144.457 10.1035 144.136 10.2061C143.814 10.3086 143.486 10.3564 143.151 10.3564C142.235 10.3564 141.442 10.0215 140.786 9.33789C140.123 8.6543 139.795 7.82715 139.795 6.85645C139.795 5.88574 140.116 5.06543 140.772 4.38184C141.429 3.69824 142.194 3.35645 143.083 3.35645C143.999 3.35645 144.765 3.67773 145.38 4.31348C145.995 4.94922 146.303 5.74902 146.303 6.71973L146.234 7.22559ZM143.083 4.27246C142.495 4.27246 141.982 4.48438 141.545 4.89453C141.107 5.31152 140.848 5.80371 140.772 6.37109H145.325C145.25 5.76953 145.004 5.26367 144.587 4.86719C144.17 4.4707 143.671 4.27246 143.083 4.27246ZM147.212 4.40918V3.5H152.947V4.40918H150.568V10.2197H149.591V4.40918H147.212ZM160.303 7.22559L154.841 7.21191C154.875 7.82031 155.121 8.34668 155.586 8.78418C156.051 9.22852 156.591 9.44727 157.22 9.44727C157.637 9.44727 158.026 9.3584 158.389 9.16699C158.744 8.98242 159.004 8.79785 159.154 8.60645L159.394 8.33301L160.022 8.96191C159.995 9.00293 159.954 9.05078 159.899 9.11914C159.845 9.1875 159.735 9.29688 159.558 9.4541C159.38 9.61133 159.195 9.74805 158.99 9.87109C158.785 9.99414 158.525 10.1035 158.204 10.2061C157.883 10.3086 157.555 10.3564 157.22 10.3564C156.304 10.3564 155.511 10.0215 154.854 9.33789C154.191 8.6543 153.863 7.82715 153.863 6.85645C153.863 5.88574 154.185 5.06543 154.841 4.38184C155.497 3.69824 156.263 3.35645 157.151 3.35645C158.067 3.35645 158.833 3.67773 159.448 4.31348C160.063 4.94922 160.371 5.74902 160.371 6.71973L160.303 7.22559ZM157.151 4.27246C156.563 4.27246 156.051 4.48438 155.613 4.89453C155.176 5.31152 154.916 5.80371 154.841 6.37109H159.394C159.318 5.76953 159.072 5.26367 158.655 4.86719C158.238 4.4707 157.739 4.27246 157.151 4.27246ZM169.613 10.2197V4.42285H165.765V10.2197H164.787V3.5H170.598V10.2197H169.613ZM173.817 6.86328C173.817 7.55371 174.057 8.15527 174.549 8.6748C175.041 9.19434 175.588 9.44727 176.196 9.44727C176.771 9.44727 177.29 9.20117 177.748 8.69531C178.206 8.18945 178.438 7.58105 178.438 6.86328C178.438 6.14551 178.206 5.53711 177.748 5.03125C177.29 4.52539 176.771 4.27246 176.196 4.27246C175.588 4.27246 175.041 4.53223 174.549 5.05176C174.057 5.57129 173.817 6.17285 173.817 6.86328ZM173.817 9.16699V13.166H172.84V3.50684H173.817V4.55957C173.831 4.53223 173.865 4.48438 173.913 4.42969C173.961 4.375 174.057 4.2793 174.207 4.14258C174.357 4.00586 174.515 3.88281 174.692 3.77344C174.863 3.66406 175.082 3.56836 175.355 3.48633C175.629 3.4043 175.909 3.36328 176.196 3.36328C177.051 3.36328 177.803 3.70508 178.445 4.39551C179.088 5.0791 179.416 5.90625 179.416 6.86328C179.416 7.82031 179.095 8.64746 178.452 9.33105C177.81 10.0146 177.058 10.3564 176.196 10.3564C175.909 10.3564 175.629 10.3154 175.362 10.2334C175.096 10.1514 174.87 10.0557 174.692 9.93945C174.508 9.83008 174.351 9.71387 174.214 9.59766C174.077 9.48145 173.981 9.37891 173.913 9.29688L173.817 9.16699ZM186.204 3.5H187.045V10.2197H186.061V5.18164L182 10.2197H181.166V3.5H182.144V8.53809L186.204 3.5ZM194.674 6.86328C194.674 6.13867 194.428 5.52344 193.949 5.02441C193.471 4.52539 192.89 4.27246 192.22 4.27246C191.55 4.27246 190.969 4.52539 190.49 5.02441C190.012 5.52344 189.772 6.13184 189.772 6.85645C189.772 7.58105 190.012 8.18945 190.49 8.69531C190.969 9.20117 191.55 9.44727 192.22 9.44727C192.89 9.44727 193.471 9.20117 193.949 8.70215C194.428 8.20312 194.674 7.58789 194.674 6.86328ZM188.795 6.86328C188.795 5.87891 189.123 5.05176 189.793 4.375C190.463 3.69824 191.27 3.35645 192.227 3.35645C193.177 3.35645 193.983 3.69824 194.646 4.375C195.316 5.05176 195.645 5.87891 195.645 6.86328C195.645 7.84766 195.316 8.6748 194.646 9.35156C193.983 10.0215 193.177 10.3633 192.227 10.3633C191.27 10.3633 190.463 10.0215 189.793 9.35156C189.123 8.6748 188.795 7.84766 188.795 6.86328ZM203.772 7C203.772 7.94336 203.451 8.74316 202.815 9.38574C202.173 10.0352 201.4 10.3564 200.484 10.3564C199.493 10.3564 198.687 9.98047 198.064 9.22852C197.436 8.47656 197.128 7.40332 197.128 6.02246C197.128 2.93262 198.27 1.18262 200.553 0.772461C201.045 0.69043 201.489 0.587891 201.879 0.451172C202.262 0.321289 202.521 0.211914 202.658 0.123047L202.863 0L203.355 0.772461C202.979 1.10059 202.091 1.4082 200.696 1.68164C199.958 1.83203 199.356 2.1875 198.905 2.73438C198.454 3.28125 198.208 4.02637 198.174 4.96973C198.188 4.93555 198.222 4.8877 198.263 4.82617C198.304 4.76465 198.399 4.66211 198.543 4.51172C198.687 4.36133 198.844 4.23145 199.021 4.1084C199.192 3.99219 199.418 3.88281 199.691 3.78711C199.965 3.69141 200.252 3.63672 200.553 3.63672C201.441 3.63672 202.2 3.96484 202.829 4.62109C203.458 5.27734 203.772 6.07031 203.772 7ZM198.174 7C198.174 7.69727 198.399 8.27832 198.851 8.74316C199.302 9.21484 199.849 9.44727 200.484 9.44727C201.113 9.44727 201.66 9.21484 202.111 8.74316C202.562 8.27832 202.795 7.69727 202.795 7C202.795 6.30957 202.562 5.72852 202.111 5.25684C201.66 4.79199 201.113 4.55273 200.484 4.55273C199.849 4.55273 199.302 4.79199 198.851 5.25684C198.399 5.72852 198.174 6.30957 198.174 7ZM206.575 6.86328C206.575 7.55371 206.814 8.15527 207.307 8.6748C207.799 9.19434 208.346 9.44727 208.954 9.44727C209.528 9.44727 210.048 9.20117 210.506 8.69531C210.964 8.18945 211.196 7.58105 211.196 6.86328C211.196 6.14551 210.964 5.53711 210.506 5.03125C210.048 4.52539 209.528 4.27246 208.954 4.27246C208.346 4.27246 207.799 4.53223 207.307 5.05176C206.814 5.57129 206.575 6.17285 206.575 6.86328ZM206.575 9.16699V13.166H205.598V3.50684H206.575V4.55957C206.589 4.53223 206.623 4.48438 206.671 4.42969C206.719 4.375 206.814 4.2793 206.965 4.14258C207.115 4.00586 207.272 3.88281 207.45 3.77344C207.621 3.66406 207.84 3.56836 208.113 3.48633C208.387 3.4043 208.667 3.36328 208.954 3.36328C209.809 3.36328 210.561 3.70508 211.203 4.39551C211.846 5.0791 212.174 5.90625 212.174 6.86328C212.174 7.82031 211.853 8.64746 211.21 9.33105C210.567 10.0146 209.815 10.3564 208.954 10.3564C208.667 10.3564 208.387 10.3154 208.12 10.2334C207.854 10.1514 207.628 10.0557 207.45 9.93945C207.266 9.83008 207.108 9.71387 206.972 9.59766C206.835 9.48145 206.739 9.37891 206.671 9.29688L206.575 9.16699ZM219.871 7.22559L214.409 7.21191C214.443 7.82031 214.689 8.34668 215.154 8.78418C215.619 9.22852 216.159 9.44727 216.788 9.44727C217.205 9.44727 217.595 9.3584 217.957 9.16699C218.312 8.98242 218.572 8.79785 218.723 8.60645L218.962 8.33301L219.591 8.96191C219.563 9.00293 219.522 9.05078 219.468 9.11914C219.413 9.1875 219.304 9.29688 219.126 9.4541C218.948 9.61133 218.764 9.74805 218.559 9.87109C218.354 9.99414 218.094 10.1035 217.772 10.2061C217.451 10.3086 217.123 10.3564 216.788 10.3564C215.872 10.3564 215.079 10.0215 214.423 9.33789C213.76 8.6543 213.432 7.82715 213.432 6.85645C213.432 5.88574 213.753 5.06543 214.409 4.38184C215.065 3.69824 215.831 3.35645 216.72 3.35645C217.636 3.35645 218.401 3.67773 219.017 4.31348C219.632 4.94922 219.939 5.74902 219.939 6.71973L219.871 7.22559ZM216.72 4.27246C216.132 4.27246 215.619 4.48438 215.182 4.89453C214.744 5.31152 214.484 5.80371 214.409 6.37109H218.962C218.887 5.76953 218.641 5.26367 218.224 4.86719C217.807 4.4707 217.308 4.27246 216.72 4.27246ZM221.197 6.85645C221.197 5.88574 221.525 5.06543 222.188 4.38184C222.852 3.69824 223.638 3.35645 224.547 3.35645C225.073 3.35645 225.565 3.47266 226.017 3.69824C226.468 3.92383 226.796 4.14941 226.987 4.36816L227.281 4.68945L226.577 5.38672C226.563 5.35938 226.536 5.3252 226.495 5.27051C226.461 5.22266 226.379 5.13379 226.256 4.99707C226.133 4.86719 225.996 4.75098 225.853 4.65527C225.702 4.55957 225.518 4.4707 225.285 4.38867C225.053 4.31348 224.807 4.27246 224.554 4.27246C223.911 4.27246 223.351 4.52539 222.879 5.02441C222.407 5.52344 222.175 6.13867 222.175 6.86328C222.175 7.58789 222.407 8.20312 222.879 8.70215C223.351 9.20117 223.911 9.44727 224.554 9.44727C224.943 9.44727 225.312 9.3584 225.668 9.16699C226.017 8.98242 226.27 8.79785 226.427 8.60645L226.652 8.33301L227.35 8.96191C227.322 9.00293 227.281 9.05078 227.227 9.11914C227.172 9.1875 227.049 9.29688 226.864 9.4541C226.687 9.61133 226.495 9.74805 226.29 9.87109C226.092 9.99414 225.832 10.1035 225.518 10.2061C225.203 10.3086 224.882 10.3564 224.554 10.3564C223.638 10.3564 222.845 10.0215 222.188 9.33789C221.525 8.6543 221.197 7.82715 221.197 6.85645ZM228.054 4.40918V3.5H233.789V4.40918H231.41V10.2197H230.433V4.40918H228.054ZM240.235 3.5H241.076V10.2197H240.092V5.18164L236.031 10.2197H235.197V3.5H236.175V8.53809L240.235 3.5ZM5.31836 34.2197V28.4229H1.46973V34.2197H0.492188V27.5H6.30273V34.2197H5.31836ZM9.52246 30.8633C9.52246 31.5537 9.76172 32.1553 10.2539 32.6748C10.7461 33.1943 11.293 33.4473 11.9014 33.4473C12.4756 33.4473 12.9951 33.2012 13.4531 32.6953C13.9111 32.1895 14.1436 31.5811 14.1436 30.8633C14.1436 30.1455 13.9111 29.5371 13.4531 29.0312C12.9951 28.5254 12.4756 28.2725 11.9014 28.2725C11.293 28.2725 10.7461 28.5322 10.2539 29.0518C9.76172 29.5713 9.52246 30.1729 9.52246 30.8633ZM9.52246 33.167V37.166H8.54492V27.5068H9.52246V28.5596C9.53613 28.5322 9.57031 28.4844 9.61816 28.4297C9.66602 28.375 9.76172 28.2793 9.91211 28.1426C10.0625 28.0059 10.2197 27.8828 10.3975 27.7734C10.5684 27.6641 10.7871 27.5684 11.0605 27.4863C11.334 27.4043 11.6143 27.3633 11.9014 27.3633C12.7559 27.3633 13.5078 27.7051 14.1504 28.3955C14.793 29.0791 15.1211 29.9062 15.1211 30.8633C15.1211 31.8203 14.7998 32.6475 14.1572 33.3311C13.5146 34.0146 12.7627 34.3564 11.9014 34.3564C11.6143 34.3564 11.334 34.3154 11.0674 34.2334C10.8008 34.1514 10.5752 34.0557 10.3975 33.9395C10.2129 33.8301 10.0557 33.7139 9.91895 33.5977C9.78223 33.4814 9.68652 33.3789 9.61816 33.2969L9.52246 33.167ZM22.8184 31.2256L17.3564 31.2119C17.3906 31.8203 17.6367 32.3467 18.1016 32.7842C18.5664 33.2285 19.1064 33.4473 19.7354 33.4473C20.1523 33.4473 20.542 33.3584 20.9043 33.167C21.2598 32.9824 21.5195 32.7979 21.6699 32.6064L21.9092 32.333L22.5381 32.9619C22.5107 33.0029 22.4697 33.0508 22.415 33.1191C22.3604 33.1875 22.251 33.2969 22.0732 33.4541C21.8955 33.6113 21.7109 33.748 21.5059 33.8711C21.3008 33.9941 21.041 34.1035 20.7197 34.2061C20.3984 34.3086 20.0703 34.3564 19.7354 34.3564C18.8193 34.3564 18.0264 34.0215 17.3701 33.3379C16.707 32.6543 16.3789 31.8271 16.3789 30.8564C16.3789 29.8857 16.7002 29.0654 17.3564 28.3818C18.0127 27.6982 18.7783 27.3564 19.667 27.3564C20.583 27.3564 21.3486 27.6777 21.9639 28.3135C22.5791 28.9492 22.8867 29.749 22.8867 30.7197L22.8184 31.2256ZM19.667 28.2725C19.0791 28.2725 18.5664 28.4844 18.1289 28.8945C17.6914 29.3115 17.4316 29.8037 17.3564 30.3711H21.9092C21.834 29.7695 21.5879 29.2637 21.1709 28.8672C20.7539 28.4707 20.2549 28.2725 19.667 28.2725ZM30.8643 33.3105V35.9014H29.8867V34.2197H24.4932V35.9014H23.5156V33.3105H24.001C24.0283 33.2832 24.0693 33.2422 24.124 33.1738C24.1787 33.1055 24.2812 32.9551 24.418 32.7227C24.5547 32.4902 24.6709 32.2441 24.7803 31.9707C24.8896 31.6973 24.9854 31.335 25.0674 30.8838C25.1494 30.4326 25.1973 29.9541 25.1973 29.4619V27.5H29.8115V33.3105H30.8643ZM26.1748 28.4092L26.168 29.4619C26.168 30.2275 26.0791 30.9316 25.8877 31.5674C25.7031 32.21 25.5186 32.6611 25.334 32.9209L25.0537 33.3105H28.834V28.4092H26.1748ZM38.2812 29.25L35.8271 32.333L33.3799 29.25V34.2197H32.4023V27.5H33.168L35.8271 30.8564L38.4863 27.5H39.2588V34.2197H38.2812V29.25ZM47.4551 31.2256L41.9932 31.2119C42.0273 31.8203 42.2734 32.3467 42.7383 32.7842C43.2031 33.2285 43.7432 33.4473 44.3721 33.4473C44.7891 33.4473 45.1787 33.3584 45.541 33.167C45.8965 32.9824 46.1562 32.7979 46.3066 32.6064L46.5459 32.333L47.1748 32.9619C47.1475 33.0029 47.1064 33.0508 47.0518 33.1191C46.9971 33.1875 46.8877 33.2969 46.71 33.4541C46.5322 33.6113 46.3477 33.748 46.1426 33.8711C45.9375 33.9941 45.6777 34.1035 45.3564 34.2061C45.0352 34.3086 44.707 34.3564 44.3721 34.3564C43.4561 34.3564 42.6631 34.0215 42.0068 33.3379C41.3438 32.6543 41.0156 31.8271 41.0156 30.8564C41.0156 29.8857 41.3369 29.0654 41.9932 28.3818C42.6494 27.6982 43.415 27.3564 44.3037 27.3564C45.2197 27.3564 45.9854 27.6777 46.6006 28.3135C47.2158 28.9492 47.5234 29.749 47.5234 30.7197L47.4551 31.2256ZM44.3037 28.2725C43.7158 28.2725 43.2031 28.4844 42.7656 28.8945C42.3281 29.3115 42.0684 29.8037 41.9932 30.3711H46.5459C46.4707 29.7695 46.2246 29.2637 45.8076 28.8672C45.3906 28.4707 44.8916 28.2725 44.3037 28.2725ZM48.4326 28.4092V27.5H54.168V28.4092H51.7891V34.2197H50.8115V28.4092H48.4326ZM62.9248 27.5V34.2197H61.9404V27.5H62.9248ZM56.5537 33.3105H58.249C58.6865 33.3105 59.0352 33.1875 59.3018 32.9414C59.5684 32.6953 59.7051 32.374 59.7051 31.9775C59.7051 31.5879 59.5684 31.2666 59.3018 31.0205C59.0352 30.7744 58.6797 30.6514 58.2354 30.6514H56.5537V33.3105ZM60.6826 31.9844C60.6826 32.6543 60.4639 33.1943 60.0332 33.6045C59.5957 34.0146 59.001 34.2197 58.249 34.2197H55.5762V27.5H56.5537V29.7422H58.2354C58.9873 29.7422 59.5889 29.9473 60.0264 30.3574C60.4639 30.7676 60.6826 31.3145 60.6826 31.9844ZM72.8643 27.5H73.7051V34.2197H72.7207V29.1816L68.6602 34.2197H67.8262V27.5H68.8037V32.5381L72.8643 27.5ZM80.0078 29.25C80.0078 29.4756 79.9668 29.6807 79.8984 29.8652C79.8301 30.043 79.7412 30.1865 79.6387 30.2891C79.5361 30.3916 79.4336 30.4805 79.3242 30.5488C79.2148 30.6172 79.1328 30.6719 79.0645 30.6992L78.9551 30.7266C78.9893 30.7334 79.0371 30.7471 79.0986 30.7607C79.1602 30.7744 79.2627 30.8154 79.4131 30.8906C79.5635 30.9658 79.6934 31.0547 79.8096 31.1641C79.9258 31.2734 80.0352 31.4307 80.1309 31.6357C80.2266 31.8408 80.2812 32.0732 80.2812 32.3398C80.2812 32.9072 80.0557 33.3857 79.6113 33.7754C79.1602 34.165 78.5244 34.3633 77.6973 34.3633C77.376 34.3633 77.0752 34.3223 76.7881 34.2402C76.501 34.1582 76.2686 34.0557 76.0771 33.9463C75.8857 33.8301 75.7148 33.7139 75.5781 33.5977C75.4414 33.4814 75.3389 33.3857 75.2705 33.3037L75.1748 33.1738L75.8037 32.5449C75.8584 32.6064 75.9336 32.6885 76.0293 32.791C76.125 32.9004 76.3438 33.0371 76.6719 33.2012C77 33.3652 77.3418 33.4473 77.6973 33.4473C78.2305 33.4473 78.627 33.3447 78.9004 33.1396C79.167 32.9346 79.3037 32.668 79.3037 32.333C79.3037 31.998 79.167 31.7246 78.8936 31.5195C78.6201 31.3145 78.2236 31.2119 77.6973 31.2119H76.9248V30.3027H77.6973C78.0938 30.3027 78.415 30.2002 78.6611 29.9951C78.9004 29.79 79.0234 29.5371 79.0234 29.25C79.0234 28.9629 78.9072 28.7236 78.6885 28.5459C78.4629 28.3682 78.1348 28.2793 77.6973 28.2793C77.3828 28.2793 77.0889 28.3408 76.8086 28.4639C76.5283 28.5869 76.3301 28.7168 76.2139 28.8467L76.0156 29.0381L75.3115 28.3408C75.373 28.2725 75.4688 28.1768 75.5918 28.0674C75.7148 27.958 75.9814 27.8145 76.3916 27.6299C76.8018 27.4521 77.2324 27.3564 77.6973 27.3564C78.3809 27.3564 78.9346 27.5479 79.3652 27.917C79.7891 28.293 80.0078 28.7373 80.0078 29.25ZM85.7568 32.333V34.2197H84.7793V27.5H85.7568V31.0684L89.1133 27.5H90.3096L87.7188 30.2275L90.5898 34.2197H89.4688L87.0898 30.9316L85.7568 32.333ZM96.9473 30.8633C96.9473 30.1387 96.7012 29.5234 96.2227 29.0244C95.7441 28.5254 95.1631 28.2725 94.4932 28.2725C93.8232 28.2725 93.2422 28.5254 92.7637 29.0244C92.2852 29.5234 92.0459 30.1318 92.0459 30.8564C92.0459 31.5811 92.2852 32.1895 92.7637 32.6953C93.2422 33.2012 93.8232 33.4473 94.4932 33.4473C95.1631 33.4473 95.7441 33.2012 96.2227 32.7021C96.7012 32.2031 96.9473 31.5879 96.9473 30.8633ZM91.0684 30.8633C91.0684 29.8789 91.3965 29.0518 92.0664 28.375C92.7363 27.6982 93.543 27.3564 94.5 27.3564C95.4502 27.3564 96.2568 27.6982 96.9199 28.375C97.5898 29.0518 97.918 29.8789 97.918 30.8633C97.918 31.8477 97.5898 32.6748 96.9199 33.3516C96.2568 34.0215 95.4502 34.3633 94.5 34.3633C93.543 34.3633 92.7363 34.0215 92.0664 33.3516C91.3965 32.6748 91.0684 31.8477 91.0684 30.8633ZM100.379 27.5L105.28 27.5068V34.2266H104.296V28.416H101.356V29.4688C101.356 30.4531 101.302 31.2803 101.206 31.9365C101.11 32.5928 100.96 33.0986 100.769 33.4404C100.57 33.7822 100.352 34.0215 100.119 34.1582C99.8799 34.2949 99.5928 34.3633 99.2578 34.3633C99.1416 34.3633 99.0254 34.3496 98.9092 34.3291C98.793 34.3018 98.7109 34.2812 98.6562 34.2539L98.5605 34.2266V33.249C98.7451 33.3379 98.9297 33.3857 99.1211 33.3857C99.4082 33.3857 99.6338 33.3037 99.7979 33.1396C99.9619 32.9756 100.099 32.5928 100.208 32.0049C100.317 31.4102 100.379 30.5625 100.379 29.4619V27.5ZM108.213 27.5L113.114 27.5068V34.2266H112.13V28.416H109.19V29.4688C109.19 30.4531 109.136 31.2803 109.04 31.9365C108.944 32.5928 108.794 33.0986 108.603 33.4404C108.404 33.7822 108.186 34.0215 107.953 34.1582C107.714 34.2949 107.427 34.3633 107.092 34.3633C106.976 34.3633 106.859 34.3496 106.743 34.3291C106.627 34.3018 106.545 34.2812 106.49 34.2539L106.395 34.2266V33.249C106.579 33.3379 106.764 33.3857 106.955 33.3857C107.242 33.3857 107.468 33.3037 107.632 33.1396C107.796 32.9756 107.933 32.5928 108.042 32.0049C108.151 31.4102 108.213 30.5625 108.213 29.4619V27.5ZM121.297 31.2256L115.835 31.2119C115.869 31.8203 116.115 32.3467 116.58 32.7842C117.045 33.2285 117.585 33.4473 118.214 33.4473C118.631 33.4473 119.021 33.3584 119.383 33.167C119.738 32.9824 119.998 32.7979 120.148 32.6064L120.388 32.333L121.017 32.9619C120.989 33.0029 120.948 33.0508 120.894 33.1191C120.839 33.1875 120.729 33.2969 120.552 33.4541C120.374 33.6113 120.189 33.748 119.984 33.8711C119.779 33.9941 119.52 34.1035 119.198 34.2061C118.877 34.3086 118.549 34.3564 118.214 34.3564C117.298 34.3564 116.505 34.0215 115.849 33.3379C115.186 32.6543 114.857 31.8271 114.857 30.8564C114.857 29.8857 115.179 29.0654 115.835 28.3818C116.491 27.6982 117.257 27.3564 118.146 27.3564C119.062 27.3564 119.827 27.6777 120.442 28.3135C121.058 28.9492 121.365 29.749 121.365 30.7197L121.297 31.2256ZM118.146 28.2725C117.558 28.2725 117.045 28.4844 116.607 28.8945C116.17 29.3115 115.91 29.8037 115.835 30.3711H120.388C120.312 29.7695 120.066 29.2637 119.649 28.8672C119.232 28.4707 118.733 28.2725 118.146 28.2725ZM124.093 32.333V34.2197H123.115V27.5H124.093V31.0684L127.449 27.5H128.646L126.055 30.2275L128.926 34.2197H127.805L125.426 30.9316L124.093 32.333ZM130.184 34.2197V27.5H131.161V33.3105H134.873V27.5H135.851V33.3105H136.903V35.9014H135.919V34.2197H130.184ZM143.479 27.5H144.32V34.2197H143.336V29.1816L139.275 34.2197H138.441V27.5H139.419V32.5381L143.479 27.5ZM151.601 27.5H152.441V34.2197H151.457V29.1816L147.396 34.2197H146.562V27.5H147.54V32.5381L151.601 27.5ZM165.594 26.3193L170.438 20.2158H173.094V34.2197H170.096V24.8838L165.594 30.6162L161.102 24.9229V34.2197H158.094V20.2158H160.799L165.594 26.3193ZM178.992 27.2275C178.992 28.5166 179.422 29.6104 180.301 30.4893C181.17 31.3779 182.234 31.8174 183.484 31.8174C184.734 31.8174 185.799 31.3779 186.668 30.4893C187.547 29.6104 187.977 28.5166 187.977 27.2275C187.977 25.9385 187.547 24.8447 186.668 23.9561C185.799 23.0674 184.734 22.6182 183.484 22.6182C182.234 22.6182 181.17 23.0674 180.301 23.9561C179.422 24.8447 178.992 25.9385 178.992 27.2275ZM175.887 27.2178C175.887 25.2061 176.619 23.4873 178.084 22.0615C179.549 20.6357 181.355 19.9229 183.484 19.9229C185.613 19.9229 187.42 20.6357 188.885 22.0615C190.35 23.4873 191.082 25.2061 191.082 27.2178C191.082 29.2295 190.35 30.958 188.885 32.3838C187.42 33.8096 185.613 34.5225 183.484 34.5225C181.355 34.5225 179.549 33.8096 178.084 32.3838C176.619 30.958 175.887 29.2295 175.887 27.2178ZM193.895 20.2158H199.1C201.131 20.2158 202.84 20.8994 204.227 22.2471C205.604 23.6045 206.297 25.2646 206.297 27.2178C206.297 29.1807 205.604 30.8408 204.227 32.1885C202.84 33.5459 201.131 34.2197 199.1 34.2197H193.895V20.2158ZM199.1 22.9209H196.902V31.5244H199.1C200.252 31.5244 201.248 31.1143 202.068 30.2744C202.889 29.4443 203.299 28.4287 203.299 27.2275C203.299 26.0264 202.898 25.0107 202.098 24.1709C201.297 23.3408 200.291 22.9209 199.1 22.9209ZM215.096 31.8174C215.945 31.8174 216.678 31.5049 217.283 30.8701C217.889 30.2451 218.191 29.4541 218.191 28.5166V20.2158H221.189V28.5166C221.189 30.2256 220.604 31.6514 219.451 32.8037C218.289 33.9561 216.834 34.5322 215.086 34.5322C213.338 34.5322 211.883 33.9561 210.73 32.8037C209.568 31.6514 208.992 30.2256 208.992 28.5166V20.2158H211.99V28.5166C211.99 29.4541 212.293 30.2354 212.898 30.8701C213.504 31.5049 214.236 31.8174 215.096 31.8174ZM234.197 34.2197H224.695V20.2158H227.703V31.5244H234.197V34.2197ZM243.699 28.3213L242 23.7217L240.291 28.3213H243.699ZM244.695 30.9189H239.295L238.094 34.2197H234.891L240.398 20.2158H243.592L249.1 34.2197H245.896L244.695 30.9189ZM251.102 34.2197L251.092 20.2158H257.293C258.68 20.2158 259.832 20.665 260.74 21.5537C261.648 22.4424 262.098 23.5264 262.098 24.8154C262.098 25.3818 262.01 25.8994 261.834 26.3877C261.658 26.876 261.453 27.2764 261.219 27.5693C260.984 27.8721 260.74 28.126 260.496 28.3408C260.242 28.5557 260.037 28.7021 259.861 28.7803L259.607 28.917L262.605 34.2197H259.402L256.707 29.3174H254.109V34.2197H251.102ZM259.1 24.8154C259.1 24.2686 258.924 23.8193 258.562 23.458C258.201 23.1064 257.742 22.9209 257.195 22.9209H254.1V26.6221H257.195C257.742 26.6221 258.201 26.4561 258.562 26.1045C258.924 25.7529 259.1 25.3232 259.1 24.8154Z" fill="#111111"/>
<path d="M8.46973 93.917V103.72H7.41699V94.9014H1.96191V103.72H0.90918V93.917H8.46973ZM16.3789 100.363C16.3789 99.6387 16.1328 99.0234 15.6543 98.5244C15.1758 98.0254 14.5947 97.7725 13.9248 97.7725C13.2549 97.7725 12.6738 98.0254 12.1953 98.5244C11.7168 99.0234 11.4775 99.6318 11.4775 100.356C11.4775 101.081 11.7168 101.689 12.1953 102.195C12.6738 102.701 13.2549 102.947 13.9248 102.947C14.5947 102.947 15.1758 102.701 15.6543 102.202C16.1328 101.703 16.3789 101.088 16.3789 100.363ZM10.5 100.363C10.5 99.3789 10.8281 98.5518 11.498 97.875C12.168 97.1982 12.9746 96.8564 13.9316 96.8564C14.8818 96.8564 15.6885 97.1982 16.3516 97.875C17.0215 98.5518 17.3496 99.3789 17.3496 100.363C17.3496 101.348 17.0215 102.175 16.3516 102.852C15.6885 103.521 14.8818 103.863 13.9316 103.863C12.9746 103.863 12.168 103.521 11.498 102.852C10.8281 102.175 10.5 101.348 10.5 100.363ZM23.1738 98.75C23.1738 98.9756 23.1328 99.1807 23.0645 99.3652C22.9961 99.543 22.9072 99.6865 22.8047 99.7891C22.7021 99.8916 22.5996 99.9805 22.4902 100.049C22.3809 100.117 22.2988 100.172 22.2305 100.199L22.1211 100.227C22.1553 100.233 22.2031 100.247 22.2646 100.261C22.3262 100.274 22.4287 100.315 22.5791 100.391C22.7295 100.466 22.8594 100.555 22.9756 100.664C23.0918 100.773 23.2012 100.931 23.2969 101.136C23.3926 101.341 23.4473 101.573 23.4473 101.84C23.4473 102.407 23.2217 102.886 22.7773 103.275C22.3262 103.665 21.6904 103.863 20.8633 103.863C20.542 103.863 20.2412 103.822 19.9541 103.74C19.667 103.658 19.4346 103.556 19.2432 103.446C19.0518 103.33 18.8809 103.214 18.7441 103.098C18.6074 102.981 18.5049 102.886 18.4365 102.804L18.3408 102.674L18.9697 102.045C19.0244 102.106 19.0996 102.188 19.1953 102.291C19.291 102.4 19.5098 102.537 19.8379 102.701C20.166 102.865 20.5078 102.947 20.8633 102.947C21.3965 102.947 21.793 102.845 22.0664 102.64C22.333 102.435 22.4697 102.168 22.4697 101.833C22.4697 101.498 22.333 101.225 22.0596 101.02C21.7861 100.814 21.3896 100.712 20.8633 100.712H20.0908V99.8027H20.8633C21.2598 99.8027 21.5811 99.7002 21.8271 99.4951C22.0664 99.29 22.1895 99.0371 22.1895 98.75C22.1895 98.4629 22.0732 98.2236 21.8545 98.0459C21.6289 97.8682 21.3008 97.7793 20.8633 97.7793C20.5488 97.7793 20.2549 97.8408 19.9746 97.9639C19.6943 98.0869 19.4961 98.2168 19.3799 98.3467L19.1816 98.5381L18.4775 97.8408C18.5391 97.7725 18.6348 97.6768 18.7578 97.5674C18.8809 97.458 19.1475 97.3145 19.5576 97.1299C19.9678 96.9521 20.3984 96.8564 20.8633 96.8564C21.5469 96.8564 22.1006 97.0479 22.5312 97.417C22.9551 97.793 23.1738 98.2373 23.1738 98.75ZM30.1055 103.72V100.78H26.2568V103.72H25.2793V97H26.2568V99.8711H30.1055V97H31.0898V103.72H30.1055ZM34.8018 99.8711L37.3926 99.4473C37.3926 98.9551 37.2354 98.5518 36.9209 98.2373C36.6064 97.9297 36.2031 97.7725 35.7109 97.7725C35.3555 97.7725 35.0205 97.8545 34.7061 98.0186C34.3916 98.1826 34.166 98.3467 34.0293 98.5107L33.8174 98.75L33.1885 98.1211C33.2158 98.0869 33.25 98.0391 33.2979 97.9844C33.3457 97.9297 33.4482 97.8271 33.6123 97.6836C33.7764 97.54 33.9473 97.4102 34.125 97.2939C34.3027 97.1846 34.5352 97.082 34.8223 96.9932C35.1094 96.9043 35.4102 96.8564 35.7109 96.8564C36.4766 96.8564 37.1055 97.1094 37.6113 97.6016C38.1172 98.1006 38.3701 98.7158 38.3701 99.4473V103.72H37.3926V102.811C37.3721 102.838 37.3447 102.879 37.3037 102.927C37.2627 102.975 37.1807 103.057 37.0439 103.18C36.9072 103.303 36.7637 103.405 36.6133 103.501C36.4561 103.597 36.251 103.679 35.998 103.747C35.7451 103.822 35.4854 103.856 35.2188 103.856C34.5488 103.856 33.9814 103.658 33.5234 103.262C33.0654 102.865 32.8398 102.414 32.8398 101.901C32.8398 101.341 33.0039 100.89 33.3457 100.548C33.6807 100.206 34.166 99.9805 34.8018 99.8711ZM35.2188 102.947C35.8477 102.947 36.3672 102.742 36.7773 102.325C37.1875 101.915 37.3926 101.375 37.3926 100.712V100.288L35.082 100.712C34.2412 100.876 33.8174 101.272 33.8174 101.901C33.8174 102.202 33.9404 102.455 34.1865 102.653C34.4326 102.852 34.7812 102.947 35.2188 102.947ZM41.583 101.833V103.72H40.6055V97H41.583V100.568L44.9395 97H46.1357L43.5449 99.7275L46.416 103.72H45.2949L42.916 100.432L41.583 101.833ZM52.7734 100.363C52.7734 99.6387 52.5273 99.0234 52.0488 98.5244C51.5703 98.0254 50.9893 97.7725 50.3193 97.7725C49.6494 97.7725 49.0684 98.0254 48.5898 98.5244C48.1113 99.0234 47.8721 99.6318 47.8721 100.356C47.8721 101.081 48.1113 101.689 48.5898 102.195C49.0684 102.701 49.6494 102.947 50.3193 102.947C50.9893 102.947 51.5703 102.701 52.0488 102.202C52.5273 101.703 52.7734 101.088 52.7734 100.363ZM46.8945 100.363C46.8945 99.3789 47.2227 98.5518 47.8926 97.875C48.5625 97.1982 49.3691 96.8564 50.3262 96.8564C51.2764 96.8564 52.083 97.1982 52.7461 97.875C53.416 98.5518 53.7441 99.3789 53.7441 100.363C53.7441 101.348 53.416 102.175 52.7461 102.852C52.083 103.521 51.2764 103.863 50.3262 103.863C49.3691 103.863 48.5625 103.521 47.8926 102.852C47.2227 102.175 46.8945 101.348 46.8945 100.363ZM61.3867 98.75L58.9326 101.833L56.4854 98.75V103.72H55.5078V97H56.2734L58.9326 100.356L61.5918 97H62.3643V103.72H61.3867V98.75ZM69.6514 97H70.4922V103.72H69.5078V98.6816L65.4473 103.72H64.6133V97H65.5908V102.038L69.6514 97ZM71.8936 97.9092V97H77.6289V97.9092H75.25V103.72H74.2725V97.9092H71.8936ZM80.0146 102.811H81.7783C82.2158 102.811 82.5645 102.688 82.8311 102.441C83.0977 102.195 83.2344 101.874 83.2344 101.478C83.2344 101.088 83.0977 100.767 82.8311 100.521C82.5645 100.274 82.209 100.151 81.7646 100.151H80.0146V102.811ZM84.2119 101.484C84.2119 102.154 83.9932 102.694 83.5625 103.104C83.125 103.515 82.5303 103.72 81.7783 103.72H79.0371V97H80.0146V99.2422H81.7646C82.5166 99.2422 83.1182 99.4473 83.5557 99.8574C83.9932 100.268 84.2119 100.814 84.2119 101.484ZM85.4766 100.356C85.4766 99.3857 85.8047 98.5654 86.4678 97.8818C87.1309 97.1982 87.917 96.8564 88.8262 96.8564C89.3525 96.8564 89.8447 96.9727 90.2959 97.1982C90.7471 97.4238 91.0752 97.6494 91.2666 97.8682L91.5605 98.1895L90.8564 98.8867C90.8428 98.8594 90.8154 98.8252 90.7744 98.7705C90.7402 98.7227 90.6582 98.6338 90.5352 98.4971C90.4121 98.3672 90.2754 98.251 90.1318 98.1553C89.9814 98.0596 89.7969 97.9707 89.5645 97.8887C89.332 97.8135 89.0859 97.7725 88.833 97.7725C88.1904 97.7725 87.6299 98.0254 87.1582 98.5244C86.6865 99.0234 86.4541 99.6387 86.4541 100.363C86.4541 101.088 86.6865 101.703 87.1582 102.202C87.6299 102.701 88.1904 102.947 88.833 102.947C89.2227 102.947 89.5918 102.858 89.9473 102.667C90.2959 102.482 90.5488 102.298 90.7061 102.106L90.9316 101.833L91.6289 102.462C91.6016 102.503 91.5605 102.551 91.5059 102.619C91.4512 102.688 91.3281 102.797 91.1436 102.954C90.9658 103.111 90.7744 103.248 90.5693 103.371C90.3711 103.494 90.1113 103.604 89.7969 103.706C89.4824 103.809 89.1611 103.856 88.833 103.856C87.917 103.856 87.124 103.521 86.4678 102.838C85.8047 102.154 85.4766 101.327 85.4766 100.356ZM92.75 99.2422C92.75 98.5996 92.9756 98.0664 93.4268 97.6426C93.8779 97.2188 94.4727 97 95.2041 97H98.0684V103.72H97.0908V101.478H95.1289L93.7344 103.72H92.6133L94.1514 101.272C94.1104 101.266 94.0625 101.252 93.9941 101.225C93.9258 101.197 93.8164 101.136 93.6592 101.04C93.4951 100.944 93.3584 100.821 93.2354 100.685C93.1123 100.548 93.0029 100.35 92.9004 100.104C92.7979 99.8506 92.75 99.5635 92.75 99.2422ZM97.0908 97.9092L95.2041 97.916C94.7529 97.916 94.3975 98.0391 94.1309 98.2852C93.8643 98.5312 93.7344 98.8525 93.7344 99.2422C93.7344 99.6387 93.8643 99.9531 94.1309 100.199C94.3906 100.445 94.7529 100.568 95.2041 100.568H97.0908V97.9092ZM0 117.356C0 116.386 0.328125 115.565 0.991211 114.882C1.6543 114.198 2.44043 113.856 3.34961 113.856C3.87598 113.856 4.36816 113.973 4.81934 114.198C5.27051 114.424 5.59863 114.649 5.79004 114.868L6.08398 115.189L5.37988 115.887C5.36621 115.859 5.33887 115.825 5.29785 115.771C5.26367 115.723 5.18164 115.634 5.05859 115.497C4.93555 115.367 4.79883 115.251 4.65527 115.155C4.50488 115.06 4.32031 114.971 4.08789 114.889C3.85547 114.813 3.60938 114.772 3.35645 114.772C2.71387 114.772 2.15332 115.025 1.68164 115.524C1.20996 116.023 0.977539 116.639 0.977539 117.363C0.977539 118.088 1.20996 118.703 1.68164 119.202C2.15332 119.701 2.71387 119.947 3.35645 119.947C3.74609 119.947 4.11523 119.858 4.4707 119.667C4.81934 119.482 5.07227 119.298 5.22949 119.106L5.45508 118.833L6.15234 119.462C6.125 119.503 6.08398 119.551 6.0293 119.619C5.97461 119.688 5.85156 119.797 5.66699 119.954C5.48926 120.111 5.29785 120.248 5.09277 120.371C4.89453 120.494 4.63477 120.604 4.32031 120.706C4.00586 120.809 3.68457 120.856 3.35645 120.856C2.44043 120.856 1.64746 120.521 0.991211 119.838C0.328125 119.154 0 118.327 0 117.356ZM15.1895 120.72V117.78H11.3408V120.72H10.3633V114H11.3408V116.871H15.1895V114H16.1738V120.72H15.1895ZM19.8857 116.871L22.4766 116.447C22.4766 115.955 22.3193 115.552 22.0049 115.237C21.6904 114.93 21.2871 114.772 20.7949 114.772C20.4395 114.772 20.1045 114.854 19.79 115.019C19.4756 115.183 19.25 115.347 19.1133 115.511L18.9014 115.75L18.2725 115.121C18.2998 115.087 18.334 115.039 18.3818 114.984C18.4297 114.93 18.5322 114.827 18.6963 114.684C18.8604 114.54 19.0312 114.41 19.209 114.294C19.3867 114.185 19.6191 114.082 19.9062 113.993C20.1934 113.904 20.4941 113.856 20.7949 113.856C21.5605 113.856 22.1895 114.109 22.6953 114.602C23.2012 115.101 23.4541 115.716 23.4541 116.447V120.72H22.4766V119.811C22.4561 119.838 22.4287 119.879 22.3877 119.927C22.3467 119.975 22.2646 120.057 22.1279 120.18C21.9912 120.303 21.8477 120.405 21.6973 120.501C21.54 120.597 21.335 120.679 21.082 120.747C20.8291 120.822 20.5693 120.856 20.3027 120.856C19.6328 120.856 19.0654 120.658 18.6074 120.262C18.1494 119.865 17.9238 119.414 17.9238 118.901C17.9238 118.341 18.0879 117.89 18.4297 117.548C18.7646 117.206 19.25 116.98 19.8857 116.871ZM20.3027 119.947C20.9316 119.947 21.4512 119.742 21.8613 119.325C22.2715 118.915 22.4766 118.375 22.4766 117.712V117.288L20.166 117.712C19.3252 117.876 18.9014 118.272 18.9014 118.901C18.9014 119.202 19.0244 119.455 19.2705 119.653C19.5166 119.852 19.8652 119.947 20.3027 119.947ZM31.5684 115.75L29.1143 118.833L26.667 115.75V120.72H25.6895V114H26.4551L29.1143 117.356L31.7734 114H32.5459V120.72H31.5684V115.75ZM39.833 114H40.6738V120.72H39.6895V115.682L35.6289 120.72H34.7949V114H35.7725V119.038L39.833 114ZM50.4082 120.72V114.923H46.5596V120.72H45.582V114H51.3926V120.72H50.4082ZM59.0215 117.363C59.0215 116.639 58.7754 116.023 58.2969 115.524C57.8184 115.025 57.2373 114.772 56.5674 114.772C55.8975 114.772 55.3164 115.025 54.8379 115.524C54.3594 116.023 54.1201 116.632 54.1201 117.356C54.1201 118.081 54.3594 118.689 54.8379 119.195C55.3164 119.701 55.8975 119.947 56.5674 119.947C57.2373 119.947 57.8184 119.701 58.2969 119.202C58.7754 118.703 59.0215 118.088 59.0215 117.363ZM53.1426 117.363C53.1426 116.379 53.4707 115.552 54.1406 114.875C54.8105 114.198 55.6172 113.856 56.5742 113.856C57.5244 113.856 58.3311 114.198 58.9941 114.875C59.6641 115.552 59.9922 116.379 59.9922 117.363C59.9922 118.348 59.6641 119.175 58.9941 119.852C58.3311 120.521 57.5244 120.863 56.5742 120.863C55.6172 120.863 54.8105 120.521 54.1406 119.852C53.4707 119.175 53.1426 118.348 53.1426 117.363ZM68.1201 117.5C68.1201 118.443 67.7988 119.243 67.1631 119.886C66.5205 120.535 65.748 120.856 64.832 120.856C63.8408 120.856 63.0342 120.48 62.4121 119.729C61.7832 118.977 61.4756 117.903 61.4756 116.522C61.4756 113.433 62.6172 111.683 64.9004 111.272C65.3926 111.19 65.8369 111.088 66.2266 110.951C66.6094 110.821 66.8691 110.712 67.0059 110.623L67.2109 110.5L67.7031 111.272C67.3271 111.601 66.4385 111.908 65.0439 112.182C64.3057 112.332 63.7041 112.688 63.2529 113.234C62.8018 113.781 62.5557 114.526 62.5215 115.47C62.5352 115.436 62.5693 115.388 62.6104 115.326C62.6514 115.265 62.7471 115.162 62.8906 115.012C63.0342 114.861 63.1914 114.731 63.3691 114.608C63.54 114.492 63.7656 114.383 64.0391 114.287C64.3125 114.191 64.5996 114.137 64.9004 114.137C65.7891 114.137 66.5479 114.465 67.1768 115.121C67.8057 115.777 68.1201 116.57 68.1201 117.5ZM62.5215 117.5C62.5215 118.197 62.7471 118.778 63.1982 119.243C63.6494 119.715 64.1963 119.947 64.832 119.947C65.4609 119.947 66.0078 119.715 66.459 119.243C66.9102 118.778 67.1426 118.197 67.1426 117.5C67.1426 116.81 66.9102 116.229 66.459 115.757C66.0078 115.292 65.4609 115.053 64.832 115.053C64.1963 115.053 63.6494 115.292 63.1982 115.757C62.7471 116.229 62.5215 116.81 62.5215 117.5ZM70.6426 114L75.5439 114.007V120.727H74.5596V114.916H71.6201V115.969C71.6201 116.953 71.5654 117.78 71.4697 118.437C71.374 119.093 71.2236 119.599 71.0322 119.94C70.834 120.282 70.6152 120.521 70.3828 120.658C70.1436 120.795 69.8564 120.863 69.5215 120.863C69.4053 120.863 69.2891 120.85 69.1729 120.829C69.0566 120.802 68.9746 120.781 68.9199 120.754L68.8242 120.727V119.749C69.0088 119.838 69.1934 119.886 69.3848 119.886C69.6719 119.886 69.8975 119.804 70.0615 119.64C70.2256 119.476 70.3623 119.093 70.4717 118.505C70.5811 117.91 70.6426 117.062 70.6426 115.962V114ZM82.8174 114H83.6582V120.72H82.6738V115.682L78.6133 120.72H77.7793V114H78.7568V119.038L82.8174 114ZM89.4004 118.478L88.416 117.432L86.0371 120.72H84.916L87.7871 116.728L85.1963 114H86.3857L89.4004 117.22V114H90.3779V117.22L93.3857 114H94.5752L91.9844 116.728L94.8555 120.72H93.7344L91.3555 117.432L90.3779 118.478V120.72H89.4004V118.478ZM102.074 117.726L96.6123 117.712C96.6465 118.32 96.8926 118.847 97.3574 119.284C97.8223 119.729 98.3623 119.947 98.9912 119.947C99.4082 119.947 99.7979 119.858 100.16 119.667C100.516 119.482 100.775 119.298 100.926 119.106L101.165 118.833L101.794 119.462C101.767 119.503 101.726 119.551 101.671 119.619C101.616 119.688 101.507 119.797 101.329 119.954C101.151 120.111 100.967 120.248 100.762 120.371C100.557 120.494 100.297 120.604 99.9756 120.706C99.6543 120.809 99.3262 120.856 98.9912 120.856C98.0752 120.856 97.2822 120.521 96.626 119.838C95.9629 119.154 95.6348 118.327 95.6348 117.356C95.6348 116.386 95.9561 115.565 96.6123 114.882C97.2686 114.198 98.0342 113.856 98.9229 113.856C99.8389 113.856 100.604 114.178 101.22 114.813C101.835 115.449 102.143 116.249 102.143 117.22L102.074 117.726ZM98.9229 114.772C98.335 114.772 97.8223 114.984 97.3848 115.395C96.9473 115.812 96.6875 116.304 96.6123 116.871H101.165C101.09 116.27 100.844 115.764 100.427 115.367C100.01 114.971 99.5107 114.772 98.9229 114.772Z" fill="#111111"/>
</svg>
