<svg width="644" height="88" viewBox="0 0 644 88" fill="none" xmlns="http://www.w3.org/2000/svg">
<path d="M0 17.1562V4.55273H1.35352V10.1338H8.36719V4.55273H9.7207V17.1562H8.36719V11.3994H1.35352V17.1562H0ZM14.8535 12.208L18.1846 11.6631C18.1846 11.0303 17.9824 10.5117 17.5781 10.1074C17.1738 9.71191 16.6553 9.50977 16.0225 9.50977C15.5654 9.50977 15.1348 9.61523 14.7305 9.82617C14.3262 10.0371 14.0361 10.248 13.8604 10.459L13.5879 10.7666L12.7793 9.95801C12.8145 9.91406 12.8584 9.85254 12.9199 9.78223C12.9814 9.71191 13.1133 9.58008 13.3242 9.39551C13.5352 9.21094 13.7549 9.04395 13.9834 8.89453C14.2119 8.75391 14.5107 8.62207 14.8799 8.50781C15.249 8.39355 15.6357 8.33203 16.0225 8.33203C17.0068 8.33203 17.8154 8.65723 18.4658 9.29004C19.1162 9.93164 19.4414 10.7227 19.4414 11.6631V17.1562H18.1846V15.9873C18.1582 16.0225 18.123 16.0752 18.0703 16.1367C18.0176 16.1982 17.9121 16.3037 17.7363 16.4619C17.5605 16.6201 17.376 16.752 17.1826 16.875C16.9805 16.998 16.7168 17.1035 16.3916 17.1914C16.0664 17.2881 15.7324 17.332 15.3896 17.332C14.5283 17.332 13.7988 17.0771 13.21 16.5674C12.6211 16.0576 12.3311 15.4775 12.3311 14.8184C12.3311 14.0977 12.542 13.5176 12.9814 13.0781C13.4121 12.6387 14.0361 12.3486 14.8535 12.208ZM15.3896 16.1631C16.1982 16.1631 16.8662 15.8994 17.3936 15.3633C17.9209 14.8359 18.1846 14.1416 18.1846 13.2891V12.7441L15.2139 13.2891C14.1328 13.5 13.5879 14.0098 13.5879 14.8184C13.5879 15.2051 13.7461 15.5303 14.0625 15.7852C14.3789 16.04 14.8271 16.1631 15.3896 16.1631ZM32.6689 12.832C32.6689 14.0801 32.2383 15.1436 31.3857 16.0225C30.5332 16.9014 29.5225 17.3408 28.3535 17.3408C27.9316 17.3408 27.5186 17.2705 27.1143 17.1475C26.71 17.0244 26.376 16.875 26.0947 16.6992C25.8135 16.5234 25.5762 16.3564 25.3652 16.1807C25.1543 16.0049 24.9961 15.8555 24.8906 15.7236L24.75 15.5479L25.6465 14.7393C25.6641 14.7744 25.708 14.8184 25.7607 14.8887C25.8135 14.9502 25.9277 15.0645 26.1035 15.2314C26.2793 15.4072 26.4639 15.5566 26.6572 15.6797C26.8506 15.8027 27.0967 15.917 27.4043 16.0137C27.7031 16.1191 28.0195 16.1631 28.3535 16.1631C29.1094 16.1631 29.7773 15.8818 30.375 15.3105C30.9639 14.748 31.3066 14.0713 31.4121 13.2891H27.0879V12.1201H31.3154C31.2188 11.4258 30.8848 10.8193 30.3223 10.292C29.751 9.77344 29.0918 9.50977 28.3535 9.50977C28.0283 9.50977 27.7207 9.5625 27.4219 9.65039C27.123 9.74707 26.877 9.87012 26.6748 10.0107C26.4814 10.1602 26.3057 10.3096 26.1562 10.4502C26.0068 10.5908 25.8926 10.7139 25.8223 10.8018L25.7344 10.9424L24.8291 10.0459C24.8643 10.002 24.917 9.94043 24.9873 9.86133C25.0576 9.78223 25.1982 9.65039 25.418 9.45703C25.6465 9.26367 25.8838 9.09668 26.1299 8.93848C26.3848 8.78906 26.71 8.64844 27.1143 8.52539C27.5186 8.40234 27.9316 8.33203 28.3535 8.33203C29.5312 8.33203 30.542 8.77148 31.3945 9.65039C32.2383 10.5293 32.6689 11.584 32.6689 12.832ZM33.8379 9.68555V8.5166H41.2119V9.68555H38.1533V17.1562H36.8965V9.68555H33.8379ZM49.9482 12.8408C49.9482 11.9092 49.6318 11.1182 49.0166 10.4766C48.4014 9.83496 47.6543 9.50977 46.793 9.50977C45.9316 9.50977 45.1846 9.83496 44.5693 10.4766C43.9541 11.1182 43.6465 11.9004 43.6465 12.832C43.6465 13.7637 43.9541 14.5459 44.5693 15.1963C45.1846 15.8467 45.9316 16.1631 46.793 16.1631C47.6543 16.1631 48.4014 15.8467 49.0166 15.2051C49.6318 14.5635 49.9482 13.7725 49.9482 12.8408ZM42.3896 12.8408C42.3896 11.5752 42.8115 10.5117 43.6729 9.6416C44.5342 8.77148 45.5713 8.33203 46.8018 8.33203C48.0234 8.33203 49.0605 8.77148 49.9131 9.6416C50.7744 10.5117 51.1963 11.5752 51.1963 12.8408C51.1963 14.1064 50.7744 15.1699 49.9131 16.04C49.0605 16.9014 48.0234 17.3408 46.8018 17.3408C45.5713 17.3408 44.5342 16.9014 43.6729 16.04C42.8115 15.1699 42.3896 14.1064 42.3896 12.8408ZM61.0225 10.7666L57.8672 14.7305L54.7207 10.7666V17.1562H53.4639V8.5166H54.4482L57.8672 12.832L61.2861 8.5166H62.2793V17.1562H61.0225V10.7666ZM67.9658 12.832C67.9658 11.584 68.3877 10.5293 69.2402 9.65039C70.0928 8.77148 71.1035 8.33203 72.2725 8.33203C72.9492 8.33203 73.582 8.48145 74.1621 8.77148C74.7422 9.06152 75.1641 9.35156 75.4102 9.63281L75.7881 10.0459L74.8828 10.9424C74.8652 10.9072 74.8301 10.8633 74.7773 10.793C74.7334 10.7314 74.6279 10.6172 74.4697 10.4414C74.3115 10.2744 74.1357 10.125 73.9512 10.002C73.7578 9.87891 73.5205 9.76465 73.2217 9.65918C72.9229 9.5625 72.6064 9.50977 72.2812 9.50977C71.4551 9.50977 70.7344 9.83496 70.1279 10.4766C69.5215 11.1182 69.2227 11.9092 69.2227 12.8408C69.2227 13.7725 69.5215 14.5635 70.1279 15.2051C70.7344 15.8467 71.4551 16.1631 72.2812 16.1631C72.7822 16.1631 73.2568 16.0488 73.7139 15.8027C74.1621 15.5654 74.4873 15.3281 74.6895 15.082L74.9795 14.7305L75.876 15.5391C75.8408 15.5918 75.7881 15.6533 75.7178 15.7412C75.6475 15.8291 75.4893 15.9697 75.252 16.1719C75.0234 16.374 74.7773 16.5498 74.5137 16.708C74.2588 16.8662 73.9248 17.0068 73.5205 17.1387C73.1162 17.2705 72.7031 17.332 72.2812 17.332C71.1035 17.332 70.084 16.9014 69.2402 16.0225C68.3877 15.1436 67.9658 14.0801 67.9658 12.832ZM79.752 12.208L83.083 11.6631C83.083 11.0303 82.8809 10.5117 82.4766 10.1074C82.0723 9.71191 81.5537 9.50977 80.9209 9.50977C80.4639 9.50977 80.0332 9.61523 79.6289 9.82617C79.2246 10.0371 78.9346 10.248 78.7588 10.459L78.4863 10.7666L77.6777 9.95801C77.7129 9.91406 77.7568 9.85254 77.8184 9.78223C77.8799 9.71191 78.0117 9.58008 78.2227 9.39551C78.4336 9.21094 78.6533 9.04395 78.8818 8.89453C79.1104 8.75391 79.4092 8.62207 79.7783 8.50781C80.1475 8.39355 80.5342 8.33203 80.9209 8.33203C81.9053 8.33203 82.7139 8.65723 83.3643 9.29004C84.0146 9.93164 84.3398 10.7227 84.3398 11.6631V17.1562H83.083V15.9873C83.0566 16.0225 83.0215 16.0752 82.9688 16.1367C82.916 16.1982 82.8105 16.3037 82.6348 16.4619C82.459 16.6201 82.2744 16.752 82.0811 16.875C81.8789 16.998 81.6152 17.1035 81.29 17.1914C80.9648 17.2881 80.6309 17.332 80.2881 17.332C79.4268 17.332 78.6973 17.0771 78.1084 16.5674C77.5195 16.0576 77.2295 15.4775 77.2295 14.8184C77.2295 14.0977 77.4404 13.5176 77.8799 13.0781C78.3105 12.6387 78.9346 12.3486 79.752 12.208ZM80.2881 16.1631C81.0967 16.1631 81.7646 15.8994 82.292 15.3633C82.8193 14.8359 83.083 14.1416 83.083 13.2891V12.7441L80.1123 13.2891C79.0312 13.5 78.4863 14.0098 78.4863 14.8184C78.4863 15.2051 78.6445 15.5303 78.9609 15.7852C79.2773 16.04 79.7256 16.1631 80.2881 16.1631ZM90.9932 6.08203C91.4502 6.08203 91.8018 5.9502 92.0566 5.68652C92.3027 5.42285 92.4346 5.04492 92.4346 4.55273H93.4189C93.4189 5.27344 93.1904 5.8623 92.7422 6.31055C92.2939 6.76758 91.7139 6.9873 90.9932 6.9873C90.2725 6.9873 89.6836 6.76758 89.2354 6.31055C88.7783 5.8623 88.5586 5.27344 88.5586 4.55273H89.5518C89.5518 5.04492 89.6748 5.42285 89.9297 5.68652C90.1758 5.9502 90.5361 6.08203 90.9932 6.08203ZM93.6914 8.5166H94.7725V17.1562H93.5068V10.6787L88.2861 17.1562H87.2139V8.5166H88.4707V14.9941L93.6914 8.5166ZM96.5742 9.68555V8.5166H103.948V9.68555H100.89V17.1562H99.6328V9.68555H96.5742ZM113.405 13.3066L106.383 13.2891C106.427 14.0713 106.743 14.748 107.341 15.3105C107.938 15.8818 108.633 16.1631 109.441 16.1631C109.978 16.1631 110.479 16.0488 110.944 15.8027C111.401 15.5654 111.735 15.3281 111.929 15.082L112.236 14.7305L113.045 15.5391C113.01 15.5918 112.957 15.6533 112.887 15.7412C112.816 15.8291 112.676 15.9697 112.447 16.1719C112.219 16.374 111.981 16.5498 111.718 16.708C111.454 16.8662 111.12 17.0068 110.707 17.1387C110.294 17.2705 109.872 17.332 109.441 17.332C108.264 17.332 107.244 16.9014 106.4 16.0225C105.548 15.1436 105.126 14.0801 105.126 12.832C105.126 11.584 105.539 10.5293 106.383 9.65039C107.227 8.77148 108.211 8.33203 109.354 8.33203C110.531 8.33203 111.516 8.74512 112.307 9.5625C113.098 10.3799 113.493 11.4082 113.493 12.6562L113.405 13.3066ZM109.354 9.50977C108.598 9.50977 107.938 9.78223 107.376 10.3096C106.813 10.8457 106.479 11.4785 106.383 12.208H112.236C112.14 11.4346 111.823 10.7842 111.287 10.2744C110.751 9.76465 110.109 9.50977 109.354 9.50977ZM119.171 8.5166H123.126C123.917 8.5166 124.55 8.73633 125.024 9.1582C125.499 9.58008 125.736 10.1162 125.736 10.7666C125.736 11.1357 125.64 11.4785 125.464 11.7773C125.288 12.0762 125.104 12.2871 124.928 12.4014L124.655 12.5684C124.69 12.5859 124.734 12.6035 124.805 12.6211C124.875 12.6475 124.989 12.709 125.156 12.8145C125.323 12.9199 125.473 13.0342 125.596 13.1748C125.719 13.3154 125.833 13.5088 125.938 13.7637C126.044 14.0273 126.097 14.3174 126.097 14.6338C126.097 15.416 125.851 16.0312 125.367 16.4795C124.875 16.9365 124.189 17.1562 123.311 17.1562H119.171V8.5166ZM123.311 13.1045H120.428V15.9873H123.311C123.803 15.9873 124.181 15.8643 124.444 15.6094C124.708 15.3633 124.84 15.0029 124.84 14.5459C124.84 14.0889 124.708 13.7373 124.444 13.4824C124.181 13.2363 123.803 13.1045 123.311 13.1045ZM124.479 10.8545C124.479 10.0811 124.022 9.68555 123.126 9.68555H120.428V12.0234H123.126C124.022 12.0234 124.479 11.6367 124.479 10.8545ZM137.971 8.5166V17.1562H136.705V8.5166H137.971ZM129.779 15.9873H131.959C132.521 15.9873 132.97 15.8291 133.312 15.5127C133.655 15.1963 133.831 14.7832 133.831 14.2734C133.831 13.7725 133.655 13.3594 133.312 13.043C132.97 12.7266 132.513 12.5684 131.941 12.5684H129.779V15.9873ZM135.088 14.2822C135.088 15.1436 134.807 15.8379 134.253 16.3652C133.69 16.8926 132.926 17.1562 131.959 17.1562H128.522V8.5166H129.779V11.3994H131.941C132.908 11.3994 133.682 11.6631 134.244 12.1904C134.807 12.7178 135.088 13.4209 135.088 14.2822ZM151.831 10.7666L148.676 14.7305L145.529 10.7666V17.1562H144.272V8.5166H145.257L148.676 12.832L152.095 8.5166H153.088V17.1562H151.831V10.7666ZM162.905 12.8408C162.905 11.9092 162.589 11.1182 161.974 10.4766C161.358 9.83496 160.611 9.50977 159.75 9.50977C158.889 9.50977 158.142 9.83496 157.526 10.4766C156.911 11.1182 156.604 11.9004 156.604 12.832C156.604 13.7637 156.911 14.5459 157.526 15.1963C158.142 15.8467 158.889 16.1631 159.75 16.1631C160.611 16.1631 161.358 15.8467 161.974 15.2051C162.589 14.5635 162.905 13.7725 162.905 12.8408ZM155.347 12.8408C155.347 11.5752 155.769 10.5117 156.63 9.6416C157.491 8.77148 158.528 8.33203 159.759 8.33203C160.98 8.33203 162.018 8.77148 162.87 9.6416C163.731 10.5117 164.153 11.5752 164.153 12.8408C164.153 14.1064 163.731 15.1699 162.87 16.04C162.018 16.9014 160.98 17.3408 159.759 17.3408C158.528 17.3408 157.491 16.9014 156.63 16.04C155.769 15.1699 155.347 14.1064 155.347 12.8408ZM170.552 14.2734L169.286 12.9287L166.228 17.1562H164.786L168.478 12.0234L165.146 8.5166H166.676L170.552 12.6562V8.5166H171.809V12.6562L175.676 8.5166H177.205L173.874 12.0234L177.565 17.1562H176.124L173.065 12.9287L171.809 14.2734V17.1562H170.552V14.2734ZM186.847 13.3066L179.824 13.2891C179.868 14.0713 180.185 14.748 180.782 15.3105C181.38 15.8818 182.074 16.1631 182.883 16.1631C183.419 16.1631 183.92 16.0488 184.386 15.8027C184.843 15.5654 185.177 15.3281 185.37 15.082L185.678 14.7305L186.486 15.5391C186.451 15.5918 186.398 15.6533 186.328 15.7412C186.258 15.8291 186.117 15.9697 185.889 16.1719C185.66 16.374 185.423 16.5498 185.159 16.708C184.896 16.8662 184.562 17.0068 184.148 17.1387C183.735 17.2705 183.313 17.332 182.883 17.332C181.705 17.332 180.686 16.9014 179.842 16.0225C178.989 15.1436 178.567 14.0801 178.567 12.832C178.567 11.584 178.98 10.5293 179.824 9.65039C180.668 8.77148 181.652 8.33203 182.795 8.33203C183.973 8.33203 184.957 8.74512 185.748 9.5625C186.539 10.3799 186.935 11.4082 186.935 12.6562L186.847 13.3066ZM182.795 9.50977C182.039 9.50977 181.38 9.78223 180.817 10.3096C180.255 10.8457 179.921 11.4785 179.824 12.208H185.678C185.581 11.4346 185.265 10.7842 184.729 10.2744C184.192 9.76465 183.551 9.50977 182.795 9.50977ZM188.104 9.68555V8.5166H195.478V9.68555H192.419V17.1562H191.162V9.68555H188.104ZM204.935 13.3066L197.912 13.2891C197.956 14.0713 198.272 14.748 198.87 15.3105C199.468 15.8818 200.162 16.1631 200.971 16.1631C201.507 16.1631 202.008 16.0488 202.474 15.8027C202.931 15.5654 203.265 15.3281 203.458 15.082L203.766 14.7305L204.574 15.5391C204.539 15.5918 204.486 15.6533 204.416 15.7412C204.346 15.8291 204.205 15.9697 203.977 16.1719C203.748 16.374 203.511 16.5498 203.247 16.708C202.983 16.8662 202.649 17.0068 202.236 17.1387C201.823 17.2705 201.401 17.332 200.971 17.332C199.793 17.332 198.773 16.9014 197.93 16.0225C197.077 15.1436 196.655 14.0801 196.655 12.832C196.655 11.584 197.068 10.5293 197.912 9.65039C198.756 8.77148 199.74 8.33203 200.883 8.33203C202.061 8.33203 203.045 8.74512 203.836 9.5625C204.627 10.3799 205.022 11.4082 205.022 12.6562L204.935 13.3066ZM200.883 9.50977C200.127 9.50977 199.468 9.78223 198.905 10.3096C198.343 10.8457 198.009 11.4785 197.912 12.208H203.766C203.669 11.4346 203.353 10.7842 202.816 10.2744C202.28 9.76465 201.639 9.50977 200.883 9.50977ZM216.905 17.1562V9.70312H211.957V17.1562H210.7V8.5166H218.171V17.1562H216.905ZM222.311 12.8408C222.311 13.7285 222.618 14.502 223.251 15.1699C223.884 15.8379 224.587 16.1631 225.369 16.1631C226.107 16.1631 226.775 15.8467 227.364 15.1963C227.953 14.5459 228.252 13.7637 228.252 12.8408C228.252 11.918 227.953 11.1357 227.364 10.4854C226.775 9.83496 226.107 9.50977 225.369 9.50977C224.587 9.50977 223.884 9.84375 223.251 10.5117C222.618 11.1797 222.311 11.9531 222.311 12.8408ZM222.311 15.8027V20.9443H221.054V8.52539H222.311V9.87891C222.328 9.84375 222.372 9.78223 222.434 9.71191C222.495 9.6416 222.618 9.51855 222.812 9.34277C223.005 9.16699 223.207 9.00879 223.436 8.86816C223.655 8.72754 223.937 8.60449 224.288 8.49902C224.64 8.39355 225 8.34082 225.369 8.34082C226.468 8.34082 227.435 8.78027 228.261 9.66797C229.087 10.5469 229.509 11.6104 229.509 12.8408C229.509 14.0713 229.096 15.1348 228.27 16.0137C227.443 16.8926 226.477 17.332 225.369 17.332C225 17.332 224.64 17.2793 224.297 17.1738C223.954 17.0684 223.664 16.9453 223.436 16.7959C223.198 16.6553 222.996 16.5059 222.82 16.3564C222.645 16.207 222.521 16.0752 222.434 15.9697L222.311 15.8027ZM238.236 8.5166H239.317V17.1562H238.052V10.6787L232.831 17.1562H231.759V8.5166H233.016V14.9941L238.236 8.5166ZM249.126 12.8408C249.126 11.9092 248.81 11.1182 248.194 10.4766C247.579 9.83496 246.832 9.50977 245.971 9.50977C245.109 9.50977 244.362 9.83496 243.747 10.4766C243.132 11.1182 242.824 11.9004 242.824 12.832C242.824 13.7637 243.132 14.5459 243.747 15.1963C244.362 15.8467 245.109 16.1631 245.971 16.1631C246.832 16.1631 247.579 15.8467 248.194 15.2051C248.81 14.5635 249.126 13.7725 249.126 12.8408ZM241.567 12.8408C241.567 11.5752 241.989 10.5117 242.851 9.6416C243.712 8.77148 244.749 8.33203 245.979 8.33203C247.201 8.33203 248.238 8.77148 249.091 9.6416C249.952 10.5117 250.374 11.5752 250.374 12.8408C250.374 14.1064 249.952 15.1699 249.091 16.04C248.238 16.9014 247.201 17.3408 245.979 17.3408C244.749 17.3408 243.712 16.9014 242.851 16.04C241.989 15.1699 241.567 14.1064 241.567 12.8408ZM260.824 13.0166C260.824 14.2295 260.411 15.2578 259.594 16.084C258.768 16.9189 257.774 17.332 256.597 17.332C255.322 17.332 254.285 16.8486 253.485 15.8818C252.677 14.915 252.281 13.5352 252.281 11.7598C252.281 7.78711 253.749 5.53711 256.685 5.00977C257.317 4.9043 257.889 4.77246 258.39 4.59668C258.882 4.42969 259.216 4.28906 259.392 4.1748L259.655 4.0166L260.288 5.00977C259.805 5.43164 258.662 5.82715 256.869 6.17871C255.92 6.37207 255.146 6.8291 254.566 7.53223C253.986 8.23535 253.67 9.19336 253.626 10.4062C253.644 10.3623 253.688 10.3008 253.74 10.2217C253.793 10.1426 253.916 10.0107 254.101 9.81738C254.285 9.62402 254.487 9.45703 254.716 9.29883C254.936 9.14941 255.226 9.00879 255.577 8.88574C255.929 8.7627 256.298 8.69238 256.685 8.69238C257.827 8.69238 258.803 9.11426 259.611 9.95801C260.42 10.8018 260.824 11.8213 260.824 13.0166ZM253.626 13.0166C253.626 13.9131 253.916 14.6602 254.496 15.2578C255.076 15.8643 255.779 16.1631 256.597 16.1631C257.405 16.1631 258.108 15.8643 258.688 15.2578C259.269 14.6602 259.567 13.9131 259.567 13.0166C259.567 12.1289 259.269 11.3818 258.688 10.7754C258.108 10.1777 257.405 9.87012 256.597 9.87012C255.779 9.87012 255.076 10.1777 254.496 10.7754C253.916 11.3818 253.626 12.1289 253.626 13.0166ZM264.428 12.8408C264.428 13.7285 264.735 14.502 265.368 15.1699C266.001 15.8379 266.704 16.1631 267.486 16.1631C268.225 16.1631 268.893 15.8467 269.481 15.1963C270.07 14.5459 270.369 13.7637 270.369 12.8408C270.369 11.918 270.07 11.1357 269.481 10.4854C268.893 9.83496 268.225 9.50977 267.486 9.50977C266.704 9.50977 266.001 9.84375 265.368 10.5117C264.735 11.1797 264.428 11.9531 264.428 12.8408ZM264.428 15.8027V20.9443H263.171V8.52539H264.428V9.87891C264.445 9.84375 264.489 9.78223 264.551 9.71191C264.612 9.6416 264.735 9.51855 264.929 9.34277C265.122 9.16699 265.324 9.00879 265.553 8.86816C265.772 8.72754 266.054 8.60449 266.405 8.49902C266.757 8.39355 267.117 8.34082 267.486 8.34082C268.585 8.34082 269.552 8.78027 270.378 9.66797C271.204 10.5469 271.626 11.6104 271.626 12.8408C271.626 14.0713 271.213 15.1348 270.387 16.0137C269.561 16.8926 268.594 17.332 267.486 17.332C267.117 17.332 266.757 17.2793 266.414 17.1738C266.071 17.0684 265.781 16.9453 265.553 16.7959C265.315 16.6553 265.113 16.5059 264.938 16.3564C264.762 16.207 264.639 16.0752 264.551 15.9697L264.428 15.8027ZM281.522 13.3066L274.5 13.2891C274.544 14.0713 274.86 14.748 275.458 15.3105C276.056 15.8818 276.75 16.1631 277.559 16.1631C278.095 16.1631 278.596 16.0488 279.062 15.8027C279.519 15.5654 279.853 15.3281 280.046 15.082L280.354 14.7305L281.162 15.5391C281.127 15.5918 281.074 15.6533 281.004 15.7412C280.934 15.8291 280.793 15.9697 280.564 16.1719C280.336 16.374 280.099 16.5498 279.835 16.708C279.571 16.8662 279.237 17.0068 278.824 17.1387C278.411 17.2705 277.989 17.332 277.559 17.332C276.381 17.332 275.361 16.9014 274.518 16.0225C273.665 15.1436 273.243 14.0801 273.243 12.832C273.243 11.584 273.656 10.5293 274.5 9.65039C275.344 8.77148 276.328 8.33203 277.471 8.33203C278.648 8.33203 279.633 8.74512 280.424 9.5625C281.215 10.3799 281.61 11.4082 281.61 12.6562L281.522 13.3066ZM277.471 9.50977C276.715 9.50977 276.056 9.78223 275.493 10.3096C274.931 10.8457 274.597 11.4785 274.5 12.208H280.354C280.257 11.4346 279.94 10.7842 279.404 10.2744C278.868 9.76465 278.227 9.50977 277.471 9.50977ZM283.228 12.832C283.228 11.584 283.649 10.5293 284.502 9.65039C285.354 8.77148 286.365 8.33203 287.534 8.33203C288.211 8.33203 288.844 8.48145 289.424 8.77148C290.004 9.06152 290.426 9.35156 290.672 9.63281L291.05 10.0459L290.145 10.9424C290.127 10.9072 290.092 10.8633 290.039 10.793C289.995 10.7314 289.89 10.6172 289.731 10.4414C289.573 10.2744 289.397 10.125 289.213 10.002C289.02 9.87891 288.782 9.76465 288.483 9.65918C288.185 9.5625 287.868 9.50977 287.543 9.50977C286.717 9.50977 285.996 9.83496 285.39 10.4766C284.783 11.1182 284.484 11.9092 284.484 12.8408C284.484 13.7725 284.783 14.5635 285.39 15.2051C285.996 15.8467 286.717 16.1631 287.543 16.1631C288.044 16.1631 288.519 16.0488 288.976 15.8027C289.424 15.5654 289.749 15.3281 289.951 15.082L290.241 14.7305L291.138 15.5391C291.103 15.5918 291.05 15.6533 290.979 15.7412C290.909 15.8291 290.751 15.9697 290.514 16.1719C290.285 16.374 290.039 16.5498 289.775 16.708C289.521 16.8662 289.187 17.0068 288.782 17.1387C288.378 17.2705 287.965 17.332 287.543 17.332C286.365 17.332 285.346 16.9014 284.502 16.0225C283.649 15.1436 283.228 14.0801 283.228 12.832ZM292.043 9.68555V8.5166H299.417V9.68555H296.358V17.1562H295.102V9.68555H292.043ZM307.705 8.5166H308.786V17.1562H307.521V10.6787L302.3 17.1562H301.228V8.5166H302.484V14.9941L307.705 8.5166ZM321.302 17.1562V9.70312H316.354V17.1562H315.097V8.5166H322.567V17.1562H321.302ZM326.707 12.8408C326.707 13.7285 327.015 14.502 327.647 15.1699C328.28 15.8379 328.983 16.1631 329.766 16.1631C330.504 16.1631 331.172 15.8467 331.761 15.1963C332.35 14.5459 332.648 13.7637 332.648 12.8408C332.648 11.918 332.35 11.1357 331.761 10.4854C331.172 9.83496 330.504 9.50977 329.766 9.50977C328.983 9.50977 328.28 9.84375 327.647 10.5117C327.015 11.1797 326.707 11.9531 326.707 12.8408ZM326.707 15.8027V20.9443H325.45V8.52539H326.707V9.87891C326.725 9.84375 326.769 9.78223 326.83 9.71191C326.892 9.6416 327.015 9.51855 327.208 9.34277C327.401 9.16699 327.604 9.00879 327.832 8.86816C328.052 8.72754 328.333 8.60449 328.685 8.49902C329.036 8.39355 329.396 8.34082 329.766 8.34082C330.864 8.34082 331.831 8.78027 332.657 9.66797C333.483 10.5469 333.905 11.6104 333.905 12.8408C333.905 14.0713 333.492 15.1348 332.666 16.0137C331.84 16.8926 330.873 17.332 329.766 17.332C329.396 17.332 329.036 17.2793 328.693 17.1738C328.351 17.0684 328.061 16.9453 327.832 16.7959C327.595 16.6553 327.393 16.5059 327.217 16.3564C327.041 16.207 326.918 16.0752 326.83 15.9697L326.707 15.8027ZM343.802 13.3066L336.779 13.2891C336.823 14.0713 337.14 14.748 337.737 15.3105C338.335 15.8818 339.029 16.1631 339.838 16.1631C340.374 16.1631 340.875 16.0488 341.341 15.8027C341.798 15.5654 342.132 15.3281 342.325 15.082L342.633 14.7305L343.441 15.5391C343.406 15.5918 343.354 15.6533 343.283 15.7412C343.213 15.8291 343.072 15.9697 342.844 16.1719C342.615 16.374 342.378 16.5498 342.114 16.708C341.851 16.8662 341.517 17.0068 341.104 17.1387C340.69 17.2705 340.269 17.332 339.838 17.332C338.66 17.332 337.641 16.9014 336.797 16.0225C335.944 15.1436 335.522 14.0801 335.522 12.832C335.522 11.584 335.936 10.5293 336.779 9.65039C337.623 8.77148 338.607 8.33203 339.75 8.33203C340.928 8.33203 341.912 8.74512 342.703 9.5625C343.494 10.3799 343.89 11.4082 343.89 12.6562L343.802 13.3066ZM339.75 9.50977C338.994 9.50977 338.335 9.78223 337.772 10.3096C337.21 10.8457 336.876 11.4785 336.779 12.208H342.633C342.536 11.4346 342.22 10.7842 341.684 10.2744C341.147 9.76465 340.506 9.50977 339.75 9.50977ZM354.146 15.9873V19.3184H352.89V17.1562H345.955V19.3184H344.698V15.9873H345.322C345.357 15.9521 345.41 15.8994 345.48 15.8115C345.551 15.7236 345.683 15.5303 345.858 15.2314C346.034 14.9326 346.184 14.6162 346.324 14.2646C346.465 13.9131 346.588 13.4473 346.693 12.8672C346.799 12.2871 346.86 11.6719 346.86 11.0391V8.5166H352.793V15.9873H354.146ZM348.117 9.68555L348.108 11.0391C348.108 12.0234 347.994 12.9287 347.748 13.7461C347.511 14.5723 347.273 15.1523 347.036 15.4863L346.676 15.9873H351.536V9.68555H348.117ZM363.683 10.7666L360.527 14.7305L357.381 10.7666V17.1562H356.124V8.5166H357.108L360.527 12.832L363.946 8.5166H364.939V17.1562H363.683V10.7666ZM375.478 13.3066L368.455 13.2891C368.499 14.0713 368.815 14.748 369.413 15.3105C370.011 15.8818 370.705 16.1631 371.514 16.1631C372.05 16.1631 372.551 16.0488 373.017 15.8027C373.474 15.5654 373.808 15.3281 374.001 15.082L374.309 14.7305L375.117 15.5391C375.082 15.5918 375.029 15.6533 374.959 15.7412C374.889 15.8291 374.748 15.9697 374.52 16.1719C374.291 16.374 374.054 16.5498 373.79 16.708C373.526 16.8662 373.192 17.0068 372.779 17.1387C372.366 17.2705 371.944 17.332 371.514 17.332C370.336 17.332 369.316 16.9014 368.473 16.0225C367.62 15.1436 367.198 14.0801 367.198 12.832C367.198 11.584 367.611 10.5293 368.455 9.65039C369.299 8.77148 370.283 8.33203 371.426 8.33203C372.604 8.33203 373.588 8.74512 374.379 9.5625C375.17 10.3799 375.565 11.4082 375.565 12.6562L375.478 13.3066ZM371.426 9.50977C370.67 9.50977 370.011 9.78223 369.448 10.3096C368.886 10.8457 368.552 11.4785 368.455 12.208H374.309C374.212 11.4346 373.896 10.7842 373.359 10.2744C372.823 9.76465 372.182 9.50977 371.426 9.50977ZM376.734 9.68555V8.5166H384.108V9.68555H381.05V17.1562H379.793V9.68555H376.734ZM395.367 8.5166V17.1562H394.102V8.5166H395.367ZM387.176 15.9873H389.355C389.918 15.9873 390.366 15.8291 390.709 15.5127C391.052 15.1963 391.228 14.7832 391.228 14.2734C391.228 13.7725 391.052 13.3594 390.709 13.043C390.366 12.7266 389.909 12.5684 389.338 12.5684H387.176V15.9873ZM392.484 14.2822C392.484 15.1436 392.203 15.8379 391.649 16.3652C391.087 16.8926 390.322 17.1562 389.355 17.1562H385.919V8.5166H387.176V11.3994H389.338C390.305 11.3994 391.078 11.6631 391.641 12.1904C392.203 12.7178 392.484 13.4209 392.484 14.2822ZM408.146 8.5166H409.228V17.1562H407.962V10.6787L402.741 17.1562H401.669V8.5166H402.926V14.9941L408.146 8.5166ZM417.331 10.7666C417.331 11.0566 417.278 11.3203 417.19 11.5576C417.103 11.7861 416.988 11.9707 416.856 12.1025C416.725 12.2344 416.593 12.3486 416.452 12.4365C416.312 12.5244 416.206 12.5947 416.118 12.6299L415.978 12.665C416.021 12.6738 416.083 12.6914 416.162 12.709C416.241 12.7266 416.373 12.7793 416.566 12.876C416.76 12.9727 416.927 13.0869 417.076 13.2275C417.226 13.3682 417.366 13.5703 417.489 13.834C417.612 14.0977 417.683 14.3965 417.683 14.7393C417.683 15.4688 417.393 16.084 416.821 16.585C416.241 17.0859 415.424 17.3408 414.36 17.3408C413.947 17.3408 413.561 17.2881 413.191 17.1826C412.822 17.0771 412.523 16.9453 412.277 16.8047C412.031 16.6553 411.812 16.5059 411.636 16.3564C411.46 16.207 411.328 16.084 411.24 15.9785L411.117 15.8115L411.926 15.0029C411.996 15.082 412.093 15.1875 412.216 15.3193C412.339 15.46 412.62 15.6357 413.042 15.8467C413.464 16.0576 413.903 16.1631 414.36 16.1631C415.046 16.1631 415.556 16.0312 415.907 15.7676C416.25 15.5039 416.426 15.1611 416.426 14.7305C416.426 14.2998 416.25 13.9482 415.898 13.6846C415.547 13.4209 415.037 13.2891 414.36 13.2891H413.367V12.1201H414.36C414.87 12.1201 415.283 11.9883 415.6 11.7246C415.907 11.4609 416.065 11.1357 416.065 10.7666C416.065 10.3975 415.916 10.0898 415.635 9.86133C415.345 9.63281 414.923 9.51855 414.36 9.51855C413.956 9.51855 413.578 9.59766 413.218 9.75586C412.857 9.91406 412.603 10.0811 412.453 10.248L412.198 10.4941L411.293 9.59766C411.372 9.50977 411.495 9.38672 411.653 9.24609C411.812 9.10547 412.154 8.9209 412.682 8.68359C413.209 8.45508 413.763 8.33203 414.36 8.33203C415.239 8.33203 415.951 8.57812 416.505 9.05273C417.05 9.53613 417.331 10.1074 417.331 10.7666ZM424.723 14.7305V17.1562H423.466V8.5166H424.723V13.1045L429.038 8.5166H430.576L427.245 12.0234L430.937 17.1562H429.495L426.437 12.9287L424.723 14.7305ZM439.11 12.8408C439.11 11.9092 438.794 11.1182 438.179 10.4766C437.563 9.83496 436.816 9.50977 435.955 9.50977C435.094 9.50977 434.347 9.83496 433.731 10.4766C433.116 11.1182 432.809 11.9004 432.809 12.832C432.809 13.7637 433.116 14.5459 433.731 15.1963C434.347 15.8467 435.094 16.1631 435.955 16.1631C436.816 16.1631 437.563 15.8467 438.179 15.2051C438.794 14.5635 439.11 13.7725 439.11 12.8408ZM431.552 12.8408C431.552 11.5752 431.974 10.5117 432.835 9.6416C433.696 8.77148 434.733 8.33203 435.964 8.33203C437.186 8.33203 438.223 8.77148 439.075 9.6416C439.937 10.5117 440.358 11.5752 440.358 12.8408C440.358 14.1064 439.937 15.1699 439.075 16.04C438.223 16.9014 437.186 17.3408 435.964 17.3408C434.733 17.3408 433.696 16.9014 432.835 16.04C431.974 15.1699 431.552 14.1064 431.552 12.8408ZM443.522 8.5166L449.824 8.52539V17.165H448.559V9.69434H444.779V11.0479C444.779 12.3135 444.709 13.377 444.586 14.2207C444.463 15.0645 444.27 15.7148 444.023 16.1543C443.769 16.5938 443.487 16.9014 443.188 17.0771C442.881 17.2529 442.512 17.3408 442.081 17.3408C441.932 17.3408 441.782 17.3232 441.633 17.2969C441.483 17.2617 441.378 17.2354 441.308 17.2002L441.185 17.165V15.9082C441.422 16.0225 441.659 16.084 441.905 16.084C442.274 16.084 442.564 15.9785 442.775 15.7676C442.986 15.5566 443.162 15.0645 443.303 14.3086C443.443 13.5439 443.522 12.4541 443.522 11.0391V8.5166ZM453.595 8.5166L459.896 8.52539V17.165H458.631V9.69434H454.852V11.0479C454.852 12.3135 454.781 13.377 454.658 14.2207C454.535 15.0645 454.342 15.7148 454.096 16.1543C453.841 16.5938 453.56 16.9014 453.261 17.0771C452.953 17.2529 452.584 17.3408 452.153 17.3408C452.004 17.3408 451.854 17.3232 451.705 17.2969C451.556 17.2617 451.45 17.2354 451.38 17.2002L451.257 17.165V15.9082C451.494 16.0225 451.731 16.084 451.978 16.084C452.347 16.084 452.637 15.9785 452.848 15.7676C453.059 15.5566 453.234 15.0645 453.375 14.3086C453.516 13.5439 453.595 12.4541 453.595 11.0391V8.5166ZM470.417 13.3066L463.395 13.2891C463.438 14.0713 463.755 14.748 464.353 15.3105C464.95 15.8818 465.645 16.1631 466.453 16.1631C466.989 16.1631 467.49 16.0488 467.956 15.8027C468.413 15.5654 468.747 15.3281 468.94 15.082L469.248 14.7305L470.057 15.5391C470.021 15.5918 469.969 15.6533 469.898 15.7412C469.828 15.8291 469.688 15.9697 469.459 16.1719C469.23 16.374 468.993 16.5498 468.729 16.708C468.466 16.8662 468.132 17.0068 467.719 17.1387C467.306 17.2705 466.884 17.332 466.453 17.332C465.275 17.332 464.256 16.9014 463.412 16.0225C462.56 15.1436 462.138 14.0801 462.138 12.832C462.138 11.584 462.551 10.5293 463.395 9.65039C464.238 8.77148 465.223 8.33203 466.365 8.33203C467.543 8.33203 468.527 8.74512 469.318 9.5625C470.109 10.3799 470.505 11.4082 470.505 12.6562L470.417 13.3066ZM466.365 9.50977C465.609 9.50977 464.95 9.78223 464.388 10.3096C463.825 10.8457 463.491 11.4785 463.395 12.208H469.248C469.151 11.4346 468.835 10.7842 468.299 10.2744C467.763 9.76465 467.121 9.50977 466.365 9.50977ZM474.012 14.7305V17.1562H472.755V8.5166H474.012V13.1045L478.327 8.5166H479.865L476.534 12.0234L480.226 17.1562H478.784L475.726 12.9287L474.012 14.7305ZM481.843 17.1562V8.5166H483.1V15.9873H487.872V8.5166H489.129V15.9873H490.482V19.3184H489.217V17.1562H481.843ZM498.938 8.5166H500.019V17.1562H498.753V10.6787L493.532 17.1562H492.46V8.5166H493.717V14.9941L498.938 8.5166ZM509.379 8.5166H510.46V17.1562H509.194V10.6787L503.974 17.1562H502.901V8.5166H504.158V14.9941L509.379 8.5166ZM527.335 7.67578L533.147 0.351562H536.335V17.1562H532.737V5.95312L527.335 12.832L521.944 6V17.1562H518.335V0.351562H521.581L527.335 7.67578ZM543.413 8.76562C543.413 10.3125 543.929 11.625 544.983 12.6797C546.026 13.7461 547.304 14.2734 548.804 14.2734C550.304 14.2734 551.581 13.7461 552.624 12.6797C553.679 11.625 554.194 10.3125 554.194 8.76562C554.194 7.21875 553.679 5.90625 552.624 4.83984C551.581 3.77344 550.304 3.23438 548.804 3.23438C547.304 3.23438 546.026 3.77344 544.983 4.83984C543.929 5.90625 543.413 7.21875 543.413 8.76562ZM539.687 8.75391C539.687 6.33984 540.565 4.27734 542.323 2.56641C544.081 0.855469 546.249 0 548.804 0C551.358 0 553.526 0.855469 555.284 2.56641C557.042 4.27734 557.921 6.33984 557.921 8.75391C557.921 11.168 557.042 13.2422 555.284 14.9531C553.526 16.6641 551.358 17.5195 548.804 17.5195C546.249 17.5195 544.081 16.6641 542.323 14.9531C540.565 13.2422 539.687 11.168 539.687 8.75391ZM561.296 0.351562H567.542C569.979 0.351562 572.03 1.17188 573.694 2.78906C575.347 4.41797 576.179 6.41016 576.179 8.75391C576.179 11.1094 575.347 13.1016 573.694 14.7188C572.03 16.3477 569.979 17.1562 567.542 17.1562H561.296V0.351562ZM567.542 3.59766H564.905V13.9219H567.542C568.925 13.9219 570.12 13.4297 571.104 12.4219C572.089 11.4258 572.581 10.207 572.581 8.76562C572.581 7.32422 572.101 6.10547 571.14 5.09766C570.179 4.10156 568.972 3.59766 567.542 3.59766ZM586.737 14.2734C587.757 14.2734 588.636 13.8984 589.362 13.1367C590.089 12.3867 590.452 11.4375 590.452 10.3125V0.351562H594.05V10.3125C594.05 12.3633 593.347 14.0742 591.964 15.457C590.569 16.8398 588.823 17.5312 586.726 17.5312C584.628 17.5312 582.882 16.8398 581.499 15.457C580.104 14.0742 579.413 12.3633 579.413 10.3125V0.351562H583.011V10.3125C583.011 11.4375 583.374 12.375 584.101 13.1367C584.827 13.8984 585.706 14.2734 586.737 14.2734ZM609.659 17.1562H598.257V0.351562H601.866V13.9219H609.659V17.1562ZM621.062 10.0781L619.022 4.55859L616.972 10.0781H621.062ZM622.257 13.1953H615.776L614.335 17.1562H610.491L617.101 0.351562H620.933L627.542 17.1562H623.698L622.257 13.1953ZM629.944 17.1562L629.933 0.351562H637.374C639.038 0.351562 640.421 0.890625 641.511 1.95703C642.601 3.02344 643.14 4.32422 643.14 5.87109C643.14 6.55078 643.034 7.17188 642.823 7.75781C642.612 8.34375 642.366 8.82422 642.085 9.17578C641.804 9.53906 641.511 9.84375 641.218 10.1016C640.913 10.3594 640.667 10.5352 640.456 10.6289L640.151 10.793L643.749 17.1562H639.905L636.671 11.2734H633.554V17.1562H629.944ZM639.542 5.87109C639.542 5.21484 639.331 4.67578 638.897 4.24219C638.464 3.82031 637.913 3.59766 637.257 3.59766H633.542V8.03906H637.257C637.913 8.03906 638.464 7.83984 638.897 7.41797C639.331 6.99609 639.542 6.48047 639.542 5.87109Z" fill="#111111"/>
<path d="M9.7207 74.5527V87.1562H8.36719V75.8184H1.35352V87.1562H0V74.5527H9.7207ZM19.8896 82.8408C19.8896 81.9092 19.5732 81.1182 18.958 80.4766C18.3428 79.835 17.5957 79.5098 16.7344 79.5098C15.873 79.5098 15.126 79.835 14.5107 80.4766C13.8955 81.1182 13.5879 81.9004 13.5879 82.832C13.5879 83.7637 13.8955 84.5459 14.5107 85.1963C15.126 85.8467 15.873 86.1631 16.7344 86.1631C17.5957 86.1631 18.3428 85.8467 18.958 85.2051C19.5732 84.5635 19.8896 83.7725 19.8896 82.8408ZM12.3311 82.8408C12.3311 81.5752 12.7529 80.5117 13.6143 79.6416C14.4756 78.7715 15.5127 78.332 16.7432 78.332C17.9648 78.332 19.002 78.7715 19.8545 79.6416C20.7158 80.5117 21.1377 81.5752 21.1377 82.8408C21.1377 84.1064 20.7158 85.1699 19.8545 86.04C19.002 86.9014 17.9648 87.3408 16.7432 87.3408C15.5127 87.3408 14.4756 86.9014 13.6143 86.04C12.7529 85.1699 12.3311 84.1064 12.3311 82.8408ZM28.626 80.7666C28.626 81.0566 28.5732 81.3203 28.4854 81.5576C28.3975 81.7861 28.2832 81.9707 28.1514 82.1025C28.0195 82.2344 27.8877 82.3486 27.7471 82.4365C27.6064 82.5244 27.501 82.5947 27.4131 82.6299L27.2725 82.665C27.3164 82.6738 27.3779 82.6914 27.457 82.709C27.5361 82.7266 27.668 82.7793 27.8613 82.876C28.0547 82.9727 28.2217 83.0869 28.3711 83.2275C28.5205 83.3682 28.6611 83.5703 28.7842 83.834C28.9072 84.0977 28.9775 84.3965 28.9775 84.7393C28.9775 85.4688 28.6875 86.084 28.1162 86.585C27.5361 87.0859 26.7188 87.3408 25.6553 87.3408C25.2422 87.3408 24.8555 87.2881 24.4863 87.1826C24.1172 87.0771 23.8184 86.9453 23.5723 86.8047C23.3262 86.6553 23.1064 86.5059 22.9307 86.3564C22.7549 86.207 22.623 86.084 22.5352 85.9785L22.4121 85.8115L23.2207 85.0029C23.291 85.082 23.3877 85.1875 23.5107 85.3193C23.6338 85.46 23.915 85.6357 24.3369 85.8467C24.7588 86.0576 25.1982 86.1631 25.6553 86.1631C26.3408 86.1631 26.8506 86.0312 27.2021 85.7676C27.5449 85.5039 27.7207 85.1611 27.7207 84.7305C27.7207 84.2998 27.5449 83.9482 27.1934 83.6846C26.8418 83.4209 26.332 83.2891 25.6553 83.2891H24.6621V82.1201H25.6553C26.165 82.1201 26.5781 81.9883 26.8945 81.7246C27.2021 81.4609 27.3604 81.1357 27.3604 80.7666C27.3604 80.3975 27.2109 80.0898 26.9297 79.8613C26.6396 79.6328 26.2178 79.5186 25.6553 79.5186C25.251 79.5186 24.873 79.5977 24.5127 79.7559C24.1523 79.9141 23.8975 80.0811 23.748 80.248L23.4932 80.4941L22.5879 79.5977C22.667 79.5098 22.79 79.3867 22.9482 79.2461C23.1064 79.1055 23.4492 78.9209 23.9766 78.6836C24.5039 78.4551 25.0576 78.332 25.6553 78.332C26.5342 78.332 27.2461 78.5781 27.7998 79.0527C28.3447 79.5361 28.626 80.1074 28.626 80.7666ZM37.5381 87.1562V83.377H32.5898V87.1562H31.333V78.5166H32.5898V82.208H37.5381V78.5166H38.8037V87.1562H37.5381ZM43.5762 82.208L46.9072 81.6631C46.9072 81.0303 46.7051 80.5117 46.3008 80.1074C45.8965 79.7119 45.3779 79.5098 44.7451 79.5098C44.2881 79.5098 43.8574 79.6152 43.4531 79.8262C43.0488 80.0371 42.7588 80.248 42.583 80.459L42.3105 80.7666L41.502 79.958C41.5371 79.9141 41.5811 79.8525 41.6426 79.7822C41.7041 79.7119 41.8359 79.5801 42.0469 79.3955C42.2578 79.2109 42.4775 79.0439 42.7061 78.8945C42.9346 78.7539 43.2334 78.6221 43.6025 78.5078C43.9717 78.3936 44.3584 78.332 44.7451 78.332C45.7295 78.332 46.5381 78.6572 47.1885 79.29C47.8389 79.9316 48.1641 80.7227 48.1641 81.6631V87.1562H46.9072V85.9873C46.8809 86.0225 46.8457 86.0752 46.793 86.1367C46.7402 86.1982 46.6348 86.3037 46.459 86.4619C46.2832 86.6201 46.0986 86.752 45.9053 86.875C45.7031 86.998 45.4395 87.1035 45.1143 87.1914C44.7891 87.2881 44.4551 87.332 44.1123 87.332C43.251 87.332 42.5215 87.0771 41.9326 86.5674C41.3438 86.0576 41.0537 85.4775 41.0537 84.8184C41.0537 84.0977 41.2646 83.5176 41.7041 83.0781C42.1348 82.6387 42.7588 82.3486 43.5762 82.208ZM44.1123 86.1631C44.9209 86.1631 45.5889 85.8994 46.1162 85.3633C46.6436 84.8359 46.9072 84.1416 46.9072 83.2891V82.7441L43.9365 83.2891C42.8555 83.5 42.3105 84.0098 42.3105 84.8184C42.3105 85.2051 42.4688 85.5303 42.7852 85.7852C43.1016 86.04 43.5498 86.1631 44.1123 86.1631ZM52.2949 84.7305V87.1562H51.0381V78.5166H52.2949V83.1045L56.6104 78.5166H58.1484L54.8174 82.0234L58.5088 87.1562H57.0674L54.0088 82.9287L52.2949 84.7305ZM66.6826 82.8408C66.6826 81.9092 66.3662 81.1182 65.751 80.4766C65.1357 79.835 64.3887 79.5098 63.5273 79.5098C62.666 79.5098 61.9189 79.835 61.3037 80.4766C60.6885 81.1182 60.3809 81.9004 60.3809 82.832C60.3809 83.7637 60.6885 84.5459 61.3037 85.1963C61.9189 85.8467 62.666 86.1631 63.5273 86.1631C64.3887 86.1631 65.1357 85.8467 65.751 85.2051C66.3662 84.5635 66.6826 83.7725 66.6826 82.8408ZM59.124 82.8408C59.124 81.5752 59.5459 80.5117 60.4072 79.6416C61.2686 78.7715 62.3057 78.332 63.5361 78.332C64.7578 78.332 65.7949 78.7715 66.6475 79.6416C67.5088 80.5117 67.9307 81.5752 67.9307 82.8408C67.9307 84.1064 67.5088 85.1699 66.6475 86.04C65.7949 86.9014 64.7578 87.3408 63.5361 87.3408C62.3057 87.3408 61.2686 86.9014 60.4072 86.04C59.5459 85.1699 59.124 84.1064 59.124 82.8408ZM77.7568 80.7666L74.6016 84.7305L71.4551 80.7666V87.1562H70.1982V78.5166H71.1826L74.6016 82.832L78.0205 78.5166H79.0137V87.1562H77.7568V80.7666ZM88.3828 78.5166H89.4639V87.1562H88.1982V80.6787L82.9775 87.1562H81.9053V78.5166H83.1621V84.9941L88.3828 78.5166ZM91.2656 79.6855V78.5166H98.6396V79.6855H95.5811V87.1562H94.3242V79.6855H91.2656ZM101.707 85.9873H103.975C104.537 85.9873 104.985 85.8291 105.328 85.5127C105.671 85.1963 105.847 84.7832 105.847 84.2734C105.847 83.7725 105.671 83.3594 105.328 83.043C104.985 82.7266 104.528 82.5684 103.957 82.5684H101.707V85.9873ZM107.104 84.2822C107.104 85.1436 106.822 85.8379 106.269 86.3652C105.706 86.8926 104.941 87.1562 103.975 87.1562H100.45V78.5166H101.707V81.3994H103.957C104.924 81.3994 105.697 81.6631 106.26 82.1904C106.822 82.7178 107.104 83.4209 107.104 84.2822ZM108.729 82.832C108.729 81.584 109.151 80.5293 110.004 79.6504C110.856 78.7715 111.867 78.332 113.036 78.332C113.713 78.332 114.346 78.4814 114.926 78.7715C115.506 79.0615 115.928 79.3516 116.174 79.6328L116.552 80.0459L115.646 80.9424C115.629 80.9072 115.594 80.8633 115.541 80.793C115.497 80.7314 115.392 80.6172 115.233 80.4414C115.075 80.2744 114.899 80.125 114.715 80.002C114.521 79.8789 114.284 79.7646 113.985 79.6592C113.687 79.5625 113.37 79.5098 113.045 79.5098C112.219 79.5098 111.498 79.835 110.892 80.4766C110.285 81.1182 109.986 81.9092 109.986 82.8408C109.986 83.7725 110.285 84.5635 110.892 85.2051C111.498 85.8467 112.219 86.1631 113.045 86.1631C113.546 86.1631 114.021 86.0488 114.478 85.8027C114.926 85.5654 115.251 85.3281 115.453 85.082L115.743 84.7305L116.64 85.5391C116.604 85.5918 116.552 85.6533 116.481 85.7412C116.411 85.8291 116.253 85.9697 116.016 86.1719C115.787 86.374 115.541 86.5498 115.277 86.708C115.022 86.8662 114.688 87.0068 114.284 87.1387C113.88 87.2705 113.467 87.332 113.045 87.332C111.867 87.332 110.848 86.9014 110.004 86.0225C109.151 85.1436 108.729 84.0801 108.729 82.832ZM118.081 81.3994C118.081 80.5732 118.371 79.8877 118.951 79.3428C119.531 78.7979 120.296 78.5166 121.236 78.5166H124.919V87.1562H123.662V84.2734H121.14L119.347 87.1562H117.905L119.883 84.0098C119.83 84.001 119.769 83.9834 119.681 83.9482C119.593 83.9131 119.452 83.834 119.25 83.7109C119.039 83.5879 118.863 83.4297 118.705 83.2539C118.547 83.0781 118.406 82.8232 118.274 82.5068C118.143 82.1816 118.081 81.8125 118.081 81.3994ZM123.662 79.6855L121.236 79.6943C120.656 79.6943 120.199 79.8525 119.856 80.1689C119.514 80.4854 119.347 80.8984 119.347 81.3994C119.347 81.9092 119.514 82.3135 119.856 82.6299C120.19 82.9463 120.656 83.1045 121.236 83.1045H123.662V79.6855ZM130.597 82.832C130.597 81.584 131.019 80.5293 131.871 79.6504C132.724 78.7715 133.734 78.332 134.903 78.332C135.58 78.332 136.213 78.4814 136.793 78.7715C137.373 79.0615 137.795 79.3516 138.041 79.6328L138.419 80.0459L137.514 80.9424C137.496 80.9072 137.461 80.8633 137.408 80.793C137.364 80.7314 137.259 80.6172 137.101 80.4414C136.942 80.2744 136.767 80.125 136.582 80.002C136.389 79.8789 136.151 79.7646 135.853 79.6592C135.554 79.5625 135.237 79.5098 134.912 79.5098C134.086 79.5098 133.365 79.835 132.759 80.4766C132.152 81.1182 131.854 81.9092 131.854 82.8408C131.854 83.7725 132.152 84.5635 132.759 85.2051C133.365 85.8467 134.086 86.1631 134.912 86.1631C135.413 86.1631 135.888 86.0488 136.345 85.8027C136.793 85.5654 137.118 85.3281 137.32 85.082L137.61 84.7305L138.507 85.5391C138.472 85.5918 138.419 85.6533 138.349 85.7412C138.278 85.8291 138.12 85.9697 137.883 86.1719C137.654 86.374 137.408 86.5498 137.145 86.708C136.89 86.8662 136.556 87.0068 136.151 87.1387C135.747 87.2705 135.334 87.332 134.912 87.332C133.734 87.332 132.715 86.9014 131.871 86.0225C131.019 85.1436 130.597 84.0801 130.597 82.832ZM150.126 87.1562V83.377H145.178V87.1562H143.921V78.5166H145.178V82.208H150.126V78.5166H151.392V87.1562H150.126ZM156.164 82.208L159.495 81.6631C159.495 81.0303 159.293 80.5117 158.889 80.1074C158.484 79.7119 157.966 79.5098 157.333 79.5098C156.876 79.5098 156.445 79.6152 156.041 79.8262C155.637 80.0371 155.347 80.248 155.171 80.459L154.898 80.7666L154.09 79.958C154.125 79.9141 154.169 79.8525 154.23 79.7822C154.292 79.7119 154.424 79.5801 154.635 79.3955C154.846 79.2109 155.065 79.0439 155.294 78.8945C155.522 78.7539 155.821 78.6221 156.19 78.5078C156.56 78.3936 156.946 78.332 157.333 78.332C158.317 78.332 159.126 78.6572 159.776 79.29C160.427 79.9316 160.752 80.7227 160.752 81.6631V87.1562H159.495V85.9873C159.469 86.0225 159.434 86.0752 159.381 86.1367C159.328 86.1982 159.223 86.3037 159.047 86.4619C158.871 86.6201 158.687 86.752 158.493 86.875C158.291 86.998 158.027 87.1035 157.702 87.1914C157.377 87.2881 157.043 87.332 156.7 87.332C155.839 87.332 155.109 87.0771 154.521 86.5674C153.932 86.0576 153.642 85.4775 153.642 84.8184C153.642 84.0977 153.853 83.5176 154.292 83.0781C154.723 82.6387 155.347 82.3486 156.164 82.208ZM156.7 86.1631C157.509 86.1631 158.177 85.8994 158.704 85.3633C159.231 84.8359 159.495 84.1416 159.495 83.2891V82.7441L156.524 83.2891C155.443 83.5 154.898 84.0098 154.898 84.8184C154.898 85.2051 155.057 85.5303 155.373 85.7852C155.689 86.04 156.138 86.1631 156.7 86.1631ZM171.185 80.7666L168.029 84.7305L164.883 80.7666V87.1562H163.626V78.5166H164.61L168.029 82.832L171.448 78.5166H172.441V87.1562H171.185V80.7666ZM181.811 78.5166H182.892V87.1562H181.626V80.6787L176.405 87.1562H175.333V78.5166H176.59V84.9941L181.811 78.5166ZM195.407 87.1562V79.7031H190.459V87.1562H189.202V78.5166H196.673V87.1562H195.407ZM206.481 82.8408C206.481 81.9092 206.165 81.1182 205.55 80.4766C204.935 79.835 204.188 79.5098 203.326 79.5098C202.465 79.5098 201.718 79.835 201.103 80.4766C200.487 81.1182 200.18 81.9004 200.18 82.832C200.18 83.7637 200.487 84.5459 201.103 85.1963C201.718 85.8467 202.465 86.1631 203.326 86.1631C204.188 86.1631 204.935 85.8467 205.55 85.2051C206.165 84.5635 206.481 83.7725 206.481 82.8408ZM198.923 82.8408C198.923 81.5752 199.345 80.5117 200.206 79.6416C201.067 78.7715 202.104 78.332 203.335 78.332C204.557 78.332 205.594 78.7715 206.446 79.6416C207.308 80.5117 207.729 81.5752 207.729 82.8408C207.729 84.1064 207.308 85.1699 206.446 86.04C205.594 86.9014 204.557 87.3408 203.335 87.3408C202.104 87.3408 201.067 86.9014 200.206 86.04C199.345 85.1699 198.923 84.1064 198.923 82.8408ZM218.18 83.0166C218.18 84.2295 217.767 85.2578 216.949 86.084C216.123 86.9189 215.13 87.332 213.952 87.332C212.678 87.332 211.641 86.8486 210.841 85.8818C210.032 84.915 209.637 83.5352 209.637 81.7598C209.637 77.7871 211.104 75.5371 214.04 75.0098C214.673 74.9043 215.244 74.7725 215.745 74.5967C216.237 74.4297 216.571 74.2891 216.747 74.1748L217.011 74.0166L217.644 75.0098C217.16 75.4316 216.018 75.8271 214.225 76.1787C213.275 76.3721 212.502 76.8291 211.922 77.5322C211.342 78.2354 211.025 79.1934 210.981 80.4062C210.999 80.3623 211.043 80.3008 211.096 80.2217C211.148 80.1426 211.271 80.0107 211.456 79.8174C211.641 79.624 211.843 79.457 212.071 79.2988C212.291 79.1494 212.581 79.0088 212.933 78.8857C213.284 78.7627 213.653 78.6924 214.04 78.6924C215.183 78.6924 216.158 79.1143 216.967 79.958C217.775 80.8018 218.18 81.8213 218.18 83.0166ZM210.981 83.0166C210.981 83.9131 211.271 84.6602 211.852 85.2578C212.432 85.8643 213.135 86.1631 213.952 86.1631C214.761 86.1631 215.464 85.8643 216.044 85.2578C216.624 84.6602 216.923 83.9131 216.923 83.0166C216.923 82.1289 216.624 81.3818 216.044 80.7754C215.464 80.1777 214.761 79.8701 213.952 79.8701C213.135 79.8701 212.432 80.1777 211.852 80.7754C211.271 81.3818 210.981 82.1289 210.981 83.0166ZM221.423 78.5166L227.725 78.5254V87.165H226.459V79.6943H222.68V81.0479C222.68 82.3135 222.609 83.377 222.486 84.2207C222.363 85.0645 222.17 85.7148 221.924 86.1543C221.669 86.5938 221.388 86.9014 221.089 87.0771C220.781 87.2529 220.412 87.3408 219.981 87.3408C219.832 87.3408 219.683 87.3232 219.533 87.2969C219.384 87.2617 219.278 87.2354 219.208 87.2002L219.085 87.165V85.9082C219.322 86.0225 219.56 86.084 219.806 86.084C220.175 86.084 220.465 85.9785 220.676 85.7676C220.887 85.5566 221.062 85.0645 221.203 84.3086C221.344 83.5439 221.423 82.4541 221.423 81.0391V78.5166ZM237.076 78.5166H238.157V87.1562H236.892V80.6787L231.671 87.1562H230.599V78.5166H231.855V84.9941L237.076 78.5166ZM245.54 84.2734L244.274 82.9287L241.216 87.1562H239.774L243.466 82.0234L240.135 78.5166H241.664L245.54 82.6562V78.5166H246.797V82.6562L250.664 78.5166H252.193L248.862 82.0234L252.554 87.1562H251.112L248.054 82.9287L246.797 84.2734V87.1562H245.54V84.2734ZM261.835 83.3066L254.812 83.2891C254.856 84.0713 255.173 84.748 255.771 85.3105C256.368 85.8818 257.062 86.1631 257.871 86.1631C258.407 86.1631 258.908 86.0488 259.374 85.8027C259.831 85.5654 260.165 85.3281 260.358 85.082L260.666 84.7305L261.475 85.5391C261.439 85.5918 261.387 85.6533 261.316 85.7412C261.246 85.8291 261.105 85.9697 260.877 86.1719C260.648 86.374 260.411 86.5498 260.147 86.708C259.884 86.8662 259.55 87.0068 259.137 87.1387C258.724 87.2705 258.302 87.332 257.871 87.332C256.693 87.332 255.674 86.9014 254.83 86.0225C253.978 85.1436 253.556 84.0801 253.556 82.832C253.556 81.584 253.969 80.5293 254.812 79.6504C255.656 78.7715 256.641 78.332 257.783 78.332C258.961 78.332 259.945 78.7451 260.736 79.5625C261.527 80.3799 261.923 81.4082 261.923 82.6562L261.835 83.3066ZM257.783 79.5098C257.027 79.5098 256.368 79.7822 255.806 80.3096C255.243 80.8457 254.909 81.4785 254.812 82.208H260.666C260.569 81.4346 260.253 80.7842 259.717 80.2744C259.181 79.7646 258.539 79.5098 257.783 79.5098Z" fill="#111111"/>
</svg>
