<svg width="668" height="271" viewBox="0 0 668 271" fill="none" xmlns="http://www.w3.org/2000/svg">
<path d="M357.289 49.1401C357.289 33.6048 368.59 22.4766 381.442 22.4766C390.639 22.4766 397.397 27.6551 399.835 31.6215H399.946V0H408.809V74.812H399.946V66.6587H399.835C397.397 70.6251 390.749 75.8036 381.442 75.8036C368.59 75.8036 357.289 64.6754 357.289 49.1401ZM399.946 49.1401C399.946 38.4527 392.19 30.7401 382.994 30.7401C373.908 30.7401 366.152 38.4527 366.152 49.1401C366.152 59.8275 373.908 67.5401 382.994 67.5401C392.19 67.5401 399.946 59.8275 399.946 49.1401Z" fill="#111111"/>
<path d="M421.995 49.1405C421.995 33.9357 433.74 22.4771 447.811 22.4771C461.771 22.4771 472.519 33.1645 472.519 48.1489C472.519 50.022 472.297 51.5645 472.186 52.4459H431.081C432.188 60.8195 439.39 67.6507 448.697 67.6507C455.899 67.6507 460.774 63.9046 463.877 60.5992L469.749 65.998C466.203 70.6256 459.001 75.9142 448.254 75.9142C433.85 75.804 421.995 64.1249 421.995 49.1405ZM463.544 45.0639C462.104 36.2495 456.453 30.41 447.811 30.41C438.836 30.41 432.521 36.8004 431.081 45.0639H463.544Z" fill="#111111"/>
<path d="M480.828 66.5492L486.59 60.9301C489.138 63.9049 494.456 67.8714 500.55 67.8714C507.419 67.8714 511.076 64.3457 511.076 60.0486C511.076 50.0223 482.933 54.8702 482.933 37.0211C482.933 29.3085 489.913 22.3672 501.104 22.3672C509.746 22.3672 515.618 26.4438 518.61 29.5289L512.849 35.148C510.633 33.0546 506.533 30.3001 501.104 30.3001C495.01 30.3001 491.797 33.4953 491.797 36.9109C491.797 46.6067 519.94 41.869 519.94 59.9385C519.94 68.5325 512.516 75.8043 500.55 75.8043C491.132 75.8043 483.93 70.6259 480.828 66.5492Z" fill="#111111"/>
<path d="M532.017 7.38252C532.017 4.18731 534.676 1.87354 537.556 1.87354C540.326 1.87354 542.986 4.18731 542.986 7.38252C542.986 10.5777 540.326 12.8915 537.556 12.8915C534.676 13.0017 532.017 10.6879 532.017 7.38252ZM533.235 74.8125V23.4687H542.099V74.8125H533.235Z" fill="#111111"/>
<path d="M557.279 86.6018L563.483 80.9826C565.81 84.3982 572.236 89.0257 579.438 89.0257C589.521 89.0257 596.058 81.6437 596.058 70.9563V65.0066H595.947C592.844 69.8545 586.197 73.9311 578.552 73.9311C565.921 73.9311 555.173 63.2437 555.173 48.2593C555.173 33.2748 565.921 22.5874 578.552 22.5874C587.194 22.5874 593.62 27.6557 595.947 31.4018H596.058V23.4688H604.921V70.8461C604.921 86.0509 594.396 97.2892 579.438 97.2892C569.134 97.2892 560.381 91.1191 557.279 86.6018ZM596.058 48.0389C596.058 37.9024 588.967 30.7407 579.881 30.7407C571.128 30.7407 563.926 37.9024 563.926 48.0389C563.926 58.1754 571.128 65.3371 579.881 65.3371C588.967 65.3371 596.058 58.1754 596.058 48.0389Z" fill="#111111"/>
<path d="M621.098 74.8124V23.4687H629.961V31.2914H630.072C632.399 27.4351 638.493 22.4771 646.581 22.4771C658.436 22.4771 667.079 31.1812 667.079 44.7333V74.9226H658.326V44.7333C658.326 36.3597 652.786 30.8507 645.03 30.8507C636.388 30.8507 629.851 37.4615 629.851 46.8268V74.9226H621.098V74.8124Z" fill="#111111"/>
<path d="M366.264 168.465L366.153 176.619H357.289V101.807H366.153V133.428H366.264C368.59 129.462 375.349 124.283 384.545 124.283C397.398 124.283 408.699 135.522 408.699 150.947C408.699 166.482 397.398 177.72 384.545 177.72C375.349 177.72 368.59 172.432 366.264 168.465ZM399.946 150.947C399.946 140.259 392.19 132.547 383.105 132.547C373.798 132.547 366.153 140.259 366.153 150.947C366.153 161.634 373.798 169.347 383.105 169.347C392.19 169.347 399.946 161.634 399.946 150.947Z" fill="#111111"/>
<path d="M420.998 155.464V125.275H429.861V155.464C429.861 163.838 435.29 169.347 443.046 169.347C451.688 169.347 458.336 162.736 458.336 153.371V125.275H467.089V176.619H458.336V168.796H458.225C455.899 172.652 449.694 177.72 441.717 177.72C429.75 177.72 420.998 168.906 420.998 155.464Z" fill="#111111"/>
<path d="M483.044 176.617V125.274H491.908V132.766H492.019C494.345 129.13 500.328 124.172 508.306 124.172H510.743V133.207L507.198 132.876C498.777 132.876 491.797 139.817 491.797 149.403V176.617H483.044Z" fill="#111111"/>
<path d="M108.438 123.952C108.438 153.259 84.9489 176.618 54.258 176.618C23.678 176.618 0.078125 153.259 0.078125 123.952C0.078125 109.408 7.39076 95.8558 11.8227 88.8043L61.2383 10.3564H74.2016L32.9849 75.9133C36.5305 73.8199 44.7295 71.2858 54.1473 71.2858C84.8381 71.2858 108.438 94.6439 108.438 123.952ZM96.5827 123.952C96.5827 100.594 78.9659 82.9648 54.258 82.9648C29.5502 82.9648 11.9334 100.483 11.9334 123.952C11.9334 147.42 29.5502 164.939 54.258 164.939C78.9659 164.828 96.5827 147.31 96.5827 123.952Z" fill="#111111"/>
<path d="M148.436 184V0H158.961V184H148.436Z" fill="#111111"/>
<path d="M201.396 152.048L209.595 143.894C215.689 153.039 231.201 164.939 251.92 164.939C277.847 164.939 295.463 147.42 295.463 123.952C295.463 100.594 277.847 82.965 254.247 82.965C234.525 82.965 221.008 94.2033 216.576 102.908H207.269L213.141 10.4668H296.682V22.1458H223.667L220.121 84.177C225.772 78.5578 238.957 71.2859 254.247 71.2859C283.719 71.2859 307.208 94.644 307.208 123.952C307.208 153.26 283.719 176.618 251.92 176.618C226.991 176.618 208.488 162.515 201.396 152.048Z" fill="#111111"/>
<path d="M542.542 169.897C537.445 169.897 533.124 168.024 529.468 164.167C525.811 160.421 524.039 155.794 524.039 150.395C524.039 144.886 525.811 140.369 529.468 136.623C533.124 132.876 537.445 131.003 542.542 131.003C547.638 131.003 551.96 132.876 555.616 136.623C559.272 140.369 561.045 144.996 561.045 150.505C561.045 156.014 559.272 160.642 555.616 164.388C551.96 168.024 547.638 169.897 542.542 169.897ZM542.542 176.728C549.744 176.728 555.838 174.194 560.934 169.126C565.92 164.057 568.468 157.777 568.468 150.395C568.468 143.013 565.92 136.733 560.934 131.664C555.948 126.596 549.744 124.062 542.542 124.062C535.34 124.062 529.246 126.596 524.149 131.664C519.053 136.733 516.615 143.013 516.615 150.395C516.615 157.777 519.164 164.057 524.149 169.126C529.246 174.194 535.34 176.728 542.542 176.728Z" fill="#111111"/>
<path d="M7.03906 223.797V224.844H0.796875V223.797H7.03906ZM18.1719 225.156C18.1719 226.266 17.7891 227.211 17.0312 227.992C16.2734 228.773 15.375 229.164 14.3359 229.164C13.9609 229.164 13.5938 229.102 13.2344 228.992C12.875 228.883 12.5781 228.75 12.3281 228.594C12.0781 228.438 11.8672 228.289 11.6797 228.133C11.4922 227.977 11.3516 227.844 11.2578 227.727L11.1328 227.57L11.9297 226.852C11.9453 226.883 11.9844 226.922 12.0312 226.984C12.0781 227.039 12.1797 227.141 12.3359 227.289C12.4922 227.445 12.6562 227.578 12.8281 227.688C13 227.797 13.2188 227.898 13.4922 227.984C13.7578 228.078 14.0391 228.117 14.3359 228.117C15.0078 228.117 15.6016 227.867 16.1328 227.359C16.6562 226.859 16.9609 226.258 17.0547 225.562H13.2109V224.523H16.9688C16.8828 223.906 16.5859 223.367 16.0859 222.898C15.5781 222.438 14.9922 222.203 14.3359 222.203C14.0469 222.203 13.7734 222.25 13.5078 222.328C13.2422 222.414 13.0234 222.523 12.8438 222.648C12.6719 222.781 12.5156 222.914 12.3828 223.039C12.25 223.164 12.1484 223.273 12.0859 223.352L12.0078 223.477L11.2031 222.68C11.2344 222.641 11.2812 222.586 11.3438 222.516C11.4062 222.445 11.5312 222.328 11.7266 222.156C11.9297 221.984 12.1406 221.836 12.3594 221.695C12.5859 221.562 12.875 221.438 13.2344 221.328C13.5938 221.219 13.9609 221.156 14.3359 221.156C15.3828 221.156 16.2812 221.547 17.0391 222.328C17.7891 223.109 18.1719 224.047 18.1719 225.156ZM19.2109 222.359V221.32H25.7656V222.359H23.0469V229H21.9297V222.359H19.2109ZM33.5312 225.164C33.5312 224.336 33.25 223.633 32.7031 223.062C32.1562 222.492 31.4922 222.203 30.7266 222.203C29.9609 222.203 29.2969 222.492 28.75 223.062C28.2031 223.633 27.9297 224.328 27.9297 225.156C27.9297 225.984 28.2031 226.68 28.75 227.258C29.2969 227.836 29.9609 228.117 30.7266 228.117C31.4922 228.117 32.1562 227.836 32.7031 227.266C33.25 226.695 33.5312 225.992 33.5312 225.164ZM26.8125 225.164C26.8125 224.039 27.1875 223.094 27.9531 222.32C28.7188 221.547 29.6406 221.156 30.7344 221.156C31.8203 221.156 32.7422 221.547 33.5 222.32C34.2656 223.094 34.6406 224.039 34.6406 225.164C34.6406 226.289 34.2656 227.234 33.5 228.008C32.7422 228.773 31.8203 229.164 30.7344 229.164C29.6406 229.164 28.7188 228.773 27.9531 228.008C27.1875 227.234 26.8125 226.289 26.8125 225.164ZM39.1406 225.156C39.1406 224.047 39.5156 223.109 40.2734 222.328C41.0312 221.547 41.9297 221.156 42.9688 221.156C43.5703 221.156 44.1328 221.289 44.6484 221.547C45.1641 221.805 45.5391 222.062 45.7578 222.312L46.0938 222.68L45.2891 223.477C45.2734 223.445 45.2422 223.406 45.1953 223.344C45.1562 223.289 45.0625 223.188 44.9219 223.031C44.7812 222.883 44.625 222.75 44.4609 222.641C44.2891 222.531 44.0781 222.43 43.8125 222.336C43.5469 222.25 43.2656 222.203 42.9766 222.203C42.2422 222.203 41.6016 222.492 41.0625 223.062C40.5234 223.633 40.2578 224.336 40.2578 225.164C40.2578 225.992 40.5234 226.695 41.0625 227.266C41.6016 227.836 42.2422 228.117 42.9766 228.117C43.4219 228.117 43.8438 228.016 44.25 227.797C44.6484 227.586 44.9375 227.375 45.1172 227.156L45.375 226.844L46.1719 227.562C46.1406 227.609 46.0938 227.664 46.0312 227.742C45.9688 227.82 45.8281 227.945 45.6172 228.125C45.4141 228.305 45.1953 228.461 44.9609 228.602C44.7344 228.742 44.4375 228.867 44.0781 228.984C43.7188 229.102 43.3516 229.156 42.9766 229.156C41.9297 229.156 41.0234 228.773 40.2734 227.992C39.5156 227.211 39.1406 226.266 39.1406 225.156ZM46.9766 222.359V221.32H53.5312V222.359H50.8125V229H49.6953V222.359H46.9766ZM56.8203 230.117L57.2188 229L54.0938 221.32H55.2969L57.7812 227.562L60.2578 221.32H61.4609L57.9375 230.117C57.6172 230.93 57.2734 231.508 56.9141 231.852C56.5469 232.195 56.0859 232.359 55.5312 232.359C55.3594 232.359 55.1953 232.352 55.0391 232.32C54.8828 232.297 54.7578 232.266 54.6797 232.234L54.5703 232.203V231.156C54.8359 231.266 55.1016 231.32 55.3672 231.32C56.0469 231.32 56.5312 230.922 56.8203 230.117ZM70.1016 227.961V230.922H68.9844V229H62.8203V230.922H61.7031V227.961H62.2578C62.2891 227.93 62.3359 227.883 62.3984 227.805C62.4609 227.727 62.5781 227.555 62.7344 227.289C62.8906 227.023 63.0234 226.742 63.1484 226.43C63.2734 226.117 63.3828 225.703 63.4766 225.188C63.5703 224.672 63.625 224.125 63.625 223.562V221.32H68.8984V227.961H70.1016ZM64.7422 222.359L64.7344 223.562C64.7344 224.438 64.6328 225.242 64.4141 225.969C64.2031 226.703 63.9922 227.219 63.7812 227.516L63.4609 227.961H67.7812V222.359H64.7422ZM77.6172 221.32H78.5781V229H77.4531V223.242L72.8125 229H71.8594V221.32H72.9766V227.078L77.6172 221.32ZM80.6562 223.883C80.6562 223.148 80.9141 222.539 81.4297 222.055C81.9453 221.57 82.625 221.32 83.4609 221.32H86.7344V229H85.6172V226.438H83.375L81.7812 229H80.5L82.2578 226.203C82.2109 226.195 82.1562 226.18 82.0781 226.148C82 226.117 81.875 226.047 81.6953 225.938C81.5078 225.828 81.3516 225.688 81.2109 225.531C81.0703 225.375 80.9453 225.148 80.8281 224.867C80.7109 224.578 80.6562 224.25 80.6562 223.883ZM85.6172 222.359L83.4609 222.367C82.9453 222.367 82.5391 222.508 82.2344 222.789C81.9297 223.07 81.7812 223.438 81.7812 223.883C81.7812 224.336 81.9297 224.695 82.2344 224.977C82.5312 225.258 82.9453 225.398 83.4609 225.398H85.6172V222.359ZM97.8594 229V222.375H93.4609V229H92.3438V221.32H98.9844V229H97.8594ZM102.664 225.164C102.664 225.953 102.938 226.641 103.5 227.234C104.062 227.828 104.688 228.117 105.383 228.117C106.039 228.117 106.633 227.836 107.156 227.258C107.68 226.68 107.945 225.984 107.945 225.164C107.945 224.344 107.68 223.648 107.156 223.07C106.633 222.492 106.039 222.203 105.383 222.203C104.688 222.203 104.062 222.5 103.5 223.094C102.938 223.688 102.664 224.375 102.664 225.164ZM102.664 227.797V232.367H101.547V221.328H102.664V222.531C102.68 222.5 102.719 222.445 102.773 222.383C102.828 222.32 102.938 222.211 103.109 222.055C103.281 221.898 103.461 221.758 103.664 221.633C103.859 221.508 104.109 221.398 104.422 221.305C104.734 221.211 105.055 221.164 105.383 221.164C106.359 221.164 107.219 221.555 107.953 222.344C108.688 223.125 109.062 224.07 109.062 225.164C109.062 226.258 108.695 227.203 107.961 227.984C107.227 228.766 106.367 229.156 105.383 229.156C105.055 229.156 104.734 229.109 104.43 229.016C104.125 228.922 103.867 228.812 103.664 228.68C103.453 228.555 103.273 228.422 103.117 228.289C102.961 228.156 102.852 228.039 102.773 227.945L102.664 227.797ZM117.859 225.578L111.617 225.562C111.656 226.258 111.938 226.859 112.469 227.359C113 227.867 113.617 228.117 114.336 228.117C114.812 228.117 115.258 228.016 115.672 227.797C116.078 227.586 116.375 227.375 116.547 227.156L116.82 226.844L117.539 227.562C117.508 227.609 117.461 227.664 117.398 227.742C117.336 227.82 117.211 227.945 117.008 228.125C116.805 228.305 116.594 228.461 116.359 228.602C116.125 228.742 115.828 228.867 115.461 228.984C115.094 229.102 114.719 229.156 114.336 229.156C113.289 229.156 112.383 228.773 111.633 227.992C110.875 227.211 110.5 226.266 110.5 225.156C110.5 224.047 110.867 223.109 111.617 222.328C112.367 221.547 113.242 221.156 114.258 221.156C115.305 221.156 116.18 221.523 116.883 222.25C117.586 222.977 117.938 223.891 117.938 225L117.859 225.578ZM114.258 222.203C113.586 222.203 113 222.445 112.5 222.914C112 223.391 111.703 223.953 111.617 224.602H116.82C116.734 223.914 116.453 223.336 115.977 222.883C115.5 222.43 114.93 222.203 114.258 222.203ZM127.055 227.961V230.922H125.938V229H119.773V230.922H118.656V227.961H119.211C119.242 227.93 119.289 227.883 119.352 227.805C119.414 227.727 119.531 227.555 119.688 227.289C119.844 227.023 119.977 226.742 120.102 226.43C120.227 226.117 120.336 225.703 120.43 225.188C120.523 224.672 120.578 224.125 120.578 223.562V221.32H125.852V227.961H127.055ZM121.695 222.359L121.688 223.562C121.688 224.438 121.586 225.242 121.367 225.969C121.156 226.703 120.945 227.219 120.734 227.516L120.414 227.961H124.734V222.359H121.695ZM135.531 223.32L132.727 226.844L129.93 223.32V229H128.812V221.32H129.688L132.727 225.156L135.766 221.32H136.648V229H135.531V223.32ZM146.016 225.578L139.773 225.562C139.812 226.258 140.094 226.859 140.625 227.359C141.156 227.867 141.773 228.117 142.492 228.117C142.969 228.117 143.414 228.016 143.828 227.797C144.234 227.586 144.531 227.375 144.703 227.156L144.977 226.844L145.695 227.562C145.664 227.609 145.617 227.664 145.555 227.742C145.492 227.82 145.367 227.945 145.164 228.125C144.961 228.305 144.75 228.461 144.516 228.602C144.281 228.742 143.984 228.867 143.617 228.984C143.25 229.102 142.875 229.156 142.492 229.156C141.445 229.156 140.539 228.773 139.789 227.992C139.031 227.211 138.656 226.266 138.656 225.156C138.656 224.047 139.023 223.109 139.773 222.328C140.523 221.547 141.398 221.156 142.414 221.156C143.461 221.156 144.336 221.523 145.039 222.25C145.742 222.977 146.094 223.891 146.094 225L146.016 225.578ZM142.414 222.203C141.742 222.203 141.156 222.445 140.656 222.914C140.156 223.391 139.859 223.953 139.773 224.602H144.977C144.891 223.914 144.609 223.336 144.133 222.883C143.656 222.43 143.086 222.203 142.414 222.203ZM147.133 222.359V221.32H153.688V222.359H150.969V229H149.852V222.359H147.133ZM160.812 229V225.641H156.414V229H155.297V221.32H156.414V224.602H160.812V221.32H161.938V229H160.812ZM170.656 225.164C170.656 224.336 170.375 223.633 169.828 223.062C169.281 222.492 168.617 222.203 167.852 222.203C167.086 222.203 166.422 222.492 165.875 223.062C165.328 223.633 165.055 224.328 165.055 225.156C165.055 225.984 165.328 226.68 165.875 227.258C166.422 227.836 167.086 228.117 167.852 228.117C168.617 228.117 169.281 227.836 169.828 227.266C170.375 226.695 170.656 225.992 170.656 225.164ZM163.938 225.164C163.938 224.039 164.312 223.094 165.078 222.32C165.844 221.547 166.766 221.156 167.859 221.156C168.945 221.156 169.867 221.547 170.625 222.32C171.391 223.094 171.766 224.039 171.766 225.164C171.766 226.289 171.391 227.234 170.625 228.008C169.867 228.773 168.945 229.164 167.859 229.164C166.766 229.164 165.844 228.773 165.078 228.008C164.312 227.234 163.938 226.289 163.938 225.164ZM178.898 221.32V222.359H174.898V229H173.781V221.32H178.898ZM186.5 225.164C186.5 224.336 186.219 223.633 185.672 223.062C185.125 222.492 184.461 222.203 183.695 222.203C182.93 222.203 182.266 222.492 181.719 223.062C181.172 223.633 180.898 224.328 180.898 225.156C180.898 225.984 181.172 226.68 181.719 227.258C182.266 227.836 182.93 228.117 183.695 228.117C184.461 228.117 185.125 227.836 185.672 227.266C186.219 226.695 186.5 225.992 186.5 225.164ZM179.781 225.164C179.781 224.039 180.156 223.094 180.922 222.32C181.688 221.547 182.609 221.156 183.703 221.156C184.789 221.156 185.711 221.547 186.469 222.32C187.234 223.094 187.609 224.039 187.609 225.164C187.609 226.289 187.234 227.234 186.469 228.008C185.711 228.773 184.789 229.164 183.703 229.164C182.609 229.164 181.688 228.773 180.922 228.008C180.156 227.234 179.781 226.289 179.781 225.164ZM198.43 221.32H199.391V229H198.266V223.242L193.625 229H192.672V221.32H193.789V227.078L198.43 221.32ZM210.516 229V222.375H206.117V229H205V221.32H211.641V229H210.516ZM215.32 225.164C215.32 225.953 215.594 226.641 216.156 227.234C216.719 227.828 217.344 228.117 218.039 228.117C218.695 228.117 219.289 227.836 219.812 227.258C220.336 226.68 220.602 225.984 220.602 225.164C220.602 224.344 220.336 223.648 219.812 223.07C219.289 222.492 218.695 222.203 218.039 222.203C217.344 222.203 216.719 222.5 216.156 223.094C215.594 223.688 215.32 224.375 215.32 225.164ZM215.32 227.797V232.367H214.203V221.328H215.32V222.531C215.336 222.5 215.375 222.445 215.43 222.383C215.484 222.32 215.594 222.211 215.766 222.055C215.938 221.898 216.117 221.758 216.32 221.633C216.516 221.508 216.766 221.398 217.078 221.305C217.391 221.211 217.711 221.164 218.039 221.164C219.016 221.164 219.875 221.555 220.609 222.344C221.344 223.125 221.719 224.07 221.719 225.164C221.719 226.258 221.352 227.203 220.617 227.984C219.883 228.766 219.023 229.156 218.039 229.156C217.711 229.156 217.391 229.109 217.086 229.016C216.781 228.922 216.523 228.812 216.32 228.68C216.109 228.555 215.93 228.422 215.773 228.289C215.617 228.156 215.508 228.039 215.43 227.945L215.32 227.797ZM229.875 225.164C229.875 224.336 229.594 223.633 229.047 223.062C228.5 222.492 227.836 222.203 227.07 222.203C226.305 222.203 225.641 222.492 225.094 223.062C224.547 223.633 224.273 224.328 224.273 225.156C224.273 225.984 224.547 226.68 225.094 227.258C225.641 227.836 226.305 228.117 227.07 228.117C227.836 228.117 228.5 227.836 229.047 227.266C229.594 226.695 229.875 225.992 229.875 225.164ZM223.156 225.164C223.156 224.039 223.531 223.094 224.297 222.32C225.062 221.547 225.984 221.156 227.078 221.156C228.164 221.156 229.086 221.547 229.844 222.32C230.609 223.094 230.984 224.039 230.984 225.164C230.984 226.289 230.609 227.234 229.844 228.008C229.086 228.773 228.164 229.164 227.078 229.164C225.984 229.164 225.062 228.773 224.297 228.008C223.531 227.234 223.156 226.289 223.156 225.164ZM232.438 225.156C232.438 224.047 232.812 223.109 233.57 222.328C234.328 221.547 235.227 221.156 236.266 221.156C236.867 221.156 237.43 221.289 237.945 221.547C238.461 221.805 238.836 222.062 239.055 222.312L239.391 222.68L238.586 223.477C238.57 223.445 238.539 223.406 238.492 223.344C238.453 223.289 238.359 223.188 238.219 223.031C238.078 222.883 237.922 222.75 237.758 222.641C237.586 222.531 237.375 222.43 237.109 222.336C236.844 222.25 236.562 222.203 236.273 222.203C235.539 222.203 234.898 222.492 234.359 223.062C233.82 223.633 233.555 224.336 233.555 225.164C233.555 225.992 233.82 226.695 234.359 227.266C234.898 227.836 235.539 228.117 236.273 228.117C236.719 228.117 237.141 228.016 237.547 227.797C237.945 227.586 238.234 227.375 238.414 227.156L238.672 226.844L239.469 227.562C239.438 227.609 239.391 227.664 239.328 227.742C239.266 227.82 239.125 227.945 238.914 228.125C238.711 228.305 238.492 228.461 238.258 228.602C238.031 228.742 237.734 228.867 237.375 228.984C237.016 229.102 236.648 229.156 236.273 229.156C235.227 229.156 234.32 228.773 233.57 227.992C232.812 227.211 232.438 226.266 232.438 225.156ZM240.273 222.359V221.32H246.828V222.359H244.109V229H242.992V222.359H240.273ZM249.555 225.164C249.555 225.953 249.828 226.641 250.391 227.234C250.953 227.828 251.578 228.117 252.273 228.117C252.93 228.117 253.523 227.836 254.047 227.258C254.57 226.68 254.836 225.984 254.836 225.164C254.836 224.344 254.57 223.648 254.047 223.07C253.523 222.492 252.93 222.203 252.273 222.203C251.578 222.203 250.953 222.5 250.391 223.094C249.828 223.688 249.555 224.375 249.555 225.164ZM249.555 227.797V232.367H248.438V221.328H249.555V222.531C249.57 222.5 249.609 222.445 249.664 222.383C249.719 222.32 249.828 222.211 250 222.055C250.172 221.898 250.352 221.758 250.555 221.633C250.75 221.508 251 221.398 251.312 221.305C251.625 221.211 251.945 221.164 252.273 221.164C253.25 221.164 254.109 221.555 254.844 222.344C255.578 223.125 255.953 224.07 255.953 225.164C255.953 226.258 255.586 227.203 254.852 227.984C254.117 228.766 253.258 229.156 252.273 229.156C251.945 229.156 251.625 229.109 251.32 229.016C251.016 228.922 250.758 228.812 250.555 228.68C250.344 228.555 250.164 228.422 250.008 228.289C249.852 228.156 249.742 228.039 249.664 227.945L249.555 227.797ZM259.633 224.602L262.594 224.117C262.594 223.555 262.414 223.094 262.055 222.734C261.695 222.383 261.234 222.203 260.672 222.203C260.266 222.203 259.883 222.297 259.523 222.484C259.164 222.672 258.906 222.859 258.75 223.047L258.508 223.32L257.789 222.602C257.82 222.562 257.859 222.508 257.914 222.445C257.969 222.383 258.086 222.266 258.273 222.102C258.461 221.938 258.656 221.789 258.859 221.656C259.062 221.531 259.328 221.414 259.656 221.312C259.984 221.211 260.328 221.156 260.672 221.156C261.547 221.156 262.266 221.445 262.844 222.008C263.422 222.578 263.711 223.281 263.711 224.117V229H262.594V227.961C262.57 227.992 262.539 228.039 262.492 228.094C262.445 228.148 262.352 228.242 262.195 228.383C262.039 228.523 261.875 228.641 261.703 228.75C261.523 228.859 261.289 228.953 261 229.031C260.711 229.117 260.414 229.156 260.109 229.156C259.344 229.156 258.695 228.93 258.172 228.477C257.648 228.023 257.391 227.508 257.391 226.922C257.391 226.281 257.578 225.766 257.969 225.375C258.352 224.984 258.906 224.727 259.633 224.602ZM260.109 228.117C260.828 228.117 261.422 227.883 261.891 227.406C262.359 226.938 262.594 226.32 262.594 225.562V225.078L259.953 225.562C258.992 225.75 258.508 226.203 258.508 226.922C258.508 227.266 258.648 227.555 258.93 227.781C259.211 228.008 259.609 228.117 260.109 228.117ZM271.781 229V225.641H267.383V229H266.266V221.32H267.383V224.602H271.781V221.32H272.906V229H271.781ZM274.906 225.156C274.906 224.047 275.281 223.109 276.039 222.328C276.797 221.547 277.695 221.156 278.734 221.156C279.336 221.156 279.898 221.289 280.414 221.547C280.93 221.805 281.305 222.062 281.523 222.312L281.859 222.68L281.055 223.477C281.039 223.445 281.008 223.406 280.961 223.344C280.922 223.289 280.828 223.188 280.688 223.031C280.547 222.883 280.391 222.75 280.227 222.641C280.055 222.531 279.844 222.43 279.578 222.336C279.312 222.25 279.031 222.203 278.742 222.203C278.008 222.203 277.367 222.492 276.828 223.062C276.289 223.633 276.023 224.336 276.023 225.164C276.023 225.992 276.289 226.695 276.828 227.266C277.367 227.836 278.008 228.117 278.742 228.117C279.188 228.117 279.609 228.016 280.016 227.797C280.414 227.586 280.703 227.375 280.883 227.156L281.141 226.844L281.938 227.562C281.906 227.609 281.859 227.664 281.797 227.742C281.734 227.82 281.594 227.945 281.383 228.125C281.18 228.305 280.961 228.461 280.727 228.602C280.5 228.742 280.203 228.867 279.844 228.984C279.484 229.102 279.117 229.156 278.742 229.156C277.695 229.156 276.789 228.773 276.039 227.992C275.281 227.211 274.906 226.266 274.906 225.156ZM282.742 222.359V221.32H289.297V222.359H286.578V229H285.461V222.359H282.742ZM290.906 221.32H294.422C295.125 221.32 295.688 221.516 296.109 221.891C296.531 222.266 296.742 222.742 296.742 223.32C296.742 223.648 296.656 223.953 296.5 224.219C296.344 224.484 296.18 224.672 296.023 224.773L295.781 224.922C295.812 224.938 295.852 224.953 295.914 224.969C295.977 224.992 296.078 225.047 296.227 225.141C296.375 225.234 296.508 225.336 296.617 225.461C296.727 225.586 296.828 225.758 296.922 225.984C297.016 226.219 297.062 226.477 297.062 226.758C297.062 227.453 296.844 228 296.414 228.398C295.977 228.805 295.367 229 294.586 229H290.906V221.32ZM294.586 225.398H292.023V227.961H294.586C295.023 227.961 295.359 227.852 295.594 227.625C295.828 227.406 295.945 227.086 295.945 226.68C295.945 226.273 295.828 225.961 295.594 225.734C295.359 225.516 295.023 225.398 294.586 225.398ZM295.625 223.398C295.625 222.711 295.219 222.359 294.422 222.359H292.023V224.438H294.422C295.219 224.438 295.625 224.094 295.625 223.398ZM306.016 225.578L299.773 225.562C299.812 226.258 300.094 226.859 300.625 227.359C301.156 227.867 301.773 228.117 302.492 228.117C302.969 228.117 303.414 228.016 303.828 227.797C304.234 227.586 304.531 227.375 304.703 227.156L304.977 226.844L305.695 227.562C305.664 227.609 305.617 227.664 305.555 227.742C305.492 227.82 305.367 227.945 305.164 228.125C304.961 228.305 304.75 228.461 304.516 228.602C304.281 228.742 303.984 228.867 303.617 228.984C303.25 229.102 302.875 229.156 302.492 229.156C301.445 229.156 300.539 228.773 299.789 227.992C299.031 227.211 298.656 226.266 298.656 225.156C298.656 224.047 299.023 223.109 299.773 222.328C300.523 221.547 301.398 221.156 302.414 221.156C303.461 221.156 304.336 221.523 305.039 222.25C305.742 222.977 306.094 223.891 306.094 225L306.016 225.578ZM302.414 222.203C301.742 222.203 301.156 222.445 300.656 222.914C300.156 223.391 299.859 223.953 299.773 224.602H304.977C304.891 223.914 304.609 223.336 304.133 222.883C303.656 222.43 303.086 222.203 302.414 222.203ZM313.609 229V225.641H309.211V229H308.094V221.32H309.211V224.602H313.609V221.32H314.734V229H313.609ZM322.812 229V225.641H318.414V229H317.297V221.32H318.414V224.602H322.812V221.32H323.938V229H322.812ZM332.656 225.164C332.656 224.336 332.375 223.633 331.828 223.062C331.281 222.492 330.617 222.203 329.852 222.203C329.086 222.203 328.422 222.492 327.875 223.062C327.328 223.633 327.055 224.328 327.055 225.156C327.055 225.984 327.328 226.68 327.875 227.258C328.422 227.836 329.086 228.117 329.852 228.117C330.617 228.117 331.281 227.836 331.828 227.266C332.375 226.695 332.656 225.992 332.656 225.164ZM325.938 225.164C325.938 224.039 326.312 223.094 327.078 222.32C327.844 221.547 328.766 221.156 329.859 221.156C330.945 221.156 331.867 221.547 332.625 222.32C333.391 223.094 333.766 224.039 333.766 225.164C333.766 226.289 333.391 227.234 332.625 228.008C331.867 228.773 330.945 229.164 329.859 229.164C328.766 229.164 327.844 228.773 327.078 228.008C326.312 227.234 325.938 226.289 325.938 225.164ZM340.898 221.32V222.359H336.898V229H335.781V221.32H340.898ZM348.5 225.164C348.5 224.336 348.219 223.633 347.672 223.062C347.125 222.492 346.461 222.203 345.695 222.203C344.93 222.203 344.266 222.492 343.719 223.062C343.172 223.633 342.898 224.328 342.898 225.156C342.898 225.984 343.172 226.68 343.719 227.258C344.266 227.836 344.93 228.117 345.695 228.117C346.461 228.117 347.125 227.836 347.672 227.266C348.219 226.695 348.5 225.992 348.5 225.164ZM341.781 225.164C341.781 224.039 342.156 223.094 342.922 222.32C343.688 221.547 344.609 221.156 345.703 221.156C346.789 221.156 347.711 221.547 348.469 222.32C349.234 223.094 349.609 224.039 349.609 225.164C349.609 226.289 349.234 227.234 348.469 228.008C347.711 228.773 346.789 229.164 345.703 229.164C344.609 229.164 343.688 228.773 342.922 228.008C342.156 227.234 341.781 226.289 341.781 225.164ZM8.39844 246.961V249.922H7.28125V248H1.11719V249.922H0V246.961H0.554688C0.585938 246.93 0.632812 246.883 0.695312 246.805C0.757812 246.727 0.875 246.555 1.03125 246.289C1.1875 246.023 1.32031 245.742 1.44531 245.43C1.57031 245.117 1.67969 244.703 1.77344 244.188C1.86719 243.672 1.92188 243.125 1.92188 242.562V240.32H7.19531V246.961H8.39844ZM3.03906 241.359L3.03125 242.562C3.03125 243.438 2.92969 244.242 2.71094 244.969C2.5 245.703 2.28906 246.219 2.07812 246.516L1.75781 246.961H6.07812V241.359H3.03906ZM15.9141 240.32H16.875V248H15.75V242.242L11.1094 248H10.1562V240.32H11.2734V246.078L15.9141 240.32ZM24.0781 242.32C24.0781 242.578 24.0312 242.812 23.9531 243.023C23.875 243.227 23.7734 243.391 23.6562 243.508C23.5391 243.625 23.4219 243.727 23.2969 243.805C23.1719 243.883 23.0781 243.945 23 243.977L22.875 244.008C22.9141 244.016 22.9688 244.031 23.0391 244.047C23.1094 244.062 23.2266 244.109 23.3984 244.195C23.5703 244.281 23.7188 244.383 23.8516 244.508C23.9844 244.633 24.1094 244.812 24.2188 245.047C24.3281 245.281 24.3906 245.547 24.3906 245.852C24.3906 246.5 24.1328 247.047 23.625 247.492C23.1094 247.938 22.3828 248.164 21.4375 248.164C21.0703 248.164 20.7266 248.117 20.3984 248.023C20.0703 247.93 19.8047 247.812 19.5859 247.688C19.3672 247.555 19.1719 247.422 19.0156 247.289C18.8594 247.156 18.7422 247.047 18.6641 246.953L18.5547 246.805L19.2734 246.086C19.3359 246.156 19.4219 246.25 19.5312 246.367C19.6406 246.492 19.8906 246.648 20.2656 246.836C20.6406 247.023 21.0312 247.117 21.4375 247.117C22.0469 247.117 22.5 247 22.8125 246.766C23.1172 246.531 23.2734 246.227 23.2734 245.844C23.2734 245.461 23.1172 245.148 22.8047 244.914C22.4922 244.68 22.0391 244.562 21.4375 244.562H20.5547V243.523H21.4375C21.8906 243.523 22.2578 243.406 22.5391 243.172C22.8125 242.938 22.9531 242.648 22.9531 242.32C22.9531 241.992 22.8203 241.719 22.5703 241.516C22.3125 241.312 21.9375 241.211 21.4375 241.211C21.0781 241.211 20.7422 241.281 20.4219 241.422C20.1016 241.562 19.875 241.711 19.7422 241.859L19.5156 242.078L18.7109 241.281C18.7812 241.203 18.8906 241.094 19.0312 240.969C19.1719 240.844 19.4766 240.68 19.9453 240.469C20.4141 240.266 20.9062 240.156 21.4375 240.156C22.2188 240.156 22.8516 240.375 23.3438 240.797C23.8281 241.227 24.0781 241.734 24.0781 242.32ZM28.1641 243.602L31.125 243.117C31.125 242.555 30.9453 242.094 30.5859 241.734C30.2266 241.383 29.7656 241.203 29.2031 241.203C28.7969 241.203 28.4141 241.297 28.0547 241.484C27.6953 241.672 27.4375 241.859 27.2812 242.047L27.0391 242.32L26.3203 241.602C26.3516 241.562 26.3906 241.508 26.4453 241.445C26.5 241.383 26.6172 241.266 26.8047 241.102C26.9922 240.938 27.1875 240.789 27.3906 240.656C27.5938 240.531 27.8594 240.414 28.1875 240.312C28.5156 240.211 28.8594 240.156 29.2031 240.156C30.0781 240.156 30.7969 240.445 31.375 241.008C31.9531 241.578 32.2422 242.281 32.2422 243.117V248H31.125V246.961C31.1016 246.992 31.0703 247.039 31.0234 247.094C30.9766 247.148 30.8828 247.242 30.7266 247.383C30.5703 247.523 30.4062 247.641 30.2344 247.75C30.0547 247.859 29.8203 247.953 29.5312 248.031C29.2422 248.117 28.9453 248.156 28.6406 248.156C27.875 248.156 27.2266 247.93 26.7031 247.477C26.1797 247.023 25.9219 246.508 25.9219 245.922C25.9219 245.281 26.1094 244.766 26.5 244.375C26.8828 243.984 27.4375 243.727 28.1641 243.602ZM28.6406 247.117C29.3594 247.117 29.9531 246.883 30.4219 246.406C30.8906 245.938 31.125 245.32 31.125 244.562V244.078L28.4844 244.562C27.5234 244.75 27.0391 245.203 27.0391 245.922C27.0391 246.266 27.1797 246.555 27.4609 246.781C27.7422 247.008 28.1406 247.117 28.6406 247.117ZM38.1562 238.156C38.5625 238.156 38.875 238.039 39.1016 237.805C39.3203 237.57 39.4375 237.234 39.4375 236.797H40.3125C40.3125 237.438 40.1094 237.961 39.7109 238.359C39.3125 238.766 38.7969 238.961 38.1562 238.961C37.5156 238.961 36.9922 238.766 36.5938 238.359C36.1875 237.961 35.9922 237.438 35.9922 236.797H36.875C36.875 237.234 36.9844 237.57 37.2109 237.805C37.4297 238.039 37.75 238.156 38.1562 238.156ZM40.5547 240.32H41.5156V248H40.3906V242.242L35.75 248H34.7969V240.32H35.9141V246.078L40.5547 240.32ZM49.5938 248V244.641H45.1953V248H44.0781V240.32H45.1953V243.602H49.5938V240.32H50.7188V248H49.5938ZM54.9609 243.602L57.9219 243.117C57.9219 242.555 57.7422 242.094 57.3828 241.734C57.0234 241.383 56.5625 241.203 56 241.203C55.5938 241.203 55.2109 241.297 54.8516 241.484C54.4922 241.672 54.2344 241.859 54.0781 242.047L53.8359 242.32L53.1172 241.602C53.1484 241.562 53.1875 241.508 53.2422 241.445C53.2969 241.383 53.4141 241.266 53.6016 241.102C53.7891 240.938 53.9844 240.789 54.1875 240.656C54.3906 240.531 54.6562 240.414 54.9844 240.312C55.3125 240.211 55.6562 240.156 56 240.156C56.875 240.156 57.5938 240.445 58.1719 241.008C58.75 241.578 59.0391 242.281 59.0391 243.117V248H57.9219V246.961C57.8984 246.992 57.8672 247.039 57.8203 247.094C57.7734 247.148 57.6797 247.242 57.5234 247.383C57.3672 247.523 57.2031 247.641 57.0312 247.75C56.8516 247.859 56.6172 247.953 56.3281 248.031C56.0391 248.117 55.7422 248.156 55.4375 248.156C54.6719 248.156 54.0234 247.93 53.5 247.477C52.9766 247.023 52.7188 246.508 52.7188 245.922C52.7188 245.281 52.9062 244.766 53.2969 244.375C53.6797 243.984 54.2344 243.727 54.9609 243.602ZM55.4375 247.117C56.1562 247.117 56.75 246.883 57.2188 246.406C57.6875 245.938 57.9219 245.32 57.9219 244.562V244.078L55.2812 244.562C54.3203 244.75 53.8359 245.203 53.8359 245.922C53.8359 246.266 53.9766 246.555 54.2578 246.781C54.5391 247.008 54.9375 247.117 55.4375 247.117ZM64.0781 244.156C64.0781 243.047 64.4531 242.109 65.2109 241.328C65.9688 240.547 66.8672 240.156 67.9062 240.156C68.5078 240.156 69.0703 240.289 69.5859 240.547C70.1016 240.805 70.4766 241.062 70.6953 241.312L71.0312 241.68L70.2266 242.477C70.2109 242.445 70.1797 242.406 70.1328 242.344C70.0938 242.289 70 242.188 69.8594 242.031C69.7188 241.883 69.5625 241.75 69.3984 241.641C69.2266 241.531 69.0156 241.43 68.75 241.336C68.4844 241.25 68.2031 241.203 67.9141 241.203C67.1797 241.203 66.5391 241.492 66 242.062C65.4609 242.633 65.1953 243.336 65.1953 244.164C65.1953 244.992 65.4609 245.695 66 246.266C66.5391 246.836 67.1797 247.117 67.9141 247.117C68.3594 247.117 68.7812 247.016 69.1875 246.797C69.5859 246.586 69.875 246.375 70.0547 246.156L70.3125 245.844L71.1094 246.562C71.0781 246.609 71.0312 246.664 70.9688 246.742C70.9062 246.82 70.7656 246.945 70.5547 247.125C70.3516 247.305 70.1328 247.461 69.8984 247.602C69.6719 247.742 69.375 247.867 69.0156 247.984C68.6562 248.102 68.2891 248.156 67.9141 248.156C66.8672 248.156 65.9609 247.773 65.2109 246.992C64.4531 246.211 64.0781 245.266 64.0781 244.156ZM75.3594 244.156C75.3594 243.047 75.7344 242.109 76.4922 241.328C77.25 240.547 78.1484 240.156 79.1875 240.156C79.7891 240.156 80.3516 240.289 80.8672 240.547C81.3828 240.805 81.7578 241.062 81.9766 241.312L82.3125 241.68L81.5078 242.477C81.4922 242.445 81.4609 242.406 81.4141 242.344C81.375 242.289 81.2812 242.188 81.1406 242.031C81 241.883 80.8438 241.75 80.6797 241.641C80.5078 241.531 80.2969 241.43 80.0312 241.336C79.7656 241.25 79.4844 241.203 79.1953 241.203C78.4609 241.203 77.8203 241.492 77.2812 242.062C76.7422 242.633 76.4766 243.336 76.4766 244.164C76.4766 244.992 76.7422 245.695 77.2812 246.266C77.8203 246.836 78.4609 247.117 79.1953 247.117C79.6406 247.117 80.0625 247.016 80.4688 246.797C80.8672 246.586 81.1562 246.375 81.3359 246.156L81.5938 245.844L82.3906 246.562C82.3594 246.609 82.3125 246.664 82.25 246.742C82.1875 246.82 82.0469 246.945 81.8359 247.125C81.6328 247.305 81.4141 247.461 81.1797 247.602C80.9531 247.742 80.6562 247.867 80.2969 247.984C79.9375 248.102 79.5703 248.156 79.1953 248.156C78.1484 248.156 77.2422 247.773 76.4922 246.992C75.7344 246.211 75.3594 245.266 75.3594 244.156ZM90.3125 244.164C90.3125 243.336 90.0312 242.633 89.4844 242.062C88.9375 241.492 88.2734 241.203 87.5078 241.203C86.7422 241.203 86.0781 241.492 85.5312 242.062C84.9844 242.633 84.7109 243.328 84.7109 244.156C84.7109 244.984 84.9844 245.68 85.5312 246.258C86.0781 246.836 86.7422 247.117 87.5078 247.117C88.2734 247.117 88.9375 246.836 89.4844 246.266C90.0312 245.695 90.3125 244.992 90.3125 244.164ZM83.5938 244.164C83.5938 243.039 83.9688 242.094 84.7344 241.32C85.5 240.547 86.4219 240.156 87.5156 240.156C88.6016 240.156 89.5234 240.547 90.2812 241.32C91.0469 242.094 91.4219 243.039 91.4219 244.164C91.4219 245.289 91.0469 246.234 90.2812 247.008C89.5234 247.773 88.6016 248.164 87.5156 248.164C86.4219 248.164 85.5 247.773 84.7344 247.008C83.9688 246.234 83.5938 245.289 83.5938 244.164ZM100.711 244.32C100.711 245.398 100.344 246.312 99.6172 247.047C98.8828 247.789 98 248.156 96.9531 248.156C95.8203 248.156 94.8984 247.727 94.1875 246.867C93.4688 246.008 93.1172 244.781 93.1172 243.203C93.1172 239.672 94.4219 237.672 97.0312 237.203C97.5938 237.109 98.1016 236.992 98.5469 236.836C98.9844 236.688 99.2812 236.562 99.4375 236.461L99.6719 236.32L100.234 237.203C99.8047 237.578 98.7891 237.93 97.1953 238.242C96.3516 238.414 95.6641 238.82 95.1484 239.445C94.6328 240.07 94.3516 240.922 94.3125 242C94.3281 241.961 94.3672 241.906 94.4141 241.836C94.4609 241.766 94.5703 241.648 94.7344 241.477C94.8984 241.305 95.0781 241.156 95.2812 241.016C95.4766 240.883 95.7344 240.758 96.0469 240.648C96.3594 240.539 96.6875 240.477 97.0312 240.477C98.0469 240.477 98.9141 240.852 99.6328 241.602C100.352 242.352 100.711 243.258 100.711 244.32ZM94.3125 244.32C94.3125 245.117 94.5703 245.781 95.0859 246.312C95.6016 246.852 96.2266 247.117 96.9531 247.117C97.6719 247.117 98.2969 246.852 98.8125 246.312C99.3281 245.781 99.5938 245.117 99.5938 244.32C99.5938 243.531 99.3281 242.867 98.8125 242.328C98.2969 241.797 97.6719 241.523 96.9531 241.523C96.2266 241.523 95.6016 241.797 95.0859 242.328C94.5703 242.867 94.3125 243.531 94.3125 244.32ZM102.234 244.156C102.234 243.047 102.609 242.109 103.367 241.328C104.125 240.547 105.023 240.156 106.062 240.156C106.664 240.156 107.227 240.289 107.742 240.547C108.258 240.805 108.633 241.062 108.852 241.312L109.188 241.68L108.383 242.477C108.367 242.445 108.336 242.406 108.289 242.344C108.25 242.289 108.156 242.188 108.016 242.031C107.875 241.883 107.719 241.75 107.555 241.641C107.383 241.531 107.172 241.43 106.906 241.336C106.641 241.25 106.359 241.203 106.07 241.203C105.336 241.203 104.695 241.492 104.156 242.062C103.617 242.633 103.352 243.336 103.352 244.164C103.352 244.992 103.617 245.695 104.156 246.266C104.695 246.836 105.336 247.117 106.07 247.117C106.516 247.117 106.938 247.016 107.344 246.797C107.742 246.586 108.031 246.375 108.211 246.156L108.469 245.844L109.266 246.562C109.234 246.609 109.188 246.664 109.125 246.742C109.062 246.82 108.922 246.945 108.711 247.125C108.508 247.305 108.289 247.461 108.055 247.602C107.828 247.742 107.531 247.867 107.172 247.984C106.812 248.102 106.445 248.156 106.07 248.156C105.023 248.156 104.117 247.773 103.367 246.992C102.609 246.211 102.234 245.266 102.234 244.156ZM110.07 241.359V240.32H116.625V241.359H113.906V248H112.789V241.359H110.07ZM118.234 240.32H121.75C122.453 240.32 123.016 240.516 123.438 240.891C123.859 241.266 124.07 241.742 124.07 242.32C124.07 242.648 123.984 242.953 123.828 243.219C123.672 243.484 123.508 243.672 123.352 243.773L123.109 243.922C123.141 243.938 123.18 243.953 123.242 243.969C123.305 243.992 123.406 244.047 123.555 244.141C123.703 244.234 123.836 244.336 123.945 244.461C124.055 244.586 124.156 244.758 124.25 244.984C124.344 245.219 124.391 245.477 124.391 245.758C124.391 246.453 124.172 247 123.742 247.398C123.305 247.805 122.695 248 121.914 248H118.234V240.32ZM121.914 244.398H119.352V246.961H121.914C122.352 246.961 122.688 246.852 122.922 246.625C123.156 246.406 123.273 246.086 123.273 245.68C123.273 245.273 123.156 244.961 122.922 244.734C122.688 244.516 122.352 244.398 121.914 244.398ZM122.953 242.398C122.953 241.711 122.547 241.359 121.75 241.359H119.352V243.438H121.75C122.547 243.438 122.953 243.094 122.953 242.398ZM133.344 244.578L127.102 244.562C127.141 245.258 127.422 245.859 127.953 246.359C128.484 246.867 129.102 247.117 129.82 247.117C130.297 247.117 130.742 247.016 131.156 246.797C131.562 246.586 131.859 246.375 132.031 246.156L132.305 245.844L133.023 246.562C132.992 246.609 132.945 246.664 132.883 246.742C132.82 246.82 132.695 246.945 132.492 247.125C132.289 247.305 132.078 247.461 131.844 247.602C131.609 247.742 131.312 247.867 130.945 247.984C130.578 248.102 130.203 248.156 129.82 248.156C128.773 248.156 127.867 247.773 127.117 246.992C126.359 246.211 125.984 245.266 125.984 244.156C125.984 243.047 126.352 242.109 127.102 241.328C127.852 240.547 128.727 240.156 129.742 240.156C130.789 240.156 131.664 240.523 132.367 241.25C133.07 241.977 133.422 242.891 133.422 244L133.344 244.578ZM129.742 241.203C129.07 241.203 128.484 241.445 127.984 241.914C127.484 242.391 127.188 242.953 127.102 243.602H132.305C132.219 242.914 131.938 242.336 131.461 241.883C130.984 241.43 130.414 241.203 129.742 241.203ZM140.938 248V244.641H136.539V248H135.422V240.32H136.539V243.602H140.938V240.32H142.062V248H140.938ZM150.141 248V244.641H145.742V248H144.625V240.32H145.742V243.602H150.141V240.32H151.266V248H150.141ZM159.984 244.164C159.984 243.336 159.703 242.633 159.156 242.062C158.609 241.492 157.945 241.203 157.18 241.203C156.414 241.203 155.75 241.492 155.203 242.062C154.656 242.633 154.383 243.328 154.383 244.156C154.383 244.984 154.656 245.68 155.203 246.258C155.75 246.836 156.414 247.117 157.18 247.117C157.945 247.117 158.609 246.836 159.156 246.266C159.703 245.695 159.984 244.992 159.984 244.164ZM153.266 244.164C153.266 243.039 153.641 242.094 154.406 241.32C155.172 240.547 156.094 240.156 157.188 240.156C158.273 240.156 159.195 240.547 159.953 241.32C160.719 242.094 161.094 243.039 161.094 244.164C161.094 245.289 160.719 246.234 159.953 247.008C159.195 247.773 158.273 248.164 157.188 248.164C156.094 248.164 155.172 247.773 154.406 247.008C153.641 246.234 153.266 245.289 153.266 244.164ZM166.469 238.156C166.875 238.156 167.188 238.039 167.414 237.805C167.633 237.57 167.75 237.234 167.75 236.797H168.625C168.625 237.438 168.422 237.961 168.023 238.359C167.625 238.766 167.109 238.961 166.469 238.961C165.828 238.961 165.305 238.766 164.906 238.359C164.5 237.961 164.305 237.438 164.305 236.797H165.188C165.188 237.234 165.297 237.57 165.523 237.805C165.742 238.039 166.062 238.156 166.469 238.156ZM168.867 240.32H169.828V248H168.703V242.242L164.062 248H163.109V240.32H164.227V246.078L168.867 240.32ZM182.156 242.32L179.352 245.844L176.555 242.32V248H175.438V240.32H176.312L179.352 244.156L182.391 240.32H183.273V248H182.156V242.32ZM187.523 243.602L190.484 243.117C190.484 242.555 190.305 242.094 189.945 241.734C189.586 241.383 189.125 241.203 188.562 241.203C188.156 241.203 187.773 241.297 187.414 241.484C187.055 241.672 186.797 241.859 186.641 242.047L186.398 242.32L185.68 241.602C185.711 241.562 185.75 241.508 185.805 241.445C185.859 241.383 185.977 241.266 186.164 241.102C186.352 240.938 186.547 240.789 186.75 240.656C186.953 240.531 187.219 240.414 187.547 240.312C187.875 240.211 188.219 240.156 188.562 240.156C189.438 240.156 190.156 240.445 190.734 241.008C191.312 241.578 191.602 242.281 191.602 243.117V248H190.484V246.961C190.461 246.992 190.43 247.039 190.383 247.094C190.336 247.148 190.242 247.242 190.086 247.383C189.93 247.523 189.766 247.641 189.594 247.75C189.414 247.859 189.18 247.953 188.891 248.031C188.602 248.117 188.305 248.156 188 248.156C187.234 248.156 186.586 247.93 186.062 247.477C185.539 247.023 185.281 246.508 185.281 245.922C185.281 245.281 185.469 244.766 185.859 244.375C186.242 243.984 186.797 243.727 187.523 243.602ZM188 247.117C188.719 247.117 189.312 246.883 189.781 246.406C190.25 245.938 190.484 245.32 190.484 244.562V244.078L187.844 244.562C186.883 244.75 186.398 245.203 186.398 245.922C186.398 246.266 186.539 246.555 186.82 246.781C187.102 247.008 187.5 247.117 188 247.117ZM193.594 244.156C193.594 243.047 193.969 242.109 194.727 241.328C195.484 240.547 196.383 240.156 197.422 240.156C198.023 240.156 198.586 240.289 199.102 240.547C199.617 240.805 199.992 241.062 200.211 241.312L200.547 241.68L199.742 242.477C199.727 242.445 199.695 242.406 199.648 242.344C199.609 242.289 199.516 242.188 199.375 242.031C199.234 241.883 199.078 241.75 198.914 241.641C198.742 241.531 198.531 241.43 198.266 241.336C198 241.25 197.719 241.203 197.43 241.203C196.695 241.203 196.055 241.492 195.516 242.062C194.977 242.633 194.711 243.336 194.711 244.164C194.711 244.992 194.977 245.695 195.516 246.266C196.055 246.836 196.695 247.117 197.43 247.117C197.875 247.117 198.297 247.016 198.703 246.797C199.102 246.586 199.391 246.375 199.57 246.156L199.828 245.844L200.625 246.562C200.594 246.609 200.547 246.664 200.484 246.742C200.422 246.82 200.281 246.945 200.07 247.125C199.867 247.305 199.648 247.461 199.414 247.602C199.188 247.742 198.891 247.867 198.531 247.984C198.172 248.102 197.805 248.156 197.43 248.156C196.383 248.156 195.477 247.773 194.727 246.992C193.969 246.211 193.594 245.266 193.594 244.156ZM201.43 241.359V240.32H207.984V241.359H205.266V248H204.148V241.359H201.43ZM216.391 244.578L210.148 244.562C210.188 245.258 210.469 245.859 211 246.359C211.531 246.867 212.148 247.117 212.867 247.117C213.344 247.117 213.789 247.016 214.203 246.797C214.609 246.586 214.906 246.375 215.078 246.156L215.352 245.844L216.07 246.562C216.039 246.609 215.992 246.664 215.93 246.742C215.867 246.82 215.742 246.945 215.539 247.125C215.336 247.305 215.125 247.461 214.891 247.602C214.656 247.742 214.359 247.867 213.992 247.984C213.625 248.102 213.25 248.156 212.867 248.156C211.82 248.156 210.914 247.773 210.164 246.992C209.406 246.211 209.031 245.266 209.031 244.156C209.031 243.047 209.398 242.109 210.148 241.328C210.898 240.547 211.773 240.156 212.789 240.156C213.836 240.156 214.711 240.523 215.414 241.25C216.117 241.977 216.469 242.891 216.469 244L216.391 244.578ZM212.789 241.203C212.117 241.203 211.531 241.445 211.031 241.914C210.531 242.391 210.234 242.953 210.148 243.602H215.352C215.266 242.914 214.984 242.336 214.508 241.883C214.031 241.43 213.461 241.203 212.789 241.203ZM219.586 244.164C219.586 244.953 219.859 245.641 220.422 246.234C220.984 246.828 221.609 247.117 222.305 247.117C222.961 247.117 223.555 246.836 224.078 246.258C224.602 245.68 224.867 244.984 224.867 244.164C224.867 243.344 224.602 242.648 224.078 242.07C223.555 241.492 222.961 241.203 222.305 241.203C221.609 241.203 220.984 241.5 220.422 242.094C219.859 242.688 219.586 243.375 219.586 244.164ZM219.586 246.797V251.367H218.469V240.328H219.586V241.531C219.602 241.5 219.641 241.445 219.695 241.383C219.75 241.32 219.859 241.211 220.031 241.055C220.203 240.898 220.383 240.758 220.586 240.633C220.781 240.508 221.031 240.398 221.344 240.305C221.656 240.211 221.977 240.164 222.305 240.164C223.281 240.164 224.141 240.555 224.875 241.344C225.609 242.125 225.984 243.07 225.984 244.164C225.984 245.258 225.617 246.203 224.883 246.984C224.148 247.766 223.289 248.156 222.305 248.156C221.977 248.156 221.656 248.109 221.352 248.016C221.047 247.922 220.789 247.812 220.586 247.68C220.375 247.555 220.195 247.422 220.039 247.289C219.883 247.156 219.773 247.039 219.695 246.945L219.586 246.797ZM227.422 244.156C227.422 243.047 227.797 242.109 228.555 241.328C229.312 240.547 230.211 240.156 231.25 240.156C231.852 240.156 232.414 240.289 232.93 240.547C233.445 240.805 233.82 241.062 234.039 241.312L234.375 241.68L233.57 242.477C233.555 242.445 233.523 242.406 233.477 242.344C233.438 242.289 233.344 242.188 233.203 242.031C233.062 241.883 232.906 241.75 232.742 241.641C232.57 241.531 232.359 241.43 232.094 241.336C231.828 241.25 231.547 241.203 231.258 241.203C230.523 241.203 229.883 241.492 229.344 242.062C228.805 242.633 228.539 243.336 228.539 244.164C228.539 244.992 228.805 245.695 229.344 246.266C229.883 246.836 230.523 247.117 231.258 247.117C231.703 247.117 232.125 247.016 232.531 246.797C232.93 246.586 233.219 246.375 233.398 246.156L233.656 245.844L234.453 246.562C234.422 246.609 234.375 246.664 234.312 246.742C234.25 246.82 234.109 246.945 233.898 247.125C233.695 247.305 233.477 247.461 233.242 247.602C233.016 247.742 232.719 247.867 232.359 247.984C232 248.102 231.633 248.156 231.258 248.156C230.211 248.156 229.305 247.773 228.555 246.992C227.797 246.211 227.422 245.266 227.422 244.156ZM237.336 245.844V248H236.219V240.32H237.336V244.398L241.172 240.32H242.539L239.578 243.438L242.859 248H241.578L238.859 244.242L237.336 245.844ZM250.125 244.164C250.125 243.336 249.844 242.633 249.297 242.062C248.75 241.492 248.086 241.203 247.32 241.203C246.555 241.203 245.891 241.492 245.344 242.062C244.797 242.633 244.523 243.328 244.523 244.156C244.523 244.984 244.797 245.68 245.344 246.258C245.891 246.836 246.555 247.117 247.32 247.117C248.086 247.117 248.75 246.836 249.297 246.266C249.844 245.695 250.125 244.992 250.125 244.164ZM243.406 244.164C243.406 243.039 243.781 242.094 244.547 241.32C245.312 240.547 246.234 240.156 247.328 240.156C248.414 240.156 249.336 240.547 250.094 241.32C250.859 242.094 251.234 243.039 251.234 244.164C251.234 245.289 250.859 246.234 250.094 247.008C249.336 247.773 248.414 248.164 247.328 248.164C246.234 248.164 245.312 247.773 244.547 247.008C243.781 246.234 243.406 245.289 243.406 244.164ZM256.609 238.156C257.016 238.156 257.328 238.039 257.555 237.805C257.773 237.57 257.891 237.234 257.891 236.797H258.766C258.766 237.438 258.562 237.961 258.164 238.359C257.766 238.766 257.25 238.961 256.609 238.961C255.969 238.961 255.445 238.766 255.047 238.359C254.641 237.961 254.445 237.438 254.445 236.797H255.328C255.328 237.234 255.438 237.57 255.664 237.805C255.883 238.039 256.203 238.156 256.609 238.156ZM259.008 240.32H259.969V248H258.844V242.242L254.203 248H253.25V240.32H254.367V246.078L259.008 240.32ZM262.766 246.562L263.891 247.203L262.047 250.078L261.328 249.68L262.766 246.562ZM270.695 249.117L271.094 248L267.969 240.32H269.172L271.656 246.562L274.133 240.32H275.336L271.812 249.117C271.492 249.93 271.148 250.508 270.789 250.852C270.422 251.195 269.961 251.359 269.406 251.359C269.234 251.359 269.07 251.352 268.914 251.32C268.758 251.297 268.633 251.266 268.555 251.234L268.445 251.203V250.156C268.711 250.266 268.977 250.32 269.242 250.32C269.922 250.32 270.406 249.922 270.695 249.117ZM281.977 240.32V241.359H277.977V248H276.859V240.32H281.977ZM284.219 240.32L289.82 240.328V248.008H288.695V241.367H285.336V242.57C285.336 243.695 285.273 244.641 285.164 245.391C285.055 246.141 284.883 246.719 284.664 247.109C284.438 247.5 284.188 247.773 283.922 247.93C283.648 248.086 283.32 248.164 282.938 248.164C282.805 248.164 282.672 248.148 282.539 248.125C282.406 248.094 282.312 248.07 282.25 248.039L282.141 248.008V246.891C282.352 246.992 282.562 247.047 282.781 247.047C283.109 247.047 283.367 246.953 283.555 246.766C283.742 246.578 283.898 246.141 284.023 245.469C284.148 244.789 284.219 243.82 284.219 242.562V240.32ZM294.055 249.117L294.453 248L291.328 240.32H292.531L295.016 246.562L297.492 240.32H298.695L295.172 249.117C294.852 249.93 294.508 250.508 294.148 250.852C293.781 251.195 293.32 251.359 292.766 251.359C292.594 251.359 292.43 251.352 292.273 251.32C292.117 251.297 291.992 251.266 291.914 251.234L291.805 251.203V250.156C292.07 250.266 292.336 250.32 292.602 250.32C293.281 250.32 293.766 249.922 294.055 249.117ZM307.492 244.32C307.492 245.398 307.125 246.312 306.398 247.047C305.664 247.789 304.781 248.156 303.734 248.156C302.602 248.156 301.68 247.727 300.969 246.867C300.25 246.008 299.898 244.781 299.898 243.203C299.898 239.672 301.203 237.672 303.812 237.203C304.375 237.109 304.883 236.992 305.328 236.836C305.766 236.688 306.062 236.562 306.219 236.461L306.453 236.32L307.016 237.203C306.586 237.578 305.57 237.93 303.977 238.242C303.133 238.414 302.445 238.82 301.93 239.445C301.414 240.07 301.133 240.922 301.094 242C301.109 241.961 301.148 241.906 301.195 241.836C301.242 241.766 301.352 241.648 301.516 241.477C301.68 241.305 301.859 241.156 302.062 241.016C302.258 240.883 302.516 240.758 302.828 240.648C303.141 240.539 303.469 240.477 303.812 240.477C304.828 240.477 305.695 240.852 306.414 241.602C307.133 242.352 307.492 243.258 307.492 244.32ZM301.094 244.32C301.094 245.117 301.352 245.781 301.867 246.312C302.383 246.852 303.008 247.117 303.734 247.117C304.453 247.117 305.078 246.852 305.594 246.312C306.109 245.781 306.375 245.117 306.375 244.32C306.375 243.531 306.109 242.867 305.594 242.328C305.078 241.797 304.453 241.523 303.734 241.523C303.008 241.523 302.383 241.797 301.867 242.328C301.352 242.867 301.094 243.531 301.094 244.32ZM310.375 240.32L315.977 240.328V248.008H314.852V241.367H311.492V242.57C311.492 243.695 311.43 244.641 311.32 245.391C311.211 246.141 311.039 246.719 310.82 247.109C310.594 247.5 310.344 247.773 310.078 247.93C309.805 248.086 309.477 248.164 309.094 248.164C308.961 248.164 308.828 248.148 308.695 248.125C308.562 248.094 308.469 248.07 308.406 248.039L308.297 248.008V246.891C308.508 246.992 308.719 247.047 308.938 247.047C309.266 247.047 309.523 246.953 309.711 246.766C309.898 246.578 310.055 246.141 310.18 245.469C310.305 244.789 310.375 243.82 310.375 242.562V240.32ZM325.328 244.578L319.086 244.562C319.125 245.258 319.406 245.859 319.938 246.359C320.469 246.867 321.086 247.117 321.805 247.117C322.281 247.117 322.727 247.016 323.141 246.797C323.547 246.586 323.844 246.375 324.016 246.156L324.289 245.844L325.008 246.562C324.977 246.609 324.93 246.664 324.867 246.742C324.805 246.82 324.68 246.945 324.477 247.125C324.273 247.305 324.062 247.461 323.828 247.602C323.594 247.742 323.297 247.867 322.93 247.984C322.562 248.102 322.188 248.156 321.805 248.156C320.758 248.156 319.852 247.773 319.102 246.992C318.344 246.211 317.969 245.266 317.969 244.156C317.969 243.047 318.336 242.109 319.086 241.328C319.836 240.547 320.711 240.156 321.727 240.156C322.773 240.156 323.648 240.523 324.352 241.25C325.055 241.977 325.406 242.891 325.406 244L325.328 244.578ZM321.727 241.203C321.055 241.203 320.469 241.445 319.969 241.914C319.469 242.391 319.172 242.953 319.086 243.602H324.289C324.203 242.914 323.922 242.336 323.445 241.883C322.969 241.43 322.398 241.203 321.727 241.203ZM332.922 248V244.641H328.523V248H327.406V240.32H328.523V243.602H332.922V240.32H334.047V248H332.922ZM342.125 248V244.641H337.727V248H336.609V240.32H337.727V243.602H342.125V240.32H343.25V248H342.125ZM351.969 244.164C351.969 243.336 351.688 242.633 351.141 242.062C350.594 241.492 349.93 241.203 349.164 241.203C348.398 241.203 347.734 241.492 347.188 242.062C346.641 242.633 346.367 243.328 346.367 244.156C346.367 244.984 346.641 245.68 347.188 246.258C347.734 246.836 348.398 247.117 349.164 247.117C349.93 247.117 350.594 246.836 351.141 246.266C351.688 245.695 351.969 244.992 351.969 244.164ZM345.25 244.164C345.25 243.039 345.625 242.094 346.391 241.32C347.156 240.547 348.078 240.156 349.172 240.156C350.258 240.156 351.18 240.547 351.938 241.32C352.703 242.094 353.078 243.039 353.078 244.164C353.078 245.289 352.703 246.234 351.938 247.008C351.18 247.773 350.258 248.164 349.172 248.164C348.078 248.164 347.156 247.773 346.391 247.008C345.625 246.234 345.25 245.289 345.25 244.164ZM358.453 238.156C358.859 238.156 359.172 238.039 359.398 237.805C359.617 237.57 359.734 237.234 359.734 236.797H360.609C360.609 237.438 360.406 237.961 360.008 238.359C359.609 238.766 359.094 238.961 358.453 238.961C357.812 238.961 357.289 238.766 356.891 238.359C356.484 237.961 356.289 237.438 356.289 236.797H357.172C357.172 237.234 357.281 237.57 357.508 237.805C357.727 238.039 358.047 238.156 358.453 238.156ZM360.852 240.32H361.812V248H360.688V242.242L356.047 248H355.094V240.32H356.211V246.078L360.852 240.32ZM1.28125 259.32H4.79688C5.5 259.32 6.0625 259.516 6.48438 259.891C6.90625 260.266 7.11719 260.742 7.11719 261.32C7.11719 261.648 7.03125 261.953 6.875 262.219C6.71875 262.484 6.55469 262.672 6.39844 262.773L6.15625 262.922C6.1875 262.938 6.22656 262.953 6.28906 262.969C6.35156 262.992 6.45312 263.047 6.60156 263.141C6.75 263.234 6.88281 263.336 6.99219 263.461C7.10156 263.586 7.20312 263.758 7.29688 263.984C7.39062 264.219 7.4375 264.477 7.4375 264.758C7.4375 265.453 7.21875 266 6.78906 266.398C6.35156 266.805 5.74219 267 4.96094 267H1.28125V259.32ZM4.96094 263.398H2.39844V265.961H4.96094C5.39844 265.961 5.73438 265.852 5.96875 265.625C6.20312 265.406 6.32031 265.086 6.32031 264.68C6.32031 264.273 6.20312 263.961 5.96875 263.734C5.73438 263.516 5.39844 263.398 4.96094 263.398ZM6 261.398C6 260.711 5.59375 260.359 4.79688 260.359H2.39844V262.438H4.79688C5.59375 262.438 6 262.094 6 261.398ZM12.0781 263.156C12.0781 262.047 12.4531 261.109 13.2109 260.328C13.9688 259.547 14.8672 259.156 15.9062 259.156C16.5078 259.156 17.0703 259.289 17.5859 259.547C18.1016 259.805 18.4766 260.062 18.6953 260.312L19.0312 260.68L18.2266 261.477C18.2109 261.445 18.1797 261.406 18.1328 261.344C18.0938 261.289 18 261.188 17.8594 261.031C17.7188 260.883 17.5625 260.75 17.3984 260.641C17.2266 260.531 17.0156 260.43 16.75 260.336C16.4844 260.25 16.2031 260.203 15.9141 260.203C15.1797 260.203 14.5391 260.492 14 261.062C13.4609 261.633 13.1953 262.336 13.1953 263.164C13.1953 263.992 13.4609 264.695 14 265.266C14.5391 265.836 15.1797 266.117 15.9141 266.117C16.3594 266.117 16.7812 266.016 17.1875 265.797C17.5859 265.586 17.875 265.375 18.0547 265.156L18.3125 264.844L19.1094 265.562C19.0781 265.609 19.0312 265.664 18.9688 265.742C18.9062 265.82 18.7656 265.945 18.5547 266.125C18.3516 266.305 18.1328 266.461 17.8984 266.602C17.6719 266.742 17.375 266.867 17.0156 266.984C16.6562 267.102 16.2891 267.156 15.9141 267.156C14.8672 267.156 13.9609 266.773 13.2109 265.992C12.4531 265.211 12.0781 264.266 12.0781 263.156ZM19.9141 260.359V259.32H26.4688V260.359H23.75V267H22.6328V260.359H19.9141ZM34.2344 263.164C34.2344 262.336 33.9531 261.633 33.4062 261.062C32.8594 260.492 32.1953 260.203 31.4297 260.203C30.6641 260.203 30 260.492 29.4531 261.062C28.9062 261.633 28.6328 262.328 28.6328 263.156C28.6328 263.984 28.9062 264.68 29.4531 265.258C30 265.836 30.6641 266.117 31.4297 266.117C32.1953 266.117 32.8594 265.836 33.4062 265.266C33.9531 264.695 34.2344 263.992 34.2344 263.164ZM27.5156 263.164C27.5156 262.039 27.8906 261.094 28.6562 260.32C29.4219 259.547 30.3438 259.156 31.4375 259.156C32.5234 259.156 33.4453 259.547 34.2031 260.32C34.9688 261.094 35.3438 262.039 35.3438 263.164C35.3438 264.289 34.9688 265.234 34.2031 266.008C33.4453 266.773 32.5234 267.164 31.4375 267.164C30.3438 267.164 29.4219 266.773 28.6562 266.008C27.8906 265.234 27.5156 264.289 27.5156 263.164ZM38.1562 259.32L43.7578 259.328V267.008H42.6328V260.367H39.2734V261.57C39.2734 262.695 39.2109 263.641 39.1016 264.391C38.9922 265.141 38.8203 265.719 38.6016 266.109C38.375 266.5 38.125 266.773 37.8594 266.93C37.5859 267.086 37.2578 267.164 36.875 267.164C36.7422 267.164 36.6094 267.148 36.4766 267.125C36.3438 267.094 36.25 267.07 36.1875 267.039L36.0781 267.008V265.891C36.2891 265.992 36.5 266.047 36.7188 266.047C37.0469 266.047 37.3047 265.953 37.4922 265.766C37.6797 265.578 37.8359 265.141 37.9609 264.469C38.0859 263.789 38.1562 262.82 38.1562 261.562V259.32ZM45.8281 261.883C45.8281 261.148 46.0859 260.539 46.6016 260.055C47.1172 259.57 47.7969 259.32 48.6328 259.32H51.9062V267H50.7891V264.438H48.5469L46.9531 267H45.6719L47.4297 264.203C47.3828 264.195 47.3281 264.18 47.25 264.148C47.1719 264.117 47.0469 264.047 46.8672 263.938C46.6797 263.828 46.5234 263.688 46.3828 263.531C46.2422 263.375 46.1172 263.148 46 262.867C45.8828 262.578 45.8281 262.25 45.8281 261.883ZM50.7891 260.359L48.6328 260.367C48.1172 260.367 47.7109 260.508 47.4062 260.789C47.1016 261.07 46.9531 261.438 46.9531 261.883C46.9531 262.336 47.1016 262.695 47.4062 262.977C47.7031 263.258 48.1172 263.398 48.6328 263.398H50.7891V260.359ZM55.5859 263.164C55.5859 263.953 55.8594 264.641 56.4219 265.234C56.9844 265.828 57.6094 266.117 58.3047 266.117C58.9609 266.117 59.5547 265.836 60.0781 265.258C60.6016 264.68 60.8672 263.984 60.8672 263.164C60.8672 262.344 60.6016 261.648 60.0781 261.07C59.5547 260.492 58.9609 260.203 58.3047 260.203C57.6094 260.203 56.9844 260.5 56.4219 261.094C55.8594 261.688 55.5859 262.375 55.5859 263.164ZM55.5859 265.797V270.367H54.4688V259.328H55.5859V260.531C55.6016 260.5 55.6406 260.445 55.6953 260.383C55.75 260.32 55.8594 260.211 56.0312 260.055C56.2031 259.898 56.3828 259.758 56.5859 259.633C56.7812 259.508 57.0312 259.398 57.3438 259.305C57.6562 259.211 57.9766 259.164 58.3047 259.164C59.2812 259.164 60.1406 259.555 60.875 260.344C61.6094 261.125 61.9844 262.07 61.9844 263.164C61.9844 264.258 61.6172 265.203 60.8828 265.984C60.1484 266.766 59.2891 267.156 58.3047 267.156C57.9766 267.156 57.6562 267.109 57.3516 267.016C57.0469 266.922 56.7891 266.812 56.5859 266.68C56.375 266.555 56.1953 266.422 56.0391 266.289C55.8828 266.156 55.7734 266.039 55.6953 265.945L55.5859 265.797ZM69.5 267V263.641H65.1016V267H63.9844V259.32H65.1016V262.602H69.5V259.32H70.625V267H69.5ZM79.3438 263.164C79.3438 262.336 79.0625 261.633 78.5156 261.062C77.9688 260.492 77.3047 260.203 76.5391 260.203C75.7734 260.203 75.1094 260.492 74.5625 261.062C74.0156 261.633 73.7422 262.328 73.7422 263.156C73.7422 263.984 74.0156 264.68 74.5625 265.258C75.1094 265.836 75.7734 266.117 76.5391 266.117C77.3047 266.117 77.9688 265.836 78.5156 265.266C79.0625 264.695 79.3438 263.992 79.3438 263.164ZM72.625 263.164C72.625 262.039 73 261.094 73.7656 260.32C74.5312 259.547 75.4531 259.156 76.5469 259.156C77.6328 259.156 78.5547 259.547 79.3125 260.32C80.0781 261.094 80.4531 262.039 80.4531 263.164C80.4531 264.289 80.0781 265.234 79.3125 266.008C78.5547 266.773 77.6328 267.164 76.5469 267.164C75.4531 267.164 74.5312 266.773 73.7656 266.008C73 265.234 72.625 264.289 72.625 263.164ZM89.2656 263.578L83.0234 263.562C83.0625 264.258 83.3438 264.859 83.875 265.359C84.4062 265.867 85.0234 266.117 85.7422 266.117C86.2188 266.117 86.6641 266.016 87.0781 265.797C87.4844 265.586 87.7812 265.375 87.9531 265.156L88.2266 264.844L88.9453 265.562C88.9141 265.609 88.8672 265.664 88.8047 265.742C88.7422 265.82 88.6172 265.945 88.4141 266.125C88.2109 266.305 88 266.461 87.7656 266.602C87.5312 266.742 87.2344 266.867 86.8672 266.984C86.5 267.102 86.125 267.156 85.7422 267.156C84.6953 267.156 83.7891 266.773 83.0391 265.992C82.2812 265.211 81.9062 264.266 81.9062 263.156C81.9062 262.047 82.2734 261.109 83.0234 260.328C83.7734 259.547 84.6484 259.156 85.6641 259.156C86.7109 259.156 87.5859 259.523 88.2891 260.25C88.9922 260.977 89.3438 261.891 89.3438 263L89.2656 263.578ZM85.6641 260.203C84.9922 260.203 84.4062 260.445 83.9062 260.914C83.4062 261.391 83.1094 261.953 83.0234 262.602H88.2266C88.1406 261.914 87.8594 261.336 87.3828 260.883C86.9062 260.43 86.3359 260.203 85.6641 260.203ZM95.5078 263.164C95.5078 263.953 95.7812 264.641 96.3438 265.234C96.9062 265.828 97.5312 266.117 98.2266 266.117C98.8828 266.117 99.4766 265.836 100 265.258C100.523 264.68 100.789 263.984 100.789 263.164C100.789 262.344 100.523 261.648 100 261.07C99.4766 260.492 98.8828 260.203 98.2266 260.203C97.5312 260.203 96.9062 260.5 96.3438 261.094C95.7812 261.688 95.5078 262.375 95.5078 263.164ZM95.5078 265.797V270.367H94.3906V259.328H95.5078V260.531C95.5234 260.5 95.5625 260.445 95.6172 260.383C95.6719 260.32 95.7812 260.211 95.9531 260.055C96.125 259.898 96.3047 259.758 96.5078 259.633C96.7031 259.508 96.9531 259.398 97.2656 259.305C97.5781 259.211 97.8984 259.164 98.2266 259.164C99.2031 259.164 100.062 259.555 100.797 260.344C101.531 261.125 101.906 262.07 101.906 263.164C101.906 264.258 101.539 265.203 100.805 265.984C100.07 266.766 99.2109 267.156 98.2266 267.156C97.8984 267.156 97.5781 267.109 97.2734 267.016C96.9688 266.922 96.7109 266.812 96.5078 266.68C96.2969 266.555 96.1172 266.422 95.9609 266.289C95.8047 266.156 95.6953 266.039 95.6172 265.945L95.5078 265.797ZM110.703 263.578L104.461 263.562C104.5 264.258 104.781 264.859 105.312 265.359C105.844 265.867 106.461 266.117 107.18 266.117C107.656 266.117 108.102 266.016 108.516 265.797C108.922 265.586 109.219 265.375 109.391 265.156L109.664 264.844L110.383 265.562C110.352 265.609 110.305 265.664 110.242 265.742C110.18 265.82 110.055 265.945 109.852 266.125C109.648 266.305 109.438 266.461 109.203 266.602C108.969 266.742 108.672 266.867 108.305 266.984C107.938 267.102 107.562 267.156 107.18 267.156C106.133 267.156 105.227 266.773 104.477 265.992C103.719 265.211 103.344 264.266 103.344 263.156C103.344 262.047 103.711 261.109 104.461 260.328C105.211 259.547 106.086 259.156 107.102 259.156C108.148 259.156 109.023 259.523 109.727 260.25C110.43 260.977 110.781 261.891 110.781 263L110.703 263.578ZM107.102 260.203C106.43 260.203 105.844 260.445 105.344 260.914C104.844 261.391 104.547 261.953 104.461 262.602H109.664C109.578 261.914 109.297 261.336 108.82 260.883C108.344 260.43 107.773 260.203 107.102 260.203ZM119.5 261.32L116.695 264.844L113.898 261.32V267H112.781V259.32H113.656L116.695 263.156L119.734 259.32H120.617V267H119.5V261.32ZM129.984 263.578L123.742 263.562C123.781 264.258 124.062 264.859 124.594 265.359C125.125 265.867 125.742 266.117 126.461 266.117C126.938 266.117 127.383 266.016 127.797 265.797C128.203 265.586 128.5 265.375 128.672 265.156L128.945 264.844L129.664 265.562C129.633 265.609 129.586 265.664 129.523 265.742C129.461 265.82 129.336 265.945 129.133 266.125C128.93 266.305 128.719 266.461 128.484 266.602C128.25 266.742 127.953 266.867 127.586 266.984C127.219 267.102 126.844 267.156 126.461 267.156C125.414 267.156 124.508 266.773 123.758 265.992C123 265.211 122.625 264.266 122.625 263.156C122.625 262.047 122.992 261.109 123.742 260.328C124.492 259.547 125.367 259.156 126.383 259.156C127.43 259.156 128.305 259.523 129.008 260.25C129.711 260.977 130.062 261.891 130.062 263L129.984 263.578ZM126.383 260.203C125.711 260.203 125.125 260.445 124.625 260.914C124.125 261.391 123.828 261.953 123.742 262.602H128.945C128.859 261.914 128.578 261.336 128.102 260.883C127.625 260.43 127.055 260.203 126.383 260.203ZM131.5 263.156C131.5 262.047 131.875 261.109 132.633 260.328C133.391 259.547 134.289 259.156 135.328 259.156C135.93 259.156 136.492 259.289 137.008 259.547C137.523 259.805 137.898 260.062 138.117 260.312L138.453 260.68L137.648 261.477C137.633 261.445 137.602 261.406 137.555 261.344C137.516 261.289 137.422 261.188 137.281 261.031C137.141 260.883 136.984 260.75 136.82 260.641C136.648 260.531 136.438 260.43 136.172 260.336C135.906 260.25 135.625 260.203 135.336 260.203C134.602 260.203 133.961 260.492 133.422 261.062C132.883 261.633 132.617 262.336 132.617 263.164C132.617 263.992 132.883 264.695 133.422 265.266C133.961 265.836 134.602 266.117 135.336 266.117C135.781 266.117 136.203 266.016 136.609 265.797C137.008 265.586 137.297 265.375 137.477 265.156L137.734 264.844L138.531 265.562C138.5 265.609 138.453 265.664 138.391 265.742C138.328 265.82 138.188 265.945 137.977 266.125C137.773 266.305 137.555 266.461 137.32 266.602C137.094 266.742 136.797 266.867 136.438 266.984C136.078 267.102 135.711 267.156 135.336 267.156C134.289 267.156 133.383 266.773 132.633 265.992C131.875 265.211 131.5 264.266 131.5 263.156ZM141.094 259.32L146.695 259.328V267.008H145.57V260.367H142.211V261.57C142.211 262.695 142.148 263.641 142.039 264.391C141.93 265.141 141.758 265.719 141.539 266.109C141.312 266.5 141.062 266.773 140.797 266.93C140.523 267.086 140.195 267.164 139.812 267.164C139.68 267.164 139.547 267.148 139.414 267.125C139.281 267.094 139.188 267.07 139.125 267.039L139.016 267.008V265.891C139.227 265.992 139.438 266.047 139.656 266.047C139.984 266.047 140.242 265.953 140.43 265.766C140.617 265.578 140.773 265.141 140.898 264.469C141.023 263.789 141.094 262.82 141.094 261.562V259.32ZM155.406 263.164C155.406 262.336 155.125 261.633 154.578 261.062C154.031 260.492 153.367 260.203 152.602 260.203C151.836 260.203 151.172 260.492 150.625 261.062C150.078 261.633 149.805 262.328 149.805 263.156C149.805 263.984 150.078 264.68 150.625 265.258C151.172 265.836 151.836 266.117 152.602 266.117C153.367 266.117 154.031 265.836 154.578 265.266C155.125 264.695 155.406 263.992 155.406 263.164ZM148.688 263.164C148.688 262.039 149.062 261.094 149.828 260.32C150.594 259.547 151.516 259.156 152.609 259.156C153.695 259.156 154.617 259.547 155.375 260.32C156.141 261.094 156.516 262.039 156.516 263.164C156.516 264.289 156.141 265.234 155.375 266.008C154.617 266.773 153.695 267.164 152.609 267.164C151.516 267.164 150.594 266.773 149.828 266.008C149.062 265.234 148.688 264.289 148.688 263.164Z" fill="#111111"/>
</svg>
