<svg width="1256" height="548" viewBox="0 0 1256 548" fill="none" xmlns="http://www.w3.org/2000/svg">
<path d="M672.648 102.019C672.648 69.7664 693.929 46.6635 718.131 46.6635C735.448 46.6635 748.175 57.4143 752.765 65.649H752.974V0H769.665V155.316H752.974V138.389H752.765C748.175 146.624 735.657 157.375 718.131 157.375C693.929 157.375 672.648 134.272 672.648 102.019ZM752.974 102.019C752.974 79.8311 738.369 63.8191 721.052 63.8191C703.944 63.8191 689.339 79.8311 689.339 102.019C689.339 124.207 703.944 140.219 721.052 140.219C738.369 140.219 752.974 124.207 752.974 102.019Z" fill="#111111"/>
<path d="M794.493 102.021C794.493 70.4542 816.609 46.665 843.106 46.665C869.394 46.665 889.632 68.853 889.632 99.962C889.632 103.851 889.215 107.053 889.006 108.883H811.602C813.688 126.267 827.25 140.449 844.775 140.449C858.337 140.449 867.517 132.672 873.359 125.81L884.416 137.018C877.74 146.626 864.179 157.605 843.941 157.605C816.818 157.376 794.493 133.13 794.493 102.021ZM872.733 93.5573C870.02 75.2579 859.38 63.1345 843.106 63.1345C826.206 63.1345 814.314 76.4016 811.602 93.5573H872.733Z" fill="#111111"/>
<path d="M905.28 138.162L916.129 126.496C920.928 132.672 930.942 140.907 942.418 140.907C955.353 140.907 962.238 133.587 962.238 124.666C962.238 103.85 909.244 113.915 909.244 76.8588C909.244 60.8468 922.388 46.436 943.461 46.436C959.735 46.436 970.792 54.8995 976.426 61.3043L965.576 72.9702C961.404 68.6241 953.684 62.9055 943.461 62.9055C931.986 62.9055 925.935 69.5391 925.935 76.6301C925.935 96.7594 978.929 86.9235 978.929 124.437C978.929 142.279 964.95 157.376 942.418 157.376C924.683 157.376 911.122 146.625 905.28 138.162Z" fill="#111111"/>
<path d="M1001.67 15.3268C1001.67 8.69324 1006.68 3.88965 1012.1 3.88965C1017.32 3.88965 1022.33 8.69324 1022.33 15.3268C1022.33 21.9603 1017.32 26.7639 1012.1 26.7639C1006.68 26.9926 1001.67 22.189 1001.67 15.3268ZM1003.97 155.317V48.7232H1020.66V155.317H1003.97Z" fill="#111111"/>
<path d="M1049.24 179.793L1060.92 168.127C1065.31 175.218 1077.41 184.825 1090.97 184.825C1109.95 184.825 1122.26 169.5 1122.26 147.312V134.959H1122.06C1116.21 145.024 1103.7 153.488 1089.3 153.488C1065.51 153.488 1045.28 131.3 1045.28 100.191C1045.28 69.0816 1065.51 46.8936 1089.3 46.8936C1105.57 46.8936 1117.67 57.4157 1122.06 65.193H1122.26V48.7235H1138.96V147.083C1138.96 178.649 1119.13 201.981 1090.97 201.981C1071.57 201.981 1055.08 189.171 1049.24 179.793ZM1122.26 99.733C1122.26 78.6887 1108.91 63.8205 1091.8 63.8205C1075.32 63.8205 1061.76 78.6887 1061.76 99.733C1061.76 120.777 1075.32 135.646 1091.8 135.646C1108.91 135.646 1122.26 120.777 1122.26 99.733Z" fill="#111111"/>
<path d="M1169.42 155.318V48.7237H1186.11V64.9644H1186.31C1190.7 56.9585 1202.17 46.665 1217.4 46.665C1239.73 46.665 1256 64.7357 1256 92.871V155.546H1239.52V92.871C1239.52 75.4866 1229.09 64.0495 1214.48 64.0495C1198.21 64.0495 1185.9 77.774 1185.9 97.2172V155.546H1169.42V155.318Z" fill="#111111"/>
<path d="M689.548 349.748L689.339 366.675H672.648V211.359H689.339V277.008H689.548C693.929 268.773 706.656 258.022 723.973 258.022C748.175 258.022 769.456 281.354 769.456 313.378C769.456 345.631 748.175 368.962 723.973 368.962C706.656 368.962 693.929 357.983 689.548 349.748ZM752.974 313.378C752.974 291.19 738.369 275.178 721.261 275.178C703.735 275.178 689.339 291.19 689.339 313.378C689.339 335.566 703.735 351.578 721.261 351.578C738.369 351.578 752.974 335.566 752.974 313.378Z" fill="#111111"/>
<path d="M792.615 322.757V260.082H809.306V322.757C809.306 340.141 819.529 351.579 834.134 351.579C850.408 351.579 862.926 337.854 862.926 318.411V260.082H879.408V366.675H862.926V350.435H862.717C858.336 358.441 846.652 368.963 831.63 368.963C809.097 368.963 792.615 350.663 792.615 322.757Z" fill="#111111"/>
<path d="M909.453 366.673V260.079H926.144V275.634H926.353C930.734 268.085 942.001 257.792 957.023 257.792H961.613V276.549L954.936 275.863C939.08 275.863 925.935 290.273 925.935 310.174V366.673H909.453Z" fill="#111111"/>
<path d="M204.048 257.335C204.048 318.18 159.817 366.674 102.024 366.674C44.4399 366.674 0 318.18 0 257.335C0 227.141 13.7701 199.005 22.1156 184.366L115.168 21.501H139.579L61.9655 157.603C68.6419 153.257 84.0811 147.996 101.815 147.996C159.608 147.996 204.048 196.489 204.048 257.335ZM181.724 257.335C181.724 208.841 148.55 172.242 102.024 172.242C55.4977 172.242 22.3243 208.612 22.3243 257.335C22.3243 306.057 55.4977 342.427 102.024 342.427C148.55 342.198 181.724 305.828 181.724 257.335Z" fill="#111111"/>
<path d="M279.366 382V0H299.187V382H279.366Z" fill="#111111"/>
<path d="M379.094 315.664L394.534 298.737C406.009 317.722 435.218 342.426 474.233 342.426C523.055 342.426 556.228 306.056 556.228 257.334C556.228 208.841 523.055 172.242 478.615 172.242C441.477 172.242 416.023 195.574 407.678 213.644H390.152L401.21 21.7295H558.523V45.9761H421.031L414.354 174.758C424.995 163.092 449.823 147.995 478.615 147.995C534.112 147.995 578.344 196.489 578.344 257.334C578.344 318.18 534.112 366.673 474.233 366.673C427.29 366.673 392.447 337.394 379.094 315.664Z" fill="#111111"/>
<path d="M1021.49 352.72C1011.89 352.72 1003.76 348.832 996.871 340.826C989.986 333.049 986.648 323.441 986.648 312.233C986.648 300.796 989.986 291.417 996.871 283.64C1003.76 275.863 1011.89 271.974 1021.49 271.974C1031.09 271.974 1039.22 275.863 1046.11 283.64C1053 291.417 1056.33 301.025 1056.33 312.462C1056.33 323.899 1053 333.506 1046.11 341.283C1039.22 348.832 1031.09 352.72 1021.49 352.72ZM1021.49 366.902C1035.05 366.902 1046.53 361.641 1056.12 351.119C1065.51 340.597 1070.31 327.559 1070.31 312.233C1070.31 296.907 1065.51 283.869 1056.12 273.347C1046.74 262.825 1035.05 257.563 1021.49 257.563C1007.93 257.563 996.454 262.825 986.857 273.347C977.259 283.869 972.669 296.907 972.669 312.233C972.669 327.559 977.468 340.597 986.857 351.119C996.454 361.641 1007.93 366.902 1021.49 366.902Z" fill="#111111"/>
<path d="M13.0518 461.244V463.207H1.34766V461.244H13.0518ZM33.9258 463.793C33.9258 465.873 33.208 467.646 31.7871 469.11C30.3662 470.575 28.6816 471.308 26.7334 471.308C26.0303 471.308 25.3418 471.19 24.668 470.985C23.9941 470.78 23.4375 470.531 22.9688 470.238C22.5 469.945 22.1045 469.667 21.7529 469.374C21.4014 469.081 21.1377 468.832 20.9619 468.612L20.7275 468.319L22.2217 466.972C22.251 467.03 22.3242 467.104 22.4121 467.221C22.5 467.323 22.6904 467.514 22.9834 467.792C23.2764 468.085 23.584 468.334 23.9062 468.539C24.2285 468.744 24.6387 468.935 25.1514 469.096C25.6494 469.271 26.1768 469.345 26.7334 469.345C27.9932 469.345 29.1064 468.876 30.1025 467.924C31.084 466.986 31.6553 465.858 31.8311 464.555H24.624V462.606H31.6699C31.5088 461.449 30.9521 460.438 30.0146 459.56C29.0625 458.695 27.9639 458.256 26.7334 458.256C26.1914 458.256 25.6787 458.344 25.1807 458.49C24.6826 458.651 24.2725 458.856 23.9355 459.091C23.6133 459.34 23.3203 459.589 23.0713 459.823C22.8223 460.058 22.6318 460.263 22.5146 460.409L22.3682 460.644L20.8594 459.149C20.918 459.076 21.0059 458.974 21.123 458.842C21.2402 458.71 21.4746 458.49 21.8408 458.168C22.2217 457.846 22.6172 457.567 23.0273 457.304C23.4521 457.055 23.9941 456.82 24.668 456.615C25.3418 456.41 26.0303 456.293 26.7334 456.293C28.6963 456.293 30.3809 457.025 31.8018 458.49C33.208 459.955 33.9258 461.713 33.9258 463.793ZM35.874 458.549V456.601H48.1641V458.549H43.0664V471H40.9717V458.549H35.874ZM62.7246 463.808C62.7246 462.255 62.1973 460.937 61.1719 459.867C60.1465 458.798 58.9014 458.256 57.4658 458.256C56.0303 458.256 54.7852 458.798 53.7598 459.867C52.7344 460.937 52.2217 462.24 52.2217 463.793C52.2217 465.346 52.7344 466.649 53.7598 467.733C54.7852 468.817 56.0303 469.345 57.4658 469.345C58.9014 469.345 60.1465 468.817 61.1719 467.748C62.1973 466.679 62.7246 465.36 62.7246 463.808ZM50.127 463.808C50.127 461.698 50.8301 459.926 52.2656 458.476C53.7012 457.025 55.4297 456.293 57.4805 456.293C59.5166 456.293 61.2451 457.025 62.666 458.476C64.1016 459.926 64.8047 461.698 64.8047 463.808C64.8047 465.917 64.1016 467.689 62.666 469.14C61.2451 470.575 59.5166 471.308 57.4805 471.308C55.4297 471.308 53.7012 470.575 52.2656 469.14C50.8301 467.689 50.127 465.917 50.127 463.808ZM73.2422 463.793C73.2422 461.713 73.9453 459.955 75.3662 458.49C76.7871 457.025 78.4717 456.293 80.4199 456.293C81.5479 456.293 82.6025 456.542 83.5693 457.025C84.5361 457.509 85.2393 457.992 85.6494 458.461L86.2793 459.149L84.7705 460.644C84.7412 460.585 84.6826 460.512 84.5947 460.395C84.5215 460.292 84.3457 460.102 84.082 459.809C83.8184 459.53 83.5254 459.281 83.2178 459.076C82.8955 458.871 82.5 458.681 82.002 458.505C81.5039 458.344 80.9766 458.256 80.4346 458.256C79.0576 458.256 77.8564 458.798 76.8457 459.867C75.835 460.937 75.3369 462.255 75.3369 463.808C75.3369 465.36 75.835 466.679 76.8457 467.748C77.8564 468.817 79.0576 469.345 80.4346 469.345C81.2695 469.345 82.0605 469.154 82.8223 468.744C83.5693 468.349 84.1113 467.953 84.4482 467.543L84.9316 466.957L86.4258 468.305C86.3672 468.393 86.2793 468.495 86.1621 468.642C86.0449 468.788 85.7812 469.022 85.3857 469.359C85.0049 469.696 84.5947 469.989 84.1553 470.253C83.7305 470.517 83.1738 470.751 82.5 470.971C81.8262 471.19 81.1377 471.293 80.4346 471.293C78.4717 471.293 76.7725 470.575 75.3662 469.11C73.9453 467.646 73.2422 465.873 73.2422 463.793ZM87.9346 458.549V456.601H100.225V458.549H95.127V471H93.0322V458.549H87.9346ZM106.392 473.095L107.139 471L101.279 456.601H103.535L108.193 468.305L112.837 456.601H115.093L108.486 473.095C107.886 474.618 107.241 475.702 106.567 476.347C105.879 476.991 105.015 477.299 103.975 477.299C103.652 477.299 103.345 477.284 103.052 477.226C102.759 477.182 102.524 477.123 102.378 477.064L102.173 477.006V475.043C102.671 475.248 103.169 475.351 103.667 475.351C104.941 475.351 105.85 474.604 106.392 473.095ZM131.294 469.052V474.604H129.199V471H117.642V474.604H115.547V469.052H116.587C116.646 468.993 116.733 468.905 116.851 468.759C116.968 468.612 117.188 468.29 117.48 467.792C117.773 467.294 118.022 466.767 118.257 466.181C118.491 465.595 118.696 464.818 118.872 463.852C119.048 462.885 119.15 461.859 119.15 460.805V456.601H129.038V469.052H131.294ZM121.245 458.549L121.23 460.805C121.23 462.445 121.04 463.954 120.63 465.316C120.234 466.693 119.839 467.66 119.443 468.217L118.843 469.052H126.943V458.549H121.245ZM145.386 456.601H147.188V471H145.078V460.204L136.377 471H134.59V456.601H136.685V467.396L145.386 456.601ZM151.084 461.405C151.084 460.028 151.567 458.886 152.534 457.978C153.501 457.069 154.775 456.601 156.343 456.601H162.48V471H160.386V466.195H156.182L153.193 471H150.791L154.087 465.756C153.999 465.741 153.896 465.712 153.75 465.653C153.604 465.595 153.369 465.463 153.032 465.258C152.681 465.053 152.388 464.789 152.124 464.496C151.86 464.203 151.626 463.778 151.406 463.251C151.187 462.709 151.084 462.094 151.084 461.405ZM160.386 458.549L156.343 458.563C155.376 458.563 154.614 458.827 154.043 459.354C153.472 459.882 153.193 460.57 153.193 461.405C153.193 462.255 153.472 462.929 154.043 463.456C154.6 463.983 155.376 464.247 156.343 464.247H160.386V458.549ZM183.34 471V458.578H175.093V471H172.998V456.601H185.449V471H183.34ZM192.349 463.808C192.349 465.287 192.861 466.576 193.916 467.689C194.971 468.803 196.143 469.345 197.446 469.345C198.677 469.345 199.79 468.817 200.771 467.733C201.753 466.649 202.251 465.346 202.251 463.808C202.251 462.27 201.753 460.966 200.771 459.882C199.79 458.798 198.677 458.256 197.446 458.256C196.143 458.256 194.971 458.812 193.916 459.926C192.861 461.039 192.349 462.328 192.349 463.808ZM192.349 468.744V477.313H190.254V456.615H192.349V458.871C192.378 458.812 192.451 458.71 192.554 458.593C192.656 458.476 192.861 458.271 193.184 457.978C193.506 457.685 193.843 457.421 194.224 457.187C194.59 456.952 195.059 456.747 195.645 456.571C196.23 456.396 196.831 456.308 197.446 456.308C199.277 456.308 200.889 457.04 202.266 458.52C203.643 459.984 204.346 461.757 204.346 463.808C204.346 465.858 203.657 467.631 202.28 469.096C200.903 470.561 199.292 471.293 197.446 471.293C196.831 471.293 196.23 471.205 195.659 471.029C195.088 470.854 194.604 470.648 194.224 470.399C193.828 470.165 193.491 469.916 193.198 469.667C192.905 469.418 192.7 469.198 192.554 469.022L192.349 468.744ZM220.84 464.584L209.136 464.555C209.209 465.858 209.736 466.986 210.732 467.924C211.729 468.876 212.886 469.345 214.233 469.345C215.127 469.345 215.962 469.154 216.738 468.744C217.5 468.349 218.057 467.953 218.379 467.543L218.892 466.957L220.239 468.305C220.181 468.393 220.093 468.495 219.976 468.642C219.858 468.788 219.624 469.022 219.243 469.359C218.862 469.696 218.467 469.989 218.027 470.253C217.588 470.517 217.031 470.751 216.343 470.971C215.654 471.19 214.951 471.293 214.233 471.293C212.271 471.293 210.571 470.575 209.165 469.11C207.744 467.646 207.041 465.873 207.041 463.793C207.041 461.713 207.729 459.955 209.136 458.49C210.542 457.025 212.183 456.293 214.087 456.293C216.05 456.293 217.69 456.981 219.009 458.344C220.327 459.706 220.986 461.42 220.986 463.5L220.84 464.584ZM214.087 458.256C212.827 458.256 211.729 458.71 210.791 459.589C209.854 460.482 209.297 461.537 209.136 462.753H218.892C218.73 461.464 218.203 460.38 217.31 459.53C216.416 458.681 215.347 458.256 214.087 458.256ZM238.081 469.052V474.604H235.986V471H224.429V474.604H222.334V469.052H223.374C223.433 468.993 223.521 468.905 223.638 468.759C223.755 468.612 223.975 468.29 224.268 467.792C224.561 467.294 224.81 466.767 225.044 466.181C225.278 465.595 225.483 464.818 225.659 463.852C225.835 462.885 225.938 461.859 225.938 460.805V456.601H235.825V469.052H238.081ZM228.032 458.549L228.018 460.805C228.018 462.445 227.827 463.954 227.417 465.316C227.021 466.693 226.626 467.66 226.23 468.217L225.63 469.052H233.73V458.549H228.032ZM253.975 460.351L248.716 466.957L243.472 460.351V471H241.377V456.601H243.018L248.716 463.793L254.414 456.601H256.069V471H253.975V460.351ZM273.633 464.584L261.929 464.555C262.002 465.858 262.529 466.986 263.525 467.924C264.521 468.876 265.679 469.345 267.026 469.345C267.92 469.345 268.755 469.154 269.531 468.744C270.293 468.349 270.85 467.953 271.172 467.543L271.685 466.957L273.032 468.305C272.974 468.393 272.886 468.495 272.769 468.642C272.651 468.788 272.417 469.022 272.036 469.359C271.655 469.696 271.26 469.989 270.82 470.253C270.381 470.517 269.824 470.751 269.136 470.971C268.447 471.19 267.744 471.293 267.026 471.293C265.063 471.293 263.364 470.575 261.958 469.11C260.537 467.646 259.834 465.873 259.834 463.793C259.834 461.713 260.522 459.955 261.929 458.49C263.335 457.025 264.976 456.293 266.88 456.293C268.843 456.293 270.483 456.981 271.802 458.344C273.12 459.706 273.779 461.42 273.779 463.5L273.633 464.584ZM266.88 458.256C265.62 458.256 264.521 458.71 263.584 459.589C262.646 460.482 262.09 461.537 261.929 462.753H271.685C271.523 461.464 270.996 460.38 270.103 459.53C269.209 458.681 268.14 458.256 266.88 458.256ZM275.728 458.549V456.601H288.018V458.549H282.92V471H280.825V458.549H275.728ZM301.377 471V464.701H293.13V471H291.035V456.601H293.13V462.753H301.377V456.601H303.486V471H301.377ZM319.834 463.808C319.834 462.255 319.307 460.937 318.281 459.867C317.256 458.798 316.011 458.256 314.575 458.256C313.14 458.256 311.895 458.798 310.869 459.867C309.844 460.937 309.331 462.24 309.331 463.793C309.331 465.346 309.844 466.649 310.869 467.733C311.895 468.817 313.14 469.345 314.575 469.345C316.011 469.345 317.256 468.817 318.281 467.748C319.307 466.679 319.834 465.36 319.834 463.808ZM307.236 463.808C307.236 461.698 307.939 459.926 309.375 458.476C310.811 457.025 312.539 456.293 314.59 456.293C316.626 456.293 318.354 457.025 319.775 458.476C321.211 459.926 321.914 461.698 321.914 463.808C321.914 465.917 321.211 467.689 319.775 469.14C318.354 470.575 316.626 471.308 314.59 471.308C312.539 471.308 310.811 470.575 309.375 469.14C307.939 467.689 307.236 465.917 307.236 463.808ZM335.288 456.601V458.549H327.788V471H325.693V456.601H335.288ZM349.541 463.808C349.541 462.255 349.014 460.937 347.988 459.867C346.963 458.798 345.718 458.256 344.282 458.256C342.847 458.256 341.602 458.798 340.576 459.867C339.551 460.937 339.038 462.24 339.038 463.793C339.038 465.346 339.551 466.649 340.576 467.733C341.602 468.817 342.847 469.345 344.282 469.345C345.718 469.345 346.963 468.817 347.988 467.748C349.014 466.679 349.541 465.36 349.541 463.808ZM336.943 463.808C336.943 461.698 337.646 459.926 339.082 458.476C340.518 457.025 342.246 456.293 344.297 456.293C346.333 456.293 348.062 457.025 349.482 458.476C350.918 459.926 351.621 461.698 351.621 463.808C351.621 465.917 350.918 467.689 349.482 469.14C348.062 470.575 346.333 471.308 344.297 471.308C342.246 471.308 340.518 470.575 339.082 469.14C337.646 467.689 336.943 465.917 336.943 463.808ZM13.0518 491.601H14.8535V506H12.7441V495.204L4.04297 506H2.25586V491.601H4.35059V502.396L13.0518 491.601ZM35.7129 506V493.578H27.4658V506H25.3711V491.601H37.8223V506H35.7129ZM44.7217 498.808C44.7217 500.287 45.2344 501.576 46.2891 502.689C47.3438 503.803 48.5156 504.345 49.8193 504.345C51.0498 504.345 52.1631 503.817 53.1445 502.733C54.126 501.649 54.624 500.346 54.624 498.808C54.624 497.27 54.126 495.966 53.1445 494.882C52.1631 493.798 51.0498 493.256 49.8193 493.256C48.5156 493.256 47.3438 493.812 46.2891 494.926C45.2344 496.039 44.7217 497.328 44.7217 498.808ZM44.7217 503.744V512.313H42.627V491.615H44.7217V493.871C44.751 493.812 44.8242 493.71 44.9268 493.593C45.0293 493.476 45.2344 493.271 45.5566 492.978C45.8789 492.685 46.2158 492.421 46.5967 492.187C46.9629 491.952 47.4316 491.747 48.0176 491.571C48.6035 491.396 49.2041 491.308 49.8193 491.308C51.6504 491.308 53.2617 492.04 54.6387 493.52C56.0156 494.984 56.7188 496.757 56.7188 498.808C56.7188 500.858 56.0303 502.631 54.6533 504.096C53.2764 505.561 51.665 506.293 49.8193 506.293C49.2041 506.293 48.6035 506.205 48.0322 506.029C47.4609 505.854 46.9775 505.648 46.5967 505.399C46.2012 505.165 45.8643 504.916 45.5713 504.667C45.2783 504.418 45.0732 504.198 44.9268 504.022L44.7217 503.744ZM72.0117 498.808C72.0117 497.255 71.4844 495.937 70.459 494.867C69.4336 493.798 68.1885 493.256 66.7529 493.256C65.3174 493.256 64.0723 493.798 63.0469 494.867C62.0215 495.937 61.5088 497.24 61.5088 498.793C61.5088 500.346 62.0215 501.649 63.0469 502.733C64.0723 503.817 65.3174 504.345 66.7529 504.345C68.1885 504.345 69.4336 503.817 70.459 502.748C71.4844 501.679 72.0117 500.36 72.0117 498.808ZM59.4141 498.808C59.4141 496.698 60.1172 494.926 61.5527 493.476C62.9883 492.025 64.7168 491.293 66.7676 491.293C68.8037 491.293 70.5322 492.025 71.9531 493.476C73.3887 494.926 74.0918 496.698 74.0918 498.808C74.0918 500.917 73.3887 502.689 71.9531 504.14C70.5322 505.575 68.8037 506.308 66.7676 506.308C64.7168 506.308 62.9883 505.575 61.5527 504.14C60.1172 502.689 59.4141 500.917 59.4141 498.808ZM76.8164 498.793C76.8164 496.713 77.5195 494.955 78.9404 493.49C80.3613 492.025 82.0459 491.293 83.9941 491.293C85.1221 491.293 86.1768 491.542 87.1436 492.025C88.1104 492.509 88.8135 492.992 89.2236 493.461L89.8535 494.149L88.3447 495.644C88.3154 495.585 88.2568 495.512 88.1689 495.395C88.0957 495.292 87.9199 495.102 87.6562 494.809C87.3926 494.53 87.0996 494.281 86.792 494.076C86.4697 493.871 86.0742 493.681 85.5762 493.505C85.0781 493.344 84.5508 493.256 84.0088 493.256C82.6318 493.256 81.4307 493.798 80.4199 494.867C79.4092 495.937 78.9111 497.255 78.9111 498.808C78.9111 500.36 79.4092 501.679 80.4199 502.748C81.4307 503.817 82.6318 504.345 84.0088 504.345C84.8438 504.345 85.6348 504.154 86.3965 503.744C87.1436 503.349 87.6855 502.953 88.0225 502.543L88.5059 501.957L90 503.305C89.9414 503.393 89.8535 503.495 89.7363 503.642C89.6191 503.788 89.3555 504.022 88.96 504.359C88.5791 504.696 88.1689 504.989 87.7295 505.253C87.3047 505.517 86.748 505.751 86.0742 505.971C85.4004 506.19 84.7119 506.293 84.0088 506.293C82.0459 506.293 80.3467 505.575 78.9404 504.11C77.5195 502.646 76.8164 500.873 76.8164 498.793ZM91.5088 493.549V491.601H103.799V493.549H98.7012V506H96.6064V493.549H91.5088ZM108.911 498.808C108.911 500.287 109.424 501.576 110.479 502.689C111.533 503.803 112.705 504.345 114.009 504.345C115.239 504.345 116.353 503.817 117.334 502.733C118.315 501.649 118.813 500.346 118.813 498.808C118.813 497.27 118.315 495.966 117.334 494.882C116.353 493.798 115.239 493.256 114.009 493.256C112.705 493.256 111.533 493.812 110.479 494.926C109.424 496.039 108.911 497.328 108.911 498.808ZM108.911 503.744V512.313H106.816V491.615H108.911V493.871C108.94 493.812 109.014 493.71 109.116 493.593C109.219 493.476 109.424 493.271 109.746 492.978C110.068 492.685 110.405 492.421 110.786 492.187C111.152 491.952 111.621 491.747 112.207 491.571C112.793 491.396 113.394 491.308 114.009 491.308C115.84 491.308 117.451 492.04 118.828 493.52C120.205 494.984 120.908 496.757 120.908 498.808C120.908 500.858 120.22 502.631 118.843 504.096C117.466 505.561 115.854 506.293 114.009 506.293C113.394 506.293 112.793 506.205 112.222 506.029C111.65 505.854 111.167 505.648 110.786 505.399C110.391 505.165 110.054 504.916 109.761 504.667C109.468 504.418 109.263 504.198 109.116 504.022L108.911 503.744ZM127.808 497.753L133.359 496.845C133.359 495.79 133.022 494.926 132.349 494.252C131.675 493.593 130.811 493.256 129.756 493.256C128.994 493.256 128.276 493.432 127.603 493.783C126.929 494.135 126.445 494.486 126.152 494.838L125.698 495.351L124.351 494.003C124.409 493.93 124.482 493.827 124.585 493.71C124.688 493.593 124.907 493.373 125.259 493.065C125.61 492.758 125.977 492.479 126.357 492.23C126.738 491.996 127.236 491.776 127.852 491.586C128.467 491.396 129.111 491.293 129.756 491.293C131.396 491.293 132.744 491.835 133.828 492.89C134.912 493.959 135.454 495.277 135.454 496.845V506H133.359V504.052C133.315 504.11 133.257 504.198 133.169 504.301C133.081 504.403 132.905 504.579 132.612 504.843C132.319 505.106 132.012 505.326 131.689 505.531C131.353 505.736 130.913 505.912 130.371 506.059C129.829 506.22 129.272 506.293 128.701 506.293C127.266 506.293 126.05 505.868 125.068 505.019C124.087 504.169 123.604 503.202 123.604 502.104C123.604 500.902 123.955 499.936 124.688 499.203C125.405 498.471 126.445 497.987 127.808 497.753ZM128.701 504.345C130.049 504.345 131.162 503.905 132.041 503.012C132.92 502.133 133.359 500.976 133.359 499.555V498.646L128.408 499.555C126.606 499.906 125.698 500.756 125.698 502.104C125.698 502.748 125.962 503.29 126.489 503.715C127.017 504.14 127.764 504.345 128.701 504.345ZM150.586 506V499.701H142.339V506H140.244V491.601H142.339V497.753H150.586V491.601H152.695V506H150.586ZM156.445 498.793C156.445 496.713 157.148 494.955 158.569 493.49C159.99 492.025 161.675 491.293 163.623 491.293C164.751 491.293 165.806 491.542 166.772 492.025C167.739 492.509 168.442 492.992 168.853 493.461L169.482 494.149L167.974 495.644C167.944 495.585 167.886 495.512 167.798 495.395C167.725 495.292 167.549 495.102 167.285 494.809C167.021 494.53 166.729 494.281 166.421 494.076C166.099 493.871 165.703 493.681 165.205 493.505C164.707 493.344 164.18 493.256 163.638 493.256C162.261 493.256 161.06 493.798 160.049 494.867C159.038 495.937 158.54 497.255 158.54 498.808C158.54 500.36 159.038 501.679 160.049 502.748C161.06 503.817 162.261 504.345 163.638 504.345C164.473 504.345 165.264 504.154 166.025 503.744C166.772 503.349 167.314 502.953 167.651 502.543L168.135 501.957L169.629 503.305C169.57 503.393 169.482 503.495 169.365 503.642C169.248 503.788 168.984 504.022 168.589 504.359C168.208 504.696 167.798 504.989 167.358 505.253C166.934 505.517 166.377 505.751 165.703 505.971C165.029 506.19 164.341 506.293 163.638 506.293C161.675 506.293 159.976 505.575 158.569 504.11C157.148 502.646 156.445 500.873 156.445 498.793ZM171.138 493.549V491.601H183.428V493.549H178.33V506H176.235V493.549H171.138ZM186.445 491.601H193.037C194.355 491.601 195.41 491.967 196.201 492.67C196.992 493.373 197.388 494.267 197.388 495.351C197.388 495.966 197.227 496.537 196.934 497.035C196.641 497.533 196.333 497.885 196.04 498.075L195.586 498.354C195.645 498.383 195.718 498.412 195.835 498.441C195.952 498.485 196.143 498.588 196.421 498.764C196.699 498.939 196.948 499.13 197.153 499.364C197.358 499.599 197.549 499.921 197.725 500.346C197.9 500.785 197.988 501.269 197.988 501.796C197.988 503.1 197.578 504.125 196.772 504.872C195.952 505.634 194.81 506 193.345 506H186.445V491.601ZM193.345 499.247H188.54V504.052H193.345C194.165 504.052 194.795 503.847 195.234 503.422C195.674 503.012 195.894 502.411 195.894 501.649C195.894 500.888 195.674 500.302 195.234 499.877C194.795 499.467 194.165 499.247 193.345 499.247ZM195.293 495.497C195.293 494.208 194.531 493.549 193.037 493.549H188.54V497.445H193.037C194.531 497.445 195.293 496.801 195.293 495.497ZM214.775 499.584L203.071 499.555C203.145 500.858 203.672 501.986 204.668 502.924C205.664 503.876 206.821 504.345 208.169 504.345C209.062 504.345 209.897 504.154 210.674 503.744C211.436 503.349 211.992 502.953 212.314 502.543L212.827 501.957L214.175 503.305C214.116 503.393 214.028 503.495 213.911 503.642C213.794 503.788 213.56 504.022 213.179 504.359C212.798 504.696 212.402 504.989 211.963 505.253C211.523 505.517 210.967 505.751 210.278 505.971C209.59 506.19 208.887 506.293 208.169 506.293C206.206 506.293 204.507 505.575 203.101 504.11C201.68 502.646 200.977 500.873 200.977 498.793C200.977 496.713 201.665 494.955 203.071 493.49C204.478 492.025 206.118 491.293 208.022 491.293C209.985 491.293 211.626 491.981 212.944 493.344C214.263 494.706 214.922 496.42 214.922 498.5L214.775 499.584ZM208.022 493.256C206.763 493.256 205.664 493.71 204.727 494.589C203.789 495.482 203.232 496.537 203.071 497.753H212.827C212.666 496.464 212.139 495.38 211.245 494.53C210.352 493.681 209.282 493.256 208.022 493.256ZM229.014 506V499.701H220.767V506H218.672V491.601H220.767V497.753H229.014V491.601H231.123V506H229.014ZM246.27 506V499.701H238.022V506H235.928V491.601H238.022V497.753H246.27V491.601H248.379V506H246.27ZM264.727 498.808C264.727 497.255 264.199 495.937 263.174 494.867C262.148 493.798 260.903 493.256 259.468 493.256C258.032 493.256 256.787 493.798 255.762 494.867C254.736 495.937 254.224 497.24 254.224 498.793C254.224 500.346 254.736 501.649 255.762 502.733C256.787 503.817 258.032 504.345 259.468 504.345C260.903 504.345 262.148 503.817 263.174 502.748C264.199 501.679 264.727 500.36 264.727 498.808ZM252.129 498.808C252.129 496.698 252.832 494.926 254.268 493.476C255.703 492.025 257.432 491.293 259.482 491.293C261.519 491.293 263.247 492.025 264.668 493.476C266.104 494.926 266.807 496.698 266.807 498.808C266.807 500.917 266.104 502.689 264.668 504.14C263.247 505.575 261.519 506.308 259.482 506.308C257.432 506.308 255.703 505.575 254.268 504.14C252.832 502.689 252.129 500.917 252.129 498.808ZM280.181 491.601V493.549H272.681V506H270.586V491.601H280.181ZM294.434 498.808C294.434 497.255 293.906 495.937 292.881 494.867C291.855 493.798 290.61 493.256 289.175 493.256C287.739 493.256 286.494 493.798 285.469 494.867C284.443 495.937 283.931 497.24 283.931 498.793C283.931 500.346 284.443 501.649 285.469 502.733C286.494 503.817 287.739 504.345 289.175 504.345C290.61 504.345 291.855 503.817 292.881 502.748C293.906 501.679 294.434 500.36 294.434 498.808ZM281.836 498.808C281.836 496.698 282.539 494.926 283.975 493.476C285.41 492.025 287.139 491.293 289.189 491.293C291.226 491.293 292.954 492.025 294.375 493.476C295.811 494.926 296.514 496.698 296.514 498.808C296.514 500.917 295.811 502.689 294.375 504.14C292.954 505.575 291.226 506.308 289.189 506.308C287.139 506.308 285.41 505.575 283.975 504.14C282.539 502.689 281.836 500.917 281.836 498.808ZM319.351 504.052V509.604H317.256V506H305.698V509.604H303.604V504.052H304.644C304.702 503.993 304.79 503.905 304.907 503.759C305.024 503.612 305.244 503.29 305.537 502.792C305.83 502.294 306.079 501.767 306.313 501.181C306.548 500.595 306.753 499.818 306.929 498.852C307.104 497.885 307.207 496.859 307.207 495.805V491.601H317.095V504.052H319.351ZM309.302 493.549L309.287 495.805C309.287 497.445 309.097 498.954 308.687 500.316C308.291 501.693 307.896 502.66 307.5 503.217L306.899 504.052H315V493.549H309.302ZM333.442 491.601H335.244V506H333.135V495.204L324.434 506H322.646V491.601H324.741V502.396L333.442 491.601ZM348.75 495.351C348.75 495.834 348.662 496.273 348.516 496.669C348.369 497.05 348.179 497.357 347.959 497.577C347.739 497.797 347.52 497.987 347.285 498.134C347.051 498.28 346.875 498.397 346.729 498.456L346.494 498.515C346.567 498.529 346.67 498.559 346.802 498.588C346.934 498.617 347.153 498.705 347.476 498.866C347.798 499.027 348.076 499.218 348.325 499.452C348.574 499.687 348.809 500.023 349.014 500.463C349.219 500.902 349.336 501.4 349.336 501.972C349.336 503.188 348.853 504.213 347.9 505.048C346.934 505.883 345.571 506.308 343.799 506.308C343.11 506.308 342.466 506.22 341.851 506.044C341.235 505.868 340.737 505.648 340.327 505.414C339.917 505.165 339.551 504.916 339.258 504.667C338.965 504.418 338.745 504.213 338.599 504.037L338.394 503.759L339.741 502.411C339.858 502.543 340.02 502.719 340.225 502.938C340.43 503.173 340.898 503.466 341.602 503.817C342.305 504.169 343.037 504.345 343.799 504.345C344.941 504.345 345.791 504.125 346.377 503.686C346.948 503.246 347.241 502.675 347.241 501.957C347.241 501.239 346.948 500.653 346.362 500.214C345.776 499.774 344.927 499.555 343.799 499.555H342.144V497.606H343.799C344.648 497.606 345.337 497.387 345.864 496.947C346.377 496.508 346.641 495.966 346.641 495.351C346.641 494.735 346.392 494.223 345.923 493.842C345.439 493.461 344.736 493.271 343.799 493.271C343.125 493.271 342.495 493.402 341.895 493.666C341.294 493.93 340.869 494.208 340.62 494.486L340.195 494.896L338.687 493.402C338.818 493.256 339.023 493.051 339.287 492.816C339.551 492.582 340.122 492.274 341.001 491.879C341.88 491.498 342.803 491.293 343.799 491.293C345.264 491.293 346.45 491.703 347.373 492.494C348.281 493.3 348.75 494.252 348.75 495.351ZM356.411 497.753L361.963 496.845C361.963 495.79 361.626 494.926 360.952 494.252C360.278 493.593 359.414 493.256 358.359 493.256C357.598 493.256 356.88 493.432 356.206 493.783C355.532 494.135 355.049 494.486 354.756 494.838L354.302 495.351L352.954 494.003C353.013 493.93 353.086 493.827 353.188 493.71C353.291 493.593 353.511 493.373 353.862 493.065C354.214 492.758 354.58 492.479 354.961 492.23C355.342 491.996 355.84 491.776 356.455 491.586C357.07 491.396 357.715 491.293 358.359 491.293C360 491.293 361.348 491.835 362.432 492.89C363.516 493.959 364.058 495.277 364.058 496.845V506H361.963V504.052C361.919 504.11 361.86 504.198 361.772 504.301C361.685 504.403 361.509 504.579 361.216 504.843C360.923 505.106 360.615 505.326 360.293 505.531C359.956 505.736 359.517 505.912 358.975 506.059C358.433 506.22 357.876 506.293 357.305 506.293C355.869 506.293 354.653 505.868 353.672 505.019C352.69 504.169 352.207 503.202 352.207 502.104C352.207 500.902 352.559 499.936 353.291 499.203C354.009 498.471 355.049 497.987 356.411 497.753ZM357.305 504.345C358.652 504.345 359.766 503.905 360.645 503.012C361.523 502.133 361.963 500.976 361.963 499.555V498.646L357.012 499.555C355.21 499.906 354.302 500.756 354.302 502.104C354.302 502.748 354.565 503.29 355.093 503.715C355.62 504.14 356.367 504.345 357.305 504.345ZM375.146 487.543C375.908 487.543 376.494 487.323 376.919 486.884C377.329 486.444 377.549 485.814 377.549 484.994H379.189C379.189 486.195 378.809 487.177 378.062 487.924C377.314 488.686 376.348 489.052 375.146 489.052C373.945 489.052 372.964 488.686 372.217 487.924C371.455 487.177 371.089 486.195 371.089 484.994H372.744C372.744 485.814 372.949 486.444 373.374 486.884C373.784 487.323 374.385 487.543 375.146 487.543ZM379.644 491.601H381.445V506H379.336V495.204L370.635 506H368.848V491.601H370.942V502.396L379.644 491.601ZM396.592 506V499.701H388.345V506H386.25V491.601H388.345V497.753H396.592V491.601H398.701V506H396.592ZM406.655 497.753L412.207 496.845C412.207 495.79 411.87 494.926 411.196 494.252C410.522 493.593 409.658 493.256 408.604 493.256C407.842 493.256 407.124 493.432 406.45 493.783C405.776 494.135 405.293 494.486 405 494.838L404.546 495.351L403.198 494.003C403.257 493.93 403.33 493.827 403.433 493.71C403.535 493.593 403.755 493.373 404.106 493.065C404.458 492.758 404.824 492.479 405.205 492.23C405.586 491.996 406.084 491.776 406.699 491.586C407.314 491.396 407.959 491.293 408.604 491.293C410.244 491.293 411.592 491.835 412.676 492.89C413.76 493.959 414.302 495.277 414.302 496.845V506H412.207V504.052C412.163 504.11 412.104 504.198 412.017 504.301C411.929 504.403 411.753 504.579 411.46 504.843C411.167 505.106 410.859 505.326 410.537 505.531C410.2 505.736 409.761 505.912 409.219 506.059C408.677 506.22 408.12 506.293 407.549 506.293C406.113 506.293 404.897 505.868 403.916 505.019C402.935 504.169 402.451 503.202 402.451 502.104C402.451 500.902 402.803 499.936 403.535 499.203C404.253 498.471 405.293 497.987 406.655 497.753ZM407.549 504.345C408.896 504.345 410.01 503.905 410.889 503.012C411.768 502.133 412.207 500.976 412.207 499.555V498.646L407.256 499.555C405.454 499.906 404.546 500.756 404.546 502.104C404.546 502.748 404.81 503.29 405.337 503.715C405.864 504.14 406.611 504.345 407.549 504.345ZM423.75 498.793C423.75 496.713 424.453 494.955 425.874 493.49C427.295 492.025 428.979 491.293 430.928 491.293C432.056 491.293 433.11 491.542 434.077 492.025C435.044 492.509 435.747 492.992 436.157 493.461L436.787 494.149L435.278 495.644C435.249 495.585 435.19 495.512 435.103 495.395C435.029 495.292 434.854 495.102 434.59 494.809C434.326 494.53 434.033 494.281 433.726 494.076C433.403 493.871 433.008 493.681 432.51 493.505C432.012 493.344 431.484 493.256 430.942 493.256C429.565 493.256 428.364 493.798 427.354 494.867C426.343 495.937 425.845 497.255 425.845 498.808C425.845 500.36 426.343 501.679 427.354 502.748C428.364 503.817 429.565 504.345 430.942 504.345C431.777 504.345 432.568 504.154 433.33 503.744C434.077 503.349 434.619 502.953 434.956 502.543L435.439 501.957L436.934 503.305C436.875 503.393 436.787 503.495 436.67 503.642C436.553 503.788 436.289 504.022 435.894 504.359C435.513 504.696 435.103 504.989 434.663 505.253C434.238 505.517 433.682 505.751 433.008 505.971C432.334 506.19 431.646 506.293 430.942 506.293C428.979 506.293 427.28 505.575 425.874 504.11C424.453 502.646 423.75 500.873 423.75 498.793ZM444.902 498.793C444.902 496.713 445.605 494.955 447.026 493.49C448.447 492.025 450.132 491.293 452.08 491.293C453.208 491.293 454.263 491.542 455.229 492.025C456.196 492.509 456.899 492.992 457.31 493.461L457.939 494.149L456.431 495.644C456.401 495.585 456.343 495.512 456.255 495.395C456.182 495.292 456.006 495.102 455.742 494.809C455.479 494.53 455.186 494.281 454.878 494.076C454.556 493.871 454.16 493.681 453.662 493.505C453.164 493.344 452.637 493.256 452.095 493.256C450.718 493.256 449.517 493.798 448.506 494.867C447.495 495.937 446.997 497.255 446.997 498.808C446.997 500.36 447.495 501.679 448.506 502.748C449.517 503.817 450.718 504.345 452.095 504.345C452.93 504.345 453.721 504.154 454.482 503.744C455.229 503.349 455.771 502.953 456.108 502.543L456.592 501.957L458.086 503.305C458.027 503.393 457.939 503.495 457.822 503.642C457.705 503.788 457.441 504.022 457.046 504.359C456.665 504.696 456.255 504.989 455.815 505.253C455.391 505.517 454.834 505.751 454.16 505.971C453.486 506.19 452.798 506.293 452.095 506.293C450.132 506.293 448.433 505.575 447.026 504.11C445.605 502.646 444.902 500.873 444.902 498.793ZM472.939 498.808C472.939 497.255 472.412 495.937 471.387 494.867C470.361 493.798 469.116 493.256 467.681 493.256C466.245 493.256 465 493.798 463.975 494.867C462.949 495.937 462.437 497.24 462.437 498.793C462.437 500.346 462.949 501.649 463.975 502.733C465 503.817 466.245 504.345 467.681 504.345C469.116 504.345 470.361 503.817 471.387 502.748C472.412 501.679 472.939 500.36 472.939 498.808ZM460.342 498.808C460.342 496.698 461.045 494.926 462.48 493.476C463.916 492.025 465.645 491.293 467.695 491.293C469.731 491.293 471.46 492.025 472.881 493.476C474.316 494.926 475.02 496.698 475.02 498.808C475.02 500.917 474.316 502.689 472.881 504.14C471.46 505.575 469.731 506.308 467.695 506.308C465.645 506.308 463.916 505.575 462.48 504.14C461.045 502.689 460.342 500.917 460.342 498.808ZM492.437 499.101C492.437 501.122 491.748 502.836 490.386 504.213C489.009 505.604 487.354 506.293 485.391 506.293C483.267 506.293 481.538 505.487 480.205 503.876C478.857 502.265 478.198 499.965 478.198 497.006C478.198 490.385 480.645 486.635 485.537 485.756C486.592 485.58 487.544 485.36 488.379 485.067C489.199 484.789 489.756 484.555 490.049 484.364L490.488 484.101L491.543 485.756C490.737 486.459 488.833 487.118 485.845 487.704C484.263 488.026 482.974 488.788 482.007 489.96C481.04 491.132 480.513 492.729 480.439 494.75C480.469 494.677 480.542 494.574 480.63 494.442C480.718 494.311 480.923 494.091 481.23 493.769C481.538 493.446 481.875 493.168 482.256 492.904C482.622 492.655 483.105 492.421 483.691 492.216C484.277 492.011 484.893 491.894 485.537 491.894C487.441 491.894 489.067 492.597 490.415 494.003C491.763 495.409 492.437 497.108 492.437 499.101ZM480.439 499.101C480.439 500.595 480.923 501.84 481.89 502.836C482.856 503.847 484.028 504.345 485.391 504.345C486.738 504.345 487.91 503.847 488.877 502.836C489.844 501.84 490.342 500.595 490.342 499.101C490.342 497.621 489.844 496.376 488.877 495.365C487.91 494.369 486.738 493.856 485.391 493.856C484.028 493.856 482.856 494.369 481.89 495.365C480.923 496.376 480.439 497.621 480.439 499.101ZM495.293 498.793C495.293 496.713 495.996 494.955 497.417 493.49C498.838 492.025 500.522 491.293 502.471 491.293C503.599 491.293 504.653 491.542 505.62 492.025C506.587 492.509 507.29 492.992 507.7 493.461L508.33 494.149L506.821 495.644C506.792 495.585 506.733 495.512 506.646 495.395C506.572 495.292 506.396 495.102 506.133 494.809C505.869 494.53 505.576 494.281 505.269 494.076C504.946 493.871 504.551 493.681 504.053 493.505C503.555 493.344 503.027 493.256 502.485 493.256C501.108 493.256 499.907 493.798 498.896 494.867C497.886 495.937 497.388 497.255 497.388 498.808C497.388 500.36 497.886 501.679 498.896 502.748C499.907 503.817 501.108 504.345 502.485 504.345C503.32 504.345 504.111 504.154 504.873 503.744C505.62 503.349 506.162 502.953 506.499 502.543L506.982 501.957L508.477 503.305C508.418 503.393 508.33 503.495 508.213 503.642C508.096 503.788 507.832 504.022 507.437 504.359C507.056 504.696 506.646 504.989 506.206 505.253C505.781 505.517 505.225 505.751 504.551 505.971C503.877 506.19 503.188 506.293 502.485 506.293C500.522 506.293 498.823 505.575 497.417 504.11C495.996 502.646 495.293 500.873 495.293 498.793ZM509.985 493.549V491.601H522.275V493.549H517.178V506H515.083V493.549H509.985ZM525.293 491.601H531.885C533.203 491.601 534.258 491.967 535.049 492.67C535.84 493.373 536.235 494.267 536.235 495.351C536.235 495.966 536.074 496.537 535.781 497.035C535.488 497.533 535.181 497.885 534.888 498.075L534.434 498.354C534.492 498.383 534.565 498.412 534.683 498.441C534.8 498.485 534.99 498.588 535.269 498.764C535.547 498.939 535.796 499.13 536.001 499.364C536.206 499.599 536.396 499.921 536.572 500.346C536.748 500.785 536.836 501.269 536.836 501.796C536.836 503.1 536.426 504.125 535.62 504.872C534.8 505.634 533.657 506 532.192 506H525.293V491.601ZM532.192 499.247H527.388V504.052H532.192C533.013 504.052 533.643 503.847 534.082 503.422C534.521 503.012 534.741 502.411 534.741 501.649C534.741 500.888 534.521 500.302 534.082 499.877C533.643 499.467 533.013 499.247 532.192 499.247ZM534.141 495.497C534.141 494.208 533.379 493.549 531.885 493.549H527.388V497.445H531.885C533.379 497.445 534.141 496.801 534.141 495.497ZM553.623 499.584L541.919 499.555C541.992 500.858 542.52 501.986 543.516 502.924C544.512 503.876 545.669 504.345 547.017 504.345C547.91 504.345 548.745 504.154 549.521 503.744C550.283 503.349 550.84 502.953 551.162 502.543L551.675 501.957L553.022 503.305C552.964 503.393 552.876 503.495 552.759 503.642C552.642 503.788 552.407 504.022 552.026 504.359C551.646 504.696 551.25 504.989 550.811 505.253C550.371 505.517 549.814 505.751 549.126 505.971C548.438 506.19 547.734 506.293 547.017 506.293C545.054 506.293 543.354 505.575 541.948 504.11C540.527 502.646 539.824 500.873 539.824 498.793C539.824 496.713 540.513 494.955 541.919 493.49C543.325 492.025 544.966 491.293 546.87 491.293C548.833 491.293 550.474 491.981 551.792 493.344C553.11 494.706 553.77 496.42 553.77 498.5L553.623 499.584ZM546.87 493.256C545.61 493.256 544.512 493.71 543.574 494.589C542.637 495.482 542.08 496.537 541.919 497.753H551.675C551.514 496.464 550.986 495.38 550.093 494.53C549.199 493.681 548.13 493.256 546.87 493.256ZM567.861 506V499.701H559.614V506H557.52V491.601H559.614V497.753H567.861V491.601H569.971V506H567.861ZM585.117 506V499.701H576.87V506H574.775V491.601H576.87V497.753H585.117V491.601H587.227V506H585.117ZM603.574 498.808C603.574 497.255 603.047 495.937 602.021 494.867C600.996 493.798 599.751 493.256 598.315 493.256C596.88 493.256 595.635 493.798 594.609 494.867C593.584 495.937 593.071 497.24 593.071 498.793C593.071 500.346 593.584 501.649 594.609 502.733C595.635 503.817 596.88 504.345 598.315 504.345C599.751 504.345 600.996 503.817 602.021 502.748C603.047 501.679 603.574 500.36 603.574 498.808ZM590.977 498.808C590.977 496.698 591.68 494.926 593.115 493.476C594.551 492.025 596.279 491.293 598.33 491.293C600.366 491.293 602.095 492.025 603.516 493.476C604.951 494.926 605.654 496.698 605.654 498.808C605.654 500.917 604.951 502.689 603.516 504.14C602.095 505.575 600.366 506.308 598.33 506.308C596.279 506.308 594.551 505.575 593.115 504.14C591.68 502.689 590.977 500.917 590.977 498.808ZM615.732 487.543C616.494 487.543 617.08 487.323 617.505 486.884C617.915 486.444 618.135 485.814 618.135 484.994H619.775C619.775 486.195 619.395 487.177 618.647 487.924C617.9 488.686 616.934 489.052 615.732 489.052C614.531 489.052 613.55 488.686 612.803 487.924C612.041 487.177 611.675 486.195 611.675 484.994H613.33C613.33 485.814 613.535 486.444 613.96 486.884C614.37 487.323 614.971 487.543 615.732 487.543ZM620.229 491.601H622.031V506H619.922V495.204L611.221 506H609.434V491.601H611.528V502.396L620.229 491.601ZM14.8535 530.351L9.59473 536.957L4.35059 530.351V541H2.25586V526.601H3.89648L9.59473 533.793L15.293 526.601H16.9482V541H14.8535V530.351ZM24.917 532.753L30.4688 531.845C30.4688 530.79 30.1318 529.926 29.458 529.252C28.7842 528.593 27.9199 528.256 26.8652 528.256C26.1035 528.256 25.3857 528.432 24.7119 528.783C24.0381 529.135 23.5547 529.486 23.2617 529.838L22.8076 530.351L21.46 529.003C21.5186 528.93 21.5918 528.827 21.6943 528.71C21.7969 528.593 22.0166 528.373 22.3682 528.065C22.7197 527.758 23.0859 527.479 23.4668 527.23C23.8477 526.996 24.3457 526.776 24.9609 526.586C25.5762 526.396 26.2207 526.293 26.8652 526.293C28.5059 526.293 29.8535 526.835 30.9375 527.89C32.0215 528.959 32.5635 530.277 32.5635 531.845V541H30.4688V539.052C30.4248 539.11 30.3662 539.198 30.2783 539.301C30.1904 539.403 30.0146 539.579 29.7217 539.843C29.4287 540.106 29.1211 540.326 28.7988 540.531C28.4619 540.736 28.0225 540.912 27.4805 541.059C26.9385 541.22 26.3818 541.293 25.8105 541.293C24.375 541.293 23.1592 540.868 22.1777 540.019C21.1963 539.169 20.7129 538.202 20.7129 537.104C20.7129 535.902 21.0645 534.936 21.7969 534.203C22.5146 533.471 23.5547 532.987 24.917 532.753ZM25.8105 539.345C27.1582 539.345 28.2715 538.905 29.1504 538.012C30.0293 537.133 30.4688 535.976 30.4688 534.555V533.646L25.5176 534.555C23.7158 534.906 22.8076 535.756 22.8076 537.104C22.8076 537.748 23.0713 538.29 23.5986 538.715C24.126 539.14 24.873 539.345 25.8105 539.345ZM36.2988 533.793C36.2988 531.713 37.002 529.955 38.4229 528.49C39.8438 527.025 41.5283 526.293 43.4766 526.293C44.6045 526.293 45.6592 526.542 46.626 527.025C47.5928 527.509 48.2959 527.992 48.7061 528.461L49.3359 529.149L47.8271 530.644C47.7979 530.585 47.7393 530.512 47.6514 530.395C47.5781 530.292 47.4023 530.102 47.1387 529.809C46.875 529.53 46.582 529.281 46.2744 529.076C45.9521 528.871 45.5566 528.681 45.0586 528.505C44.5605 528.344 44.0332 528.256 43.4912 528.256C42.1143 528.256 40.9131 528.798 39.9023 529.867C38.8916 530.937 38.3936 532.255 38.3936 533.808C38.3936 535.36 38.8916 536.679 39.9023 537.748C40.9131 538.817 42.1143 539.345 43.4912 539.345C44.3262 539.345 45.1172 539.154 45.8789 538.744C46.626 538.349 47.168 537.953 47.5049 537.543L47.9883 536.957L49.4824 538.305C49.4238 538.393 49.3359 538.495 49.2188 538.642C49.1016 538.788 48.8379 539.022 48.4424 539.359C48.0615 539.696 47.6514 539.989 47.2119 540.253C46.7871 540.517 46.2305 540.751 45.5566 540.971C44.8828 541.19 44.1943 541.293 43.4912 541.293C41.5283 541.293 39.8291 540.575 38.4229 539.11C37.002 537.646 36.2988 535.873 36.2988 533.793ZM50.9912 528.549V526.601H63.2812V528.549H58.1836V541H56.0889V528.549H50.9912ZM79.043 534.584L67.3389 534.555C67.4121 535.858 67.9395 536.986 68.9355 537.924C69.9316 538.876 71.0889 539.345 72.4365 539.345C73.3301 539.345 74.165 539.154 74.9414 538.744C75.7031 538.349 76.2598 537.953 76.582 537.543L77.0947 536.957L78.4424 538.305C78.3838 538.393 78.2959 538.495 78.1787 538.642C78.0615 538.788 77.8271 539.022 77.4463 539.359C77.0654 539.696 76.6699 539.989 76.2305 540.253C75.791 540.517 75.2344 540.751 74.5459 540.971C73.8574 541.19 73.1543 541.293 72.4365 541.293C70.4736 541.293 68.7744 540.575 67.3682 539.11C65.9473 537.646 65.2441 535.873 65.2441 533.793C65.2441 531.713 65.9326 529.955 67.3389 528.49C68.7451 527.025 70.3857 526.293 72.29 526.293C74.2529 526.293 75.8936 526.981 77.2119 528.344C78.5303 529.706 79.1895 531.42 79.1895 533.5L79.043 534.584ZM72.29 528.256C71.0303 528.256 69.9316 528.71 68.9941 529.589C68.0566 530.482 67.5 531.537 67.3389 532.753H77.0947C76.9336 531.464 76.4062 530.38 75.5127 529.53C74.6191 528.681 73.5498 528.256 72.29 528.256ZM85.0342 533.808C85.0342 535.287 85.5469 536.576 86.6016 537.689C87.6562 538.803 88.8281 539.345 90.1318 539.345C91.3623 539.345 92.4756 538.817 93.457 537.733C94.4385 536.649 94.9365 535.346 94.9365 533.808C94.9365 532.27 94.4385 530.966 93.457 529.882C92.4756 528.798 91.3623 528.256 90.1318 528.256C88.8281 528.256 87.6562 528.812 86.6016 529.926C85.5469 531.039 85.0342 532.328 85.0342 533.808ZM85.0342 538.744V547.313H82.9395V526.615H85.0342V528.871C85.0635 528.812 85.1367 528.71 85.2393 528.593C85.3418 528.476 85.5469 528.271 85.8691 527.978C86.1914 527.685 86.5283 527.421 86.9092 527.187C87.2754 526.952 87.7441 526.747 88.3301 526.571C88.916 526.396 89.5166 526.308 90.1318 526.308C91.9629 526.308 93.5742 527.04 94.9512 528.52C96.3281 529.984 97.0312 531.757 97.0312 533.808C97.0312 535.858 96.3428 537.631 94.9658 539.096C93.5889 540.561 91.9775 541.293 90.1318 541.293C89.5166 541.293 88.916 541.205 88.3447 541.029C87.7734 540.854 87.29 540.648 86.9092 540.399C86.5137 540.165 86.1768 539.916 85.8838 539.667C85.5908 539.418 85.3857 539.198 85.2393 539.022L85.0342 538.744ZM99.7266 533.793C99.7266 531.713 100.43 529.955 101.851 528.49C103.271 527.025 104.956 526.293 106.904 526.293C108.032 526.293 109.087 526.542 110.054 527.025C111.021 527.509 111.724 527.992 112.134 528.461L112.764 529.149L111.255 530.644C111.226 530.585 111.167 530.512 111.079 530.395C111.006 530.292 110.83 530.102 110.566 529.809C110.303 529.53 110.01 529.281 109.702 529.076C109.38 528.871 108.984 528.681 108.486 528.505C107.988 528.344 107.461 528.256 106.919 528.256C105.542 528.256 104.341 528.798 103.33 529.867C102.319 530.937 101.821 532.255 101.821 533.808C101.821 535.36 102.319 536.679 103.33 537.748C104.341 538.817 105.542 539.345 106.919 539.345C107.754 539.345 108.545 539.154 109.307 538.744C110.054 538.349 110.596 537.953 110.933 537.543L111.416 536.957L112.91 538.305C112.852 538.393 112.764 538.495 112.646 538.642C112.529 538.788 112.266 539.022 111.87 539.359C111.489 539.696 111.079 539.989 110.64 540.253C110.215 540.517 109.658 540.751 108.984 540.971C108.311 541.19 107.622 541.293 106.919 541.293C104.956 541.293 103.257 540.575 101.851 539.11C100.43 537.646 99.7266 535.873 99.7266 533.793ZM118.315 536.957V541H116.221V526.601H118.315V534.247L125.508 526.601H128.071L122.52 532.445L128.672 541H126.27L121.172 533.954L118.315 536.957ZM142.295 533.808C142.295 532.255 141.768 530.937 140.742 529.867C139.717 528.798 138.472 528.256 137.036 528.256C135.601 528.256 134.355 528.798 133.33 529.867C132.305 530.937 131.792 532.24 131.792 533.793C131.792 535.346 132.305 536.649 133.33 537.733C134.355 538.817 135.601 539.345 137.036 539.345C138.472 539.345 139.717 538.817 140.742 537.748C141.768 536.679 142.295 535.36 142.295 533.808ZM129.697 533.808C129.697 531.698 130.4 529.926 131.836 528.476C133.271 527.025 135 526.293 137.051 526.293C139.087 526.293 140.815 527.025 142.236 528.476C143.672 529.926 144.375 531.698 144.375 533.808C144.375 535.917 143.672 537.689 142.236 539.14C140.815 540.575 139.087 541.308 137.051 541.308C135 541.308 133.271 540.575 131.836 539.14C130.4 537.689 129.697 535.917 129.697 533.808ZM154.453 522.543C155.215 522.543 155.801 522.323 156.226 521.884C156.636 521.444 156.855 520.814 156.855 519.994H158.496C158.496 521.195 158.115 522.177 157.368 522.924C156.621 523.686 155.654 524.052 154.453 524.052C153.252 524.052 152.271 523.686 151.523 522.924C150.762 522.177 150.396 521.195 150.396 519.994H152.051C152.051 520.814 152.256 521.444 152.681 521.884C153.091 522.323 153.691 522.543 154.453 522.543ZM158.95 526.601H160.752V541H158.643V530.204L149.941 541H148.154V526.601H150.249V537.396L158.95 526.601ZM165.996 538.305L168.105 539.506L164.648 544.896L163.301 544.149L165.996 538.305ZM180.864 543.095L181.611 541L175.752 526.601H178.008L182.666 538.305L187.31 526.601H189.565L182.959 543.095C182.358 544.618 181.714 545.702 181.04 546.347C180.352 546.991 179.487 547.299 178.447 547.299C178.125 547.299 177.817 547.284 177.524 547.226C177.231 547.182 176.997 547.123 176.851 547.064L176.646 547.006V545.043C177.144 545.248 177.642 545.351 178.14 545.351C179.414 545.351 180.322 544.604 180.864 543.095ZM202.017 526.601V528.549H194.517V541H192.422V526.601H202.017ZM206.221 526.601L216.724 526.615V541.015H214.614V528.563H208.315V530.819C208.315 532.929 208.198 534.701 207.993 536.107C207.788 537.514 207.466 538.598 207.056 539.33C206.631 540.062 206.162 540.575 205.664 540.868C205.151 541.161 204.536 541.308 203.818 541.308C203.569 541.308 203.32 541.278 203.071 541.234C202.822 541.176 202.646 541.132 202.529 541.073L202.324 541.015V538.92C202.72 539.11 203.115 539.213 203.525 539.213C204.141 539.213 204.624 539.037 204.976 538.686C205.327 538.334 205.62 537.514 205.854 536.254C206.089 534.979 206.221 533.163 206.221 530.805V526.601ZM224.663 543.095L225.41 541L219.551 526.601H221.807L226.465 538.305L231.108 526.601H233.364L226.758 543.095C226.157 544.618 225.513 545.702 224.839 546.347C224.15 546.991 223.286 547.299 222.246 547.299C221.924 547.299 221.616 547.284 221.323 547.226C221.03 547.182 220.796 547.123 220.649 547.064L220.444 547.006V545.043C220.942 545.248 221.44 545.351 221.938 545.351C223.213 545.351 224.121 544.604 224.663 543.095ZM249.858 534.101C249.858 536.122 249.17 537.836 247.808 539.213C246.431 540.604 244.775 541.293 242.812 541.293C240.688 541.293 238.96 540.487 237.627 538.876C236.279 537.265 235.62 534.965 235.62 532.006C235.62 525.385 238.066 521.635 242.959 520.756C244.014 520.58 244.966 520.36 245.801 520.067C246.621 519.789 247.178 519.555 247.471 519.364L247.91 519.101L248.965 520.756C248.159 521.459 246.255 522.118 243.267 522.704C241.685 523.026 240.396 523.788 239.429 524.96C238.462 526.132 237.935 527.729 237.861 529.75C237.891 529.677 237.964 529.574 238.052 529.442C238.14 529.311 238.345 529.091 238.652 528.769C238.96 528.446 239.297 528.168 239.678 527.904C240.044 527.655 240.527 527.421 241.113 527.216C241.699 527.011 242.314 526.894 242.959 526.894C244.863 526.894 246.489 527.597 247.837 529.003C249.185 530.409 249.858 532.108 249.858 534.101ZM237.861 534.101C237.861 535.595 238.345 536.84 239.312 537.836C240.278 538.847 241.45 539.345 242.812 539.345C244.16 539.345 245.332 538.847 246.299 537.836C247.266 536.84 247.764 535.595 247.764 534.101C247.764 532.621 247.266 531.376 246.299 530.365C245.332 529.369 244.16 528.856 242.812 528.856C241.45 528.856 240.278 529.369 239.312 530.365C238.345 531.376 237.861 532.621 237.861 534.101ZM255.264 526.601L265.767 526.615V541.015H263.657V528.563H257.358V530.819C257.358 532.929 257.241 534.701 257.036 536.107C256.831 537.514 256.509 538.598 256.099 539.33C255.674 540.062 255.205 540.575 254.707 540.868C254.194 541.161 253.579 541.308 252.861 541.308C252.612 541.308 252.363 541.278 252.114 541.234C251.865 541.176 251.689 541.132 251.572 541.073L251.367 541.015V538.92C251.763 539.11 252.158 539.213 252.568 539.213C253.184 539.213 253.667 539.037 254.019 538.686C254.37 538.334 254.663 537.514 254.897 536.254C255.132 534.979 255.264 533.163 255.264 530.805V526.601ZM283.301 534.584L271.597 534.555C271.67 535.858 272.197 536.986 273.193 537.924C274.189 538.876 275.347 539.345 276.694 539.345C277.588 539.345 278.423 539.154 279.199 538.744C279.961 538.349 280.518 537.953 280.84 537.543L281.353 536.957L282.7 538.305C282.642 538.393 282.554 538.495 282.437 538.642C282.319 538.788 282.085 539.022 281.704 539.359C281.323 539.696 280.928 539.989 280.488 540.253C280.049 540.517 279.492 540.751 278.804 540.971C278.115 541.19 277.412 541.293 276.694 541.293C274.731 541.293 273.032 540.575 271.626 539.11C270.205 537.646 269.502 535.873 269.502 533.793C269.502 531.713 270.19 529.955 271.597 528.49C273.003 527.025 274.644 526.293 276.548 526.293C278.511 526.293 280.151 526.981 281.47 528.344C282.788 529.706 283.447 531.42 283.447 533.5L283.301 534.584ZM276.548 528.256C275.288 528.256 274.189 528.71 273.252 529.589C272.314 530.482 271.758 531.537 271.597 532.753H281.353C281.191 531.464 280.664 530.38 279.771 529.53C278.877 528.681 277.808 528.256 276.548 528.256ZM297.539 541V534.701H289.292V541H287.197V526.601H289.292V532.753H297.539V526.601H299.648V541H297.539ZM314.795 541V534.701H306.548V541H304.453V526.601H306.548V532.753H314.795V526.601H316.904V541H314.795ZM333.252 533.808C333.252 532.255 332.725 530.937 331.699 529.867C330.674 528.798 329.429 528.256 327.993 528.256C326.558 528.256 325.312 528.798 324.287 529.867C323.262 530.937 322.749 532.24 322.749 533.793C322.749 535.346 323.262 536.649 324.287 537.733C325.312 538.817 326.558 539.345 327.993 539.345C329.429 539.345 330.674 538.817 331.699 537.748C332.725 536.679 333.252 535.36 333.252 533.808ZM320.654 533.808C320.654 531.698 321.357 529.926 322.793 528.476C324.229 527.025 325.957 526.293 328.008 526.293C330.044 526.293 331.772 527.025 333.193 528.476C334.629 529.926 335.332 531.698 335.332 533.808C335.332 535.917 334.629 537.689 333.193 539.14C331.772 540.575 330.044 541.308 328.008 541.308C325.957 541.308 324.229 540.575 322.793 539.14C321.357 537.689 320.654 535.917 320.654 533.808ZM345.41 522.543C346.172 522.543 346.758 522.323 347.183 521.884C347.593 521.444 347.812 520.814 347.812 519.994H349.453C349.453 521.195 349.072 522.177 348.325 522.924C347.578 523.686 346.611 524.052 345.41 524.052C344.209 524.052 343.228 523.686 342.48 522.924C341.719 522.177 341.353 521.195 341.353 519.994H343.008C343.008 520.814 343.213 521.444 343.638 521.884C344.048 522.323 344.648 522.543 345.41 522.543ZM349.907 526.601H351.709V541H349.6V530.204L340.898 541H339.111V526.601H341.206V537.396L349.907 526.601ZM362.227 526.601H368.818C370.137 526.601 371.191 526.967 371.982 527.67C372.773 528.373 373.169 529.267 373.169 530.351C373.169 530.966 373.008 531.537 372.715 532.035C372.422 532.533 372.114 532.885 371.821 533.075L371.367 533.354C371.426 533.383 371.499 533.412 371.616 533.441C371.733 533.485 371.924 533.588 372.202 533.764C372.48 533.939 372.729 534.13 372.935 534.364C373.14 534.599 373.33 534.921 373.506 535.346C373.682 535.785 373.77 536.269 373.77 536.796C373.77 538.1 373.359 539.125 372.554 539.872C371.733 540.634 370.591 541 369.126 541H362.227V526.601ZM369.126 534.247H364.321V539.052H369.126C369.946 539.052 370.576 538.847 371.016 538.422C371.455 538.012 371.675 537.411 371.675 536.649C371.675 535.888 371.455 535.302 371.016 534.877C370.576 534.467 369.946 534.247 369.126 534.247ZM371.074 530.497C371.074 529.208 370.312 528.549 368.818 528.549H364.321V532.445H368.818C370.312 532.445 371.074 531.801 371.074 530.497ZM382.471 533.793C382.471 531.713 383.174 529.955 384.595 528.49C386.016 527.025 387.7 526.293 389.648 526.293C390.776 526.293 391.831 526.542 392.798 527.025C393.765 527.509 394.468 527.992 394.878 528.461L395.508 529.149L393.999 530.644C393.97 530.585 393.911 530.512 393.823 530.395C393.75 530.292 393.574 530.102 393.311 529.809C393.047 529.53 392.754 529.281 392.446 529.076C392.124 528.871 391.729 528.681 391.23 528.505C390.732 528.344 390.205 528.256 389.663 528.256C388.286 528.256 387.085 528.798 386.074 529.867C385.063 530.937 384.565 532.255 384.565 533.808C384.565 535.36 385.063 536.679 386.074 537.748C387.085 538.817 388.286 539.345 389.663 539.345C390.498 539.345 391.289 539.154 392.051 538.744C392.798 538.349 393.34 537.953 393.677 537.543L394.16 536.957L395.654 538.305C395.596 538.393 395.508 538.495 395.391 538.642C395.273 538.788 395.01 539.022 394.614 539.359C394.233 539.696 393.823 539.989 393.384 540.253C392.959 540.517 392.402 540.751 391.729 540.971C391.055 541.19 390.366 541.293 389.663 541.293C387.7 541.293 386.001 540.575 384.595 539.11C383.174 537.646 382.471 535.873 382.471 533.793ZM397.163 528.549V526.601H409.453V528.549H404.355V541H402.261V528.549H397.163ZM424.014 533.808C424.014 532.255 423.486 530.937 422.461 529.867C421.436 528.798 420.19 528.256 418.755 528.256C417.319 528.256 416.074 528.798 415.049 529.867C414.023 530.937 413.511 532.24 413.511 533.793C413.511 535.346 414.023 536.649 415.049 537.733C416.074 538.817 417.319 539.345 418.755 539.345C420.19 539.345 421.436 538.817 422.461 537.748C423.486 536.679 424.014 535.36 424.014 533.808ZM411.416 533.808C411.416 531.698 412.119 529.926 413.555 528.476C414.99 527.025 416.719 526.293 418.77 526.293C420.806 526.293 422.534 527.025 423.955 528.476C425.391 529.926 426.094 531.698 426.094 533.808C426.094 535.917 425.391 537.689 423.955 539.14C422.534 540.575 420.806 541.308 418.77 541.308C416.719 541.308 414.99 540.575 413.555 539.14C412.119 537.689 411.416 535.917 411.416 533.808ZM431.367 526.601L441.87 526.615V541.015H439.761V528.563H433.462V530.819C433.462 532.929 433.345 534.701 433.14 536.107C432.935 537.514 432.612 538.598 432.202 539.33C431.777 540.062 431.309 540.575 430.811 540.868C430.298 541.161 429.683 541.308 428.965 541.308C428.716 541.308 428.467 541.278 428.218 541.234C427.969 541.176 427.793 541.132 427.676 541.073L427.471 541.015V538.92C427.866 539.11 428.262 539.213 428.672 539.213C429.287 539.213 429.771 539.037 430.122 538.686C430.474 538.334 430.767 537.514 431.001 536.254C431.235 534.979 431.367 533.163 431.367 530.805V526.601ZM445.752 531.405C445.752 530.028 446.235 528.886 447.202 527.978C448.169 527.069 449.443 526.601 451.011 526.601H457.148V541H455.054V536.195H450.85L447.861 541H445.459L448.755 535.756C448.667 535.741 448.564 535.712 448.418 535.653C448.271 535.595 448.037 535.463 447.7 535.258C447.349 535.053 447.056 534.789 446.792 534.496C446.528 534.203 446.294 533.778 446.074 533.251C445.854 532.709 445.752 532.094 445.752 531.405ZM455.054 528.549L451.011 528.563C450.044 528.563 449.282 528.827 448.711 529.354C448.14 529.882 447.861 530.57 447.861 531.405C447.861 532.255 448.14 532.929 448.711 533.456C449.268 533.983 450.044 534.247 451.011 534.247H455.054V528.549ZM464.048 533.808C464.048 535.287 464.561 536.576 465.615 537.689C466.67 538.803 467.842 539.345 469.146 539.345C470.376 539.345 471.489 538.817 472.471 537.733C473.452 536.649 473.95 535.346 473.95 533.808C473.95 532.27 473.452 530.966 472.471 529.882C471.489 528.798 470.376 528.256 469.146 528.256C467.842 528.256 466.67 528.812 465.615 529.926C464.561 531.039 464.048 532.328 464.048 533.808ZM464.048 538.744V547.313H461.953V526.615H464.048V528.871C464.077 528.812 464.15 528.71 464.253 528.593C464.355 528.476 464.561 528.271 464.883 527.978C465.205 527.685 465.542 527.421 465.923 527.187C466.289 526.952 466.758 526.747 467.344 526.571C467.93 526.396 468.53 526.308 469.146 526.308C470.977 526.308 472.588 527.04 473.965 528.52C475.342 529.984 476.045 531.757 476.045 533.808C476.045 535.858 475.356 537.631 473.979 539.096C472.603 540.561 470.991 541.293 469.146 541.293C468.53 541.293 467.93 541.205 467.358 541.029C466.787 540.854 466.304 540.648 465.923 540.399C465.527 540.165 465.19 539.916 464.897 539.667C464.604 539.418 464.399 539.198 464.253 539.022L464.048 538.744ZM490.137 541V534.701H481.89V541H479.795V526.601H481.89V532.753H490.137V526.601H492.246V541H490.137ZM508.594 533.808C508.594 532.255 508.066 530.937 507.041 529.867C506.016 528.798 504.771 528.256 503.335 528.256C501.899 528.256 500.654 528.798 499.629 529.867C498.604 530.937 498.091 532.24 498.091 533.793C498.091 535.346 498.604 536.649 499.629 537.733C500.654 538.817 501.899 539.345 503.335 539.345C504.771 539.345 506.016 538.817 507.041 537.748C508.066 536.679 508.594 535.36 508.594 533.808ZM495.996 533.808C495.996 531.698 496.699 529.926 498.135 528.476C499.57 527.025 501.299 526.293 503.35 526.293C505.386 526.293 507.114 527.025 508.535 528.476C509.971 529.926 510.674 531.698 510.674 533.808C510.674 535.917 509.971 537.689 508.535 539.14C507.114 540.575 505.386 541.308 503.35 541.308C501.299 541.308 499.57 540.575 498.135 539.14C496.699 537.689 495.996 535.917 495.996 533.808ZM527.197 534.584L515.493 534.555C515.566 535.858 516.094 536.986 517.09 537.924C518.086 538.876 519.243 539.345 520.591 539.345C521.484 539.345 522.319 539.154 523.096 538.744C523.857 538.349 524.414 537.953 524.736 537.543L525.249 536.957L526.597 538.305C526.538 538.393 526.45 538.495 526.333 538.642C526.216 538.788 525.981 539.022 525.601 539.359C525.22 539.696 524.824 539.989 524.385 540.253C523.945 540.517 523.389 540.751 522.7 540.971C522.012 541.19 521.309 541.293 520.591 541.293C518.628 541.293 516.929 540.575 515.522 539.11C514.102 537.646 513.398 535.873 513.398 533.793C513.398 531.713 514.087 529.955 515.493 528.49C516.899 527.025 518.54 526.293 520.444 526.293C522.407 526.293 524.048 526.981 525.366 528.344C526.685 529.706 527.344 531.42 527.344 533.5L527.197 534.584ZM520.444 528.256C519.185 528.256 518.086 528.71 517.148 529.589C516.211 530.482 515.654 531.537 515.493 532.753H525.249C525.088 531.464 524.561 530.38 523.667 529.53C522.773 528.681 521.704 528.256 520.444 528.256ZM538.901 533.808C538.901 535.287 539.414 536.576 540.469 537.689C541.523 538.803 542.695 539.345 543.999 539.345C545.229 539.345 546.343 538.817 547.324 537.733C548.306 536.649 548.804 535.346 548.804 533.808C548.804 532.27 548.306 530.966 547.324 529.882C546.343 528.798 545.229 528.256 543.999 528.256C542.695 528.256 541.523 528.812 540.469 529.926C539.414 531.039 538.901 532.328 538.901 533.808ZM538.901 538.744V547.313H536.807V526.615H538.901V528.871C538.931 528.812 539.004 528.71 539.106 528.593C539.209 528.476 539.414 528.271 539.736 527.978C540.059 527.685 540.396 527.421 540.776 527.187C541.143 526.952 541.611 526.747 542.197 526.571C542.783 526.396 543.384 526.308 543.999 526.308C545.83 526.308 547.441 527.04 548.818 528.52C550.195 529.984 550.898 531.757 550.898 533.808C550.898 535.858 550.21 537.631 548.833 539.096C547.456 540.561 545.845 541.293 543.999 541.293C543.384 541.293 542.783 541.205 542.212 541.029C541.641 540.854 541.157 540.648 540.776 540.399C540.381 540.165 540.044 539.916 539.751 539.667C539.458 539.418 539.253 539.198 539.106 539.022L538.901 538.744ZM567.393 534.584L555.688 534.555C555.762 535.858 556.289 536.986 557.285 537.924C558.281 538.876 559.438 539.345 560.786 539.345C561.68 539.345 562.515 539.154 563.291 538.744C564.053 538.349 564.609 537.953 564.932 537.543L565.444 536.957L566.792 538.305C566.733 538.393 566.646 538.495 566.528 538.642C566.411 538.788 566.177 539.022 565.796 539.359C565.415 539.696 565.02 539.989 564.58 540.253C564.141 540.517 563.584 540.751 562.896 540.971C562.207 541.19 561.504 541.293 560.786 541.293C558.823 541.293 557.124 540.575 555.718 539.11C554.297 537.646 553.594 535.873 553.594 533.793C553.594 531.713 554.282 529.955 555.688 528.49C557.095 527.025 558.735 526.293 560.64 526.293C562.603 526.293 564.243 526.981 565.562 528.344C566.88 529.706 567.539 531.42 567.539 533.5L567.393 534.584ZM560.64 528.256C559.38 528.256 558.281 528.71 557.344 529.589C556.406 530.482 555.85 531.537 555.688 532.753H565.444C565.283 531.464 564.756 530.38 563.862 529.53C562.969 528.681 561.899 528.256 560.64 528.256ZM583.887 530.351L578.628 536.957L573.384 530.351V541H571.289V526.601H572.93L578.628 533.793L584.326 526.601H585.981V541H583.887V530.351ZM603.545 534.584L591.841 534.555C591.914 535.858 592.441 536.986 593.438 537.924C594.434 538.876 595.591 539.345 596.938 539.345C597.832 539.345 598.667 539.154 599.443 538.744C600.205 538.349 600.762 537.953 601.084 537.543L601.597 536.957L602.944 538.305C602.886 538.393 602.798 538.495 602.681 538.642C602.563 538.788 602.329 539.022 601.948 539.359C601.567 539.696 601.172 539.989 600.732 540.253C600.293 540.517 599.736 540.751 599.048 540.971C598.359 541.19 597.656 541.293 596.938 541.293C594.976 541.293 593.276 540.575 591.87 539.11C590.449 537.646 589.746 535.873 589.746 533.793C589.746 531.713 590.435 529.955 591.841 528.49C593.247 527.025 594.888 526.293 596.792 526.293C598.755 526.293 600.396 526.981 601.714 528.344C603.032 529.706 603.691 531.42 603.691 533.5L603.545 534.584ZM596.792 528.256C595.532 528.256 594.434 528.71 593.496 529.589C592.559 530.482 592.002 531.537 591.841 532.753H601.597C601.436 531.464 600.908 530.38 600.015 529.53C599.121 528.681 598.052 528.256 596.792 528.256ZM606.387 533.793C606.387 531.713 607.09 529.955 608.511 528.49C609.932 527.025 611.616 526.293 613.564 526.293C614.692 526.293 615.747 526.542 616.714 527.025C617.681 527.509 618.384 527.992 618.794 528.461L619.424 529.149L617.915 530.644C617.886 530.585 617.827 530.512 617.739 530.395C617.666 530.292 617.49 530.102 617.227 529.809C616.963 529.53 616.67 529.281 616.362 529.076C616.04 528.871 615.645 528.681 615.146 528.505C614.648 528.344 614.121 528.256 613.579 528.256C612.202 528.256 611.001 528.798 609.99 529.867C608.979 530.937 608.481 532.255 608.481 533.808C608.481 535.36 608.979 536.679 609.99 537.748C611.001 538.817 612.202 539.345 613.579 539.345C614.414 539.345 615.205 539.154 615.967 538.744C616.714 538.349 617.256 537.953 617.593 537.543L618.076 536.957L619.57 538.305C619.512 538.393 619.424 538.495 619.307 538.642C619.189 538.788 618.926 539.022 618.53 539.359C618.149 539.696 617.739 539.989 617.3 540.253C616.875 540.517 616.318 540.751 615.645 540.971C614.971 541.19 614.282 541.293 613.579 541.293C611.616 541.293 609.917 540.575 608.511 539.11C607.09 537.646 606.387 535.873 606.387 533.793ZM624.375 526.601L634.878 526.615V541.015H632.769V528.563H626.47V530.819C626.47 532.929 626.353 534.701 626.147 536.107C625.942 537.514 625.62 538.598 625.21 539.33C624.785 540.062 624.316 540.575 623.818 540.868C623.306 541.161 622.69 541.308 621.973 541.308C621.724 541.308 621.475 541.278 621.226 541.234C620.977 541.176 620.801 541.132 620.684 541.073L620.479 541.015V538.92C620.874 539.11 621.27 539.213 621.68 539.213C622.295 539.213 622.778 539.037 623.13 538.686C623.481 538.334 623.774 537.514 624.009 536.254C624.243 534.979 624.375 533.163 624.375 530.805V526.601ZM651.211 533.808C651.211 532.255 650.684 530.937 649.658 529.867C648.633 528.798 647.388 528.256 645.952 528.256C644.517 528.256 643.271 528.798 642.246 529.867C641.221 530.937 640.708 532.24 640.708 533.793C640.708 535.346 641.221 536.649 642.246 537.733C643.271 538.817 644.517 539.345 645.952 539.345C647.388 539.345 648.633 538.817 649.658 537.748C650.684 536.679 651.211 535.36 651.211 533.808ZM638.613 533.808C638.613 531.698 639.316 529.926 640.752 528.476C642.188 527.025 643.916 526.293 645.967 526.293C648.003 526.293 649.731 527.025 651.152 528.476C652.588 529.926 653.291 531.698 653.291 533.808C653.291 535.917 652.588 537.689 651.152 539.14C649.731 540.575 648.003 541.308 645.967 541.308C643.916 541.308 642.188 540.575 640.752 539.14C639.316 537.689 638.613 535.917 638.613 533.808Z" fill="#111111"/>
</svg>
