<svg width="1293" height="33" viewBox="0 0 1293 33" fill="none" xmlns="http://www.w3.org/2000/svg">
<g clip-path="url(#clip0_2160_782)">
<path d="M1237.8 8.82133C1237.8 7.65517 1238.24 6.53232 1239.04 5.68262C1239.84 4.83293 1240.93 4.32066 1242.09 4.25069C1242.73 4.2471 1243.36 4.3942 1243.94 4.68008C1244.51 4.96597 1245 5.38257 1245.38 5.89612V0H1246.98V13.4377H1245.38V11.9751C1245 12.4886 1244.51 12.9052 1243.94 13.1911C1243.36 13.477 1242.73 13.6241 1242.09 13.6205C1240.93 13.5505 1239.84 13.0383 1239.04 12.1886C1238.24 11.3389 1237.8 10.216 1237.8 9.04986V8.82133ZM1245.38 8.82133C1245.38 8.02127 1245.07 7.25398 1244.5 6.68826C1243.93 6.12253 1243.17 5.80471 1242.37 5.80471C1241.57 5.80471 1240.8 6.12253 1240.24 6.68826C1239.67 7.25398 1239.35 8.02127 1239.35 8.82133C1239.35 9.62139 1239.67 10.3887 1240.24 10.9544C1240.8 11.5201 1241.57 11.8379 1242.37 11.8379C1243.17 11.8379 1243.93 11.5201 1244.5 10.9544C1245.07 10.3887 1245.38 9.62139 1245.38 8.82133Z" fill="#232323"/>
<path d="M1249.31 8.82113C1249.31 7.60892 1249.79 6.44636 1250.65 5.5892C1251.51 4.73204 1252.67 4.25049 1253.88 4.25049C1255.1 4.25049 1256.26 4.73204 1257.11 5.5892C1257.97 6.44636 1258.45 7.60892 1258.45 8.82113C1258.48 9.06402 1258.48 9.30953 1258.45 9.55243H1251.14C1251.24 10.3157 1251.62 11.0159 1252.2 11.521C1252.78 12.0262 1253.52 12.3014 1254.29 12.2948C1254.81 12.2861 1255.32 12.1673 1255.78 11.9466C1256.25 11.7259 1256.66 11.4083 1256.99 11.015L1258.04 12.0206C1257.58 12.5914 1256.99 13.049 1256.33 13.358C1255.66 13.667 1254.94 13.8193 1254.2 13.8031C1252.99 13.8031 1251.83 13.3216 1250.97 12.4644C1250.11 11.6073 1249.63 10.4447 1249.63 9.23248L1249.31 8.82113ZM1256.67 8.08982C1256.62 7.37821 1256.31 6.71008 1255.8 6.21871C1255.28 5.72734 1254.6 5.44887 1253.88 5.43885C1253.15 5.44456 1252.45 5.71673 1251.9 6.20456C1251.35 6.69239 1251 7.36252 1250.91 8.08982H1256.67Z" fill="#232323"/>
<path d="M1259.82 11.9295L1260.83 10.9239C1261.14 11.2907 1261.53 11.5895 1261.96 11.8018C1262.39 12.0141 1262.86 12.1353 1263.34 12.158C1264.58 12.158 1265.22 11.5181 1265.22 10.7868C1265.22 8.95856 1260.19 9.82699 1260.19 6.62754C1260.22 6.24011 1260.33 5.86352 1260.52 5.52049C1260.7 5.17746 1260.95 4.8751 1261.26 4.63164C1261.56 4.38818 1261.91 4.20867 1262.28 4.10394C1262.66 3.99921 1263.05 3.97143 1263.43 4.02228C1264.01 4.01576 1264.58 4.12573 1265.12 4.34562C1265.65 4.5655 1266.14 4.8908 1266.54 5.30205L1265.54 6.3076C1264.97 5.77034 1264.22 5.46132 1263.43 5.43917C1262.34 5.43917 1261.74 6.03336 1261.74 6.62754C1261.74 8.41009 1266.77 7.54167 1266.77 10.7868C1266.74 11.2021 1266.63 11.6074 1266.44 11.9778C1266.25 12.3482 1265.99 12.6761 1265.67 12.9413C1265.35 13.2065 1264.97 13.4035 1264.57 13.5203C1264.17 13.6371 1263.76 13.6713 1263.34 13.6206C1262.67 13.6161 1262 13.4622 1261.39 13.1698C1260.79 12.8774 1260.25 12.4538 1259.82 11.9295Z" fill="#232323"/>
<path d="M1268.92 1.32536C1268.92 1.05868 1269.02 0.802915 1269.21 0.61434C1269.4 0.425765 1269.66 0.319824 1269.92 0.319824C1270.19 0.319824 1270.45 0.425765 1270.63 0.61434C1270.82 0.802915 1270.93 1.05868 1270.93 1.32536C1270.93 1.59205 1270.82 1.84781 1270.63 2.03639C1270.45 2.22496 1270.19 2.3309 1269.92 2.3309C1269.66 2.3309 1269.4 2.22496 1269.21 2.03639C1269.02 1.84781 1268.92 1.59205 1268.92 1.32536ZM1269.15 13.4376V4.29628H1270.7V13.4376H1269.15Z" fill="#232323"/>
<path d="M1273.44 15.5402L1274.54 14.4889C1274.87 14.9309 1275.3 15.2921 1275.79 15.5455C1276.28 15.7988 1276.82 15.9376 1277.37 15.9516C1277.79 15.9606 1278.2 15.8805 1278.58 15.7168C1278.97 15.5531 1279.31 15.3095 1279.59 15.0023C1279.87 14.6951 1280.09 14.3313 1280.21 13.9354C1280.34 13.5394 1280.39 13.1204 1280.34 12.7064V11.6094C1279.99 12.1086 1279.53 12.5151 1278.99 12.7938C1278.44 13.0726 1277.84 13.2151 1277.23 13.2092C1276.1 13.1062 1275.04 12.5796 1274.27 11.7333C1273.5 10.887 1273.07 9.78272 1273.08 8.63853C1273.07 7.49434 1273.5 6.39002 1274.27 5.54376C1275.04 4.6975 1276.1 4.17086 1277.23 4.06789C1277.84 4.06579 1278.44 4.21003 1278.98 4.48845C1279.52 4.76687 1279.99 5.17129 1280.34 5.66762V4.20501H1281.94V12.7064C1281.94 13.9186 1281.46 15.0812 1280.6 15.9383C1279.75 16.7955 1278.58 17.277 1277.37 17.277C1276.61 17.2705 1275.87 17.0948 1275.19 16.7626C1274.51 16.4304 1273.91 15.9503 1273.44 15.3574V15.5402ZM1280.34 8.63853C1280.39 8.23306 1280.36 7.8213 1280.24 7.43062C1280.12 7.03994 1279.92 6.67929 1279.65 6.37266C1279.38 6.06603 1279.04 5.82043 1278.67 5.6522C1278.3 5.48397 1277.89 5.39697 1277.49 5.39697C1277.08 5.39697 1276.67 5.48397 1276.3 5.6522C1275.93 5.82043 1275.6 6.06603 1275.33 6.37266C1275.06 6.67929 1274.85 7.03994 1274.73 7.43062C1274.61 7.8213 1274.58 8.23306 1274.63 8.63853C1274.58 9.044 1274.61 9.45576 1274.73 9.84644C1274.85 10.2371 1275.06 10.5978 1275.33 10.9044C1275.6 11.211 1275.93 11.4566 1276.3 11.6249C1276.67 11.7931 1277.08 11.8801 1277.49 11.8801C1277.89 11.8801 1278.3 11.7931 1278.67 11.6249C1279.04 11.4566 1279.38 11.211 1279.65 10.9044C1279.92 10.5978 1280.12 10.2371 1280.24 9.84644C1280.36 9.45576 1280.39 9.044 1280.34 8.63853Z" fill="#232323"/>
<path d="M1284.82 13.4377V4.29644H1286.37V5.71334C1286.81 5.024 1287.48 4.50469 1288.25 4.24044C1289.02 3.97619 1289.86 3.98267 1290.63 4.25883C1291.4 4.53498 1292.06 5.06444 1292.49 5.76048C1292.92 6.45652 1293.1 7.27789 1293 8.09007V13.4377H1291.45V7.99865C1291.47 7.67732 1291.42 7.35552 1291.31 7.05355C1291.19 6.75158 1291.02 6.47598 1290.8 6.24411C1290.58 6.01224 1290.31 5.82912 1290.01 5.70631C1289.71 5.58349 1289.39 5.52364 1289.07 5.53051C1288.7 5.53004 1288.34 5.60406 1288.01 5.74808C1287.67 5.89209 1287.37 6.10308 1287.11 6.36819C1286.86 6.63331 1286.67 6.94701 1286.54 7.29017C1286.41 7.63334 1286.36 7.99881 1286.37 8.36431V13.4377H1284.82Z" fill="#232323"/>
<path d="M1239.4 30.2121V31.6747H1237.84V18.2827H1239.4V23.9503C1239.75 23.4176 1240.23 22.9833 1240.8 22.6876C1241.37 22.3919 1242 22.2445 1242.64 22.2592C1243.81 22.3291 1244.9 22.8414 1245.7 23.6911C1246.5 24.5408 1246.94 25.6636 1246.94 26.8298C1246.94 27.996 1246.5 29.1188 1245.7 29.9685C1244.9 30.8182 1243.81 31.3305 1242.64 31.4004C1242.01 31.4201 1241.38 31.2797 1240.81 30.9922C1240.24 30.7046 1239.76 30.2792 1239.4 29.755V30.2121ZM1245.38 27.0583C1245.38 26.2583 1245.07 25.491 1244.5 24.9253C1243.93 24.3595 1243.17 24.0417 1242.37 24.0417C1241.57 24.0417 1240.8 24.3595 1240.23 24.9253C1239.67 25.491 1239.35 26.2583 1239.35 27.0583C1239.35 27.8584 1239.67 28.6257 1240.23 29.1914C1240.8 29.7571 1241.57 30.075 1242.37 30.075C1243.17 30.075 1243.93 29.7571 1244.5 29.1914C1245.07 28.6257 1245.38 27.8584 1245.38 27.0583Z" fill="#232323"/>
<path d="M1249.13 27.8807V22.4873H1250.73V27.8807C1250.7 28.1997 1250.75 28.5205 1250.85 28.8224C1250.96 29.1243 1251.13 29.4006 1251.35 29.6333C1251.57 29.8659 1251.83 30.0499 1252.13 30.1731C1252.42 30.2964 1252.74 30.3562 1253.06 30.3488C1253.43 30.3556 1253.8 30.2862 1254.14 30.1449C1254.48 30.0037 1254.79 29.7937 1255.05 29.5279C1255.3 29.2621 1255.5 28.9463 1255.63 28.6C1255.76 28.2537 1255.82 27.8844 1255.8 27.515V22.4873H1257.36V31.6286H1255.8V30.2574C1255.48 30.7422 1255.05 31.1415 1254.54 31.4203C1254.03 31.6991 1253.46 31.8491 1252.88 31.8571C1252.37 31.8655 1251.86 31.7662 1251.39 31.5656C1250.92 31.365 1250.49 31.0676 1250.14 30.6927C1249.79 30.3178 1249.53 29.8738 1249.36 29.3893C1249.19 28.9049 1249.13 28.3909 1249.18 27.8807H1249.13Z" fill="#232323"/>
<path d="M1260.24 31.6745V22.5332H1261.79V23.8587C1262.12 23.3929 1262.56 23.0105 1263.07 22.741C1263.58 22.4716 1264.14 22.3223 1264.71 22.3047H1265.17V23.9501H1264.53C1264.15 23.9555 1263.78 24.0378 1263.43 24.1919C1263.09 24.3461 1262.78 24.5689 1262.52 24.8468C1262.27 25.1247 1262.07 25.4519 1261.94 25.8085C1261.82 26.1651 1261.76 26.5436 1261.79 26.921V31.6745H1260.24Z" fill="#232323"/>
<path d="M1193.43 22.2134C1193.43 24.7711 1192.41 27.2241 1190.6 29.0327C1188.79 30.8413 1186.34 31.8574 1183.78 31.8574C1181.23 31.8574 1178.77 30.8413 1176.97 29.0327C1175.16 27.2241 1174.14 24.7711 1174.14 22.2134C1174.24 19.9707 1174.97 17.8016 1176.24 15.9516L1185.02 1.87402H1187.35L1179.99 13.712C1181.17 13.1488 1182.47 12.8673 1183.78 12.8893C1185.04 12.8588 1186.29 13.0798 1187.46 13.5393C1188.63 13.9988 1189.69 14.6875 1190.59 15.5649C1191.49 16.4422 1192.2 17.4905 1192.69 18.648C1193.18 19.8055 1193.43 21.0488 1193.43 22.3048V22.2134ZM1191.32 22.2134C1191.32 20.2132 1190.53 18.295 1189.12 16.8807C1187.7 15.4664 1185.78 14.6718 1183.78 14.6718C1181.78 14.6718 1179.87 15.4664 1178.45 16.8807C1177.04 18.295 1176.24 20.2132 1176.24 22.2134C1176.24 24.2135 1177.04 26.1317 1178.45 27.546C1179.87 28.9604 1181.78 29.7549 1183.78 29.7549C1185.78 29.7549 1187.7 28.9604 1189.12 27.546C1190.53 26.1317 1191.32 24.2135 1191.32 22.2134Z" fill="#232323"/>
<path d="M1200.55 33V0H1202.43V33H1200.55Z" fill="#232323"/>
<path d="M1210.01 27.4237L1211.48 25.9611C1212.34 27.153 1213.47 28.1202 1214.78 28.7806C1216.09 29.441 1217.55 29.7751 1219.02 29.7547C1220.02 29.8175 1221.02 29.6733 1221.97 29.3311C1222.91 28.9889 1223.77 28.4561 1224.5 27.7657C1225.23 27.0754 1225.81 26.2424 1226.2 25.3185C1226.59 24.3947 1226.79 23.3999 1226.78 22.396C1226.81 21.4248 1226.64 20.4587 1226.28 19.5569C1225.91 18.6551 1225.37 17.8367 1224.68 17.1519C1223.99 16.4671 1223.17 15.9303 1222.27 15.5746C1221.37 15.2188 1220.4 15.0515 1219.43 15.083C1218.09 15.0379 1216.77 15.3435 1215.59 15.969C1214.41 16.5946 1213.42 17.5183 1212.71 18.6481H1210.97L1212.02 2.05664H1226.92V3.97631H1213.9L1213.26 15.083C1214.94 13.6028 1217.1 12.7897 1219.34 12.7976C1220.58 12.7855 1221.81 13.0204 1222.96 13.4887C1224.11 13.957 1225.16 14.6494 1226.04 15.5255C1226.92 16.4017 1227.61 17.4441 1228.09 18.5922C1228.56 19.7403 1228.8 20.9711 1228.8 22.2132C1228.79 23.4891 1228.53 24.751 1228.03 25.9236C1227.52 27.0962 1226.79 28.1555 1225.87 29.0384C1224.95 29.9212 1223.86 30.6096 1222.66 31.0625C1221.47 31.5154 1220.2 31.7235 1218.92 31.6744C1217.15 31.7039 1215.39 31.3038 1213.8 30.5082C1212.2 29.7125 1210.83 28.5446 1209.79 27.1037L1210.01 27.4237Z" fill="#232323"/>
<path d="M1270.79 30.4861C1270.35 30.4778 1269.92 30.3804 1269.52 30.1997C1269.12 30.019 1268.76 29.7588 1268.46 29.4348C1267.84 28.7608 1267.5 27.8803 1267.5 26.9667C1267.5 26.0531 1267.84 25.1726 1268.46 24.4985C1268.76 24.1807 1269.12 23.9276 1269.52 23.7547C1269.92 23.5817 1270.35 23.4927 1270.79 23.493C1271.23 23.4842 1271.66 23.5694 1272.07 23.7428C1272.47 23.9163 1272.83 24.174 1273.12 24.4985C1273.45 24.8188 1273.71 25.2032 1273.88 25.6278C1274.05 26.0525 1274.14 26.5083 1274.13 26.9667C1274.15 27.4262 1274.07 27.8845 1273.89 28.3104C1273.72 28.7364 1273.46 29.1199 1273.12 29.4348C1272.83 29.7653 1272.47 30.03 1272.07 30.2113C1271.67 30.3925 1271.23 30.4862 1270.79 30.4861ZM1270.79 31.6744C1271.4 31.684 1272.01 31.5716 1272.57 31.344C1273.14 31.1164 1273.65 30.7781 1274.08 30.3489C1274.53 29.9096 1274.88 29.3825 1275.12 28.8006C1275.35 28.2187 1275.47 27.5944 1275.45 26.9667C1275.46 26.3466 1275.35 25.731 1275.11 25.1574C1274.87 24.5838 1274.52 24.0641 1274.08 23.6301C1273.65 23.1927 1273.14 22.846 1272.58 22.6104C1272.01 22.3749 1271.4 22.2553 1270.79 22.2589C1270.18 22.2452 1269.58 22.3602 1269.02 22.5966C1268.46 22.833 1267.96 23.1852 1267.55 23.6301C1267.1 24.0641 1266.75 24.5838 1266.52 25.1574C1266.28 25.731 1266.17 26.3466 1266.18 26.9667C1266.16 27.5944 1266.27 28.2187 1266.51 28.8006C1266.74 29.3825 1267.1 29.9096 1267.55 30.3489C1267.96 30.7856 1268.47 31.1293 1269.03 31.3577C1269.59 31.5861 1270.19 31.694 1270.79 31.6744Z" fill="#1D1D1B"/>
<path d="M0 33H6.80887V31.2632H0V33ZM13.7091 33H20.4266V31.2632H13.7091V33ZM27.4183 33H34.0443V31.2632H27.4183V33ZM41.1274 33H47.9363V31.2632H40.8075L41.1274 33ZM54.8365 33H61.2341V31.2632H54.4253L54.8365 33ZM68.5457 33H75.3545V31.2632H68.043L68.5457 33ZM82.2548 33H89.0637V31.2632H81.6608L82.2548 33ZM95.9639 33H102.773V31.2632H95.2785L95.9639 33ZM109.673 33H116.482V31.2632H108.851L109.673 33ZM123.382 33H130.191V31.2632H122.468L123.382 33ZM137.091 33H143.9V31.2632H136.086L137.091 33ZM150.8 33H157.609V31.2632H149.704L150.8 33ZM164.51 33H171.318V31.2632H163.322L164.51 33ZM178.219 33H183.702V31.2632H176.939L178.219 33ZM191.928 33H198.737V31.2632H190.511L191.928 33ZM205.637 33H212.446V31.2632H204.129L205.637 33ZM219.346 33H226.155V31.2632H217.747L219.346 33ZM233.055 33H239.864V31.2632H231.365L233.055 33ZM246.764 33H253.528V31.2632H244.982L246.764 33ZM260.474 33H267.282V31.2632H258.554L260.474 33ZM274.183 33H280.992V31.2632H272.172L274.183 33ZM287.892 33H292.462V31.2632H285.79L287.892 33ZM301.601 33H306.171V31.2632H299.408L301.601 33ZM315.31 33H319.88V31.2632H313.025L315.31 33ZM329.019 33H333.589V31.2632H326.597L329.019 33ZM342.728 33H349.537V31.2632H340.215L342.728 33ZM356.438 33H363.246V31.2632H353.833L356.438 33ZM370.147 33H374.259V31.2632H367.451L370.147 33ZM383.856 33H390.665V31.2632H381.068L383.856 33ZM397.565 33H404.374V31.2632H394.64L397.565 33ZM411.274 33H418.083V31.2632H408.258L411.274 33ZM424.983 33H431.792V31.2632H421.876L424.983 33ZM438.692 33H445.501V31.2632H435.494L438.692 33ZM452.401 33H459.21V31.2632H449.111L452.401 33ZM466.111 33H472.874V31.2632H466.111V33ZM479.82 33H486.629V31.2632H479.82V33ZM493.529 33H500.338V31.2632H493.529V33ZM507.238 33H514.047V31.2632H507.238V33ZM520.947 33H527.756V31.2632H520.947V33ZM534.656 33H541.419V31.2632H534.656V33ZM548.365 33H555.174V31.2632H548.365V33ZM562.075 33H568.883V31.2632H557.962L562.075 33ZM575.784 33H582.593V31.2632H575.784V33ZM589.493 33H596.302V31.2632H589.493V33ZM603.202 33H610.011V31.2632H598.632L603.202 33ZM616.911 33H623.72V31.2632H612.341L616.911 33ZM630.62 33H637.429V31.2632H626.05L630.62 33ZM644.329 33H651.138V31.2632H639.76L644.329 33ZM658.038 33H664.847V31.2632H653.469L658.038 33ZM671.748 33H678.557V31.2632H671.748V33ZM685.457 33H692.266V31.2632H680.43L685.457 33ZM699.166 33H705.975V31.2632H699.166V33ZM712.875 33H719.684V31.2632H712.875V33ZM726.584 33H733.393V31.2632H726.584V33ZM740.293 33H747.102V31.2632H740.293V33ZM754.002 33H760.766V31.2632H748.519L754.002 33ZM767.712 33H774.52V31.2632H767.712V33ZM781.421 33H788.23V31.2632H781.421V33ZM795.13 33H801.939V31.2632H795.13V33ZM808.839 33H815.648V31.2632H808.839V33ZM822.548 33H829.311V31.2632H822.548V33ZM836.257 33H843.066V31.2632H836.257V33ZM849.966 33H856.775V31.2632H849.966V33ZM863.676 33H870.484V31.2632H863.676V33ZM877.385 33H884.194V31.2632H870.987L877.385 33ZM891.094 33H897.903V31.2632H891.094V33ZM904.803 33V31.2632H897.994L904.803 33ZM918.512 33V31.2632H911.703L918.512 33ZM932.221 33V31.2632H925.412L932.221 33ZM945.93 33V31.2632H939.121L945.93 33ZM959.639 33V31.2632H952.831L959.639 33ZM973.349 33H980.112V31.2632H973.349V33ZM987.058 33H993.867V31.2632H987.058V33ZM1000.77 33H1007.58V31.2632H993.455L1000.77 33ZM1014.48 33H1021.28V31.2632H1014.48V33ZM1028.19 33H1034.99V31.2632H1028.19V33ZM1041.89 33H1048.66V31.2632H1041.89V33ZM1055.6 33H1062.41V31.2632H1055.6V33ZM1069.31 33H1076.12V31.2632H1069.31V33ZM1083.02 33H1089.83V31.2632H1083.02V33ZM1096.73 33H1103.54V31.2632H1096.73V33ZM1110.44 33H1117.25V31.2632H1110.44V33ZM1124.15 33H1130.96V31.2632H1115.92L1124.15 33ZM1137.86 33H1144.67V31.2632H1137.86V33Z" fill="#CDCCCC"/>
</g>
<defs>
<clipPath id="clip0_2160_782">
<rect width="1293" height="33" fill="white"/>
</clipPath>
</defs>
</svg>
