<svg width="273" height="7" viewBox="0 0 273 7" fill="none" xmlns="http://www.w3.org/2000/svg">
<path d="M0 5.93922H1.44431V5.5708H0V5.93922ZM2.908 5.93922H4.33292V5.5708H2.908V5.93922ZM5.816 5.93922H7.22153V5.5708H5.816V5.93922ZM8.724 5.93922H10.1683V5.5708H8.65614L8.724 5.93922ZM11.632 5.93922H12.9891V5.5708H11.5448L11.632 5.93922ZM14.54 5.93922H15.9843V5.5708H14.4334L14.54 5.93922ZM17.448 5.93922H18.8923V5.5708H17.322L17.448 5.93922ZM20.356 5.93922H21.8003V5.5708H20.2106L20.356 5.93922ZM23.264 5.93922H24.7083V5.5708H23.0895L23.264 5.93922ZM26.172 5.93922H27.6163V5.5708H25.9781L26.172 5.93922ZM29.08 5.93922H30.5243V5.5708H28.8667L29.08 5.93922ZM31.988 5.93922H33.4323V5.5708H31.7553L31.988 5.93922ZM34.896 5.93922H36.3403V5.5708H34.644L34.896 5.93922ZM37.804 5.93922H38.9672V5.5708H37.5326L37.804 5.93922ZM40.712 5.93922H42.1563V5.5708H40.4115L40.712 5.93922ZM43.62 5.93922H45.0643V5.5708H43.3001L43.62 5.93922ZM46.528 5.93922H47.9723V5.5708H46.1887L46.528 5.93922ZM49.436 5.93922H50.8803V5.5708H49.0773L49.436 5.93922ZM52.344 5.93922H53.7786V5.5708H51.9659L52.344 5.93922ZM55.252 5.93922H56.6963V5.5708H54.8449L55.252 5.93922ZM58.16 5.93922H59.6043V5.5708H57.7335L58.16 5.93922ZM61.068 5.93922H62.0373V5.5708H60.6221L61.068 5.93922ZM63.976 5.93922H64.9453V5.5708H63.5107L63.976 5.93922ZM66.884 5.93922H67.8533V5.5708H66.3993L66.884 5.93922ZM69.792 5.93922H70.7613V5.5708H69.2782L69.792 5.93922ZM72.7 5.93922H74.1443V5.5708H72.1668L72.7 5.93922ZM75.608 5.93922H77.0523V5.5708H75.0554L75.608 5.93922ZM78.516 5.93922H79.3884V5.5708H77.9441L78.516 5.93922ZM81.424 5.93922H82.8683V5.5708H80.8327L81.424 5.93922ZM84.332 5.93922H85.7763V5.5708H83.7116L84.332 5.93922ZM87.24 5.93922H88.6843V5.5708H86.6002L87.24 5.93922ZM90.1479 5.93922H91.5923V5.5708H89.4888L90.1479 5.93922ZM93.056 5.93922H94.5003V5.5708H92.3774L93.056 5.93922ZM95.964 5.93922H97.4082V5.5708H95.266L95.964 5.93922ZM98.8719 5.93922H100.307V5.5708H98.8719V5.93922ZM101.78 5.93922H103.224V5.5708H101.78V5.93922ZM104.688 5.93922H106.132V5.5708H104.688V5.93922ZM107.596 5.93922H109.04V5.5708H107.596V5.93922ZM110.504 5.93922H111.948V5.5708H110.504V5.93922ZM113.412 5.93922H114.847V5.5708H113.412V5.93922ZM116.32 5.93922H117.764V5.5708H116.32V5.93922ZM119.228 5.93922H120.672V5.5708H118.356L119.228 5.93922ZM122.136 5.93922H123.58V5.5708H122.136V5.93922ZM125.044 5.93922H126.488V5.5708H125.044V5.93922ZM127.952 5.93922H129.396V5.5708H126.983L127.952 5.93922ZM130.86 5.93922H132.304V5.5708H129.891L130.86 5.93922ZM133.768 5.93922H135.212V5.5708H132.799L133.768 5.93922ZM136.676 5.93922H138.12V5.5708H135.707L136.676 5.93922ZM139.584 5.93922H141.028V5.5708H138.615L139.584 5.93922ZM142.492 5.93922H143.936V5.5708H142.492V5.93922ZM145.4 5.93922H146.844V5.5708H144.334L145.4 5.93922ZM148.308 5.93922H149.752V5.5708H148.308V5.93922ZM151.216 5.93922H152.66V5.5708H151.216V5.93922ZM154.124 5.93922H155.568V5.5708H154.124V5.93922ZM157.032 5.93922H158.476V5.5708H157.032V5.93922ZM159.94 5.93922H161.375V5.5708H158.777L159.94 5.93922ZM162.848 5.93922H164.292V5.5708H162.848V5.93922ZM165.756 5.93922H167.2V5.5708H165.756V5.93922ZM168.664 5.93922H170.108V5.5708H168.664V5.93922ZM171.572 5.93922H173.016V5.5708H171.572V5.93922ZM174.48 5.93922H175.915V5.5708H174.48V5.93922ZM177.388 5.93922H178.832V5.5708H177.388V5.93922ZM180.296 5.93922H181.74V5.5708H180.296V5.93922ZM183.204 5.93922H184.648V5.5708H183.204V5.93922ZM186.112 5.93922H187.556V5.5708H184.755L186.112 5.93922ZM189.02 5.93922H190.464V5.5708H189.02V5.93922ZM191.928 5.93922V5.5708H190.484L191.928 5.93922ZM194.836 5.93922V5.5708H193.392L194.836 5.93922ZM197.744 5.93922V5.5708H196.3L197.744 5.93922ZM200.652 5.93922V5.5708H199.208L200.652 5.93922ZM203.56 5.93922V5.5708H202.116L203.56 5.93922ZM206.468 5.93922H207.902V5.5708H206.468V5.93922ZM209.376 5.93922H210.82V5.5708H209.376V5.93922ZM212.284 5.93922H213.728V5.5708H210.733L212.284 5.93922ZM215.192 5.93922H216.636V5.5708H215.192V5.93922ZM218.1 5.93922H219.544V5.5708H218.1V5.93922ZM221.008 5.93922H222.442V5.5708H221.008V5.93922ZM223.916 5.93922H225.36V5.5708H223.916V5.93922ZM226.824 5.93922H228.268V5.5708H226.824V5.93922ZM229.732 5.93922H231.176V5.5708H229.732V5.93922ZM232.64 5.93922H234.084V5.5708H232.64V5.93922ZM235.548 5.93922H236.992V5.5708H235.548V5.93922ZM238.456 5.93922H239.9V5.5708H236.711L238.456 5.93922ZM241.364 5.93922H242.808V5.5708H241.364V5.93922Z" fill="#CDCCCC"/>
<path d="M260.503 1.87119C260.502 1.62382 260.596 1.38564 260.766 1.2054C260.935 1.02517 261.167 0.916504 261.414 0.901662C261.55 0.900899 261.683 0.932104 261.805 0.992745C261.926 1.05339 262.031 1.14176 262.112 1.25069V0H262.451V2.85042H262.112V2.54017C262.031 2.6491 261.926 2.73747 261.805 2.79811C261.683 2.85876 261.55 2.88996 261.414 2.8892C261.167 2.87436 260.935 2.76569 260.766 2.58545C260.596 2.40522 260.502 2.16703 260.503 1.91967V1.87119ZM262.112 1.87119C262.112 1.70148 262.045 1.53872 261.925 1.41872C261.805 1.29872 261.642 1.2313 261.472 1.2313C261.302 1.2313 261.14 1.29872 261.02 1.41872C260.9 1.53872 260.832 1.70148 260.832 1.87119C260.832 2.0409 260.9 2.20366 261.02 2.32366C261.14 2.44366 261.302 2.51108 261.472 2.51108C261.642 2.51108 261.805 2.44366 261.925 2.32366C262.045 2.20366 262.112 2.0409 262.112 1.87119Z" fill="#232323"/>
<path d="M262.946 1.87138C262.946 1.61425 263.048 1.36765 263.229 1.18582C263.411 1.004 263.658 0.901855 263.915 0.901855C264.172 0.901855 264.419 1.004 264.6 1.18582C264.782 1.36765 264.884 1.61425 264.884 1.87138C264.89 1.92291 264.89 1.97499 264.884 2.02651H263.333C263.355 2.18841 263.434 2.33694 263.558 2.44409C263.681 2.55124 263.839 2.60962 264.002 2.60823C264.111 2.60637 264.219 2.58119 264.317 2.53437C264.416 2.48755 264.504 2.42017 264.574 2.33676L264.797 2.55006C264.699 2.67115 264.575 2.7682 264.434 2.83375C264.293 2.8993 264.138 2.9316 263.983 2.92817C263.726 2.92817 263.479 2.82602 263.297 2.6442C263.116 2.46238 263.013 2.21578 263.013 1.95864L262.946 1.87138ZM264.506 1.71626C264.496 1.56531 264.43 1.42359 264.321 1.31936C264.211 1.21513 264.066 1.15606 263.915 1.15393C263.76 1.15514 263.61 1.21288 263.494 1.31636C263.378 1.41983 263.304 1.56198 263.285 1.71626H264.506Z" fill="#232323"/>
<path d="M265.175 2.53067L265.388 2.31738C265.454 2.39518 265.536 2.45856 265.628 2.50359C265.719 2.54861 265.819 2.57433 265.921 2.57915C266.183 2.57915 266.319 2.44342 266.319 2.28829C266.319 1.90048 265.253 2.08469 265.253 1.40602C265.26 1.32384 265.283 1.24396 265.322 1.17119C265.361 1.09843 265.414 1.03429 265.479 0.982646C265.543 0.931003 265.617 0.892925 265.696 0.87071C265.776 0.848495 265.859 0.842602 265.941 0.853388C266.063 0.852005 266.185 0.875332 266.298 0.921975C266.411 0.968618 266.514 1.03762 266.6 1.12486L266.387 1.33815C266.266 1.22419 266.107 1.15864 265.941 1.15394C265.708 1.15394 265.582 1.27998 265.582 1.40602C265.582 1.78414 266.648 1.59993 266.648 2.28829C266.642 2.37639 266.619 2.46235 266.578 2.54093C266.538 2.6195 266.482 2.68904 266.414 2.7453C266.346 2.80156 266.267 2.84335 266.183 2.86813C266.098 2.8929 266.009 2.90014 265.921 2.8894C265.778 2.88845 265.637 2.85579 265.508 2.79377C265.379 2.73174 265.265 2.64189 265.175 2.53067Z" fill="#232323"/>
<path d="M267.104 0.281167C267.104 0.224598 267.126 0.170345 267.166 0.130344C267.206 0.0903433 267.261 0.0678711 267.317 0.0678711C267.374 0.0678711 267.428 0.0903433 267.468 0.130344C267.508 0.170345 267.53 0.224598 267.53 0.281167C267.53 0.337737 267.508 0.39199 267.468 0.431991C267.428 0.471992 267.374 0.494464 267.317 0.494464C267.261 0.494464 267.206 0.471992 267.166 0.431991C267.126 0.39199 267.104 0.337737 267.104 0.281167ZM267.152 2.85042V0.911361H267.482V2.85042H267.152Z" fill="#232323"/>
<path d="M268.064 3.29632L268.296 3.07332C268.366 3.16708 268.457 3.2437 268.561 3.29743C268.665 3.35117 268.78 3.38062 268.897 3.38357C268.986 3.38549 269.073 3.36851 269.154 3.33379C269.236 3.29906 269.309 3.24738 269.368 3.18221C269.428 3.11704 269.473 3.03988 269.5 2.9559C269.528 2.87191 269.537 2.78303 269.527 2.69521V2.46252C269.453 2.5684 269.355 2.65463 269.24 2.71376C269.125 2.77288 268.997 2.80312 268.868 2.80186C268.626 2.78001 268.402 2.6683 268.238 2.48879C268.075 2.30928 267.985 2.07503 267.986 1.83233C267.985 1.58962 268.075 1.35537 268.238 1.17586C268.402 0.996351 268.626 0.88464 268.868 0.862798C268.997 0.862352 269.124 0.892948 269.239 0.952006C269.354 1.01106 269.453 1.09685 269.527 1.20213V0.891884H269.867V2.69521C269.867 2.95234 269.764 3.19895 269.583 3.38077C269.401 3.56259 269.154 3.66474 268.897 3.66474C268.737 3.66336 268.579 3.62608 268.434 3.55562C268.29 3.48516 268.163 3.38331 268.064 3.25753V3.29632ZM269.527 1.83233C269.538 1.74632 269.531 1.65898 269.505 1.5761C269.48 1.49323 269.437 1.41673 269.38 1.35169C269.322 1.28664 269.252 1.23455 269.173 1.19886C269.094 1.16318 269.008 1.14472 268.921 1.14472C268.835 1.14472 268.749 1.16318 268.67 1.19886C268.591 1.23455 268.521 1.28664 268.463 1.35169C268.406 1.41673 268.363 1.49323 268.338 1.5761C268.312 1.65898 268.305 1.74632 268.316 1.83233C268.305 1.91834 268.312 2.00568 268.338 2.08855C268.363 2.17142 268.406 2.24792 268.463 2.31297C268.521 2.37801 268.591 2.43011 268.67 2.46579C268.749 2.50148 268.835 2.51993 268.921 2.51993C269.008 2.51993 269.094 2.50148 269.173 2.46579C269.252 2.43011 269.322 2.37801 269.38 2.31297C269.437 2.24792 269.48 2.17142 269.505 2.08855C269.531 2.00568 269.538 1.91834 269.527 1.83233Z" fill="#232323"/>
<path d="M270.477 2.85039V0.911336H270.807V1.21189C270.9 1.06567 271.041 0.95551 271.205 0.899457C271.369 0.843405 271.547 0.84478 271.711 0.903358C271.874 0.961936 272.012 1.07424 272.104 1.22189C272.195 1.36954 272.233 1.54377 272.212 1.71605V2.85039H271.883V1.69665C271.887 1.62849 271.877 1.56023 271.853 1.49618C271.829 1.43212 271.793 1.37366 271.745 1.32448C271.698 1.27529 271.641 1.23645 271.578 1.2104C271.515 1.18435 271.447 1.17165 271.379 1.17311C271.301 1.17301 271.224 1.18871 271.153 1.21926C271.082 1.24981 271.017 1.29456 270.964 1.3508C270.91 1.40704 270.869 1.47358 270.842 1.54637C270.815 1.61916 270.803 1.69669 270.807 1.77422V2.85039H270.477Z" fill="#232323"/>
<path d="M260.842 6.4084V6.71865H260.513V3.87793H260.842V5.08015C260.917 4.96716 261.02 4.87502 261.14 4.8123C261.26 4.74958 261.395 4.71832 261.53 4.72142C261.777 4.73626 262.009 4.84492 262.178 5.02516C262.348 5.2054 262.442 5.44358 262.441 5.69095C262.442 5.93832 262.348 6.1765 262.178 6.35674C262.009 6.53697 261.777 6.64564 261.53 6.66048C261.396 6.66464 261.262 6.63486 261.142 6.57387C261.021 6.51289 260.918 6.42265 260.842 6.31145V6.4084ZM262.112 5.73943C262.112 5.56972 262.045 5.40696 261.925 5.28696C261.805 5.16695 261.642 5.09954 261.472 5.09954C261.302 5.09954 261.14 5.16695 261.02 5.28696C260.9 5.40696 260.832 5.56972 260.832 5.73943C260.832 5.90913 260.9 6.07189 261.02 6.1919C261.14 6.3119 261.302 6.37931 261.472 6.37931C261.642 6.37931 261.805 6.3119 261.925 6.1919C262.045 6.07189 262.112 5.90913 262.112 5.73943Z" fill="#232323"/>
<path d="M262.907 5.91406V4.77002H263.246V5.91406C263.241 5.98173 263.249 6.04979 263.272 6.11383C263.294 6.17787 263.33 6.23647 263.377 6.28583C263.423 6.33518 263.48 6.3742 263.542 6.40034C263.605 6.42649 263.673 6.43919 263.74 6.43761C263.819 6.43904 263.897 6.42432 263.969 6.39437C264.042 6.36441 264.107 6.31986 264.162 6.26348C264.216 6.2071 264.259 6.1401 264.286 6.06665C264.314 5.99319 264.326 5.91485 264.322 5.8365V4.77002H264.652V6.70908H264.322V6.41822C264.254 6.52107 264.162 6.60575 264.054 6.66489C263.946 6.72403 263.825 6.75584 263.702 6.75755C263.593 6.75933 263.485 6.73826 263.385 6.69571C263.285 6.65316 263.195 6.59008 263.121 6.51056C263.047 6.43104 262.991 6.33684 262.956 6.23409C262.92 6.13133 262.907 6.0223 262.916 5.91406H262.907Z" fill="#232323"/>
<path d="M265.262 6.71898V4.77992H265.592V5.06108C265.663 4.96227 265.756 4.88115 265.864 4.824C265.971 4.76684 266.09 4.73518 266.212 4.73145H266.309V5.08048H266.173C266.093 5.08162 266.014 5.09907 265.941 5.13177C265.868 5.16447 265.802 5.21173 265.747 5.27068C265.693 5.32964 265.651 5.39904 265.624 5.47468C265.598 5.55032 265.587 5.63061 265.592 5.71067V6.71898H265.262Z" fill="#232323"/>
<path d="M251.091 4.71187C251.091 5.25442 250.875 5.77475 250.492 6.1584C250.108 6.54204 249.588 6.75757 249.045 6.75757C248.503 6.75757 247.983 6.54204 247.599 6.1584C247.215 5.77475 247 5.25442 247 4.71187C247.022 4.23616 247.176 3.77603 247.446 3.38361L249.307 0.397461H249.801L248.241 2.90854C248.492 2.78909 248.767 2.72936 249.045 2.73403C249.312 2.72756 249.576 2.77444 249.824 2.87191C250.072 2.96938 250.298 3.11547 250.489 3.30158C250.679 3.48769 250.831 3.71005 250.934 3.95558C251.037 4.20111 251.091 4.46485 251.091 4.73126V4.71187ZM250.645 4.71187C250.645 4.28759 250.476 3.8807 250.176 3.58069C249.876 3.28068 249.469 3.11214 249.045 3.11214C248.621 3.11214 248.214 3.28068 247.914 3.58069C247.614 3.8807 247.446 4.28759 247.446 4.71187C247.446 5.13614 247.614 5.54303 247.914 5.84304C248.214 6.14305 248.621 6.31159 249.045 6.31159C249.469 6.31159 249.876 6.14305 250.176 5.84304C250.476 5.54303 250.645 5.13614 250.645 4.71187Z" fill="#232323"/>
<path d="M252.603 7V0H253V7H252.603Z" fill="#232323"/>
<path d="M254.609 5.81741L254.919 5.50716C255.102 5.76 255.342 5.96516 255.621 6.10524C255.899 6.24532 256.207 6.3162 256.519 6.31187C256.731 6.32519 256.944 6.2946 257.144 6.22201C257.345 6.14943 257.528 6.0364 257.682 5.88997C257.837 5.74353 257.96 5.56683 258.043 5.37087C258.126 5.1749 258.168 4.96388 258.167 4.75093C258.172 4.54492 258.135 4.33999 258.059 4.1487C257.982 3.95742 257.867 3.78381 257.721 3.63855C257.575 3.49329 257.401 3.37943 257.209 3.30396C257.017 3.22849 256.812 3.19301 256.606 3.19968C256.323 3.19013 256.043 3.25494 255.793 3.38763C255.543 3.52032 255.332 3.71627 255.181 3.95591H254.813L255.036 0.436523H258.196V0.843726H255.433L255.297 3.19968C255.653 2.88571 256.112 2.71323 256.587 2.71492C256.85 2.71234 257.111 2.76217 257.355 2.86151C257.599 2.96085 257.821 3.10771 258.008 3.29356C258.195 3.4794 258.342 3.70052 258.443 3.94406C258.543 4.1876 258.595 4.44869 258.593 4.71215C258.592 4.98281 258.537 5.25048 258.43 5.49922C258.323 5.74795 258.167 5.97264 257.972 6.15992C257.777 6.3472 257.546 6.49322 257.293 6.58928C257.04 6.68534 256.77 6.72948 256.499 6.71907C256.122 6.72534 255.749 6.64048 255.411 6.47169C255.074 6.30291 254.782 6.05519 254.561 5.74954L254.609 5.81741Z" fill="#232323"/>
<path d="M267.501 6.46707C267.408 6.46532 267.316 6.44466 267.231 6.40633C267.146 6.36799 267.07 6.31279 267.007 6.24407C266.876 6.10109 266.804 5.91432 266.804 5.72053C266.804 5.52674 266.876 5.33997 267.007 5.19698C267.071 5.12957 267.147 5.07588 267.232 5.03919C267.317 5.00251 267.409 4.98362 267.501 4.98369C267.594 4.98182 267.686 4.99989 267.772 5.03668C267.857 5.07348 267.933 5.12814 267.996 5.19698C268.065 5.26491 268.12 5.34646 268.157 5.43653C268.194 5.52661 268.211 5.62329 268.209 5.72053C268.213 5.818 268.196 5.91522 268.159 6.00557C268.123 6.09592 268.067 6.17727 267.996 6.24407C267.934 6.31419 267.858 6.37033 267.773 6.40878C267.687 6.44722 267.595 6.46709 267.501 6.46707ZM267.501 6.71914C267.631 6.72117 267.759 6.69734 267.879 6.64906C267.999 6.60077 268.108 6.52901 268.199 6.43798C268.294 6.34479 268.369 6.23298 268.419 6.10955C268.469 5.98611 268.493 5.85368 268.49 5.72053C268.492 5.589 268.467 5.45842 268.417 5.33674C268.367 5.21507 268.293 5.10484 268.199 5.01277C268.108 4.92 268 4.84644 267.88 4.79648C267.76 4.74651 267.631 4.72115 267.501 4.72191C267.373 4.719 267.245 4.74341 267.126 4.79354C267.007 4.84368 266.901 4.9184 266.813 5.01277C266.719 5.10484 266.645 5.21507 266.595 5.33674C266.545 5.45842 266.52 5.589 266.522 5.72053C266.519 5.85368 266.543 5.98611 266.593 6.10955C266.643 6.23298 266.718 6.34479 266.813 6.43798C266.902 6.5306 267.009 6.60351 267.127 6.65196C267.246 6.70041 267.373 6.7233 267.501 6.71914Z" fill="#1D1D1B"/>
</svg>
