<svg width="1284" height="33" viewBox="0 0 1284 33" fill="none" xmlns="http://www.w3.org/2000/svg">
<path d="M138.858 28H145.667V26.2632H138.858V28ZM152.567 28H159.285V26.2632H152.567V28ZM166.277 28H172.903V26.2632H166.277V28ZM179.986 28H186.795V26.2632H179.666L179.986 28ZM193.695 28H200.092V26.2632H193.284L193.695 28ZM207.404 28H214.213V26.2632H206.901L207.404 28ZM221.113 28H227.922V26.2632H220.519L221.113 28ZM234.822 28H241.631V26.2632H234.137L234.822 28ZM248.531 28H255.34V26.2632H247.709L248.531 28ZM262.24 28H269.049V26.2632H261.327L262.24 28ZM275.95 28H282.758V26.2632H274.944L275.95 28ZM289.659 28H296.468V26.2632H288.562L289.659 28ZM303.368 28H310.177V26.2632H302.18L303.368 28ZM317.077 28H322.561V26.2632H315.798L317.077 28ZM330.786 28H337.595V26.2632H329.37L330.786 28ZM344.495 28H351.304V26.2632H342.987L344.495 28ZM358.204 28H365.013V26.2632H356.605L358.204 28ZM371.914 28H378.722V26.2632H370.223L371.914 28ZM385.623 28H392.386V26.2632H383.841L385.623 28ZM399.332 28H406.141V26.2632H397.413L399.332 28ZM413.041 28H419.85V26.2632H411.03L413.041 28ZM426.75 28H431.32V26.2632H424.648L426.75 28ZM440.459 28H445.029V26.2632H438.266L440.459 28ZM454.168 28H458.738V26.2632H451.884L454.168 28ZM467.878 28H472.447V26.2632H465.456L467.878 28ZM481.587 28H488.396V26.2632H479.073L481.587 28ZM495.296 28H502.105V26.2632H492.691L495.296 28ZM509.005 28H513.118V26.2632H506.309L509.005 28ZM522.714 28H529.523V26.2632H519.927L522.714 28ZM536.423 28H543.232V26.2632H533.499L536.423 28ZM550.132 28H556.941V26.2632H547.116L550.132 28ZM563.841 28H570.65V26.2632H560.734L563.841 28ZM577.551 28H584.359V26.2632H574.352L577.551 28ZM591.26 28H598.069V26.2632H587.97L591.26 28ZM604.969 28H611.732V26.2632H604.969V28ZM618.678 28H625.487V26.2632H618.678V28ZM632.387 28H639.196V26.2632H632.387V28ZM646.096 28H652.905V26.2632H646.096V28ZM659.805 28H666.614V26.2632H659.805V28ZM673.515 28H680.278V26.2632H673.515V28ZM687.224 28H694.033V26.2632H687.224V28ZM700.933 28H707.742V26.2632H696.82L700.933 28ZM714.642 28H721.451V26.2632H714.642V28ZM728.351 28H735.16V26.2632H728.351V28ZM742.06 28H748.869V26.2632H737.49L742.06 28ZM755.769 28H762.578V26.2632H751.2L755.769 28ZM769.479 28H776.287V26.2632H764.909L769.479 28ZM783.188 28H789.997V26.2632H778.618L783.188 28ZM796.897 28H803.706V26.2632H792.327L796.897 28ZM810.606 28H817.415V26.2632H810.606V28ZM824.315 28H831.124V26.2632H819.288L824.315 28ZM838.024 28H844.833V26.2632H838.024V28ZM851.733 28H858.542V26.2632H851.733V28ZM865.442 28H872.251V26.2632H865.442V28ZM879.152 28H885.96V26.2632H879.152V28ZM892.861 28H899.624V26.2632H887.377L892.861 28ZM906.57 28H913.379V26.2632H906.57V28ZM920.279 28H927.088V26.2632H920.279V28ZM933.988 28H940.797V26.2632H933.988V28ZM947.697 28H954.506V26.2632H947.697V28ZM961.406 28H968.17V26.2632H961.406V28ZM975.116 28H981.924V26.2632H975.116V28ZM988.825 28H995.634V26.2632H988.825V28ZM1002.53 28H1009.34V26.2632H1002.53V28ZM1016.24 28H1023.05V26.2632H1009.85L1016.24 28ZM1029.95 28H1036.76V26.2632H1029.95V28ZM1043.66 28V26.2632H1036.85L1043.66 28ZM1057.37 28V26.2632H1050.56L1057.37 28ZM1071.08 28V26.2632H1064.27L1071.08 28ZM1084.79 28V26.2632H1077.98L1084.79 28ZM1098.5 28V26.2632H1091.69L1098.5 28ZM1112.21 28H1118.97V26.2632H1112.21V28ZM1125.92 28H1132.72V26.2632H1125.92V28ZM1139.63 28H1146.43V26.2632H1132.31L1139.63 28ZM1153.33 28H1160.14V26.2632H1153.33V28ZM1167.04 28H1173.85V26.2632H1167.04V28ZM1180.75 28H1187.52V26.2632H1180.75V28ZM1194.46 28H1201.27V26.2632H1194.46V28ZM1208.17 28H1214.98V26.2632H1208.17V28ZM1221.88 28H1228.69V26.2632H1221.88V28ZM1235.59 28H1242.4V26.2632H1235.59V28ZM1249.3 28H1256.11V26.2632H1249.3V28ZM1263.01 28H1269.82V26.2632H1254.78L1263.01 28ZM1276.72 28H1283.53V26.2632H1276.72V28Z" fill="#CDCCCC"/>
<path d="M63.6561 8.82133C63.654 7.65517 64.0976 6.53232 64.8962 5.68262C65.6947 4.83293 66.7879 4.32066 67.9517 4.25069C68.5908 4.2471 69.2217 4.3942 69.7933 4.68008C70.365 4.96597 70.8613 5.38257 71.2419 5.89612V0H72.8413V13.4377H71.2419V11.9751C70.8613 12.4886 70.365 12.9052 69.7933 13.1911C69.2217 13.477 68.5908 13.6241 67.9517 13.6205C66.7879 13.5505 65.6947 13.0383 64.8962 12.1886C64.0976 11.3389 63.654 10.216 63.6561 9.04986V8.82133ZM71.2419 8.82133C71.2419 8.02127 70.9242 7.25398 70.3586 6.68826C69.7929 6.12253 69.0257 5.80471 68.2258 5.80471C67.426 5.80471 66.6589 6.12253 66.0933 6.68826C65.5277 7.25398 65.2098 8.02127 65.2098 8.82133C65.2098 9.62139 65.5277 10.3887 66.0933 10.9544C66.6589 11.5201 67.426 11.8379 68.2258 11.8379C69.0257 11.8379 69.7929 11.5201 70.3586 10.9544C70.9242 10.3887 71.2419 9.62139 71.2419 8.82133Z" fill="#232323"/>
<path d="M75.1719 8.82161C75.1719 7.60941 75.6533 6.44685 76.5102 5.58969C77.3672 4.73252 78.5296 4.25098 79.7416 4.25098C80.9536 4.25098 82.1158 4.73252 82.9728 5.58969C83.8298 6.44685 84.3113 7.60941 84.3113 8.82161C84.3405 9.06451 84.3405 9.31002 84.3113 9.55292H76.9997C77.1001 10.3162 77.476 11.0164 78.0568 11.5215C78.6376 12.0266 79.3832 12.3019 80.1528 12.2953C80.6675 12.2866 81.1743 12.1678 81.6393 11.9471C82.1043 11.7264 82.5167 11.4088 82.849 11.0155L83.8999 12.0211C83.4389 12.5919 82.8532 13.0495 82.1878 13.3585C81.5223 13.6675 80.7949 13.8198 80.0614 13.8036C78.8494 13.8036 77.6871 13.3221 76.8302 12.4649C75.9732 11.6077 75.4916 10.4452 75.4916 9.23297L75.1719 8.82161ZM82.529 8.09031C82.4831 7.3787 82.1706 6.71056 81.654 6.2192C81.1373 5.72783 80.4545 5.44936 79.7416 5.43934C79.0091 5.44504 78.3036 5.71722 77.757 6.20505C77.2104 6.69287 76.8599 7.363 76.7712 8.09031H82.529Z" fill="#232323"/>
<path d="M85.6821 11.9295L86.6875 10.9239C86.9997 11.2907 87.3838 11.5895 87.8161 11.8018C88.2484 12.0141 88.7197 12.1353 89.2008 12.158C90.4346 12.158 91.0744 11.5181 91.0744 10.7868C91.0744 8.95856 86.0476 9.82699 86.0476 6.62754C86.0813 6.24011 86.1932 5.86352 86.3763 5.52049C86.5595 5.17746 86.8103 4.8751 87.1135 4.63164C87.4167 4.38818 87.766 4.20867 88.1405 4.10394C88.5149 3.99921 88.9068 3.97143 89.2922 4.02228C89.8696 4.01576 90.4423 4.12573 90.9762 4.34562C91.5101 4.5655 91.9942 4.8908 92.3996 5.30205L91.3943 6.3076C90.8236 5.77034 90.0756 5.46132 89.2922 5.43917C88.1955 5.43917 87.6013 6.03336 87.6013 6.62754C87.6013 8.41009 92.628 7.54167 92.628 10.7868C92.6001 11.2021 92.4878 11.6074 92.2979 11.9778C92.1081 12.3482 91.8449 12.6761 91.5241 12.9413C91.2033 13.2065 90.8319 13.4035 90.4324 13.5203C90.033 13.6371 89.6138 13.6713 89.2008 13.6206C88.5258 13.6161 87.8602 13.4622 87.2519 13.1698C86.6435 12.8774 86.1074 12.4538 85.6821 11.9295Z" fill="#232323"/>
<path d="M94.7758 1.32536C94.7758 1.05868 94.8818 0.802915 95.0703 0.61434C95.2588 0.425765 95.5145 0.319824 95.7811 0.319824C96.0477 0.319824 96.3035 0.425765 96.492 0.61434C96.6806 0.802915 96.7864 1.05868 96.7864 1.32536C96.7864 1.59205 96.6806 1.84781 96.492 2.03639C96.3035 2.22496 96.0477 2.3309 95.7811 2.3309C95.5145 2.3309 95.2588 2.22496 95.0703 2.03639C94.8818 1.84781 94.7758 1.59205 94.7758 1.32536ZM95.0043 13.4376V4.29628H96.558V13.4376H95.0043Z" fill="#232323"/>
<path d="M99.2999 15.5402L100.397 14.4889C100.728 14.9309 101.155 15.2921 101.645 15.5455C102.136 15.7988 102.678 15.9376 103.23 15.9516C103.646 15.9606 104.06 15.8805 104.442 15.7168C104.825 15.5531 105.169 15.3095 105.45 15.0023C105.731 14.6951 105.944 14.3313 106.073 13.9354C106.202 13.5394 106.246 13.1204 106.2 12.7064V11.6094C105.851 12.1086 105.386 12.5151 104.844 12.7938C104.303 13.0726 103.702 13.2151 103.093 13.2092C101.953 13.1062 100.894 12.5796 100.124 11.7333C99.3541 10.887 98.9296 9.78272 98.9342 8.63853C98.9296 7.49434 99.3541 6.39002 100.124 5.54376C100.894 4.6975 101.953 4.17086 103.093 4.06789C103.701 4.06579 104.301 4.21003 104.842 4.48845C105.382 4.76687 105.848 5.17129 106.2 5.66762V4.20501H107.799V12.7064C107.799 13.9186 107.318 15.0812 106.461 15.9383C105.604 16.7955 104.442 17.277 103.23 17.277C102.473 17.2705 101.727 17.0948 101.047 16.7626C100.367 16.4304 99.7703 15.9503 99.2999 15.3574V15.5402ZM106.2 8.63853C106.251 8.23306 106.216 7.8213 106.096 7.43062C105.976 7.03994 105.774 6.67929 105.504 6.37266C105.234 6.06603 104.901 5.82043 104.529 5.6522C104.157 5.48397 103.753 5.39697 103.344 5.39697C102.935 5.39697 102.531 5.48397 102.159 5.6522C101.787 5.82043 101.454 6.06603 101.184 6.37266C100.914 6.67929 100.712 7.03994 100.592 7.43062C100.472 7.8213 100.437 8.23306 100.488 8.63853C100.437 9.044 100.472 9.45576 100.592 9.84644C100.712 10.2371 100.914 10.5978 101.184 10.9044C101.454 11.211 101.787 11.4566 102.159 11.6249C102.531 11.7931 102.935 11.8801 103.344 11.8801C103.753 11.8801 104.157 11.7931 104.529 11.6249C104.901 11.4566 105.234 11.211 105.504 10.9044C105.774 10.5978 105.976 10.2371 106.096 9.84644C106.216 9.45576 106.251 9.044 106.2 8.63853Z" fill="#232323"/>
<path d="M110.678 13.4377V4.29644H112.232V5.71334C112.673 5.024 113.334 4.50469 114.108 4.24044C114.882 3.97619 115.723 3.98267 116.493 4.25883C117.263 4.53498 117.916 5.06444 118.346 5.76048C118.776 6.45652 118.956 7.27789 118.858 8.09007V13.4377H117.304V7.99865C117.323 7.67732 117.276 7.35552 117.164 7.05355C117.053 6.75158 116.88 6.47598 116.657 6.24411C116.434 6.01224 116.165 5.82912 115.867 5.70631C115.57 5.58349 115.25 5.52364 114.928 5.53051C114.562 5.53004 114.2 5.60406 113.864 5.74808C113.527 5.89209 113.224 6.10308 112.972 6.36819C112.719 6.63331 112.524 6.94701 112.397 7.29017C112.27 7.63334 112.214 7.99881 112.232 8.36431V13.4377H110.678Z" fill="#232323"/>
<path d="M65.2555 30.2116V31.6742H63.7018V18.2822H65.2555V23.9498C65.6098 23.4172 66.0931 22.9828 66.6604 22.6871C67.2276 22.3914 67.8604 22.244 68.4999 22.2587C69.6637 22.3286 70.7569 22.8409 71.5554 23.6906C72.354 24.5403 72.7976 25.6632 72.7955 26.8293C72.7976 27.9955 72.354 29.1183 71.5554 29.968C70.7569 30.8177 69.6637 31.33 68.4999 31.4C67.8646 31.4196 67.2345 31.2792 66.6676 30.9917C66.1007 30.7042 65.6151 30.2787 65.2555 29.7545V30.2116ZM71.2418 27.0579C71.2418 26.2578 70.9241 25.4905 70.3585 24.9248C69.7928 24.3591 69.0256 24.0412 68.2258 24.0412C67.4259 24.0412 66.6588 24.3591 66.0932 24.9248C65.5276 25.4905 65.2097 26.2578 65.2097 27.0579C65.2097 27.8579 65.5276 28.6252 66.0932 29.1909C66.6588 29.7566 67.4259 30.0745 68.2258 30.0745C69.0256 30.0745 69.7928 29.7566 70.3585 29.1909C70.9241 28.6252 71.2418 27.8579 71.2418 27.0579Z" fill="#232323"/>
<path d="M74.989 27.8807V22.4873H76.5884V27.8807C76.5628 28.1997 76.6043 28.5205 76.7105 28.8224C76.8166 29.1243 76.985 29.4006 77.2047 29.6333C77.4244 29.8659 77.6905 30.0499 77.9858 30.1731C78.2811 30.2964 78.599 30.3562 78.9189 30.3488C79.2886 30.3556 79.6558 30.2862 79.9976 30.1449C80.3394 30.0037 80.6484 29.7937 80.9056 29.5279C81.1628 29.2621 81.3625 28.9463 81.4924 28.6C81.6223 28.2537 81.6796 27.8844 81.6608 27.515V22.4873H83.2144V31.6286H81.6608V30.2574C81.3405 30.7422 80.9067 31.1415 80.397 31.4203C79.8873 31.6991 79.3171 31.8491 78.7362 31.8571C78.2242 31.8655 77.7159 31.7662 77.2447 31.5656C76.7735 31.365 76.3497 31.0676 76.0008 30.6927C75.6518 30.3178 75.3854 29.8738 75.219 29.3893C75.0526 28.9049 74.9897 28.3909 75.0346 27.8807H74.989Z" fill="#232323"/>
<path d="M86.0934 31.6745V22.5332H87.6471V23.8587C87.9829 23.3929 88.4213 23.0105 88.9284 22.741C89.4355 22.4716 89.9978 22.3223 90.5718 22.3047H91.0286V23.9501H90.3889C90.0108 23.9555 89.6378 24.0378 89.2925 24.1919C88.9472 24.3461 88.6368 24.5689 88.3803 24.8468C88.1238 25.1247 87.9265 25.4519 87.8005 25.8085C87.6744 26.1651 87.6222 26.5436 87.6471 26.921V31.6745H86.0934Z" fill="#232323"/>
<path d="M19.2842 22.2134C19.2842 24.7711 18.2683 27.2241 16.4601 29.0327C14.6518 30.8413 12.1993 31.8574 9.64202 31.8574C7.08478 31.8574 4.63238 30.8413 2.82413 29.0327C1.01589 27.2241 0 24.7711 0 22.2134C0.102344 19.9707 0.830488 17.8016 2.10203 15.9516L10.8759 1.87402H13.2064L5.84923 13.712C7.03316 13.1488 8.33122 12.8673 9.64202 12.8893C10.8973 12.8588 12.1461 13.0798 13.3148 13.5393C14.4834 13.9988 15.5482 14.6875 16.4467 15.5649C17.3451 16.4422 18.059 17.4905 18.5463 18.648C19.0336 19.8055 19.2846 21.0488 19.2842 22.3048V22.2134ZM17.1822 22.2134C17.1822 20.2132 16.3878 18.295 14.9737 16.8807C13.5597 15.4664 11.6418 14.6718 9.64202 14.6718C7.64229 14.6718 5.72449 15.4664 4.31046 16.8807C2.89643 18.295 2.10203 20.2132 2.10203 22.2134C2.10203 24.2135 2.89643 26.1317 4.31046 27.546C5.72449 28.9604 7.64229 29.7549 9.64202 29.7549C11.6418 29.7549 13.5597 28.9604 14.9737 27.546C16.3878 26.1317 17.1822 24.2135 17.1822 22.2134Z" fill="#232323"/>
<path d="M26.413 33V0H28.2866V33H26.413Z" fill="#232323"/>
<path d="M35.8722 27.4237L37.3344 25.9611C38.1938 27.153 39.3279 28.1202 40.6404 28.7806C41.953 29.441 43.4055 29.7751 44.8746 29.7547C45.8763 29.8175 46.8803 29.6733 47.824 29.3311C48.7676 28.9889 49.6306 28.4561 50.3594 27.7657C51.0882 27.0754 51.6671 26.2424 52.0599 25.3185C52.4528 24.3947 52.6512 23.3999 52.643 22.396C52.6684 21.4248 52.4952 20.4587 52.1339 19.5569C51.7725 18.6551 51.2308 17.8367 50.5418 17.1519C49.8529 16.4671 49.0312 15.9303 48.1274 15.5746C47.2236 15.2188 46.2566 15.0515 45.2858 15.083C43.9523 15.0379 42.6302 15.3435 41.4515 15.969C40.2728 16.5946 39.2787 17.5183 38.5684 18.6481H36.8318L37.8829 2.05664H52.7801V3.97631H39.7565L39.1167 15.083C40.7947 13.6028 42.9571 12.7897 45.1944 12.7976C46.4361 12.7855 47.6679 13.0204 48.818 13.4887C49.9681 13.957 51.0138 14.6494 51.894 15.5255C52.7742 16.4017 53.4715 17.4441 53.9453 18.5922C54.419 19.7403 54.6598 20.9711 54.6537 22.2132C54.6485 23.4891 54.3866 24.751 53.8835 25.9236C53.3804 27.0962 52.6465 28.1555 51.7254 29.0384C50.8043 29.9212 49.7149 30.6096 48.5222 31.0625C47.3295 31.5154 46.0579 31.7235 44.7831 31.6744C43.0045 31.7039 41.2451 31.3038 39.654 30.5082C38.063 29.7125 36.6872 28.5446 35.6437 27.1037L35.8722 27.4237Z" fill="#232323"/>
<path d="M96.6494 30.4861C96.21 30.4778 95.7769 30.3804 95.3763 30.1997C94.9757 30.019 94.6158 29.7588 94.3188 29.4348C93.7023 28.7608 93.3603 27.8803 93.3603 26.9667C93.3603 26.0531 93.7023 25.1726 94.3188 24.4985C94.6181 24.1807 94.9794 23.9276 95.3802 23.7547C95.781 23.5817 96.2129 23.4927 96.6494 23.493C97.0872 23.4842 97.5217 23.5694 97.9238 23.7428C98.3258 23.9163 98.686 24.174 98.98 24.4985C99.3082 24.8188 99.5668 25.2032 99.7398 25.6278C99.9127 26.0525 99.9963 26.5083 99.9854 26.9667C100.005 27.4262 99.9253 27.8845 99.7518 28.3104C99.5783 28.7364 99.3151 29.1199 98.98 29.4348C98.6883 29.7653 98.3296 30.03 97.9278 30.2113C97.526 30.3925 97.0902 30.4862 96.6494 30.4861ZM96.6494 31.6744C97.2585 31.684 97.8633 31.5716 98.4283 31.344C98.9934 31.1164 99.5072 30.7781 99.9396 30.3489C100.388 29.9096 100.741 29.3825 100.977 28.8006C101.213 28.2187 101.327 27.5944 101.31 26.9667C101.32 26.3466 101.204 25.731 100.968 25.1574C100.732 24.5838 100.382 24.0641 99.9396 23.6301C99.511 23.1927 98.999 22.846 98.4338 22.6104C97.8686 22.3749 97.2617 22.2553 96.6494 22.2589C96.0424 22.2452 95.4395 22.3602 94.8803 22.5966C94.321 22.833 93.8182 23.1852 93.405 23.6301C92.9621 24.0641 92.6121 24.5838 92.3765 25.1574C92.1408 25.731 92.0242 26.3466 92.034 26.9667C92.0179 27.5944 92.1314 28.2187 92.3673 28.8006C92.6031 29.3825 92.9564 29.9096 93.405 30.3489C93.8222 30.7856 94.3268 31.1293 94.8858 31.3577C95.4449 31.5861 96.0458 31.694 96.6494 31.6744Z" fill="#1D1D1B"/>
</svg>
