<svg width="273" height="7" viewBox="0 0 273 7" fill="none" xmlns="http://www.w3.org/2000/svg">
<path d="M29.4548 5.93922H30.8991V5.5708H29.4548V5.93922ZM32.3628 5.93922H33.7877V5.5708H32.3628V5.93922ZM35.2708 5.93922H36.6763V5.5708H35.2708V5.93922ZM38.1788 5.93922H39.6231V5.5708H38.1109L38.1788 5.93922ZM41.0868 5.93922H42.4438V5.5708H40.9995L41.0868 5.93922ZM43.9948 5.93922H45.4391V5.5708H43.8881L43.9948 5.93922ZM46.9028 5.93922H48.3471V5.5708H46.7768L46.9028 5.93922ZM49.8108 5.93922H51.2551V5.5708H49.6654L49.8108 5.93922ZM52.7188 5.93922H54.1631V5.5708H52.5443L52.7188 5.93922ZM55.6268 5.93922H57.0711V5.5708H55.4329L55.6268 5.93922ZM58.5348 5.93922H59.9791V5.5708H58.3215L58.5348 5.93922ZM61.4428 5.93922H62.8871V5.5708H61.2101L61.4428 5.93922ZM64.3508 5.93922H65.7951V5.5708H64.0987L64.3508 5.93922ZM67.2588 5.93922H68.422V5.5708H66.9873L67.2588 5.93922ZM70.1668 5.93922H71.6111V5.5708H69.8663L70.1668 5.93922ZM73.0748 5.93922H74.5191V5.5708H72.7549L73.0748 5.93922ZM75.9828 5.93922H77.4271V5.5708H75.6435L75.9828 5.93922ZM78.8908 5.93922H80.3351V5.5708H78.5321L78.8908 5.93922ZM81.7988 5.93922H83.2334V5.5708H81.4207L81.7988 5.93922ZM84.7068 5.93922H86.1511V5.5708H84.2996L84.7068 5.93922ZM87.6148 5.93922H89.0591V5.5708H87.1882L87.6148 5.93922ZM90.5227 5.93922H91.4921V5.5708H90.0769L90.5227 5.93922ZM93.4307 5.93922H94.4001V5.5708H92.9655L93.4307 5.93922ZM96.3387 5.93922H97.3081V5.5708H95.8541L96.3387 5.93922ZM99.2467 5.93922H100.216V5.5708H98.733L99.2467 5.93922ZM102.155 5.93922H103.599V5.5708H101.622L102.155 5.93922ZM105.063 5.93922H106.507V5.5708H104.51L105.063 5.93922ZM107.971 5.93922H108.843V5.5708H107.399L107.971 5.93922ZM110.879 5.93922H112.323V5.5708H110.287L110.879 5.93922ZM113.787 5.93922H115.231V5.5708H113.166L113.787 5.93922ZM116.695 5.93922H118.139V5.5708H116.055L116.695 5.93922ZM119.603 5.93922H121.047V5.5708H118.944L119.603 5.93922ZM122.511 5.93922H123.955V5.5708H121.832L122.511 5.93922ZM125.419 5.93922H126.863V5.5708H124.721L125.419 5.93922ZM128.327 5.93922H129.761V5.5708H128.327V5.93922ZM131.235 5.93922H132.679V5.5708H131.235V5.93922ZM134.143 5.93922H135.587V5.5708H134.143V5.93922ZM137.051 5.93922H138.495V5.5708H137.051V5.93922ZM139.959 5.93922H141.403V5.5708H139.959V5.93922ZM142.867 5.93922H144.301V5.5708H142.867V5.93922ZM145.775 5.93922H147.219V5.5708H145.775V5.93922ZM148.683 5.93922H150.127V5.5708H147.81L148.683 5.93922ZM151.591 5.93922H153.035V5.5708H151.591V5.93922ZM154.499 5.93922H155.943V5.5708H154.499V5.93922ZM157.407 5.93922H158.851V5.5708H156.437L157.407 5.93922ZM160.315 5.93922H161.759V5.5708H159.345L160.315 5.93922ZM163.223 5.93922H164.667V5.5708H162.253L163.223 5.93922ZM166.131 5.93922H167.575V5.5708H165.161L166.131 5.93922ZM169.039 5.93922H170.483V5.5708H168.069L169.039 5.93922ZM171.947 5.93922H173.391V5.5708H171.947V5.93922ZM174.855 5.93922H176.299V5.5708H173.788L174.855 5.93922ZM177.763 5.93922H179.207V5.5708H177.763V5.93922ZM180.671 5.93922H182.115V5.5708H180.671V5.93922ZM183.579 5.93922H185.023V5.5708H183.579V5.93922ZM186.487 5.93922H187.931V5.5708H186.487V5.93922ZM189.395 5.93922H190.829V5.5708H188.232L189.395 5.93922ZM192.303 5.93922H193.747V5.5708H192.303V5.93922ZM195.211 5.93922H196.655V5.5708H195.211V5.93922ZM198.119 5.93922H199.563V5.5708H198.119V5.93922ZM201.027 5.93922H202.471V5.5708H201.027V5.93922ZM203.935 5.93922H205.369V5.5708H203.935V5.93922ZM206.843 5.93922H208.287V5.5708H206.843V5.93922ZM209.751 5.93922H211.195V5.5708H209.751V5.93922ZM212.659 5.93922H214.103V5.5708H212.659V5.93922ZM215.567 5.93922H217.011V5.5708H214.21L215.567 5.93922ZM218.475 5.93922H219.919V5.5708H218.475V5.93922ZM221.383 5.93922V5.5708H219.938L221.383 5.93922ZM224.291 5.93922V5.5708H222.846L224.291 5.93922ZM227.199 5.93922V5.5708H225.754L227.199 5.93922ZM230.107 5.93922V5.5708H228.662L230.107 5.93922ZM233.015 5.93922V5.5708H231.57L233.015 5.93922ZM235.923 5.93922H237.357V5.5708H235.923V5.93922ZM238.831 5.93922H240.275V5.5708H238.831V5.93922ZM241.739 5.93922H243.183V5.5708H240.188L241.739 5.93922ZM244.647 5.93922H246.091V5.5708H244.647V5.93922ZM247.555 5.93922H248.999V5.5708H247.555V5.93922ZM250.463 5.93922H251.897V5.5708H250.463V5.93922ZM253.371 5.93922H254.815V5.5708H253.371V5.93922ZM256.279 5.93922H257.723V5.5708H256.279V5.93922ZM259.187 5.93922H260.631V5.5708H259.187V5.93922ZM262.095 5.93922H263.539V5.5708H262.095V5.93922ZM265.003 5.93922H266.447V5.5708H265.003V5.93922ZM267.911 5.93922H269.355V5.5708H266.166L267.911 5.93922ZM270.819 5.93922H272.263V5.5708H270.819V5.93922Z" fill="#CDCCCC"/>
<path d="M13.5028 1.87119C13.5024 1.62382 13.5965 1.38564 13.7659 1.2054C13.9352 1.02517 14.1671 0.916504 14.414 0.901662C14.5496 0.900899 14.6834 0.932104 14.8046 0.992745C14.9259 1.05339 15.0312 1.14176 15.1119 1.25069V0H15.4512V2.85042H15.1119V2.54017C15.0312 2.6491 14.9259 2.73747 14.8046 2.79811C14.6834 2.85876 14.5496 2.88996 14.414 2.8892C14.1671 2.87436 13.9352 2.76569 13.7659 2.58545C13.5965 2.40522 13.5024 2.16703 13.5028 1.91967V1.87119ZM15.1119 1.87119C15.1119 1.70148 15.0445 1.53872 14.9245 1.41872C14.8046 1.29872 14.6418 1.2313 14.4721 1.2313C14.3025 1.2313 14.1398 1.29872 14.0198 1.41872C13.8998 1.53872 13.8324 1.70148 13.8324 1.87119C13.8324 2.0409 13.8998 2.20366 14.0198 2.32366C14.1398 2.44366 14.3025 2.51108 14.4721 2.51108C14.6418 2.51108 14.8046 2.44366 14.9245 2.32366C15.0445 2.20366 15.1119 2.0409 15.1119 1.87119Z" fill="#232323"/>
<path d="M15.9456 1.87138C15.9456 1.61425 16.0477 1.36765 16.2294 1.18582C16.4112 1.004 16.6578 0.901855 16.9149 0.901855C17.172 0.901855 17.4185 1.004 17.6003 1.18582C17.7821 1.36765 17.8842 1.61425 17.8842 1.87138C17.8904 1.92291 17.8904 1.97499 17.8842 2.02651H16.3333C16.3546 2.18841 16.4343 2.33694 16.5575 2.44409C16.6807 2.55124 16.8389 2.60962 17.0021 2.60823C17.1113 2.60637 17.2188 2.58119 17.3174 2.53437C17.4161 2.48755 17.5036 2.42017 17.574 2.33676L17.797 2.55006C17.6992 2.67115 17.5749 2.7682 17.4338 2.83375C17.2926 2.8993 17.1383 2.9316 16.9827 2.92817C16.7256 2.92817 16.4791 2.82602 16.2973 2.6442C16.1155 2.46238 16.0134 2.21578 16.0134 1.95864L15.9456 1.87138ZM17.5062 1.71626C17.4964 1.56531 17.4301 1.42359 17.3205 1.31936C17.2109 1.21513 17.0661 1.15606 16.9149 1.15393C16.7595 1.15514 16.6099 1.21288 16.4939 1.31636C16.378 1.41983 16.3036 1.56198 16.2848 1.71626H17.5062Z" fill="#232323"/>
<path d="M18.175 2.53067L18.3883 2.31738C18.4545 2.39518 18.536 2.45856 18.6277 2.50359C18.7194 2.54861 18.8193 2.57433 18.9214 2.57915C19.1831 2.57915 19.3188 2.44342 19.3188 2.28829C19.3188 1.90048 18.2525 2.08469 18.2525 1.40602C18.2597 1.32384 18.2834 1.24396 18.3223 1.17119C18.3611 1.09843 18.4143 1.03429 18.4786 0.982646C18.5429 0.931003 18.617 0.892925 18.6965 0.87071C18.7759 0.848495 18.859 0.842602 18.9408 0.853388C19.0632 0.852005 19.1847 0.875332 19.298 0.921975C19.4112 0.968618 19.5139 1.03762 19.5999 1.12486L19.3867 1.33815C19.2656 1.22419 19.107 1.15864 18.9408 1.15394C18.7081 1.15394 18.5821 1.27998 18.5821 1.40602C18.5821 1.78414 19.6484 1.59993 19.6484 2.28829C19.6424 2.37639 19.6186 2.46235 19.5784 2.54093C19.5381 2.6195 19.4822 2.68904 19.4142 2.7453C19.3462 2.80156 19.2674 2.84335 19.1826 2.86813C19.0979 2.8929 19.009 2.90014 18.9214 2.8894C18.7782 2.88845 18.637 2.85579 18.508 2.79377C18.3789 2.73174 18.2652 2.64189 18.175 2.53067Z" fill="#232323"/>
<path d="M20.1039 0.281167C20.1039 0.224598 20.1264 0.170345 20.1664 0.130344C20.2064 0.0903433 20.2606 0.0678711 20.3172 0.0678711C20.3738 0.0678711 20.428 0.0903433 20.468 0.130344C20.508 0.170345 20.5305 0.224598 20.5305 0.281167C20.5305 0.337737 20.508 0.39199 20.468 0.431991C20.428 0.471992 20.3738 0.494464 20.3172 0.494464C20.2606 0.494464 20.2064 0.471992 20.1664 0.431991C20.1264 0.39199 20.1039 0.337737 20.1039 0.281167ZM20.1524 2.85042V0.911361H20.482V2.85042H20.1524Z" fill="#232323"/>
<path d="M21.0636 3.29632L21.2962 3.07332C21.3665 3.16708 21.4571 3.2437 21.5611 3.29743C21.6652 3.35117 21.7801 3.38062 21.8972 3.38357C21.9855 3.38549 22.0732 3.36851 22.1545 3.33379C22.2357 3.29906 22.3086 3.24738 22.3682 3.18221C22.4279 3.11704 22.4729 3.03988 22.5004 2.9559C22.5278 2.87191 22.537 2.78303 22.5273 2.69521V2.46252C22.4533 2.5684 22.3545 2.65463 22.2397 2.71376C22.1248 2.77288 21.9973 2.80312 21.8681 2.80186C21.6265 2.78001 21.4018 2.6683 21.2384 2.48879C21.0751 2.30928 20.9851 2.07503 20.9861 1.83233C20.9851 1.58962 21.0751 1.35537 21.2384 1.17586C21.4018 0.996351 21.6265 0.88464 21.8681 0.862798C21.9972 0.862352 22.1244 0.892948 22.2391 0.952006C22.3539 1.01106 22.4527 1.09685 22.5273 1.20213V0.891884H22.8666V2.69521C22.8666 2.95234 22.7644 3.19895 22.5827 3.38077C22.4009 3.56259 22.1543 3.66474 21.8972 3.66474C21.7367 3.66336 21.5785 3.62608 21.4343 3.55562C21.29 3.48516 21.1634 3.38331 21.0636 3.25753V3.29632ZM22.5273 1.83233C22.5382 1.74632 22.5307 1.65898 22.5052 1.5761C22.4797 1.49323 22.4369 1.41673 22.3796 1.35169C22.3223 1.28664 22.2518 1.23455 22.1728 1.19886C22.0938 1.16318 22.0081 1.14472 21.9215 1.14472C21.8348 1.14472 21.7491 1.16318 21.6701 1.19886C21.5911 1.23455 21.5206 1.28664 21.4633 1.35169C21.406 1.41673 21.3632 1.49323 21.3377 1.5761C21.3123 1.65898 21.3047 1.74632 21.3156 1.83233C21.3047 1.91834 21.3123 2.00568 21.3377 2.08855C21.3632 2.17142 21.406 2.24792 21.4633 2.31297C21.5206 2.37801 21.5911 2.43011 21.6701 2.46579C21.7491 2.50148 21.8348 2.51993 21.9215 2.51993C22.0081 2.51993 22.0938 2.50148 22.1728 2.46579C22.2518 2.43011 22.3223 2.37801 22.3796 2.31297C22.4369 2.24792 22.4797 2.17142 22.5052 2.08855C22.5307 2.00568 22.5382 1.91834 22.5273 1.83233Z" fill="#232323"/>
<path d="M23.4772 2.85039V0.911336H23.8068V1.21189C23.9002 1.06567 24.0405 0.95551 24.2047 0.899457C24.3689 0.843405 24.5473 0.84478 24.7106 0.903358C24.8739 0.961936 25.0125 1.07424 25.1036 1.22189C25.1948 1.36954 25.2331 1.54377 25.2124 1.71605V2.85039H24.8828V1.69665C24.8868 1.62849 24.8767 1.56023 24.853 1.49618C24.8294 1.43212 24.7927 1.37366 24.7454 1.32448C24.698 1.27529 24.641 1.23645 24.5779 1.2104C24.5148 1.18435 24.447 1.17165 24.3787 1.17311C24.3011 1.17301 24.2243 1.18871 24.1529 1.21926C24.0816 1.24981 24.0172 1.29456 23.9637 1.3508C23.9102 1.40704 23.8687 1.47358 23.8417 1.54637C23.8148 1.61916 23.8029 1.69669 23.8068 1.77422V2.85039H23.4772Z" fill="#232323"/>
<path d="M13.8421 6.4084V6.71865H13.5125V3.87793H13.8421V5.08015C13.9172 4.96716 14.0197 4.87502 14.1401 4.8123C14.2604 4.74958 14.3946 4.71832 14.5303 4.72142C14.7772 4.73626 15.009 4.84492 15.1784 5.02516C15.3478 5.2054 15.4419 5.44358 15.4415 5.69095C15.4419 5.93832 15.3478 6.1765 15.1784 6.35674C15.009 6.53697 14.7772 6.64564 14.5303 6.66048C14.3955 6.66464 14.2619 6.63486 14.1416 6.57387C14.0214 6.51289 13.9184 6.42265 13.8421 6.31145V6.4084ZM15.1119 5.73943C15.1119 5.56972 15.0445 5.40696 14.9245 5.28696C14.8045 5.16695 14.6418 5.09954 14.4721 5.09954C14.3025 5.09954 14.1397 5.16695 14.0198 5.28696C13.8998 5.40696 13.8324 5.56972 13.8324 5.73943C13.8324 5.90913 13.8998 6.07189 14.0198 6.1919C14.1397 6.3119 14.3025 6.37931 14.4721 6.37931C14.6418 6.37931 14.8045 6.3119 14.9245 6.1919C15.0445 6.07189 15.1119 5.90913 15.1119 5.73943Z" fill="#232323"/>
<path d="M15.9068 5.91406V4.77002H16.246V5.91406C16.2406 5.98173 16.2494 6.04979 16.2719 6.11383C16.2944 6.17787 16.3301 6.23647 16.3768 6.28583C16.4234 6.33518 16.4798 6.3742 16.5424 6.40034C16.6051 6.42649 16.6725 6.43919 16.7404 6.43761C16.8188 6.43904 16.8967 6.42432 16.9692 6.39437C17.0417 6.36441 17.1072 6.31986 17.1618 6.26348C17.2163 6.2071 17.2587 6.1401 17.2863 6.06665C17.3138 5.99319 17.326 5.91485 17.322 5.8365V4.77002H17.6515V6.70908H17.322V6.41822C17.2541 6.52107 17.162 6.60575 17.0539 6.66489C16.9458 6.72403 16.8248 6.75584 16.7016 6.75755C16.593 6.75933 16.4852 6.73826 16.3852 6.69571C16.2853 6.65316 16.1954 6.59008 16.1214 6.51056C16.0474 6.43104 15.9908 6.33684 15.9555 6.23409C15.9202 6.13133 15.9069 6.0223 15.9164 5.91406H15.9068Z" fill="#232323"/>
<path d="M18.2622 6.71898V4.77992H18.5918V5.06108C18.663 4.96227 18.756 4.88115 18.8636 4.824C18.9712 4.76684 19.0904 4.73518 19.2122 4.73145H19.3091V5.08048H19.1734C19.0932 5.08162 19.0141 5.09907 18.9408 5.13177C18.8676 5.16447 18.8017 5.21173 18.7473 5.27068C18.6929 5.32964 18.6511 5.39904 18.6243 5.47468C18.5976 5.55032 18.5865 5.63061 18.5918 5.71067V6.71898H18.2622Z" fill="#232323"/>
<path d="M4.09059 4.71187C4.09059 5.25442 3.87509 5.77475 3.49153 6.1584C3.10796 6.54204 2.58772 6.75757 2.04528 6.75757C1.50283 6.75757 0.982625 6.54204 0.599059 6.1584C0.215492 5.77475 0 5.25442 0 4.71187C0.0217093 4.23616 0.176164 3.77603 0.445885 3.38361L2.30702 0.397461H2.80136L1.24074 2.90854C1.49188 2.78909 1.76723 2.72936 2.04528 2.73403C2.31156 2.72756 2.57645 2.77444 2.82434 2.87191C3.07223 2.96938 3.2981 3.11547 3.48869 3.30158C3.67927 3.48769 3.8307 3.71005 3.93407 3.95558C4.03744 4.20111 4.09066 4.46485 4.09059 4.73126V4.71187ZM3.6447 4.71187C3.6447 4.28759 3.47619 3.8807 3.17625 3.58069C2.8763 3.28068 2.46947 3.11214 2.04528 3.11214C1.62109 3.11214 1.21429 3.28068 0.91434 3.58069C0.614395 3.8807 0.445885 4.28759 0.445885 4.71187C0.445885 5.13614 0.614395 5.54303 0.91434 5.84304C1.21429 6.14305 1.62109 6.31159 2.04528 6.31159C2.46947 6.31159 2.8763 6.14305 3.17625 5.84304C3.47619 5.54303 3.6447 5.13614 3.6447 4.71187Z" fill="#232323"/>
<path d="M5.60275 7V0H6.00018V7H5.60275Z" fill="#232323"/>
<path d="M7.60926 5.81741L7.91943 5.50716C8.10172 5.76 8.34227 5.96516 8.62069 6.10524C8.89911 6.24532 9.20722 6.3162 9.51885 6.31187C9.73134 6.32519 9.94431 6.2946 10.1445 6.22201C10.3446 6.14943 10.5277 6.0364 10.6823 5.88997C10.8369 5.74353 10.9597 5.56683 11.043 5.37087C11.1264 5.1749 11.1684 4.96388 11.1667 4.75093C11.1721 4.54492 11.1353 4.33999 11.0587 4.1487C10.982 3.95742 10.8671 3.78381 10.721 3.63855C10.5748 3.49329 10.4006 3.37943 10.2088 3.30396C10.0171 3.22849 9.81201 3.19301 9.60609 3.19968C9.3232 3.19013 9.04276 3.25494 8.79274 3.38763C8.54271 3.52032 8.33185 3.71627 8.18116 3.95591H7.81281L8.03577 0.436523H11.1958V0.843726H8.4332L8.29748 3.19968C8.65341 2.88571 9.11211 2.71323 9.58668 2.71492C9.85008 2.71234 10.1114 2.76217 10.3553 2.86151C10.5993 2.96085 10.8211 3.10771 11.0078 3.29356C11.1945 3.4794 11.3424 3.70052 11.4429 3.94406C11.5434 4.1876 11.5945 4.44869 11.5932 4.71215C11.5921 4.98281 11.5365 5.25048 11.4298 5.49922C11.3231 5.74795 11.1674 5.97264 10.972 6.15992C10.7767 6.3472 10.5456 6.49322 10.2926 6.58928C10.0396 6.68534 9.76985 6.72948 9.49944 6.71907C9.12216 6.72534 8.74896 6.64048 8.41146 6.47169C8.07396 6.30291 7.78214 6.05519 7.56078 5.74954L7.60926 5.81741Z" fill="#232323"/>
<path d="M20.5014 6.46658C20.4082 6.46483 20.3163 6.44417 20.2313 6.40584C20.1464 6.36751 20.07 6.31231 20.007 6.24359C19.8762 6.1006 19.8037 5.91383 19.8037 5.72004C19.8037 5.52625 19.8762 5.33948 20.007 5.19649C20.0705 5.12909 20.1471 5.07539 20.2322 5.03871C20.3172 5.00202 20.4088 4.98313 20.5014 4.9832C20.5942 4.98133 20.6864 4.9994 20.7717 5.0362C20.857 5.07299 20.9334 5.12765 20.9958 5.19649C21.0654 5.26442 21.1202 5.34597 21.1569 5.43605C21.1936 5.52613 21.2113 5.6228 21.209 5.72004C21.2132 5.81751 21.1963 5.91473 21.1595 6.00508C21.1227 6.09543 21.0668 6.17678 20.9958 6.24359C20.9339 6.3137 20.8578 6.36984 20.7726 6.40829C20.6873 6.44674 20.5949 6.46661 20.5014 6.46658ZM20.5014 6.71866C20.6306 6.72068 20.7589 6.69685 20.8787 6.64857C20.9986 6.60028 21.1076 6.52852 21.1993 6.43749C21.2945 6.3443 21.3694 6.2325 21.4194 6.10906C21.4695 5.98562 21.4935 5.85319 21.4901 5.72004C21.4922 5.58851 21.4675 5.45793 21.4175 5.33625C21.3675 5.21458 21.2933 5.10435 21.1993 5.01228C21.1084 4.91951 20.9998 4.84595 20.8799 4.79599C20.76 4.74602 20.6313 4.72067 20.5014 4.72143C20.3726 4.71851 20.2447 4.74292 20.1261 4.79306C20.0075 4.84319 19.9008 4.91791 19.8132 5.01228C19.7192 5.10435 19.645 5.21458 19.595 5.33625C19.545 5.45793 19.5203 5.58851 19.5224 5.72004C19.519 5.85319 19.543 5.98562 19.5931 6.10906C19.6431 6.2325 19.718 6.3443 19.8132 6.43749C19.9017 6.53011 20.0087 6.60302 20.1273 6.65147C20.2459 6.69992 20.3734 6.72281 20.5014 6.71866Z" fill="#1D1D1B"/>
</svg>
