<svg width="1192" height="21" viewBox="0 0 1192 21" fill="none" xmlns="http://www.w3.org/2000/svg">
<path d="M0 10.0762C0 7.28711 0.970703 4.9082 2.92578 2.93945C4.89453 0.984375 7.27344 0 10.0625 0C11.0605 0 12.0176 0.150391 12.9199 0.423828C13.8359 0.697266 14.5879 1.03906 15.1895 1.42188C15.791 1.81836 16.3105 2.21484 16.7617 2.61133C17.2129 3.02148 17.541 3.36328 17.7324 3.63672L18.0469 4.06055L16.6387 5.31836C16.584 5.23633 16.502 5.11328 16.3926 4.96289C16.2832 4.8125 16.0371 4.53906 15.627 4.15625C15.2305 3.77344 14.793 3.44531 14.3281 3.14453C13.8633 2.84375 13.248 2.57031 12.4824 2.32422C11.7168 2.07812 10.9102 1.95508 10.0762 1.95508C7.83398 1.95508 5.93359 2.73438 4.40234 4.29297C2.85742 5.85156 2.0918 7.7793 2.0918 10.0762C2.0918 12.373 2.85742 14.3008 4.40234 15.8594C5.93359 17.418 7.83398 18.1973 10.0762 18.1973C10.9102 18.1973 11.7168 18.0879 12.4824 17.8555C13.248 17.623 13.877 17.3359 14.3828 17.0078C14.8887 16.6797 15.3398 16.3652 15.7227 16.0371C16.1055 15.709 16.3789 15.4219 16.543 15.1758L16.8027 14.834L18.1973 16.1055C18.1152 16.2148 18.0059 16.3652 17.8555 16.543C17.7051 16.7207 17.377 17.0352 16.8574 17.5C16.3379 17.9648 15.8047 18.3887 15.2305 18.7441C14.6562 19.1133 13.8906 19.4414 12.9609 19.7285C12.0312 20.0156 11.0605 20.1523 10.0762 20.1523C7.27344 20.1523 4.89453 19.1816 2.93945 17.2129C0.970703 15.2578 0 12.8789 0 10.0762ZM23.5156 16.1055V19.8789H21.5605V6.43945H23.5156V13.5762L30.2285 6.43945H32.6211L27.4395 11.8945L33.1816 19.8789H30.9395L26.1816 13.3027L23.5156 16.1055ZM38.6367 12.1816L43.8184 11.334C43.8184 10.3496 43.5039 9.54297 42.875 8.91406C42.2461 8.29883 41.4395 7.98438 40.4551 7.98438C39.7441 7.98438 39.0742 8.14844 38.4453 8.47656C37.8164 8.80469 37.3652 9.13281 37.0918 9.46094L36.668 9.93945L35.4102 8.68164C35.4648 8.61328 35.5332 8.51758 35.6289 8.4082C35.7246 8.29883 35.9297 8.09375 36.2578 7.80664C36.5859 7.51953 36.9277 7.25977 37.2832 7.02734C37.6387 6.80859 38.1035 6.60352 38.6777 6.42578C39.252 6.24805 39.8535 6.15234 40.4551 6.15234C41.9863 6.15234 43.2441 6.6582 44.2559 7.64258C45.2676 8.64062 45.7734 9.87109 45.7734 11.334V19.8789H43.8184V18.0605C43.7773 18.1152 43.7227 18.1973 43.6406 18.293C43.5586 18.3887 43.3945 18.5527 43.1211 18.7988C42.8477 19.0449 42.5605 19.25 42.2598 19.4414C41.9453 19.6328 41.5352 19.7969 41.0293 19.9336C40.5234 20.084 40.0039 20.1523 39.4707 20.1523C38.1309 20.1523 36.9961 19.7559 36.0801 18.9629C35.1641 18.1699 34.7129 17.2676 34.7129 16.2422C34.7129 15.1211 35.041 14.2188 35.7246 13.5352C36.3945 12.8516 37.3652 12.4004 38.6367 12.1816ZM39.4707 18.334C40.7285 18.334 41.7676 17.9238 42.5879 17.0898C43.4082 16.2695 43.8184 15.1895 43.8184 13.8633V13.0156L39.1973 13.8633C37.5156 14.1914 36.668 14.9844 36.668 16.2422C36.668 16.8438 36.9141 17.3496 37.4062 17.7461C37.8984 18.1426 38.5957 18.334 39.4707 18.334ZM58.9121 19.8789V14.4238C57.873 15.1758 56.6152 15.5449 55.1387 15.5449C53.6074 15.5449 52.3496 15.0664 51.3926 14.1094C50.4355 13.1523 49.957 11.8945 49.957 10.3633V6.43945H51.9121V10.3633C51.9121 11.334 52.2266 12.1406 52.8555 12.7695C53.4844 13.3984 54.291 13.7129 55.2754 13.7129C55.9453 13.7129 56.5879 13.6172 57.1895 13.4121C57.791 13.207 58.2285 12.9883 58.502 12.7695L58.9121 12.4551V6.43945H60.8809V19.8789H58.9121ZM68.3047 12.1816L73.4863 11.334C73.4863 10.3496 73.1719 9.54297 72.543 8.91406C71.9141 8.29883 71.1074 7.98438 70.123 7.98438C69.4121 7.98438 68.7422 8.14844 68.1133 8.47656C67.4844 8.80469 67.0332 9.13281 66.7598 9.46094L66.3359 9.93945L65.0781 8.68164C65.1328 8.61328 65.2012 8.51758 65.2969 8.4082C65.3926 8.29883 65.5977 8.09375 65.9258 7.80664C66.2539 7.51953 66.5957 7.25977 66.9512 7.02734C67.3066 6.80859 67.7715 6.60352 68.3457 6.42578C68.9199 6.24805 69.5215 6.15234 70.123 6.15234C71.6543 6.15234 72.9121 6.6582 73.9238 7.64258C74.9355 8.64062 75.4414 9.87109 75.4414 11.334V19.8789H73.4863V18.0605C73.4453 18.1152 73.3906 18.1973 73.3086 18.293C73.2266 18.3887 73.0625 18.5527 72.7891 18.7988C72.5156 19.0449 72.2285 19.25 71.9277 19.4414C71.6133 19.6328 71.2031 19.7969 70.6973 19.9336C70.1914 20.084 69.6719 20.1523 69.1387 20.1523C67.7988 20.1523 66.6641 19.7559 65.748 18.9629C64.832 18.1699 64.3809 17.2676 64.3809 16.2422C64.3809 15.1211 64.709 14.2188 65.3926 13.5352C66.0625 12.8516 67.0332 12.4004 68.3047 12.1816ZM69.1387 18.334C70.3965 18.334 71.4355 17.9238 72.2559 17.0898C73.0762 16.2695 73.4863 15.1895 73.4863 13.8633V13.0156L68.8652 13.8633C67.1836 14.1914 66.3359 14.9844 66.3359 16.2422C66.3359 16.8438 66.582 17.3496 67.0742 17.7461C67.5664 18.1426 68.2637 18.334 69.1387 18.334ZM78.2305 8.25781V6.43945H89.7012V8.25781H84.9434V19.8789H82.9883V8.25781H78.2305ZM94.4727 18.0605H98C98.875 18.0605 99.5723 17.8145 100.105 17.3223C100.639 16.8301 100.912 16.1875 100.912 15.3945C100.912 14.6152 100.639 13.9727 100.105 13.4805C99.5723 12.9883 98.8613 12.7422 97.9727 12.7422H94.4727V18.0605ZM102.867 15.4082C102.867 16.748 102.43 17.8281 101.568 18.6484C100.693 19.4688 99.5039 19.8789 98 19.8789H92.5176V6.43945H94.4727V10.9238H97.9727C99.4766 10.9238 100.68 11.334 101.555 12.1543C102.43 12.9746 102.867 14.0684 102.867 15.4082ZM113.668 16.1055V19.8789H111.713V6.43945H113.668V13.5762L120.381 6.43945H122.773L117.592 11.8945L123.334 19.8789H121.092L116.334 13.3027L113.668 16.1055ZM128.789 12.1816L133.971 11.334C133.971 10.3496 133.656 9.54297 133.027 8.91406C132.398 8.29883 131.592 7.98438 130.607 7.98438C129.896 7.98438 129.227 8.14844 128.598 8.47656C127.969 8.80469 127.518 9.13281 127.244 9.46094L126.82 9.93945L125.562 8.68164C125.617 8.61328 125.686 8.51758 125.781 8.4082C125.877 8.29883 126.082 8.09375 126.41 7.80664C126.738 7.51953 127.08 7.25977 127.436 7.02734C127.791 6.80859 128.256 6.60352 128.83 6.42578C129.404 6.24805 130.006 6.15234 130.607 6.15234C132.139 6.15234 133.396 6.6582 134.408 7.64258C135.42 8.64062 135.926 9.87109 135.926 11.334V19.8789H133.971V18.0605C133.93 18.1152 133.875 18.1973 133.793 18.293C133.711 18.3887 133.547 18.5527 133.273 18.7988C133 19.0449 132.713 19.25 132.412 19.4414C132.098 19.6328 131.688 19.7969 131.182 19.9336C130.676 20.084 130.156 20.1523 129.623 20.1523C128.283 20.1523 127.148 19.7559 126.232 18.9629C125.316 18.1699 124.865 17.2676 124.865 16.2422C124.865 15.1211 125.193 14.2188 125.877 13.5352C126.547 12.8516 127.518 12.4004 128.789 12.1816ZM129.623 18.334C130.881 18.334 131.92 17.9238 132.74 17.0898C133.561 16.2695 133.971 15.1895 133.971 13.8633V13.0156L129.35 13.8633C127.668 14.1914 126.82 14.9844 126.82 16.2422C126.82 16.8438 127.066 17.3496 127.559 17.7461C128.051 18.1426 128.748 18.334 129.623 18.334ZM138.715 8.25781V6.43945H150.186V8.25781H145.428V19.8789H143.473V8.25781H138.715ZM155.941 12.1816L161.123 11.334C161.123 10.3496 160.809 9.54297 160.18 8.91406C159.551 8.29883 158.744 7.98438 157.76 7.98438C157.049 7.98438 156.379 8.14844 155.75 8.47656C155.121 8.80469 154.67 9.13281 154.396 9.46094L153.973 9.93945L152.715 8.68164C152.77 8.61328 152.838 8.51758 152.934 8.4082C153.029 8.29883 153.234 8.09375 153.562 7.80664C153.891 7.51953 154.232 7.25977 154.588 7.02734C154.943 6.80859 155.408 6.60352 155.982 6.42578C156.557 6.24805 157.158 6.15234 157.76 6.15234C159.291 6.15234 160.549 6.6582 161.561 7.64258C162.572 8.64062 163.078 9.87109 163.078 11.334V19.8789H161.123V18.0605C161.082 18.1152 161.027 18.1973 160.945 18.293C160.863 18.3887 160.699 18.5527 160.426 18.7988C160.152 19.0449 159.865 19.25 159.564 19.4414C159.25 19.6328 158.84 19.7969 158.334 19.9336C157.828 20.084 157.309 20.1523 156.775 20.1523C155.436 20.1523 154.301 19.7559 153.385 18.9629C152.469 18.1699 152.018 17.2676 152.018 16.2422C152.018 15.1211 152.346 14.2188 153.029 13.5352C153.699 12.8516 154.67 12.4004 155.941 12.1816ZM156.775 18.334C158.033 18.334 159.072 17.9238 159.893 17.0898C160.713 16.2695 161.123 15.1895 161.123 13.8633V13.0156L156.502 13.8633C154.82 14.1914 153.973 14.9844 153.973 16.2422C153.973 16.8438 154.219 17.3496 154.711 17.7461C155.203 18.1426 155.9 18.334 156.775 18.334ZM168.943 6.43945L178.746 6.45312V19.8926H176.777V8.27148H170.898V10.377C170.898 12.3457 170.789 14 170.598 15.3125C170.406 16.625 170.105 17.6367 169.723 18.3203C169.326 19.0039 168.889 19.4824 168.424 19.7559C167.945 20.0293 167.371 20.166 166.701 20.166C166.469 20.166 166.236 20.1387 166.004 20.0977C165.771 20.043 165.607 20.002 165.498 19.9473L165.307 19.8926V17.9375C165.676 18.1152 166.045 18.2109 166.428 18.2109C167.002 18.2109 167.453 18.0469 167.781 17.7188C168.109 17.3906 168.383 16.625 168.602 15.4492C168.82 14.2598 168.943 12.5645 168.943 10.3633V6.43945ZM193.99 13.166C193.99 11.7168 193.498 10.4863 192.541 9.48828C191.584 8.49023 190.422 7.98438 189.082 7.98438C187.742 7.98438 186.58 8.49023 185.623 9.48828C184.666 10.4863 184.188 11.7031 184.188 13.1523C184.188 14.6016 184.666 15.8184 185.623 16.8301C186.58 17.8418 187.742 18.334 189.082 18.334C190.422 18.334 191.584 17.8418 192.541 16.8438C193.498 15.8457 193.99 14.6152 193.99 13.166ZM182.232 13.166C182.232 11.1973 182.889 9.54297 184.229 8.18945C185.568 6.83594 187.182 6.15234 189.096 6.15234C190.996 6.15234 192.609 6.83594 193.936 8.18945C195.275 9.54297 195.932 11.1973 195.932 13.166C195.932 15.1348 195.275 16.7891 193.936 18.1426C192.609 19.4824 190.996 20.166 189.096 20.166C187.182 20.166 185.568 19.4824 184.229 18.1426C182.889 16.7891 182.232 15.1348 182.232 13.166ZM208.414 6.43945V8.25781H201.414V19.8789H199.459V6.43945H208.414Z" fill="#111111"/>
<path d="M209.318 19.8789H215.16V17.8789H209.318V19.8789ZM221.079 19.8789H226.842V17.8789H221.079V19.8789ZM232.84 19.8789H238.525V17.8789H232.84V19.8789ZM244.601 19.8789H250.442V17.8789H244.327L244.601 19.8789ZM256.362 19.8789H261.851V17.8789H256.009L256.362 19.8789ZM268.123 19.8789H273.964V17.8789H267.692L268.123 19.8789ZM279.884 19.8789H285.725V17.8789H279.374L279.884 19.8789ZM291.645 19.8789H297.486V17.8789H291.057L291.645 19.8789ZM303.406 19.8789H309.247V17.8789H302.7L303.406 19.8789ZM315.167 19.8789H321.008V17.8789H314.383L315.167 19.8789ZM326.928 19.8789H332.769V17.8789H326.065L326.928 19.8789ZM338.689 19.8789H344.53V17.8789H337.748L338.689 19.8789ZM350.45 19.8789H356.291V17.8789H349.43L350.45 19.8789ZM362.211 19.8789H366.915V17.8789H361.113L362.211 19.8789ZM373.972 19.8789H379.813V17.8789H372.756L373.972 19.8789ZM385.733 19.8789H391.574V17.8789H384.439L385.733 19.8789ZM397.494 19.8789H403.335V17.8789H396.121L397.494 19.8789ZM409.254 19.8789H415.096V17.8789H407.804L409.254 19.8789ZM421.015 19.8789H426.817V17.8789H419.486L421.015 19.8789ZM432.776 19.8789H438.618V17.8789H431.13L432.776 19.8789ZM444.537 19.8789H450.379V17.8789H442.812L444.537 19.8789ZM456.298 19.8789H460.219V17.8789H454.495L456.298 19.8789ZM468.059 19.8789H471.98V17.8789H466.177L468.059 19.8789ZM479.82 19.8789H483.74V17.8789H477.86L479.82 19.8789ZM491.581 19.8789H495.501V17.8789H489.503L491.581 19.8789ZM503.342 19.8789H509.183V17.8789H501.186L503.342 19.8789ZM515.103 19.8789H520.944V17.8789H512.868L515.103 19.8789ZM526.864 19.8789H530.392V17.8789H524.551L526.864 19.8789ZM538.625 19.8789H544.466V17.8789H536.234L538.625 19.8789ZM550.386 19.8789H556.227V17.8789H547.877L550.386 19.8789ZM562.147 19.8789H567.988V17.8789H559.559L562.147 19.8789ZM573.908 19.8789H579.749V17.8789H571.242L573.908 19.8789ZM585.669 19.8789H591.51V17.8789H582.924L585.669 19.8789ZM597.43 19.8789H603.271V17.8789H594.607L597.43 19.8789ZM609.191 19.8789H614.993V17.8789H609.191V19.8789ZM620.952 19.8789H626.793V17.8789H620.952V19.8789ZM632.712 19.8789H638.554V17.8789H632.712V19.8789ZM644.473 19.8789H650.315V17.8789H644.473V19.8789ZM656.234 19.8789H662.076V17.8789H656.234V19.8789ZM667.995 19.8789H673.797V17.8789H667.995V19.8789ZM679.756 19.8789H685.598V17.8789H679.756V19.8789ZM691.517 19.8789H697.358V17.8789H687.989L691.517 19.8789ZM703.278 19.8789H709.119V17.8789H703.278V19.8789ZM715.039 19.8789H720.88V17.8789H715.039V19.8789ZM726.8 19.8789H732.641V17.8789H722.88L726.8 19.8789ZM738.561 19.8789H744.402V17.8789H734.641L738.561 19.8789ZM750.322 19.8789H756.163V17.8789H746.402L750.322 19.8789ZM762.083 19.8789H767.924V17.8789H758.163L762.083 19.8789ZM773.844 19.8789H779.685V17.8789H769.924L773.844 19.8789ZM785.605 19.8789H791.446V17.8789H785.605V19.8789ZM797.366 19.8789H803.207V17.8789H793.053L797.366 19.8789ZM809.127 19.8789H814.968V17.8789H809.127V19.8789ZM820.888 19.8789H826.729V17.8789H820.888V19.8789ZM832.649 19.8789H838.49V17.8789H832.649V19.8789ZM844.41 19.8789H850.251V17.8789H844.41V19.8789ZM856.17 19.8789H861.973V17.8789H851.466L856.17 19.8789ZM867.931 19.8789H873.773V17.8789H867.931V19.8789ZM879.692 19.8789H885.534V17.8789H879.692V19.8789ZM891.453 19.8789H897.295V17.8789H891.453V19.8789ZM903.214 19.8789H909.056V17.8789H903.214V19.8789ZM914.975 19.8789H920.777V17.8789H914.975V19.8789ZM926.736 19.8789H932.577V17.8789H926.736V19.8789ZM938.497 19.8789H944.338V17.8789H938.497V19.8789ZM950.258 19.8789H956.099V17.8789H950.258V19.8789ZM962.019 19.8789H967.86V17.8789H956.531L962.019 19.8789ZM973.78 19.8789H979.621V17.8789H973.78V19.8789ZM985.541 19.8789V17.8789H979.7L985.541 19.8789ZM997.302 19.8789V17.8789H991.461L997.302 19.8789ZM1009.06 19.8789V17.8789H1003.22L1009.06 19.8789ZM1020.82 19.8789V17.8789H1014.98L1020.82 19.8789ZM1032.58 19.8789V17.8789H1026.74L1032.58 19.8789ZM1044.35 19.8789H1050.15V17.8789H1044.35V19.8789ZM1056.11 19.8789H1061.95V17.8789H1056.11V19.8789ZM1067.87 19.8789H1073.71V17.8789H1061.6L1067.87 19.8789ZM1079.63 19.8789H1085.47V17.8789H1079.63V19.8789ZM1091.39 19.8789H1097.23V17.8789H1091.39V19.8789ZM1103.15 19.8789H1108.95V17.8789H1103.15V19.8789ZM1114.91 19.8789H1120.75V17.8789H1114.91V19.8789ZM1126.67 19.8789H1132.51V17.8789H1126.67V19.8789ZM1138.43 19.8789H1144.27V17.8789H1138.43V19.8789ZM1150.19 19.8789H1156.04V17.8789H1150.19V19.8789ZM1161.96 19.8789H1167.8V17.8789H1161.96V19.8789ZM1173.72 19.8789H1179.56V17.8789H1166.66L1173.72 19.8789ZM1185.48 19.8789H1191.32V17.8789H1185.48V19.8789Z" fill="#CDCCCC"/>
</svg>
