<svg width="229" height="169" viewBox="0 0 229 169" fill="none" xmlns="http://www.w3.org/2000/svg">
<path d="M11.9546 5.62729V0.5H217.155V5.62729" stroke="#848484" stroke-miterlimit="10" stroke-linecap="round" stroke-linejoin="round"/>
<path d="M6.82715 162.609V167.737H222.173V162.609" stroke="#848484" stroke-miterlimit="10" stroke-linecap="round" stroke-linejoin="round"/>
<path d="M223.918 10.0999H5.08154V158.027H223.918V10.0999Z" stroke="#232323" stroke-miterlimit="10" stroke-linecap="round" stroke-linejoin="round"/>
<path d="M101.845 22.8638H17.7363V145.373H101.845" stroke="#232323" stroke-miterlimit="10" stroke-linecap="round" stroke-linejoin="round"/>
<path d="M127.155 145.373H211.264V22.8638H127.155" stroke="#232323" stroke-miterlimit="10" stroke-linecap="round" stroke-linejoin="round"/>
<path d="M0.5 162.61H228.5V5.62769H0.5V162.61Z" stroke="#232323" stroke-miterlimit="10" stroke-linecap="round" stroke-linejoin="round"/>
<path d="M114.5 10.0999V158.136" stroke="#232323" stroke-miterlimit="10" stroke-linecap="round" stroke-linejoin="round"/>
<path d="M127.155 10.0999V158.136" stroke="#232323" stroke-miterlimit="10" stroke-linecap="round" stroke-linejoin="round"/>
<path d="M101.846 10.0999V158.136" stroke="#232323" stroke-miterlimit="10" stroke-linecap="round" stroke-linejoin="round"/>
<path d="M17.7363 22.8635V10.0999" stroke="#232323" stroke-miterlimit="10" stroke-linecap="round" stroke-linejoin="round"/>
<path d="M17.7363 145.373V158.136" stroke="#232323" stroke-miterlimit="10" stroke-linecap="round" stroke-linejoin="round"/>
<path d="M211.264 145.373V158.136" stroke="#232323" stroke-miterlimit="10" stroke-linecap="round" stroke-linejoin="round"/>
<path d="M211.264 22.8635V10.0999" stroke="#232323" stroke-miterlimit="10" stroke-linecap="round" stroke-linejoin="round"/>
<path d="M105.555 100.973V76.1C105.555 75.3364 106.209 74.5728 107.082 74.5728H109.373C110.137 74.5728 110.9 75.2273 110.9 76.1V100.973C110.9 101.736 110.246 102.5 109.373 102.5H107.082C106.209 102.5 105.555 101.845 105.555 100.973Z" stroke="#848484" stroke-miterlimit="10" stroke-linecap="round" stroke-linejoin="round"/>
<path d="M118.318 100.973V76.1C118.318 75.3364 118.973 74.5728 119.846 74.5728H122.137C122.9 74.5728 123.664 75.2273 123.664 76.1V100.973C123.664 101.736 123.009 102.5 122.137 102.5H119.846C118.973 102.5 118.318 101.845 118.318 100.973Z" stroke="#848484" stroke-miterlimit="10" stroke-linecap="round" stroke-linejoin="round"/>
</svg>
