<svg width="242" height="178" viewBox="0 0 242 178" fill="none" xmlns="http://www.w3.org/2000/svg">
<path d="M12.8076 6.14596V0.75H228.808V6.14596" fill="#F29D07" fill-opacity="0.4"/>
<path d="M12.8076 6.14596V0.75H228.808V6.14596" stroke="#232323" stroke-width="1.5" stroke-miterlimit="10" stroke-linecap="round" stroke-linejoin="round"/>
<path d="M7.41016 171.354V176.75H234.09V171.354" fill="#F29D07" fill-opacity="0.4"/>
<path d="M7.41016 171.354V176.75H234.09V171.354" stroke="#232323" stroke-width="1.5" stroke-miterlimit="10" stroke-linecap="round" stroke-linejoin="round"/>
<path d="M0.75 171.354H240.75V6.14624H0.75V171.354Z" fill="#F29D07" fill-opacity="0.4" stroke="#232323" stroke-width="1.5" stroke-miterlimit="10" stroke-linecap="round" stroke-linejoin="round"/>
<path d="M235.927 10.853H5.57275V166.532H235.927V10.853Z" stroke="#232323" stroke-width="1.5" stroke-miterlimit="10" stroke-linecap="round" stroke-linejoin="round"/>
<path d="M107.429 24.2856H18.8936V153.214H107.429" stroke="#232323" stroke-width="1.5" stroke-miterlimit="10" stroke-linecap="round" stroke-linejoin="round"/>
<path d="M134.071 153.214H222.607V24.2856H134.071" stroke="#232323" stroke-width="1.5" stroke-miterlimit="10" stroke-linecap="round" stroke-linejoin="round"/>
<path d="M120.75 10.853V166.647" stroke="#232323" stroke-width="1.5" stroke-miterlimit="10" stroke-linecap="round" stroke-linejoin="round"/>
<path d="M134.071 10.853V166.647" stroke="#232323" stroke-width="1.5" stroke-miterlimit="10" stroke-linecap="round" stroke-linejoin="round"/>
<path d="M107.43 10.853V166.647" stroke="#232323" stroke-width="1.5" stroke-miterlimit="10" stroke-linecap="round" stroke-linejoin="round"/>
<path d="M18.8936 24.2855V10.853" stroke="#232323" stroke-width="1.5" stroke-miterlimit="10" stroke-linecap="round" stroke-linejoin="round"/>
<path d="M18.8936 153.214V166.647" stroke="#232323" stroke-width="1.5" stroke-miterlimit="10" stroke-linecap="round" stroke-linejoin="round"/>
<path d="M222.606 153.214V166.647" stroke="#232323" stroke-width="1.5" stroke-miterlimit="10" stroke-linecap="round" stroke-linejoin="round"/>
<path d="M222.606 24.2855V10.853" stroke="#232323" stroke-width="1.5" stroke-miterlimit="10" stroke-linecap="round" stroke-linejoin="round"/>
<path d="M111.334 106.488V80.3114C111.334 79.5077 112.023 78.7041 112.942 78.7041H115.353C116.157 78.7041 116.961 79.3929 116.961 80.3114V106.488C116.961 107.291 116.272 108.095 115.353 108.095H112.942C112.023 108.095 111.334 107.406 111.334 106.488Z" stroke="#232323" stroke-miterlimit="10" stroke-linecap="round" stroke-linejoin="round"/>
<path d="M124.769 106.488V80.3114C124.769 79.5077 125.458 78.7041 126.377 78.7041H128.788C129.592 78.7041 130.396 79.3929 130.396 80.3114V106.488C130.396 107.291 129.707 108.095 128.788 108.095H126.377C125.458 108.095 124.769 107.406 124.769 106.488Z" stroke="#232323" stroke-miterlimit="10" stroke-linecap="round" stroke-linejoin="round"/>
</svg>
