<svg width="613" height="166" viewBox="0 0 613 166" fill="none" xmlns="http://www.w3.org/2000/svg">
<path opacity="0.5" d="M432.391 86.6895H356.591V88.7895H432.391V86.6895Z" fill="#D7D7D7" stroke="#3D3F3F" stroke-width="0.0584172" stroke-miterlimit="10"/>
<path opacity="0.5" d="M433.391 45.0898H355.591V48.8898H433.391V45.0898Z" fill="#D7D7D7" stroke="#3D3F3F" stroke-width="0.0584172" stroke-miterlimit="10"/>
<path d="M355.591 48.8898V45.0898" stroke="#C0C0BF" stroke-width="0.3884" stroke-miterlimit="10" stroke-linecap="round" stroke-linejoin="round"/>
<path d="M433.291 45.0898V48.8898" stroke="#C0C0BF" stroke-width="0.3884" stroke-miterlimit="10" stroke-linecap="round" stroke-linejoin="round"/>
<path d="M356.491 86.8906V88.7906H432.391V86.8906" stroke="#C0C0BF" stroke-width="0.3884" stroke-miterlimit="10" stroke-linecap="round" stroke-linejoin="round"/>
<circle cx="437.091" cy="41.2909" r="0.0292086" fill="#C0C0BF"/>
<circle cx="437.091" cy="45.0898" r="0.0292086" fill="#C0C0BF"/>
<circle cx="355.591" cy="45.0898" r="0.0292086" fill="#C0C0BF"/>
<circle cx="356.591" cy="48.8905" r="0.0292086" fill="#C0C0BF"/>
<circle cx="356.591" cy="48.8905" r="0.0292086" fill="#C0C0BF"/>
<path d="M434.29 48.8906H427.69H434.29Z" stroke="#5C5C5C" stroke-width="0.0584172" stroke-miterlimit="10" stroke-linecap="round" stroke-linejoin="round"/>
<path d="M351.791 48.791V86.691H437.091V48.791H351.791Z" stroke="#5C5C5C" stroke-width="0.5826" stroke-miterlimit="10" stroke-linecap="round" stroke-linejoin="round"/>
<path d="M433.391 52.5898H355.591V82.8898H433.391V52.5898Z" stroke="#5C5C5C" stroke-width="0.5826" stroke-miterlimit="10" stroke-linecap="round" stroke-linejoin="round"/>
<path d="M437.091 45.0898H355.591" stroke="#5C5C5C" stroke-width="0.5826" stroke-miterlimit="10" stroke-linecap="round" stroke-linejoin="round"/>
<path d="M355.591 45.091H351.791V41.291H437.091V45.091" stroke="#5C5C5C" stroke-width="0.5826" stroke-miterlimit="10" stroke-linecap="round" stroke-linejoin="round"/>
<path opacity="0.5" d="M608.391 26.6895H530.591V30.4895H608.391V26.6895Z" fill="#D7D7D7" stroke="#3D3F3F" stroke-width="0.0584172" stroke-miterlimit="10"/>
<path d="M530.591 30.4895V26.6895" stroke="#C0C0BF" stroke-width="0.3884" stroke-miterlimit="10" stroke-linecap="round" stroke-linejoin="round"/>
<path d="M608.391 26.6895V30.4895" stroke="#C0C0BF" stroke-width="0.3884" stroke-miterlimit="10" stroke-linecap="round" stroke-linejoin="round"/>
<circle cx="612.19" cy="22.8905" r="0.0292086" fill="#C0C0BF"/>
<circle cx="612.19" cy="26.6894" r="0.0292086" fill="#C0C0BF"/>
<circle cx="530.591" cy="26.6894" r="0.0292086" fill="#C0C0BF"/>
<path d="M612.191 26.6895H530.591" stroke="#5C5C5C" stroke-width="0.5826" stroke-miterlimit="10" stroke-linecap="round" stroke-linejoin="round"/>
<path d="M530.591 26.6906H526.891V22.8906H612.191V26.6906" stroke="#5C5C5C" stroke-width="0.5826" stroke-miterlimit="10" stroke-linecap="round" stroke-linejoin="round"/>
<path opacity="0.5" d="M79.0904 83.7902H6.29043C5.39043 83.7902 4.69043 83.0902 4.69043 82.1902V80.5902C4.69043 79.6902 5.39043 78.9902 6.29043 78.9902H79.0904C79.9904 78.9902 80.6904 79.6902 80.6904 80.5902V82.1902C80.6904 83.0902 79.9904 83.7902 79.0904 83.7902Z" fill="#D7D7D7" stroke="#3D3F3F" stroke-width="0.0584172" stroke-miterlimit="10"/>
<circle cx="351.791" cy="120.99" r="0.0878" fill="#848484"/>
<circle cx="356.491" cy="128.59" r="0.0878" fill="#848484"/>
<circle cx="351.791" cy="124.791" r="0.0878" fill="#848484"/>
<circle cx="351.791" cy="128.59" r="0.0878" fill="#848484"/>
<path d="M351.791 126.689V164.689H358.391V133.289H430.591V164.689H437.291" stroke="#5C5C5C" stroke-width="0.5826" stroke-miterlimit="10" stroke-linecap="round" stroke-linejoin="round"/>
<path d="M430.591 126.689H358.391" stroke="#5C5C5C" stroke-width="0.5826" stroke-miterlimit="10" stroke-linecap="round" stroke-linejoin="round"/>
<path d="M437.291 164.689V126.689" stroke="#5C5C5C" stroke-width="0.5826" stroke-miterlimit="10" stroke-linecap="round" stroke-linejoin="round"/>
<path d="M358.391 133.291V95.3906H430.591V133.291" stroke="#5C5C5C" stroke-width="0.5826" stroke-miterlimit="10" stroke-linecap="round" stroke-linejoin="round"/>
<path d="M437.291 126.791V88.791H351.791V126.791" stroke="#5C5C5C" stroke-width="0.5826" stroke-miterlimit="10" stroke-linecap="round" stroke-linejoin="round"/>
<path d="M358.391 95.391V88.791" stroke="#5C5C5C" stroke-width="0.5826" stroke-miterlimit="10" stroke-linecap="round" stroke-linejoin="round"/>
<path d="M430.591 95.391V88.791" stroke="#5C5C5C" stroke-width="0.5826" stroke-miterlimit="10" stroke-linecap="round" stroke-linejoin="round"/>
<circle cx="358.391" cy="133.291" r="0.0878" fill="#C0C0BF"/>
<circle cx="430.591" cy="133.291" r="0.0878" fill="#C0C0BF"/>
<g opacity="0.5">
<path d="M257.691 45.8906H180.391V49.6906H257.691V45.8906Z" fill="#D7D7D7"/>
</g>
<path d="M180.291 49.6906V45.8906" stroke="#C0C0BF" stroke-width="0.3884" stroke-miterlimit="10" stroke-linecap="round" stroke-linejoin="round"/>
<path d="M257.69 49.6906V45.8906" stroke="#C0C0BF" stroke-width="0.3884" stroke-miterlimit="10" stroke-linecap="round" stroke-linejoin="round"/>
<path d="M177.291 49.791V87.491H262.091V49.791H177.291Z" stroke="#5C5C5C" stroke-width="0.5826" stroke-miterlimit="10" stroke-linecap="round" stroke-linejoin="round"/>
<path d="M258.291 53.5898H180.991V83.7898H258.291V53.5898Z" stroke="#5C5C5C" stroke-width="0.5826" stroke-miterlimit="10" stroke-linecap="round" stroke-linejoin="round"/>
<path d="M225.691 60.3898H212.091C211.791 60.3898 211.491 60.0898 211.491 59.7898V58.1898C211.491 57.8898 211.791 57.5898 212.091 57.5898H225.691C225.991 57.5898 226.291 57.8898 226.291 58.1898V59.7898C226.291 60.0898 225.991 60.3898 225.691 60.3898Z" fill="#C0C0BF"/>
<path d="M225.791 60.3898H212.191C211.891 60.3898 211.591 60.0898 211.591 59.7898V58.1898C211.591 57.8898 211.891 57.5898 212.191 57.5898H225.791C226.091 57.5898 226.391 57.8898 226.391 58.1898V59.7898C226.391 60.0898 226.091 60.3898 225.791 60.3898Z" stroke="#5C5C5C" stroke-width="0.5826" stroke-miterlimit="10" stroke-linecap="round" stroke-linejoin="round"/>
<g opacity="0.5">
<path d="M81.6906 87.6895H4.39062V89.5895H81.6906V87.6895Z" fill="#D7D7D7"/>
</g>
<circle cx="13.1903" cy="116.391" r="0.0292086" fill="#C0C0BF"/>
<circle cx="13.1903" cy="116.391" r="0.0292086" fill="#C0C0BF"/>
<circle cx="19.7909" cy="116.49" r="0.0292086" fill="#C0C0BF"/>
<circle cx="13.1903" cy="116.49" r="0.0292086" fill="#C0C0BF"/>
<circle cx="0.290925" cy="121.791" r="0.0878" fill="#848484"/>
<circle cx="4.99112" cy="129.391" r="0.0878" fill="#848484"/>
<circle cx="0.290925" cy="125.59" r="0.0878" fill="#848484"/>
<circle cx="0.290925" cy="129.391" r="0.0878" fill="#848484"/>
<path d="M0.291016 127.49V165.49H6.89102V134.19H79.091V165.49H85.791" stroke="#5C5C5C" stroke-width="0.5826" stroke-miterlimit="10" stroke-linecap="round" stroke-linejoin="round"/>
<path d="M79.0906 127.49H6.89062" stroke="#5C5C5C" stroke-width="0.5826" stroke-miterlimit="10" stroke-linecap="round" stroke-linejoin="round"/>
<path d="M85.791 165.49V127.49" stroke="#5C5C5C" stroke-width="0.5826" stroke-miterlimit="10" stroke-linecap="round" stroke-linejoin="round"/>
<path d="M6.89062 96.2898V89.5898" stroke="#5C5C5C" stroke-width="0.5826" stroke-miterlimit="10" stroke-linecap="round" stroke-linejoin="round"/>
<path d="M79.0908 96.2898V89.5898" stroke="#5C5C5C" stroke-width="0.5826" stroke-miterlimit="10" stroke-linecap="round" stroke-linejoin="round"/>
<circle cx="6.89053" cy="134.189" r="0.0878" fill="#C0C0BF"/>
<circle cx="79.0907" cy="134.189" r="0.0878" fill="#C0C0BF"/>
<path d="M4.19043 89.5902V87.9902" stroke="#C0C0BF" stroke-width="0.3884" stroke-miterlimit="10" stroke-linecap="round" stroke-linejoin="round"/>
<path d="M81.5908 89.5902V87.9902" stroke="#C0C0BF" stroke-width="0.3884" stroke-miterlimit="10" stroke-linecap="round" stroke-linejoin="round"/>
<path d="M85.191 87.6902H0.291016V83.9902H85.191V87.6902Z" stroke="#5C5C5C" stroke-width="0.5826" stroke-miterlimit="10" stroke-linecap="round" stroke-linejoin="round"/>
<path d="M6.89062 134.189V96.2891H79.0906V134.189" stroke="#5C5C5C" stroke-width="0.5826" stroke-miterlimit="10" stroke-linecap="round" stroke-linejoin="round"/>
<path d="M85.791 127.59V89.5898H0.291016V127.59" stroke="#5C5C5C" stroke-width="0.5826" stroke-miterlimit="10" stroke-linecap="round" stroke-linejoin="round"/>
<g opacity="0.5">
<path d="M258.091 87.4902H180.791V89.3902H258.091V87.4902Z" fill="#D7D7D7"/>
</g>
<circle cx="189.591" cy="116.189" r="0.0292086" fill="#C0C0BF"/>
<circle cx="189.591" cy="116.189" r="0.0292086" fill="#C0C0BF"/>
<circle cx="196.19" cy="116.291" r="0.0292086" fill="#C0C0BF"/>
<circle cx="189.591" cy="116.291" r="0.0292086" fill="#C0C0BF"/>
<circle cx="176.69" cy="121.59" r="0.0878" fill="#848484"/>
<circle cx="181.391" cy="129.189" r="0.0878" fill="#848484"/>
<circle cx="176.69" cy="125.391" r="0.0878" fill="#848484"/>
<circle cx="176.69" cy="129.189" r="0.0878" fill="#848484"/>
<path d="M176.69 127.291V165.291H183.29V133.891H255.49V165.291H262.19" stroke="#5C5C5C" stroke-width="0.5826" stroke-miterlimit="10" stroke-linecap="round" stroke-linejoin="round"/>
<path d="M255.49 127.291H183.29" stroke="#5C5C5C" stroke-width="0.5826" stroke-miterlimit="10" stroke-linecap="round" stroke-linejoin="round"/>
<path d="M262.19 165.291V127.291" stroke="#5C5C5C" stroke-width="0.5826" stroke-miterlimit="10" stroke-linecap="round" stroke-linejoin="round"/>
<path d="M183.291 96.0906V89.3906" stroke="#5C5C5C" stroke-width="0.5826" stroke-miterlimit="10" stroke-linecap="round" stroke-linejoin="round"/>
<path d="M255.491 96.0906V89.3906" stroke="#5C5C5C" stroke-width="0.5826" stroke-miterlimit="10" stroke-linecap="round" stroke-linejoin="round"/>
<circle cx="183.291" cy="133.891" r="0.0878" fill="#C0C0BF"/>
<circle cx="255.491" cy="133.891" r="0.0878" fill="#C0C0BF"/>
<path d="M180.591 89.3895V87.6895" stroke="#C0C0BF" stroke-width="0.3884" stroke-miterlimit="10" stroke-linecap="round" stroke-linejoin="round"/>
<path d="M257.991 89.3895V87.6895" stroke="#C0C0BF" stroke-width="0.3884" stroke-miterlimit="10" stroke-linecap="round" stroke-linejoin="round"/>
<path d="M183.29 133.89V96.0898H255.49V133.89" stroke="#5C5C5C" stroke-width="0.5826" stroke-miterlimit="10" stroke-linecap="round" stroke-linejoin="round"/>
<path d="M262.19 127.391V89.3906H176.69V127.391" stroke="#5C5C5C" stroke-width="0.5826" stroke-miterlimit="10" stroke-linecap="round" stroke-linejoin="round"/>
<g opacity="0.5">
<path d="M608.49 87.1895H531.19V89.0895H608.49V87.1895Z" fill="#D7D7D7"/>
</g>
<circle cx="539.991" cy="115.791" r="0.0292086" fill="#C0C0BF"/>
<circle cx="539.991" cy="115.791" r="0.0292086" fill="#C0C0BF"/>
<circle cx="546.69" cy="115.891" r="0.0292086" fill="#C0C0BF"/>
<circle cx="539.991" cy="115.891" r="0.0292086" fill="#C0C0BF"/>
<circle cx="527.091" cy="121.291" r="0.0878" fill="#848484"/>
<circle cx="531.891" cy="128.891" r="0.0878" fill="#848484"/>
<circle cx="527.091" cy="125.09" r="0.0878" fill="#848484"/>
<circle cx="527.091" cy="128.891" r="0.0878" fill="#848484"/>
<path d="M527.091 126.99V164.99H533.791V133.59H605.991V164.99H612.591" stroke="#5C5C5C" stroke-width="0.5826" stroke-miterlimit="10" stroke-linecap="round" stroke-linejoin="round"/>
<path d="M605.991 126.99H533.791" stroke="#5C5C5C" stroke-width="0.5826" stroke-miterlimit="10" stroke-linecap="round" stroke-linejoin="round"/>
<path d="M612.591 164.99V126.99" stroke="#5C5C5C" stroke-width="0.5826" stroke-miterlimit="10" stroke-linecap="round" stroke-linejoin="round"/>
<path d="M533.791 95.6898V89.0898" stroke="#5C5C5C" stroke-width="0.5826" stroke-miterlimit="10" stroke-linecap="round" stroke-linejoin="round"/>
<path d="M605.991 95.6898V89.0898" stroke="#5C5C5C" stroke-width="0.5826" stroke-miterlimit="10" stroke-linecap="round" stroke-linejoin="round"/>
<circle cx="533.791" cy="133.59" r="0.0878" fill="#C0C0BF"/>
<circle cx="605.991" cy="133.59" r="0.0878" fill="#C0C0BF"/>
<path d="M531.091 89.0906V87.3906" stroke="#C0C0BF" stroke-width="0.3884" stroke-miterlimit="10" stroke-linecap="round" stroke-linejoin="round"/>
<path d="M608.491 89.0906V87.3906" stroke="#C0C0BF" stroke-width="0.3884" stroke-miterlimit="10" stroke-linecap="round" stroke-linejoin="round"/>
<path d="M533.791 133.589V95.6895H605.991V133.589" stroke="#5C5C5C" stroke-width="0.5826" stroke-miterlimit="10" stroke-linecap="round" stroke-linejoin="round"/>
<path d="M612.591 127.09V89.0898H527.091V127.09" stroke="#5C5C5C" stroke-width="0.5826" stroke-miterlimit="10" stroke-linecap="round" stroke-linejoin="round"/>
<path opacity="0.5" d="M258.591 4.08984H180.791V7.88984H258.591V4.08984Z" fill="#D7D7D7" stroke="#3D3F3F" stroke-width="0.0584172" stroke-miterlimit="10"/>
<path d="M180.791 7.88984V4.08984" stroke="#C0C0BF" stroke-width="0.3884" stroke-miterlimit="10" stroke-linecap="round" stroke-linejoin="round"/>
<path d="M258.591 4.08984V7.88984" stroke="#C0C0BF" stroke-width="0.3884" stroke-miterlimit="10" stroke-linecap="round" stroke-linejoin="round"/>
<circle cx="262.291" cy="0.290927" r="0.0292086" fill="#C0C0BF"/>
<circle cx="262.291" cy="4.08976" r="0.0292086" fill="#C0C0BF"/>
<circle cx="180.791" cy="4.08976" r="0.0292086" fill="#C0C0BF"/>
<circle cx="181.791" cy="7.89054" r="0.0292086" fill="#C0C0BF"/>
<circle cx="181.791" cy="7.89054" r="0.0292086" fill="#C0C0BF"/>
<path d="M259.591 7.89062H252.891H259.591Z" stroke="#5C5C5C" stroke-width="0.0584172" stroke-miterlimit="10" stroke-linecap="round" stroke-linejoin="round"/>
<path d="M176.991 7.79102V45.691H262.291V7.79102H176.991Z" stroke="#5C5C5C" stroke-width="0.5826" stroke-miterlimit="10" stroke-linecap="round" stroke-linejoin="round"/>
<path d="M258.591 11.5898H180.791V41.8898H258.591V11.5898Z" stroke="#5C5C5C" stroke-width="0.5826" stroke-miterlimit="10" stroke-linecap="round" stroke-linejoin="round"/>
<path d="M262.291 4.08984H180.791" stroke="#5C5C5C" stroke-width="0.5826" stroke-miterlimit="10" stroke-linecap="round" stroke-linejoin="round"/>
<path d="M180.791 4.09102H176.991V0.291016H262.291V4.09102" stroke="#5C5C5C" stroke-width="0.5826" stroke-miterlimit="10" stroke-linecap="round" stroke-linejoin="round"/>
<path d="M527.091 30.6895V87.3895H611.891V30.6895H527.091Z" stroke="#5C5C5C" stroke-width="0.7146" stroke-miterlimit="10" stroke-linecap="round" stroke-linejoin="round"/>
<path d="M608.191 34.1895H530.891V83.6894H608.191V34.1895Z" stroke="#5C5C5C" stroke-width="0.7461" stroke-miterlimit="10" stroke-linecap="round" stroke-linejoin="round"/>
<path d="M540.491 65.8898V52.1898C540.491 51.8898 540.191 51.5898 539.891 51.5898H538.191C537.891 51.5898 537.591 51.8898 537.591 52.1898V58.9898V65.7898C537.591 66.0898 537.891 66.3898 538.191 66.3898H539.891C540.291 66.4898 540.491 66.1898 540.491 65.8898Z" fill="#C0C0BF" stroke="#5C5C5C" stroke-width="0.5826" stroke-miterlimit="10" stroke-linecap="round" stroke-linejoin="round"/>
</svg>
