<svg width="142" height="77" viewBox="0 0 142 77" fill="none" xmlns="http://www.w3.org/2000/svg">
<path d="M132.846 69.5564V75.7503H8.52026V69.5564" fill="#F29D07" fill-opacity="0.4"/>
<path d="M132.846 69.5564V75.7503H8.52026V69.5564" stroke="#232323" stroke-width="1.5" stroke-miterlimit="10" stroke-linecap="round" stroke-linejoin="round"/>
<path d="M121.994 0.75H19.3721V6.94395H121.994V0.75Z" fill="#F29D07" fill-opacity="0.4" stroke="#232323" stroke-width="1.5" stroke-miterlimit="10" stroke-linecap="round" stroke-linejoin="round"/>
<path d="M0.75 6.94434V69.5566H140.75V6.94434H0.75Z" fill="#F29D07" fill-opacity="0.4" stroke="#232323" stroke-width="1.5" stroke-miterlimit="10" stroke-linecap="round" stroke-linejoin="round"/>
<path d="M134.989 12.5994H6.24292V63.901H134.989V12.5994Z" stroke="#232323" stroke-width="1.5" stroke-miterlimit="10" stroke-linecap="round" stroke-linejoin="round"/>
<path d="M85.9557 30.3734H55.4103C54.4725 30.3734 53.5347 29.5656 53.5347 28.4884V25.6607C53.5347 24.7181 54.3385 23.7756 55.4103 23.7756H85.9557C86.8935 23.7756 87.8313 24.5835 87.8313 25.6607V28.4884C87.8313 29.5656 87.0275 30.3734 85.9557 30.3734Z" stroke="#232323" stroke-miterlimit="10" stroke-linecap="round" stroke-linejoin="round"/>
</svg>
