<svg width="235" height="344" viewBox="0 0 235 344" fill="none" xmlns="http://www.w3.org/2000/svg">
<path d="M6.99365 338.064V343.215H228.006V338.064" stroke="#848484" stroke-miterlimit="10" stroke-linecap="round" stroke-linejoin="round"/>
<path d="M11.4722 333.362V0.5H20.5411V333.362H11.4722Z" stroke="#232323" stroke-miterlimit="10" stroke-linecap="round" stroke-linejoin="round"/>
<path d="M227.222 333.362V0.5H218.154V333.362" stroke="#232323" stroke-miterlimit="10" stroke-linecap="round" stroke-linejoin="round"/>
<path d="M20.541 252.973H218.153V256.108H20.541V252.973Z" stroke="#232323" stroke-miterlimit="10" stroke-linecap="round" stroke-linejoin="round"/>
<path d="M0.5 333.362H234.5V338.064H0.5V333.362Z" stroke="#232323" stroke-miterlimit="10" stroke-linecap="round" stroke-linejoin="round"/>
<path d="M20.541 172.697H218.153V175.832H20.541V172.697Z" stroke="#232323" stroke-miterlimit="10" stroke-linecap="round" stroke-linejoin="round"/>
<path d="M218.153 175.832H20.541" stroke="#232323" stroke-miterlimit="10" stroke-linecap="round" stroke-linejoin="round"/>
<path d="M218.153 261.371H20.541" stroke="#848484" stroke-miterlimit="10" stroke-linecap="round" stroke-linejoin="round"/>
<path d="M218.153 180.982H20.541" stroke="#848484" stroke-miterlimit="10" stroke-linecap="round" stroke-linejoin="round"/>
<path d="M20.541 92.3083H218.153V95.4433H20.541V92.3083Z" stroke="#232323" stroke-miterlimit="10" stroke-linecap="round" stroke-linejoin="round"/>
<path d="M218.153 95.4436H20.541" stroke="#232323" stroke-miterlimit="10" stroke-linecap="round" stroke-linejoin="round"/>
<path d="M218.153 100.594L20.541 100.706" stroke="#848484" stroke-miterlimit="10" stroke-linecap="round" stroke-linejoin="round"/>
<path d="M20.541 12.032H218.153V15.1668H20.541V12.032Z" stroke="#232323" stroke-miterlimit="10" stroke-linecap="round" stroke-linejoin="round"/>
<path d="M218.153 15.1672H20.541" stroke="#232323" stroke-miterlimit="10" stroke-linecap="round" stroke-linejoin="round"/>
<path d="M218.153 20.3174H20.541" stroke="#848484" stroke-miterlimit="10" stroke-linecap="round" stroke-linejoin="round"/>
</svg>
