<svg width="252" height="368" viewBox="0 0 252 368" fill="none" xmlns="http://www.w3.org/2000/svg">
<path d="M22.75 16.7502H232.75V21.7502H22.75V16.7502Z" fill="#F29D07" fill-opacity="0.4"/>
<path d="M22.75 102.75H232.75V107.75H22.75V102.75Z" fill="#F29D07" fill-opacity="0.4"/>
<path d="M22.75 188.75H232.75V193.75H22.75V188.75Z" fill="#F29D07" fill-opacity="0.4"/>
<path d="M22.75 273.75H232.75V278.75H22.75V273.75Z" fill="#F29D07" fill-opacity="0.4"/>
<path d="M7.68799 361.25V366.75H243.812V361.25" fill="#F29D07" fill-opacity="0.4"/>
<path d="M7.68799 361.25V366.75H243.812V361.25" stroke="#232323" stroke-width="1.5" stroke-miterlimit="10" stroke-linecap="round" stroke-linejoin="round"/>
<path d="M12.4727 356.229V0.75H22.1617V356.229H12.4727Z" fill="#F29D07" fill-opacity="0.4" stroke="#232323" stroke-width="1.5" stroke-miterlimit="10" stroke-linecap="round" stroke-linejoin="round"/>
<path d="M242.975 356.229V0.75H233.286V356.229" fill="#F29D07" fill-opacity="0.4"/>
<path d="M242.975 356.229V0.75H233.286V356.229" stroke="#232323" stroke-width="1.5" stroke-miterlimit="10" stroke-linecap="round" stroke-linejoin="round"/>
<path d="M22.1616 270.378H233.286V273.726H22.1616V270.378Z" fill="#F29D07" fill-opacity="0.4" stroke="#232323" stroke-width="1.5" stroke-miterlimit="10" stroke-linecap="round" stroke-linejoin="round"/>
<path d="M0.75 356.228H250.75V361.25H0.75V356.228Z" fill="#F29D07" fill-opacity="0.4" stroke="#232323" stroke-width="1.5" stroke-miterlimit="10" stroke-linecap="round" stroke-linejoin="round"/>
<path d="M22.1616 184.647H233.286V187.995H22.1616V184.647Z" fill="#F29D07" fill-opacity="0.4" stroke="#232323" stroke-width="1.5" stroke-miterlimit="10" stroke-linecap="round" stroke-linejoin="round"/>
<path d="M233.286 187.995H22.1616" stroke="#232323" stroke-width="1.5" stroke-miterlimit="10" stroke-linecap="round" stroke-linejoin="round"/>
<path d="M233.286 279.345H22.1616" stroke="#232323" stroke-width="1.5" stroke-miterlimit="10" stroke-linecap="round" stroke-linejoin="round"/>
<path d="M233.286 193.495H22.1616" stroke="#232323" stroke-width="1.5" stroke-miterlimit="10" stroke-linecap="round" stroke-linejoin="round"/>
<path d="M22.1616 98.7964H233.286V102.144H22.1616V98.7964Z" fill="#F29D07" fill-opacity="0.4" stroke="#232323" stroke-width="1.5" stroke-miterlimit="10" stroke-linecap="round" stroke-linejoin="round"/>
<path d="M233.286 102.145H22.1616" stroke="#232323" stroke-width="1.5" stroke-miterlimit="10" stroke-linecap="round" stroke-linejoin="round"/>
<path d="M233.286 107.645L22.1616 107.764" stroke="#232323" stroke-width="1.5" stroke-miterlimit="10" stroke-linecap="round" stroke-linejoin="round"/>
<path d="M22.1616 13.0654H233.286V16.4133H22.1616V13.0654Z" fill="#F29D07" fill-opacity="0.4" stroke="#232323" stroke-width="1.5" stroke-miterlimit="10" stroke-linecap="round" stroke-linejoin="round"/>
<path d="M233.286 16.4138H22.1616" stroke="#232323" stroke-width="1.5" stroke-miterlimit="10" stroke-linecap="round" stroke-linejoin="round"/>
<path d="M233.286 21.9138H22.1616" stroke="#232323" stroke-width="1.5" stroke-miterlimit="10" stroke-linecap="round" stroke-linejoin="round"/>
</svg>
