<svg width="969" height="262" viewBox="0 0 969 262" fill="none" xmlns="http://www.w3.org/2000/svg">
<path d="M5.55859 221.457V223.857H165.459V221.457" stroke="#C0C0BF" stroke-width="0.385" stroke-miterlimit="10" stroke-linecap="round" stroke-linejoin="round"/>
<path opacity="0.5" d="M166.059 221.557H5.95898V223.757H166.059V221.557Z" fill="#D7D7D7"/>
<path d="M165.958 221.857H5.8584V223.757H165.958V221.857Z" stroke="#C0C0BF" stroke-width="0.2723" stroke-miterlimit="10" stroke-linecap="round" stroke-linejoin="round"/>
<path opacity="0.5" d="M164.958 100.557H90.1582V104.557H164.958V100.557Z" fill="#D7D7D7"/>
<path opacity="0.5" d="M80.1588 100.557H5.25879V104.557H80.1588V100.557Z" fill="#D7D7D7"/>
<path d="M90.0586 100.557V104.557H164.959V100.857" stroke="#C0C0BF" stroke-width="0.385" stroke-miterlimit="10" stroke-linecap="round" stroke-linejoin="round"/>
<path d="M5.25879 100.857V104.557H80.1588V100.557" stroke="#C0C0BF" stroke-width="0.385" stroke-miterlimit="10" stroke-linecap="round" stroke-linejoin="round"/>
<path opacity="0.5" d="M166.158 160.857H91.3584V164.857H166.158V160.857Z" fill="#D7D7D7"/>
<path opacity="0.5" d="M81.4586 160.758H6.55859V164.758H81.4586V160.758Z" fill="#D7D7D7"/>
<path d="M91.3584 160.857V164.857H166.258V161.057" stroke="#C0C0BF" stroke-width="0.385" stroke-miterlimit="10" stroke-linecap="round" stroke-linejoin="round"/>
<path d="M6.55859 161.057V164.857H81.4586V160.857" stroke="#C0C0BF" stroke-width="0.385" stroke-miterlimit="10" stroke-linecap="round" stroke-linejoin="round"/>
<path d="M170.458 261.458V223.758H1.1582V261.458H7.75821V230.358H163.858V261.458H170.458Z" stroke="#5C5C5C" stroke-width="0.5776" stroke-miterlimit="10" stroke-linecap="round" stroke-linejoin="round"/>
<path d="M4.95898 100.557H164.559" stroke="#5C5C5C" stroke-width="0.5178" stroke-miterlimit="10" stroke-linecap="round" stroke-linejoin="round"/>
<path d="M4.95879 100.558H0.258789V96.7578H169.259V100.558H164.559" stroke="#5C5C5C" stroke-width="0.5178" stroke-miterlimit="10" stroke-linecap="round" stroke-linejoin="round"/>
<circle cx="4.95812" cy="100.558" r="0.2589" fill="#5C5C5C"/>
<path d="M7.75879 230.357V223.857" stroke="#5C5C5C" stroke-width="0.5776" stroke-miterlimit="10" stroke-linecap="round" stroke-linejoin="round"/>
<path d="M163.858 230.357V223.857" stroke="#5C5C5C" stroke-width="0.5776" stroke-miterlimit="10" stroke-linecap="round" stroke-linejoin="round"/>
<path d="M85.8584 168.357V217.057" stroke="#5C5C5C" stroke-width="0.5776" stroke-miterlimit="10" stroke-linecap="round" stroke-linejoin="round"/>
<path d="M166.758 168.357H4.1582V217.957H166.758V168.357Z" stroke="#5C5C5C" stroke-width="0.5776" stroke-miterlimit="10" stroke-linecap="round" stroke-linejoin="round"/>
<path d="M0.858398 221.457V165.057H170.158V221.457H0.858398Z" stroke="#5C5C5C" stroke-width="0.5776" stroke-miterlimit="10" stroke-linecap="round" stroke-linejoin="round"/>
<path d="M89.459 199.957V186.457C89.459 186.157 89.759 185.857 90.059 185.857H91.659C91.959 185.857 92.259 186.157 92.259 186.457V199.957C92.259 200.257 91.959 200.557 91.659 200.557H90.059C89.759 200.557 89.459 200.257 89.459 199.957Z" fill="#C0C0BF" stroke="#5C5C5C" stroke-width="0.5776" stroke-miterlimit="10" stroke-linecap="round" stroke-linejoin="round"/>
<path d="M79.7588 199.858V186.358C79.7588 186.058 80.0588 185.758 80.3588 185.758H81.9588C82.2588 185.758 82.5588 186.058 82.5588 186.358V199.858C82.5588 200.158 82.2588 200.458 81.9588 200.458H80.3588C80.0588 200.458 79.7588 200.258 79.7588 199.858Z" fill="#C0C0BF" stroke="#5C5C5C" stroke-width="0.5776" stroke-miterlimit="10" stroke-linecap="round" stroke-linejoin="round"/>
<path d="M0.658203 104.557V160.857H84.7582V104.557H0.658203Z" stroke="#5C5C5C" stroke-width="0.7084" stroke-miterlimit="10" stroke-linecap="round" stroke-linejoin="round"/>
<path d="M81.059 108.057H4.45898V157.057H81.059V108.057Z" stroke="#5C5C5C" stroke-width="0.7397" stroke-miterlimit="10" stroke-linecap="round" stroke-linejoin="round"/>
<path d="M85.459 104.557V160.857H169.559V104.557H85.459Z" stroke="#5C5C5C" stroke-width="0.7084" stroke-miterlimit="10" stroke-linecap="round" stroke-linejoin="round"/>
<path d="M165.859 108.057H89.2588V157.057H165.859V108.057Z" stroke="#5C5C5C" stroke-width="0.7397" stroke-miterlimit="10" stroke-linecap="round" stroke-linejoin="round"/>
<path d="M71.7588 142.157V128.657C71.7588 128.357 72.0588 128.057 72.3588 128.057H73.9588C74.2588 128.057 74.5588 128.357 74.5588 128.657V142.157C74.5588 142.457 74.2588 142.757 73.9588 142.757H72.3588C71.9588 142.757 71.7588 142.457 71.7588 142.157Z" fill="#C0C0BF" stroke="#5C5C5C" stroke-width="0.5776" stroke-miterlimit="10" stroke-linecap="round" stroke-linejoin="round"/>
<path d="M97.9582 142.157V128.657C97.9582 128.357 97.6582 128.057 97.3582 128.057H95.7582C95.4582 128.057 95.1582 128.357 95.1582 128.657V142.157C95.1582 142.457 95.4582 142.757 95.7582 142.757H97.3582C97.7582 142.757 97.9582 142.457 97.9582 142.157Z" stroke="#5C5C5C" stroke-width="0.5776" stroke-miterlimit="10" stroke-linecap="round" stroke-linejoin="round"/>
<path opacity="0.5" d="M453.358 127.257L376.858 127.757V123.957H453.358V127.257Z" fill="#D7D7D7"/>
<path opacity="0.5" d="M368.959 127.556H291.259V124.156H368.959V127.556Z" fill="#D7D7D7"/>
<path d="M376.858 124.156V127.456" stroke="#C0C0BF" stroke-width="0.3844" stroke-miterlimit="10" stroke-linecap="round" stroke-linejoin="round"/>
<path d="M368.959 124.156V127.756" stroke="#C0C0BF" stroke-width="0.3844" stroke-miterlimit="10" stroke-linecap="round" stroke-linejoin="round"/>
<path d="M453.358 124.156V127.456" stroke="#C0C0BF" stroke-width="0.3844" stroke-miterlimit="10" stroke-linecap="round" stroke-linejoin="round"/>
<path d="M291.259 124.057V127.657" stroke="#C0C0BF" stroke-width="0.3844" stroke-miterlimit="10" stroke-linecap="round" stroke-linejoin="round"/>
<path opacity="0.5" d="M454.259 7.45664L377.759 7.35664V3.55664H454.259V7.45664Z" fill="#D7D7D7"/>
<path d="M377.659 3.65625V7.35625" stroke="#C0C0BF" stroke-width="0.3844" stroke-miterlimit="10" stroke-linecap="round" stroke-linejoin="round"/>
<path d="M453.859 3.75586V7.55586" stroke="#C0C0BF" stroke-width="0.3844" stroke-miterlimit="10" stroke-linecap="round" stroke-linejoin="round"/>
<path opacity="0.5" d="M369.159 7.85742L292.559 7.75742V3.85742H369.159V7.85742Z" fill="#D7D7D7"/>
<path d="M292.459 3.95703V7.35703" stroke="#C0C0BF" stroke-width="0.3844" stroke-miterlimit="10" stroke-linecap="round" stroke-linejoin="round"/>
<path d="M369.159 3.65625V7.85625" stroke="#C0C0BF" stroke-width="0.3844" stroke-miterlimit="10" stroke-linecap="round" stroke-linejoin="round"/>
<path d="M454.559 11.0566H292.259V120.757H454.559V11.0566Z" stroke="#5C5C5C" stroke-width="0.5766" stroke-miterlimit="10" stroke-linecap="round" stroke-linejoin="round"/>
<path d="M363.959 20.457H301.559V111.457H363.959" stroke="#5C5C5C" stroke-width="0.5766" stroke-miterlimit="10" stroke-linecap="round" stroke-linejoin="round"/>
<path d="M382.759 111.457H445.159V20.457H382.759" stroke="#5C5C5C" stroke-width="0.5766" stroke-miterlimit="10" stroke-linecap="round" stroke-linejoin="round"/>
<path d="M288.858 124.158H457.858V7.75781H288.858V124.158Z" stroke="#5C5C5C" stroke-width="0.5766" stroke-miterlimit="10" stroke-linecap="round" stroke-linejoin="round"/>
<path d="M373.358 11.0566V120.757" stroke="#5C5C5C" stroke-width="0.5766" stroke-miterlimit="10" stroke-linecap="round" stroke-linejoin="round"/>
<path d="M382.759 11.0566V120.757" stroke="#5C5C5C" stroke-width="0.5766" stroke-miterlimit="10" stroke-linecap="round" stroke-linejoin="round"/>
<path d="M363.959 11.0566V120.757" stroke="#5C5C5C" stroke-width="0.5766" stroke-miterlimit="10" stroke-linecap="round" stroke-linejoin="round"/>
<path d="M301.559 20.4566V11.0566" stroke="#5C5C5C" stroke-width="0.5766" stroke-miterlimit="10" stroke-linecap="round" stroke-linejoin="round"/>
<path d="M445.158 20.4566V11.0566" stroke="#5C5C5C" stroke-width="0.5766" stroke-miterlimit="10" stroke-linecap="round" stroke-linejoin="round"/>
<path d="M293.259 3.95781H288.559V0.257812H457.259V3.95781H293.259Z" stroke="#5C5C5C" stroke-width="0.517" stroke-miterlimit="10" stroke-linecap="round" stroke-linejoin="round"/>
<path d="M454.259 131.156H291.959V180.656H454.259V131.156Z" stroke="#575756" stroke-width="0.5766" stroke-miterlimit="10" stroke-linecap="round" stroke-linejoin="round"/>
<path d="M370.958 148.557V163.257H368.358V148.557H370.958Z" fill="#C0C0BF" stroke="#5C5C5C" stroke-width="0.5766" stroke-miterlimit="10" stroke-linecap="round" stroke-linejoin="round"/>
<path d="M380.659 148.557V163.257H378.059V148.557H380.659Z" fill="#C0C0BF" stroke="#5C5C5C" stroke-width="0.5766" stroke-miterlimit="10" stroke-linecap="round" stroke-linejoin="round"/>
<path d="M374.358 131.156V180.756" stroke="#5C5C5C" stroke-width="0.5766" stroke-miterlimit="10" stroke-linecap="round" stroke-linejoin="round"/>
<path d="M627.358 186.258V200.958H624.658V186.258H627.358Z" fill="#C0C0BF" stroke="#5C5C5C" stroke-width="0.5766" stroke-miterlimit="10" stroke-linecap="round" stroke-linejoin="round"/>
<path d="M637.058 186.258V200.958H634.358V186.258H637.058Z" fill="#C0C0BF" stroke="#5C5C5C" stroke-width="0.5766" stroke-miterlimit="10" stroke-linecap="round" stroke-linejoin="round"/>
<path d="M630.759 169.156V218.356" stroke="#5C5C5C" stroke-width="0.5766" stroke-miterlimit="10" stroke-linecap="round" stroke-linejoin="round"/>
<path opacity="0.5" d="M452.859 184.057H293.259V186.557H452.859V184.057Z" fill="#D7D7D7"/>
<path d="M452.759 184.057V186.657H293.259V184.057" stroke="#C0C0BF" stroke-width="0.3844" stroke-miterlimit="10" stroke-linecap="round" stroke-linejoin="round"/>
<path d="M288.559 261.456V186.656H457.259V261.456H450.659V193.156H295.159V261.456H288.559Z" stroke="#5C5C5C" stroke-width="0.5766" stroke-miterlimit="10" stroke-linecap="round" stroke-linejoin="round"/>
<path d="M295.158 224.057H450.658" stroke="#5C5C5C" stroke-width="0.5766" stroke-miterlimit="10" stroke-linecap="round" stroke-linejoin="round"/>
<path d="M295.158 230.557H450.658" stroke="#5C5C5C" stroke-width="0.5766" stroke-miterlimit="10" stroke-linecap="round" stroke-linejoin="round"/>
<circle cx="457.259" cy="186.657" r="0.2883" fill="#5C5C5C"/>
<path d="M295.158 193.156V186.656" stroke="#5C5C5C" stroke-width="0.5766" stroke-miterlimit="10" stroke-linecap="round" stroke-linejoin="round"/>
<path d="M450.658 193.156V186.656" stroke="#5C5C5C" stroke-width="0.5766" stroke-miterlimit="10" stroke-linecap="round" stroke-linejoin="round"/>
<path d="M288.559 184.058V127.758H457.659V184.058H288.559Z" stroke="#5C5C5C" stroke-width="0.5766" stroke-miterlimit="10" stroke-linecap="round" stroke-linejoin="round"/>
<path d="M376.358 70.6562V57.2562C376.358 56.9562 376.658 56.6562 376.958 56.6562H378.558C378.858 56.6562 379.158 56.9562 379.158 57.2562V70.7563C379.158 71.0563 378.858 71.3563 378.558 71.3563H376.958C376.658 71.2563 376.358 70.9562 376.358 70.6562Z" fill="#C0C0BF" stroke="#5C5C5C" stroke-width="0.5766" stroke-miterlimit="10" stroke-linecap="round" stroke-linejoin="round"/>
<path d="M378.558 71.2566H377.058C376.658 71.2566 376.358 70.9566 376.358 70.5566V57.2566C376.358 56.8566 376.658 56.5566 377.058 56.5566H378.558C378.958 56.5566 379.258 56.8566 379.258 57.2566V70.5566C379.158 70.9566 378.858 71.2566 378.558 71.2566Z" fill="#C0C0BF" stroke="#5C5C5C" stroke-width="0.5766" stroke-miterlimit="10" stroke-linecap="round" stroke-linejoin="round"/>
<path d="M366.959 70.6562V57.2562C366.959 56.9562 367.259 56.6562 367.559 56.6562H369.159C369.459 56.6562 369.759 56.9562 369.759 57.2562V70.7563C369.759 71.0563 369.459 71.3563 369.159 71.3563H367.559C367.259 71.2563 366.959 70.9562 366.959 70.6562Z" fill="#C0C0BF" stroke="#5C5C5C" stroke-width="0.5766" stroke-miterlimit="10" stroke-linecap="round" stroke-linejoin="round"/>
<path d="M369.159 71.2566H367.659C367.259 71.2566 366.959 70.9566 366.959 70.5566V57.2566C366.959 56.8566 367.259 56.5566 367.659 56.5566H369.159C369.559 56.5566 369.859 56.8566 369.859 57.2566V70.5566C369.759 70.9566 369.459 71.2566 369.159 71.2566Z" fill="#C0C0BF" stroke="#5C5C5C" stroke-width="0.5766" stroke-miterlimit="10" stroke-linecap="round" stroke-linejoin="round"/>
<path opacity="0.5" d="M627.658 162.656H550.358V165.556H627.658V162.656Z" fill="#D7D7D7"/>
<path opacity="0.5" d="M709.759 165.757H635.559V162.457L709.759 162.657V165.757Z" fill="#D7D7D7"/>
<path d="M635.459 162.656V165.456H709.859V162.656" stroke="#C0C0BF" stroke-width="0.3827" stroke-miterlimit="10" stroke-linecap="round" stroke-linejoin="round"/>
<path d="M627.658 162.656V165.556" stroke="#C0C0BF" stroke-width="0.3827" stroke-miterlimit="10" stroke-linecap="round" stroke-linejoin="round"/>
<path d="M550.358 162.656V165.756" stroke="#C0C0BF" stroke-width="0.3827" stroke-miterlimit="10" stroke-linecap="round" stroke-linejoin="round"/>
<path opacity="0.5" d="M710.059 221.857H550.959V224.057H710.059V221.857Z" fill="#D7D7D7"/>
<path d="M709.958 222.156H550.858V224.056H709.958V222.156Z" stroke="#C0C0BF" stroke-width="0.2706" stroke-miterlimit="10" stroke-linecap="round" stroke-linejoin="round"/>
<path d="M714.458 261.457V224.057H546.158V261.457H552.658" stroke="#5C5C5C" stroke-width="0.574" stroke-miterlimit="10" stroke-linecap="round" stroke-linejoin="round"/>
<path d="M552.658 261.457V230.557H707.858V261.457H714.458" stroke="#5C5C5C" stroke-width="0.574" stroke-miterlimit="10" stroke-linecap="round" stroke-linejoin="round"/>
<path d="M552.658 230.557V224.057" stroke="#5C5C5C" stroke-width="0.574" stroke-miterlimit="10" stroke-linecap="round" stroke-linejoin="round"/>
<path d="M707.858 230.557V224.057" stroke="#5C5C5C" stroke-width="0.574" stroke-miterlimit="10" stroke-linecap="round" stroke-linejoin="round"/>
<path d="M711.059 169.156H549.459V218.456H711.059V169.156Z" stroke="#575756" stroke-width="0.574" stroke-miterlimit="10" stroke-linecap="round" stroke-linejoin="round"/>
<path d="M546.158 221.758V165.758H714.458V221.758H546.158Z" stroke="#5C5C5C" stroke-width="0.574" stroke-miterlimit="10" stroke-linecap="round" stroke-linejoin="round"/>
<path d="M714.158 158.758H546.158V162.458H714.158V158.758Z" stroke="#5C5C5C" stroke-width="0.5146" stroke-miterlimit="10" stroke-linecap="round" stroke-linejoin="round"/>
<path d="M552.559 158.757V39.0566H559.059V158.757" stroke="#5C5C5C" stroke-width="0.574" stroke-miterlimit="10" stroke-linecap="round" stroke-linejoin="round"/>
<path d="M707.758 158.757V39.0566H701.158V158.757" stroke="#5C5C5C" stroke-width="0.574" stroke-miterlimit="10" stroke-linecap="round" stroke-linejoin="round"/>
<path d="M701.159 105.256H559.059" stroke="#5C5C5C" stroke-width="0.574" stroke-miterlimit="10" stroke-linecap="round" stroke-linejoin="round"/>
<path d="M559.059 103.057H701.159" stroke="#5C5C5C" stroke-width="0.574" stroke-miterlimit="10" stroke-linecap="round" stroke-linejoin="round"/>
<path d="M559.059 49.5578V47.2578" stroke="#5C5C5C" stroke-width="0.574" stroke-miterlimit="10" stroke-linecap="round" stroke-linejoin="round"/>
<path d="M701.159 49.5586H559.059" stroke="#5C5C5C" stroke-width="0.574" stroke-miterlimit="10" stroke-linecap="round" stroke-linejoin="round"/>
<path d="M559.059 47.2578H701.159" stroke="#5C5C5C" stroke-width="0.574" stroke-miterlimit="10" stroke-linecap="round" stroke-linejoin="round"/>
<path d="M701.158 49.5566H560.358" stroke="#5C5C5C" stroke-width="0.574" stroke-miterlimit="10" stroke-linecap="round" stroke-linejoin="round"/>
<path d="M701.159 109.057H559.059" stroke="#5C5C5C" stroke-width="0.574" stroke-miterlimit="10" stroke-linecap="round" stroke-linejoin="round"/>
<path d="M559.059 52.7578H701.159" stroke="#5C5C5C" stroke-width="0.574" stroke-miterlimit="10" stroke-linecap="round" stroke-linejoin="round"/>
<circle cx="701.158" cy="109.057" r="0.287" fill="#5C5C5C"/>
<circle cx="707.358" cy="138.857" r="0.287" fill="#5C5C5C"/>
<path d="M559.059 49.5566H584.859" stroke="#5C5C5C" stroke-width="0.574" stroke-miterlimit="10" stroke-linecap="round" stroke-linejoin="round"/>
<circle cx="559.058" cy="49.5565" r="0.287" fill="#5C5C5C"/>
<circle cx="584.858" cy="49.5565" r="0.287" fill="#5C5C5C"/>
<path opacity="0.5" d="M962.759 159.258H886.959V162.958H962.759V159.258Z" fill="#D7D7D7"/>
<path opacity="0.5" d="M876.859 158.957H800.959V162.657H876.859V158.957Z" fill="#D7D7D7"/>
<path d="M886.959 159.258V162.958H962.759V159.558" stroke="#C0C0BF" stroke-width="0.3712" stroke-miterlimit="10" stroke-linecap="round" stroke-linejoin="round"/>
<path d="M800.959 159.157V162.657H876.859V158.957" stroke="#C0C0BF" stroke-width="0.373" stroke-miterlimit="10" stroke-linecap="round" stroke-linejoin="round"/>
<path d="M801.358 219.957V222.457H963.358V219.957" stroke="#C0C0BF" stroke-width="0.3901" stroke-miterlimit="10" stroke-linecap="round" stroke-linejoin="round"/>
<path opacity="0.5" d="M964.058 220.156H801.358V222.356H964.058V220.156Z" fill="#D7D7D7"/>
<path opacity="0.5" d="M964.358 116.557H886.658V120.657H964.358V116.557Z" fill="#D7D7D7"/>
<path opacity="0.5" d="M878.459 116.457H800.759V120.557H878.459V116.457Z" fill="#D7D7D7"/>
<path d="M886.559 116.557V120.657H964.359V116.857" stroke="#C0C0BF" stroke-width="0.395" stroke-miterlimit="10" stroke-linecap="round" stroke-linejoin="round"/>
<path d="M882.459 120.656V158.656H967.759V120.656H882.459Z" stroke="#5C5C5C" stroke-width="0.5852" stroke-miterlimit="10" stroke-linecap="round" stroke-linejoin="round"/>
<path d="M964.359 124.457H886.559V154.757H964.359V124.457Z" stroke="#5C5C5C" stroke-width="0.5852" stroke-miterlimit="10" stroke-linecap="round" stroke-linejoin="round"/>
<path d="M800.759 116.757V120.657H878.459V116.557" stroke="#C0C0BF" stroke-width="0.3971" stroke-miterlimit="10" stroke-linecap="round" stroke-linejoin="round"/>
<path d="M796.559 120.656V158.556H881.859V120.656H796.559Z" stroke="#5C5C5C" stroke-width="0.5852" stroke-miterlimit="10" stroke-linecap="round" stroke-linejoin="round"/>
<path d="M878.458 124.457H800.658V154.757H878.458V124.457Z" stroke="#5C5C5C" stroke-width="0.5852" stroke-miterlimit="10" stroke-linecap="round" stroke-linejoin="round"/>
<path d="M801.259 116.557H963.059" stroke="#5C5C5C" stroke-width="0.5247" stroke-miterlimit="10" stroke-linecap="round" stroke-linejoin="round"/>
<path d="M801.259 116.558H796.559V112.758H967.759V116.558H963.059" stroke="#5C5C5C" stroke-width="0.5247" stroke-miterlimit="10" stroke-linecap="round" stroke-linejoin="round"/>
<circle cx="801.258" cy="116.557" r="0.26235" fill="#5C5C5C"/>
<path d="M878.359 124.457H800.759V154.757H878.359V124.457Z" stroke="#5C5C5C" stroke-width="0.5852" stroke-miterlimit="10" stroke-linecap="round" stroke-linejoin="round"/>
<path d="M968.458 260.557V222.457H796.858V260.557H803.558V229.057H961.758V260.557H968.458Z" stroke="#5C5C5C" stroke-width="0.5852" stroke-miterlimit="10" stroke-linecap="round" stroke-linejoin="round"/>
<path d="M803.559 229.057V222.457" stroke="#5C5C5C" stroke-width="0.5852" stroke-miterlimit="10" stroke-linecap="round" stroke-linejoin="round"/>
<path d="M961.759 229.057V222.457" stroke="#5C5C5C" stroke-width="0.5852" stroke-miterlimit="10" stroke-linecap="round" stroke-linejoin="round"/>
<path d="M879.358 183.557V198.557H876.658V183.557H879.358Z" fill="#C0C0BF" stroke="#5C5C5C" stroke-width="0.5852" stroke-miterlimit="10" stroke-linecap="round" stroke-linejoin="round"/>
<path d="M889.159 183.557V198.557H886.459V183.557H889.159Z" fill="#C0C0BF" stroke="#5C5C5C" stroke-width="0.5852" stroke-miterlimit="10" stroke-linecap="round" stroke-linejoin="round"/>
<path d="M882.759 165.857V215.157" stroke="#5C5C5C" stroke-width="0.5852" stroke-miterlimit="10" stroke-linecap="round" stroke-linejoin="round"/>
<path d="M964.659 165.857H799.959V216.157H964.659V165.857Z" stroke="#5C5C5C" stroke-width="0.5852" stroke-miterlimit="10" stroke-linecap="round" stroke-linejoin="round"/>
<path d="M796.559 219.657V162.457H968.159V219.657H796.559Z" stroke="#5C5C5C" stroke-width="0.5852" stroke-miterlimit="10" stroke-linecap="round" stroke-linejoin="round"/>
<path d="M932.358 131.257H918.758C918.458 131.257 918.158 130.957 918.158 130.657V129.057C918.158 128.757 918.458 128.457 918.758 128.457H925.558H932.358C932.658 128.457 932.958 128.757 932.958 129.057V130.657C932.958 130.957 932.658 131.257 932.358 131.257Z" fill="#C0C0BF" stroke="#5C5C5C" stroke-width="0.5852" stroke-miterlimit="10" stroke-linecap="round" stroke-linejoin="round"/>
<path d="M846.058 131.257H832.458C832.158 131.257 831.858 130.957 831.858 130.657V129.057C831.858 128.757 832.158 128.457 832.458 128.457H839.258H846.058C846.358 128.457 846.658 128.757 846.658 129.057V130.657C846.658 130.957 846.358 131.257 846.058 131.257Z" fill="#C0C0BF" stroke="#5C5C5C" stroke-width="0.5852" stroke-miterlimit="10" stroke-linecap="round" stroke-linejoin="round"/>
</svg>
