<svg width="900" height="232" viewBox="0 0 900 232" fill="none" xmlns="http://www.w3.org/2000/svg">
<path opacity="0.5" d="M167.392 190.623H5.19238V192.823H167.392V190.623Z" fill="#D7D7D7"/>
<path d="M167.293 190.924H5.09277V192.824H167.293V190.924Z" stroke="#C0C0BF" stroke-width="0.2759" stroke-miterlimit="10" stroke-linecap="round" stroke-linejoin="round"/>
<path opacity="0.5" d="M167.193 148.824H91.3926V152.924H167.193V148.824Z" fill="#D7D7D7"/>
<path opacity="0.5" d="M81.2926 148.824H5.39258V152.924H81.2926V148.824Z" fill="#D7D7D7"/>
<path d="M91.293 148.824V152.924H167.193V149.124" stroke="#C0C0BF" stroke-width="0.3901" stroke-miterlimit="10" stroke-linecap="round" stroke-linejoin="round"/>
<path d="M168.193 156.924H90.3926V187.224H168.193V156.924Z" fill="white"/>
<path d="M86.1924 152.924V190.924H171.492V152.924H86.1924Z" stroke="#5C5C5C" stroke-width="0.5852" stroke-miterlimit="10" stroke-linecap="round" stroke-linejoin="round"/>
<path d="M168.193 156.723H90.3926V187.023H168.193V156.723Z" stroke="#5C5C5C" stroke-width="0.5852" stroke-miterlimit="10" stroke-linecap="round" stroke-linejoin="round"/>
<path d="M5.39258 149.124V152.924H81.2926V148.824" stroke="#C0C0BF" stroke-width="0.3901" stroke-miterlimit="10" stroke-linecap="round" stroke-linejoin="round"/>
<path d="M82.1926 156.924H4.39258V187.224H82.1926V156.924Z" fill="white"/>
<path d="M0.292969 152.924V190.924H85.593V152.924H0.292969Z" stroke="#5C5C5C" stroke-width="0.5852" stroke-miterlimit="10" stroke-linecap="round" stroke-linejoin="round"/>
<path d="M82.1926 156.723H4.39258V187.023H82.1926V156.723Z" stroke="#5C5C5C" stroke-width="0.5852" stroke-miterlimit="10" stroke-linecap="round" stroke-linejoin="round"/>
<path d="M171.893 230.924V192.824H0.292969V230.924H6.99297" stroke="#5C5C5C" stroke-width="0.5852" stroke-miterlimit="10" stroke-linecap="round" stroke-linejoin="round"/>
<path d="M6.99316 230.923V199.523H165.193V230.923H171.893" stroke="#5C5C5C" stroke-width="0.5852" stroke-miterlimit="10" stroke-linecap="round" stroke-linejoin="round"/>
<path d="M4.99316 148.824H166.793" stroke="#5C5C5C" stroke-width="0.5247" stroke-miterlimit="10" stroke-linecap="round" stroke-linejoin="round"/>
<path d="M4.99297 148.823H0.292969V145.023H171.493V148.823H166.793" stroke="#5C5C5C" stroke-width="0.5247" stroke-miterlimit="10" stroke-linecap="round" stroke-linejoin="round"/>
<circle cx="4.99282" cy="148.825" r="0.26235" fill="#5C5C5C"/>
<path opacity="0.5" d="M160.193 144.524H11.6932C10.4932 144.524 9.49316 143.524 9.49316 142.324V142.024C9.49316 140.824 10.4932 139.824 11.6932 139.824H160.193C161.393 139.824 162.393 140.824 162.393 142.024V142.324C162.393 143.524 161.393 144.524 160.193 144.524Z" stroke="#5C5C5C" stroke-width="0.5247" stroke-miterlimit="10" stroke-linecap="round" stroke-linejoin="round"/>
<path d="M6.99316 199.524V192.824" stroke="#5C5C5C" stroke-width="0.5852" stroke-miterlimit="10" stroke-linecap="round" stroke-linejoin="round"/>
<path d="M165.192 199.524V192.824" stroke="#5C5C5C" stroke-width="0.5852" stroke-miterlimit="10" stroke-linecap="round" stroke-linejoin="round"/>
<path opacity="0.5" d="M412.593 191.023H252.793V193.223H412.593V191.023Z" fill="#D7D7D7"/>
<path d="M412.492 191.324H252.692V193.224H412.492V191.324Z" stroke="#C0C0BF" stroke-width="0.2718" stroke-miterlimit="10" stroke-linecap="round" stroke-linejoin="round"/>
<path d="M416.993 230.823V193.223H247.893V230.823H254.493" stroke="#5C5C5C" stroke-width="0.5766" stroke-miterlimit="10" stroke-linecap="round" stroke-linejoin="round"/>
<path d="M254.493 230.824V199.824H410.393V230.824H416.993" stroke="#5C5C5C" stroke-width="0.5766" stroke-miterlimit="10" stroke-linecap="round" stroke-linejoin="round"/>
<path d="M254.493 199.823V193.223" stroke="#5C5C5C" stroke-width="0.5766" stroke-miterlimit="10" stroke-linecap="round" stroke-linejoin="round"/>
<path d="M410.393 199.823V193.223" stroke="#5C5C5C" stroke-width="0.5766" stroke-miterlimit="10" stroke-linecap="round" stroke-linejoin="round"/>
<path opacity="0.5" d="M413.393 130.523H251.793V134.623H413.393V130.523Z" fill="#D7D7D7"/>
<path d="M251.793 130.824V134.624H413.393V130.924" stroke="#C0C0BF" stroke-width="0.572" stroke-miterlimit="10" stroke-linecap="round" stroke-linejoin="round"/>
<path opacity="0.5" d="M413.393 70.123H251.793V74.223H413.393V70.123Z" fill="#D7D7D7"/>
<path d="M251.793 70.4238V74.2238H413.393V70.4238" stroke="#C0C0BF" stroke-width="0.572" stroke-miterlimit="10" stroke-linecap="round" stroke-linejoin="round"/>
<path d="M413.793 77.623H251.493V127.123H413.793V77.623Z" stroke="#575756" stroke-width="0.5766" stroke-miterlimit="10" stroke-linecap="round" stroke-linejoin="round"/>
<path d="M248.093 130.523V74.2227H417.093V130.523H248.093Z" stroke="#5C5C5C" stroke-width="0.5766" stroke-miterlimit="10" stroke-linecap="round" stroke-linejoin="round"/>
<path d="M252.793 70.0227H248.093V66.2227H416.793V70.0227H252.793Z" stroke="#5C5C5C" stroke-width="0.517" stroke-miterlimit="10" stroke-linecap="round" stroke-linejoin="round"/>
<path d="M329.493 155.424V170.224H326.793V155.424H329.493Z" fill="#C0C0BF" stroke="#5C5C5C" stroke-width="0.5766" stroke-miterlimit="10" stroke-linecap="round" stroke-linejoin="round"/>
<path d="M339.193 155.424V170.224H336.493V155.424H339.193Z" fill="#C0C0BF" stroke="#5C5C5C" stroke-width="0.5766" stroke-miterlimit="10" stroke-linecap="round" stroke-linejoin="round"/>
<path d="M332.893 138.023V187.623" stroke="#5C5C5C" stroke-width="0.5766" stroke-miterlimit="10" stroke-linecap="round" stroke-linejoin="round"/>
<path d="M413.593 138.023H251.293V187.523H413.593V138.023Z" stroke="#5C5C5C" stroke-width="0.5766" stroke-miterlimit="10" stroke-linecap="round" stroke-linejoin="round"/>
<path d="M247.893 191.023V134.723H416.993V191.023H247.893Z" stroke="#5C5C5C" stroke-width="0.5766" stroke-miterlimit="10" stroke-linecap="round" stroke-linejoin="round"/>
<path opacity="0.5" d="M638.693 190.723H478.293V192.923H638.693V190.723Z" fill="#D7D7D7"/>
<path d="M638.493 191.023H478.093V192.923H638.493V191.023Z" stroke="#C0C0BF" stroke-width="0.2728" stroke-miterlimit="10" stroke-linecap="round" stroke-linejoin="round"/>
<path opacity="0.5" d="M638.493 149.723H563.493V153.423H638.493V149.723Z" fill="#D7D7D7"/>
<path opacity="0.5" d="M553.393 149.424H478.393V153.124H553.393V149.424Z" fill="#D7D7D7"/>
<path d="M563.393 149.723V153.323H638.493V149.923" stroke="#C0C0BF" stroke-width="0.3671" stroke-miterlimit="10" stroke-linecap="round" stroke-linejoin="round"/>
<path d="M478.393 149.624V153.024H553.493V149.424" stroke="#C0C0BF" stroke-width="0.3689" stroke-miterlimit="10" stroke-linecap="round" stroke-linejoin="round"/>
<path d="M477.093 156.824V186.924H638.493V156.824H477.093Z" stroke="#575756" stroke-width="0.5788" stroke-miterlimit="10"/>
<path d="M642.693 190.723V153.123H473.393V190.723H642.693Z" stroke="#5C5C5C" stroke-width="0.5788" stroke-miterlimit="10" stroke-linecap="round" stroke-linejoin="round"/>
<path d="M643.093 230.624V192.924H473.393V230.624H479.993" stroke="#5C5C5C" stroke-width="0.5788" stroke-miterlimit="10" stroke-linecap="round" stroke-linejoin="round"/>
<path d="M636.493 199.824V230.924H643.093" stroke="#5C5C5C" stroke-width="0.5788" stroke-miterlimit="10" stroke-linecap="round" stroke-linejoin="round"/>
<path d="M479.993 230.624V199.824" stroke="#5C5C5C" stroke-width="0.5788" stroke-miterlimit="10" stroke-linecap="round" stroke-linejoin="round"/>
<path d="M478.093 149.424H638.093" stroke="#5C5C5C" stroke-width="0.5189" stroke-miterlimit="10" stroke-linecap="round" stroke-linejoin="round"/>
<path d="M478.093 149.423H473.393V145.623H642.793V149.423H638.093" stroke="#5C5C5C" stroke-width="0.5189" stroke-miterlimit="10" stroke-linecap="round" stroke-linejoin="round"/>
<circle cx="630.493" cy="129.623" r="0.25945" fill="#5C5C5C"/>
<path opacity="0.5" d="M631.493 145.423H484.693C483.493 145.423 482.493 144.423 482.493 143.223V142.923C482.493 141.723 483.493 140.723 484.693 140.723H631.593C632.793 140.723 633.793 141.723 633.793 142.923V143.223C633.693 144.523 632.793 145.423 631.493 145.423Z" stroke="#5C5C5C" stroke-width="0.5189" stroke-miterlimit="10" stroke-linecap="round" stroke-linejoin="round"/>
<path d="M479.993 199.823V193.223" stroke="#5C5C5C" stroke-width="0.5788" stroke-miterlimit="10" stroke-linecap="round" stroke-linejoin="round"/>
<path d="M636.493 199.823V193.223" stroke="#5C5C5C" stroke-width="0.5788" stroke-miterlimit="10" stroke-linecap="round" stroke-linejoin="round"/>
<path opacity="0.5" d="M893.893 139.723H809.993V143.423H893.893V139.723Z" fill="#D7D7D7"/>
<path opacity="0.5" d="M893.993 139.424H809.993V143.124H893.993V139.424Z" stroke="#D7D7D7" stroke-width="0.0647386" stroke-miterlimit="10"/>
<path d="M809.993 139.123V143.423H893.993V139.123" stroke="#C0C0BF" stroke-width="0.4324" stroke-miterlimit="10" stroke-linecap="round" stroke-linejoin="round"/>
<path opacity="0.5" d="M801.093 139.623H713.793V143.523H801.093V139.623Z" fill="#D7D7D7"/>
<path d="M801.093 139.123V143.423" stroke="#C0C0BF" stroke-width="0.4324" stroke-miterlimit="10" stroke-linecap="round" stroke-linejoin="round"/>
<path d="M713.793 139.424V143.724" stroke="#C0C0BF" stroke-width="0.4324" stroke-miterlimit="10" stroke-linecap="round" stroke-linejoin="round"/>
<path opacity="0.5" d="M894.893 186.223H713.593V188.723H894.893V186.223Z" fill="#D7D7D7"/>
<path d="M713.593 186.023V188.723H894.793V186.023" stroke="#C0C0BF" stroke-width="0.4342" stroke-miterlimit="10" stroke-linecap="round" stroke-linejoin="round"/>
<path d="M899.493 230.923V188.723H709.393V230.923H716.793V196.123H892.093V230.923H899.493Z" stroke="#5C5C5C" stroke-width="0.6485" stroke-miterlimit="10" stroke-linecap="round" stroke-linejoin="round"/>
<path d="M716.793 196.123V188.723" stroke="#5C5C5C" stroke-width="0.6485" stroke-miterlimit="10" stroke-linecap="round" stroke-linejoin="round"/>
<path d="M892.093 196.123V188.723" stroke="#5C5C5C" stroke-width="0.6485" stroke-miterlimit="10" stroke-linecap="round" stroke-linejoin="round"/>
<path d="M835.592 155.023H772.192V152.023H835.592V155.023Z" stroke="#5C5C5C" stroke-width="0.6485" stroke-miterlimit="10" stroke-linecap="round" stroke-linejoin="round"/>
<path d="M713.593 147.824V181.624H714.593" stroke="#5C5C5C" stroke-width="0.6485" stroke-miterlimit="10" stroke-linecap="round" stroke-linejoin="round"/>
<path d="M709.393 143.623H899.493V185.823" stroke="#5C5C5C" stroke-width="0.6485" stroke-miterlimit="10" stroke-linecap="round" stroke-linejoin="round"/>
<path d="M713.593 147.723H894.793V181.623" stroke="#5C5C5C" stroke-width="0.6485" stroke-miterlimit="10" stroke-linecap="round" stroke-linejoin="round"/>
<path d="M714.593 185.824H899.493" stroke="#5C5C5C" stroke-width="0.6485" stroke-miterlimit="10" stroke-linecap="round" stroke-linejoin="round"/>
<path d="M714.593 181.623H894.193" stroke="#5C5C5C" stroke-width="0.6485" stroke-miterlimit="10" stroke-linecap="round" stroke-linejoin="round"/>
<circle cx="784.393" cy="139.324" r="0.32425" fill="#5C5C5C"/>
<path d="M709.393 143.623V185.823H714.593" stroke="#5C5C5C" stroke-width="0.6485" stroke-miterlimit="10" stroke-linecap="round" stroke-linejoin="round"/>
<circle cx="718.893" cy="139.324" r="0.32425" fill="#5C5C5C"/>
<path d="M716.793 135.524V0.324219H724.193V135.524" stroke="#5C5C5C" stroke-width="0.6485" stroke-miterlimit="10" stroke-linecap="round" stroke-linejoin="round"/>
<path d="M892.092 135.524V0.324219H884.692V135.524" stroke="#5C5C5C" stroke-width="0.6485" stroke-miterlimit="10" stroke-linecap="round" stroke-linejoin="round"/>
<path d="M724.192 72.623H884.692V75.123H724.192V72.623Z" stroke="#5C5C5C" stroke-width="0.6485" stroke-miterlimit="10" stroke-linecap="round" stroke-linejoin="round"/>
<path d="M709.393 135.523H899.493V139.323H709.393V135.523Z" stroke="#5C5C5C" stroke-width="0.6485" stroke-miterlimit="10" stroke-linecap="round" stroke-linejoin="round"/>
<path d="M724.192 9.62305H884.692V12.223H724.192V9.62305Z" stroke="#5C5C5C" stroke-width="0.6485" stroke-miterlimit="10" stroke-linecap="round" stroke-linejoin="round"/>
<path d="M884.693 12.2227H725.593" stroke="#5C5C5C" stroke-width="0.6485" stroke-miterlimit="10" stroke-linecap="round" stroke-linejoin="round"/>
<path d="M884.692 79.3242H724.192" stroke="#5C5C5C" stroke-width="0.6485" stroke-miterlimit="10" stroke-linecap="round" stroke-linejoin="round"/>
<path d="M724.192 15.7227H884.692" stroke="#5C5C5C" stroke-width="0.6485" stroke-miterlimit="10" stroke-linecap="round" stroke-linejoin="round"/>
<circle cx="884.692" cy="79.3242" r="0.32425" fill="#5C5C5C"/>
<circle cx="884.692" cy="113.023" r="0.32425" fill="#5C5C5C"/>
<circle cx="892.093" cy="135.523" r="0.32425" fill="#5C5C5C"/>
<circle cx="892.093" cy="0.32425" r="0.32425" fill="#5C5C5C"/>
<path d="M724.192 12.2227H753.392" stroke="#5C5C5C" stroke-width="0.6485" stroke-miterlimit="10" stroke-linecap="round" stroke-linejoin="round"/>
<circle cx="724.192" cy="135.523" r="0.32425" fill="#5C5C5C"/>
<circle cx="754.793" cy="135.523" r="0.32425" fill="#5C5C5C"/>
<circle cx="724.192" cy="12.2227" r="0.32425" fill="#5C5C5C"/>
<circle cx="753.393" cy="12.2227" r="0.32425" fill="#5C5C5C"/>
<circle cx="716.793" cy="0.32425" r="0.32425" fill="#5C5C5C"/>
<circle cx="716.793" cy="135.523" r="0.32425" fill="#5C5C5C"/>
<circle cx="709.393" cy="135.523" r="0.32425" fill="#5C5C5C"/>
<path d="M724.192 12.223V9.62305" stroke="#5C5C5C" stroke-width="0.6485" stroke-miterlimit="10" stroke-linecap="round" stroke-linejoin="round"/>
</svg>
