<svg width="772" height="202" viewBox="0 0 772 202" fill="none" xmlns="http://www.w3.org/2000/svg">
<g opacity="0.5">
<path d="M81.7934 100.188H4.19336V103.988H81.7934V100.188Z" fill="#D7D7D7"/>
</g>
<path d="M81.793 100.188V103.988" stroke="#C0C0BF" stroke-width="0.3901" stroke-miterlimit="10" stroke-linecap="round" stroke-linejoin="round"/>
<g opacity="0.5">
<path d="M280.393 119.389H202.793V123.189H280.393V119.389Z" fill="#D7D7D7"/>
</g>
<path d="M280.293 119.389V123.189" stroke="#C0C0BF" stroke-width="0.3901" stroke-miterlimit="10" stroke-linecap="round" stroke-linejoin="round"/>
<path d="M202.793 119.389V123.189" stroke="#C0C0BF" stroke-width="0.3901" stroke-miterlimit="10" stroke-linecap="round" stroke-linejoin="round"/>
<path opacity="0.5" d="M279.493 161.289H203.493V163.189H279.493V161.289Z" fill="#D7D7D7"/>
<path d="M279.293 161.289V163.189C267.993 163.189 256.693 163.189 245.493 163.189C242.793 163.189 240.093 163.189 237.393 163.189C226.093 163.189 214.793 163.189 203.593 163.189C203.593 162.589 203.593 161.889 203.593 161.289" stroke="#C0C0BF" stroke-width="0.0582107" stroke-miterlimit="10" stroke-linecap="round" stroke-linejoin="round"/>
<path d="M203.493 161.389V163.189H279.293V161.389" stroke="#C0C0BF" stroke-width="0.3901" stroke-miterlimit="10" stroke-linecap="round" stroke-linejoin="round"/>
<path opacity="0.5" d="M503.893 161.188H427.893V163.088H503.893V161.188Z" fill="#D7D7D7"/>
<path d="M283.893 200.988V163.188H198.993V200.988H205.593V169.887H277.293V200.988H283.893Z" stroke="#5C5C5C" stroke-width="0.5852" stroke-miterlimit="10" stroke-linecap="round" stroke-linejoin="round"/>
<path d="M503.693 161.188V163.088C492.393 163.088 481.093 163.088 469.893 163.088C467.193 163.088 464.493 163.088 461.793 163.088C450.493 163.088 439.193 163.088 427.993 163.088C427.993 162.488 427.993 161.788 427.993 161.188" stroke="#C0C0BF" stroke-width="0.0582107" stroke-miterlimit="10" stroke-linecap="round" stroke-linejoin="round"/>
<path d="M427.893 161.289V163.089H503.693V161.289" stroke="#C0C0BF" stroke-width="0.3901" stroke-miterlimit="10" stroke-linecap="round" stroke-linejoin="round"/>
<path d="M508.293 200.988V163.188H423.193V200.988H429.893V169.788H501.693V200.988H508.293Z" stroke="#5C5C5C" stroke-width="0.5852" stroke-miterlimit="10" stroke-linecap="round" stroke-linejoin="round"/>
<path d="M429.893 169.788V163.188" stroke="#5C5C5C" stroke-width="0.5852" stroke-miterlimit="10" stroke-linecap="round" stroke-linejoin="round"/>
<path d="M501.693 169.788V163.188" stroke="#5C5C5C" stroke-width="0.5852" stroke-miterlimit="10" stroke-linecap="round" stroke-linejoin="round"/>
<circle cx="200.993" cy="97.0878" r="0.09755" fill="#C0C0BF"/>
<circle cx="200.993" cy="97.0878" r="0.09755" fill="#C0C0BF"/>
<path d="M198.193 119.389V62.8887H283.193V119.389H198.193Z" stroke="#5C5C5C" stroke-width="0.5632" stroke-miterlimit="10" stroke-linecap="round" stroke-linejoin="round"/>
<path d="M279.793 66.2891H201.593V115.989H279.793V66.2891Z" stroke="#5C5C5C" stroke-width="0.5632" stroke-miterlimit="10" stroke-linecap="round" stroke-linejoin="round"/>
<path d="M423.193 160.789V104.389H508.193V160.789H423.193Z" stroke="#5C5C5C" stroke-width="0.5632" stroke-miterlimit="10" stroke-linecap="round" stroke-linejoin="round"/>
<path d="M504.793 107.688H426.593V157.387H504.793V107.688Z" stroke="#5C5C5C" stroke-width="0.5632" stroke-miterlimit="10" stroke-linecap="round" stroke-linejoin="round"/>
<g opacity="0.5">
<path d="M279.593 59.0879H201.993V62.8879H279.593V59.0879Z" fill="#D7D7D7"/>
</g>
<path d="M198.893 123.289V161.189H284.093V123.289H198.893Z" stroke="#5C5C5C" stroke-width="0.5852" stroke-miterlimit="10" stroke-linecap="round" stroke-linejoin="round"/>
<path d="M280.293 127.088H202.693V157.388H280.293V127.088Z" stroke="#5C5C5C" stroke-width="0.5852" stroke-miterlimit="10" stroke-linecap="round" stroke-linejoin="round"/>
<g opacity="0.5">
<path d="M504.593 58.7891H426.993V62.5891H504.593V58.7891Z" fill="#D7D7D7"/>
</g>
<path d="M504.593 59.0879V62.4879" stroke="#C0C0BF" stroke-width="0.3901" stroke-miterlimit="10" stroke-linecap="round" stroke-linejoin="round"/>
<g opacity="0.5">
<path d="M504.493 100.588H426.893V104.388H504.493V100.588Z" fill="#D7D7D7"/>
</g>
<path d="M504.493 100.588V104.388" stroke="#C0C0BF" stroke-width="0.3901" stroke-miterlimit="10" stroke-linecap="round" stroke-linejoin="round"/>
<path d="M423.093 62.6875V100.587H508.293V62.6875H423.093Z" stroke="#5C5C5C" stroke-width="0.5852" stroke-miterlimit="10" stroke-linecap="round" stroke-linejoin="round"/>
<path d="M504.493 66.4883H426.893V96.7883H504.493V66.4883Z" stroke="#5C5C5C" stroke-width="0.5852" stroke-miterlimit="10" stroke-linecap="round" stroke-linejoin="round"/>
<path d="M279.493 59.0879V62.8879" stroke="#C0C0BF" stroke-width="0.3901" stroke-miterlimit="10" stroke-linecap="round" stroke-linejoin="round"/>
<path d="M283.293 59.0879H201.793" stroke="#5C5C5C" stroke-width="0.5852" stroke-miterlimit="10" stroke-linecap="round" stroke-linejoin="round"/>
<path d="M201.793 62.8898V59.0898" stroke="#C0C0BF" stroke-width="0.3901" stroke-miterlimit="10" stroke-linecap="round" stroke-linejoin="round"/>
<path d="M201.793 59.0891H197.993V55.2891H283.293V59.0891" stroke="#5C5C5C" stroke-width="0.5852" stroke-miterlimit="10" stroke-linecap="round" stroke-linejoin="round"/>
<circle cx="283.293" cy="55.2889" r="0.0291054" fill="#C0C0BF"/>
<path d="M426.993 62.8898V59.0898" stroke="#C0C0BF" stroke-width="0.3901" stroke-miterlimit="10" stroke-linecap="round" stroke-linejoin="round"/>
<path d="M426.993 59.0891H423.193V55.2891H508.493V59.0891H426.993Z" stroke="#5C5C5C" stroke-width="0.5852" stroke-miterlimit="10" stroke-linecap="round" stroke-linejoin="round"/>
<circle cx="508.493" cy="55.2889" r="0.0291054" fill="#C0C0BF"/>
<path d="M247.593 133.888H233.993C233.693 133.888 233.393 133.588 233.393 133.288V131.688C233.393 131.388 233.693 131.088 233.993 131.088H247.593C247.893 131.088 248.193 131.388 248.193 131.688V133.288C248.193 133.688 247.893 133.888 247.593 133.888Z" fill="#C0C0BF" stroke="#5C5C5C" stroke-width="0.5852" stroke-miterlimit="10" stroke-linecap="round" stroke-linejoin="round"/>
<path opacity="0.5" d="M80.6934 160.889H4.69336V162.789H80.6934V160.889Z" fill="#D7D7D7"/>
<path d="M80.5926 160.889V162.789C69.2926 162.789 57.9926 162.789 46.7926 162.789C44.0926 162.789 41.3926 162.789 38.6926 162.789C27.3926 162.789 16.0926 162.789 4.89258 162.789C4.89258 162.189 4.89258 161.489 4.89258 160.889" stroke="#C0C0BF" stroke-width="0.0582107" stroke-miterlimit="10" stroke-linecap="round" stroke-linejoin="round"/>
<path d="M4.69336 160.988V162.788H80.5934V160.988" stroke="#C0C0BF" stroke-width="0.3901" stroke-miterlimit="10" stroke-linecap="round" stroke-linejoin="round"/>
<path d="M85.193 200.589V162.889H0.292969V200.589H6.89297V169.489H78.593V200.589H85.193Z" stroke="#5C5C5C" stroke-width="0.5852" stroke-miterlimit="10" stroke-linecap="round" stroke-linejoin="round"/>
<circle cx="3.19325" cy="138.088" r="0.09755" fill="#C0C0BF"/>
<circle cx="3.19325" cy="138.088" r="0.09755" fill="#C0C0BF"/>
<path d="M0.493164 160.488V103.988H85.3932V160.488H0.493164Z" stroke="#5C5C5C" stroke-width="0.5632" stroke-miterlimit="10" stroke-linecap="round" stroke-linejoin="round"/>
<path d="M82.0926 107.389H3.89258V157.089H82.0926V107.389Z" stroke="#5C5C5C" stroke-width="0.5632" stroke-miterlimit="10" stroke-linecap="round" stroke-linejoin="round"/>
<path d="M85.5928 100.188H4.09277" stroke="#5C5C5C" stroke-width="0.5852" stroke-miterlimit="10" stroke-linecap="round" stroke-linejoin="round"/>
<path d="M4.09277 103.989V100.189" stroke="#C0C0BF" stroke-width="0.3901" stroke-miterlimit="10" stroke-linecap="round" stroke-linejoin="round"/>
<path d="M4.09297 100.189H0.292969V96.3887H85.593V100.189" stroke="#5C5C5C" stroke-width="0.5852" stroke-miterlimit="10" stroke-linecap="round" stroke-linejoin="round"/>
<circle cx="85.5926" cy="96.3885" r="0.0291054" fill="#C0C0BF"/>
<path opacity="0.5" d="M767.693 124.188H690.393V126.488H767.693V124.188Z" fill="#D7D7D7"/>
<path d="M690.393 123.988V126.688H767.693V123.988" stroke="#C0C0BF" stroke-width="0.3273" stroke-miterlimit="10" stroke-linecap="round" stroke-linejoin="round"/>
<path opacity="0.5" d="M767.693 64.3887H690.393V67.5887H767.693V64.3887Z" fill="#D7D7D7"/>
<path d="M686.693 163.988V201.688H693.293V170.588H764.793V201.688H771.393" stroke="#5C5C5C" stroke-width="0.5766" stroke-miterlimit="10" stroke-linecap="round" stroke-linejoin="round"/>
<path d="M764.793 163.988H693.293" stroke="#5C5C5C" stroke-width="0.5766" stroke-miterlimit="10" stroke-linecap="round" stroke-linejoin="round"/>
<path d="M771.394 201.688V163.988" stroke="#5C5C5C" stroke-width="0.5766" stroke-miterlimit="10" stroke-linecap="round" stroke-linejoin="round"/>
<path d="M693.293 170.588V133.088H764.793V170.588" stroke="#5C5C5C" stroke-width="0.5766" stroke-miterlimit="10" stroke-linecap="round" stroke-linejoin="round"/>
<path d="M771.393 164.188V126.588H686.693V164.188" stroke="#5C5C5C" stroke-width="0.5766" stroke-miterlimit="10" stroke-linecap="round" stroke-linejoin="round"/>
<path d="M764.793 133.088V126.588" stroke="#5C5C5C" stroke-width="0.5766" stroke-miterlimit="10" stroke-linecap="round" stroke-linejoin="round"/>
<circle cx="764.793" cy="170.589" r="0.0869" fill="#C0C0BF"/>
<path d="M767.693 64.0879V67.8879H690.393V64.0879" stroke="#C0C0BF" stroke-width="0.3844" stroke-miterlimit="10" stroke-linecap="round" stroke-linejoin="round"/>
<path opacity="0.5" d="M767.693 4.08789H690.393V7.28789H767.693V4.08789Z" fill="#D7D7D7"/>
<path d="M767.693 4.08789V7.58789H690.393V4.08789" stroke="#C0C0BF" stroke-width="0.3844" stroke-miterlimit="10" stroke-linecap="round" stroke-linejoin="round"/>
<path d="M767.693 7.78789V4.08789" stroke="#C0C0BF" stroke-width="0.3844" stroke-miterlimit="10" stroke-linecap="round" stroke-linejoin="round"/>
<path d="M767.693 4.08906H767.993H771.493V0.289062H686.593V4.08906H767.693Z" stroke="#5C5C5C" stroke-width="0.5766" stroke-miterlimit="10" stroke-linecap="round" stroke-linejoin="round"/>
<path d="M771.293 124.189V67.8887H686.793V124.189H771.293Z" stroke="#5C5C5C" stroke-width="0.5766" stroke-miterlimit="10" stroke-linecap="round" stroke-linejoin="round"/>
<path d="M767.893 71.2891H690.193V120.889H767.893V71.2891Z" stroke="#5C5C5C" stroke-width="0.5766" stroke-miterlimit="10" stroke-linecap="round" stroke-linejoin="round"/>
<g opacity="0.5">
<path d="M767.893 10.9883H690.193V60.5883H767.893V10.9883Z" fill="#D7D7D7"/>
</g>
<path d="M771.293 64.0891V7.78906H686.793V64.0891H771.293Z" stroke="#5C5C5C" stroke-width="0.5766" stroke-miterlimit="10" stroke-linecap="round" stroke-linejoin="round"/>
<path d="M767.893 11.1875H690.193V60.7875H767.893V11.1875Z" stroke="#5C5C5C" stroke-width="0.5766" stroke-miterlimit="10" stroke-linecap="round" stroke-linejoin="round"/>
<path d="M699.493 102.788V89.2875C699.493 88.9875 699.193 88.6875 698.893 88.6875H697.293C696.993 88.6875 696.693 88.9875 696.693 89.2875V102.788C696.693 103.088 696.993 103.388 697.293 103.388H698.893C699.193 103.388 699.493 103.088 699.493 102.788Z" fill="#C0C0BF" stroke="#5C5C5C" stroke-width="0.5766" stroke-miterlimit="10" stroke-linecap="round" stroke-linejoin="round"/>
</svg>

