<svg width="850" height="366" viewBox="0 0 850 366" fill="none" xmlns="http://www.w3.org/2000/svg">
<g clip-path="url(#clip0_2203_1322)">
<path d="M4 258.6V288.6H164.8V258.6H4Z" fill="#D7D7D7"/>
<path d="M223.5 219.4V249.4H384.2V219.3H223.5" fill="#D7D7D7"/>
<path d="M449.9 251.6V281.6H610.6V251.5H449.9" fill="#D7D7D7"/>
<path d="M684.3 241.9V271.9H845.1V241.9H684.3Z" fill="#D7D7D7"/>
<path opacity="0.5" d="M164.8 292.5H5.09961V294.5H164.8V292.5Z" fill="#D7D7D7"/>
<path d="M164.8 292.7H5V294.6H164.8V292.7Z" stroke="#C0C0BF" stroke-width="0.2718" stroke-miterlimit="10" stroke-linecap="round" stroke-linejoin="round"/>
<path opacity="0.5" d="M90.0996 255.2V251.5H164.8V255.2" fill="#D7D7D7"/>
<path opacity="0.5" d="M80.0998 251.2H5.2998V254.9H80.0998V251.2Z" fill="#D7D7D7"/>
<path d="M164.8 254.9V251.2" stroke="#C0C0BF" stroke-width="0.3657" stroke-miterlimit="10" stroke-linecap="round" stroke-linejoin="round"/>
<path d="M90 251.5V254.9" stroke="#C0C0BF" stroke-width="0.3657" stroke-miterlimit="10" stroke-linecap="round" stroke-linejoin="round"/>
<path d="M5.2998 251.5V254.9H80.0998V251.2" stroke="#C0C0BF" stroke-width="0.3675" stroke-miterlimit="10" stroke-linecap="round" stroke-linejoin="round"/>
<path d="M4 258.6V288.6H164.8V258.6H4Z" stroke="#575756" stroke-width="0.5766" stroke-miterlimit="10"/>
<path d="M169 292.4V254.9H0.299805V292.4H169Z" stroke="#5C5C5C" stroke-width="0.5766" stroke-miterlimit="10" stroke-linecap="round" stroke-linejoin="round"/>
<path d="M169.3 332.2V294.6H0.299805V332.2H6.8998" stroke="#5C5C5C" stroke-width="0.5766" stroke-miterlimit="10" stroke-linecap="round" stroke-linejoin="round"/>
<path d="M6.90039 332.2V301.5H162.8V332.5H169.4" stroke="#5C5C5C" stroke-width="0.5766" stroke-miterlimit="10" stroke-linecap="round" stroke-linejoin="round"/>
<path d="M5 251.2H164.4" stroke="#5C5C5C" stroke-width="0.517" stroke-miterlimit="10" stroke-linecap="round" stroke-linejoin="round"/>
<path d="M4.9998 251.2H0.299805V247.5H169V251.2H164.4" stroke="#5C5C5C" stroke-width="0.517" stroke-miterlimit="10" stroke-linecap="round" stroke-linejoin="round"/>
<path opacity="0.5" d="M157.9 247.3H11.4998C10.2998 247.3 9.2998 246.3 9.2998 245.1V244.8C9.2998 243.6 10.2998 242.6 11.4998 242.6H157.8C159 242.6 160 243.6 160 244.8V245.1C160 246.3 159.1 247.3 157.9 247.3Z" fill="#D7D7D7" stroke="#3D3F3F" stroke-width="0.0578171" stroke-miterlimit="10"/>
<path d="M6.90039 301.5V294.9" stroke="#5C5C5C" stroke-width="0.5766" stroke-miterlimit="10" stroke-linecap="round" stroke-linejoin="round"/>
<path d="M162.8 301.5V294.9" stroke="#5C5C5C" stroke-width="0.5766" stroke-miterlimit="10" stroke-linecap="round" stroke-linejoin="round"/>
<path opacity="0.5" d="M383.9 253.2H308.9V256.9H383.9V253.2Z" fill="#D7D7D7"/>
<path opacity="0.5" d="M298.8 252.9H223.8V256.6H298.8V252.9Z" fill="#D7D7D7"/>
<path d="M308.8 253.2V256.9H383.9V253.5" stroke="#C0C0BF" stroke-width="0.3671" stroke-miterlimit="10" stroke-linecap="round" stroke-linejoin="round"/>
<path d="M223.8 253.1V256.6H298.9V252.9" stroke="#C0C0BF" stroke-width="0.3689" stroke-miterlimit="10" stroke-linecap="round" stroke-linejoin="round"/>
<path opacity="0.5" d="M384.3 212.2H309.3V215.9H384.3V212.2Z" fill="#D7D7D7"/>
<path opacity="0.5" d="M299.2 211.9H224.2V215.6H299.2V211.9Z" fill="#D7D7D7"/>
<path d="M309.2 212.2V215.9H384.3V212.5" stroke="#C0C0BF" stroke-width="0.3671" stroke-miterlimit="10" stroke-linecap="round" stroke-linejoin="round"/>
<path d="M224.2 212.1V215.6H299.3V211.9" stroke="#C0C0BF" stroke-width="0.3689" stroke-miterlimit="10" stroke-linecap="round" stroke-linejoin="round"/>
<path d="M332.7 267.1H276.3V264.4H332.7V267.1Z" fill="#C0C0BF" stroke="#5C5C5C" stroke-width="0.5788" stroke-miterlimit="10" stroke-linecap="round" stroke-linejoin="round"/>
<path opacity="0.5" d="M384.7 294.5H224.3V296.7H384.7V294.5Z" fill="#D7D7D7"/>
<path d="M384.6 294.8H224.2V296.7H384.6V294.8Z" stroke="#C0C0BF" stroke-width="0.2728" stroke-miterlimit="10" stroke-linecap="round" stroke-linejoin="round"/>
<path d="M223.2 260.6V290.7H384.5V260.6H223.2Z" stroke="#5C5C5C" stroke-width="0.5788" stroke-miterlimit="10" stroke-linecap="round" stroke-linejoin="round"/>
<path d="M388.8 294.5V256.9H219.4V294.5H388.8Z" stroke="#5C5C5C" stroke-width="0.5788" stroke-miterlimit="10" stroke-linecap="round" stroke-linejoin="round"/>
<path d="M223.2 219.3V249.4H384.5V219.3H223.2Z" stroke="#575756" stroke-width="0.5788" stroke-miterlimit="10" stroke-linecap="round" stroke-linejoin="round"/>
<path d="M388.8 253.2V215.5H219.4V253.2H388.8Z" stroke="#5C5C5C" stroke-width="0.5788" stroke-miterlimit="10" stroke-linecap="round" stroke-linejoin="round"/>
<path d="M389.1 334.4V296.7H219.4V334.4H226" stroke="#5C5C5C" stroke-width="0.5788" stroke-miterlimit="10" stroke-linecap="round" stroke-linejoin="round"/>
<path d="M226 334.4V303.3H382.5V334.4H389.1" stroke="#5C5C5C" stroke-width="0.5788" stroke-miterlimit="10" stroke-linecap="round" stroke-linejoin="round"/>
<path d="M226 303.3V296.7" stroke="#5C5C5C" stroke-width="0.5788" stroke-miterlimit="10" stroke-linecap="round" stroke-linejoin="round"/>
<path d="M382.5 303.3V296.7" stroke="#5C5C5C" stroke-width="0.5788" stroke-miterlimit="10" stroke-linecap="round" stroke-linejoin="round"/>
<path d="M224.1 211.9H384.1" stroke="#5C5C5C" stroke-width="0.5189" stroke-miterlimit="10" stroke-linecap="round" stroke-linejoin="round"/>
<path d="M224.1 211.9H219.4V208.1H388.8V211.9H384.1" stroke="#5C5C5C" stroke-width="0.5189" stroke-miterlimit="10" stroke-linecap="round" stroke-linejoin="round"/>
<path opacity="0.5" d="M610.599 247.699H535.899V244.399L610.599 244.599V247.699Z" fill="#D7D7D7"/>
<path opacity="0.5" d="M527.9 244.6H450.1V247.6H527.9V244.6Z" fill="#D7D7D7"/>
<path d="M610.7 247.4V244.6" stroke="#C0C0BF" stroke-width="0.3851" stroke-miterlimit="10" stroke-linecap="round" stroke-linejoin="round"/>
<path d="M535.8 244.6V247.4" stroke="#C0C0BF" stroke-width="0.3851" stroke-miterlimit="10" stroke-linecap="round" stroke-linejoin="round"/>
<path d="M527.899 244.6V247.5" stroke="#C0C0BF" stroke-width="0.3851" stroke-miterlimit="10" stroke-linecap="round" stroke-linejoin="round"/>
<path d="M450.1 244.6V247.7" stroke="#C0C0BF" stroke-width="0.3851" stroke-miterlimit="10" stroke-linecap="round" stroke-linejoin="round"/>
<path d="M450.2 285.7V288.1H610.1V285.7" stroke="#C0C0BF" stroke-width="0.3851" stroke-miterlimit="10" stroke-linecap="round" stroke-linejoin="round"/>
<path opacity="0.5" d="M610.2 285.399H450.2V287.899H610.2V285.399Z" fill="#D7D7D7"/>
<path d="M615.2 365.2V288.1H445.8V365.2H452.4V334.1H608.6V365.2H615.2Z" stroke="#5C5C5C" stroke-width="0.5777" stroke-miterlimit="10" stroke-linecap="round" stroke-linejoin="round"/>
<path d="M452.399 334.1V327.5H608.599V334.1" stroke="#5C5C5C" stroke-width="0.5805" stroke-miterlimit="10" stroke-linecap="round" stroke-linejoin="round"/>
<path d="M608.6 288.399H452.2V294.999H608.6V288.399Z" stroke="#5C5C5C" stroke-width="0.5777" stroke-miterlimit="10" stroke-linecap="round" stroke-linejoin="round"/>
<path d="M452.2 295.6V328" stroke="#5C5C5C" stroke-width="0.5777" stroke-miterlimit="10" stroke-linecap="round" stroke-linejoin="round"/>
<path d="M608.6 327.5V295" stroke="#5C5C5C" stroke-width="0.5777" stroke-miterlimit="10" stroke-linecap="round" stroke-linejoin="round"/>
<path d="M449.6 251.5V281.6H450.5" stroke="#5C5C5C" stroke-width="0.5777" stroke-miterlimit="10" stroke-linecap="round" stroke-linejoin="round"/>
<path d="M445.8 247.7H615.2V285.4" stroke="#5C5C5C" stroke-width="0.5777" stroke-miterlimit="10" stroke-linecap="round" stroke-linejoin="round"/>
<path d="M449.6 251.399H610.9V281.599" stroke="#5C5C5C" stroke-width="0.5777" stroke-miterlimit="10" stroke-linecap="round" stroke-linejoin="round"/>
<path d="M450.5 285.399H615.2" stroke="#5C5C5C" stroke-width="0.5777" stroke-miterlimit="10" stroke-linecap="round" stroke-linejoin="round"/>
<path d="M450.5 281.6H610.5" stroke="#5C5C5C" stroke-width="0.5777" stroke-miterlimit="10" stroke-linecap="round" stroke-linejoin="round"/>
<path d="M445.8 247.7V285.4H450.5" stroke="#5C5C5C" stroke-width="0.5777" stroke-miterlimit="10" stroke-linecap="round" stroke-linejoin="round"/>
<path d="M460.3 241.2H453.7" stroke="#5C5C5C" stroke-width="0.5777" stroke-miterlimit="10" stroke-linecap="round" stroke-linejoin="round"/>
<path d="M453.7 241.2V0.299805H460.3V241.2" stroke="#5C5C5C" stroke-width="0.5777" stroke-miterlimit="10" stroke-linecap="round" stroke-linejoin="round"/>
<path d="M609.9 241.2V0.299805H603.3V241.2" stroke="#5C5C5C" stroke-width="0.5777" stroke-miterlimit="10" stroke-linecap="round" stroke-linejoin="round"/>
<path d="M460.3 183H603.3V185.3H460.3V183Z" stroke="#5C5C5C" stroke-width="0.5777" stroke-miterlimit="10" stroke-linecap="round" stroke-linejoin="round"/>
<path d="M445.8 241.2H615.2V244.6H445.8V241.2Z" stroke="#5C5C5C" stroke-width="0.5777" stroke-miterlimit="10" stroke-linecap="round" stroke-linejoin="round"/>
<path d="M460.3 124.899H603.3V127.099H460.3V124.899Z" stroke="#5C5C5C" stroke-width="0.5777" stroke-miterlimit="10" stroke-linecap="round" stroke-linejoin="round"/>
<path d="M603.3 127.1H460.3" stroke="#5C5C5C" stroke-width="0.5777" stroke-miterlimit="10" stroke-linecap="round" stroke-linejoin="round"/>
<path d="M603.3 189H460.3" stroke="#5C5C5C" stroke-width="0.5777" stroke-miterlimit="10" stroke-linecap="round" stroke-linejoin="round"/>
<path d="M603.3 130.899H460.3" stroke="#5C5C5C" stroke-width="0.5777" stroke-miterlimit="10" stroke-linecap="round" stroke-linejoin="round"/>
<path d="M460.3 66.7002H603.3V69.0002H460.3V66.7002Z" stroke="#5C5C5C" stroke-width="0.5777" stroke-miterlimit="10" stroke-linecap="round" stroke-linejoin="round"/>
<path d="M603.3 69H460.3" stroke="#5C5C5C" stroke-width="0.5777" stroke-miterlimit="10" stroke-linecap="round" stroke-linejoin="round"/>
<path d="M603.3 72.7002H460.3" stroke="#5C5C5C" stroke-width="0.5777" stroke-miterlimit="10" stroke-linecap="round" stroke-linejoin="round"/>
<path d="M460.3 8.59961H603.3V10.7996H460.3V8.59961Z" stroke="#5C5C5C" stroke-width="0.5777" stroke-miterlimit="10" stroke-linecap="round" stroke-linejoin="round"/>
<path d="M603.3 14.5996H460.3" stroke="#5C5C5C" stroke-width="0.5777" stroke-miterlimit="10" stroke-linecap="round" stroke-linejoin="round"/>
<path opacity="0.5" d="M846 234.3H769.4V238.3H846V234.3Z" fill="#D7D7D7"/>
<path opacity="0.5" d="M761.3 234.2H684.7V237.9H761.3V234.2Z" fill="#D7D7D7"/>
<path d="M769.3 234.3V238H846V234" stroke="#C0C0BF" stroke-width="0.3892" stroke-miterlimit="10" stroke-linecap="round" stroke-linejoin="round"/>
<path d="M761.3 238V234.2" stroke="#C0C0BF" stroke-width="0.3913" stroke-miterlimit="10" stroke-linecap="round" stroke-linejoin="round"/>
<path d="M684.7 234.5V238" stroke="#C0C0BF" stroke-width="0.3913" stroke-miterlimit="10" stroke-linecap="round" stroke-linejoin="round"/>
<path opacity="0.5" d="M845.2 316.6H685.4V318.8H845.2V316.6Z" fill="#D7D7D7"/>
<path d="M845.1 316.9H685.3V318.8H845.1V316.9Z" stroke="#C0C0BF" stroke-width="0.2718" stroke-miterlimit="10" stroke-linecap="round" stroke-linejoin="round"/>
<path opacity="0.5" d="M845.1 275.8H770.4V279.4H845.1V275.8Z" fill="#D7D7D7"/>
<path opacity="0.5" d="M760.4 275.4H685.6V279.1H760.4V275.4Z" fill="#D7D7D7"/>
<path d="M770.3 275.8V279.4H845V276" stroke="#C0C0BF" stroke-width="0.3657" stroke-miterlimit="10" stroke-linecap="round" stroke-linejoin="round"/>
<path d="M685.6 275.7V279.1H760.4V275.4" stroke="#C0C0BF" stroke-width="0.3675" stroke-miterlimit="10" stroke-linecap="round" stroke-linejoin="round"/>
<path d="M684.3 241.7V271.7H845.1V241.7H684.3Z" stroke="#5C5C5C" stroke-width="0.5766" stroke-miterlimit="10" stroke-linecap="round" stroke-linejoin="round"/>
<path d="M849.3 275.4V238H680.6V275.4H849.3Z" stroke="#5C5C5C" stroke-width="0.5766" stroke-miterlimit="10" stroke-linecap="round" stroke-linejoin="round"/>
<path d="M849.6 356.4V318.8H680.6V356.4H687.1" stroke="#5C5C5C" stroke-width="0.5766" stroke-miterlimit="10" stroke-linecap="round" stroke-linejoin="round"/>
<path d="M687.2 356.4V325.7H843.1V356.7H849.7" stroke="#5C5C5C" stroke-width="0.5766" stroke-miterlimit="10" stroke-linecap="round" stroke-linejoin="round"/>
<path d="M685 234H844.4" stroke="#5C5C5C" stroke-width="0.517" stroke-miterlimit="10" stroke-linecap="round" stroke-linejoin="round"/>
<path d="M685 234H680.3V230.3H849.1V234H844.4" stroke="#5C5C5C" stroke-width="0.517" stroke-miterlimit="10" stroke-linecap="round" stroke-linejoin="round"/>
<path d="M687.2 325.7V319.1" stroke="#5C5C5C" stroke-width="0.5766" stroke-miterlimit="10" stroke-linecap="round" stroke-linejoin="round"/>
<path d="M843.1 325.7V319.1" stroke="#5C5C5C" stroke-width="0.5766" stroke-miterlimit="10" stroke-linecap="round" stroke-linejoin="round"/>
<path d="M765.2 279.4V316.8H849.3V279.4H765.2Z" stroke="#5C5C5C" stroke-width="0.5766" stroke-miterlimit="10" stroke-linecap="round" stroke-linejoin="round"/>
<path d="M845.9 283.1H769.3V313H845.9V283.1Z" stroke="#5C5C5C" stroke-width="0.5766" stroke-miterlimit="10" stroke-linecap="round" stroke-linejoin="round"/>
<path d="M680.6 279.4V316.7H764.7V279.4H680.6Z" stroke="#5C5C5C" stroke-width="0.5766" stroke-miterlimit="10" stroke-linecap="round" stroke-linejoin="round"/>
<path d="M761.3 283.1H684.7V313H761.3V283.1Z" stroke="#5C5C5C" stroke-width="0.5766" stroke-miterlimit="10" stroke-linecap="round" stroke-linejoin="round"/>
<path d="M761.2 283.1H684.7V312.9H761.2V283.1Z" stroke="#5C5C5C" stroke-width="0.5766" stroke-miterlimit="10" stroke-linecap="round" stroke-linejoin="round"/>
<path d="M814.4 289.8H801C800.7 289.8 800.4 289.5 800.4 289.2V287.6C800.4 287.3 800.7 287 801 287H807.7H814.4C814.7 287 815 287.3 815 287.6V289.2C815 289.6 814.7 289.8 814.4 289.8Z" fill="#C0C0BF" stroke="#5C5C5C" stroke-width="0.5766" stroke-miterlimit="10" stroke-linecap="round" stroke-linejoin="round"/>
<path d="M729.3 289.8H715.9C715.6 289.8 715.3 289.5 715.3 289.2V287.6C715.3 287.3 715.6 287 715.9 287H722.6H729.3C729.6 287 729.9 287.3 729.9 287.6V289.2C729.9 289.6 729.7 289.8 729.3 289.8Z" fill="#C0C0BF" stroke="#5C5C5C" stroke-width="0.5766" stroke-miterlimit="10" stroke-linecap="round" stroke-linejoin="round"/>
</g>
<defs>
<clipPath id="clip0_2203_1322">
<rect width="849.9" height="365.5" fill="white"/>
</clipPath>
</defs>
</svg>
