<svg width="272" height="74" viewBox="0 0 272 74" fill="none" xmlns="http://www.w3.org/2000/svg">
<path d="M8.24292 66.804V72.7501H263.257V66.804" fill="#F29D07" fill-opacity="0.4"/>
<path d="M8.24292 66.804V72.7501H263.257V66.804" stroke="#232323" stroke-width="1.5" stroke-miterlimit="10" stroke-linecap="round" stroke-linejoin="round"/>
<path d="M18.707 6.82541V0.75H252.664V6.82541" fill="#F29D07" fill-opacity="0.4"/>
<path d="M18.707 6.82541V0.75H252.664V6.82541" stroke="#232323" stroke-width="1.5" stroke-miterlimit="10" stroke-linecap="round" stroke-linejoin="round"/>
<path d="M0.75 6.82568V66.804H270.75V6.82568H0.75Z" fill="#F29D07" fill-opacity="0.4" stroke="#232323" stroke-width="1.5" stroke-miterlimit="10" stroke-linecap="round" stroke-linejoin="round"/>
<path d="M265.324 12.125H6.17578V61.3744H265.324V12.125Z" stroke="#232323" stroke-width="1.5" stroke-miterlimit="10" stroke-linecap="round" stroke-linejoin="round"/>
<path d="M166.238 29.1883H105.133C103.712 29.1883 102.678 28.025 102.678 26.7323V25.4397C102.678 24.0178 103.841 22.9836 105.133 22.9836H166.238C167.659 22.9836 168.693 24.147 168.693 25.4397V26.7323C168.693 28.025 167.659 29.1883 166.238 29.1883Z" stroke="#232323" stroke-miterlimit="10" stroke-linecap="round" stroke-linejoin="round"/>
</svg>
