<svg width="142" height="108" viewBox="0 0 142 108" fill="none" xmlns="http://www.w3.org/2000/svg">
<path d="M8.52051 100.57V106.75H132.846V100.57" fill="#F29D07" fill-opacity="0.4"/>
<path d="M8.52051 100.57V106.75H132.846V100.57" stroke="#232323" stroke-width="1.5" stroke-miterlimit="10" stroke-linecap="round" stroke-linejoin="round"/>
<path d="M19.3721 6.93012V0.75H121.994V6.93012" fill="#F29D07" fill-opacity="0.4"/>
<path d="M19.3721 6.93012V0.75H121.994V6.93012" stroke="#232323" stroke-width="1.5" stroke-miterlimit="10" stroke-linecap="round" stroke-linejoin="round"/>
<path d="M0.75 100.57V6.92993H140.75V100.57H0.75Z" fill="#F29D07" fill-opacity="0.4" stroke="#232323" stroke-width="1.5" stroke-miterlimit="10" stroke-linecap="round" stroke-linejoin="round"/>
<path d="M134.989 12.5723H6.24268V94.9274H134.989V12.5723Z" stroke="#232323" stroke-width="1.5" stroke-miterlimit="10" stroke-linecap="round" stroke-linejoin="round"/>
<path d="M115.563 70.2078V39.5765C115.563 38.636 116.367 37.6956 117.439 37.6956H120.252C121.19 37.6956 122.128 38.5017 122.128 39.5765V70.2078C122.128 71.1482 121.324 72.0887 120.252 72.0887H117.439C116.501 72.0887 115.563 71.2826 115.563 70.2078Z" stroke="#232323" stroke-miterlimit="10" stroke-linecap="round" stroke-linejoin="round"/>
</svg>
