<svg width="229" height="331" viewBox="0 0 229 331" fill="none" xmlns="http://www.w3.org/2000/svg">
<path d="M15.7729 5.95455V0.827259L213.337 0.5V5.62729" stroke="#848484" stroke-miterlimit="10" stroke-linecap="round" stroke-linejoin="round"/>
<path d="M6.82715 325.045V330.173H222.173V325.045" stroke="#848484" stroke-miterlimit="10" stroke-linecap="round" stroke-linejoin="round"/>
<path d="M223.918 10.4272H5.08154V320.464H223.918V10.4272Z" stroke="#232323" stroke-miterlimit="10" stroke-linecap="round" stroke-linejoin="round"/>
<path d="M101.845 23.082H17.7363V307.809H101.845" stroke="#232323" stroke-miterlimit="10" stroke-linecap="round" stroke-linejoin="round"/>
<path d="M127.155 307.809H211.264V23.082H127.155" stroke="#232323" stroke-miterlimit="10" stroke-linecap="round" stroke-linejoin="round"/>
<path d="M0.5 325.045H228.5V5.84521H0.5V325.045Z" stroke="#232323" stroke-miterlimit="10" stroke-linecap="round" stroke-linejoin="round"/>
<path d="M114.5 10.4272V320.464" stroke="#232323" stroke-miterlimit="10" stroke-linecap="round" stroke-linejoin="round"/>
<path d="M101.846 23.082V320.464" stroke="#232323" stroke-miterlimit="10" stroke-linecap="round" stroke-linejoin="round"/>
<path d="M127.155 23.082V320.464" stroke="#232323" stroke-miterlimit="10" stroke-linecap="round" stroke-linejoin="round"/>
<path d="M17.7363 23.0818V10.4272" stroke="#232323" stroke-miterlimit="10" stroke-linecap="round" stroke-linejoin="round"/>
<path d="M211.264 23.0818V10.4272" stroke="#232323" stroke-miterlimit="10" stroke-linecap="round" stroke-linejoin="round"/>
<path d="M101.846 23.0818V10.4272" stroke="#232323" stroke-miterlimit="10" stroke-linecap="round" stroke-linejoin="round"/>
<path d="M127.155 23.0818V10.4272" stroke="#848484" stroke-width="1.4962" stroke-miterlimit="10" stroke-linecap="round" stroke-linejoin="round"/>
<path d="M17.7363 307.809V320.464" stroke="#232323" stroke-miterlimit="10" stroke-linecap="round" stroke-linejoin="round"/>
<path d="M211.264 307.809V320.464" stroke="#232323" stroke-miterlimit="10" stroke-linecap="round" stroke-linejoin="round"/>
<path d="M118.318 191.3V139.7C118.318 138.5 119.3 137.627 120.391 137.627H121.482C122.682 137.627 123.555 138.609 123.555 139.7V191.3C123.555 192.5 122.573 193.373 121.482 193.373H120.391C119.191 193.373 118.318 192.391 118.318 191.3Z" stroke="#848484" stroke-miterlimit="10" stroke-linecap="round" stroke-linejoin="round"/>
<path d="M104.682 191.3V139.7C104.682 138.5 105.663 137.627 106.754 137.627H107.845C109.045 137.627 109.918 138.609 109.918 139.7V191.3C109.918 192.5 108.936 193.373 107.845 193.373H106.754C105.554 193.373 104.682 192.391 104.682 191.3Z" stroke="#848484" stroke-miterlimit="10" stroke-linecap="round" stroke-linejoin="round"/>
</svg>
