<svg width="242" height="349" viewBox="0 0 242 349" fill="none" xmlns="http://www.w3.org/2000/svg">
<path d="M16.8267 6.49123V1.09446L224.788 0.75V6.14677" fill="#F29D07" fill-opacity="0.4"/>
<path d="M16.8267 6.49123V1.09446L224.788 0.75V6.14677" stroke="#232323" stroke-width="1.5" stroke-miterlimit="10" stroke-linecap="round" stroke-linejoin="round"/>
<path d="M7.41016 342.353V347.75H234.09V342.353" fill="#F29D07" fill-opacity="0.4"/>
<path d="M7.41016 342.353V347.75H234.09V342.353" stroke="#232323" stroke-width="1.5" stroke-miterlimit="10" stroke-linecap="round" stroke-linejoin="round"/>
<path d="M0.75 342.353H240.75V6.37622H0.75V342.353Z" fill="#F29D07" fill-opacity="0.4" stroke="#232323" stroke-width="1.5" stroke-miterlimit="10" stroke-linecap="round" stroke-linejoin="round"/>
<path d="M235.927 11.1992H5.57275V337.531H235.927V11.1992Z" stroke="#232323" stroke-width="1.5" stroke-miterlimit="10" stroke-linecap="round" stroke-linejoin="round"/>
<path d="M107.429 24.5188H18.8936V324.211H107.429" stroke="#232323" stroke-width="1.5" stroke-miterlimit="10" stroke-linecap="round" stroke-linejoin="round"/>
<path d="M134.071 324.211H222.607V24.5188H134.071" stroke="#232323" stroke-width="1.5" stroke-miterlimit="10" stroke-linecap="round" stroke-linejoin="round"/>
<path d="M120.75 11.1992V337.531" stroke="#232323" stroke-width="1.5" stroke-miterlimit="10" stroke-linecap="round" stroke-linejoin="round"/>
<path d="M107.43 24.5188V337.531" stroke="#232323" stroke-width="1.5" stroke-miterlimit="10" stroke-linecap="round" stroke-linejoin="round"/>
<path d="M134.071 24.5188V337.531" stroke="#232323" stroke-width="1.5" stroke-miterlimit="10" stroke-linecap="round" stroke-linejoin="round"/>
<path d="M18.8936 24.5189V11.1992" stroke="#232323" stroke-width="1.5" stroke-miterlimit="10" stroke-linecap="round" stroke-linejoin="round"/>
<path d="M222.606 24.5189V11.1992" stroke="#232323" stroke-width="1.5" stroke-miterlimit="10" stroke-linecap="round" stroke-linejoin="round"/>
<path d="M107.43 24.5189V11.1992" stroke="#232323" stroke-width="1.5" stroke-miterlimit="10" stroke-linecap="round" stroke-linejoin="round"/>
<path d="M134.071 24.5189V11.1992" stroke="#232323" stroke-width="1.5" stroke-miterlimit="10" stroke-linecap="round" stroke-linejoin="round"/>
<path d="M18.8936 324.211V337.531" stroke="#232323" stroke-width="1.5" stroke-miterlimit="10" stroke-linecap="round" stroke-linejoin="round"/>
<path d="M222.606 324.211V337.531" stroke="#232323" stroke-width="1.5" stroke-miterlimit="10" stroke-linecap="round" stroke-linejoin="round"/>
<path d="M124.769 201.578V147.266C124.769 146.003 125.803 145.085 126.951 145.085H128.099C129.362 145.085 130.281 146.118 130.281 147.266V201.578C130.281 202.841 129.248 203.76 128.099 203.76H126.951C125.688 203.76 124.769 202.727 124.769 201.578Z" stroke="#232323" stroke-miterlimit="10" stroke-linecap="round" stroke-linejoin="round"/>
<path d="M110.415 201.578V147.266C110.415 146.003 111.449 145.085 112.597 145.085H113.745C115.008 145.085 115.927 146.118 115.927 147.266V201.578C115.927 202.841 114.894 203.76 113.745 203.76H112.597C111.334 203.76 110.415 202.727 110.415 201.578Z" stroke="#232323" stroke-miterlimit="10" stroke-linecap="round" stroke-linejoin="round"/>
</svg>
