<svg width="142" height="108" viewBox="0 0 142 108" fill="none" xmlns="http://www.w3.org/2000/svg">
<path d="M132.846 100.443V106.75H8.52051V100.443" fill="#F29D07" fill-opacity="0.4"/>
<path d="M132.846 100.443V106.75H8.52051V100.443" stroke="#232323" stroke-width="1.5" stroke-miterlimit="10" stroke-linecap="round" stroke-linejoin="round"/>
<path d="M121.994 0.75H19.3721V6.92213H121.994V0.75Z" fill="#F29D07" fill-opacity="0.4" stroke="#232323" stroke-width="1.5" stroke-miterlimit="10" stroke-linecap="round" stroke-linejoin="round"/>
<path d="M0.75 7.05664V100.444H140.75V7.05664H0.75Z" fill="#F29D07" fill-opacity="0.4" stroke="#232323" stroke-width="1.5" stroke-miterlimit="10" stroke-linecap="round" stroke-linejoin="round"/>
<path d="M134.989 12.5574H6.24268V94.8082H134.989V12.5574Z" stroke="#232323" stroke-width="1.5" stroke-miterlimit="10" stroke-linecap="round" stroke-linejoin="round"/>
<path d="M85.9557 30.2691H55.4103C54.4725 30.2691 53.5347 29.464 53.5347 28.3905V25.5729C53.5347 24.6336 54.3385 23.6943 55.4103 23.6943H85.9557C86.8935 23.6943 87.8313 24.4994 87.8313 25.5729V28.3905C87.8313 29.464 87.0275 30.2691 85.9557 30.2691Z" stroke="#232323" stroke-miterlimit="10" stroke-linecap="round" stroke-linejoin="round"/>
</svg>
