<svg width="1071" height="313" viewBox="0 0 1071 313" fill="none" xmlns="http://www.w3.org/2000/svg">
<g clip-path="url(#clip0_2203_1490)">
<path opacity="0.5" d="M209.2 157.7H114.2V162.3H209.2V157.7Z" fill="#D7D7D7"/>
<path opacity="0.5" d="M101.5 157.3H6.40039V162H101.5V157.3Z" fill="#D7D7D7"/>
<path d="M114.101 157.7V162.3H209.201V158" stroke="#C0C0BF" stroke-width="0.4651" stroke-miterlimit="10" stroke-linecap="round" stroke-linejoin="round"/>
<path d="M6.40039 157.6V161.9H101.5V157.3" stroke="#C0C0BF" stroke-width="0.4674" stroke-miterlimit="10" stroke-linecap="round" stroke-linejoin="round"/>
<path opacity="0.5" d="M209.4 209.8H6.5V213H209.4V209.8Z" fill="#D7D7D7"/>
<path opacity="0.5" d="M209.4 105.6H114.6V109.8H209.4V105.6Z" fill="#D7D7D7"/>
<path opacity="0.5" d="M209.6 105.3H114.6V109.5H209.6V105.3Z" stroke="#D7D7D7" stroke-width="0.0731969" stroke-miterlimit="10"/>
<path d="M114.5 105V109.7H209.6V105" stroke="#C0C0BF" stroke-width="0.4889" stroke-miterlimit="10" stroke-linecap="round" stroke-linejoin="round"/>
<path d="M210.7 114.8H113.3V152.8H210.7V114.8Z" fill="white" stroke="#3C3C3B" stroke-width="0.7333" stroke-miterlimit="10"/>
<path d="M102.7 114.6H5.2998V152.6H102.7V114.6Z" fill="white" stroke="#3C3C3B" stroke-width="0.7333" stroke-miterlimit="10"/>
<path d="M108.1 109.8V157.4H215V109.8H108.1Z" stroke="#5C5C5C" stroke-width="0.7333" stroke-miterlimit="10" stroke-linecap="round" stroke-linejoin="round"/>
<path d="M210.7 114.6H113.3V152.6H210.7V114.6Z" stroke="#5C5C5C" stroke-width="0.7333" stroke-miterlimit="10" stroke-linecap="round" stroke-linejoin="round"/>
<path opacity="0.5" d="M104.4 105.5H5.7002V109.9H104.4V105.5Z" fill="#D7D7D7"/>
<path d="M104.5 105V109.8" stroke="#C0C0BF" stroke-width="0.4889" stroke-miterlimit="10" stroke-linecap="round" stroke-linejoin="round"/>
<path d="M5.7998 106V109.8" stroke="#5C5C5C" stroke-width="0.7333" stroke-miterlimit="10" stroke-linecap="round" stroke-linejoin="round"/>
<path d="M0.5 109.8V157.4H107.5V109.8H0.5Z" stroke="#5C5C5C" stroke-width="0.7333" stroke-miterlimit="10" stroke-linecap="round" stroke-linejoin="round"/>
<g opacity="0.5">
<path d="M102.7 114.6H5.2998V152.6H102.7V114.6Z" fill="#D7D7D7"/>
</g>
<path d="M7.20039 105H0.400391V100.2H214.3V105H208.3H9.50039H7.20039Z" stroke="#5C5C5C" stroke-width="0.7333" stroke-miterlimit="10" stroke-linecap="round" stroke-linejoin="round"/>
<path d="M142.9 175.1H71.4004V171.7H142.9V175.1Z" fill="#C0C0BF" stroke="#5C5C5C" stroke-width="0.7333" stroke-miterlimit="10" stroke-linecap="round" stroke-linejoin="round"/>
<path d="M5.2998 166.9V205H209.7V166.8H5.2998" stroke="#5C5C5C" stroke-width="0.7333" stroke-miterlimit="10" stroke-linecap="round" stroke-linejoin="round"/>
<path d="M209.4 209.8V213H6.5V209.8" stroke="#C0C0BF" stroke-width="0.4889" stroke-miterlimit="10" stroke-linecap="round" stroke-linejoin="round"/>
<path d="M0.5 308.2V213H215.1V308.2H206.7V221.4H8.9V308.2H0.5Z" stroke="#5C5C5C" stroke-width="0.7333" stroke-miterlimit="10" stroke-linecap="round" stroke-linejoin="round"/>
<path d="M8.90039 260.6H206.7" stroke="#5C5C5C" stroke-width="0.7333" stroke-miterlimit="10" stroke-linecap="round" stroke-linejoin="round"/>
<path d="M8.90039 268.9H206.7" stroke="#5C5C5C" stroke-width="0.7333" stroke-miterlimit="10" stroke-linecap="round" stroke-linejoin="round"/>
<circle cx="215.1" cy="213" r="0.36665" fill="#5C5C5C"/>
<path d="M215 209.8V162.1H0.5V209.8H215Z" stroke="#5C5C5C" stroke-width="0.7333" stroke-miterlimit="10" stroke-linecap="round" stroke-linejoin="round"/>
<path d="M8.90039 221.4V213" stroke="#5C5C5C" stroke-width="0.7333" stroke-miterlimit="10" stroke-linecap="round" stroke-linejoin="round"/>
<path d="M206.7 221.4V213" stroke="#5C5C5C" stroke-width="0.7333" stroke-miterlimit="10" stroke-linecap="round" stroke-linejoin="round"/>
<path opacity="0.5" d="M326.8 161.4V157.4H529.1V161.4" fill="#D7D7D7"/>
<path d="M529.1 161.4V157.4H326.8V161.4" stroke="#C0C0BF" stroke-width="0.4663" stroke-miterlimit="10" stroke-linecap="round" stroke-linejoin="round"/>
<path d="M326.4 209.4V212.5H528.8V209.4" stroke="#C0C0BF" stroke-width="0.4872" stroke-miterlimit="10" stroke-linecap="round" stroke-linejoin="round"/>
<path opacity="0.5" d="M528.8 209H326.4V212.2H528.8V209Z" fill="#D7D7D7"/>
<path d="M320.9 310V212.5H535.2V310H526.8V270.7H329.2V310H320.9Z" stroke="#5C5C5C" stroke-width="0.7308" stroke-miterlimit="10" stroke-linecap="round" stroke-linejoin="round"/>
<path d="M329.2 270.7V262.3H526.8V270.7" stroke="#5C5C5C" stroke-width="0.7343" stroke-miterlimit="10" stroke-linecap="round" stroke-linejoin="round"/>
<path d="M526.8 212.8H329V221.2H526.8V212.8Z" stroke="#5C5C5C" stroke-width="0.7308" stroke-miterlimit="10" stroke-linecap="round" stroke-linejoin="round"/>
<path d="M329 221.2V262.3" stroke="#5C5C5C" stroke-width="0.7308" stroke-miterlimit="10" stroke-linecap="round" stroke-linejoin="round"/>
<path d="M526.8 262.3V221.2" stroke="#5C5C5C" stroke-width="0.7308" stroke-miterlimit="10" stroke-linecap="round" stroke-linejoin="round"/>
<circle cx="433.6" cy="160.9" r="0.0363449" fill="#C0C0BF"/>
<circle cx="433.6" cy="160.9" r="0.0363449" fill="#C0C0BF"/>
<path d="M325.8 166.1V204.2H529.9" stroke="#5C5C5C" stroke-width="0.7308" stroke-miterlimit="10" stroke-linecap="round" stroke-linejoin="round"/>
<path d="M321.1 161.4H535.3V209" stroke="#5C5C5C" stroke-width="0.7308" stroke-miterlimit="10" stroke-linecap="round" stroke-linejoin="round"/>
<path d="M325.8 166.1H529.9V204.3" stroke="#5C5C5C" stroke-width="0.7308" stroke-miterlimit="10" stroke-linecap="round" stroke-linejoin="round"/>
<path d="M321.1 161.4V209H535.3" stroke="#5C5C5C" stroke-width="0.7308" stroke-miterlimit="10" stroke-linecap="round" stroke-linejoin="round"/>
<path d="M529.1 157.4V161.4" stroke="#C0C0BF" stroke-width="0.4663" stroke-miterlimit="10" stroke-linecap="round" stroke-linejoin="round"/>
<path opacity="0.5" d="M325.6 9.79961V5.09961H531.3V9.79961" fill="#D7D7D7"/>
<path d="M325.6 5.09961V9.79961" stroke="#C0C0BF" stroke-width="0.3445" stroke-miterlimit="10" stroke-linecap="round" stroke-linejoin="round"/>
<path d="M531.3 5.09961V9.79961" stroke="#C0C0BF" stroke-width="0.3445" stroke-miterlimit="10" stroke-linecap="round" stroke-linejoin="round"/>
<path d="M531.3 14.0996H325.6V153.1H531.3V14.0996Z" stroke="#5C5C5C" stroke-width="0.7308" stroke-miterlimit="10" stroke-linecap="round" stroke-linejoin="round"/>
<path d="M416.6 26H337.5V141.2H416.6" stroke="#5C5C5C" stroke-width="0.7308" stroke-miterlimit="10" stroke-linecap="round" stroke-linejoin="round"/>
<path d="M440.4 141.2H519.4V26H440.4" stroke="#5C5C5C" stroke-width="0.7308" stroke-miterlimit="10" stroke-linecap="round" stroke-linejoin="round"/>
<path d="M321.4 157.4H535.6V9.7998H321.4V157.4Z" stroke="#5C5C5C" stroke-width="0.7308" stroke-miterlimit="10" stroke-linecap="round" stroke-linejoin="round"/>
<path d="M428.5 14.0996V153.2" stroke="#5C5C5C" stroke-width="0.7308" stroke-miterlimit="10" stroke-linecap="round" stroke-linejoin="round"/>
<path d="M440.4 14.0996V153.2" stroke="#5C5C5C" stroke-width="0.7308" stroke-miterlimit="10" stroke-linecap="round" stroke-linejoin="round"/>
<path d="M416.6 14.0996V153.2" stroke="#5C5C5C" stroke-width="0.7308" stroke-miterlimit="10" stroke-linecap="round" stroke-linejoin="round"/>
<path d="M337.5 25.9996V14.0996" stroke="#5C5C5C" stroke-width="0.7308" stroke-miterlimit="10" stroke-linecap="round" stroke-linejoin="round"/>
<path d="M337.5 141.2V153.2" stroke="#5C5C5C" stroke-width="0.7308" stroke-miterlimit="10" stroke-linecap="round" stroke-linejoin="round"/>
<path d="M519.4 141.2V153.2" stroke="#5C5C5C" stroke-width="0.7308" stroke-miterlimit="10" stroke-linecap="round" stroke-linejoin="round"/>
<path d="M519.4 25.9996V14.0996" stroke="#5C5C5C" stroke-width="0.7308" stroke-miterlimit="10" stroke-linecap="round" stroke-linejoin="round"/>
<circle cx="519.4" cy="26.0002" r="0.3654" fill="#5C5C5C"/>
<circle cx="321.4" cy="9.79997" r="0.3654" fill="#5C5C5C"/>
<circle cx="440.4" cy="26.0002" r="0.3654" fill="#5C5C5C"/>
<circle cx="428.5" cy="26.0002" r="0.3654" fill="#5C5C5C"/>
<circle cx="416.6" cy="14.0998" r="0.3654" fill="#5C5C5C"/>
<circle cx="377.1" cy="26.0002" r="0.3654" fill="#5C5C5C"/>
<circle cx="377.1" cy="14.0998" r="0.3654" fill="#5C5C5C"/>
<circle cx="370.3" cy="14.0998" r="0.3654" fill="#5C5C5C"/>
<path d="M326.9 5.0998H321V0.299805H534.9V5.0998H326.9Z" stroke="#5C5C5C" stroke-width="0.6552" stroke-miterlimit="10" stroke-linecap="round" stroke-linejoin="round"/>
<path d="M432.6 92.1998V75.0998C432.6 74.6998 432.9 74.2998 433.4 74.2998H435.5C435.9 74.2998 436.3 74.5998 436.3 75.0998V92.1998C436.3 92.5998 436 92.9998 435.5 92.9998H433.4C433 92.8998 432.6 92.5998 432.6 92.1998Z" fill="#C0C0BF" stroke="#5C5C5C" stroke-width="0.7308" stroke-miterlimit="10" stroke-linecap="round" stroke-linejoin="round"/>
<path d="M435.399 92.8998H433.599C433.099 92.8998 432.699 92.4998 432.699 91.9998V75.1998C432.699 74.6998 433.099 74.2998 433.599 74.2998H435.399C435.899 74.2998 436.299 74.6998 436.299 75.1998V91.9998C436.199 92.4998 435.799 92.8998 435.399 92.8998Z" fill="#C0C0BF" stroke="#5C5C5C" stroke-width="0.7308" stroke-miterlimit="10" stroke-linecap="round" stroke-linejoin="round"/>
<path d="M420.7 92.1998V75.0998C420.7 74.6998 421 74.2998 421.5 74.2998H423.6C424 74.2998 424.4 74.5998 424.4 75.0998V92.1998C424.4 92.5998 424.1 92.9998 423.6 92.9998H421.5C421.1 92.8998 420.7 92.5998 420.7 92.1998Z" fill="#C0C0BF" stroke="#5C5C5C" stroke-width="0.7308" stroke-miterlimit="10" stroke-linecap="round" stroke-linejoin="round"/>
<path d="M423.5 92.8998H421.7C421.2 92.8998 420.8 92.4998 420.8 91.9998V75.1998C420.8 74.6998 421.2 74.2998 421.7 74.2998H423.5C424 74.2998 424.4 74.6998 424.4 75.1998V91.9998C424.3 92.4998 423.9 92.8998 423.5 92.8998Z" fill="#C0C0BF" stroke="#5C5C5C" stroke-width="0.7308" stroke-miterlimit="10" stroke-linecap="round" stroke-linejoin="round"/>
<path d="M462.6 174.3H392.6C392.2 174.3 391.9 174 391.9 173.6V171.7C391.9 171.3 392.2 171 392.6 171H462.6C463 171 463.3 171.3 463.3 171.7V173.6C463.3 174 463 174.3 462.6 174.3Z" fill="#C0C0BF"/>
<path d="M462.6 174.4H392.6C392.2 174.4 391.9 174.1 391.9 173.7V171.8C391.9 171.4 392.2 171.1 392.6 171.1H462.6C463 171.1 463.3 171.4 463.3 171.8V173.7C463.3 174.1 463 174.4 462.6 174.4Z" fill="#C0C0BF" stroke="#5C5C5C" stroke-width="0.7308" stroke-miterlimit="10" stroke-linecap="round" stroke-linejoin="round"/>
<path opacity="0.5" d="M810.8 208.5H716.3V212.7H810.8V208.5Z" fill="#D7D7D7"/>
<path opacity="0.5" d="M811 208.2H716.3V212.4H811V208.2Z" stroke="#D7D7D7" stroke-width="0.0729689" stroke-miterlimit="10"/>
<path d="M716.2 207.9V212.7H811V207.9" stroke="#C0C0BF" stroke-width="0.4873" stroke-miterlimit="10" stroke-linecap="round" stroke-linejoin="round"/>
<path opacity="0.5" d="M706.2 208.4H607.8V212.8H706.2V208.4Z" fill="#D7D7D7"/>
<path d="M706.2 207.9V212.8" stroke="#C0C0BF" stroke-width="0.4873" stroke-miterlimit="10" stroke-linecap="round" stroke-linejoin="round"/>
<path d="M607.8 208.2V213" stroke="#C0C0BF" stroke-width="0.4873" stroke-miterlimit="10" stroke-linecap="round" stroke-linejoin="round"/>
<path opacity="0.5" d="M812 260.9H607.6V263.7H812V260.9Z" fill="#D7D7D7"/>
<path d="M607.6 260.7V263.7H811.7V260.7" stroke="#C0C0BF" stroke-width="0.4895" stroke-miterlimit="10" stroke-linecap="round" stroke-linejoin="round"/>
<path d="M817.1 311.4V263.8H602.8V311.4H611.1V272.1H808.8V311.4H817.1Z" stroke="#5C5C5C" stroke-width="0.731" stroke-miterlimit="10" stroke-linecap="round" stroke-linejoin="round"/>
<path d="M611.1 272.1V263.8" stroke="#5C5C5C" stroke-width="0.731" stroke-miterlimit="10" stroke-linecap="round" stroke-linejoin="round"/>
<path d="M808.8 272.1V263.8" stroke="#5C5C5C" stroke-width="0.731" stroke-miterlimit="10" stroke-linecap="round" stroke-linejoin="round"/>
<path d="M745.1 225.8H673.6V222.4H745.1V225.8Z" stroke="#5C5C5C" stroke-width="0.731" stroke-miterlimit="10" stroke-linecap="round" stroke-linejoin="round"/>
<path d="M607.6 217.7V255.8H608.7" stroke="#5C5C5C" stroke-width="0.731" stroke-miterlimit="10" stroke-linecap="round" stroke-linejoin="round"/>
<path d="M602.8 212.9H817.1V260.5" stroke="#5C5C5C" stroke-width="0.731" stroke-miterlimit="10" stroke-linecap="round" stroke-linejoin="round"/>
<path d="M607.6 217.6H811.7V255.8" stroke="#5C5C5C" stroke-width="0.731" stroke-miterlimit="10" stroke-linecap="round" stroke-linejoin="round"/>
<path d="M608.7 260.5H817.1" stroke="#5C5C5C" stroke-width="0.731" stroke-miterlimit="10" stroke-linecap="round" stroke-linejoin="round"/>
<path d="M608.7 255.8H811.2" stroke="#5C5C5C" stroke-width="0.731" stroke-miterlimit="10" stroke-linecap="round" stroke-linejoin="round"/>
<circle cx="687.3" cy="208.2" r="0.3655" fill="#5C5C5C"/>
<path d="M602.8 212.9V260.5H608.7" stroke="#5C5C5C" stroke-width="0.731" stroke-miterlimit="10" stroke-linecap="round" stroke-linejoin="round"/>
<circle cx="613.5" cy="208.2" r="0.3655" fill="#5C5C5C"/>
<path d="M611.1 203.9V51.5H619.5V203.9" stroke="#5C5C5C" stroke-width="0.731" stroke-miterlimit="10" stroke-linecap="round" stroke-linejoin="round"/>
<path d="M808.8 203.9V51.5H800.4V203.9" stroke="#5C5C5C" stroke-width="0.731" stroke-miterlimit="10" stroke-linecap="round" stroke-linejoin="round"/>
<path d="M619.5 132.9H800.4V135.8H619.5V132.9Z" stroke="#5C5C5C" stroke-width="0.731" stroke-miterlimit="10" stroke-linecap="round" stroke-linejoin="round"/>
<path d="M602.8 203.9H817.1V208.2H602.8V203.9Z" stroke="#5C5C5C" stroke-width="0.731" stroke-miterlimit="10" stroke-linecap="round" stroke-linejoin="round"/>
<path d="M619.5 61.9004H800.4V64.8004H619.5V61.9004Z" stroke="#5C5C5C" stroke-width="0.731" stroke-miterlimit="10" stroke-linecap="round" stroke-linejoin="round"/>
<path d="M800.4 64.7998H621.1" stroke="#5C5C5C" stroke-width="0.731" stroke-miterlimit="10" stroke-linecap="round" stroke-linejoin="round"/>
<path d="M800.4 140.5H619.5" stroke="#5C5C5C" stroke-width="0.731" stroke-miterlimit="10" stroke-linecap="round" stroke-linejoin="round"/>
<path d="M619.5 68.7998H800.4" stroke="#5C5C5C" stroke-width="0.731" stroke-miterlimit="10" stroke-linecap="round" stroke-linejoin="round"/>
<circle cx="800.4" cy="140.5" r="0.3655" fill="#5C5C5C"/>
<circle cx="800.4" cy="178.5" r="0.3655" fill="#5C5C5C"/>
<circle cx="808.8" cy="203.9" r="0.3655" fill="#5C5C5C"/>
<circle cx="808.8" cy="51.5003" r="0.3655" fill="#5C5C5C"/>
<path d="M619.5 64.7998H652.4" stroke="#5C5C5C" stroke-width="0.731" stroke-miterlimit="10" stroke-linecap="round" stroke-linejoin="round"/>
<circle cx="619.5" cy="203.9" r="0.3655" fill="#5C5C5C"/>
<circle cx="654" cy="203.9" r="0.3655" fill="#5C5C5C"/>
<circle cx="619.5" cy="64.8001" r="0.3655" fill="#5C5C5C"/>
<circle cx="652.4" cy="64.8001" r="0.3655" fill="#5C5C5C"/>
<circle cx="611.1" cy="51.5003" r="0.3655" fill="#5C5C5C"/>
<circle cx="611.1" cy="203.9" r="0.3655" fill="#5C5C5C"/>
<circle cx="610.5" cy="182.7" r="0.32425" fill="#5C5C5C"/>
<path d="M619.5 64.8004V61.9004" stroke="#5C5C5C" stroke-width="0.731" stroke-miterlimit="10" stroke-linecap="round" stroke-linejoin="round"/>
<path opacity="0.5" d="M1064.4 268.2H885.1V269.9H1064.4V268.2Z" fill="#D7D7D7"/>
<path opacity="0.5" d="M969.9 175.2H884.3V179.7H969.9V175.2Z" fill="#D7D7D7"/>
<path opacity="0.5" d="M1065.5 221.4H979.7V226H1065.5V221.4Z" fill="#D7D7D7"/>
<path opacity="0.5" d="M969.6 221.4H883.8V226H969.6V221.4Z" fill="#D7D7D7"/>
<path d="M883.8 221.7V226H969.6V221.4" stroke="#C0C0BF" stroke-width="0.4413" stroke-miterlimit="10" stroke-linecap="round" stroke-linejoin="round"/>
<path d="M970.2 175.5V179.7" stroke="#C0C0BF" stroke-width="0.4309" stroke-miterlimit="10" stroke-linecap="round" stroke-linejoin="round"/>
<circle cx="884.4" cy="175.5" r="0.0321452" fill="#C0C0BF"/>
<circle cx="884.4" cy="179.3" r="0.0321452" fill="#C0C0BF"/>
<circle cx="884.4" cy="179.3" r="0.0321452" fill="#C0C0BF"/>
<path d="M885.1 268V270.1H1064.4V268" stroke="#C0C0BF" stroke-width="0.4309" stroke-miterlimit="10" stroke-linecap="round" stroke-linejoin="round"/>
<path d="M1069.7 312.2V270.1H880.2V312.2H887.5V277.5H1062.3V312.2H1069.7Z" stroke="#5C5C5C" stroke-width="0.6463" stroke-miterlimit="10" stroke-linecap="round" stroke-linejoin="round"/>
<path d="M887.5 277.5V270.1" stroke="#5C5C5C" stroke-width="0.6463" stroke-miterlimit="10" stroke-linecap="round" stroke-linejoin="round"/>
<path d="M1062.3 277.5V270.1" stroke="#5C5C5C" stroke-width="0.6463" stroke-miterlimit="10" stroke-linecap="round" stroke-linejoin="round"/>
<path d="M1065.6 221.7V225.9" stroke="#C0C0BF" stroke-width="0.4309" stroke-miterlimit="10" stroke-linecap="round" stroke-linejoin="round"/>
<path d="M1069.7 221.7H979.7" stroke="#5C5C5C" stroke-width="0.6463" stroke-miterlimit="10" stroke-linecap="round" stroke-linejoin="round"/>
<path d="M979.7 225.9V221.7" stroke="#C0C0BF" stroke-width="0.4309" stroke-miterlimit="10" stroke-linecap="round" stroke-linejoin="round"/>
<path d="M979.7 221.7H975.5V217.5H1069.7V221.7" stroke="#5C5C5C" stroke-width="0.6463" stroke-miterlimit="10" stroke-linecap="round" stroke-linejoin="round"/>
<circle cx="1069.7" cy="217.5" r="0.0321452" fill="#C0C0BF"/>
<circle cx="1069.7" cy="221.7" r="0.0321452" fill="#C0C0BF"/>
<circle cx="979.7" cy="221.7" r="0.0321452" fill="#C0C0BF"/>
<circle cx="979.7" cy="225.4" r="0.0321452" fill="#C0C0BF"/>
<circle cx="979.7" cy="225.4" r="0.0321452" fill="#C0C0BF"/>
<path opacity="0.5" d="M1062.7 217.2H982.4C981.5 217.2 980.7 216.4 980.7 215.5V213.7C980.7 212.8 981.5 212 982.4 212H1062.7C1063.6 212 1064.4 212.8 1064.4 213.7V215.5C1064.5 216.4 1063.7 217.2 1062.7 217.2Z" fill="#D7D7D7" stroke="#3D3F3F" stroke-width="0.6425" stroke-miterlimit="10"/>
<path d="M884.4 230.1V263.8H885.5" stroke="#5C5C5C" stroke-width="0.6463" stroke-miterlimit="10" stroke-linecap="round" stroke-linejoin="round"/>
<path d="M880.2 225.9H1069.7V268" stroke="#5C5C5C" stroke-width="0.6463" stroke-miterlimit="10" stroke-linecap="round" stroke-linejoin="round"/>
<path d="M885.5 263.8H1064.4H1064.9V230H884.4" stroke="#5C5C5C" stroke-width="0.6463" stroke-miterlimit="10" stroke-linecap="round" stroke-linejoin="round"/>
<path d="M880.2 225.9V268H1069.7" stroke="#5C5C5C" stroke-width="0.6463" stroke-miterlimit="10" stroke-linecap="round" stroke-linejoin="round"/>
<path d="M884.5 175.4V179.9H970.1V175.7" stroke="#C0C0BF" stroke-width="0.4356" stroke-miterlimit="10" stroke-linecap="round" stroke-linejoin="round"/>
<path d="M880 179.7V221.6H974.2V179.7H880Z" stroke="#5C5C5C" stroke-width="0.6463" stroke-miterlimit="10" stroke-linecap="round" stroke-linejoin="round"/>
<path d="M970.5 183.9H884.6V217.4H970.5V183.9Z" stroke="#5C5C5C" stroke-width="0.6463" stroke-miterlimit="10" stroke-linecap="round" stroke-linejoin="round"/>
<path d="M934.6 191.4H919.5C919.1 191.4 918.8 191.1 918.8 190.7V188.9C918.8 188.5 919.1 188.2 919.5 188.2H927H934.5C934.9 188.2 935.2 188.5 935.2 188.9V190.7C935.3 191.1 935 191.4 934.6 191.4Z" fill="#C0C0BF" stroke="#5C5C5C" stroke-width="0.6463" stroke-miterlimit="10" stroke-linecap="round" stroke-linejoin="round"/>
<path d="M973.8 175.5H883.8" stroke="#5C5C5C" stroke-width="0.6463" stroke-miterlimit="10" stroke-linecap="round" stroke-linejoin="round"/>
<path d="M883.8 175.5H879.6V171.4H973.8V175.5" stroke="#5C5C5C" stroke-width="0.6463" stroke-miterlimit="10" stroke-linecap="round" stroke-linejoin="round"/>
<circle cx="973.8" cy="175.5" r="0.0321452" fill="#C0C0BF"/>
<circle cx="883.8" cy="175.5" r="0.0321452" fill="#C0C0BF"/>
<path d="M1005.8 237.3H942.7V234.3H1005.8V237.3Z" fill="#C0C0BF" stroke="#5C5C5C" stroke-width="0.6463" stroke-miterlimit="10" stroke-linecap="round" stroke-linejoin="round"/>
</g>
<defs>
<clipPath id="clip0_2203_1490">
<rect width="1070.1" height="312.5" fill="white"/>
</clipPath>
</defs>
</svg>
