<svg width="272" height="105" viewBox="0 0 272 105" fill="none" xmlns="http://www.w3.org/2000/svg">
<path d="M8.24268 97.7603V103.75H263.257V97.7603" fill="#F29D07" fill-opacity="0.4"/>
<path d="M8.24268 97.7603V103.75H263.257V97.7603" stroke="#232323" stroke-width="1.5" stroke-miterlimit="10" stroke-linecap="round" stroke-linejoin="round"/>
<path d="M18.707 1.01045V7.00032L252.793 6.87013V0.75L18.707 1.01045Z" fill="#F29D07" fill-opacity="0.4" stroke="#232323" stroke-width="1.5" stroke-miterlimit="10" stroke-linecap="round" stroke-linejoin="round"/>
<path d="M0.75 7V97.7601H270.75V7H0.75Z" fill="#F29D07" fill-opacity="0.4" stroke="#232323" stroke-width="1.5" stroke-miterlimit="10" stroke-linecap="round" stroke-linejoin="round"/>
<path d="M265.324 12.4692H6.17578V92.2911H265.324V12.4692Z" stroke="#232323" stroke-width="1.5" stroke-miterlimit="10" stroke-linecap="round" stroke-linejoin="round"/>
<path d="M169.209 35.2572H108.104C106.683 35.2572 105.649 34.0853 105.649 32.7831V31.481C105.649 30.0486 106.812 29.0068 108.104 29.0068H169.209C170.63 29.0068 171.664 30.1788 171.664 31.481V32.7831C171.664 34.0853 170.501 35.2572 169.209 35.2572Z" stroke="#232323" stroke-miterlimit="10" stroke-linecap="round" stroke-linejoin="round"/>
</svg>
