<svg width="732" height="179" viewBox="0 0 732 179" fill="none" xmlns="http://www.w3.org/2000/svg">
<g opacity="0.5">
<path d="M81.7934 77.5H4.19336V81.3H81.7934V77.5Z" fill="#D7D7D7"/>
</g>
<path d="M81.793 77.5V81.3" stroke="#C0C0BF" stroke-width="0.3901" stroke-miterlimit="10" stroke-linecap="round" stroke-linejoin="round"/>
<g opacity="0.5">
<path d="M305.793 77.5H228.193V81.3H305.793V77.5Z" fill="#D7D7D7"/>
</g>
<path d="M227.993 77.5V81.3" stroke="#C0C0BF" stroke-width="0.3901" stroke-miterlimit="10" stroke-linecap="round" stroke-linejoin="round"/>
<path d="M727.293 96.5V100.3" stroke="#C0C0BF" stroke-width="0.3901" stroke-miterlimit="10" stroke-linecap="round" stroke-linejoin="round"/>
<path d="M727.194 104.1H649.594V134.4H727.194V104.1Z" stroke="#5C5C5C" stroke-width="0.5852" stroke-miterlimit="10" stroke-linecap="round" stroke-linejoin="round"/>
<path d="M726.294 138.199V140.099C714.994 140.099 703.694 140.099 692.494 140.099C689.794 140.099 687.094 140.099 684.394 140.099C673.094 140.099 661.794 140.099 650.594 140.099C650.594 139.499 650.594 138.799 650.594 138.199" stroke="#C0C0BF" stroke-width="0.0582107" stroke-miterlimit="10" stroke-linecap="round" stroke-linejoin="round"/>
<path d="M650.493 138.301V140.101H726.293V138.301" stroke="#C0C0BF" stroke-width="0.3901" stroke-miterlimit="10" stroke-linecap="round" stroke-linejoin="round"/>
<path d="M730.894 177.999V140.199H645.894V177.999H652.494V146.799H724.294V177.999H730.894Z" stroke="#5C5C5C" stroke-width="0.5852" stroke-miterlimit="10" stroke-linecap="round" stroke-linejoin="round"/>
<path d="M652.493 146.799V140.199" stroke="#5C5C5C" stroke-width="0.5852" stroke-miterlimit="10" stroke-linecap="round" stroke-linejoin="round"/>
<path d="M724.293 146.799V140.199" stroke="#5C5C5C" stroke-width="0.5852" stroke-miterlimit="10" stroke-linecap="round" stroke-linejoin="round"/>
<circle cx="652.493" cy="146.801" r="0.0291054" fill="#C0C0BF"/>
<circle cx="724.294" cy="146.801" r="0.0291054" fill="#C0C0BF"/>
<path d="M731.093 96.5H649.493" stroke="#5C5C5C" stroke-width="0.5852" stroke-miterlimit="10" stroke-linecap="round" stroke-linejoin="round"/>
<path d="M649.493 100.3V96.5" stroke="#C0C0BF" stroke-width="0.3901" stroke-miterlimit="10" stroke-linecap="round" stroke-linejoin="round"/>
<path d="M649.493 96.4992H645.793V92.6992H731.093V96.4992" stroke="#5C5C5C" stroke-width="0.5852" stroke-miterlimit="10" stroke-linecap="round" stroke-linejoin="round"/>
<circle cx="731.094" cy="92.701" r="0.0291054" fill="#C0C0BF"/>
<circle cx="731.094" cy="96.4998" r="0.0291054" fill="#C0C0BF"/>
<circle cx="649.493" cy="96.4998" r="0.0291054" fill="#C0C0BF"/>
<circle cx="649.493" cy="99.9002" r="0.0291054" fill="#C0C0BF"/>
<circle cx="649.493" cy="99.9002" r="0.0291054" fill="#C0C0BF"/>
<path d="M645.793 100.301V138.201H731.093V100.301H645.793Z" stroke="#5C5C5C" stroke-width="0.5852" stroke-miterlimit="10" stroke-linecap="round" stroke-linejoin="round"/>
<path opacity="0.5" d="M724.694 92.3996H651.994C651.094 92.3996 650.394 91.6996 650.394 90.7996V89.1996C650.394 88.2996 651.094 87.5996 651.994 87.5996H724.694C725.594 87.5996 726.294 88.2996 726.294 89.1996V90.7996C726.294 91.6996 725.594 92.3996 724.694 92.3996Z" fill="#D7D7D7" stroke="#3D3F3F" stroke-width="0.5817" stroke-miterlimit="10"/>
<path opacity="0.5" d="M80.793 138.199H4.79297V140.099H80.793V138.199Z" fill="#D7D7D7"/>
<path d="M80.5936 138.199V140.099C69.2936 140.099 57.9936 140.099 46.7936 140.099C44.0936 140.099 41.3936 140.099 38.6936 140.099C27.3936 140.099 16.0936 140.099 4.89355 140.099C4.89355 139.499 4.89355 138.799 4.89355 138.199" stroke="#C0C0BF" stroke-width="0.0582107" stroke-miterlimit="10" stroke-linecap="round" stroke-linejoin="round"/>
<path d="M4.79297 138.301V140.101H80.593V138.301" stroke="#C0C0BF" stroke-width="0.3901" stroke-miterlimit="10" stroke-linecap="round" stroke-linejoin="round"/>
<path opacity="0.5" d="M305.094 138.199H229.094V140.099H305.094V138.199Z" fill="#D7D7D7"/>
<path d="M85.193 177.999V140.199H0.292969V177.999H6.89296V146.799H78.593V177.999H85.193Z" stroke="#5C5C5C" stroke-width="0.5852" stroke-miterlimit="10" stroke-linecap="round" stroke-linejoin="round"/>
<path d="M304.993 138.199V140.099C293.693 140.099 282.393 140.099 271.193 140.099C268.493 140.099 265.793 140.099 263.093 140.099C251.793 140.099 240.493 140.099 229.293 140.099C229.293 139.499 229.293 138.799 229.293 138.199" stroke="#C0C0BF" stroke-width="0.0582107" stroke-miterlimit="10" stroke-linecap="round" stroke-linejoin="round"/>
<path d="M229.094 138.301V140.101H304.994V138.301" stroke="#C0C0BF" stroke-width="0.3901" stroke-miterlimit="10" stroke-linecap="round" stroke-linejoin="round"/>
<path d="M309.593 177.9V140.1H224.493V177.9H231.093V146.8H302.993V177.9H309.593Z" stroke="#5C5C5C" stroke-width="0.5852" stroke-miterlimit="10" stroke-linecap="round" stroke-linejoin="round"/>
<path d="M231.094 146.8V140.1" stroke="#5C5C5C" stroke-width="0.5852" stroke-miterlimit="10" stroke-linecap="round" stroke-linejoin="round"/>
<path d="M302.993 146.8V140.1" stroke="#5C5C5C" stroke-width="0.5852" stroke-miterlimit="10" stroke-linecap="round" stroke-linejoin="round"/>
<circle cx="3.19325" cy="115.5" r="0.09755" fill="#C0C0BF"/>
<circle cx="3.19325" cy="115.5" r="0.09755" fill="#C0C0BF"/>
<path d="M0.493164 137.801V81.3008H85.3932V137.801H0.493164Z" stroke="#5C5C5C" stroke-width="0.5632" stroke-miterlimit="10" stroke-linecap="round" stroke-linejoin="round"/>
<path d="M82.0936 84.6992H3.89355V134.399H82.0936V84.6992Z" stroke="#5C5C5C" stroke-width="0.5632" stroke-miterlimit="10" stroke-linecap="round" stroke-linejoin="round"/>
<path d="M224.493 137.801V81.3008H309.493V137.801H224.493Z" stroke="#5C5C5C" stroke-width="0.5632" stroke-miterlimit="10" stroke-linecap="round" stroke-linejoin="round"/>
<path d="M306.094 84.6992H227.894V134.399H306.094V84.6992Z" stroke="#5C5C5C" stroke-width="0.5632" stroke-miterlimit="10" stroke-linecap="round" stroke-linejoin="round"/>
<path d="M224.493 77.6992V21.1992H309.393V77.6992H224.493Z" stroke="#5C5C5C" stroke-width="0.5632" stroke-miterlimit="10" stroke-linecap="round" stroke-linejoin="round"/>
<path d="M306.094 24.5996H227.894V74.2996H306.094V24.5996Z" stroke="#5C5C5C" stroke-width="0.5632" stroke-miterlimit="10" stroke-linecap="round" stroke-linejoin="round"/>
<g opacity="0.5">
<path d="M305.893 17.1992H228.293V20.9992H305.893V17.1992Z" fill="#D7D7D7"/>
</g>
<path d="M305.894 17.4004V20.8004" stroke="#C0C0BF" stroke-width="0.3901" stroke-miterlimit="10" stroke-linecap="round" stroke-linejoin="round"/>
<path d="M305.793 77.5V81.3" stroke="#C0C0BF" stroke-width="0.3901" stroke-miterlimit="10" stroke-linecap="round" stroke-linejoin="round"/>
<path d="M85.5938 77.5H4.09375" stroke="#5C5C5C" stroke-width="0.5852" stroke-miterlimit="10" stroke-linecap="round" stroke-linejoin="round"/>
<path d="M4.09277 81.3V77.5" stroke="#C0C0BF" stroke-width="0.3901" stroke-miterlimit="10" stroke-linecap="round" stroke-linejoin="round"/>
<path d="M4.09296 77.4992H0.292969V73.6992H85.593V77.4992" stroke="#5C5C5C" stroke-width="0.5852" stroke-miterlimit="10" stroke-linecap="round" stroke-linejoin="round"/>
<circle cx="85.5936" cy="73.701" r="0.0291054" fill="#C0C0BF"/>
<path d="M228.293 21.4016V17.6016" stroke="#C0C0BF" stroke-width="0.3901" stroke-miterlimit="10" stroke-linecap="round" stroke-linejoin="round"/>
<path d="M228.293 17.6008H224.493V13.8008H309.793V17.6008H228.293Z" stroke="#5C5C5C" stroke-width="0.5852" stroke-miterlimit="10" stroke-linecap="round" stroke-linejoin="round"/>
<circle cx="309.794" cy="-0.000191525" r="0.0291054" fill="#C0C0BF"/>
<path d="M695.193 110.999H681.593C681.293 110.999 680.993 110.699 680.993 110.399V108.799C680.993 108.499 681.293 108.199 681.593 108.199H688.393H695.193C695.493 108.199 695.793 108.499 695.793 108.799V110.399C695.793 110.699 695.493 110.999 695.193 110.999Z" fill="#C0C0BF" stroke="#5C5C5C" stroke-width="0.5852" stroke-miterlimit="10" stroke-linecap="round" stroke-linejoin="round"/>
<path d="M507.894 140.3V138.5" stroke="#C0C0BF" stroke-width="0.3844" stroke-miterlimit="10" stroke-linecap="round" stroke-linejoin="round"/>
<path d="M432.693 140.3V138.5" stroke="#C0C0BF" stroke-width="0.3844" stroke-miterlimit="10" stroke-linecap="round" stroke-linejoin="round"/>
<path d="M512.594 134.699V138.499H508.894" stroke="#5C5C5C" stroke-width="0.5766" stroke-miterlimit="10" stroke-linecap="round" stroke-linejoin="round"/>
<path d="M512.593 134.699H427.993V138.499H432.693" stroke="#5C5C5C" stroke-width="0.5766" stroke-miterlimit="10" stroke-linecap="round" stroke-linejoin="round"/>
<path d="M508.893 138.5H432.693" stroke="#5C5C5C" stroke-width="0.5766" stroke-miterlimit="10" stroke-linecap="round" stroke-linejoin="round"/>
<circle cx="427.993" cy="142.2" r="0.0869" fill="#848484"/>
<path d="M512.593 178.001V140.301H427.993V178.001H434.593V146.901H505.993V178.001H512.593Z" stroke="#5C5C5C" stroke-width="0.5766" stroke-miterlimit="10" stroke-linecap="round" stroke-linejoin="round"/>
<path d="M434.594 146.901V140.301" stroke="#5C5C5C" stroke-width="0.5766" stroke-miterlimit="10" stroke-linecap="round" stroke-linejoin="round"/>
<path d="M505.993 146.901V140.301" stroke="#5C5C5C" stroke-width="0.5766" stroke-miterlimit="10" stroke-linecap="round" stroke-linejoin="round"/>
</svg>

